<?xml version="1.0" standalone="no"?>
<svg version="1.1" id="Layer_1" xmlns="http://www.w3.org/2000/svg" xmlns:xlink="http://www.w3.org/1999/xlink" x="0px" y="0px" width="595.28px" height="595.28px" viewBox="0 0 595.28 595.28" enable-background="new 0 0 595.28 595.28" xml:space="preserve">
<path id="color_x5F_6" fill="#4F2D5B" d="M307.253,354.15c-0.687-0.284-1.083-0.459-1.083-0.459l-1.406,13.638l-0.155,1.5
	l-1.772,17.195c0,0,0.723-0.054,1.952-0.143c-1.573,0.446-3.25,0.69-4.999,0.67c-8.477-0.099-15.284-6.107-15.332-13.465
	c-1.943-1.17-4.227-2.631-6.656-4.258c-0.189-0.127-0.377-0.251-0.568-0.38c-0.036,0.127-0.073,0.254-0.109,0.38
	c-1.906,6.682-3.407,12.391-3.407,12.391s-8.399-0.299-14.182-0.75l-0.04-0.352l-3.441,0.013c-1.005-0.13-1.684-0.269-1.837-0.412
	c-0.889-0.831-0.187-5.081,1.373-10.891c0.132-0.49,0.268-0.988,0.411-1.5c0.107-0.384,0.219-0.774,0.333-1.169
	c-0.41,0.392-0.82,0.78-1.23,1.169c-0.532,0.504-1.063,1.004-1.592,1.5c-7.551,7.078-14.571,13.167-14.795,13.391
	c0,0-6.654,0-12.095-0.289c-2.745-0.146-5.174-0.364-6.289-0.693c-0.506-0.149-0.748-0.32-0.616-0.519
	c0.225-0.337,4.957-5.449,11.137-11.891c0.473-0.493,0.954-0.993,1.442-1.5c6.985-7.249,15.421-15.771,21.35-21.103
	c1.402-3.303,4.743-5.375,8.425-5.438c0.985-0.104,1.958-0.065,2.89,0.107c3.273-8.522,6.309-15.428,7.544-16.75
	c3.507-3.756,8.987-4.338,12.241-1.3c0.225,0.21,0.432,0.502,0.624,0.852C291.505,328.585,300.656,342.249,307.253,354.15z
	 M388.535,333.455c-0.485,0.461-0.646,1.08-0.369,1.376c0.282,0.303,0.897,0.167,1.38-0.291c0.485-0.459,0.645-1.079,0.367-1.376
	C389.631,332.861,389.015,332.994,388.535,333.455z M382.104,327.906c-0.484,0.461-0.645,1.08-0.368,1.376
	c0.282,0.302,0.897,0.167,1.381-0.29c0.485-0.46,0.645-1.079,0.366-1.377C383.201,327.313,382.585,327.446,382.104,327.906z
	 M359.154,351.757l-8.071,7.797v0c-0.141,0.534-0.285,1.007-0.431,1.395c-0.099,0.263-0.199,0.488-0.299,0.668
	c-0.085,0.153-0.188,0.283-0.282,0.425l17.92-0.528l-6.825-11.701L359.154,351.757z M359.17,308.607c0-1.519-1.231-2.75-2.75-2.75
	s-2.75,1.231-2.75,2.75v10.267c1.012-0.941,2.244-1.708,3.309-1.917c0.747-0.146,1.497,0.029,2.191,0.343V308.607z M354.311,330.473
	c-0.193,0.336-0.412,0.685-0.64,1.037v1.441v2.157c0,1.047,0.593,1.947,1.455,2.412c0.388,0.209,0.824,0.338,1.295,0.338
	c1.519,0,2.75-1.231,2.75-2.75v-3.015v-3.137c-0.375,0.03-0.767,0.036-1.201-0.02c-0.051,0.034-0.1,0.065-0.151,0.1
	c0.019,0.072,0.034,0.133,0.047,0.177c0.007,0.026-0.763,0.297-1.83,0.666C355.513,330.059,354.925,330.261,354.311,330.473z
	 M438.036,226.81v31.498H385.17l-17.631,12.55V226.81H438.036z M384.67,243.357c0-1.933-1.567-3.5-3.5-3.5s-3.5,1.567-3.5,3.5
	c0,1.934,1.567,3.5,3.5,3.5S384.67,245.291,384.67,243.357z M406.67,243.357c0-1.933-1.567-3.5-3.5-3.5s-3.5,1.567-3.5,3.5
	c0,1.934,1.567,3.5,3.5,3.5S406.67,245.291,406.67,243.357z M428.67,243.357c0-1.933-1.567-3.5-3.5-3.5s-3.5,1.567-3.5,3.5
	c0,1.934,1.567,3.5,3.5,3.5S428.67,245.291,428.67,243.357z M350.17,315.357v-2h-28v-33.024v-25.976h39v-2h-39v-37h-2v64h-84l0-16
	h-2l0,16.976v1.024h86v34H350.17z"></path>
<path id="color_x5F_5" fill="#FFD2BB" d="M390.987,340.746c-0.068,0.048-0.117,0.083-0.117,0.083s0.03-0.051,0.072-0.122
	c0.211-0.353,0.888-1.461,1.506-2.177c0.094-0.109,0.196-0.229,0.302-0.362c0.722-0.909,1.618-2.444,1.521-5.713
	c-0.069-2.331,2.388-4.18,4.254-5.245l-0.035-0.01c0,0-6.86-3.439-11.591-3.728c-2.187-0.133-4.087,0.549-5.505,1.321l-3.607,4.18
	c-4.198,4.864-7.036,9.298-2.395,13.502c0.069,0.063,0.123,0.125,0.195,0.188l2.074,1.79l-2.528,2.93l-2.145-3.677l-1.982-3.398
	l-0.012,0.012l-9.706,9.375l-0.122,0.118l6.825,11.701l-17.92,0.528c0.094-0.142,0.196-0.271,0.282-0.425
	c0.101-0.18,0.2-0.405,0.299-0.668c0.146-0.388,0.29-0.86,0.431-1.395v0c1.303-4.942,2.352-15.297,2.352-15.297
	s0.931-3.222,1.69-6.738c-0.862-0.464-1.455-1.364-1.455-2.412v-2.157v-1.441c0.228-0.352,0.447-0.7,0.64-1.037
	c0.614-0.211,1.202-0.414,1.725-0.594c1.067-0.369,1.837-0.64,1.83-0.666c-0.013-0.044-0.028-0.104-0.047-0.177
	c0.051-0.034,0.1-0.065,0.151-0.1c0.434,0.056,0.826,0.049,1.201,0.02c0.168-0.013,0.342-0.021,0.5-0.048v-11.361
	c-0.162-0.091-0.331-0.17-0.5-0.247c-0.694-0.314-1.444-0.489-2.191-0.343c-1.065,0.209-2.297,0.976-3.309,1.917
	c-0.942,0.876-1.694,1.901-1.924,2.778c-0.163,0.623-0.251,1.204-0.24,1.718c0.002,0.077,0.009,0.145,0.013,0.218
	c0,0.005-0.777,1.574-1.47,2.971c-10.473,2.942-29.061,18.154-31.967,24.566c-1.092,2.412,3.676,7.315,9.105,7.053
	c1.191-0.058,2.413-0.36,3.613-0.996c0.806-0.427,1.973-1.429,3.308-2.736c1.01-0.988,2.115-2.15,3.237-3.378
	c3.849-4.214,7.873-9.163,8.789-10.297c-3.974,8.378-7.145,18.617-6.596,22.265c0.28,1.854,4.622,3.001,7.976,1.305
	c0.983-0.498,1.87-1.258,2.556-2.298l32.778-0.966l0.266-0.008l-1.627-2.789l8.984-10.411c0.292-0.098,0.581-0.204,0.865-0.324
	c0,0,5.608-6.176,4.749-8.632C395.615,337.563,391.687,340.253,390.987,340.746z M388.535,333.455
	c0.479-0.461,1.096-0.594,1.378-0.291c0.277,0.297,0.118,0.917-0.367,1.376c-0.482,0.458-1.098,0.594-1.38,0.291
	C387.89,334.535,388.05,333.916,388.535,333.455z M382.104,327.906c0.481-0.46,1.097-0.593,1.379-0.291
	c0.278,0.298,0.119,0.917-0.366,1.377c-0.484,0.457-1.099,0.592-1.381,0.29C381.459,328.986,381.62,328.367,382.104,327.906z"></path>
<path id="color_x5F_4" fill="#00CEC9" d="M359.154,351.757l-8.071,7.797c1.303-4.942,2.352-15.297,2.352-15.297
	s0.931-3.222,1.69-6.738c0.388,0.209,0.824,0.338,1.295,0.338c1.519,0,2.75-1.231,2.75-2.75v-3.015
	c0.187-0.006,0.366-0.009,0.527-0.004c5.168,0.172,9.317,3.674,10.231,6.729l0.165-0.074l0.9,1.576l-9.706,9.375l-0.122,0.118
	L359.154,351.757z M385.847,367.329c-0.128-0.87-0.394-1.712-0.848-2.489l-2.15-3.764l-32.778,0.966
	c-0.687,1.041-1.573,1.801-2.556,2.298c-3.354,1.696-7.696,0.549-7.976-1.305c-0.549-3.648,2.622-13.886,6.596-22.265
	c-0.916,1.134-4.939,6.083-8.789,10.297c0.103-0.01,0.201-0.021,0.304-0.03c-1.15,1.562-2.319,2.589-3.542,3.409
	c-1.335,1.307-2.502,2.309-3.308,2.736c-1.2,0.636-2.422,0.938-3.613,0.996c-5.238,1.715-16.419-2.578-19.935-4.028
	c-0.687-0.284-1.083-0.459-1.083-0.459l-1.406,13.638l-0.155,1.5l-1.772,17.195c0,0,0.723-0.054,1.952-0.143
	c7.5-0.541,34.538-2.419,40.455-1.854c5.999,0.573,11.958,0.309,17.364-0.52c11.319-1.733,20.207-5.948,21.896-10.207
	c0.858-1.436,1.345-2.973,1.421-4.472C385.953,368.322,385.92,367.822,385.847,367.329z M194.797,226.06h88.496v44.798l-24.623-11.8
	h-63.873V226.06z M256.67,242.357c0,1.934,1.567,3.5,3.5,3.5s3.5-1.566,3.5-3.5c0-1.933-1.567-3.5-3.5-3.5
	S256.67,240.425,256.67,242.357z M234.67,242.357c0,1.934,1.567,3.5,3.5,3.5s3.5-1.566,3.5-3.5c0-1.933-1.567-3.5-3.5-3.5
	S234.67,240.425,234.67,242.357z M212.67,242.357c0,1.934,1.567,3.5,3.5,3.5s3.5-1.566,3.5-3.5c0-1.933-1.567-3.5-3.5-3.5
	S212.67,240.425,212.67,242.357z"></path>
<path id="color_x5F_3" fill="#E84393" d="M167.483,331.046c-3.597,4.966-4.623,7.004-5.632,9.907
	c-3.808,3.917-6.297,10.041-6.422,16.956c-5.064,9.604-14.456,11.964-20.144,12.473c3.389-4.718,6.621-9.541,9.736-14.438
	c0.056-0.011,0.105-0.013,0.163-0.041c2.463-1.247,5.006-2.357,7.109-4.188c0.615-0.539-0.172-1.536-0.789-0.998
	c-1.561,1.355-3.366,2.301-5.198,3.209c6.503-10.373,12.457-21.094,18.001-32.009c0.368-0.731-0.82-1.179-1.187-0.457
	c-4.684,9.22-9.668,18.291-15.022,27.135c0.262-4.031,0.864-8.039,0.673-12.091c-0.037-0.817-1.293-0.62-1.256,0.19
	c0.198,4.18-0.505,8.317-0.727,12.48c-0.023,0.385,0.252,0.613,0.55,0.668c-4.246,6.94-8.717,13.743-13.487,20.345
	c-0.439,1.38-1.124,2.717-1.717,3.929c-1.335,2.729-2.833,5.442-3.763,8.342l-3.911,0.083c-0.001-0.01-0.008-0.016-0.009-0.026
	c-1.928-12.613,1.056-24.937,2.139-37.446c-0.22,0.108-0.345,0.162-0.345,0.162s-1.058-0.585-2.578-1.742
	c-0.12-8.266,0.136-16.523,0.664-24.766c0.272,0.127,0.627,0.098,0.833-0.23c2.208-3.534,4.014-7.323,6.576-10.63
	c0.498-0.64-0.417-1.528-0.917-0.879c-2.486,3.206-4.295,6.828-6.4,10.28c0.704-10.313,1.838-20.601,3.308-30.838
	c0.115-0.803-1.115-1.12-1.232-0.309c-1.74,12.116-3.03,24.312-3.672,36.539c-0.979-1.799-1.916-3.606-2.408-5.613
	c-0.198-0.797-1.415-0.432-1.22,0.363c0.668,2.703,2.108,5.077,3.41,7.514c0.029,0.054,0.069,0.088,0.106,0.126
	c-0.263,5.8-0.395,11.604-0.332,17.412c-4.66-3.938-11.563-12.03-8.92-24.036c3.875-17.605,5.363-14.452,5.19-26.66
	c-0.174-12.211,0.106-23.898,8.068-24.067c7.961-0.169,10.133,13.555,7.185,24.768c-2.947,11.212,2.86,18.751,3.541,30.229
	c0.721,12.15-4.957,18.288-8.499,20.911c-0.927,12.479-3.969,24.791-2.438,37.324c0.678-1.873,1.561-3.675,2.446-5.461
	c0.736-1.479,1.815-3.212,2.483-4.979c-0.578-0.024-0.906-0.058-0.906-0.058s-7.118-11.158,3.791-24.883
	c7.156-9.001,16.241-11.828,20.276-22.698c4.035-10.869,13.696-20.847,20.116-16.132
	C181.132,311.433,174.644,321.156,167.483,331.046z M110.438,356.501c2.216,4.455,4.329,8.961,6.296,13.534
	c2.288-4.7,4.893-13.441-1.341-21.938c-9.142-12.463-9.216-9.471-13.313-19.105c-4.096-9.636-8.368-18.701-14.67-16.073
	c-6.3,2.629-3.247,14.143,2.953,21.911c6.199,7.769,4.257,15.695,7.705,24.93c3.986,10.681,11.47,13.091,14.854,13.633
	c1.108,3.052,1.993,6.173,2.747,9.337l2.298-0.049c-0.778-3.317-1.704-6.58-2.854-9.777c0.253-0.382,0.591-0.924,0.972-1.613
	c-2.772-6.521-5.838-12.908-9.107-19.189c-0.169,0.194-0.46,0.296-0.732,0.108c-2.959-2.005-5.689-4.35-8.845-6.054
	c-0.612-0.329-0.203-1.341,0.416-1.006c3.062,1.654,5.737,3.866,8.583,5.84c-4.127-7.842-8.585-15.516-13.287-23.031
	c-0.37-0.592,0.486-1.263,0.857-0.673c5.569,8.9,10.808,18.017,15.551,27.378c0.144-1.746,0.249-3.49-0.058-5.235
	c-0.121-0.692,0.959-0.829,1.083-0.138c0.413,2.352,0.105,4.714-0.068,7.072C110.472,356.417,110.452,356.458,110.438,356.501z
	 M508.716,306.717c-6.42-4.715-16.082,5.263-20.116,16.132c-4.035,10.87-13.12,13.697-20.276,22.698
	c-10.909,13.725-3.791,24.883-3.791,24.883s0.328,0.033,0.906,0.058c-0.667,1.767-1.747,3.5-2.483,4.979
	c-0.885,1.786-1.768,3.588-2.446,5.461c-1.531-12.533,1.511-24.845,2.438-37.324c3.542-2.623,9.22-8.761,8.499-20.911
	c-0.681-11.478-6.488-19.017-3.541-30.229c2.948-11.213,0.776-24.937-7.185-24.768c-7.962,0.169-8.243,11.856-8.068,24.067
	c0.173,12.208-1.315,9.055-5.19,26.66c-2.643,12.006,4.261,20.098,8.92,24.036c-0.063-5.809,0.069-11.612,0.332-17.412
	c-0.037-0.038-0.077-0.072-0.106-0.126c-1.302-2.437-2.742-4.811-3.41-7.514c-0.195-0.795,1.021-1.16,1.22-0.363
	c0.492,2.007,1.429,3.814,2.408,5.613c0.643-12.228,1.933-24.423,3.672-36.539c0.117-0.812,1.347-0.494,1.232,0.309
	c-1.47,10.237-2.604,20.525-3.308,30.838c2.105-3.452,3.914-7.074,6.4-10.28c0.501-0.649,1.415,0.239,0.917,0.879
	c-2.563,3.307-4.368,7.096-6.576,10.63c-0.206,0.328-0.561,0.357-0.833,0.23c-0.528,8.242-0.784,16.5-0.664,24.766
	c1.52,1.157,2.578,1.742,2.578,1.742s0.125-0.054,0.345-0.162c-1.083,12.51-4.066,24.833-2.139,37.446
	c0.001,0.01,0.007,0.016,0.009,0.026l3.911-0.083c0.93-2.9,2.428-5.613,3.763-8.342c0.593-1.212,1.278-2.549,1.717-3.929
	c4.77-6.602,9.242-13.404,13.487-20.345c-0.298-0.055-0.573-0.283-0.55-0.668c0.222-4.163,0.925-8.301,0.727-12.48
	c-0.037-0.811,1.22-1.008,1.256-0.19c0.19,4.052-0.412,8.06-0.673,12.091c5.354-8.844,10.339-17.915,15.022-27.135
	c0.366-0.722,1.554-0.274,1.187,0.457c-5.544,10.915-11.499,21.636-18.001,32.009c1.832-0.908,3.637-1.854,5.198-3.209
	c0.617-0.538,1.404,0.459,0.789,0.998c-2.104,1.83-4.646,2.94-7.109,4.188c-0.058,0.028-0.107,0.03-0.163,0.041
	c-3.116,4.897-6.348,9.721-9.736,14.438c6.076-0.543,16.379-3.197,21.119-14.54c6.95-16.631,3.917-14.906,11.08-24.796
	C508.644,321.156,515.132,311.433,508.716,306.717z M444.438,356.501c2.216,4.455,4.329,8.961,6.296,13.534
	c2.288-4.7,4.893-13.441-1.341-21.938c-9.142-12.463-9.216-9.471-13.313-19.105c-4.096-9.636-8.368-18.701-14.67-16.073
	c-6.3,2.629-3.247,14.143,2.953,21.911c2.281,2.858,3.456,5.739,4.206,8.697c2.689,3.923,4.335,9.167,4.335,14.93v3.31
	c4.123,8.979,10.857,11.12,14.019,11.626c1.108,3.052,1.993,6.173,2.747,9.337l2.298-0.049c-0.778-3.317-1.704-6.58-2.854-9.777
	c0.253-0.382,0.591-0.924,0.972-1.613c-2.772-6.521-5.838-12.908-9.107-19.189c-0.169,0.194-0.46,0.296-0.732,0.108
	c-2.959-2.005-5.689-4.35-8.845-6.054c-0.612-0.329-0.203-1.341,0.416-1.006c3.062,1.654,5.737,3.866,8.583,5.84
	c-4.127-7.842-8.585-15.516-13.287-23.031c-0.37-0.592,0.486-1.263,0.857-0.673c5.569,8.9,10.808,18.017,15.551,27.378
	c0.144-1.746,0.249-3.49-0.058-5.235c-0.121-0.692,0.959-0.829,1.083-0.138c0.413,2.352,0.105,4.714-0.068,7.072
	C444.472,356.417,444.452,356.458,444.438,356.501z M277.792,158.563h88.496v40.498h-38.093l-7.025,9.796l-6.5-9.796h-36.877
	V158.563z M340.67,179.357c0,1.934,1.567,3.5,3.5,3.5s3.5-1.566,3.5-3.5c0-1.933-1.567-3.5-3.5-3.5S340.67,177.425,340.67,179.357z
	 M318.67,179.357c0,1.934,1.567,3.5,3.5,3.5s3.5-1.566,3.5-3.5c0-1.933-1.567-3.5-3.5-3.5S318.67,177.425,318.67,179.357z
	 M296.67,179.357c0,1.934,1.567,3.5,3.5,3.5s3.5-1.566,3.5-3.5c0-1.933-1.567-3.5-3.5-3.5S296.67,177.425,296.67,179.357z"></path>
<path id="color_x5F_2" fill="#FBC02D" d="M150.672,402.989c0.288,13.576-3.63,25.676-9.866,33.113l-28.938,0.614
	c-6.547-7.164-10.975-19.088-11.263-32.663c-0.163-7.692,1.024-14.911,3.217-21.073l11.847-0.252l2.298-0.049l6.494-0.138
	l3.911-0.083l18.191-0.387C149.016,388.136,150.509,395.298,150.672,402.989z M484.672,402.989
	c-0.163-7.691-1.656-14.854-4.109-20.918l-18.191,0.387l-3.911,0.083l-6.494,0.138l-2.298,0.049l-11.847,0.252
	c-2.193,6.162-3.379,13.381-3.217,21.073c0.288,13.575,4.715,25.499,11.263,32.663l28.938-0.614
	C481.042,428.665,484.96,416.565,484.672,402.989z M220.336,381.238c-0.847,0.836-2.602,2.496-3.521,2.846
	c-2.635,0.999-10.042,0.185-10.127,2.91c-0.057,1.77,3.774,1.671,3.774,1.671l16.925-0.066l-0.762-6.667
	C223.88,381.786,221.451,381.567,220.336,381.238z M377.661,344.453l-2.074-1.79c-0.072-0.062-0.126-0.125-0.195-0.188l-2.404,1.23
	l2.145,3.677L377.661,344.453z M403.784,327.178c-1.206-1.429-2.923-3.383-4.777-5.237c-2.816-2.816-5.937-5.39-8.022-5.489
	c-10.477-0.496-12.236,10.257-12.236,10.257s0.995-1.018,2.646-1.916c1.418-0.771,3.318-1.454,5.505-1.321
	c4.731,0.288,11.591,3.728,11.591,3.728l0.035,0.01c-1.866,1.065-4.323,2.914-4.254,5.245c0.096,3.269-0.8,4.804-1.521,5.713
	c-0.105,0.133-0.208,0.253-0.302,0.362c-0.618,0.716-1.295,1.824-1.506,2.177c-0.042,0.07-0.072,0.122-0.072,0.122
	s0.049-0.035,0.117-0.083c0.7-0.493,4.628-3.183,5.099-1.834c0.859,2.456-4.749,8.632-4.749,8.632
	c-0.284,0.121-0.573,0.227-0.865,0.324l-8.984,10.411l1.627,2.789l-0.266,0.008l2.15,3.764c0.454,0.777,0.719,1.62,0.848,2.489
	c0.073,0.493,0.105,0.993,0.08,1.5c-0.076,1.499-0.563,3.036-1.421,4.472c-1.689,4.259-10.577,8.474-21.896,10.207
	c14.505,7.609,21.579,4.094,25.215,1.234c5.203-4.09,6.631-10.089,6.833-15.913c0.018-0.502,0.028-1.002,0.029-1.5
	c0.008-5.64-0.944-10.943-0.497-13.973c0.457-3.095,1.41-5.532,2.562-7.463c0.071-0.043,0.137-0.081,0.21-0.127
	c1.435-0.908,2.677-1.908,3.759-2.916c1.213-1.13,2.211-2.266,3.009-3.298c0.719-0.32,1.185-0.451,1.185-0.451l-0.795-0.061
	c1.469-1.996,2.143-3.477,2.143-3.477C407.549,331.151,406.028,328.94,403.784,327.178z M259.498,380.118l-3.441,0.013l-2.229,0.008
	c0,0-2.764,2.858-4.003,3.329c-2.635,0.999-10.042,0.185-10.127,2.91c-0.057,1.771,3.774,1.671,3.774,1.671l16.926-0.065
	l-0.859-7.514L259.498,380.118z"></path>
<path id="color_x5F_1" fill="#0984E3" d="M337.347,351.068c0.103-0.01,0.201-0.021,0.304-0.03c-1.15,1.562-2.319,2.589-3.542,3.409
	C335.119,353.458,336.224,352.296,337.347,351.068z M416.582,336.45c-7.689,0-14.133,7.171-15.863,16.821v-10.42
	c-1.082,1.008-2.324,2.008-3.759,2.916c-0.073,0.046-0.139,0.083-0.21,0.127c-1.152,1.931-2.104,4.368-2.562,7.463
	c-0.447,3.029,0.505,8.333,0.497,13.973c-0.001,0.498-0.011,0.998-0.029,1.5c-0.202,5.824-1.629,11.823-6.833,15.913
	c-3.637,2.859-10.71,6.375-25.215-1.234c-5.407,0.828-11.365,1.092-17.364,0.52c-5.917-0.564-32.955,1.314-40.455,1.854
	c-1.573,0.446-3.25,0.69-4.999,0.67c-8.477-0.099-15.284-6.107-15.332-13.465c-1.943-1.17-4.227-2.631-6.656-4.258
	c-0.189-0.127-0.377-0.251-0.568-0.38c-0.036,0.127-0.073,0.254-0.109,0.38c-1.906,6.682-3.407,12.391-3.407,12.391
	s-8.399-0.299-14.182-0.75l0.859,7.514l-16.926,0.065c0,0-3.831,0.1-3.774-1.671c0.086-2.726,7.493-1.911,10.127-2.91
	c1.24-0.471,4.003-3.329,4.003-3.329l2.229-0.008c-1.005-0.13-1.684-0.269-1.837-0.412c-0.889-0.831-0.187-5.081,1.373-10.891
	c0.132-0.49,0.268-0.988,0.411-1.5c0.107-0.384,0.219-0.774,0.333-1.169c-0.41,0.392-0.82,0.78-1.23,1.169
	c-0.532,0.504-1.063,1.004-1.592,1.5c-7.551,7.078-14.571,13.167-14.795,13.391c0,0-6.654,0-12.095-0.289l0.762,6.667l-16.925,0.066
	c0,0-3.832,0.099-3.774-1.671c0.086-2.726,7.492-1.911,10.127-2.91c0.919-0.35,2.674-2.01,3.521-2.846
	c-0.506-0.149-0.748-0.32-0.616-0.519c0.225-0.337,4.957-5.449,11.137-11.891c0.473-0.493,0.954-0.993,1.442-1.5
	c6.985-7.249,15.421-15.771,21.35-21.103c1.402-3.303,4.743-5.375,8.425-5.438c0.985-0.104,1.958-0.065,2.89,0.107
	c3.273-8.522,6.309-15.428,7.544-16.75c3.507-3.756,8.987-4.338,12.241-1.3c0.225,0.21,0.432,0.502,0.624,0.852
	c6.132,4.889,15.284,18.553,21.881,30.454c3.516,1.45,14.697,5.743,19.935,4.028c-5.43,0.262-10.197-4.641-9.105-7.053
	c2.906-6.412,21.494-21.624,31.967-24.566c0.692-1.396,1.47-2.966,1.47-2.971c-0.004-0.073-0.011-0.141-0.013-0.218
	c-0.012-0.514,0.077-1.095,0.24-1.718c0.23-0.877,0.982-1.902,1.924-2.778v-10.267c0-1.519,1.231-2.75,2.75-2.75
	s2.75,1.231,2.75,2.75v8.693c0.169,0.077,0.338,0.155,0.5,0.247v11.361c-0.158,0.027-0.332,0.035-0.5,0.048v3.137
	c0.187-0.006,0.366-0.009,0.527-0.004c5.168,0.172,9.317,3.674,10.231,6.729l0.165-0.074l0.9,1.576l0.012-0.012l1.982,3.398
	l2.404-1.23c-4.641-4.204-1.803-8.638,2.395-13.502l3.607-4.18c-1.65,0.897-2.646,1.916-2.646,1.916s1.759-10.753,12.236-10.257
	c2.085,0.099,5.206,2.672,8.022,5.489c-5.531-23.985-23.91-41.608-45.746-41.608h-31.09v33.024h28v2h-30v-34h-86v-1.024h-3.211
	c-26.21,0-47.458,25.383-47.458,56.693v6.177c-2.97-4.161-7.139-6.753-11.76-6.753c-3.719,0-7.146,1.68-9.89,4.503
	c-3.808,3.917-6.297,10.041-6.422,16.956c-0.003,0.182-0.01,0.363-0.01,0.547v77.869h16.155h16.491h212.195h12.388h20.258v-74.56
	v-3.31c0-5.763-1.646-11.006-4.335-14.93C425.587,339.177,421.321,336.45,416.582,336.45z M415.171,174.217
	c0.653,0,1.181-0.527,1.181-1.18v-10.534c0-0.652-0.528-1.182-1.181-1.182s-1.182,0.529-1.182,1.182v10.534
	C413.989,173.689,414.518,174.217,415.171,174.217z M415.171,205.806c0.653,0,1.181-0.529,1.181-1.182v-10.532
	c0-0.654-0.528-1.182-1.181-1.182s-1.182,0.527-1.182,1.182v10.532C413.989,205.276,414.518,205.806,415.171,205.806z
	 M394.111,184.746h10.532c0.653,0,1.183-0.529,1.183-1.183c0-0.652-0.53-1.182-1.183-1.182h-10.532
	c-0.653,0-1.182,0.529-1.182,1.182C392.929,184.217,393.458,184.746,394.111,184.746z M436.231,182.382h-10.533
	c-0.653,0-1.181,0.529-1.181,1.182c0,0.653,0.528,1.183,1.181,1.183h10.533c0.652,0,1.182-0.529,1.182-1.183
	C437.414,182.911,436.884,182.382,436.231,182.382z M406.892,176.955c0.461,0.461,1.21,0.461,1.672,0
	c0.461-0.462,0.461-1.209,0-1.671l-7.448-7.448c-0.461-0.463-1.21-0.463-1.67,0c-0.462,0.462-0.462,1.21,0,1.671L406.892,176.955z
	 M429.228,199.291c0.462,0.461,1.209,0.461,1.67,0c0.461-0.462,0.461-1.209,0-1.673l-7.448-7.446c-0.461-0.461-1.209-0.461-1.671,0
	c-0.461,0.462-0.461,1.209,0,1.671L429.228,199.291z M408.563,190.172c-0.461-0.461-1.21-0.461-1.671,0l-7.447,7.446
	c-0.462,0.464-0.462,1.211,0,1.673c0.46,0.461,1.209,0.461,1.67,0l7.448-7.448C409.024,191.381,409.024,190.634,408.563,190.172z
	 M423.45,176.955l7.448-7.448c0.461-0.461,0.461-1.209,0-1.671c-0.461-0.463-1.208-0.463-1.67,0l-7.448,7.448
	c-0.461,0.462-0.461,1.209,0,1.671C422.241,177.416,422.989,177.416,423.45,176.955z M148.891,198.321
	c-0.653,0-1.182,0.529-1.182,1.182v10.534c0,0.652,0.529,1.18,1.182,1.18s1.181-0.527,1.181-1.18v-10.534
	C150.072,198.851,149.544,198.321,148.891,198.321z M148.891,229.91c-0.653,0-1.182,0.527-1.182,1.182v10.532
	c0,0.652,0.529,1.182,1.182,1.182s1.181-0.529,1.181-1.182v-10.532C150.072,230.438,149.544,229.91,148.891,229.91z
	 M139.546,220.563c0-0.652-0.53-1.182-1.183-1.182h-10.532c-0.653,0-1.182,0.529-1.182,1.182c0,0.653,0.529,1.183,1.182,1.183
	h10.532C139.017,221.746,139.546,221.217,139.546,220.563z M158.237,220.563c0,0.653,0.528,1.183,1.181,1.183h10.533
	c0.652,0,1.182-0.529,1.182-1.183c0-0.652-0.53-1.182-1.182-1.182h-10.533C158.766,219.382,158.237,219.911,158.237,220.563z
	 M134.835,204.836c-0.461-0.463-1.21-0.463-1.67,0c-0.462,0.462-0.462,1.21,0,1.671l7.447,7.448c0.461,0.461,1.21,0.461,1.672,0
	c0.461-0.462,0.461-1.209,0-1.671L134.835,204.836z M162.948,236.291c0.462,0.461,1.209,0.461,1.67,0
	c0.461-0.462,0.461-1.209,0-1.673l-7.448-7.446c-0.461-0.461-1.209-0.461-1.671,0c-0.461,0.462-0.461,1.209,0,1.671L162.948,236.291
	z M140.612,227.172l-7.447,7.446c-0.462,0.464-0.462,1.211,0,1.673c0.46,0.461,1.209,0.461,1.67,0l7.448-7.448
	c0.461-0.462,0.461-1.209,0-1.671C141.822,226.711,141.073,226.711,140.612,227.172z M157.17,213.955l7.448-7.448
	c0.461-0.461,0.461-1.209,0-1.671c-0.461-0.463-1.208-0.463-1.67,0l-7.448,7.448c-0.461,0.462-0.461,1.209,0,1.671
	C155.961,214.416,156.709,214.416,157.17,213.955z M216.17,245.857c1.933,0,3.5-1.566,3.5-3.5c0-1.933-1.567-3.5-3.5-3.5
	s-3.5,1.567-3.5,3.5C212.67,244.291,214.237,245.857,216.17,245.857z M238.17,245.857c1.933,0,3.5-1.566,3.5-3.5
	c0-1.933-1.567-3.5-3.5-3.5s-3.5,1.567-3.5,3.5C234.67,244.291,236.237,245.857,238.17,245.857z M260.17,245.857
	c1.933,0,3.5-1.566,3.5-3.5c0-1.933-1.567-3.5-3.5-3.5s-3.5,1.567-3.5,3.5C256.67,244.291,258.237,245.857,260.17,245.857z
	 M300.17,182.857c1.933,0,3.5-1.566,3.5-3.5c0-1.933-1.567-3.5-3.5-3.5s-3.5,1.567-3.5,3.5
	C296.67,181.291,298.237,182.857,300.17,182.857z M322.17,182.857c1.933,0,3.5-1.566,3.5-3.5c0-1.933-1.567-3.5-3.5-3.5
	s-3.5,1.567-3.5,3.5C318.67,181.291,320.237,182.857,322.17,182.857z M344.17,182.857c1.933,0,3.5-1.566,3.5-3.5
	c0-1.933-1.567-3.5-3.5-3.5s-3.5,1.567-3.5,3.5C340.67,181.291,342.237,182.857,344.17,182.857z M381.17,246.857
	c1.933,0,3.5-1.566,3.5-3.5c0-1.933-1.567-3.5-3.5-3.5s-3.5,1.567-3.5,3.5C377.67,245.291,379.237,246.857,381.17,246.857z
	 M399.67,243.357c0,1.934,1.567,3.5,3.5,3.5s3.5-1.566,3.5-3.5c0-1.933-1.567-3.5-3.5-3.5S399.67,241.425,399.67,243.357z
	 M421.67,243.357c0,1.934,1.567,3.5,3.5,3.5s3.5-1.566,3.5-3.5c0-1.933-1.567-3.5-3.5-3.5S421.67,241.425,421.67,243.357z"></path>
</svg>