<?xml version="1.0" standalone="no"?>
<svg version="1.1" id="Layer_1" xmlns="http://www.w3.org/2000/svg" xmlns:xlink="http://www.w3.org/1999/xlink" x="0px" y="0px" width="595.28px" height="595.28px" viewBox="0 0 595.28 595.28" enable-background="new 0 0 595.28 595.28" xml:space="preserve">
<path id="color_x5F_5" fill="#FFD2BB" d="M379.477,350.828l2.151,2.984l-7.258,3.827l-3.244,1.714l-0.102,0.054l-0.763,0.402
	l-1.177-3.499l-0.747-2.232c0.322-0.109,0.658-0.243,1.008-0.43l2.645-1.406c0.191-0.102,0.146-0.494,0.003-1.004
	c-0.133,0.084-0.271,0.165-0.413,0.238l-2.64,1.405c-0.352,0.188-0.688,0.32-1.012,0.426c-2.095,0.688-3.63-0.229-4.956-1.925
	c-0.367-0.465-0.718-0.99-1.06-1.558c-0.303-0.496-0.595-1.027-0.891-1.58l-2.201-4.146c-0.181-0.341-0.325-0.69-0.451-1.044
	c0.834-0.113,1.845-0.453,3.098-1.139c2.125-1.164,3.532-2.627,4.465-3.959c0.308,0.432,0.693,0.78,1.188,0.956
	c2.337,0.828,2.961,1.917,3.312,2.579c0.352,0.663,1.042,1.525,1.042,1.525s-0.974-3.715,0.065-3.677
	c1.703,0.06,4.138,4.896,4.183,4.987c0,0.003,0.001,0.006,0.001,0.009c0.008,0.205,0.003,0.409-0.009,0.612
	c-0.009,0.196-0.039,0.39-0.062,0.584L379.477,350.828z M342.237,364.58c0.567,0.158,1.115,0.315,1.644,0.473
	c-0.38-0.113-0.77-0.226-1.168-0.338C342.557,364.668,342.397,364.623,342.237,364.58z M348.054,366.413
	c-0.14-0.052-0.289-0.107-0.448-0.163c-0.05-0.018-0.109-0.037-0.16-0.055c0.245,0.086,0.484,0.171,0.695,0.25
	c-0.002-0.001-0.003-0.002-0.005-0.002C348.113,366.434,348.085,366.424,348.054,366.413z M345.116,365.43
	c0.175,0.054,0.351,0.109,0.519,0.164c0.334,0.104,0.649,0.207,0.951,0.308c-0.77-0.257-1.637-0.532-2.597-0.817
	C344.376,365.199,344.754,365.314,345.116,365.43z M331.932,362.336c0.233,0.031,0.466,0.062,0.706,0.098
	c-0.09-0.014-0.181-0.029-0.269-0.039C332.219,362.373,332.078,362.355,331.932,362.336z M335.584,362.959
	c0.01,0.002,0.019,0.004,0.028,0.006c-0.211-0.043-0.419-0.083-0.628-0.123c0.005,0,0.011,0.002,0.016,0.003
	C335.197,362.884,335.389,362.919,335.584,362.959z M328.513,362.082c-0.006-0.034-0.013-0.064-0.023-0.102
	c-0.029-0.109-0.076-0.237-0.133-0.371c-0.663-1.61-3.086-4.795-4.006-4.135c-0.791,0.561,1.74,1.922,0.759,2.516
	c-1.084,0.654-5.564-2.826-5.971-1.679c-0.466,1.3,4.047,2.027,3.517,2.968c-0.03,0.049-0.077,0.082-0.129,0.107
	c-0.004,0.004-0.008,0.014-0.013,0.018c-0.95,0.379-5.039-2.759-5.454-1.461c-0.445,1.377,4.877,2.025,4.466,3.024
	c-0.408,1.001-4.328-1.942-4.769-0.698c-0.489,1.386,5.282,2.015,4.978,2.633c-0.513,1.031-3.716-1.299-4.163-0.239
	c-0.266,0.629,1.64,1.408,3.831,1.946c1.934,0.475,4.018,0.676,5.184,0.214c0.203-0.081,0.386-0.167,0.556-0.254
	c0.254,0.28,0.544,0.56,0.864,0.835c1.068-1.545,1.608-3.418,1.523-5.299C329.176,362.089,328.831,362.078,328.513,362.082z
	 M336.866,363.23c0.051,0.014,0.105,0.021,0.157,0.038c0.314,0.069,0.627,0.141,0.939,0.213c-0.385-0.091-0.77-0.18-1.155-0.265
	C336.827,363.221,336.846,363.227,336.866,363.23z M338.917,363.711c0.035,0.009,0.069,0.016,0.104,0.023
	c-0.276-0.067-0.55-0.134-0.827-0.199L338.917,363.711z M349.239,366.889L349.239,366.889c-0.015-0.008-0.041-0.018-0.058-0.025
	C349.199,366.871,349.223,366.881,349.239,366.889z M366.451,309.01c-0.809,1.094,4.122,2.595,4.359,3.587
	c0.003,0.007-0.003,0.013-0.001,0.023c0.01,0.056,0.009,0.112-0.014,0.165c-0.457,0.979-3.673-2.268-4.461-1.133
	c-0.694,0.998,4.742,2.616,4.841,3.883c0.087,1.138-2.494-0.129-2.492,0.841c0.001,1.133,4.001,1.252,5.698,0.854
	c0.141-0.032,0.271-0.067,0.376-0.108c0.035-0.015,0.065-0.026,0.098-0.039l3.119,2.747c0.922-1.838,1.72-3.756,2.373-5.751
	c0.132,0.028,0.274,0.064,0.409,0.095c-1.094-0.41-2.13-0.709-3.047-0.815c-0.03-0.19-0.068-0.388-0.118-0.599
	c-0.304-1.219-1.68-2.797-3.191-4.095c-1.712-1.468-3.457-2.563-3.811-1.983c-0.603,0.98,3.157,2.231,2.614,3.248
	c-0.325,0.606-4.194-3.725-5.035-2.518c-0.757,1.078,3.918,2.56,3.34,3.473C370.938,311.797,367.317,307.849,366.451,309.01z
	 M373.327,130.101c0.083-0.06,0.175-0.112,0.262-0.167c0.334-0.201,0.681-0.376,1.038-0.523c-0.357,0.147-0.705,0.322-1.04,0.523
	c-0.088,0.055-0.177,0.107-0.264,0.167c-0.029,0.019-0.054,0.046-0.083,0.065c0.03-0.021,0.061-0.041,0.091-0.061L373.327,130.101z
	 M369.865,137.621c0-0.005,0.001-0.009,0-0.014c-0.247-1.985,0.254-4.061,1.577-5.766c0,0-0.001,0-0.001,0.001
	c-1.323,1.704-1.826,3.782-1.579,5.765C369.863,137.611,369.864,137.616,369.865,137.621z M385.66,146.655l1.831-2.366
	c0.099-0.126,0.19-0.255,0.278-0.387c0.339,0.408,0.542,0.748,0.41,0.919l-1.835,2.366c-0.242,0.314-0.492,0.573-0.742,0.805
	l1.598,1.73l2.508,2.707l0.531-0.682c0,0,0.001,0,0.001,0.001l0.069-0.089l2.255-2.896l5.047-6.468l-3.186-1.837l-5.659-3.26
	c-0.058-0.188-0.111-0.377-0.184-0.561c-0.074-0.189-0.153-0.377-0.243-0.56c-0.001-0.003-0.003-0.005-0.004-0.009
	c-0.071-0.057-4.284-3.479-5.862-2.832c-0.964,0.393,1.449,3.381,1.449,3.381s-0.984-0.504-1.576-0.963
	c-0.591-0.461-1.606-1.197-4.079-0.994c-0.858,0.07-1.642-0.389-2.303-1.013c0.349,1.46,0.266,3.577-1.619,6.07
	c-0.793,1.052-1.678,1.707-2.559,2.1c0.313,0.351,0.656,0.681,1.041,0.979l3.708,2.879c0.498,0.382,0.98,0.746,1.462,1.076
	c0.545,0.376,1.079,0.709,1.604,0.981c1.906,1.004,3.682,1.213,5.31-0.276C385.164,147.229,385.416,146.968,385.66,146.655z
	 M356.927,170.14c0.059-0.015,0.118-0.032,0.178-0.048c-0.068,0.018-0.138,0.035-0.205,0.054
	C356.908,170.144,356.916,170.143,356.927,170.14z M359.953,169.408c0.021-0.004,0.04-0.01,0.059-0.016
	c-0.182,0.04-0.363,0.08-0.543,0.121c0.032-0.008,0.064-0.015,0.098-0.021C359.692,169.463,359.826,169.436,359.953,169.408z
	 M362.729,168.85c-0.248,0.045-0.496,0.092-0.743,0.141l0.74-0.141C362.727,168.85,362.728,168.85,362.729,168.85z M360.737,169.24
	c-0.036,0.008-0.071,0.014-0.106,0.021c0.009-0.002,0.018-0.004,0.027-0.006C360.684,169.252,360.711,169.246,360.737,169.24z
	 M361.898,169.006c-0.388,0.076-0.775,0.154-1.161,0.234c0.026-0.006,0.053-0.012,0.08-0.016
	C361.177,169.149,361.538,169.076,361.898,169.006z M352.57,171.638c-0.021-0.028-0.04-0.056-0.063-0.084
	c-0.071-0.087-0.166-0.183-0.273-0.283c-1.265-1.196-4.782-3.105-5.352-2.128c-0.49,0.838,2.376,1.04,1.727,1.983
	c-0.719,1.042-6.234-0.293-6.134,0.92c0.109,1.378,4.523,0.188,4.424,1.263c-0.007,0.058-0.035,0.106-0.073,0.151
	c-0.002,0.007-0.001,0.015-0.005,0.021c-0.709,0.735-5.727-0.447-5.573,0.906c0.161,1.438,5.28-0.155,5.314,0.923
	c0.039,1.081-4.743,0.008-4.635,1.321c0.123,1.466,5.644-0.331,5.619,0.359c-0.043,1.149-3.92,0.34-3.894,1.491
	c0.016,0.681,2.073,0.608,4.292,0.201c1.958-0.361,3.941-1.034,4.815-1.934c0.151-0.157,0.284-0.31,0.403-0.459
	c0.347,0.151,0.726,0.286,1.13,0.406c0.341-1.849,0.063-3.778-0.787-5.458C353.176,171.37,352.86,171.502,352.57,171.638z
	 M354.317,170.938c-0.261,0.089-0.503,0.182-0.742,0.273c0.265-0.104,0.543-0.204,0.831-0.305
	C354.377,170.918,354.346,170.928,354.317,170.938z M355.392,170.583c0.384-0.119,0.787-0.234,1.196-0.349
	c-0.126,0.033-0.252,0.067-0.375,0.104C355.931,170.42,355.66,170.502,355.392,170.583z M356.646,170.219
	c0.045-0.014,0.092-0.027,0.138-0.041c-0.067,0.019-0.128,0.038-0.195,0.057C356.607,170.229,356.626,170.224,356.646,170.219z
	 M359.296,169.553c-0.648,0.146-1.282,0.301-1.898,0.461c0.413-0.105,0.828-0.209,1.253-0.31c0.047-0.012,0.099-0.021,0.148-0.034
	C358.966,169.631,359.13,169.592,359.296,169.553z M373.441,167.513c-0.195-0.002-0.437,0.005-0.716,0.018
	C373.002,167.52,373.249,167.512,373.441,167.513z M369.099,167.871c-0.013,0.002-0.027,0.004-0.041,0.006
	c0.008-0.002,0.018-0.003,0.026-0.004C369.089,167.873,369.094,167.872,369.099,167.871z M366.599,168.208
	c-0.179,0.027-0.363,0.054-0.546,0.081c-0.004,0-0.008,0.002-0.012,0.002c0.237-0.036,0.468-0.069,0.7-0.104
	C366.692,168.195,366.646,168.201,366.599,168.208z M371.691,167.602c0.167-0.016,0.326-0.026,0.476-0.035
	c0.031-0.004,0.061-0.008,0.086-0.006c0.08-0.007,0.154-0.012,0.229-0.018c-0.857,0.051-2.033,0.164-3.384,0.328
	c0.177-0.021,0.356-0.041,0.527-0.059C370.392,167.722,371.086,167.652,371.691,167.602z M393.884,173.005l-2.985,2.884
	c-0.033-0.011-0.064-0.022-0.101-0.035c-0.106-0.034-0.238-0.063-0.381-0.09c-1.714-0.318-5.703-0.016-5.651,1.114
	c0.042,0.972,2.562-0.413,2.527,0.729c-0.041,1.27-5.398,3.136-4.657,4.101c0.838,1.098,3.903-2.293,4.404-1.338
	c0.026,0.053,0.029,0.11,0.021,0.166c-0.001,0.008,0.005,0.015,0.003,0.023c-0.192,1-5.049,2.727-4.189,3.783
	c0.919,1.119,4.355-2.991,4.967-2.107c0.62,0.887-3.981,2.58-3.177,3.623c0.896,1.166,4.563-3.336,4.915-2.746
	c0.588,0.992-3.11,2.412-2.462,3.365c0.38,0.562,2.072-0.613,3.715-2.158c1.449-1.366,2.751-3.006,2.998-4.234
	c0.042-0.216,0.069-0.415,0.091-0.604c0.914-0.148,1.939-0.497,3.018-0.96c-0.138,0.038-0.282,0.082-0.417,0.117
	C395.778,176.676,394.89,174.797,393.884,173.005z M142.248,286.875c0,0-1.274-4.092-1.357-4.102l-1.197,0.518l-1.45,0.627
	c-0.192,0.083-0.461-0.188-0.76-0.602c0.143-0.051,0.286-0.105,0.427-0.169l0.911-0.392l1.739-0.748
	c0.352-0.155,0.654-0.327,0.929-0.509c1.781-1.16,2.015-2.866,1.538-4.89c-0.13-0.556-0.312-1.135-0.534-1.732
	c-0.191-0.529-0.413-1.07-0.653-1.624l-1.545-3.582l-0.249-0.576c-0.186-0.431-0.411-0.83-0.663-1.206
	c-0.159,0.2-0.341,0.395-0.54,0.583c-0.523,0.497-1.186,0.948-2.035,1.303c-2.783,1.159-4.78,0.727-6.061,0.05
	c0.424,0.768,0.665,1.61,0.392,2.395c-0.785,2.261-0.339,3.383-0.053,4.05c0.287,0.663,0.521,1.702,0.521,1.702
	s-2.208-2.969-2.81-2.168c-0.983,1.322,1.204,6.082,1.238,6.156c0.001,0.001,0.002,0.003,0.004,0.004
	c0.15,0.13,0.308,0.25,0.465,0.365c0.366,0.266,0.76,0.485,1.166,0.681c0.062,0.03,0.122,0.062,0.185,0.089l3.604,5.678l8.642,5
	l0.696,0.402l4.439,2.568l-3.475-4.908L142.248,286.875z M135.91,265.083c0.004,0.002,0.009,0.001,0.013,0.003
	c-0.003-0.002-0.007-0.004-0.01-0.005c-1.577-0.624-3.36-0.721-5.065-0.174C132.553,264.361,134.333,264.458,135.91,265.083z
	 M128.071,266.506c-0.041,0.035-0.079,0.073-0.118,0.111c0.039-0.037,0.076-0.074,0.116-0.107l0.01,0.016
	c0.174-0.158,0.358-0.306,0.548-0.448C128.44,266.219,128.242,266.35,128.071,266.506z M167.352,242.084
	c-1.097-0.17-0.799,3.641-1.905,3.539c-0.663-0.063,1.735-5.119,0.349-5.417c-1.241-0.268-0.806,4.442-1.833,4.271
	c-1.027-0.167,1.128-4.863-0.229-5.198c-1.275-0.312-0.763,4.631-1.553,5.218c-0.007,0.004-0.016,0-0.022,0.006
	c-0.048,0.028-0.097,0.05-0.154,0.049c-1.04-0.035,0.643-4.113-0.661-4.388c-1.149-0.245-0.552,5.193-1.639,5.754
	c-0.979,0.503-0.819-2.262-1.683-1.896c-1.004,0.428,0.387,4.021,1.375,5.382c0.083,0.112,0.163,0.216,0.24,0.296
	c0.024,0.025,0.046,0.046,0.071,0.071c-0.052,0.082,0.211,1.107,0.446,2.051c0.063-0.13,0.126-0.259,0.189-0.38
	c1.01,0.346,2.083,0.509,3.172,0.496c0.027,0.132,0.053,0.271,0.078,0.409c0.443-0.857,0.897-1.705,0.979-1.766
	c0.969-0.726,1.855-2.538,2.443-4.368C167.679,244.142,168,242.184,167.352,242.084z M116.063,259.024
	c-0.854-0.384-0.752,2.386-1.721,1.861c-1.076-0.585-0.366-6.006-1.52-5.786c-1.31,0.248,0.288,4.357-0.752,4.372
	c-0.057,0.002-0.106-0.022-0.152-0.053c-0.006-0.004-0.015,0-0.022-0.007c-0.777-0.601-0.165-5.532-1.445-5.244
	c-1.365,0.304,0.693,5.046-0.336,5.189c-1.032,0.148-0.499-4.547-1.746-4.305c-1.392,0.266,0.9,5.373,0.239,5.42
	c-1.109,0.078-0.734-3.723-1.834-3.577c-0.65,0.085-0.369,2.052,0.252,4.136c0.551,1.843,1.399,3.671,2.353,4.414
	c0.058,0.045,0.299,0.497,0.585,1.064c1.157,0.093,2.342,0.006,3.513-0.314c0.025-0.007,0.046-0.017,0.071-0.023
	c0.085,0.141,0.173,0.3,0.262,0.469c0.244-0.897,0.499-1.824,0.451-1.903c0.025-0.024,0.046-0.046,0.072-0.073
	c0.077-0.075,0.16-0.175,0.246-0.288C115.594,263.037,117.058,259.469,116.063,259.024z"></path>
<path id="color_x5F_4" fill="#00CEC9" d="M171.147,325.338c0.165,0.504,1.389,8.293-1.529,6.693c0-0.085,0-0.146,0-0.155
	l-0.271-0.005c-0.21-0.145-0.445-0.348-0.694-0.584c-1.265-1.197-3.048-3.622-5.561-7.938c-0.082-0.446-0.181-0.888-0.272-1.331
	c-2.56,1.002-5.55,2.154-8.289,3.211c-0.04,0.016-0.079,0.03-0.119,0.046c0.017,0.087,0.034,0.174,0.05,0.261
	c0.204,1.109,0.396,2.217,0.57,3.321c-1.709,1.167-1.564,4.776-2.273,8.051c-0.055,0.254-0.117,0.506-0.184,0.755
	c-0.98,3.658-3.361,6.587-11.155,4.672c-0.187-0.046-0.362-0.081-0.555-0.133c-1.952-0.521-3.399-1.175-4.446-1.938
	c-7.071-5.154,4.318-15.363,4.978-24.324c0.172-2.34-0.385-4.595-2.196-6.651c0.006-0.054-2.219-1.853-4.917-4.024
	c-0.651-0.523-1.327-1.067-2.009-1.615c-0.682-0.549-1.365-1.098-2.028-1.631c-0.609-0.115-1.206-0.351-1.753-0.718
	c-1.014-0.679-10.063-4.463-13.588-7.739c-0.038-0.035-0.067-0.07-0.105-0.105c-0.486-0.463-0.889-0.919-1.216-1.364
	c-0.571-0.776-0.918-1.52-1.111-2.217c-0.233-0.39-0.417-0.817-0.508-1.29c-0.196-1.016-2.548-17.469-2.683-21.552
	c-0.007-0.213-0.008-0.403-0.006-0.588c0.228,0.033,0.458,0.048,0.688,0.065c1.157,0.093,2.342,0.006,3.513-0.314
	c0.025-0.007,0.046-0.017,0.071-0.023c0.085,0.141,0.173,0.3,0.262,0.469c1.603,3.058,3.648,10.543,4.906,15.602
	c0.477,1.918,0.84,3.485,1.022,4.329c1.522,0.601,3.169,1.325,4.786,2.079c2.833,1.32,5.566,2.727,7.361,3.712l3.165-3.823
	l0.41,0.236l8.642,5l0.696,0.402l4.439,2.568l-3.459-4.929l-3.57-5.087l1.548-1.172l1.792-1.355
	c0.164-0.315,0.356-0.621,0.597-0.903c0.214-0.249,0.728-1.063,1.427-2.167c1.715-2.707,4.577-7.199,7.092-9.711
	c-0.059-0.419-0.083-0.848-0.022-1.288c0.269-1.983,3.06-13.287,5.512-18.313c0.063-0.13,0.126-0.259,0.189-0.38
	c1.01,0.346,2.083,0.509,3.172,0.496c0.027,0.132,0.053,0.271,0.078,0.409c1.007,5.523,0.679,17.085,0.411,19.058
	c-0.1,0.732-0.376,1.392-0.76,1.969c-2.214,5.222-8.64,14.579-9.923,16.074c-0.015,0.018-0.034,0.029-0.049,0.046
	c0.188,0.242,0.369,0.418,0.541,0.49c4.845,2.041,6.232,4.875,5.952,8.318c-0.152,1.849-0.112,4.6,0.331,6.797
	c0.055,0.274,0.115,0.539,0.178,0.796c1.447,5.902,4.935,7.477,8.162,13.167c0.168,0.15,0.336,0.3,0.506,0.452
	c-0.055,0.028-0.127,0.063-0.204,0.099C169.577,321.171,170.394,323.026,171.147,325.338z M348.461,298.467l-18.02-2.619
	l-0.386-0.783l-7.672-15.545l-8.059,16.328l-18.019,2.619l13.039,12.708l-2.854,16.644l-0.224,1.304l0.833-0.438l15.285-8.035
	l16.117,8.473l-3.078-17.947L348.461,298.467z"></path>
<path id="color_x5F_3" fill="#E84393" d="M251.382,241.332v-9.37c0-0.808,0.655-1.462,1.462-1.462c0.808,0,1.462,0.654,1.462,1.462
	v9.37c0,0.809-0.654,1.463-1.462,1.463C252.037,242.795,251.382,242.141,251.382,241.332z M251.382,275.301
	c0,0.809,0.655,1.463,1.462,1.463c0.808,0,1.462-0.654,1.462-1.463v-9.371c0-0.809-0.654-1.463-1.462-1.463
	c-0.807,0-1.462,0.654-1.462,1.463V275.301z M229.712,253.631c0,0.809,0.656,1.463,1.463,1.463h9.371
	c0.807,0,1.462-0.654,1.462-1.463c0-0.808-0.655-1.462-1.462-1.462h-9.371C230.368,252.169,229.712,252.823,229.712,253.631z
	 M263.681,253.631c0,0.809,0.655,1.463,1.462,1.463h9.371c0.808,0,1.463-0.654,1.463-1.463c0-0.808-0.655-1.462-1.463-1.462h-9.371
	C264.336,252.169,263.681,252.823,263.681,253.631z M245.183,243.9l-6.628-6.626c-0.571-0.572-1.496-0.572-2.068,0
	c-0.571,0.57-0.571,1.497,0,2.067l6.627,6.628c0.286,0.286,0.659,0.429,1.034,0.429c0.374,0,0.748-0.143,1.034-0.429
	C245.754,245.397,245.754,244.473,245.183,243.9z M260.506,263.361l6.628,6.628c0.285,0.285,0.66,0.428,1.034,0.428
	c0.374,0,0.749-0.143,1.034-0.428c0.572-0.572,0.572-1.497,0-2.069l-6.625-6.627c-0.573-0.57-1.499-0.57-2.07,0
	C259.935,261.865,259.935,262.791,260.506,263.361z M243.114,261.293l-6.627,6.627c-0.571,0.572-0.571,1.497,0,2.069
	c0.286,0.285,0.66,0.428,1.035,0.428c0.375,0,0.749-0.143,1.033-0.428l6.628-6.628c0.572-0.57,0.572-1.496,0-2.068
	C244.612,260.723,243.685,260.723,243.114,261.293z M267.134,237.274l-6.628,6.626c-0.571,0.572-0.571,1.497,0,2.069
	c0.287,0.286,0.66,0.429,1.035,0.429c0.374,0,0.749-0.143,1.035-0.429l6.625-6.628c0.572-0.57,0.572-1.497,0-2.067
	C268.631,236.702,267.704,236.702,267.134,237.274z M405.977,369.864c0,0-4.128-10.3-7.012-16.56l2.548-25.139l-0.276-0.09
	c0.696-2.723-0.455-5.712-3.021-7.264c-2.136-1.295-11.279-5.24-17.459-6.639c-0.135-0.03-0.277-0.066-0.409-0.095
	c-0.653,1.995-1.451,3.913-2.373,5.751c-0.033,0.065-0.063,0.133-0.096,0.197c3.29,3.831,8.173,8.059,10.869,10.05l-3.315,21.729
	l0.208-0.109l-4.013,2.115l-7.258,3.827l-3.244,1.714l-0.102,0.054l-0.763,0.402l-1.807,0.954l-0.011,0.006l-19.202,6.119h-0.001
	c-0.017-0.008-0.04-0.018-0.058-0.025c-0.137-0.063-0.298-0.131-0.482-0.204c-0.03-0.013-0.06-0.024-0.09-0.037
	c-0.052-0.021-0.096-0.04-0.151-0.062c-0.101-0.035-0.206-0.075-0.317-0.115c-0.002-0.001-0.003-0.002-0.005-0.002
	c-0.022-0.01-0.051-0.02-0.082-0.03c-0.14-0.052-0.289-0.107-0.448-0.163c-0.572-0.202-1.234-0.426-1.971-0.656
	c-0.167-0.055-0.343-0.11-0.519-0.164c-0.362-0.115-0.74-0.23-1.127-0.346c-0.036-0.011-0.073-0.021-0.108-0.031
	c-0.38-0.113-0.77-0.226-1.168-0.338c-0.156-0.047-0.315-0.092-0.476-0.135c-0.019-0.006-0.037-0.012-0.056-0.017
	c-0.005-0.001-0.011-0.003-0.016-0.004c-0.83-0.229-1.695-0.458-2.568-0.681c-0.1-0.025-0.193-0.053-0.292-0.078
	c-0.097-0.02-0.189-0.043-0.284-0.066c-0.034-0.008-0.068-0.015-0.104-0.023l-0.724-0.176l-0.063-0.016
	c-0.056-0.014-0.112-0.025-0.168-0.038c-0.312-0.072-0.625-0.144-0.939-0.213c-0.052-0.017-0.106-0.024-0.157-0.038
	c-0.02-0.004-0.039-0.01-0.059-0.014c-0.162-0.033-0.321-0.067-0.478-0.107c-0.057-0.01-0.109-0.017-0.169-0.029
	c-0.126-0.027-0.26-0.057-0.388-0.082c-0.054-0.015-0.106-0.022-0.16-0.033c-0.01-0.002-0.019-0.004-0.028-0.006
	c-0.195-0.04-0.387-0.075-0.583-0.114c-0.005-0.001-0.011-0.003-0.016-0.003c-0.045-0.008-0.089-0.018-0.132-0.027
	c-0.108-0.021-0.213-0.038-0.32-0.059c-0.304-0.057-0.607-0.112-0.907-0.164c-0.053-0.009-0.106-0.02-0.158-0.028
	c-0.119-0.017-0.247-0.038-0.367-0.06c-0.022-0.004-0.037-0.009-0.054-0.011c-0.08-0.012-0.159-0.021-0.236-0.034
	c-0.057-0.01-0.115-0.016-0.173-0.025c-0.09-0.014-0.181-0.029-0.269-0.039c-0.149-0.021-0.291-0.039-0.437-0.059
	c-0.187-0.025-0.377-0.054-0.557-0.075c-0.058-0.007-0.115-0.009-0.167-0.018c-0.031-0.005-0.06-0.007-0.091-0.01
	c-0.078-0.01-0.153-0.018-0.228-0.025c-0.051-0.005-0.104-0.011-0.153-0.017c-0.118-0.009-0.23-0.021-0.343-0.029
	c-0.146-0.014-0.279-0.02-0.417-0.029c-0.126-0.008-0.256-0.02-0.379-0.025c-0.021-0.002-0.044-0.004-0.066-0.005
	c0,0.001,0,0.002,0,0.003c0.085,1.881-0.455,3.754-1.523,5.299c-0.008,0.012-0.015,0.025-0.023,0.037l0.313,0.305
	c0.106,0.102,0.212,0.205,0.326,0.306c0.149,0.141,0.308,0.285,0.463,0.429c0.191,0.168,0.384,0.342,0.584,0.513
	c0.03,0.025,0.056,0.054,0.085,0.074l0.283,0.245c0.092,0.08,0.185,0.153,0.278,0.234c0.033,0.023,0.064,0.056,0.104,0.088
	c0.125,0.104,0.255,0.215,0.385,0.321c0.057,0.042,0.109,0.085,0.166,0.135c0.122,0.102,0.249,0.201,0.377,0.302
	c0.082,0.073,0.167,0.143,0.256,0.206c0.084,0.068,0.175,0.139,0.263,0.211c0.05,0.038,0.093,0.075,0.142,0.111
	c0.104,0.083,0.218,0.165,0.327,0.251c0.027,0.021,0.059,0.045,0.083,0.069c0.207,0.158,0.416,0.318,0.623,0.475l0.051,0.036
	c0.167,0.129,0.335,0.253,0.506,0.377c4.14,3.083,8.612,5.867,10.175,6.586c0.393,0.184,2.033,0.335,4.316,0.45
	c7.472,0.39,21.799,0.464,21.799,0.464c0.904,1.456,2.354,3.352,4.076,5.452c3.342,9.007,6.969,19.96,8.793,20.833
	c0.002-0.001,0.005-0.002,0.007-0.002c0.795-0.341,4.207,0.391,5.438-4.303c0.311-1.186,0.482-2.718,0.437-4.703l17.862-5.84
	c0.182,0.16,0.364,0.322,0.54,0.466c0.194,0.159,0.384,0.303,0.571,0.438c0.344,0.251,0.68,0.477,0.999,0.647
	c3.282,2.29,5.675,2.959,7.44,2.727c4.705-0.62,4.91-7.694,5.329-7.899C415.387,382.41,407.858,374.271,405.977,369.864z"></path>
<path id="color_x5F_2" fill="#FBC02D" d="M400.274,448.013l3.741-2.604l4.408,5.15l-11.166,7.781c0,0-2.484,1.82-3.307,0.542
	c-1.267-1.967,4.029-4.773,5.287-6.685C399.833,451.299,400.274,448.013,400.274,448.013z M424.298,454.602
	c0,0-0.079,3.313-0.569,4.273c-1.039,2.039-5.991,5.411-4.518,7.228c0.957,1.181,3.227-0.905,3.227-0.905l10.237-8.962l-4.947-4.634
	L424.298,454.602z M414.195,401.099c0,0,1.069-2.382,1.855-5.754c-1.765,0.232-4.158-0.437-7.44-2.727
	c-0.318-0.171-0.654-0.396-0.999-0.647c-0.187-0.136-0.377-0.279-0.571-0.438c-0.176-0.144-0.358-0.306-0.54-0.466l-17.862,5.84
	c0.046,1.985-0.126,3.518-0.437,4.703c-1.23,4.693-4.643,3.962-5.438,4.303c-1.357,4.784-3.074,10.778-4.34,14.998
	c-2.439,8.11,20.852,27.776,20.852,27.776l4.738-3.278c0,0-4.579-8.517-7.677-15.07c9.16,10.912,27.042,25.046,27.042,25.046
	l4.348-3.782c0,0-19.869-26.23-21.2-30.136C405.957,419.793,414.195,401.099,414.195,401.099z M470.407,196.359l0.17,5.76
	c0,0-29.174,8.834-34.651,2.371c-3.568-4.207-9.132-13.906-12.582-20.166c0.122,3.777-2.794,4.435-3.317,5.02
	c-1.866-0.046-8.653-7.285-14.989-13.779c-2.741,1.176-5.643,2.279-8.098,2.955c-0.138,0.038-0.282,0.082-0.417,0.117
	c-0.744-1.961-1.633-3.84-2.639-5.632c-0.036-0.063-0.065-0.132-0.102-0.195c1.146-1.466,2.507-2.997,3.898-4.452
	c-1.011-0.9-1.912-1.635-2.658-2.137c0,0-10.616,10.248-17.588,12.959c-2.129,0.832-3.687,1.368-4.121,1.359
	c-1.721-0.014-6.941-0.716-11.982-1.827c-0.207-0.044-0.411-0.089-0.615-0.138l-0.063-0.012c-0.252-0.06-0.508-0.119-0.761-0.179
	c-0.031-0.011-0.071-0.019-0.104-0.026c-0.136-0.034-0.272-0.063-0.402-0.098c-0.059-0.012-0.114-0.029-0.174-0.041
	c-0.111-0.029-0.222-0.057-0.328-0.085c-0.106-0.021-0.212-0.05-0.317-0.082c-0.158-0.04-0.315-0.079-0.468-0.12
	c-0.071-0.022-0.138-0.042-0.205-0.057c-0.163-0.043-0.328-0.089-0.484-0.132c-0.05-0.017-0.091-0.03-0.13-0.04
	c-0.119-0.033-0.235-0.063-0.35-0.099l-0.358-0.107c-0.037-0.009-0.07-0.021-0.109-0.033c-0.251-0.074-0.499-0.153-0.743-0.229
	c-0.201-0.064-0.406-0.133-0.598-0.199c-0.146-0.044-0.285-0.096-0.423-0.145l-0.411-0.148c0.003-0.015,0.004-0.029,0.006-0.045
	c0.341-1.849,0.063-3.778-0.787-5.458c0-0.001,0-0.001-0.001-0.002c0.022-0.009,0.047-0.017,0.069-0.025
	c0.239-0.092,0.481-0.185,0.742-0.273c0.028-0.011,0.06-0.021,0.088-0.031c0.078-0.027,0.156-0.055,0.238-0.084
	c0.05-0.017,0.104-0.033,0.156-0.05c0.092-0.031,0.183-0.062,0.282-0.092c0.004-0.001,0.008-0.002,0.012-0.004
	c0.05-0.016,0.103-0.033,0.158-0.053c0.045-0.014,0.094-0.027,0.14-0.042c0.268-0.081,0.539-0.163,0.821-0.245
	c0.141-0.042,0.287-0.082,0.432-0.119c0.045-0.014,0.092-0.027,0.138-0.041c0.03-0.009,0.06-0.019,0.09-0.026
	c0.008-0.002,0.018-0.004,0.026-0.006c0.009-0.002,0.016-0.003,0.027-0.006c0.059-0.015,0.118-0.032,0.178-0.048
	c0.062-0.018,0.123-0.033,0.182-0.05c0.037-0.01,0.075-0.019,0.112-0.028c0.413-0.105,0.828-0.209,1.253-0.31
	c0.047-0.012,0.099-0.021,0.148-0.034c0.166-0.039,0.331-0.078,0.497-0.117c0.027-0.007,0.054-0.013,0.081-0.02
	c0.031-0.006,0.061-0.013,0.091-0.02c0.032-0.008,0.064-0.015,0.098-0.021c0.125-0.03,0.26-0.058,0.387-0.085
	c0.021-0.004,0.04-0.01,0.059-0.016c0.036-0.009,0.072-0.019,0.108-0.027c0.17-0.029,0.339-0.066,0.511-0.104
	c0.009-0.002,0.018-0.004,0.027-0.006c0.053-0.008,0.105-0.022,0.159-0.031c0.36-0.075,0.721-0.148,1.082-0.219
	c0.01-0.002,0.021-0.004,0.032-0.006l0.055-0.01l0.74-0.141c0.001,0,0.002,0,0.003,0c0.132-0.021,0.258-0.047,0.388-0.073
	c0.025-0.005,0.049-0.008,0.074-0.013c0.97-0.173,1.933-0.33,2.861-0.475c0.184-0.027,0.367-0.054,0.546-0.081
	c0.867-0.128,1.706-0.241,2.485-0.335c0.182-0.021,0.366-0.042,0.542-0.061c0.766-0.091,1.46-0.16,2.065-0.211
	c0.167-0.016,0.326-0.026,0.476-0.035c0.031-0.004,0.061-0.008,0.086-0.006c0.08-0.007,0.154-0.012,0.229-0.018
	c0.037-0.002,0.078-0.006,0.114-0.008c0.047-0.002,0.084-0.003,0.129-0.005c0.277-0.011,0.523-0.019,0.716-0.018
	c0,0,0.001,0,0.002,0l15-13.462l0.007-0.01l1.257-1.611l0.531-0.682c0,0,0.001,0,0.001,0.001c0.073,0.041,0.145,0.087,0.218,0.129
	c4.651,2.645,9.168,6.213,13.679,10.181l-3.473-17.35c-1.539-1.092-2.603-1.836-3.03-2.085c-0.099-0.058-0.172-0.095-0.2-0.097
	l0.18-0.23l2.791-3.578l1.246-1.596l2.705-3.466c0.831-1.149,2.26-2.44,4.08-2.138c0.018-0.007,0.033-0.009,0.05-0.012
	c0.139-0.029,0.286-0.025,0.427-0.004c1.14-0.319,17.493,15.436,17.493,15.436c3.524,3.247,13.731,7.578,21.262,9.708
	c-0.28,0.337,2.085,6.09-0.924,8.87c4.51,3.939,12.826,11.047,14.104,11.027c4.125-0.061,35.21-10.857,35.21-10.857l2.254,5.305
	c0,0-35.842,23.898-43.294,19.871c-4.183-2.259-10.287-5.451-14.839-7.817c2.601,4.808,5.521,9.901,6.383,10.225
	C450.428,194.714,470.407,196.359,470.407,196.359z M415.771,155.172l1.247,8.42l-0.271,0.102c0.819,2.688-0.192,5.725-2.684,7.395
	c-0.016,0.011-0.042,0.025-0.059,0.037c2.336,2.18,4.694,4.363,7.093,6.48l11.021-12.901
	C427.403,162.564,421.432,158.909,415.771,155.172z M150.651,245.999h-40.624v-49.857h40.624v10.495
	c7.096-3.341,17.263-3.399,27.184-3.442c4.786-0.021,9.452-0.048,13.527-0.466c0.082,0.329,0.175,0.653,0.283,0.972
	c-4.174,0.444-8.93,0.473-13.806,0.494c-10.016,0.043-20.288,0.103-27.188,3.554V245.999z M144.688,238.151
	c0-0.276-0.224-0.5-0.5-0.5h-26.775c-0.276,0-0.5,0.224-0.5,0.5s0.224,0.5,0.5,0.5h26.775
	C144.465,238.651,144.688,238.428,144.688,238.151z M144.688,231.689c0-0.276-0.224-0.5-0.5-0.5h-26.775c-0.276,0-0.5,0.224-0.5,0.5
	s0.224,0.5,0.5,0.5h26.775C144.465,232.189,144.688,231.966,144.688,231.689z M144.688,225.226c0-0.276-0.224-0.5-0.5-0.5h-26.775
	c-0.276,0-0.5,0.224-0.5,0.5s0.224,0.5,0.5,0.5h26.775C144.465,225.726,144.688,225.502,144.688,225.226z M144.688,218.762
	c0-0.276-0.224-0.5-0.5-0.5h-26.775c-0.276,0-0.5,0.224-0.5,0.5s0.224,0.5,0.5,0.5h26.775
	C144.465,219.262,144.688,219.038,144.688,218.762z M144.688,212.298c0-0.276-0.224-0.5-0.5-0.5h-26.775c-0.276,0-0.5,0.224-0.5,0.5
	s0.224,0.5,0.5,0.5h26.775C144.465,212.798,144.688,212.574,144.688,212.298z M144.688,205.835c0-0.276-0.224-0.5-0.5-0.5h-26.775
	c-0.276,0-0.5,0.224-0.5,0.5s0.224,0.5,0.5,0.5h26.775C144.465,206.335,144.688,206.111,144.688,205.835z M223.714,383.965
	c-16.745-0.319-29.979-5.285-39.333-14.8c-14.333-14.579-14.757-35.225-14.764-37.134c0-0.085,0-0.146,0-0.155l-0.271-0.005
	l-0.649-0.012c-0.015-0.195-0.029-0.387-0.045-0.572c-1.265-1.197-3.048-3.622-5.561-7.938c-0.082-0.446-0.181-0.888-0.272-1.331
	c-2.56,1.002-5.55,2.154-8.289,3.211c-0.022,0.104-0.046,0.203-0.068,0.307c0.204,1.109,0.396,2.217,0.57,3.321
	c-1.709,1.167-1.564,4.776-2.273,8.051c-0.055,0.254-0.117,0.506-0.184,0.755c-0.98,3.658-3.361,6.587-11.155,4.672
	c-0.184,0.426-0.336,0.88-0.45,1.369c-1.344,5.788-7.278,22.207-9.167,31.436c-2.364-1.082-5.598-1.395-7.84-0.758
	c-2.661,0.756-8.202,2.561-12.088,4.334l-0.072,4.266c0,0-0.085,0.076-0.2,0.182c3.054,0.121,7.311-0.213,10.763-0.078
	c5.498,0.211,10.984-0.711,12.052-2.607c4.966-4.063,14.573-17.946,18.972-26.835c1.556,7.14,3.922,21.266,6.327,30.161
	c-0.961,2.195-1.617,4.428-1.551,6.073c0.11,2.787-0.499,9.869-0.52,15.021l3.729,1.17c2.404-6.482,5.153-17.715,5.025-20.942
	c-0.099-2.468,0.29-4.936,0.344-6.689c1.474-12.515,2.39-30.943,2.155-41.957c0.779,7.379,3.716,22.139,14.762,33.381
	c9.555,9.724,23.043,14.792,40.089,15.107c-0.02-0.284-0.043-0.566-0.043-0.855C223.707,384.062,223.714,384.014,223.714,383.965z
	 M306.489,327.818c-0.86,1.164-1.938,2.976-3.302,5.271c-7.523,12.658-23.452,39.41-55.864,48.1
	c0.082,0.325,0.149,0.654,0.203,0.988c32.826-8.758,48.921-35.79,56.521-48.577c1.256-2.113,2.26-3.798,3.051-4.916l-0.833,0.438
	L306.489,327.818z M386.39,256.542c-3.263,0.693-6.772,1.327-10.528,1.898c-38.689,5.888-44.982,31.917-45.807,36.624l0.386,0.783
	l0.498,0.05c0.03-0.301,3.468-30.137,45.073-36.469c3.78-0.575,7.313-1.215,10.604-1.917
	C386.529,257.193,386.451,256.871,386.39,256.542z M343.77,185.926c0.503,0.144,50.542,14.582,66.873,33.634
	c6.665,7.775,8.993,14.549,6.92,20.131c-1.269,3.416-4.199,6.46-8.752,9.124c0.15,0.289,0.296,0.582,0.424,0.885
	c4.815-2.803,7.916-6.026,9.266-9.661c2.209-5.948-0.179-13.057-7.099-21.129c-15.348-17.906-59.842-31.704-66.513-33.695
	c0.308-0.211,0.532-0.541,0.59-0.939c0.11-0.757-0.414-1.46-1.171-1.569l-23.435-3.422l-0.858-24.771
	c-0.026-0.765-0.667-1.363-1.432-1.336c-0.764,0.025-1.362,0.667-1.336,1.432l0.862,24.912c0.001,0.046,0.012,0.089,0.018,0.133
	c-3.589-3.203-40.719-35.367-76.18-28.783c-28.115,5.218-31.705,21.609-34.589,34.78c-0.207,0.944-0.413,1.875-0.624,2.789
	c0.321,0.105,0.638,0.218,0.946,0.349c0.222-0.958,0.438-1.934,0.654-2.924c2.821-12.882,6.333-28.914,33.795-34.012
	c36.631-6.785,75.216,28.435,75.602,28.791l0.339-0.367c-0.111,0.756,0.415,1.459,1.17,1.569l24.666,3.601L343.77,185.926z"></path>
<path id="color_x5F_1" fill="#0984E3" d="M374.816,340.919c0.58,1.094,0.876,2.262,0.912,3.417c0,0-0.004-0.008-0.004-0.008
	c-0.045-0.092-2.48-4.928-4.183-4.987c-1.039-0.038-0.065,3.677-0.065,3.677s-0.691-0.862-1.042-1.525
	c-0.35-0.662-0.974-1.751-3.312-2.579c-0.495-0.176-0.88-0.524-1.188-0.956c-0.933,1.332-2.34,2.795-4.465,3.959
	c-1.252,0.686-2.263,1.025-3.098,1.139c-2.249,0.305-3.18-1.091-3.813-2.197c-1.454-2.544,1.596-3.181,2.181-5.088
	c0.59-1.913,1.817-4.727,5.088-3.271c0.909,0.404,3.715-3.86,5.815-1.818c0.457,0.443,0.426,1.445,0.298,2.285
	c0.093,0.028,0.19,0.042,0.282,0.073c1.819,0.614,3.417,1.899,4.39,3.732L374.816,340.919z M477.125,195.465l-6.719,0.895
	l0.147,4.554c0,0,2.517,2.159,2.948,3.149c0.916,2.094,0.39,8.063,2.729,8.073c1.519,0.006,1.345-3.071,1.345-3.071L477.125,195.465
	z M382.473,133.238c1.578-0.646,5.791,2.775,5.862,2.832c0,0.001,0.006,0.006,0.006,0.006c-0.507-1.04-1.256-1.982-2.234-2.742
	l-3.711-2.879c-2.296-1.779-5.268-2.08-7.769-1.045c-0.356,0.147-0.704,0.322-1.038,0.523c-0.087,0.055-0.179,0.107-0.262,0.167
	l0.004,0.005c-0.031,0.02-0.061,0.04-0.091,0.061c-0.302,0.203-0.594,0.428-0.87,0.678c-0.043,0.039-0.084,0.082-0.126,0.123
	c-0.284,0.27-0.555,0.557-0.801,0.874c0,0,0,0.001-0.001,0.001c-1.323,1.705-1.824,3.78-1.577,5.766c0,0.005-0.001,0.009,0,0.014
	c0.224,1.971-5.039,2.862-3.336,4.182c0,0,2.611,1.197,5.257,0.017c0.88-0.393,1.765-1.048,2.559-2.1
	c1.885-2.493,1.968-4.61,1.619-6.07c0.661,0.624,1.445,1.083,2.303,1.013c2.472-0.203,3.488,0.533,4.079,0.994
	c0.592,0.459,1.576,0.963,1.576,0.963S381.509,133.631,382.473,133.238z M507.354,174.919l-5.364-12.506l-5.935,3.274l1.793,4.189
	c0,0,3.128,1.1,3.889,1.861c1.617,1.617,3.295,7.369,5.479,6.528C508.634,177.722,507.354,174.919,507.354,174.919z
	 M163.711,409.667c-0.807-0.657-2.166-3.548-2.166-3.548l-0.17-0.053l-3.729-1.17l-0.294-0.092l-2.563,6.018l12.521,3.918
	c0,0,2.815,0.954,3.2-0.457C171.103,412.107,165.42,411.058,163.711,409.667z M105.164,390.948c0,0-0.12,2.972,1.344,2.939
	c2.254-0.047,1.653-5.795,2.505-7.827c0.333-0.797,2.025-2.382,2.591-2.898c0.115-0.105,0.2-0.182,0.2-0.182l0.072-4.266
	l0.002-0.127l-6.495-0.758L105.164,390.948z M140.294,269.671l1.545,3.582c0.24,0.554,0.462,1.095,0.653,1.624
	c0.223,0.598,0.404,1.177,0.534,1.732c0.477,2.023,0.243,3.729-1.538,4.89c-0.275,0.182-0.577,0.354-0.929,0.509l-1.739,0.748
	l-0.911,0.392c-0.141,0.063-0.284,0.118-0.427,0.169c0.299,0.414,0.567,0.685,0.76,0.602l1.45-0.627l1.197-0.518
	c0.083,0.01,1.357,4.102,1.357,4.102l3.514,4.963c0.006-0.007,0.011-0.014,0.016-0.021l-3.57-5.087l1.548-1.172l1.792-1.355
	c0.164-0.315,0.356-0.621,0.597-0.903c0.214-0.249,0.728-1.063,1.427-2.167C146.496,277.648,144.395,273.336,140.294,269.671z
	 M124.524,288.65c2.833,1.32,5.566,2.727,7.361,3.712l3.165-3.823l0.41,0.236l-3.604-5.678c-0.063-0.027-0.123-0.059-0.185-0.089
	c-0.405-0.195-0.8-0.415-1.166-0.681c-0.158-0.115-0.315-0.235-0.465-0.365c-0.001-0.001-0.003-0.003-0.004-0.004
	c-0.035-0.074-2.222-4.834-1.238-6.156c0.602-0.801,2.81,2.168,2.81,2.168s-0.234-1.039-0.521-1.702
	c-0.286-0.667-0.731-1.789,0.053-4.05c0.273-0.784,0.032-1.627-0.392-2.395c1.28,0.677,3.277,1.109,6.061-0.05
	c0.85-0.354,1.512-0.806,2.035-1.303c0.199-0.188,0.381-0.383,0.54-0.583c1.738-2.189,1.248-4.915,1.248-4.915
	c-0.822-1.905-2.921,2.796-4.708,2.112c-0.004-0.002-0.008-0.001-0.013-0.003c-1.577-0.625-3.357-0.722-5.063-0.176
	c-0.234,0.075-0.468,0.161-0.699,0.261c-0.025,0.011-0.045,0.027-0.07,0.039c-0.391,0.174-0.761,0.376-1.106,0.605
	c-0.122,0.081-0.228,0.178-0.343,0.265c-0.19,0.143-0.375,0.29-0.548,0.448l-0.01-0.016c-0.04,0.033-0.077,0.07-0.116,0.107
	c-0.035,0.032-0.071,0.063-0.104,0.096c-1.951,1.918-2.731,4.807-1.915,7.52c-0.818,2.001-1.987,4.151-3.603,5.623
	c-0.699,0.637-2.151,1.309-3.617,2.387c0.477,1.918,0.84,3.485,1.022,4.329C121.261,287.172,122.907,287.896,124.524,288.65z
	 M134.284,305.264c-0.651-0.523-1.327-1.067-2.009-1.615c-0.682-0.549-1.365-1.098-2.028-1.631
	c-0.609-0.115-1.206-0.351-1.753-0.718c-1.014-0.679-10.063-4.463-13.588-7.739c-0.038-0.035-0.067-0.07-0.105-0.105
	c-0.486-0.463-0.889-0.919-1.216-1.364c-4.082,0.444-9.209,2.188-11.65,10.749c-1.025,3.596-0.85,6.949,0.154,9.865
	c-4.212,0.172-11.061,0.586-14.003,10.908c-3.653,12.81,7.932,22.544,17.94,20.42c3.598-0.764,7.42-1.612,10.931-2.626
	c2.935,1.403,6.236,1.907,9.382,1.24c3.31-0.702,6.809-1.477,10.081-2.384c-7.071-5.154,4.318-15.363,4.978-24.324
	c0.172-2.34-0.385-4.595-2.196-6.651C139.207,309.234,136.982,307.436,134.284,305.264z M247.323,381.189
	c-1.306-5.21-6.006-9.074-11.622-9.074c-6.576,0-11.909,5.293-11.987,11.85c0,0.049-0.007,0.097-0.007,0.146
	c0,0.289,0.023,0.571,0.043,0.855c0.44,6.224,5.616,11.139,11.952,11.139c6.625,0,11.995-5.37,11.995-11.994
	c0-0.659-0.067-1.302-0.17-1.933C247.472,381.844,247.405,381.515,247.323,381.189z M207.681,188.787
	c-0.308-0.131-0.625-0.243-0.946-0.349c-1.18-0.388-2.437-0.604-3.746-0.604c-6.625,0-11.995,5.369-11.995,11.994
	c0,1.002,0.136,1.971,0.368,2.9c0.082,0.329,0.175,0.653,0.283,0.972c1.612,4.722,6.076,8.122,11.344,8.122
	c6.625,0,11.995-5.369,11.995-11.994C214.984,194.868,211.974,190.613,207.681,188.787z M408.811,248.814
	c-2.001-3.836-6.009-6.46-10.635-6.46c-6.625,0-11.995,5.37-11.995,11.995c0,0.75,0.078,1.48,0.209,2.192
	c0.061,0.329,0.139,0.651,0.226,0.97c1.389,5.088,6.031,8.832,11.559,8.832c6.625,0,11.995-5.37,11.995-11.994
	c0-1.649-0.333-3.221-0.936-4.65C409.107,249.396,408.961,249.104,408.811,248.814z"></path>
</svg>