<?xml version="1.0" standalone="no"?>
<svg version="1.1" id="Layer_1" xmlns="http://www.w3.org/2000/svg" xmlns:xlink="http://www.w3.org/1999/xlink" x="0px" y="0px" width="595.279px" height="595.279px" viewBox="0 0.001 595.279 595.279" enable-background="new 0 0.001 595.279 595.279" xml:space="preserve">
<path id="color_x5F_5" fill="#FFD2BB" d="M142.539,230.269c0.018-0.188,0.039-0.375,0.061-0.564
	c0.316-2.618,0.076-5.148-0.595-7.448l-0.104-0.013c-0.702-0.085-9.539-0.867-8.683-0.502c1.248,3.904,1.042,7.723-0.671,10.43
	c-0.307-1.17-0.873-2.256-1.73-3.081c-1.635-1.577-4.49-2.077-6.332-0.511c-1.373,1.172-1.375,3.041-0.479,4.523
	c0.389,0.648,0.881,1.201,1.457,1.636c0.545,0.421,1.16,0.743,1.812,0.952c-1.1,0.203-2.269,0.206-3.477,0.016
	c-2.271-0.343-4.658-1.364-6.88-2.982c-0.031-0.016-0.053-0.03-0.076-0.052c-0.196-0.144-0.384-0.313-0.577-0.467l-7.036,16.96
	l2.714,0.652c1.399-0.023,2.873-0.025,4.418-0.025c4.537,0,8.766,1.307,12.342,3.557l1.593-8.776
	c2.309,1.152,4.519,1.918,6.313,2.135c5.72,0.691,5.585-4.34,5.663-10.706c0.611-0.042,1.162-0.146,1.563-0.314
	c1.796-0.755,0.07-2.431-0.824-4.558C142.88,230.82,142.719,230.535,142.539,230.269z M139.556,230.037
	c-0.08,0.795-0.533,1.4-1.026,1.348c-0.485-0.053-0.823-0.742-0.746-1.541c0.077-0.797,0.532-1.4,1.025-1.348
	C139.297,228.549,139.636,229.238,139.556,230.037z M230.056,282.356c0.075,0.455,0.125,0.919,0.125,1.395
	c0,4.137-2.946,7.595-6.901,8.507c-0.665,0.153-1.354,0.243-2.067,0.243c-2.666,0-5.053-1.141-6.696-2.942
	c-0.215-0.236-0.418-0.482-0.607-0.74c-0.491-0.672-0.884-1.414-1.166-2.208c-0.318-0.897-0.5-1.856-0.5-2.859
	c0-0.37,0.031-0.731,0.077-1.089c0.55-4.317,4.317-7.661,8.892-7.661C225.678,275.001,229.37,278.188,230.056,282.356z
	 M397.774,334.969l-12.116-4.904c-0.008,0.035-0.016,0.076-0.023,0.109c-0.17,0.66-0.37,1.3-0.59,1.93
	c-0.162,0.47-0.359,0.914-0.549,1.364c-0.397,0.944-0.829,1.86-1.322,2.7c-0.011,0.028-0.029,0.06-0.05,0.09
	c-1.54,2.63-3.512,4.718-5.672,6.069c-1.058,0.681-2.158,1.17-3.278,1.46c-0.09,0.028-0.17,0.049-0.26,0.068
	c0.001-0.001,0.001-0.002,0.002-0.002h-0.001c0.568-0.51,1.05-1.1,1.42-1.77c0.389-0.701,0.647-1.481,0.749-2.311
	c0.26-1.899-0.57-3.8-2.479-4.38c-2.409-0.732-4.915,0.778-6.01,2.89c-0.073,0.141-0.14,0.283-0.199,0.429
	c-0.071,0.171-0.116,0.349-0.171,0.524c-0.044,0.139-0.101,0.273-0.135,0.414c-0.063,0.26-0.1,0.525-0.131,0.792
	c-0.007,0.06-0.023,0.117-0.029,0.177c-0.062,0.655-0.033,1.323,0.066,1.982c-0.001-0.001-0.002-0.001-0.002-0.002
	c0,0.001,0,0.003,0,0.004c-2.463-1.666-4.714-5.555-5.651-9.431c-2.766,2.223-5.446,4.365-7.812,6.249
	c0.473,1.739,1.185,3.469,2.159,5.129c0.108,0.181,0.209,0.363,0.313,0.545c-0.066,0.351-0.104,0.711-0.099,1.084
	c0.034,2.558-0.979,5.022,1.181,4.996c0.482-0.008,1.088-0.144,1.729-0.373c2.896,6.435,4.985,11.606,10.491,8.373
	c2.455-1.441,5.271-4.37,7.729-7.944l4.117,1.102L397.774,334.969z M360.57,344.454c-0.477,0.271-1.206-0.145-1.639-0.916
	c-0.434-0.775-0.395-1.627,0.077-1.896c0.477-0.271,1.209,0.142,1.639,0.915C361.081,343.335,361.042,344.184,360.57,344.454z
	 M338.696,439.077l12.338,13.42c-4.302,1.912-10.323,2.373-14.91-0.799c-4.403-3.046,0.569-8.967,0.569-8.967
	S337.547,440.926,338.696,439.077z M362.05,446.406c-2.307,1.186-4.486,2.117-6.439,2.69c-0.305,0.424-0.698,0.833-1.139,1.229
	l-13.283-14.448c0.507-0.446,1.005-0.726,1.459-0.729c2.287-0.021,6.125,2.746,9.18,5.592c3.686-5.479,9.147-11.455,9.147-11.455
	s0.368-0.477,1-1.281C361.509,433.119,361.61,439.53,362.05,446.406z M387.731,404.756c-2.415,0.547-4.725,1.186-6.904,1.919
	c0.369-0.282,0.707-0.514,1.004-0.677C383.827,404.895,385.839,404.566,387.731,404.756z M346.471,394.566
	c-0.048-0.023-0.097-0.045-0.145-0.067c-0.408-0.195-0.833-0.373-1.286-0.521c-0.741-0.242-1.879-0.401-3.271-0.505
	c-0.001-0.001,0-0.001,0-0.002c-0.001,0-0.002,0-0.003,0c-2.149-0.157-4.932-0.167-7.907-0.093
	c-9.133,0.225-20.076,1.243-20.076,1.243s-4.817,0.054-10.013,0.558l-5.09-5.536c-0.347-1.943-0.89-3.577-1.69-4.419
	c-0.507-0.533-1.614-0.658-2.902-0.577c-1.537,0.096-3.326,0.483-4.672,0.828c-1.187,0.304-2.029,0.573-2.029,0.573
	s-2.32,0.127-4.29,1.11c-1.621,0.81-3.006,2.198-2.655,4.59c1.19,8.092,10.192,13.116,15.197,12.471
	c1.466,0.869,3.225,1.682,5.189,2.438c0.575,0.221,1.162,0.438,1.771,0.65c1.517,0.527,3.143,1.019,4.833,1.479
	c1.426,0.389,2.906,0.751,4.418,1.091c2.154,0.483,4.377,0.915,6.622,1.293c7.692,1.294,15.626,1.946,21.823,1.802
	c0.88-0.02,1.725-0.056,2.528-0.108c2.598-0.171,4.775-0.508,6.327-1.034c0.423-0.144,0.813-0.401,1.165-0.749
	C353.709,406.654,352.912,397.775,346.471,394.566z M299.173,395.752L299.173,395.752c0.579-0.094,1.172-0.177,1.769-0.255
	l0.001,0.001C300.344,395.576,299.752,395.659,299.173,395.752z"></path>
<path id="color_x5F_4" fill="#00CEC9" d="M535.322,450.326v64.977H371.406h-12.918h-63.676h-1.979h-64.669h-11.925H71.019v-64.977
	h157.146v48.732h64.669v-18.923h65.654v-29.81H535.322z M277.076,337.146l1.327-18.946c2.945-0.148,5.834-0.51,8.668-1.06
	l5.862,18.063l14.474-4.709l-5.867-18.059c2.655-1.235,5.193-2.655,7.629-4.245l12.217,14.561l11.661-9.778l-12.225-14.565
	c1.987-2.129,3.825-4.398,5.497-6.783l16.778,8.929l7.147-13.441l-16.771-8.923c1.038-2.696,1.885-5.477,2.538-8.337l18.905,1.988
	l1.589-15.143l-18.905-1.985c-0.048-2.955-0.296-5.858-0.743-8.704l18.259-5.229l-4.197-14.627l-18.243,5.228
	c-1.149-2.697-2.478-5.294-3.977-7.775l14.969-11.69l-9.376-11.998l-14.963,11.699c-2.063-2.059-4.265-3.971-6.598-5.732
	l9.501-16.447l-13.174-7.612l-9.494,16.447c-3.989-1.705-8.206-2.986-12.575-3.821l2.842-18.292l-15.039-2.342l-3.041,19.582
	c-4.402,0.242-8.681,0.936-12.795,2.036l-7.113-17.615l-14.109,5.71l7.113,17.606c-2.552,1.421-5.001,3.012-7.313,4.766
	l-13.208-13.669l-10.945,10.574l13.201,13.667c-1.823,2.25-3.515,4.641-5.022,7.148l-17.335-7.727l-6.199,13.897l17.35,7.729
	c-0.846,2.764-1.506,5.602-1.967,8.505l-18.98-0.662l-0.529,15.207l18.994,0.67c0.071,0.816,0.161,1.627,0.262,2.434
	c2.663-1.279,4.603-2.212,5.631-2.708c4.772-2.3,8.531-4.614,11.724-14.174c2.85-8.521,8.195-17.905,23.908-19.914
	c3.74-0.479,7.038-0.458,9.953-0.109c3.37-1.271,7.02-1.973,10.835-1.973c16.944,0,30.696,13.733,30.696,30.694
	c0,16.94-13.752,30.693-30.696,30.693c-2.011,0-3.974-0.2-5.876-0.569c-7.027,2.631-16.234,4.186-27.453-0.796
	c-3.404-1.51-7.721-3.396-11.819-2.462c0.075,0.455,0.125,0.919,0.125,1.395c0,4.137-2.946,7.595-6.901,8.507l-13.449,12.093
	l10.195,11.317l14.13-12.725c2.181,1.902,4.513,3.668,6.956,5.26l-8.332,17.081l13.683,6.668l8.324-17.075
	c2.732,0.942,5.545,1.703,8.434,2.263l-1.327,18.946L277.076,337.146z"></path>
<path id="color_x5F_3" fill="#E84393" d="M360.647,342.557c0.434,0.777,0.395,1.627-0.077,1.896
	c-0.477,0.271-1.206-0.145-1.639-0.916c-0.434-0.775-0.395-1.627,0.077-1.896C359.485,341.372,360.218,341.784,360.647,342.557z
	 M344.282,514.867h30.607l-6.123-14.961c-13.287,7.65-23.996,14.628-24.517,14.961C344.237,514.879,344.282,514.867,344.282,514.867
	z M157.452,514.867h30.607c0,0,0.045,0.012,0.032,0c-0.521-0.333-11.229-7.311-24.517-14.961L157.452,514.867z M93.906,514.867
	h30.607c0,0,0.045,0.012,0.032,0c-0.521-0.333-11.229-7.311-24.517-14.961L93.906,514.867z M564.905,509.794l-7.557-29.658
	l-13.05,9.751c10.763,10.912,20.165,19.521,20.617,19.942C564.931,509.835,564.905,509.794,564.905,509.794z M361.344,333.172
	c0.938,3.874,3.188,7.762,5.65,9.428c-0.1-0.658-0.126-1.325-0.064-1.98c0.006-0.06,0.022-0.117,0.029-0.177
	c0.031-0.267,0.068-0.532,0.131-0.792c0.034-0.141,0.091-0.276,0.135-0.414c0.055-0.175,0.099-0.353,0.17-0.522
	c0.061-0.146,0.127-0.289,0.2-0.431c1.095-2.112,3.601-3.624,6.011-2.892c1.909,0.58,2.739,2.481,2.479,4.38
	c-0.102,0.831-0.36,1.611-0.75,2.313l0,0c0,0.001-0.001,0.001-0.001,0.002c-0.369,0.669-0.851,1.258-1.418,1.768
	c0.09-0.019,0.169-0.04,0.259-0.068c1.12-0.29,2.22-0.779,3.278-1.46c2.16-1.351,4.132-3.439,5.672-6.069
	c0.021-0.03,0.039-0.062,0.05-0.09c0.493-0.84,0.925-1.755,1.321-2.698c0.188-0.449,0.387-0.894,0.548-1.362
	c0.22-0.63,0.42-1.27,0.59-1.93c0.009-0.034,0.017-0.076,0.024-0.111l0,0c0.001-0.001,0.001-0.001,0.001-0.002
	c0.616-2.513,0.654-8.371-1.505-12.749c-0.372-0.753-0.807-1.539-1.302-2.32l0,0c0,0.001,0,0.001,0,0.001
	C382.034,316.371,371.196,325.25,361.344,333.172z M375.335,342.084c-0.37,0.67-0.852,1.26-1.42,1.77h0.001
	c0.567-0.51,1.049-1.099,1.418-1.768C375.334,342.085,375.335,342.085,375.335,342.084z M385.634,330.176
	c-0.17,0.66-0.37,1.3-0.59,1.93c-0.161,0.469-0.359,0.913-0.548,1.362c0.189-0.45,0.387-0.895,0.549-1.364
	c0.22-0.63,0.42-1.27,0.59-1.93c0.008-0.033,0.016-0.074,0.023-0.109l0,0C385.65,330.099,385.642,330.141,385.634,330.176z
	 M367.224,339.236c0.055-0.176,0.1-0.354,0.171-0.524c0.06-0.146,0.126-0.288,0.199-0.429c-0.073,0.142-0.14,0.285-0.2,0.431
	C367.323,338.884,367.279,339.061,367.224,339.236z M366.994,342.599c0,0.001,0.001,0.001,0.002,0.002
	c-0.1-0.659-0.128-1.327-0.066-1.982C366.868,341.274,366.894,341.941,366.994,342.599z M366.959,340.442
	c0.031-0.267,0.068-0.532,0.131-0.792C367.027,339.91,366.99,340.176,366.959,340.442z M378.168,476.099l-14.624-15.905
	l-9.072-9.868l-13.283-14.448l-22.716-24.708c-2.245-0.378-4.468-0.81-6.622-1.293l26.846,29.2l12.338,13.42l13.367,14.539
	l12.134,13.198l18.086,19.672h5.434L378.168,476.099z M280.977,376.296l8.438,9.179c1.346-0.345,3.135-0.732,4.672-0.828
	l-10.076-10.959C283.154,374.717,282.125,375.594,280.977,376.296z M299.173,395.751L299.173,395.751
	c0.579-0.092,1.172-0.175,1.77-0.253l-0.001-0.001l0,0C300.344,395.575,299.752,395.658,299.173,395.751z M116.917,232.724
	c2.222,1.618,4.609,2.64,6.88,2.982c1.208,0.19,2.377,0.188,3.477-0.016c-0.652-0.209-1.267-0.531-1.812-0.952
	c-0.575-0.435-1.068-0.987-1.457-1.636c-0.895-1.482-0.893-3.352,0.479-4.523c1.842-1.566,4.697-1.066,6.332,0.511
	c0.857,0.825,1.423,1.911,1.73,3.081c1.713-2.707,1.919-6.525,0.671-10.43c-0.856-0.365,7.98,0.417,8.683,0.502l0.104,0.013
	l0.006,0.001c4.854,0.525,9.241-3.004,9.837-7.936c0.6-4.963-2.877-9.473-7.773-10.063c-3.619-0.438-6.76,1.625-11.051,1.125
	c-0.979-0.119-1.731-0.222-2.316-0.318c-2.987-0.49-1.733-0.775-5.153-1.188c-0.171-0.021-0.343-0.042-0.508-0.056l-0.05-0.006
	c-13.223-0.467-15.479,7.914-15.754,13.616c-0.215,4.454,1.994,9.371,3.405,11.165c0.383,0.481,0.775,0.944,1.182,1.385
	c0.769,0.831,1.591,1.559,2.435,2.223c0.193,0.153,0.381,0.323,0.577,0.467C116.864,232.694,116.885,232.709,116.917,232.724z
	 M138.53,231.385c0.493,0.053,0.946-0.553,1.026-1.348c0.08-0.799-0.26-1.488-0.747-1.541c-0.493-0.053-0.948,0.551-1.025,1.348
	C137.707,230.642,138.045,231.332,138.53,231.385z"></path>
<path id="color_x5F_2" fill="#FBC02D" d="M154.225,148.65l-9.531,3.471l2.784,7.638l9.531-3.465c0.706,1.384,1.51,2.717,2.402,3.992
	l-7.545,6.784l5.443,6.042l7.544-6.793c1.165,1.016,2.41,1.958,3.714,2.808l-4.449,9.12l7.305,3.56l4.445-9.117
	c1.458,0.503,2.96,0.909,4.504,1.208l-0.709,10.116l8.106,0.565l0.708-10.116c1.572-0.079,3.115-0.272,4.628-0.565l3.129,9.644
	l7.728-2.515l-3.132-9.642c1.417-0.66,2.773-1.418,4.073-2.267l6.523,7.774l6.227-5.221l-6.527-7.776
	c1.062-1.136,2.042-2.348,2.935-3.621l8.958,4.767l3.817-7.176l-8.955-4.764c0.554-1.439,1.007-2.924,1.355-4.452l10.094,1.062
	l0.849-8.085l-10.094-1.06c-0.025-1.578-0.158-3.127-0.396-4.647l9.749-2.792l-2.241-7.81l-9.74,2.792
	c-0.614-1.44-1.323-2.827-2.123-4.151l7.992-6.242l-5.007-6.406l-7.988,6.246c-1.102-1.099-2.278-2.12-3.522-3.061l5.073-8.781
	l-7.035-4.064l-5.069,8.781c-2.13-0.91-4.382-1.594-6.713-2.04l1.517-9.767l-8.03-1.25l-1.623,10.455
	c-2.351,0.129-4.636,0.5-6.833,1.087l-3.797-9.405l-7.533,3.048l3.798,9.4c-1.363,0.758-2.67,1.608-3.904,2.544l-7.052-7.298
	l-5.844,5.646l7.049,7.297c-0.974,1.201-1.878,2.478-2.682,3.816l-9.256-4.126l-3.309,7.42l9.263,4.126
	c-0.452,1.476-0.804,2.991-1.051,4.541l-10.134-0.354l-0.283,8.119l10.141,0.358C153.638,145.619,153.881,147.157,154.225,148.65z
	 M186.772,124.594c9.047,0,16.39,7.332,16.39,16.388c0,9.045-7.342,16.388-16.39,16.388c-9.05,0-16.389-7.343-16.389-16.388
	C170.384,131.927,177.722,124.594,186.772,124.594z M444.908,142.968l1.269-11.408l-15.094-1.495
	c-0.036-2.226-0.235-4.413-0.593-6.557l14.577-3.939l-3.351-11.019l-14.564,3.938c-0.917-2.032-1.978-3.988-3.173-5.858
	l11.948-8.807l-7.484-9.038l-11.945,8.813c-1.647-1.551-3.405-2.992-5.267-4.318l7.585-12.391l-10.519-5.735l-7.579,12.391
	c-3.185-1.283-6.552-2.249-10.039-2.878l2.269-13.781l-12.005-1.765l-2.428,14.752c-3.517,0.182-6.932,0.705-10.215,1.534
	l-5.679-13.271l-11.265,4.302l5.68,13.264c-2.039,1.07-3.994,2.27-5.839,3.59l-10.544-10.297l-8.738,7.965l10.539,10.297
	c-1.456,1.695-2.808,3.496-4.01,5.385l-13.838-5.822l-4.948,10.47l13.85,5.823c-0.676,2.083-1.203,4.221-1.572,6.407l-15.15-0.499
	l-0.424,11.457l15.163,0.505c0.203,2.211,0.565,4.381,1.082,6.488l-14.251,4.898l4.163,10.777l14.251-4.89
	c1.055,1.954,2.258,3.835,3.592,5.633l-11.281,9.572l8.14,8.526l11.279-9.585c1.743,1.433,3.604,2.763,5.556,3.962l-6.652,12.869
	l10.923,5.023l6.646-12.864c2.18,0.71,4.425,1.283,6.732,1.706l-1.06,14.273l12.121,0.798l1.061-14.273
	c2.349-0.112,4.656-0.384,6.919-0.798l4.68,13.608l11.554-3.549l-4.684-13.604c2.121-0.931,4.147-2,6.089-3.198l9.755,10.969
	l9.31-7.367l-9.76-10.972c1.588-1.604,3.055-3.314,4.389-5.11l13.395,6.727l5.706-10.126l-13.39-6.723
	c0.829-2.031,1.506-4.126,2.027-6.281L444.908,142.968z M381.272,153.775c-13.532,0-24.505-10.36-24.505-23.123
	c0-12.778,10.973-23.124,24.505-23.124c13.526,0,24.505,10.346,24.505,23.124C405.777,143.414,394.799,153.775,381.272,153.775z
	 M138.459,300.27c-0.197-0.17-0.395-0.339-0.592-0.51c-17.927,8.571-34.86,16.645-46.041,21.928
	c-3.812,1.801-6.965,3.282-9.248,4.342c-6.143-3.613-13.918-4.188-20.81-0.844c-10.95,5.313-15.522,18.496-10.21,29.447
	s18.497,15.523,29.447,10.211c5.438-2.638,9.295-7.219,11.157-12.501c0.464-1.316,0.81-2.674,1.019-4.059
	c0.576-0.283,1.203-0.591,1.852-0.909c0.545-0.268,1.116-0.547,1.71-0.838c6.12-2.995,14.761-7.197,24.735-12.035
	c2.313-1.122,4.695-2.276,7.136-3.459c2.854-1.383,5.784-2.802,8.768-4.246c7.915-3.831,20.938-10.346,24.1-11.873
	C157.93,315.734,148.159,308.584,138.459,300.27z M85.174,347.485c-2.133-0.432-4.052,0.158-4.538,1.518
	c-0.463,1.301,0.546,2.885,2.324,3.908c-0.765,1.125-1.695,2.143-2.784,3.02c-1.148-1.568-2.727-2.361-3.938-1.822
	c-1.276,0.572-1.721,2.426-1.214,4.443c-1.523,0.41-3.079,0.551-4.604,0.441c0.296-2.029-0.322-3.805-1.629-4.246
	c-1.367-0.459-3.021,0.686-4.003,2.625c-1.701-0.906-3.229-2.156-4.456-3.732c1.786-1.252,2.683-3.055,2.028-4.344
	c-0.643-1.266-2.569-1.613-4.595-0.957c-0.505-2.064-0.515-4.176-0.092-6.184c2.015,0.324,3.789-0.268,4.251-1.561
	c0.43-1.213-0.412-2.678-1.968-3.701c0.83-1.17,1.846-2.215,3.033-3.102c1.147,1.52,2.695,2.281,3.889,1.752
	c1.217-0.541,1.681-2.258,1.276-4.166c1.306-0.311,2.626-0.434,3.928-0.365c-0.158,1.854,0.466,3.422,1.687,3.834
	c1.304,0.439,2.862-0.588,3.859-2.371c1.85,0.918,3.513,2.242,4.823,3.934c-1.725,1.25-2.585,3.014-1.943,4.279
	c0.631,1.242,2.504,1.598,4.495,0.986C85.478,343.614,85.515,345.589,85.174,347.485z M286.851,266.813
	c0.037,9.588-10.212,16.022-17.271,18.711c-0.082,0.031-0.169,0.061-0.251,0.091c-7.027,2.631-16.234,4.186-27.453-0.796
	c-3.404-1.51-7.721-3.396-11.819-2.462c-0.686-4.168-4.378-7.355-8.844-7.355c-4.575,0-8.342,3.344-8.892,7.661
	c-3.36,0.093-7.957,0.705-13.044,1.596c-15.054,2.636-34.379,7.707-38.519,8.96c-1.649,0.499-3.148,1.236-4.458,2.138
	c-0.608-1.152-1.246-2.325-1.898-3.505c24.321-11.643,47.774-22.9,58.753-28.176c2.663-1.279,4.603-2.212,5.631-2.708
	c4.772-2.3,8.531-4.614,11.724-14.174c2.85-8.521,8.195-17.905,23.908-19.914c3.74-0.479,7.038-0.458,9.953-0.109
	c14.029,1.678,18.941,11.138,18.941,11.138s-1.37,0.404-2.053,0.509c-3.364,0.514-13.893,2.206-20.511,4.26
	c-3.229,1.004-5.009,4.656-4.067,13.445c0.798,7.467,4.684,13.81,8.675,13.303c5.15-0.65,14.946-1.994,19.023-2.589
	C285.441,266.676,286.851,266.813,286.851,266.813z"></path>
<path id="color_x5F_1" fill="#0984E3" d="M400.054,499.906h31.773v15.396h-47.549v-15.396h10.342H400.054z M274.594,353.589
	c-6.77,0-12.258,5.488-12.258,12.258s5.488,12.258,12.258,12.258c2.342,0,4.522-0.669,6.384-1.809
	c1.148-0.702,2.177-1.579,3.035-2.608c1.771-2.126,2.839-4.857,2.839-7.841C286.851,359.077,281.363,353.589,274.594,353.589z
	 M167.44,406.039c5.123-5.281-20.405-54.19-27.432-65.129c-0.922-1.435-1.944-2.741-3.042-3.922l0.415-10.19
	c-2.984,1.444-5.914,2.863-8.768,4.246c-2.441,1.183-4.822,2.337-7.136,3.459c-9.974,4.838-18.615,9.04-24.735,12.035
	c-0.594,0.291-1.165,0.57-1.71,0.838c-0.648,0.318-1.275,0.626-1.852,0.909c-0.209,1.385-0.554,2.742-1.019,4.059
	c2.153,15.288,7.212,37.094,16.842,56.229c-1.079,2.164-2.024,4.586-2.778,7.226c-3.703,12.964-6.196,84.108-6.196,84.108
	s26.008-59.233,29.711-72.195c1.569-5.493,2.063-11.021,1.622-15.821c1.42-6.729,2.627-14.652,3.581-22.386
	c4.176,3.192,8.531,6.192,13.008,8.838c-1.279,4.104-1.99,9.318-1.897,15.139c0.236,14.747,17.52,86.426,17.52,86.426
	s5.498-66.915,5.262-81.662C168.768,413.945,168.268,409.797,167.44,406.039z M212.744,286.61c0.282,0.794,0.675,1.536,1.166,2.208
	c-1.572,1.171-3.533,2.456-5.762,3.807c-13.636,8.263-45.68,21.749-45.957,21.973c-2.751,2.236-13.285-5.374-23.732-14.328
	c-0.197-0.17-0.395-0.339-0.592-0.51c-17.927,8.571-34.86,16.645-46.041,21.928l3.757-59.026c0-11.271,6.158-12.67,16.359-12.844
	c1.399-0.023,2.873-0.025,4.418-0.025c4.537,0,8.766,1.307,12.342,3.557c4.566,2.874,8.06,7.292,9.747,12.525
	c3.782,5.626,10.501,16.118,15.951,25.976c0.653,1.18,1.29,2.353,1.898,3.505c1.311-0.902,2.809-1.639,4.458-2.138
	c4.14-1.253,23.465-6.324,38.519-8.96c5.087-0.891,9.685-1.503,13.044-1.596c-0.045,0.357-0.077,0.719-0.077,1.089
	C212.244,284.754,212.426,285.713,212.744,286.61z M544.299,489.886l-22.706,11.222c-17.457,7.174-38.912,14.896-48.775,14.144
	c-0.526,0.066-1.07,0.016-1.627-0.168c-14.455-4.772-21.906-72.844-21.906-72.844s-36.525-4.24-62.018-10.348
	c-0.738,11.926-6.438,37.38-6.438,37.38l-0.741,1.965l-3.553,8.997l-7.769,19.672c-0.646-4.787-2.691-19.745-4.365-32.87l0.05,0.054
	c-0.967-7.915-2.281-18.82-2.4-20.684c-0.439-6.876-0.541-13.287-0.075-18.402c0.239-2.623,0.626-4.906,1.195-6.732
	c-0.085-0.446-0.058-0.896,0.128-1.346c2.465-6.024,8.967-10.368,17.529-13.25c2.18-0.733,4.489-1.372,6.904-1.919
	c8.888-2.014,19.148-2.793,29.179-2.503c-1.045-0.514-15.985-7.953-26.807-18.844c-0.582,0.599-36.527,27.688-39.8,27.688
	c0.004-0.006,0.008-0.013,0.012-0.018c2.117-2.763,2.603-7.259,1.102-11.03c-0.005-0.012-0.01-0.023-0.015-0.036
	c-0.146-0.364-0.312-0.722-0.495-1.069c-0.008-0.016-0.017-0.03-0.024-0.046c-0.185-0.346-0.388-0.683-0.609-1.008
	c-0.01-0.014-0.021-0.027-0.029-0.041c-0.224-0.323-0.465-0.636-0.727-0.935c-0.018-0.02-0.036-0.037-0.054-0.056
	c-0.257-0.29-0.531-0.567-0.825-0.829c-0.048-0.042-0.102-0.078-0.149-0.119c-0.273-0.233-0.556-0.46-0.86-0.666
	c-0.364-0.245-0.746-0.476-1.158-0.679c-0.048-0.023-0.097-0.045-0.145-0.067c-0.408-0.195-0.833-0.373-1.286-0.521
	c-0.741-0.242-1.879-0.401-3.271-0.505c-0.001-0.001,0-0.001,0-0.002v-0.001l39.382-41.137l16.623-17.364l0.168-0.175
	c0,0,3.318-3.86,11.049,0.412c4.369,2.414,71.378,67.077,71.378,67.077c0.208,0.258,15.873,18.125,8.498,58.808
	c-0.122,0.084-1.431,13.6-4.108,27.107c12.795-1.521,30.54-2.156,30.54-2.156L544.299,489.886z M341.494,345.48
	c-0.813-1.125-0.51-2.677,0.684-3.468l6.063-7.344c-1.204-2.578-1.885-5.448-1.885-8.478c0-3.365,0.822-6.534,2.282-9.317
	c3.337-6.392,10.01-10.746,17.702-10.746c3.171,0,6.179,0.74,8.845,2.063c1.143,0.566,2.222,1.242,3.227,2.011
	c1.319,1.009,2.508,2.182,3.541,3.482c0.323,0.433,0.622,0.869,0.9,1.31c0,0.001,0,0.001,0,0.001
	c-0.818,1.377-11.656,10.256-21.509,18.178c0,0,0,0.001-0.001,0.001c-2.766,2.223-5.446,4.365-7.812,6.249
	c-4.884,3.89-8.402,6.663-8.402,6.663C343.936,346.876,342.308,346.604,341.494,345.48z"></path>
</svg>