<svg width="900" height="600" viewBox="0 0 900 600" fill="none" xmlns="http://www.w3.org/2000/svg"><path fill="transparent" d="M0 0h900v600H0z"/><path d="M324.861 98.716c100.017-5.827 204.879 24.525 189.466 68.523-15.415 43.998 82.408-15.627 121.444.236 27.793 11.293 16.684 45.673 30.128 59.527 30.828 31.762 62.358-8.235 101.594 15.764S726.399 490.749 685.41 492l-467.513-2.852-33.55-3.027s-92.803-50.951-26.417-97.952c44.888-31.78 12.59-54.858 7.708-69.407-5.606-16.705-18.683-45.88 38.302-67.29 56.986-21.41 42.273-67.997 40.871-77.642-1.4-9.65-19.964-69.286 80.05-75.114z" fill="url(#a)"/><path d="M554.719 201.039c4.238 6.648 15.31 14.395 23.163 14.289 26.752-.49 35.559-18.713 38.446-25.348-.543-.132-1.457-.238-2.106-.318-4.926-.715-9.959-5.588-11.429-11.084-1.894-7.152-4.224-21.137-3.946-30.023l-33.837 18.726c.053 2.569.225 5.377.463 8.211.172 1.722.344 3.417.543 5.059.186 1.576.397 3.072.596 4.45.623 4.635-1.443 9.23-5.35 11.786l-6.543 4.252z" fill="#F8AE9D"/><path d="M551.807 128.199c1.827 4.794 1.059 10.238-.795 15.018-1.311 3.378-4.225.398-7.853.464-5.615.093-9.999-5.748-13.389-21.229-2.159-11.363-2.702-17.124-2.265-18.223 1.549-3.934 6.661-6.04 10.873-6.41" fill="#133835"/><path d="M543.264 94.15c-8.847 10.661-12.065 40.658-4.596 61.556 5.311 14.859 11.482 24.448 18.687 24.143 10.939-.464 32.142-9.456 39.042-16.965 12.435-13.522 8.82-40.035 6.251-56.722-2.331-15.164-9.43-34.857-28.487-31.109-12.529 2.45-22.964 9.522-30.897 19.097z" fill="#F8AE9D"/><path d="M593.316 105.926c-1.962 2.521-5.422 3.077-8.272 3.575-3.83.67-5.726 2.066-7.714 5.812-1.259 2.392-2.519 5.013-4.772 6.309-1.831 1.058-1.762-1.644-2.057-3.738a4.073 4.073 0 0 0-.112-.542c-.445-1.671-2.224-1.384-2.749.264-.477 1.481-1.497 2.734-2.796 3.432-.213.114-.438.214-.663.171-.305-.042-.544-.327-.743-.584-.417-.538-.831-1.221-1.26-1.945-1.406-2.375-4.062-1.521-5.632.749-.981 1.41-2.148 2.863-3.751 3.19-.517.114-1.167.029-1.405-.47-.305-.612.172-1.225.092-1.851-.066-.584-.318-.841-.596-1.339-1.094-1.938-3.589-2.007-5.127-.399a57 57 0 0 1-3.343 3.219c-.491.427-1.206.855-1.697.427-.265-.228-.331-.612-.384-.983-.279-1.808-.544-3.617-.822-5.426-.159-1.011-.703-2.336-1.63-2.08-.451.129-.716.599-.968 1.026-.305.541-5.753 6.708-5.859 6.238-.848-3.503-2.585-6.694-3.433-10.198-5.487-22.547 18.862-40.678 37.459-40.778 4.136-.029 7.913.038 11.93.993 4.281 1.025 8.801 2.653 12.685 4.946 5.448 3.205 9.57 9.03 8.51 15.981" fill="#133835"/><path d="M584.558 98.19c-2.702 3.059-3.417 7.363-3.669 11.429-.371 6.132.133 12.502 2.967 17.945.808 1.549 1.404 9.217 2.648 8.793.398-.132.332-6.078 1.378-9.283 1.615-4.967 9.058-6.86 12.409-3.722 5.35 4.993 2.212 11.059.437 14.833-1.06 2.278-2.741 4.834-3.033 7.244-.357 3.086-.463 14.33 1.55 16.952 1.682 2.198 3.469-8.423 4.992-10.515 11.271-15.588 22.077-55.279 2.835-63.887-2.927-1.311-11.959-1.987-14.701-.318m-79.064 326.041c-1.113.186-2.238.345-3.404.385-6.198.198-12.184-1.166-18.236-2.199-5.324-.914-6.767-1.417-6.662-7.84.928-50.868 8.41-101.604 21.865-150.671 2.053-7.496 4.291-15.045 8.225-21.746 6.714-11.429 22.13-21.295 33.956-26.831 1.669-.782 8.582 3.615 10.264 2.86 1.47-.662 2.768-1.695 4.251-2.344 4.344-1.894 7.257 2.066 10.886 3.722 1.881.847 3.973 1.39 6.039 1.298 1.682-.067 3.205-1.086 4.741-.292 6.913 3.576 24.077-22.964 24.077-22.964l7.456 7.747 21.759 22.792 54.378 74.919s9.866 61.397 16.647 101.644c1.178 6.939 5.84 21.944 6.767 27.202-.198-1.139-46.418-1.444-48.908-1.444h-94.201c-5.284 0-19.494 2.238-23.202-1.642-4.569-4.768-9.854-26.646-10.132-32.778-.914-20.62.503-41.081.782-61.82-.12 8.436-2.543 16.064-3.576 24.328-1.338 10.635-3.245 21.256-4.966 31.837-1.378 8.503-2.702 17.031-3.762 25.587-.476 3.854.133 6.145-3.125 7.655-2.741 1.258-8.714.052-11.919.595z" fill="#133835"/><path d="M536.256 396.088c2.517-1.033 18.051-4.886 25.057-6.343 3.668-.755 20.302-5.072 24.156-5.072 3.854 0 9.098 5.509 9.098 5.509l-1.39 18.951c-3.708-.37-8.675 1.55-11.337 1.921-2.662.37-11.707.423-17.269-2.371-.318-.159-.609-.331-.901-.503-2.238 1.986-5.045 3.92-8.158 4.079 0 0-2.436-.252-2.198-1.232.106-.477 1.722-2.94 3.337-5.35-2.384 2.423-6.277 6.357-10.767 6.582 0 0-2.436-.252-2.198-1.232.132-.583 2.463-4.066 4.344-6.834-.027.027-.066.04-.08.067-1.973 1.735-6.661 7.721-12.21 7.999 0 0-2.437-.252-2.199-1.232.08-.357 1.007-1.827 2.133-3.536a32.106 32.106 0 0 1-5.258 3.285c-5.999 2.966-9.416.715-9.416 0-.013-.729 12.74-13.655 15.256-14.688z" fill="#F8AE9D"/><path d="M590.275 374.078s-9.667 5.483-8.806 17.137c.86 11.654 4.357 25.163 18.951 23.746 14.594-1.404-10.145-40.883-10.145-40.883z" fill="#133835"/><path d="M598.065 413.808c34.989 12.145 81.805.543 111.484-19.626 18.594-12.608 30.46-28.62 28.46-44.26-5.178-40.631-37.108-133.759-64.734-147.347-18.779-9.244-41.558-13.071-54.259-14.608-5.959-.728-9.681-.9-9.681-.9l4.609 13.005 23.07 65.052c.861 38.605 28.487 61.529 22.991 70.521-5.496 8.966-48.895 18.647-71.687 33.996-6.304 4.265-14.303 35.109 9.747 44.167z" fill="#133835"/><path d="M637.014 265.124c-.026 7.324.994 14.66 2.901 21.759 1.92 7.099 4.728 13.945 7.985 20.541 1.629 3.297 3.364 6.529 5.152 9.72 1.762 3.205 3.576 6.384 5.059 9.642.729 1.629 1.364 3.31 1.616 4.966.066.808.132 1.642-.093 2.344-.053.384-.278.675-.41 1.02-.252.304-.424.635-.742.927-2.371 2.37-5.761 3.973-8.979 5.522-13.217 6.026-27.255 10.489-40.631 16.502-6.688 3.006-13.31 6.251-19.468 10.303l-1.139.768c-.384.265-.742.609-1.112.914a10.84 10.84 0 0 0-1.762 2.225c-.98 1.602-1.642 3.351-2.158 5.125-.981 3.563-1.391 7.231-1.418 10.9.239-3.642.848-7.284 1.921-10.741 1.139-3.43 2.9-6.767 6.198-8.37 6.184-3.84 12.819-6.9 19.547-9.72 6.741-2.782 13.561-5.417 20.408-7.973 6.847-2.596 13.734-5.072 20.461-8.145 3.311-1.642 6.715-3.191 9.536-6.039.357-.344.649-.821.953-1.231.225-.504.53-.98.61-1.51.317-1.06.211-2.106.119-3.099-.318-1.96-1.033-3.735-1.801-5.43-1.576-3.39-3.417-6.556-5.205-9.747-1.788-3.192-3.589-6.357-5.297-9.575-6.821-12.82-11.562-26.924-12.251-41.598z" fill="#fff"/><path d="M546.337 206.058c3.337 3.311 18.196 13.892 32.367 13.892a40.8 40.8 0 0 0 7.482-.702c11.893-2.171 21.905-10.104 27.759-19.189a40.152 40.152 0 0 0 2.82-5.232c1.06-2.277 1.815-4.608 2.252-6.86-5.96-.728-11.654-2.225-12.581-3.284-1.007 6.94-9.576 19.468-22.554 21.825a27.76 27.76 0 0 1-4.635.464h-.027c-6.092.106-10.767-1.841-13.958-3.801-.027 0-6.212-4.874-6.238-4.9l-12.687 7.787z" fill="#133835"/><path d="M537.011 357.349c.037-.648-.046-1.289-.023-1.938.026-.701.104-1.387.157-2.087l.385-4.011c.246-2.731.493-5.463.7-8.197.411-5.416.69-10.852.836-16.282.28-10.861.123-21.747-.607-32.585-.2-3.036-.455-6.061-.735-9.088a569.303 569.303 0 0 0-.481-4.656c-.166-1.522-.413-3.034-.432-4.574-.013-.956 1.423-1.021 1.639-.133.634 2.635.727 5.466 1 8.161.258 2.707.491 5.413.696 8.13.395 5.474.657 10.954.786 16.439.235 10.917-.154 21.838-1.085 32.729-.266 3.062-.57 6.109-.94 9.152a178.615 178.615 0 0 1-.62 4.648c-.104.684-.196 1.368-.326 2.037-.164.787-.457 1.513-.621 2.3-.089.181-.351.113-.329-.045z" fill="#fff"/><path d="M540.06 145.985c-.093 0-.344-.145-.132-.145.105 0 .343.145.132.145z" fill="#CC6144"/><path d="M689.042 494H220.958c-7.049 0-13.356-2.159-17.857-5.555-4.499-3.396-7.101-7.937-7.101-12.788V254.343c0-4.851 2.602-9.392 7.101-12.788 4.501-3.396 10.808-5.555 17.857-5.555h468.084c7.049 0 13.356 2.159 17.856 5.555 4.5 3.396 7.102 7.937 7.102 12.788v221.314c0 4.851-2.602 9.392-7.102 12.788-4.5 3.396-10.807 5.555-17.856 5.555z" fill="#fff" stroke="#E1E4E5" stroke-width="4"/><path fill-rule="evenodd" clip-rule="evenodd" d="M239 320.027v91.895c0 4.988 3.994 9.027 8.926 9.027h54.094l23.613-33.657c1.126-1.606 3.941-1.606 5.066 0l8.267 11.786.065.091.055-.081 17.731-25.743c1.226-1.782 4.298-1.782 5.524 0l23.481 34.098v-87.416c0-4.988-4.004-9.027-8.926-9.027h-128.97c-4.932 0-8.926 4.039-8.926 9.027z" fill="#009688"/><path d="M280.405 373.588c-8.613 0-15.595-6.982-15.595-15.595s6.982-15.595 15.595-15.595S296 349.38 296 357.993s-6.982 15.595-15.595 15.595z" fill="#fff"/><path d="M714.479 268.794H196v-7.811C196 247.188 207.188 236 220.983 236h468.513c13.795 0 24.983 11.188 24.983 24.983v7.811z" fill="#fff" stroke="#E1E4E5" stroke-width="4"/><path d="M221.033 259.375a5.795 5.795 0 1 0 0-11.59 5.795 5.795 0 0 0 0 11.59zm24.145 0a5.796 5.796 0 1 0-.001-11.591 5.796 5.796 0 0 0 .001 11.591zm23.179 0a5.795 5.795 0 1 0-.002-11.59 5.795 5.795 0 0 0 .002 11.59z" fill="#E1E4E5"/><rect x="409" y="311" width="263" height="19" rx="9.5" fill="#E1E4E5"/><rect x="409" y="355" width="263" height="19" rx="9.5" fill="#E1E4E5"/><rect x="409" y="399" width="263" height="19" rx="9.5" fill="#E1E4E5"/><rect x="409" y="443" width="263" height="19" rx="9.5" fill="#E1E4E5"/><rect x="558" y="400" width="168" height="41" rx="20.5" fill="#fff" stroke="#E1E4E5" stroke-width="4" stroke-linecap="round" stroke-linejoin="round"/><rect x="558" y="441" width="168" height="41" rx="20.5" fill="#fff" stroke="#E1E4E5" stroke-width="4" stroke-linecap="round" stroke-linejoin="round"/><rect x="558" y="482" width="168" height="41" rx="20.5" fill="#fff" stroke="#E1E4E5" stroke-width="4" stroke-linecap="round" stroke-linejoin="round"/><circle cx="646.5" cy="344.5" r="76.5" fill="#009688"/><path fill-rule="evenodd" clip-rule="evenodd" d="M669.347 341.437c0 14.31-11.6 25.91-25.91 25.91s-25.91-11.6-25.91-25.91 11.6-25.91 25.91-25.91 25.91 11.6 25.91 25.91z" fill="#009688" stroke="#fff" stroke-width="7" stroke-linecap="round" stroke-linejoin="round"/><path fill-rule="evenodd" clip-rule="evenodd" d="m675 373-11.071-11.07L675 373z" fill="#009688"/><path d="m675 373-11.071-11.07" stroke="#fff" stroke-width="7" stroke-linecap="round" stroke-linejoin="round"/><path fill-rule="evenodd" clip-rule="evenodd" d="M170.274 188.851h2.918c.705 0 1.273.574 1.273 1.273v2.918c0 .706-.574 1.274-1.273 1.274h-2.918c-.7 0-1.274-.574-1.274-1.274v-2.918a1.27 1.27 0 0 1 1.274-1.273zm10.117 0h2.917c.7 0 1.274.574 1.274 1.273v2.918c0 .706-.574 1.274-1.274 1.274h-2.917c-.7 0-1.274-.574-1.274-1.274v-2.918c0-.699.574-1.273 1.274-1.273zm10.122 0h2.918c.7 0 1.274.574 1.274 1.273v2.918c0 .706-.574 1.274-1.274 1.274h-2.918a1.278 1.278 0 0 1-1.273-1.274v-2.918a1.27 1.27 0 0 1 1.273-1.273zm10.117 0h2.918c.7 0 1.274.574 1.274 1.273v2.918c0 .706-.574 1.274-1.274 1.274h-2.918a1.28 1.28 0 0 1-1.279-1.274v-2.918a1.287 1.287 0 0 1 1.279-1.273zm10.117 0h2.918a1.28 1.28 0 0 1 1.279 1.273v2.918c0 .706-.574 1.274-1.279 1.274h-2.918c-.7 0-1.274-.574-1.274-1.274v-2.918c0-.699.574-1.273 1.274-1.273zm-29.985 11.031h2.917c.7 0 1.274.574 1.274 1.274v2.924c0 .699-.574 1.273-1.274 1.273h-2.918a1.274 1.274 0 0 1-1.273-1.273v-2.918a1.272 1.272 0 0 1 1.274-1.28zm10.116 0h2.918c.7 0 1.274.574 1.274 1.274v2.924c0 .699-.574 1.273-1.274 1.273h-2.918a1.278 1.278 0 0 1-1.273-1.273v-2.918a1.272 1.272 0 0 1 1.273-1.28zm10.117 0h2.918a1.28 1.28 0 0 1 1.279 1.274v2.924a1.28 1.28 0 0 1-1.279 1.273h-2.918c-.7 0-1.274-.574-1.274-1.273v-2.918c0-.706.574-1.28 1.274-1.28zM190.513 177h2.918c.7 0 1.274.574 1.274 1.274v2.917c0 .706-.574 1.274-1.274 1.274h-2.918a1.278 1.278 0 0 1-1.273-1.274v-2.917a1.27 1.27 0 0 1 1.273-1.274zm10.117 0h2.918c.7 0 1.274.574 1.274 1.274v2.917c0 .706-.574 1.274-1.274 1.274h-2.918a1.28 1.28 0 0 1-1.279-1.274v-2.917c.006-.7.58-1.274 1.279-1.274zm503.643 9.851h2.918c.706 0 1.274.574 1.274 1.273v2.918c0 .706-.574 1.274-1.274 1.274h-2.918a1.278 1.278 0 0 1-1.273-1.274v-2.918a1.27 1.27 0 0 1 1.273-1.273zm10.117 0h2.918c.7 0 1.274.574 1.274 1.273v2.918c0 .706-.574 1.274-1.274 1.274h-2.918a1.278 1.278 0 0 1-1.273-1.274v-2.918c0-.699.574-1.273 1.273-1.273zm10.123 0h2.918c.699 0 1.273.574 1.273 1.273v2.918c0 .706-.574 1.274-1.273 1.274h-2.918c-.7 0-1.274-.574-1.274-1.274v-2.918a1.27 1.27 0 0 1 1.274-1.273zm10.117 0h2.917c.7 0 1.274.574 1.274 1.273v2.918c0 .706-.574 1.274-1.274 1.274h-2.917a1.28 1.28 0 0 1-1.28-1.274v-2.918a1.288 1.288 0 0 1 1.28-1.273zm10.116 0h2.918c.706 0 1.28.574 1.28 1.273v2.918c0 .706-.574 1.274-1.28 1.274h-2.918a1.278 1.278 0 0 1-1.273-1.274v-2.918c0-.699.574-1.273 1.273-1.273zm-29.985 11.031h2.918c.699 0 1.273.574 1.273 1.274v2.924c0 .699-.574 1.273-1.273 1.273h-2.918a1.275 1.275 0 0 1-1.274-1.273v-2.918a1.272 1.272 0 0 1 1.274-1.28zm10.117 0h2.918c.699 0 1.273.574 1.273 1.274v2.924c0 .699-.574 1.273-1.273 1.273h-2.918c-.7 0-1.274-.574-1.274-1.273v-2.918a1.272 1.272 0 0 1 1.274-1.28zm10.117 0h2.917c.706 0 1.28.574 1.28 1.274v2.924a1.28 1.28 0 0 1-1.28 1.273h-2.917c-.7 0-1.274-.574-1.274-1.273v-2.918c0-.706.574-1.28 1.274-1.28zM724.513 175h2.918c.699 0 1.273.574 1.273 1.274v2.917c0 .706-.574 1.274-1.273 1.274h-2.918c-.7 0-1.274-.574-1.274-1.274v-2.917a1.27 1.27 0 0 1 1.274-1.274zm10.117 0h2.917c.7 0 1.274.574 1.274 1.274v2.917c0 .706-.574 1.274-1.274 1.274h-2.917a1.28 1.28 0 0 1-1.28-1.274v-2.917c.006-.7.58-1.274 1.28-1.274z" fill="#E1E4E5"/><path d="M145.686 365.576c6.173-5.398 7.935-16.239 7.935-16.239s-11.963-.819-18.135 4.58c-6.173 5.398-8.897 12.386-6.079 15.607 2.819 3.221 10.104 1.455 16.279-3.948z" fill="#E1E4E5"/><circle cx="354.098" cy="456.098" r="18.098" fill="url(#b)"/><path fill-rule="evenodd" clip-rule="evenodd" d="M291 185.56v-24.051a4.504 4.504 0 0 1 4.5-4.509h27c2.486 0 4.5 2.018 4.5 4.509v24.051a4.51 4.51 0 0 1-2.315 3.941l-13.5 7.515a4.487 4.487 0 0 1-4.372 0l-13.5-7.515A4.515 4.515 0 0 1 291 185.56z" fill="#E1E4E5"/><path d="M301.517 176.887h14.966m-14.966-7.011h14.966m-14.966 13.821h14.966" stroke="#fff" stroke-width="2.529" stroke-linecap="round" stroke-linejoin="round"/><path clip-rule="evenodd" d="M140.686 255.371 130 244.686 140.686 234l10.685 10.686-10.685 10.685z" stroke="#E1E4E5" stroke-width="5.673" stroke-linecap="round" stroke-linejoin="round"/><defs><linearGradient id="a" x1="469.731" y1="712.899" x2="462.298" y2="-330.693" gradientUnits="userSpaceOnUse"><stop stop-color="#fff"/><stop offset="1" stop-color="#EEE"/></linearGradient><linearGradient id="b" x1="354.87" y1="494.491" x2="353.754" y2="398.624" gradientUnits="userSpaceOnUse"><stop stop-color="#fff"/><stop offset="1" stop-color="#EEE"/></linearGradient></defs></svg>