<svg width="900" height="600" viewBox="0 0 900 600" fill="none" xmlns="http://www.w3.org/2000/svg"><path fill="transparent" d="M0 0h900v600H0z"/><path d="M637.431 351.054c2.933 54.032-102.704 163.899-232.909 123.234-60.557-18.915-55.428-50.309-101.475-91.685-27.447-24.66-66.883-43.308-77.851-79.153-9.475-30.94-3.664-64.196 12.763-85.827 36.944-48.646 111.527-81.958 185.015-5.311 73.488 76.647 206.879-.611 214.457 138.742z" fill="url(#a)"/><path d="M595.43 217.722c-9.832 17.548-31.366 19.959-65.864 16.624-25.946-2.512-49.606-4.456-75.553-18.603-18.161-9.895-32.537-23.282-43.03-36.285-11.37-14.085-27.24-30.161-19.46-46.132 10.691-21.939 72.52-40.416 132.559-10.2 65.952 33.203 80.966 77.446 71.348 94.596z" fill="url(#b)"/><path d="M660.559 260.119c-20.62 4.885-42.428-12.602-42.428-12.602s11.638-25.398 32.264-30.267c20.62-4.885 42.421 12.587 42.421 12.587s-11.637 25.397-32.257 30.282z" fill="url(#c)"/><path d="M704.776 413.014c5.875-4.023 6.456-13.4 6.456-13.4s-8.947-2.846-14.82 1.183c-5.876 4.024-6.458 13.395-6.458 13.395s8.946 2.846 14.822-1.178z" fill="url(#d)"/><path d="M173.99 321.46c9.411 9.579 27.009 7.559 27.009 7.559s2.329-17.549-7.091-27.122c-9.411-9.578-27-7.565-27-7.565s-2.329 17.55 7.082 27.128z" fill="url(#e)"/><circle cx="697.5" cy="355.5" r="11.5" transform="rotate(180 697.5 355.5)" fill="#009688"/><circle cx="311.5" cy="243.5" r="17.5" transform="rotate(180 311.5 243.5)" fill="#009688"/><circle r="14.783" transform="matrix(-1 0 0 1 199.464 218.455)" fill="#009688"/><circle r="15" transform="matrix(-1 0 0 1 538 167)" fill="#009688"/><circle r="7.5" transform="matrix(-1 0 0 1 667.5 288.5)" fill="#E1E4E5"/><circle r="7.991" transform="matrix(-1 0 0 1 141.991 435.009)" fill="#fff"/><circle r="6.41" transform="matrix(-1 0 0 1 238.409 254.41)" fill="#E1E4E5"/><circle r="9.783" transform="matrix(-1 0 0 1 623.43 171.079)" fill="#E1E4E5"/><circle r="6.399" transform="scale(1 -1) rotate(-75 -116.926 -296.082)" fill="#fff"/><circle r="8.513" transform="matrix(-1 0 0 1 331.513 178.513)" fill="#E1E4E5"/><ellipse rx="6.548" ry="5.239" transform="matrix(-1 0 0 1 614.276 348.867)" fill="#fff"/><ellipse rx="10.658" ry="8.414" transform="scale(-1 1) rotate(26.006 -1303.6 -1332.741)" fill="#fff"/><circle r="12.393" transform="scale(1 -1) rotate(-75 167.644 -368.479)" fill="#E1E4E5"/><path d="M733.699 293h.172c1.014 14.373 11.703 14.594 11.703 14.594s-11.787.23-11.787 16.838c0-16.608-11.787-16.838-11.787-16.838s10.685-.221 11.699-14.594zM360.437 131h.123c.732 10.517 8.44 10.679 8.44 10.679s-8.5.168-8.5 12.321c0-12.153-8.5-12.321-8.5-12.321s7.705-.162 8.437-10.679z" fill="#E1E4E5"/><path d="M550.209 281.104h-198.15v67.156h198.15v-67.156z" fill="#fff" stroke="#E1E4E5" stroke-width="4"/><path d="M429.163 348.26h-81.25v-69.33L388.845 204l40.318 74.844v69.416z" fill="#fff" stroke="#E1E4E5" stroke-width="4"/><path d="M457.58 293.459h-18.798v37.497h18.798v-37.497z" fill="#fff"/><path d="M456.568 329.275v-34.136h-15.864v34.136h15.864z" fill="#fff" stroke="#E1E4E5" stroke-width="4"/><path d="M475.337 293.459H456.54v37.497h18.797v-37.497z" fill="#fff"/><path d="M473.417 329.275v-34.136h-15.863v34.136h15.863z" fill="#fff" stroke="#E1E4E5" stroke-width="4"/><path d="M390.865 293.459h-18.797v37.497h18.797v-37.497z" fill="#fff"/><path d="M389.853 329.275V295.14h-15.864v34.135h15.864z" fill="#fff" stroke="#E1E4E5" stroke-width="4"/><path d="M408.623 293.459h-18.798v37.497h18.798v-37.497z" fill="#fff"/><path d="M406.703 329.275V295.14h-15.864v34.135h15.864z" fill="#fff" stroke="#E1E4E5" stroke-width="4"/><path d="M390.695 273.511h-12.624v-12.535c0-6.984 5.652-12.645 12.624-12.645v25.18z" fill="#fff"/><path d="M379.361 272.383v-12.252c0-5.894 4.771-10.672 10.654-10.672v22.924h-10.654z" fill="#fff" stroke="#E1E4E5" stroke-width="4"/><path d="M402.619 273.511h-12.623v-25.18c6.971 0 12.623 5.661 12.623 12.645v12.535z" fill="#fff"/><path d="M390.677 272.383v-22.924c5.883 0 10.654 4.778 10.654 10.672v12.252h-10.654z" fill="#fff" stroke="#E1E4E5" stroke-width="4"/><path d="M524.189 293.459h-18.798v37.497h18.798v-37.497z" fill="#fff"/><path d="M523.177 329.275v-34.136h-15.864v34.136h15.864z" fill="#fff" stroke="#E1E4E5" stroke-width="4"/><path d="M541.948 293.459H523.15v37.497h18.798v-37.497z" fill="#fff"/><path d="M540.026 329.275v-34.136h-15.863v34.136h15.863zm16.371-47.704H432.925L388.539 204h123.472l44.386 77.571zm-6.188 66.689H347.913v18.24h202.296v-18.24zm79.591 29.847H431.65v67.155H629.8v-67.155z" fill="#fff" stroke="#E1E4E5" stroke-width="4"/><path d="M508.755 445.262h-81.25v-69.33l40.932-74.93 40.318 74.845v69.415z" fill="#fff" stroke="#E1E4E5" stroke-width="4"/><path d="M537.17 390.461h-18.797v37.497h18.797v-37.497z" fill="#fff"/><path d="M536.158 426.277v-34.135h-15.864v34.135h15.864z" fill="#fff" stroke="#E1E4E5" stroke-width="4"/><path d="M554.928 390.461h-18.797v37.497h18.797v-37.497z" fill="#fff"/><path d="M553.008 426.278v-34.136h-15.864v34.136h15.864z" fill="#fff" stroke="#E1E4E5" stroke-width="4"/><path d="M470.457 390.461h-18.798v37.497h18.798v-37.497z" fill="#fff"/><path d="M469.443 426.278v-34.136H453.58v34.136h15.863z" fill="#fff" stroke="#E1E4E5" stroke-width="4"/><path d="M488.214 390.461h-18.797v37.497h18.797v-37.497z" fill="#fff"/><path d="M486.293 426.278v-34.136H470.43v34.136h15.863z" fill="#fff" stroke="#E1E4E5" stroke-width="4"/><path d="M470.286 370.514h-12.624v-12.536c0-6.984 5.652-12.645 12.624-12.645v25.181z" fill="#fff"/><path d="M458.953 369.385v-12.252c0-5.893 4.77-10.672 10.654-10.672v22.924h-10.654z" fill="#fff" stroke="#E1E4E5" stroke-width="4"/><path d="M482.211 370.514h-12.624v-25.181c6.972 0 12.624 5.661 12.624 12.645v12.536z" fill="#fff"/><path d="M470.268 369.385v-22.924c5.884 0 10.654 4.779 10.654 10.672v12.252h-10.654z" fill="#fff" stroke="#E1E4E5" stroke-width="4"/><path d="M603.78 390.461h-18.798v37.497h18.798v-37.497z" fill="#fff"/><path d="M602.768 426.277v-34.136h-15.863v34.136h15.863z" fill="#fff" stroke="#E1E4E5" stroke-width="4"/><path d="M621.54 390.461h-18.797v37.497h18.797v-37.497z" fill="#fff"/><path d="M619.618 426.277v-34.136h-15.864v34.136h15.864zm16.37-47.703H512.516l-44.386-77.572h123.472l44.386 77.572zm-6.187 66.689H427.505v18.239h202.296v-18.239zm-189.03-82.909H242.62v67.156h198.151v-67.156z" fill="#fff" stroke="#E1E4E5" stroke-width="4"/><path d="M319.725 429.51h-81.25v-69.33l40.931-74.93 40.319 74.844v69.416z" fill="#fff" stroke="#E1E4E5" stroke-width="4"/><path d="M348.141 374.709h-18.797v37.497h18.797v-37.497z" fill="#fff"/><path d="M347.129 410.525v-34.136h-15.864v34.136h15.864z" fill="#fff" stroke="#E1E4E5" stroke-width="4"/><path d="M365.899 374.709h-18.798v37.497h18.798v-37.497z" fill="#fff"/><path d="M363.978 410.525v-34.136h-15.863v34.136h15.863z" fill="#fff" stroke="#E1E4E5" stroke-width="4"/><path d="M281.426 374.709h-18.797v37.497h18.797v-37.497z" fill="#fff"/><path d="M280.414 410.525V376.39h-15.863v34.135h15.863z" fill="#fff" stroke="#E1E4E5" stroke-width="4"/><path d="M299.185 374.709h-18.797v37.497h18.797v-37.497z" fill="#fff"/><path d="M297.264 410.525V376.39H281.4v34.135h15.864z" fill="#fff" stroke="#E1E4E5" stroke-width="4"/><path d="M281.256 354.761h-12.623v-12.535c0-6.984 5.652-12.646 12.623-12.646v25.181z" fill="#fff"/><path d="M269.924 353.633v-12.252c0-5.894 4.77-10.672 10.654-10.672v22.924h-10.654z" fill="#fff" stroke="#E1E4E5" stroke-width="4"/><path d="M293.182 354.761h-12.624V329.58c6.972 0 12.624 5.662 12.624 12.646v12.535z" fill="#fff"/><path d="M281.239 353.633v-22.924c5.884 0 10.654 4.778 10.654 10.672v12.252h-10.654z" fill="#fff" stroke="#E1E4E5" stroke-width="4"/><path d="M414.75 374.709h-18.797v37.497h18.797v-37.497z" fill="#fff"/><path d="M413.738 410.525v-34.136h-15.864v34.136h15.864z" fill="#fff" stroke="#E1E4E5" stroke-width="4"/><path d="M432.509 374.709h-18.798v37.497h18.798v-37.497z" fill="#fff"/><path d="M430.588 410.525v-34.136h-15.864v34.136h15.864zm16.371-47.704H323.486L279.1 285.25h123.472l44.387 77.571zm-6.189 66.689H238.474v18.24H440.77v-18.24z" fill="#fff" stroke="#E1E4E5" stroke-width="4"/><path fill-rule="evenodd" clip-rule="evenodd" d="M132 484.386s72.534-71.54 174.45-72.545c102.378-1.009 183.828 70.096 191.331 73.769L132 484.386z" fill="#fff" stroke="#E1E4E5" stroke-width="4"/><path fill-rule="evenodd" clip-rule="evenodd" d="M254.62 484.386s72.533-71.54 174.449-72.545c102.379-1.009 183.829 70.096 191.332 73.769l-365.781-1.224z" fill="#fff" stroke="#E1E4E5" stroke-width="4"/><path fill-rule="evenodd" clip-rule="evenodd" d="M403.219 484.386s72.533-71.54 174.449-72.545C680.046 410.832 761.497 481.937 769 485.61l-365.781-1.224zM185.532 378.99h.037c1.022 0 1.851.829 1.851 1.851v83.433h-3.739v-83.433c0-1.022.829-1.851 1.851-1.851z" fill="#fff" stroke="#E1E4E5" stroke-width="4"/><path fill-rule="evenodd" clip-rule="evenodd" d="M152.783 418.053c0 18.176 14.735 32.912 32.911 32.912 18.177 0 32.911-14.736 32.911-32.912s-14.734-54.024-32.911-54.024c-18.176 0-32.911 35.848-32.911 54.024z" fill="#fff"/><path d="M152.783 418.053c0 18.176 14.735 32.912 32.911 32.912 18.177 0 32.911-14.736 32.911-32.912s-14.734-54.024-32.911-54.024c-18.176 0-32.911 35.848-32.911 54.024" stroke="#E1E4E5" stroke-width="4"/><path fill-rule="evenodd" clip-rule="evenodd" d="M347.527 368.976h.032c.89 0 1.612.721 1.612 1.611v72.677h-3.256v-72.677c0-.89.722-1.611 1.612-1.611z" fill="#fff" stroke="#E1E4E5" stroke-width="4"/><path fill-rule="evenodd" clip-rule="evenodd" d="M319 403.002c0 15.833 12.835 28.669 28.668 28.669 15.833 0 28.668-12.836 28.668-28.669s-12.835-47.059-28.668-47.059c-15.833 0-28.668 31.226-28.668 47.059z" fill="#fff"/><path d="M319 403.002c0 15.833 12.835 28.669 28.668 28.669 15.833 0 28.668-12.836 28.668-28.669s-12.835-47.059-28.668-47.059c-15.833 0-28.668 31.226-28.668 47.059" stroke="#E1E4E5" stroke-width="4"/><path fill-rule="evenodd" clip-rule="evenodd" d="M453.633 388.343h.038a1.85 1.85 0 0 1 1.85 1.85v83.434h-3.738v-83.434a1.85 1.85 0 0 1 1.85-1.85z" fill="#fff" stroke="#E1E4E5" stroke-width="4"/><path fill-rule="evenodd" clip-rule="evenodd" d="M420.884 427.405c0 18.177 14.735 32.912 32.911 32.912 18.177 0 32.911-14.735 32.911-32.912 0-18.176-14.734-54.023-32.911-54.023-18.176 0-32.911 35.847-32.911 54.023z" fill="#fff"/><path d="M420.884 427.405c0 18.177 14.735 32.912 32.911 32.912 18.177 0 32.911-14.735 32.911-32.912 0-18.176-14.734-54.023-32.911-54.023-18.176 0-32.911 35.847-32.911 54.023" stroke="#E1E4E5" stroke-width="4"/><path fill-rule="evenodd" clip-rule="evenodd" d="M568.792 382.951h.028c.748 0 1.354.606 1.354 1.354v61.068h-2.736v-61.068c0-.748.607-1.354 1.354-1.354z" fill="#fff" stroke="#E1E4E5" stroke-width="4"/><path fill-rule="evenodd" clip-rule="evenodd" d="M544.822 411.542c0 13.304 10.785 24.089 24.089 24.089 13.304 0 24.089-10.785 24.089-24.089C593 398.238 582.215 372 568.911 372c-13.304 0-24.089 26.238-24.089 39.542z" fill="#fff"/><path d="M544.822 411.542c0 13.304 10.785 24.089 24.089 24.089 13.304 0 24.089-10.785 24.089-24.089C593 398.238 582.215 372 568.911 372c-13.304 0-24.089 26.238-24.089 39.542" stroke="#E1E4E5" stroke-width="4"/><path fill-rule="evenodd" clip-rule="evenodd" d="M645.96 368.25h.03c.81 0 1.467.656 1.467 1.467v66.138h-2.963v-66.138c0-.811.656-1.467 1.466-1.467z" fill="#fff" stroke="#E1E4E5" stroke-width="4"/><path fill-rule="evenodd" clip-rule="evenodd" d="M620 399.215c0 14.408 11.68 26.089 26.089 26.089 14.409 0 26.089-11.681 26.089-26.089s-11.68-42.825-26.089-42.825c-14.409 0-26.089 28.417-26.089 42.825z" fill="#fff"/><path d="M620 399.215c0 14.408 11.68 26.089 26.089 26.089 14.409 0 26.089-11.681 26.089-26.089s-11.68-42.825-26.089-42.825c-14.409 0-26.089 28.417-26.089 42.825" stroke="#E1E4E5" stroke-width="4"/><defs><linearGradient id="a" x1="511.173" y1="674.931" x2="313.573" y2="-216.571" gradientUnits="userSpaceOnUse"><stop stop-color="#fff"/><stop offset="1" stop-color="#EEE"/></linearGradient><linearGradient id="b" x1="529.193" y1="331.447" x2="441.556" y2="-62.357" gradientUnits="userSpaceOnUse"><stop stop-color="#fff"/><stop offset="1" stop-color="#EEE"/></linearGradient><linearGradient id="c" x1="582.911" y1="272.264" x2="763.415" y2="186.988" gradientUnits="userSpaceOnUse"><stop stop-color="#fff"/><stop offset="1" stop-color="#EEE"/></linearGradient><linearGradient id="d" x1="725.347" y1="396.449" x2="663.34" y2="422.064" gradientUnits="userSpaceOnUse"><stop stop-color="#fff"/><stop offset="1" stop-color="#EEE"/></linearGradient><linearGradient id="e" x1="211.538" y1="354.178" x2="143.502" y2="247.525" gradientUnits="userSpaceOnUse"><stop stop-color="#fff"/><stop offset="1" stop-color="#EEE"/></linearGradient></defs></svg>