<svg width="900" height="600" viewBox="0 0 900 600" fill="none" xmlns="http://www.w3.org/2000/svg"><path fill="transparent" d="M0 0h900v600H0z"/><path fill-rule="evenodd" clip-rule="evenodd" d="M529.284 128.643c-16.303-6.824-33.774-11.258-51.956-12.843-78.572-6.832-147.482 36.891-177.895 102.337l79.03 66.636 21.565-37.377a9.368 9.368 0 0 1 6.348-4.519l92.914-17.849 29.994-96.385zm17.061 8.239-30.83 99.073a9.37 9.37 0 0 1-7.179 6.417l-94.218 18.099-25.02 43.364a9.37 9.37 0 0 1-14.155 2.481l-82.822-69.834c-7.592 22.644-10.775 47.335-8.538 73.063 7.371 84.786 76.722 154.137 161.507 161.508 111.437 9.689 203.435-82.29 193.746-193.746-5.224-60.073-41.577-112.403-92.491-140.425zm-76.249 173.823a9.37 9.37 0 0 1 10.006-6.798l107.337 11.307a9.37 9.37 0 0 1 6.814 14.515l-74.258 111.387a9.371 9.371 0 0 1-14.411 1.438l-52.676-52.512a9.367 9.367 0 0 1-2.409-9.155l19.597-70.182zm15.919 12.667-15.993 57.272 40.711 40.584 59.334-89.002-84.052-8.854z" fill="url(#a)"/><path fill-rule="evenodd" clip-rule="evenodd" d="m471.958 441.957-92.231-.026c-29.114 0-52.719-23.618-52.719-52.745v-13.14c0-29.127 23.605-52.732 52.732-52.732h92.231l51.031-34.873c17.503-11.954 41.239.58 41.239 21.773v144.87c0 21.193-23.749 33.727-41.239 21.76l-51.044-34.887z" fill="#fff" stroke="#E1E4E5" stroke-width="4"/><path fill-rule="evenodd" clip-rule="evenodd" d="M471.976 323.341v118.616-118.616z" fill="#fff"/><path d="M471.976 323.341v118.616m-105.419.001 20.151 50.847c3.598 9.094 12.323 15.051 22.01 15.051 16.752 0 28.218-17.054 22.037-32.777l-13.035-33.121" stroke="#E1E4E5" stroke-width="4"/><path d="M752.559 285.658c-27.237 6.452-56.045-16.647-56.045-16.647s15.373-33.548 42.62-39.981c27.237-6.452 56.036 16.627 56.036 16.627s-15.373 33.549-42.611 40.001z" fill="url(#b)"/><path d="M656.414 463.848c7.761-5.315 8.528-17.7 8.528-17.7s-11.818-3.76-19.576 1.562c-7.761 5.315-8.531 17.693-8.531 17.693s11.818 3.76 19.579-1.555z" fill="url(#c)"/><path d="M109.825 366.687c12.432 12.653 35.678 9.985 35.678 9.985s3.076-23.182-9.367-35.827c-12.431-12.653-35.666-9.993-35.666-9.993s-3.076 23.182 9.355 35.835z" fill="url(#d)"/><circle cx="698.321" cy="379.949" r="15.191" transform="rotate(180 698.321 379.949)" fill="#009688"/><circle cx="438.094" cy="290.124" r="7.265" transform="rotate(180 438.094 290.124)" fill="#009688"/><circle r="19.528" transform="matrix(-1 0 0 1 235.042 209.921)" fill="#009688"/><circle r="18.165" transform="matrix(-1 0 0 1 589.016 162.325)" fill="#009688"/><circle r="9.907" transform="matrix(-1 0 0 1 761.725 323.148)" fill="#E1E4E5"/><circle r="10.556" transform="matrix(-1 0 0 1 67.556 516.679)" fill="#fff"/><circle r="8.467" transform="matrix(-1 0 0 1 195.918 277.461)" fill="#E1E4E5"/><circle r="12.923" transform="matrix(-1 0 0 1 703.511 168.041)" fill="#E1E4E5"/><circle r="8.453" transform="scale(1 -1) rotate(-75 -176.7 -283.937)" fill="#fff"/><circle r="11.245" transform="matrix(-1 0 0 1 284.88 148.8)" fill="#E1E4E5"/><ellipse rx="8.65" ry="6.92" transform="matrix(-1 0 0 1 691.419 402.89)" fill="#fff"/><ellipse rx="14.079" ry="11.115" transform="scale(-1 1) rotate(26.006 -1536.52 -1529.617)" fill="#fff"/><circle r="16.37" transform="scale(1 -1) rotate(-75 203.276 -378.313)" fill="#E1E4E5"/><path d="M153.031 230.021h.226c1.34 18.986 15.46 19.278 15.46 19.278s-15.57.304-15.57 22.242c0-21.938-15.57-22.242-15.57-22.242s14.114-.292 15.454-19.278zm116.243 212.673h.227c1.34 18.986 15.459 19.278 15.459 19.278s-15.57.304-15.57 22.242c0-21.938-15.57-22.242-15.57-22.242s14.114-.292 15.454-19.278zm70.985-357.977h.163c.967 13.892 11.149 14.106 11.149 14.106s-11.228.223-11.228 16.275c0-16.052-11.228-16.275-11.228-16.275s10.178-.214 11.144-14.106z" fill="#E1E4E5"/><rect x="384.162" y="121.978" width="87.816" height="87.816" rx="43.908" fill="#009688"/><path fill-rule="evenodd" clip-rule="evenodd" d="M448.026 184.305v2.936c0 1.621-1.298 2.937-2.897 2.937H410.36c-1.599 0-2.897-1.316-2.897-2.937v-2.982c0-8.885 10.019-14.657 20.281-14.657 10.263 0 20.282 5.775 20.282 14.657m-13.01-40.45c4.018 4.018 4.018 10.532 0 14.549-4.017 4.018-10.531 4.018-14.549 0-4.017-4.017-4.017-10.531 0-14.549 4.018-4.018 10.532-4.018 14.549 0z" fill="#fff"/><rect x="595.369" y="225.511" width="87.816" height="87.816" rx="43.908" fill="#009688"/><path fill-rule="evenodd" clip-rule="evenodd" d="M659.233 287.838v2.936c0 1.621-1.298 2.936-2.897 2.936h-34.769c-1.599 0-2.897-1.315-2.897-2.936v-2.983c0-8.884 10.019-14.657 20.281-14.657 10.263 0 20.282 5.776 20.282 14.657m-13.009-40.449c4.017 4.017 4.017 10.531 0 14.549-4.018 4.017-10.532 4.017-14.549 0-4.018-4.018-4.018-10.532 0-14.549 4.017-4.018 10.531-4.018 14.549 0z" fill="#fff"/><rect x="220.582" y="282.453" width="87.816" height="87.816" rx="43.908" fill="#009688"/><path fill-rule="evenodd" clip-rule="evenodd" d="M284.445 344.781v2.936c0 1.62-1.298 2.936-2.897 2.936H246.78c-1.6 0-2.898-1.316-2.898-2.936v-2.983c0-8.885 10.019-14.657 20.282-14.657 10.262 0 20.281 5.775 20.281 14.657m-13.009-40.45c4.018 4.018 4.018 10.532 0 14.549-4.018 4.018-10.531 4.018-14.549 0-4.018-4.017-4.018-10.531 0-14.549 4.018-4.017 10.531-4.017 14.549 0z" fill="#fff"/><path fill-rule="evenodd" clip-rule="evenodd" d="m403.057 398.698 11.132 5.802c2.169 1.131 4.7-.698 4.286-3.092l-2.124-12.301 9.007-8.702c1.755-1.697.785-4.649-1.635-5.001l-12.45-1.792-5.566-11.199c-1.081-2.182-4.219-2.182-5.3 0l-5.566 11.199-12.449 1.799c-2.42.345-3.39 3.305-1.636 5.001l9.008 8.703-2.124 12.3c-.415 2.394 2.116 4.223 4.285 3.092l11.132-5.809z" fill="#E1E4E5"/><defs><linearGradient id="a" x1="468.814" y1="671.716" x2="457.817" y2="-272.882" gradientUnits="userSpaceOnUse"><stop stop-color="#fff"/><stop offset="1" stop-color="#EEE"/></linearGradient><linearGradient id="b" x1="649.991" y1="301.701" x2="888.427" y2="189.056" gradientUnits="userSpaceOnUse"><stop stop-color="#fff"/><stop offset="1" stop-color="#EEE"/></linearGradient><linearGradient id="c" x1="683.588" y1="441.967" x2="601.68" y2="475.802" gradientUnits="userSpaceOnUse"><stop stop-color="#fff"/><stop offset="1" stop-color="#EEE"/></linearGradient><linearGradient id="d" x1="159.425" y1="409.906" x2="69.552" y2="269.023" gradientUnits="userSpaceOnUse"><stop stop-color="#fff"/><stop offset="1" stop-color="#EEE"/></linearGradient></defs></svg>