<svg width="900" height="600" viewBox="0 0 900 600" fill="none" xmlns="http://www.w3.org/2000/svg"><path fill="transparent" d="M0 0h900v600H0z"/><path fill-rule="evenodd" clip-rule="evenodd" d="M136 113c0-27.614 22.386-50 50-50h541.758c27.614 0 50 22.386 50 50v320.729c0 27.615-22.386 50-50 50H186c-27.614 0-50-22.385-50-50V113z" fill="#fff" stroke="#E1E4E5" stroke-width="4" stroke-linecap="round" stroke-linejoin="round"/><path fill-rule="evenodd" clip-rule="evenodd" d="M185.065 404c-11.071 0-20.036-8.994-20-20.065l.195-59.704a20.004 20.004 0 0 1 2.397-9.429l89.753-166.404c6.126-11.358 21.244-14.027 30.889-5.455l86.16 76.576a19.999 19.999 0 0 0 20.681 3.634l83.287-33.142a19.999 19.999 0 0 1 13.759-.378l53.657 18.01a20 20 0 0 0 20.774-5.092l69.209-71.91a19.998 19.998 0 0 1 10.422-5.73l78.764-16.029c12.394-2.523 23.988 6.95 23.988 19.598V384c0 11.046-8.954 20-20 20H185.065z" fill="#fff" stroke="#E1E4E5" stroke-width="4" stroke-linecap="round" stroke-linejoin="round"/><path fill-rule="evenodd" clip-rule="evenodd" d="M185.065 481c-11.071 0-20.036-8.994-20-20.065l.195-59.704a20.004 20.004 0 0 1 2.397-9.429l89.753-166.404c6.126-11.358 21.244-14.027 30.889-5.455l86.16 76.576a19.999 19.999 0 0 0 20.681 3.634l83.287-33.142a19.999 19.999 0 0 1 13.759-.378l53.657 18.01a20 20 0 0 0 20.774-5.092l69.209-71.91a19.998 19.998 0 0 1 10.422-5.73l78.764-16.029c12.394-2.523 23.988 6.95 23.988 19.598V461c0 11.046-8.954 20-20 20H185.065z" fill="#fff" stroke="#E1E4E5" stroke-width="4" stroke-linecap="round" stroke-linejoin="round"/><path fill-rule="evenodd" clip-rule="evenodd" d="M185.074 481c-11.074 0-20.041-9-20-20.074l.179-48.187a19.994 19.994 0 0 1 3.593-11.363l87.703-125.814c6.845-9.82 20.726-11.468 29.68-3.523l88.238 78.287a20.001 20.001 0 0 0 20.657 3.626l83.313-33.095a20.003 20.003 0 0 1 13.738-.377l53.684 17.988a19.998 19.998 0 0 0 20.753-5.082l69.214-71.792a20.004 20.004 0 0 1 10.417-5.718l78.775-16.004c12.393-2.518 23.982 6.954 23.982 19.6V461c0 11.046-8.954 20-20 20H185.074z" fill="#fff" stroke="#E1E4E5" stroke-width="4" stroke-linecap="round" stroke-linejoin="round"/><path fill-rule="evenodd" clip-rule="evenodd" d="M185 484c-11.046 0-20-8.954-20-20v-37.23a20 20 0 0 1 7.395-15.527l83.722-67.968c7.651-6.211 18.685-5.923 26.002.677l92.272 83.239a19.999 19.999 0 0 0 20.886 3.694l83.062-33.549a20.005 20.005 0 0 1 13.94-.387l53.423 18.201a20 20 0 0 0 20.963-5.17l69.161-72.939a19.997 19.997 0 0 1 10.467-5.826l78.661-16.248c12.411-2.564 24.046 6.914 24.046 19.586V464c0 11.046-8.954 20-20 20H185z" fill="#fff" stroke="#E1E4E5" stroke-width="4" stroke-linecap="round" stroke-linejoin="round"/><path fill-rule="evenodd" clip-rule="evenodd" d="M136 63h131.758v420.729H136V63z" fill="#fff" stroke="#E1E4E5" stroke-width="4" stroke-linecap="round" stroke-linejoin="round"/><path d="M192.727 244.309h27.925m-27.708 13.854h46.18m-66.869 22.989-9.448 9.439-4.59-4.577m34.51-9.379h27.925m-27.708 13.854h46.18m-.001 32.325h-46.396m46.397-13.854h-46.18" stroke="#E1E4E5" stroke-width="5.5" stroke-linecap="round" stroke-linejoin="round"/><path clip-rule="evenodd" d="M165.236 327.432a9.236 9.236 0 1 0 0-18.472 9.237 9.237 0 0 0 0 18.472z" stroke="#E1E4E5" stroke-width="5.5" stroke-linecap="round" stroke-linejoin="round"/><path fill-rule="evenodd" clip-rule="evenodd" d="M152 130a9 9 0 0 1 9-9h74a9 9 0 0 1 9 9 9 9 0 0 1-9 9h-74a9 9 0 0 1-9-9zm0 33a9 9 0 0 1 9-9h40a9 9 0 0 1 9 9 9 9 0 0 1-9 9h-40a9 9 0 0 1-9-9zm0 30a9 9 0 0 1 9-9h40a9 9 0 0 1 9 9 9 9 0 0 1-9 9h-40a9 9 0 0 1-9-9zM606 63h171.758v420.729H606V63z" fill="#fff" stroke="#E1E4E5" stroke-width="4" stroke-linecap="round" stroke-linejoin="round"/><path fill-rule="evenodd" clip-rule="evenodd" d="M136 63h641.758v34.73H136V63z" fill="#fff" stroke="#E1E4E5" stroke-width="4" stroke-linecap="round" stroke-linejoin="round"/><circle cx="162" cy="80" r="4.5" fill="#E1E4E5" stroke="#E1E4E5" stroke-linecap="round" stroke-linejoin="round"/><circle cx="178" cy="80" r="4.5" fill="#E1E4E5" stroke="#E1E4E5" stroke-linecap="round" stroke-linejoin="round"/><circle cx="195" cy="80" r="4.5" fill="#E1E4E5" stroke="#E1E4E5" stroke-linecap="round" stroke-linejoin="round"/><path d="M380.526 171.749c-.612 2.448.2 4.992 1.539 7.13.946 1.51 2.27-.158 4.199-.425 2.984-.418 4.874-3.577 5.519-11.273.299-5.622.159-8.426-.155-8.917-1.114-1.757-3.981-2.344-6.242-2.175" fill="#133835"/><path fill-rule="evenodd" clip-rule="evenodd" d="M385.944 506.257s-.182 11.557 6.952 15.663 18.186 11.734 18.186 11.734l-42.044 1.417 1.199-28.918 15.707.104z" fill="#F8AE9D"/><path fill-rule="evenodd" clip-rule="evenodd" d="m367.571 518.993-.684 18.75h9.766l.669-2.416s3.677-.15 5.801.893c2.246 1.104 2.548 1.639 2.548 1.639l30.975.065s1.528-6.06-7.914-10.443c-9.442-4.385-16.317-10.607-17.623-11.244-1.316-.641-3.969-1.004-5.838.504-1.869 1.506-3.348 5.469-7.583 5.593-5.451.16-8.582-6.512-10.117-3.341zm-12.073-201.364s11.475 97.369 11.832 104.137c.357 6.769-3.686 18.45-3.607 31.111.078 12.661 1.476 57.283 1.476 57.283l25.314.413s10.638-80.636 10.753-92.728c.114-12.091 1.09-99.052 1.09-99.052l-46.858-1.164z" fill="#133835"/><path fill-rule="evenodd" clip-rule="evenodd" d="m324.539 504.226-4.933 29.958 18.186-.091.575-30.337-13.828.47z" fill="#F8AE9D"/><path fill-rule="evenodd" clip-rule="evenodd" d="M321.839 517.345a3 3 0 0 0-2.361 2.833l-.172 5.221c-2.597 2.887-3.811 11.279-3.919 12.064a.592.592 0 0 0-.006.126c.286 4.095 27.145 4.026 29.359.144a.66.66 0 0 0 .058-.442c-.245-1.505-1.724-9.898-4.611-12.162l-.019-5.165a2.999 2.999 0 0 0-2.22-2.886l-3.454-.929c-2.659-3.888-6.282-3.75-9.386.486l-3.269.71zm11.628-198.799s-8.104 66.432-7.994 79.153c.11 12.723 2.494 18.31-.899 27.436-3.393 9.126-6.287 81.97-6.287 81.97l25.092 2.09s16.03-77.947 17.773-88.754c1.743-10.807 23.287-102.812 23.287-102.812l-50.972.917z" fill="#133835"/><path fill-rule="evenodd" clip-rule="evenodd" d="M458.586 199.102s-2.095-11.675-1.342-14.039c.644-2.044 6.725-4.99 6.725-4.99s10.578-16.709 12.892-15.008c1.884 1.38-5.508 13.698-5.508 13.698s6.74 7.072 6.646 10.233c-.094 3.161-11.001 13.057-11.001 13.057l-8.412-2.951zm-108.713 2.743s6.966-1.635 7.208-13.05c.241-11.414.072-15.31.072-15.31l16.515-.277s.167 12.721.17 17.322c.006 10.018 7.445 12.724 7.445 12.724s-.618 10.953-14.522 11.735c-10.856.611-16.888-13.144-16.888-13.144z" fill="#F8AE9D"/><path fill-rule="evenodd" clip-rule="evenodd" d="M355.636 167.715c-6.845-.265-5.729 9.756 1.382 9.742 0 0 7.642 15.366 19.64 15.406 5.779.019 7.666-5.129 9.399-8.743 1.732-3.613 3.004-9.019 3.109-12.329.114-3.529.128-15.123.128-15.123l-33.925-.015.267 11.062z" fill="#F8AE9D"/><path fill-rule="evenodd" clip-rule="evenodd" d="M381.544 202.575s17.791 5.553 22.079 12.188c13.811 12.133 31.085 28.796 31.085 28.796s16.452-41.291 21.831-45.998c3.68-3.221 11.012.762 12.378 4.855 1.755 5.257-9.513 36.095-14.835 50.659l-.001.003c-1.03 2.82-1.838 5.03-2.284 6.325-3.245 9.415-11.141 14.815-20.75 8.831-3.873-2.412-15.399-10.316-25.232-17.481-.154 7.527-.413 15.459-.659 22.993-.598 18.303-1.119 34.252.133 36.324 6.202 10.272-2.044 17.324-29.346 19.915-27.302 2.591-51.524.469-47.129-13.239.917-2.857.905-9.005.448-16.993a323.167 323.167 0 0 1-8.018-.529c-11.394-.898-19.821-5.793-20.996-18.509-.824-8.904 16.14-50.707 22.501-64.452 1.488-3.216 3.789-5.218 6.396-6.217.606-.677 1.29-1.152 2.058-1.405 4.672-1.54 21.425-8.579 21.425-8.579l19.93 13.039 8.986-10.526zm-54.128 73.584a24.13 24.13 0 0 0-.044.116l.055.007-.011-.123z" fill="#009688"/><path fill-rule="evenodd" clip-rule="evenodd" d="M371.637 287.191s6.079-1.222 8.567-3.175c2.487-1.953 10.021-3.333 10.021-3.333l-2.41 5.075s18.465-1.733 18.902.089c.438 1.821-4.903 3.801-4.903 3.801s-2.634 4.92-5.183 7.771c-2.413 2.699-14.398 2.378-18.6.694-3.63-1.455-7.578-.728-7.578-.728l1.184-10.194z" fill="#F8AE9D"/><path d="M357.498 157.126c1 1.309 2.763 1.597 4.216 1.856 1.953.348 2.919 1.073 3.933 3.018.642 1.243 1.284 2.604 2.432 3.277.936.551.908-.842 1.046-1.919a2.057 2.057 0 0 1 .059-.299c.223-.861 1.137-.717 1.402.132.243.77.764 1.421 1.426 1.783.108.059.223.111.338.089.155-.022.277-.17.378-.303.211-.277.42-.628.637-1 .715-1.229 2.078-.798 2.877.378.5.733 1.095 1.487 1.912 1.657.264.059.595.015.716-.244.156-.318-.087-.636-.047-.961.034-.304.162-.437.304-.696.554-.998 1.836-1.035 2.618-.203a29.376 29.376 0 0 0 1.7 1.668c.25.222.615.444.865.222.135-.119.169-.318.196-.511.142-.939.277-1.879.419-2.818.081-.525.358-1.213.831-1.08.23.067.365.311.493.533.156.281 2.933 3.484 2.987 3.24.432-1.82 1.318-3.477 1.75-5.297 2.798-11.71-9.615-21.126-19.096-21.178-2.108-.015-4.034.02-6.081.515-2.183.533-4.487 1.378-6.467 2.569-2.777 1.665-4.878 4.69-4.338 8.3" fill="#133835"/><path d="M365.207 153.341c1.337 1.529 1.691 3.68 1.815 5.712.184 3.065-.065 6.248-1.467 8.969-.4.774-.695 4.607-1.311 4.395-.197-.066-.164-3.038-.682-4.64-.799-2.482-4.482-3.429-6.14-1.86-2.647 2.495-1.094 5.527-.216 7.413.524 1.139 1.356 2.416 1.501 3.621.176 1.542.229 7.162-.767 8.472-.832 1.099-1.717-4.209-2.471-5.255-5.576-7.791-10.924-27.628-1.402-31.931 1.448-.655 5.917-.993 7.274-.159" fill="#133835"/><rect x="528" y="138" width="179.626" height="218.544" rx="20" fill="#fff" stroke="#E1E4E5" stroke-width="4" stroke-linecap="round" stroke-linejoin="round"/><mask id="a" mask-type="alpha" maskUnits="userSpaceOnUse" x="526" y="136" width="184" height="223"><path fill="#fff" stroke="#fff" stroke-width="4" stroke-linecap="round" stroke-linejoin="round" d="M528 138h179.626v218.544H528z"/></mask><g mask="url(#a)"><rect x="560" y="297" width="116" height="13" rx="6.5" fill="#fff" stroke="#E1E4E5" stroke-width="4" stroke-linecap="round" stroke-linejoin="round"/><rect x="560" y="270" width="116" height="15" rx="7.5" fill="#fff" stroke="#E1E4E5" stroke-width="4" stroke-linecap="round" stroke-linejoin="round"/><rect x="560" y="322" width="116" height="15" rx="7.5" fill="#fff" stroke="#E1E4E5" stroke-width="4" stroke-linecap="round" stroke-linejoin="round"/><rect x="545" y="153" width="42" height="11" rx="5.5" fill="#fff" stroke="#E1E4E5" stroke-width="4" stroke-linecap="round" stroke-linejoin="round"/><path fill-rule="evenodd" clip-rule="evenodd" d="M617.933 176c20.733 0 37.541 16.808 37.541 37.542 0 20.733-16.808 37.541-37.541 37.541-20.734 0-37.542-16.808-37.542-37.541 0-20.734 16.808-37.542 37.542-37.542zm.254 20.208c-9.714 0-17.588 7.874-17.588 17.588 0 9.714 7.874 17.589 17.588 17.589 9.714 0 17.588-7.875 17.588-17.589 0-9.714-7.874-17.588-17.588-17.588z" fill="#009688"/></g><path fill-rule="evenodd" clip-rule="evenodd" d="M663.273 425.851h2.918c.706 0 1.274.574 1.274 1.273v2.918c0 .706-.574 1.274-1.274 1.274h-2.918a1.278 1.278 0 0 1-1.273-1.274v-2.918a1.27 1.27 0 0 1 1.273-1.273zm10.117 0h2.918c.7 0 1.274.574 1.274 1.273v2.918c0 .706-.574 1.274-1.274 1.274h-2.918a1.278 1.278 0 0 1-1.273-1.274v-2.918c0-.699.574-1.273 1.273-1.273zm10.123 0h2.918c.699 0 1.273.574 1.273 1.273v2.918c0 .706-.574 1.274-1.273 1.274h-2.918c-.7 0-1.274-.574-1.274-1.274v-2.918a1.27 1.27 0 0 1 1.274-1.273zm10.117 0h2.917c.7 0 1.274.574 1.274 1.273v2.918c0 .706-.574 1.274-1.274 1.274h-2.917a1.28 1.28 0 0 1-1.28-1.274v-2.918a1.288 1.288 0 0 1 1.28-1.273zm10.116 0h2.918c.706 0 1.28.574 1.28 1.273v2.918c0 .706-.574 1.274-1.28 1.274h-2.918a1.278 1.278 0 0 1-1.273-1.274v-2.918c0-.699.574-1.273 1.273-1.273zm-29.985 11.031h2.918c.699 0 1.273.574 1.273 1.274v2.924c0 .699-.574 1.273-1.273 1.273h-2.918a1.275 1.275 0 0 1-1.274-1.273v-2.918a1.272 1.272 0 0 1 1.274-1.28zm10.117 0h2.918c.699 0 1.273.574 1.273 1.274v2.924c0 .699-.574 1.273-1.273 1.273h-2.918c-.7 0-1.274-.574-1.274-1.273v-2.918a1.272 1.272 0 0 1 1.274-1.28zm10.117 0h2.917c.706 0 1.28.574 1.28 1.274v2.924a1.28 1.28 0 0 1-1.28 1.273h-2.917c-.7 0-1.274-.574-1.274-1.273v-2.918c0-.706.574-1.28 1.274-1.28zM683.513 414h2.918c.699 0 1.273.574 1.273 1.274v2.917c0 .706-.574 1.274-1.273 1.274h-2.918c-.7 0-1.274-.574-1.274-1.274v-2.917a1.27 1.27 0 0 1 1.274-1.274zm10.117 0h2.917c.7 0 1.274.574 1.274 1.274v2.917c0 .706-.574 1.274-1.274 1.274h-2.917a1.28 1.28 0 0 1-1.28-1.274v-2.917c.006-.7.58-1.274 1.28-1.274z" fill="#E1E4E5"/></svg>