<svg width="900" height="600" viewBox="0 0 900 600" fill="none" xmlns="http://www.w3.org/2000/svg"><path fill="transparent" d="M0 0h900v600H0z"/><path opacity=".76" fill-rule="evenodd" clip-rule="evenodd" d="M696 212.5C696 123.858 624.142 52 535.5 52S375 123.858 375 212.5 446.858 373 535.5 373 696 301.142 696 212.5zm-261 0c0-55.505 44.995-100.5 100.5-100.5S636 156.995 636 212.5 591.005 313 535.5 313 435 268.005 435 212.5z" fill="url(#a)"/><path opacity=".76" fill-rule="evenodd" clip-rule="evenodd" d="M584 334.5c0-25.129-20.371-45.5-45.5-45.5S493 309.371 493 334.5s20.371 45.5 45.5 45.5 45.5-20.371 45.5-45.5zm-61 0c0-8.56 6.94-15.5 15.5-15.5 8.56 0 15.5 6.94 15.5 15.5 0 8.56-6.94 15.5-15.5 15.5-8.56 0-15.5-6.94-15.5-15.5z" fill="url(#b)"/><circle cx="194.5" cy="194.5" r="28.5" fill="url(#c)"/><circle cx="288" cy="112" r="32" fill="url(#d)"/><g filter="url(#e)"><circle cx="665" cy="427" r="32" fill="url(#f)"/></g><path d="M706.859 314.23H357.141c-10.357 0-18.141-6.996-18.141-14.926V115.157c0-7.931 7.784-14.927 18.141-14.927h349.718c10.357 0 18.141 6.996 18.141 14.927v184.147c0 7.93-7.784 14.926-18.141 14.926z" fill="#fff" stroke="#E1E4E5" stroke-width="4"/><path fill-rule="evenodd" clip-rule="evenodd" d="M370.59 162.214v68.594c0 3.724 2.981 6.739 6.662 6.739h40.379l17.625-25.124c.841-1.198 2.942-1.198 3.782 0l6.171 8.798.048.068.042-.06 13.234-19.216c.915-1.33 3.209-1.33 4.124 0l17.527 25.452v-65.251c0-3.723-2.989-6.738-6.663-6.738h-96.269c-3.681 0-6.662 3.015-6.662 6.738z" fill="#009688"/><path d="M401.497 202.195c-6.429 0-11.641-5.212-11.641-11.641s5.212-11.641 11.641-11.641 11.64 5.212 11.64 11.641-5.211 11.641-11.64 11.641z" fill="#fff"/><path d="M725 123.465H339v-5.324c0-10.017 8.124-18.141 18.141-18.141h349.718c10.017 0 18.141 8.124 18.141 18.141v5.324z" fill="#fff" stroke="#E1E4E5" stroke-width="4"/><path d="M357.178 116.941a4.326 4.326 0 1 0 0-8.652 4.326 4.326 0 0 0 0 8.652zm18.023 0a4.325 4.325 0 1 0 0-8.65 4.325 4.325 0 0 0 0 8.65zm17.302 0a4.326 4.326 0 1 0 0-8.652 4.326 4.326 0 0 0 0 8.652z" fill="#E1E4E5"/><rect x="497.485" y="155.476" width="196.314" height="14.182" rx="7.091" fill="#E1E4E5"/><rect x="497.485" y="188.32" width="196.314" height="14.182" rx="7.091" fill="#E1E4E5"/><rect x="497" y="221" width="186" height="14" rx="7" fill="#E1E4E5"/><rect x="497.485" y="254.006" width="196.314" height="14.182" rx="7.091" fill="#E1E4E5"/><path fill-rule="evenodd" clip-rule="evenodd" d="M286.071 415.086a4.48 4.48 0 0 1 5.071 3.874l15.734 124.173a4.4 4.4 0 0 1-8.731 1.112l-15.894-124.152a4.481 4.481 0 0 1 3.82-5.007z" fill="#fff" stroke="#E1E4E5" stroke-width="4" stroke-linecap="round" stroke-linejoin="round"/><path fill-rule="evenodd" clip-rule="evenodd" d="M287.87 415.086a4.482 4.482 0 0 0-5.072 3.874l-15.734 124.173a4.4 4.4 0 0 0 8.732 1.112l15.894-124.152a4.482 4.482 0 0 0-3.82-5.007zm47.5 0a4.482 4.482 0 0 1 5.072 3.874l15.734 124.173a4.4 4.4 0 0 1-8.732 1.112L331.55 420.093a4.482 4.482 0 0 1 3.82-5.007zm-99.147 0a4.481 4.481 0 0 0-5.072 3.874l-15.734 124.173a4.4 4.4 0 0 0 8.731 1.112l15.895-124.152a4.482 4.482 0 0 0-3.82-5.007z" fill="#fff" stroke="#E1E4E5" stroke-width="4" stroke-linecap="round" stroke-linejoin="round"/><path fill-rule="evenodd" clip-rule="evenodd" d="M346.365 435.468c7.714 0 13.968-6.254 13.968-13.968 0-7.715-6.254-13.968-13.968-13.968h-30.443c-22.914 0-42.067-17.434-44.215-40.248l-5.043-53.555c-1.647-17.49-16.33-30.855-33.897-30.855-19.833 0-35.468 16.884-33.947 36.658l5.367 69.771c2.004 26.05 23.726 46.165 49.853 46.165h92.325z" fill="#fff" stroke="#E1E4E5" stroke-width="4" stroke-linecap="round" stroke-linejoin="round"/><path fill-rule="evenodd" clip-rule="evenodd" d="M360.333 421.165a.22.22 0 0 1-.219.218h-91.999c-26.122 0-47.843-20.11-49.852-46.155l-5.356-69.437a34.356 34.356 0 0 1-.038-4.755c.594-9.64 8.55-17.548 18.192-18.105.66-.038 1.326-.057 1.996-.057 17.522 0 32.167 13.327 33.814 30.771l5.042 53.39c2.149 22.756 21.255 40.142 44.112 40.142h30.376c7.694 0 13.932 6.238 13.932 13.932v.056z" fill="#fff"/><path d="m218.263 375.228-1.994.154 1.994-.154zm-5.356-69.437 1.994-.153-1.994.153zm53.964 7.854 1.992-.188-1.992.188zm5.042 53.39 1.991-.188-1.991.188zm-40.852-84.104.115 1.997-.115-1.997zm129.272 138.234 2 .008-2-.008zm-92.218-1.782h91.999v4h-91.999v-4zm-47.858-44.309c1.929 25.004 22.78 44.309 47.858 44.309v4c-27.167 0-49.756-20.914-51.846-48.001l3.988-.308zm-5.356-69.436 5.356 69.436-3.988.308-5.356-69.437 3.988-.307zm-.036-4.479a32.403 32.403 0 0 0 .036 4.479l-3.988.307a36.327 36.327 0 0 1-.04-5.032l3.992.246zm18.192-16.285c-.631 0-1.259.018-1.881.054l-.23-3.994c.698-.04 1.403-.06 2.111-.06v4zm31.823 28.959c-1.55-16.416-15.333-28.959-31.823-28.959v-4c18.553 0 34.061 14.112 35.806 32.583l-3.983.376zm5.042 53.39-5.042-53.39 3.983-.376 5.041 53.39-3.982.376zm46.103 41.954c-23.889 0-43.857-18.171-46.103-41.954l3.982-.376c2.052 21.728 20.296 38.33 42.121 38.33v4zm30.376 0h-30.376v-4h30.376v4zm11.932 11.932c0-6.59-5.342-11.932-11.932-11.932v-4c8.799 0 15.932 7.133 15.932 15.932h-4zm0 .048v-.048h4v.064l-4-.016zm-147.46-120.244c.656-10.653 9.422-19.363 20.073-19.979l.23 3.994c-8.633.498-15.779 7.604-16.311 16.231l-3.992-.246zm149.241 118.47c-.981 0-1.777.793-1.781 1.774l4 .016a2.219 2.219 0 0 1-2.219 2.21v-4z" fill="#E1E4E5"/><path d="M676.245 357.41c.947 0 1.708-.761 1.723-1.694.33-18-14.096-25.795-14.714-26.125a1.734 1.734 0 0 0-2.339.732 1.742 1.742 0 0 0 .717 2.34c.029.014 3.374 1.809 6.603 5.555 4.278 4.952 6.388 10.823 6.259 17.441a1.74 1.74 0 0 0 1.694 1.765c.028-.014.043-.014.057-.014zm5.569-44.685s20.082-37.881-51.963-64.436c-3.717-1.364-7.478 1.909-6.588 5.77 4.55 19.723 19.464 65.829 58.551 58.666z" fill="#009688"/><path d="M701.58 353.979c.086 0 .172 0 .244-.014a1.733 1.733 0 0 0 1.464-1.967c-4.995-34.464-30.675-50.484-33.575-52.206-.818-.488-1.894-.23-2.382.588a1.727 1.727 0 0 0 .588 2.369l.043.014c1.22.718 7.622 4.68 14.512 12.402 9.503 10.68 15.359 23.225 17.398 37.307.129.89.861 1.507 1.708 1.507z" fill="#009688"/><path d="M691.002 353.979h.086a1.741 1.741 0 0 0 1.651-1.808c-.689-14.742 8.67-28.192 8.756-28.336a1.74 1.74 0 0 0-.416-2.411 1.74 1.74 0 0 0-2.412.416c-.416.588-10.134 14.57-9.387 30.488a1.722 1.722 0 0 0 1.722 1.651zm-4.967 2.541h.043a1.722 1.722 0 0 0 1.679-1.78l-1.478-56.082a1.723 1.723 0 0 0-1.78-1.68 1.722 1.722 0 0 0-1.679 1.78l1.478 56.068a1.744 1.744 0 0 0 1.737 1.694z" fill="#009688"/><path d="M698.064 324.797s40.866 12.991 54.115-62.657c.689-3.904-3.215-7.004-6.861-5.44-18.589 7.995-61.293 30.919-47.254 68.097zm-26.47 14.555s-36.732 22.12-67.178-48.388c-1.564-3.632 1.507-7.565 5.412-6.89 19.938 3.474 66.79 15.861 61.766 55.278z" fill="#009688"/><path d="M678.326 318.05c2.842 5.886 11.426 5.24 13.378-1.004 8.713-27.819 23.312-86.786-6.919-93.562-33.904-7.593-22.55 61.293-6.459 94.566z" fill="#009688"/><path d="M685.303 321.826h.043a.945.945 0 0 0 .904-.977l-3.186-78.848a.936.936 0 0 0-.976-.904.945.945 0 0 0-.905.976l3.173 78.848c.014.503.43.905.947.905zm-14.727 17.641a.941.941 0 0 0 .732-.344c.33-.402.273-1.005-.129-1.321l-43.666-35.742c-.402-.33-1.005-.273-1.321.129a.936.936 0 0 0 .129 1.321l43.666 35.742a.935.935 0 0 0 .589.215z" fill="#133835"/><path d="M651.954 350.276c-5.876 0-10.25 5.426-9.002 11.167l.803 3.632 1.68 7.708.789 3.646.276 1.259c3.971 18.163 20.054 31.11 38.646 31.11 18.592 0 34.676-12.947 38.647-31.11l.275-1.259.789-3.646 1.68-7.708.789-3.632c1.254-5.738-3.117-11.167-8.991-11.167h-66.381zm82.49 141.684h-100.58a1.157 1.157 0 0 1-1.163-1.162v-5.828c0-.646.517-1.163 1.163-1.163h100.594c.646 0 1.163.517 1.163 1.163v5.828a1.178 1.178 0 0 1-1.177 1.162z" fill="#fff" stroke="#E1E4E5" stroke-width="4" stroke-linecap="round" stroke-linejoin="round"/><path d="M660.759 410.715c4.797 0 8.22 4.65 6.795 9.23l-39.007 125.741a3.982 3.982 0 0 1-7.706-1.964l24.335-121.15.688-3.424a10.503 10.503 0 0 1 10.296-8.433h4.599zm87.155 133.007a3.981 3.981 0 0 1-7.706 1.964L700.01 416.141c-.834-2.694 1.18-5.426 4-5.426h14.242c1.706 0 3.176 1.2 3.519 2.871l26.143 130.136z" fill="#fff" stroke="#E1E4E5" stroke-width="4" stroke-linecap="round" stroke-linejoin="round"/><path d="M637.879 409.28h93.427c1.555 0 2.809 1.685 2.809 3.773v15.42c0 2.088-1.254 3.774-2.809 3.774h-93.427c-1.554 0-2.808-1.686-2.808-3.774v-15.42c0-2.088 1.254-3.773 2.808-3.773z" fill="#fff" stroke="#E1E4E5" stroke-width="4" stroke-linecap="round" stroke-linejoin="round"/><path fill-rule="evenodd" clip-rule="evenodd" d="M369.928 500.533s-7.78 15.715-1.402 20.667c6.388 4.953 23.262 14.235 23.262 14.235l-44.704-2.809 9.937-34.274 12.907 2.181z" fill="#F8AE9D"/><path fill-rule="evenodd" clip-rule="evenodd" d="M351.511 514.753c1.407.672-.906 6.986 4.044 6.542 4.948-.442 8.055-6.969 11.704-6.545 3.65.423 5.967 6.995 12.915 11.573 6.947 4.579 17.248 10.039 16.558 14.643-.69 4.603-16.9 5.836-25.113 4.312-8.212-1.523-12.045-4.824-17.373-4.561-5.328.263-8.676-.389-10.347-3.81-1.669-3.422 5.989-22.929 7.612-22.154zm-48.926-152.729c13.534.604 88.86 17.265 102.545 20.095 13.686 2.831 25.256 18.147 14.82 35.882-11.721 19.908-41.963 76.448-49.306 89.194-3.634 6.308-21.969 2.771-17.662-7.817 8.028-19.739 11.757-69.324 32.225-87.403 0 0-68.836 11.98-98.57-1.743-21.61-9.975-16.721-49.669 15.948-48.208z" fill="#133835"/><path fill-rule="evenodd" clip-rule="evenodd" d="M396.998 277.544s-.153-8.046 3.699-13.801c3.852-5.755 4.005-11.868 6.921-11.668 2.915.2.028 14.409.028 14.409s3.699-1.413 6.356-3.201c2.658-1.787 10.715-10.599 12.598-9.038 3.193 2.661-1.95 17.669-4.75 20.67-2.81 3.001-16.678 11.388-16.678 11.388l-40.84 41.144-6.106-21.842 38.772-28.061z" fill="#F8AE9D"/><path fill-rule="evenodd" clip-rule="evenodd" d="M315.309 273.911c6.296 14.602 17.823 41.427 22.576 49.43 5.955 10.022 15.346 14.438 26.342 7.002 2.3-1.556 8.907-6.998 8.907-6.998-.977-9.525-4.536-17.487-10.671-23.888l-4.166 3.447s-11.815-30.288-21.319-47.833c-8.232-15.179-31.252-3.358-21.669 18.84zm-27.209-56.68v12.921l-9.488-7.64s-2.917-12.379-5.289-21.573c-1.487-5.766-5.111-25.279 9.478-24.365 11.951-21.067 46.757-8.028 47.034 17.71.333 30.956.061 43.009.061 43.009-19.682 1.129-30.76-1.716-41.796-20.062z" fill="#133835"/><path fill-rule="evenodd" clip-rule="evenodd" d="M278.407 241.832s8.827-2.072 9.133-16.535c.306-14.462.091-19.399.091-19.399l19.443-.351s.211 16.119.214 21.949c.009 14.175 10.433 15.337 10.433 15.337s-1.782 11.696-19.399 12.686c-13.755.775-19.915-13.687-19.915-13.687z" fill="#F8AE9D"/><path fill-rule="evenodd" clip-rule="evenodd" d="M283.099 198.676c-8.673-.336-7.259 12.361 1.751 12.344 0 0 5.233 18.036 23.401 18.036 14.755 0 15.715-21.021 15.849-25.215.144-4.471.162-19.161.162-19.161l-41.501-.019.338 14.015z" fill="#F8AE9D"/><path fill-rule="evenodd" clip-rule="evenodd" d="M282.428 198.593c3.594.592 3.158 2.972 4.135 2.764 4.963-1.055 25.052.337 27.639-10.71 3.218 6.901 4.005 8.598 11.092 10.451v-20.224l-44.825-4.3s.695 21.809 1.959 22.019z" fill="#133835"/><path fill-rule="evenodd" clip-rule="evenodd" d="M280.379 240.353c11.077 6.784 23.883 9.271 35.803 1.904 19.454 38.359 24.302 84.126 19.623 134.71-28.367 11.231-52.209 9.022-72.506-3.814l17.08-132.8z" fill="#009688"/><path fill-rule="evenodd" clip-rule="evenodd" d="M418.419 501.164s-.235 18.496 15.006 25.412c15.232 6.915 26.084 6.498 24.703 11.845-1.381 5.345-41.028 5.129-44.73.948-3.156-3.556-10.018-36.675-11.908-34.143l16.929-4.062z" fill="#F8AE9D"/><path fill-rule="evenodd" clip-rule="evenodd" d="M407.35 527.285c2.335-1.68 4.299 8.012 10.644 5.316 6.344-2.694 1.341-11.602 5.334-13.245 3.993-1.644 11.703 7.19 21.943 9.337 10.24 2.146 18.554 4.025 20.917 8.01 2.035 3.426 0 4.521 0 4.521s-9.858 4.923-15.983 6.006c-8.899 1.574-34.618 2.623-37.436-.247-1.73-1.761-6.587-18.856-5.419-19.698zM260.181 356.306s-19.676 41.553 7.975 55.822c26.74 13.799 106.793-2.522 106.793-2.522s-1.43 11.517 0 21.789c3.736 26.827 21.504 71.523 25.264 77.139 5.198 7.766 21.035 1.909 21.333-4.558.298-6.466-11.938-89.058-13.799-104.807-1.851-15.751-7.696-18.039-24.766-22.344-3.922-.989-50.297-12.514-54.546-12.179-36.503 2.887-68.254-8.34-68.254-8.34z" fill="#133835"/><path fill-rule="evenodd" clip-rule="evenodd" d="M280.863 240.384c18.345 60.095 29.347 145.294-27.947 130.472 30.435-56.037-10.94-81.258-1.562-110.219 3.206-9.902 29.27-21.03 29.509-20.253zm34.348 1.452c7.001 17.559 10.366 31.336 13.505 57.109 2.619 21.465 1.308 65.761 1.308 65.761l8.652 1.701s6.184-68.434 4.117-77.246c-3.47-14.786-5.821-23.425-10.403-36.942-2.524-7.419-17.179-10.383-17.179-10.383z" fill="#133835"/><path fill-rule="evenodd" clip-rule="evenodd" d="M284.715 308.607s11.296-11.31 15.208-12.623c3.912-1.312 25.34-2.889 25.195.077-.164 3.177-13.953 2.995-15.228 4.558-1.275 1.562-3.048 13.729-7.868 14.929-4.81 1.2-14.781 4.751-14.781 4.751l-44.385 22.933 4.729-22.932 37.13-11.693z" fill="#F8AE9D"/><path fill-rule="evenodd" clip-rule="evenodd" d="M250.719 260.72c-13.463 19.001-24.958 47.944-29.37 59.228-4.412 11.285.039 28.305 19.44 24.963 2.31-.397 6.068-1.859 6.068-1.859 7.133-9.779 8.385-18.175 5.722-25.65l-2.509 1.059s19.283-34.18 23.992-43.343c7.865-15.302-11.484-31.14-23.343-14.398z" fill="#133835"/><path d="M306.483 546.164a7.1 7.1 0 0 0 6.929-5.554l38.267-171.65c.989-4.439-2.388-8.651-6.935-8.651a7.104 7.104 0 0 0-6.935 5.559L299.553 537.52c-.988 4.435 2.386 8.644 6.93 8.644zm296.899 0a7.098 7.098 0 0 1-6.929-5.554l-38.269-171.658c-.989-4.434 2.385-8.643 6.929-8.643a7.1 7.1 0 0 1 6.929 5.554l38.269 171.657c.988 4.435-2.386 8.644-6.929 8.644z" fill="#fff" stroke="#E1E4E5" stroke-width="4" stroke-linecap="round" stroke-linejoin="round"/><path fill-rule="evenodd" clip-rule="evenodd" d="M604.4 360.626v-6.456c0-3.705-1.893-6.708-4.218-6.726H307.045c-2.338 0-4.218 3.021-4.218 6.726v6.456c0 3.723 1.892 6.726 4.218 6.726h9.313a7.051 7.051 0 0 1 7.052 7.051c0 1.18.959 2.13 2.144 2.13h263.858c1.173 0 2.132-.95 2.132-2.13a7.051 7.051 0 0 1 7.052-7.051h1.586c2.338 0 4.218-3.003 4.218-6.726z" fill="#fff"/><path d="m600.182 347.444.015-2h-.015v2zm2.218 6.726v6.456h4v-6.456h-4zm-2.234-4.726c.238.002.751.165 1.303 1.044.535.852.931 2.148.931 3.682h4c0-2.171-.551-4.229-1.543-5.81-.976-1.553-2.572-2.9-4.66-2.916l-.031 4zm-293.121 0h293.137v-4H307.045v4zm-2.218 4.726c0-1.537.394-2.839.928-3.692.55-.88 1.057-1.034 1.29-1.034v-4c-2.106 0-3.707 1.356-4.682 2.913-.99 1.583-1.536 3.645-1.536 5.813h4zm0 6.456v-6.456h-4v6.456h4zm2.218 4.726c-.229 0-.737-.153-1.288-1.031-.534-.85-.93-2.15-.93-3.695h-4c0 2.178.549 4.24 1.543 5.823.977 1.554 2.578 2.903 4.675 2.903v-4zm9.313 0h-9.313v4h9.313v-4zm9.196 9.181c-.095 0-.144-.069-.144-.13h-4c0 2.299 1.87 4.13 4.144 4.13v-4zm263.858 0H325.554v4h263.858v-4zm.132-.13c0 .068-.056.13-.132.13v4a4.132 4.132 0 0 0 4.132-4.13h-4zm10.638-9.051h-1.586v4h1.586v-4zm2.218-4.726c0 1.547-.395 2.848-.927 3.697-.548.873-1.054 1.029-1.291 1.029v4c2.101 0 3.703-1.346 4.68-2.905.993-1.583 1.538-3.646 1.538-5.821h-4zm-8.856 13.777a5.051 5.051 0 0 1 5.052-5.051v-4a9.052 9.052 0 0 0-9.052 9.051h4zm-277.186-5.051a5.051 5.051 0 0 1 5.052 5.051h4a9.052 9.052 0 0 0-9.052-9.051v4z" fill="#E1E4E5"/><circle r="5.631" transform="matrix(-1 0 0 1 167.631 257.631)" fill="#009688"/><circle r="5.003" transform="scale(1 -1) rotate(-75 -163.177 -296.162)" fill="#E1E4E5"/><circle r="6.655" transform="matrix(-1 0 0 1 242.655 150.655)" fill="#E1E4E5"/><circle r="5.724" transform="matrix(0 1 1 0 759.011 232.011)" fill="#E1E4E5"/><path d="M210.429 119h.138c.818 11.432 9.433 11.608 9.433 11.608s-9.5.183-9.5 13.392c0-13.209-9.5-13.392-9.5-13.392s8.612-.176 9.429-11.608z" fill="#E1E4E5"/><defs><linearGradient id="a" x1="542.344" y1="552.971" x2="532.446" y2="-297.193" gradientUnits="userSpaceOnUse"><stop stop-color="#fff"/><stop offset="1" stop-color="#EEE"/></linearGradient><linearGradient id="b" x1="540.44" y1="431.02" x2="537.634" y2="190.007" gradientUnits="userSpaceOnUse"><stop stop-color="#fff"/><stop offset="1" stop-color="#EEE"/></linearGradient><linearGradient id="c" x1="195.715" y1="254.957" x2="193.958" y2="103.994" gradientUnits="userSpaceOnUse"><stop stop-color="#fff"/><stop offset="1" stop-color="#EEE"/></linearGradient><linearGradient id="d" x1="289.365" y1="179.882" x2="287.391" y2="10.379" gradientUnits="userSpaceOnUse"><stop stop-color="#fff"/><stop offset="1" stop-color="#EEE"/></linearGradient><linearGradient id="f" x1="666.365" y1="494.882" x2="664.391" y2="325.379" gradientUnits="userSpaceOnUse"><stop stop-color="#fff"/><stop offset="1" stop-color="#EEE"/></linearGradient><filter id="e" x="624.845" y="386.845" width="80.31" height="80.31" filterUnits="userSpaceOnUse" color-interpolation-filters="sRGB"><feFlood flood-opacity="0" result="BackgroundImageFix"/><feBlend in="SourceGraphic" in2="BackgroundImageFix" result="shape"/><feGaussianBlur stdDeviation="4.077" result="effect1_foregroundBlur"/></filter></defs></svg>