<svg width="900" height="600" viewBox="0 0 900 600" fill="none" xmlns="http://www.w3.org/2000/svg"><path fill="transparent" d="M0 0h900v600H0z"/><path d="M248 147c0-20.987 17.013-38 38-38h411c20.987 0 38 17.013 38 38v288c0 20.987-17.013 38-38 38H286c-20.987 0-38-17.013-38-38V147z" fill="#fff" stroke="#E1E4E5" stroke-width="4"/><rect x="555.6" y="219" width="149.142" height="12.408" rx="6.204" fill="#fff" stroke="#E1E4E5" stroke-width="4"/><path d="M528.6 266.224a6.204 6.204 0 0 1 6.204-6.204h164.08a6.204 6.204 0 0 1 0 12.408h-164.08a6.204 6.204 0 0 1-6.204-6.204zM292 139c0 4.516-3.453 8-7.5 8-4.047 0-7.5-3.484-7.5-8s3.453-8 7.5-8c4.047 0 7.5 3.484 7.5 8z" fill="#fff" stroke="#E1E4E5" stroke-width="4"/><circle cx="313" cy="139" r="8" fill="#fff" stroke="#E1E4E5" stroke-width="4"/><circle cx="341" cy="139" r="8" fill="#fff" stroke="#E1E4E5" stroke-width="4"/><path d="M589.833 317c0-12.488 10.124-22.612 22.612-22.612h71.101c12.489 0 22.613 10.124 22.613 22.612 0 12.488-10.124 22.612-22.612 22.612h-71.102c-12.488 0-22.612-10.124-22.612-22.612zm0 54.694a6.204 6.204 0 0 1 6.204-6.204h103.918a6.204 6.204 0 1 1 0 12.408H596.037a6.204 6.204 0 0 1-6.204-6.204zm0 41.02a6.204 6.204 0 0 1 6.204-6.204h103.918a6.204 6.204 0 1 1 0 12.408H596.037a6.204 6.204 0 0 1-6.204-6.204z" fill="#fff" stroke="#E1E4E5" stroke-width="4"/><circle cx="418.284" cy="301.345" r="118.326" fill="#fff" stroke="#E1E4E5" stroke-width="4"/><path d="M299.959 301.344c0-14.59 2.64-28.559 7.466-41.459l146.011 58.138 39.138 75.424c-20.309 16.403-46.15 26.223-74.29 26.223-65.349 0-118.325-52.976-118.325-118.326z" fill="#fff" stroke="#E1E4E5" stroke-width="4"/><path d="m420.843 301.506 78.63-86.24c22.868 21.577 37.137 52.16 37.137 86.079 0 39.29-19.148 74.108-48.63 95.632l-67.137-95.471z" fill="#fff" stroke="#E1E4E5" stroke-width="4"/><circle cx="418.5" cy="301.5" r="86.5" fill="#fff" stroke="#E1E4E5" stroke-width="4"/><path opacity=".76" fill-rule="evenodd" clip-rule="evenodd" d="M224.5 267 339 446H110l114.5-179z" fill="url(#a)"/><path opacity=".76" fill-rule="evenodd" clip-rule="evenodd" d="m478.988 143.852 38.809 60.37h-77.618l38.809-60.37z" fill="url(#b)"/><path d="M148.639 317.78c0 5.958-5.07 10.781-11.332 10.781-6.262 0-11.307-4.847-11.307-10.781 0-5.957 5.069-10.78 11.332-10.78 6.262 0 11.307 4.823 11.307 10.78z" stroke="#E1E4E5" stroke-width="5.225" stroke-miterlimit="10"/><path d="M159.615 229.002c-9.598 8.387-26.109 5.207-26.109 5.207s-.939-16.779 8.668-25.16c9.598-8.387 26.101-5.212 26.101-5.212s.938 16.778-8.66 25.165z" fill="url(#c)"/><circle cx="324.199" cy="174.2" r="5.878" transform="rotate(105 324.199 174.2)" fill="#E1E4E5"/><circle cx="300.199" cy="220.2" r="5.878" transform="rotate(105 300.199 220.2)" fill="#E1E4E5"/><circle cx="436.199" cy="139.2" r="5.878" transform="rotate(105 436.199 139.2)" fill="#E1E4E5"/><circle cx="614.731" cy="158.731" r="3.863" transform="rotate(105 614.731 158.731)" fill="#E1E4E5"/><circle cx="784.199" cy="380.2" r="5.878" transform="rotate(105 784.199 380.2)" fill="#E1E4E5"/><rect x="635" y="461.97" width="22.585" height="2.631" rx="1.316" transform="rotate(-45 635 461.97)" fill="#E1E4E5"/><rect x="643.659" y="462.032" width="8.386" height="2.631" rx="1.316" transform="rotate(-45 643.659 462.032)" fill="#E1E4E5"/><path d="M751.767 361.861c-.135-.195 9.706-7.206 21.99-15.631 12.281-8.441 22.359-15.119 22.494-14.924.135.195-9.71 7.191-21.99 15.631-12.296 8.445-22.359 15.119-22.494 14.924z" fill="#fff"/><path d="M764.63 250h.141c.835 11.338 9.633 11.512 9.633 11.512s-9.702.182-9.702 13.283c0-13.101-9.702-13.283-9.702-13.283s8.795-.174 9.63-11.512z" fill="#E1E4E5"/><path d="m443.084 329.976-34.461 125.98 12.294-14.15c-4.546 2.421-9.819 4.277-15.657 5.596-5.837 1.318-12.186 2.071-18.831 2.421-6.644.35-13.558.296-20.66 0-7.075-.296-14.312-.834-21.656-1.453h-.027c-10.841-.915-20.365 7.102-21.306 17.944-.888 10.33 6.456 19.476 16.517 21.117 7.587 1.211 15.281 2.341 23.19 3.256 7.909.914 16.006 1.587 24.4 1.775 8.393.188 17.082-.134 26.067-1.426 8.959-1.291 18.267-3.631 27.359-7.559 5.811-2.502 9.954-7.29 11.837-12.859l.431-1.318 41.348-123.91c4.654-13.935-2.879-28.973-16.814-33.627-13.935-4.654-28.973 2.879-33.627 16.814-.135.457-.296.968-.404 1.399z" fill="#F8AE9D"/><path d="M519.672 503.035c.457 3.551 2.017 6.268 3.497 6.053 1.453-.189 2.286-3.228 1.829-6.753-.457-3.551-2.017-6.268-3.497-6.052-1.48.188-2.287 3.228-1.829 6.752z" fill="#B55E63"/><mask id="d" fill="#fff"><path fill-rule="evenodd" clip-rule="evenodd" d="M460.57 458.962c0-.12-.06-.231-.158-.299-.23-.16-.702-.495-1.344-.986-3.114-2.298-3.671-7.614-4.589-16.383-.306-2.916-.651-6.214-1.144-9.909-2.072-15.54-3.576-24.484-8.618-46.53-.503-2.199-.87-4.442-1.238-6.685-.405-2.471-.81-4.942-1.396-7.358-.375-1.543-.677-3.094-.569-4.66.164-1.969.273-3.937.327-5.933.055-1.585.082-3.171.082-4.756v-1.449a597.398 597.398 0 0 0-.067-6.902c-.225-16.601-.351-25.909 11.479-34.104 3.058-2.132 6.934-4.155 11.794-6.233 3.931-1.668 8.491-3.363 13.842-5.139a450.132 450.132 0 0 1 6.934-2.215l5.788-1.585 59.794-16.565a5.842 5.842 0 0 1 1.824-.193c1.283.055 3.904.219 7.453.465l1.707.13c.92.069 1.893.142 2.907.225 5.078.41 11.33.984 18.128 1.804a332.779 332.779 0 0 1 6.662.848c6.934.929 12.531 3.28 16.953 6.67 7.836 6.014 12.067 15.364 13.624 26.217.873 6.096.928 12.657.327 19.382-.245 2.651-.573 5.33-1.01 8.01a112.78 112.78 0 0 1-1.392 7.244 392.062 392.062 0 0 0-4.177 21.624l-.492 2.952c-.1.676-.205 1.358-.312 2.043-.125.81-.252 1.625-.37 2.441-3.276 21.815-4.887 43.001-4.56 57.9l.001.02.081 2.659c.383 10.033 1.529 21.269 3.686 33.762.12.63.231 1.26.344 1.894.092.522.185 1.047.284 1.578.082.433.079.858.005 1.259 6.169 6.64 8.982 15.462 3.063 22.256-.353.406-.729.797-1.128 1.172-3.065 2.883-7.516 3.393-11.721 3.555l-115.564 4.45c-10.926.421-21.957-4.053-23.979-14.798-.785-4.175-1.145-9.263-.631-15.341 0-.004.361-.376 1.074-1.029-1.767-.6-3.131-2.206-3.131-4.231-.027-2.816-.054-5.44-.136-7.846a228.334 228.334 0 0 0-.328-7.791 29.428 29.428 0 0 0-.109-1.64z"/></mask><path fill-rule="evenodd" clip-rule="evenodd" d="M460.57 458.962c0-.12-.06-.231-.158-.299-.23-.16-.702-.495-1.344-.986-3.114-2.298-3.671-7.614-4.589-16.383-.306-2.916-.651-6.214-1.144-9.909-2.072-15.54-3.576-24.484-8.618-46.53-.503-2.199-.87-4.442-1.238-6.685-.405-2.471-.81-4.942-1.396-7.358-.375-1.543-.677-3.094-.569-4.66.164-1.969.273-3.937.327-5.933.055-1.585.082-3.171.082-4.756v-1.449a597.398 597.398 0 0 0-.067-6.902c-.225-16.601-.351-25.909 11.479-34.104 3.058-2.132 6.934-4.155 11.794-6.233 3.931-1.668 8.491-3.363 13.842-5.139a450.132 450.132 0 0 1 6.934-2.215l5.788-1.585 59.794-16.565a5.842 5.842 0 0 1 1.824-.193c1.283.055 3.904.219 7.453.465l1.707.13c.92.069 1.893.142 2.907.225 5.078.41 11.33.984 18.128 1.804a332.779 332.779 0 0 1 6.662.848c6.934.929 12.531 3.28 16.953 6.67 7.836 6.014 12.067 15.364 13.624 26.217.873 6.096.928 12.657.327 19.382-.245 2.651-.573 5.33-1.01 8.01a112.78 112.78 0 0 1-1.392 7.244 392.062 392.062 0 0 0-4.177 21.624l-.492 2.952c-.1.676-.205 1.358-.312 2.043-.125.81-.252 1.625-.37 2.441-3.276 21.815-4.887 43.001-4.56 57.9l.001.02.081 2.659c.383 10.033 1.529 21.269 3.686 33.762.12.63.231 1.26.344 1.894.092.522.185 1.047.284 1.578.082.433.079.858.005 1.259 6.169 6.64 8.982 15.462 3.063 22.256-.353.406-.729.797-1.128 1.172-3.065 2.883-7.516 3.393-11.721 3.555l-115.564 4.45c-10.926.421-21.957-4.053-23.979-14.798-.785-4.175-1.145-9.263-.631-15.341 0-.004.361-.376 1.074-1.029-1.767-.6-3.131-2.206-3.131-4.231-.027-2.816-.054-5.44-.136-7.846a228.334 228.334 0 0 0-.328-7.791 29.428 29.428 0 0 0-.109-1.64z" fill="#fff"/><path d="m460.412 458.663-2.28 3.286 2.28-3.286zm.158.299-3.978.418-.022-.208v-.21h4zm-1.502-1.285 2.375-3.219.029.022.028.021-2.432 3.176zm-4.589-16.383 3.978-.417-3.978.417zm-1.144-9.909 3.965-.528-3.965.528zm-8.618-46.53 3.899-.891-3.899.891zm-1.238-6.685-3.947.647 3.947-.647zm-1.396-7.358-3.887.944 3.887-.944zm-.569-4.66-3.991-.275.002-.029.003-.028 3.986.332zm.327-5.933-3.998-.109v-.014l.001-.014 3.997.137zm.082-6.205 4-.011v.011h-4zm-.067-6.902 4-.054-4 .054zm11.479-34.104 2.288 3.281-.01.007-2.278-3.288zm11.794-6.233-1.572-3.678.01-.004 1.562 3.682zm13.842-5.139-1.261-3.797.009-.003 1.252 3.8zm6.934-2.215-1.19-3.819.066-.02.067-.019 1.057 3.858zm5.788-1.585 1.068 3.854-.011.003-1.057-3.857zm59.794-16.565 1.068 3.855-1.068-3.855zm1.824-.193-.17 3.996h-.012l.182-3.996zm7.453.465.277-3.991.018.001.019.002-.314 3.988zm1.707.13.299-3.989-.299 3.989zm2.907.225-.322 3.987h-.005l.327-3.987zm18.128 1.804-.453 3.974-.013-.001-.013-.002.479-3.971zm6.142.779-.527 3.965.527-3.965zm.52.069.526-3.966.005.001-.531 3.965zm16.953 6.67 2.434-3.175.002.002-2.436 3.173zm13.624 26.217 3.959-.568-3.959.568zm.327 19.382 3.984.356-.001.013-3.983-.369zm-1.01 8.01-3.95-.628.001-.008.001-.008 3.948.644zm-1.392 7.244-3.904-.873.003-.012 3.901.885zm-4.177 21.624 3.946.652-.001.005-3.945-.657zm-.492 2.952-3.957-.585.006-.036.006-.036 3.945.657zm-.312 2.043-3.952-.613 3.952.613zm-.37 2.441 3.958.575-.001.009-.002.01-3.955-.594zm-4.56 57.9-3.998.121v-.017l-.001-.016 3.999-.088zm.001.02-3.998.121 3.998-.121zm.081 2.659-3.997.152v-.013l-.001-.014 3.998-.125zm3.686 33.762-3.93.747-.006-.033-.006-.034 3.942-.68zm.344 1.894-3.939.698 3.939-.698zm.284 1.578-3.93.744-.003-.014 3.933-.73zm.005 1.259-2.931 2.722-1.369-1.473.367-1.978 3.933.729zm3.063 22.256 3.016 2.628-3.016-2.628zm-1.128 1.172-2.74-2.914 2.74 2.914zm-11.721 3.555.154 3.997-.154-3.997zm-115.564 4.45-.154-3.997.154 3.997zm-23.979-14.798-3.931.74 3.931-.74zm-.631-15.341h4v.169l-.014.169-3.986-.338zm1.074-1.029 1.288-3.787 6.396 2.175-4.983 4.563-2.701-2.951zm-3.131-4.231 4-.039v.039h-4zm-.136-7.846-3.998.136-.001-.013v-.013l3.999-.11zm-.328-7.791-3.992.249-.002-.029-.001-.03 3.995-.19zm2.013-5.226a4.366 4.366 0 0 1 1.878 3.586h-8c0 1.216.603 2.322 1.562 2.987l4.56-6.573zm-1.192-.875c.586.449 1.007.747 1.192.875l-4.56 6.573a39.141 39.141 0 0 1-1.496-1.096l4.864-6.352zm-3.043-13.624c.47 4.486.815 7.708 1.385 10.112.573 2.416 1.198 3.172 1.601 3.469l-4.75 6.438c-2.71-2-3.921-5.052-4.635-8.061-.717-3.021-1.109-6.841-1.558-11.125l7.957-.833zm-1.157-10.02c.501 3.758.852 7.107 1.157 10.02l-7.957.833c-.305-2.918-.646-6.164-1.13-9.796l7.93-1.057zm-8.684-46.893c5.068 22.156 6.594 31.221 8.684 46.893l-7.93 1.057c-2.054-15.409-3.535-24.232-8.552-46.167l7.798-1.783zm-1.19-6.44c.371 2.264.72 4.382 1.19 6.44l-7.798 1.783c-.536-2.342-.922-4.708-1.286-6.93l7.894-1.293zm-1.456-7.656c.628 2.588 1.056 5.21 1.456 7.656l-7.894 1.293c-.409-2.497-.792-4.818-1.336-7.061l7.774-1.888zm-.466-3.441c-.063.915.106 1.96.466 3.441l-7.774 1.888c-.39-1.605-.826-3.662-.673-5.879l7.981.55zm.336-6.098c-.057 2.07-.17 4.112-.34 6.154l-7.972-.663c.157-1.895.262-3.789.315-5.71l7.997.219zm.083-4.866c0 1.631-.028 3.263-.084 4.894l-7.995-.275c.053-1.54.079-3.08.079-4.619h8zm0-.356v.356h-8v-.356h8zm0-1.093v1.093h-8v-1.093h8zm-.067-6.956c.029 2.169.061 4.486.067 6.945l-8 .021c-.006-2.409-.037-4.684-.066-6.858l7.999-.108zm9.757-30.762c-5.2 3.602-7.512 7.201-8.668 11.624-1.252 4.788-1.204 10.65-1.089 19.138l-7.999.108c-.11-8.114-.238-15.205 1.348-21.27 1.682-6.43 5.221-11.583 11.852-16.176l4.556 6.576zm11.089-5.843c-4.726 2.02-8.331 3.919-11.079 5.836l-4.576-6.562c3.367-2.348 7.516-4.495 12.51-6.63l3.145 7.356zm13.529-5.021c-5.277 1.752-9.732 3.41-13.54 5.025l-3.124-7.364c4.055-1.72 8.719-3.452 14.143-5.254l2.521 7.593zm6.864-2.192a437.136 437.136 0 0 0-6.872 2.195l-2.504-7.599a463.916 463.916 0 0 1 6.996-2.234l2.38 7.638zm5.655-1.547-5.788 1.586-2.114-7.716 5.788-1.585 2.114 7.715zm59.805-16.567-59.794 16.564-2.136-7.709 59.794-16.564 2.136 7.709zm.574-.052a1.855 1.855 0 0 0-.574.052l-2.136-7.709a9.818 9.818 0 0 1 3.074-.335l-.364 7.992zm7.359.459c-3.556-.247-6.125-.407-7.347-.459l.34-7.993c1.345.058 4.018.226 7.56.471l-.553 7.981zm1.683.128c-.59-.044-1.167-.087-1.72-.131l.627-7.975c.536.042 1.099.084 1.692.129l-.599 7.977zm2.88.224c-.998-.082-1.958-.154-2.88-.224l.599-7.977c.919.069 1.906.143 2.935.227l-.654 7.974zm17.976 1.788a458.578 458.578 0 0 0-17.971-1.788l.644-7.974c5.113.413 11.42.992 18.285 1.82l-.958 7.942zm6.094.773c-2.095-.279-4.12-.547-6.068-.77l.906-7.948c2.035.232 4.134.511 6.216.788l-1.054 7.93zm.52.069-.52-.069 1.054-7.93.519.068-1.053 7.931zm15.047 5.88c-3.813-2.923-8.736-5.034-15.052-5.881l1.063-7.929c7.553 1.013 13.823 3.603 18.856 7.46l-4.867 6.35zm12.097 23.609c-1.464-10.212-5.362-18.44-12.099-23.611l4.871-6.346c8.933 6.857 13.499 17.328 15.147 28.822l-7.919 1.135zm.303 18.459c.579-6.484.518-12.729-.303-18.459l7.919-1.135c.926 6.462.974 13.34.352 20.306l-7.968-.712zm-.974 7.722c.42-2.575.737-5.162.975-7.735l7.966.738c-.253 2.73-.591 5.501-1.045 8.284l-7.896-1.287zm-1.345 7.003a109.1 109.1 0 0 0 1.343-6.987l7.901 1.255a116.801 116.801 0 0 1-1.443 7.502l-7.801-1.77zm-4.223 21.857a397.185 397.185 0 0 1 4.22-21.845l7.807 1.746a388.99 388.99 0 0 0-4.134 21.403l-7.893-1.304zm-.49 2.947.491-2.952 7.891 1.314-.491 2.952-7.891-1.314zm-.319 2.087c.106-.688.21-1.355.307-2.015l7.914 1.171c-.102.692-.21 1.387-.316 2.07l-7.905-1.226zm-.377 2.479c.122-.838.251-1.672.377-2.479l7.905 1.226c-.126.814-.25 1.61-.365 2.403l-7.917-1.15zm-4.6 58.563c-.334-15.197 1.305-36.624 4.603-58.583l7.911 1.189c-3.254 21.671-4.837 42.618-4.515 57.218l-7.999.176zm.002.053-.001-.02 7.997-.242v.02l-7.996.242zm.081 2.663-.081-2.663 7.996-.242.081 2.655-7.996.25zm3.742 34.317c-2.184-12.654-3.351-24.067-3.741-34.29l7.994-.304c.375 9.843 1.502 20.901 3.631 33.233l-7.884 1.361zm.347 1.912c-.113-.639-.22-1.244-.335-1.845l7.86-1.495c.125.659.241 1.314.353 1.944l-7.878 1.396zm.29 1.61c-.102-.549-.198-1.091-.29-1.61l7.878-1.396c.092.525.183 1.033.278 1.545l-7.866 1.461zm.005-.2a.593.593 0 0 0-.002.214l7.86-1.489c.175.925.171 1.85.008 2.733l-7.866-1.458zm6.863-1.994c3.436 3.699 6.152 8.222 7.065 13.05.94 4.973-.077 10.15-3.916 14.557l-6.032-5.255c2.08-2.388 2.616-5.019 2.087-7.815-.556-2.941-2.332-6.15-5.065-9.092l5.861-5.445zm3.149 27.607c-.438.502-.905.989-1.404 1.458l-5.48-5.828c.299-.281.583-.576.852-.885l6.032 5.255zm-1.404 1.458c-4.265 4.011-10.161 4.478-14.307 4.638l-.308-7.994c4.265-.165 7.269-.717 9.135-2.472l5.48 5.828zm-14.307 4.638-115.564 4.45-.308-7.994 115.564-4.45.308 7.994zm-115.564 4.45c-6.002.231-12.252-.864-17.411-3.704-5.253-2.892-9.387-7.626-10.653-14.351l7.862-1.48c.757 4.02 3.149 6.896 6.649 8.822 3.592 1.978 8.32 2.909 13.245 2.719l.308 7.994zM459.9 497.58c-.854-4.542-1.229-9.993-.685-16.418l7.971.675c-.485 5.73-.14 10.455.576 14.263l-7.862 1.48zm-.7-16.081c0-.774.23-1.345.289-1.493a4.067 4.067 0 0 1 .751-1.197l.079-.085.099-.103a40.661 40.661 0 0 1 1.155-1.101l5.402 5.901c-.326.298-.563.525-.711.669l-.147.146-.001.001.053-.058c.01-.011.053-.057.105-.12.019-.023.088-.106.169-.218a3.904 3.904 0 0 0 .468-.849c.042-.109.127-.364.167-.512.046-.202.112-.693.122-.981h-8zm5.943-5.26c0 .083.02.142.072.209a.74.74 0 0 0 .347.235l-2.576 7.575c-3.167-1.078-5.843-4.059-5.843-8.019h8zm-.139-7.982c.084 2.463.112 5.137.139 7.943l-8 .078c-.027-2.825-.054-5.4-.134-7.749l7.995-.272zm-.333-7.904c.141 2.248.251 4.922.334 7.93l-7.997.22a227.24 227.24 0 0 0-.321-7.652l7.984-.498zm-.123-1.809c.068.651.1 1.309.126 1.868l-7.99.38a25.347 25.347 0 0 0-.092-1.412l7.956-.836z" fill="#E1E4E5" mask="url(#d)"/><path d="M551.069 284s-5.353 20.257-25.583 25.88c-25.718 7.129-29.592-1.507-29.592-1.507.645-3.685.861-7.29.699-11.11-.054-1.453-.188-2.932-.35-4.439-.457-4.143-1.318-8.662-2.528-13.827-.269-1.211-.592-2.475-.915-3.767l-.027-.161c17.594-6.618 31.394-16.545 39.842-31.233l2.501-1.964 1.695-1.345.484 1.022.081 3.417c.35 16.06 3.067 25.557 13.693 39.034zm7.17 32.048-38.641 142.48 13.778-16.001c-5.098 2.741-11.007 4.824-17.543 6.326-6.536 1.476-13.674 2.346-21.099 2.715-7.451.396-15.216.317-23.164 0-7.948-.342-16.053-.922-24.288-1.634h-.052c-12.158-1.054-22.851 8.04-23.896 20.298-.994 11.678 7.242 22.037 18.536 23.883 8.497 1.37 17.151 2.662 26.014 3.69s17.961 1.819 27.373 2.03c9.412.211 19.164-.158 29.23-1.634 10.065-1.477 20.497-4.113 30.693-8.541 6.536-2.847 11.164-8.251 13.282-14.525l.496-1.476 46.328-140.161c5.203-15.763-3.215-32.766-18.85-38.038-15.608-5.246-32.497 3.242-37.726 19.006-.157.501-.34 1.107-.471 1.582z" fill="#F8AE9D"/><path fill-rule="evenodd" clip-rule="evenodd" d="M103.085 513.229v-7.458c0-4.281 4.298-7.75 9.581-7.771h665.838c5.31 0 9.581 3.49 9.581 7.771v7.458c0 4.301-4.299 7.771-9.581 7.771H748.69a7.605 7.605 0 0 0-7.605 7.605c0 1.327-2.179 2.395-4.87 2.395H136.927c-2.663 0-4.842-1.068-4.842-2.395 0-4.2-3.405-7.605-7.606-7.605h-11.813c-5.311 0-9.581-3.47-9.581-7.771z" fill="#fff"/><path d="m112.666 498-.008-2h.008v2zm-7.581 7.771v7.458h-4v-7.458h4zm7.588-5.771c-4.602.018-7.588 2.971-7.588 5.771h-4c0-5.761 5.611-9.748 11.573-9.771l.015 4zm665.831 0H112.666v-4h665.838v4zm7.581 5.771c0-2.809-2.969-5.771-7.581-5.771v-4c6.008 0 11.581 4.019 11.581 9.771h-4zm0 7.458v-7.458h4v7.458h-4zM778.504 519c4.592 0 7.581-2.948 7.581-5.771h4c0 5.779-5.609 9.771-11.581 9.771v-4zm-29.814 0h29.814v4H748.69v-4zm-12.475 10c1.108 0 2.011-.224 2.562-.495.678-.333.308-.418.308.1h4c0 1.845-1.46 2.958-2.544 3.49-1.211.595-2.743.905-4.326.905v-4zm-599.288 0h599.288v4H136.927v-4zm-2.842-.395c0-.517-.369-.432.307-.099.548.271 1.443.494 2.535.494v4c-1.572 0-3.098-.311-4.305-.906-1.079-.533-2.537-1.645-2.537-3.489h4zM112.666 519h11.813v4h-11.813v-4zm-7.581-5.771c0 2.827 2.964 5.771 7.581 5.771v4c-6.005 0-11.581-3.995-11.581-9.771h4zm25 15.376a5.605 5.605 0 0 0-5.606-5.605v-4c5.305 0 9.606 4.3 9.606 9.605h-4zM748.69 523a5.604 5.604 0 0 0-5.605 5.605h-4c0-5.305 4.3-9.605 9.605-9.605v4z" fill="#E1E4E5"/><path d="m183.672 313.054 31.206 131.98.834 3.47 2.098 8.878a8.516 8.516 0 0 0 8.286 6.564h210.237c5.488 0 9.577-5.138 8.312-10.492l-34.138-144.327a8.516 8.516 0 0 0-8.286-6.564H191.985c-5.515.027-9.577 5.165-8.313 10.491z" fill="#009688"/><path d="M285.816 388.918c.996 9.092 9.174 16.437 18.266 16.437 9.093 0 15.63-7.371 14.635-16.437-.995-9.093-9.173-16.437-18.266-16.437-9.093 0-15.63 7.344-14.635 16.437z" fill="#fff"/><path d="M393.856 302.587 430.2 463.97h6.134c5.488 0 9.55-5.138 8.285-10.492l-34.138-144.327a8.515 8.515 0 0 0-8.285-6.564h-8.34zm-60.748 160.076 5.766 32.262h-19.05l-5.767-32.262h19.051z" fill="#133835"/><path d="m365.36 492.013-4.305-6.053a8.234 8.234 0 0 0-6.698-3.443h-57.758a8.148 8.148 0 0 0-7.264 4.412l-2.905 5.568c-1.372 2.61.538 5.703 3.47 5.703h72.258c3.175 0 5.031-3.604 3.202-6.187z" fill="#133835"/><path fill-rule="evenodd" clip-rule="evenodd" d="M518.281 243.442v23.484l17.172-13.885s5.277-22.501 9.57-39.213c2.692-10.479 9.25-45.946-17.152-44.284-21.629-38.292-84.616-14.592-85.118 32.189 12.057 67.963 1.849 89.546 1.849 89.546 35.618 2.053 53.706-14.493 73.679-47.837z" fill="#133835"/><path fill-rule="evenodd" clip-rule="evenodd" d="m493.319 234.528 2.934 20.478-16.708-9.963s-7.414-18.961-13.245-32.997c-3.657-8.802-13.807-38.91 9.423-40.76 14.076-36.093 71.963-23.297 78.246 17.433-2.022 60.772 9.576 78.317 9.576 78.317-30.803 6.241-48.643-5.928-70.226-32.508z" fill="#133835"/><path d="M483.652 279.9s58.218-5.671 54.127-41.874c-4.092-36.203.661-61.317-36.679-59.225-37.34 2.092-43 16.718-44.569 29.134-1.569 12.415 11.878 72.506 27.121 71.965z" fill="#F8AE9D"/><path fill-rule="evenodd" clip-rule="evenodd" d="M535.732 217.849c-7.377 1.196-6.482 5.994-8.488 5.575-10.186-2.128-51.416.679-56.725-21.597-6.606 13.917-8.22 17.338-22.766 21.073v-40.78l92-8.671s-1.428 43.978-4.021 44.4z" fill="#133835"/><path opacity=".76" fill-rule="evenodd" clip-rule="evenodd" d="m183 113 37 57h-74l37-57z" fill="url(#e)"/><path opacity=".76" fill-rule="evenodd" clip-rule="evenodd" d="m682 142 25 39h-50l25-39z" fill="url(#f)"/><path d="M725.173 453.268h16.444a7.75 7.75 0 0 1 7.75 7.751v7.876c0 8.63-6.996 15.626-15.626 15.626h-8.568a4.465 4.465 0 0 1 0-8.929h8.568a6.697 6.697 0 0 0 6.697-6.697v-6.698h-15.265a4.465 4.465 0 0 1 0-8.929z" fill="#fff" stroke="#E1E4E5" stroke-width="4" stroke-linecap="round" stroke-linejoin="round"/><path fill-rule="evenodd" clip-rule="evenodd" d="M670.572 449a6.572 6.572 0 0 0-6.572 6.572V472c0 11.273 8.109 20.651 18.812 22.62.907.167 1.603.934 1.604 1.856.001 1 .812 1.81 1.812 1.81h25.082a1.873 1.873 0 0 0 1.874-1.872c0-.936.694-1.719 1.608-1.913 10.403-2.204 18.209-11.441 18.209-22.501v-16.428A6.571 6.571 0 0 0 726.43 449h-55.858z" fill="#fff" stroke="#E1E4E5" stroke-width="4" stroke-linecap="round" stroke-linejoin="round"/><defs><linearGradient id="a" x1="229.383" y1="546.358" x2="225.068" y2="72.254" gradientUnits="userSpaceOnUse"><stop stop-color="#fff"/><stop offset="1" stop-color="#EEE"/></linearGradient><linearGradient id="b" x1="480.643" y1="238.069" x2="479.195" y2="78.172" gradientUnits="userSpaceOnUse"><stop stop-color="#fff"/><stop offset="1" stop-color="#EEE"/></linearGradient><linearGradient id="c" x1="121.716" y1="257.261" x2="193.805" y2="161.223" gradientUnits="userSpaceOnUse"><stop stop-color="#fff"/><stop offset="1" stop-color="#EEE"/></linearGradient><linearGradient id="e" x1="184.578" y1="201.957" x2="183.224" y2="50.985" gradientUnits="userSpaceOnUse"><stop stop-color="#fff"/><stop offset="1" stop-color="#EEE"/></linearGradient><linearGradient id="f" x1="683.066" y1="202.866" x2="682.128" y2="99.569" gradientUnits="userSpaceOnUse"><stop stop-color="#fff"/><stop offset="1" stop-color="#EEE"/></linearGradient></defs></svg>