<svg width="900" height="600" viewBox="0 0 900 600" fill="none" xmlns="http://www.w3.org/2000/svg"><path fill="transparent" d="M0 0h900v600H0z"/><path clip-rule="evenodd" d="M759.564 339.565v0c0 57.367-46.496 103.863-103.863 103.863v0c-57.367 0-103.863-46.496-103.863-103.863v0c0-57.367 46.496-103.864 103.863-103.864v0c57.367 0 103.863 46.497 103.863 103.864z" stroke="#E1E4E5" stroke-width="4" stroke-linecap="round" stroke-linejoin="round"/><path d="m729.144 413.007-70.062-70.061a11.529 11.529 0 0 1-3.381-8.159v-99.086m-93.654 56.705h-99.082a11.53 11.53 0 0 1-8.16-3.378l-70.064-70.064m-.091.194h-99.081a11.533 11.533 0 0 1-8.161-3.378l-70.064-70.064m-2.307 89.138-24.945-28.406a4.393 4.393 0 0 0-3.022-1.489l-37.726-2.448m422.704 184.888h-99.082a11.533 11.533 0 0 1-8.161-3.378l-70.064-70.064m-.091.194h-99.082a11.532 11.532 0 0 1-8.16-3.378l-70.064-70.064m449.163 98.394 89.091-51.47" stroke="#E1E4E5" stroke-width="4" stroke-linecap="round" stroke-linejoin="round"/><path d="m745.649 287.633-85.807 49.541a11.53 11.53 0 0 0-5.378 7.005l-25.645 95.71m27.541-99.67 72.734 72.775" stroke="#E1E4E5" stroke-width="4" stroke-linecap="round" stroke-linejoin="round"/><circle cx="281.164" cy="217.962" r="10.873" fill="#E1E4E5"/><circle cx="281.164" cy="312.955" r="10.873" fill="#E1E4E5"/><circle cx="206.772" cy="144.714" r="10.873" fill="#E1E4E5"/><circle cx="206.772" cy="239.707" r="10.873" fill="#E1E4E5"/><circle cx="384.169" cy="217.962" r="10.873" fill="#E1E4E5"/><circle cx="384.169" cy="312.955" r="10.873" fill="#E1E4E5"/><circle cx="458.561" cy="290.065" r="10.873" fill="#E1E4E5"/><circle cx="458.561" cy="385.058" r="10.873" fill="#E1E4E5"/><path d="M457.989 219.935c28.71-36.966 75.254-36.966 103.963 0M295.471 423.656c28.709-36.966 75.253-36.966 103.963 0M124.94 329.807c28.71-36.966 75.254-36.966 103.963 0" stroke="#E1E4E5" stroke-width="4" stroke-linecap="round" stroke-linejoin="round"/><path d="M527.972 200.149c9.218 9.218 9.218 24.164 0 33.382-9.218 9.219-24.164 9.219-33.383 0-9.218-9.218-9.218-24.164 0-33.382 9.219-9.219 24.165-9.219 33.383 0m-162.519 203.72c9.219 9.219 9.219 24.165 0 33.383-9.218 9.219-24.164 9.219-33.383 0-9.218-9.218-9.218-24.164 0-33.383 9.219-9.218 24.165-9.218 33.383 0m-170.53-93.849c9.219 9.219 9.219 24.165 0 33.383-9.218 9.219-24.164 9.219-33.383 0-9.218-9.218-9.218-24.164 0-33.383 9.219-9.218 24.165-9.218 33.383 0" stroke="#E1E4E5" stroke-width="4" stroke-linecap="round" stroke-linejoin="round"/><path d="M766.154 221.579c-16.836 8.352-39.183-2.387-39.183-2.387s4.966-24.275 21.812-32.616c16.837-8.352 39.174 2.376 39.174 2.376s-4.966 24.275-21.803 32.627z" fill="url(#a)"/><path d="M194.056 421.078c13.063-11.287 11.919-34.032 11.919-34.032s-22.325-4.431-35.382 6.867c-13.063 11.288-11.926 34.022-11.926 34.022s22.325 4.431 35.389-6.857z" fill="url(#b)"/><circle cx="651.604" cy="476.604" r="12.448" transform="rotate(-90 651.604 476.604)" fill="#009688"/><circle cx="259.99" cy="385.63" r="11.445" transform="rotate(-90 259.99 385.63)" fill="#009688"/><circle cx="414.017" cy="124.204" r="18.976" transform="rotate(180 414.017 124.204)" fill="#009688"/><circle r="15.813" transform="matrix(-1 0 0 1 647.813 171.813)" fill="#009688"/><circle r="7.379" transform="matrix(-1 0 0 1 501.992 334.641)" fill="#E1E4E5"/><circle r="7.379" transform="matrix(-1 0 0 1 349.775 272.687)" fill="#E1E4E5"/><circle r="9.488" transform="scale(-1 1) rotate(-45 186.065 1122.765)" fill="#E1E4E5"/><circle r="5.774" transform="matrix(-1 0 0 1 224.341 274.773)" fill="#E1E4E5"/><circle r="7.4" transform="matrix(-1 0 0 1 111.708 409.502)" fill="#E1E4E5"/><circle r="8.834" transform="matrix(-1 0 0 1 522.905 149.542)" fill="#E1E4E5"/><circle r="5.816" transform="scale(1 -1) rotate(-75 77.98 -294.903)" fill="#E1E4E5"/><circle r="7.439" transform="matrix(-1 0 0 1 324.655 358.735)" fill="#E1E4E5"/><ellipse rx="10.656" ry="8.525" transform="scale(-1 1) rotate(-45 278.21 890.557)" fill="#E1E4E5"/><circle r="12.227" transform="scale(1 -1) rotate(-75 225.423 -432.793)" fill="#E1E4E5"/><path d="M727.105 338.706h.17c1.006 14.257 11.609 14.476 11.609 14.476s-11.692.229-11.692 16.702c0-16.473-11.691-16.702-11.691-16.702s10.598-.219 11.604-14.476zM271.581 129.263h.152c.906 13.039 10.449 13.24 10.449 13.24s-10.523.209-10.523 15.275c0-15.066-10.523-15.275-10.523-15.275s9.539-.201 10.445-13.24z" fill="#E1E4E5"/><path fill-rule="evenodd" clip-rule="evenodd" d="M179.093 484.47h4.793c1.159 0 2.093.943 2.093 2.092v4.794a2.095 2.095 0 0 1-2.093 2.093h-4.793a2.101 2.101 0 0 1-2.093-2.093v-4.794a2.088 2.088 0 0 1 2.093-2.092zm16.62 0h4.793a2.1 2.1 0 0 1 2.093 2.092v4.794a2.095 2.095 0 0 1-2.093 2.093h-4.793a2.101 2.101 0 0 1-2.093-2.093v-4.794a2.1 2.1 0 0 1 2.093-2.092zm16.631 0h4.794a2.1 2.1 0 0 1 2.092 2.092v4.794a2.095 2.095 0 0 1-2.092 2.093h-4.794a2.101 2.101 0 0 1-2.092-2.093v-4.794a2.087 2.087 0 0 1 2.092-2.092zm16.62 0h4.794a2.1 2.1 0 0 1 2.092 2.092v4.794a2.095 2.095 0 0 1-2.092 2.093h-4.794a2.103 2.103 0 0 1-2.102-2.093v-4.794a2.115 2.115 0 0 1 2.102-2.092zm16.622 0h4.794c1.159 0 2.102.943 2.102 2.092v4.794a2.097 2.097 0 0 1-2.102 2.093h-4.794a2.101 2.101 0 0 1-2.092-2.093v-4.794a2.1 2.1 0 0 1 2.092-2.092zm-49.263 18.124h4.793a2.1 2.1 0 0 1 2.093 2.092v4.804a2.1 2.1 0 0 1-2.093 2.092h-4.793a2.094 2.094 0 0 1-2.093-2.092v-4.794a2.09 2.09 0 0 1 2.093-2.102zm16.62 0h4.793a2.1 2.1 0 0 1 2.093 2.092v4.804a2.1 2.1 0 0 1-2.093 2.092h-4.793a2.1 2.1 0 0 1-2.093-2.092v-4.794a2.09 2.09 0 0 1 2.093-2.102zm16.621 0h4.794c1.159 0 2.102.943 2.102 2.092v4.804a2.102 2.102 0 0 1-2.102 2.092h-4.794a2.1 2.1 0 0 1-2.092-2.092v-4.794c0-1.159.943-2.102 2.092-2.102zM212.344 465h4.794a2.1 2.1 0 0 1 2.092 2.092v4.794a2.095 2.095 0 0 1-2.092 2.093l-4.794-.001a2.1 2.1 0 0 1-2.092-2.092v-4.794a2.087 2.087 0 0 1 2.092-2.092zm16.62 0h4.794a2.1 2.1 0 0 1 2.092 2.092v4.794a2.095 2.095 0 0 1-2.092 2.093l-4.794-.001a2.102 2.102 0 0 1-2.102-2.092v-4.794a2.115 2.115 0 0 1 2.102-2.092zm204.128-7.53h4.794c1.159 0 2.093.943 2.093 2.092v4.794a2.095 2.095 0 0 1-2.093 2.093h-4.794a2.101 2.101 0 0 1-2.092-2.093v-4.794a2.087 2.087 0 0 1 2.092-2.092zm16.621 0h4.793a2.1 2.1 0 0 1 2.093 2.092v4.794a2.095 2.095 0 0 1-2.093 2.093h-4.793a2.101 2.101 0 0 1-2.093-2.093v-4.794a2.1 2.1 0 0 1 2.093-2.092zm16.631 0h4.794a2.1 2.1 0 0 1 2.092 2.092v4.794a2.095 2.095 0 0 1-2.092 2.093h-4.794a2.101 2.101 0 0 1-2.092-2.093v-4.794a2.087 2.087 0 0 1 2.092-2.092zm16.62 0h4.794a2.1 2.1 0 0 1 2.092 2.092v4.794a2.095 2.095 0 0 1-2.092 2.093h-4.794a2.103 2.103 0 0 1-2.102-2.093v-4.794a2.115 2.115 0 0 1 2.102-2.092zm16.622 0h4.794c1.159 0 2.102.943 2.102 2.092v4.794a2.097 2.097 0 0 1-2.102 2.093h-4.794a2.101 2.101 0 0 1-2.092-2.093v-4.794a2.1 2.1 0 0 1 2.092-2.092zm-49.263 18.124h4.793a2.1 2.1 0 0 1 2.093 2.092v4.804a2.1 2.1 0 0 1-2.093 2.092h-4.793a2.094 2.094 0 0 1-2.093-2.092v-4.794a2.09 2.09 0 0 1 2.093-2.102zm16.62 0h4.793a2.1 2.1 0 0 1 2.093 2.092v4.804a2.1 2.1 0 0 1-2.093 2.092h-4.793a2.1 2.1 0 0 1-2.093-2.092v-4.794a2.09 2.09 0 0 1 2.093-2.102zm16.621 0h4.794c1.159 0 2.102.943 2.102 2.092v4.804a2.102 2.102 0 0 1-2.102 2.092h-4.794a2.1 2.1 0 0 1-2.092-2.092v-4.794c0-1.159.943-2.102 2.092-2.102zM466.344 438h4.794a2.1 2.1 0 0 1 2.092 2.092v4.794a2.095 2.095 0 0 1-2.092 2.093l-4.794-.001a2.1 2.1 0 0 1-2.092-2.092v-4.794a2.087 2.087 0 0 1 2.092-2.092zm16.62 0h4.794a2.1 2.1 0 0 1 2.092 2.092v4.794a2.095 2.095 0 0 1-2.092 2.093l-4.794-.001a2.102 2.102 0 0 1-2.102-2.092v-4.794a2.115 2.115 0 0 1 2.102-2.092z" fill="#E1E4E5"/><defs><linearGradient id="a" x1="701.499" y1="247.631" x2="840.369" y2="137.785" gradientUnits="userSpaceOnUse"><stop stop-color="#fff"/><stop offset="1" stop-color="#EEE"/></linearGradient><linearGradient id="b" x1="239.122" y1="375.592" x2="96.687" y2="454.116" gradientUnits="userSpaceOnUse"><stop stop-color="#fff"/><stop offset="1" stop-color="#EEE"/></linearGradient></defs></svg>