<svg width="900" height="600" viewBox="0 0 900 600" fill="none" xmlns="http://www.w3.org/2000/svg"><path fill="transparent" d="M0 0h900v600H0z"/><path d="M709.141 464.337H190.685c-15.457 0-28.013-12.621-28.013-28.21v-327c0-15.59 12.556-28.21 28.013-28.21h518.456c15.457 0 28.012 12.62 28.012 28.21v327c0 15.589-12.555 28.21-28.012 28.21z" fill="#fff" stroke="#E1E4E5" stroke-width="3.693"/><path d="M192 272.641c12.333-14.666 34-38.6 22-17-15 27 12.5 9 22 0s32-15.5 16 8 30 9.5 38.5-8M529 412.482c19.909-23.727 54.883-62.446 35.513-27.502-24.214 43.68 20.177 14.56 35.512 0s51.655-25.075 25.828 12.942C600.025 435.94 674.279 413.291 688 384.98m-350 55.661c12.333-14.666 34-38.6 22-17-15 27 12.5 9 22 0s32-15.5 16 8 30 9.5 38.5-8M434 206.36c13.398-15.649 36.934-41.187 23.898-18.139-16.294 28.81 13.579 9.603 23.899 0 10.32-9.604 34.761-16.539 17.381 8.536-17.381 25.075 32.588 10.137 41.822-8.536" stroke="#E1E4E5" stroke-width="4"/><path d="M314 328.922c40.944-48.003 112.873-126.334 73.036-55.639-49.797 88.367 41.497 29.455 73.035 0 31.538-29.456 106.234-50.73 53.117 26.183-53.117 76.912 99.594 31.092 127.812-26.183" stroke="#E1E4E5" stroke-width="9.277" stroke-linecap="round"/><path d="M598 202.641c12.333-14.666 34-38.6 22-17-15 27 12.5 9 22 0s32-15.5 16 8 30 9.5 38.5-8" stroke="#E1E4E5" stroke-width="4"/><path d="M279.211 322.201c2.395-.104 4.842-.208 6.977-1.25 2.135-1.041 3.801-3.384 3.384-5.727-.26-1.197-.937-2.239-1.874-3.02-.937-.781-1.978-1.406-3.072-1.926-3.228-1.666-12.548-3.801-12.548-3.801l-30.354 7.445-25.668 26.658s-10.518 34.259-9.528 34.676c.989.416 35.248 3.488 35.248 3.488l24.835-41.704 12.6-14.839z" fill="#F8AE9D"/><path d="M278.587 323.607c3.385-.104 7.029-.417 9.528-2.968a8.392 8.392 0 0 0 2.5-4.894 5.35 5.35 0 0 0-1.562-4.322c-1.094-1.093-2.447-1.978-3.853-2.603-.833-.416-1.718-.729-2.603-1.041-2.187-.729-4.426-1.354-6.665-1.927-.781-.208-1.562-.416-2.395-.572a2.003 2.003 0 0 0-1.093-.157c-.469.105-.885.209-1.354.313l-8.278 2.03-10.986 2.708-8.331 2.03c-.468.104-.937.209-1.406.365-.468.26-.885.625-1.197 1.041l-5.05 5.259-7.706 7.966-7.446 7.706-4.477 4.633a4.653 4.653 0 0 0-1.198 1.771c-.156.572-.364 1.145-.52 1.718-.833 2.707-1.614 5.363-2.447 8.07-1.094 3.645-2.135 7.289-3.229 10.934-.937 3.176-1.822 6.352-2.603 9.58-.26 1.093-.52 2.187-.729 3.332-.104.469-.364 1.562.104 1.874.209.105.365.105.573.157.313.052.625.104.989.104 1.094.156 2.187.26 3.333.364 3.436.365 6.872.677 10.309 1.042 3.8.364 7.601.728 11.35 1.093l7.758.729 1.145.104c.521.052 1.041-.625 1.25-.989l1.249-2.135 3.28-5.519 4.582-7.654 5.051-8.486 4.79-8.07 3.748-6.3 1.979-3.333a.394.394 0 0 0 .104-.208c0-.104-.365.417-.208.312l.156-.156 1.614-1.874 5.987-6.977 4.634-5.415.261-.312c.364-.417.885-1.354.572-1.927-.312-.572-1.093.157-1.353.469l-3.437 3.957-6.248 7.237-2.29 2.656c-.365.364-.677.781-.99 1.197l-1.405 2.343-3.385 5.675-4.634 7.758-5.05 8.487-4.738 7.966-3.697 6.143c-.624 1.042-1.249 2.031-1.822 3.072l-.104.157 1.25-.99-3.541-.312-8.435-.781c-3.384-.312-6.82-.625-10.204-.989a513.851 513.851 0 0 1-8.8-.885c-.937-.105-1.926-.209-2.863-.313l-.885-.104-.261-.052c-.156 0-.208-.104 0 0-.104-.052.157.208.052.104 0 .052.105.312.053.156 0-.052 0-.26 0 0v-.156c0-.052.052-.26.052-.364 0-.104.052-.313.104-.469.052-.156.052-.156.052-.26l.052-.156v-.053a28.34 28.34 0 0 1-.052.209l.312-1.406c.625-2.707 1.406-5.363 2.135-8.018.937-3.228 1.874-6.508 2.811-9.736.834-2.864 1.719-5.728 2.552-8.591.468-1.562.937-3.124 1.405-4.634l.053-.208-.834 1.353 2.552-2.655 6.143-6.352 7.394-7.654 6.404-6.664c1.041-1.094 2.135-2.083 3.124-3.228l.052-.052-.521.312 6.821-1.666 13.433-3.28 9.528-2.343c.208 0 .364-.052.572-.156-.312.156-.26 0-.156.052a.47.47 0 0 0 .261.052l1.093.26c2.499.625 4.998 1.302 7.497 2.083 1.146.364 2.239.781 3.333 1.249 1.718.833 3.54 1.875 4.477 3.593.417.677.521 1.51.417 2.291.052-.261-.052.104-.052.156 0 .052-.052.156-.052.208.104-.312 0 .052-.052.104s-.052.157-.105.209c.261-.313 0 0-.052.052s-.26.364-.104.156c.156-.208-.104.104-.104.104s-.416.417-.156.208a6.002 6.002 0 0 1-1.926 1.302c-.99.364-1.979.625-3.02.729a61 61 0 0 1-3.072.208c-.677.052-1.198.833-1.458 1.354 0 .416-.312 1.562.364 1.51z" fill="#F8AE9D"/><path d="M118.068 496.881c16.244-22.909 50.347-79.14 50.347-79.14s7.654-67.112 11.819-76.432c3.489-7.81 28.012-26.241 37.592-32.593 4.946-3.28 9.996-6.613 15.724-8.174 6.091-1.667 13.12-1.042 17.754 3.332 4.269-1.25 8.643-2.343 13.016-3.176 3.541-.677 7.654-1.146 10.466 1.197 2.811 2.343 3.019 6.613 1.405 9.789-1.614 3.176-4.738 5.31-8.018 6.716-3.28 1.406-6.716 2.239-10.048 3.593-10.309 4.217-17.963 13.016-25.148 21.503-2.76 3.228-5.623 6.664-6.352 10.881-.729 4.218 1.562 9.216 5.727 9.893 6.352.729 11.663-4.217 15.984-8.955 4.322-4.738 6.509-9.737 8.956-15.464 1.51-3.592 3.592-7.549 5.414-10.986 1.823-3.436 5.78-6.716 9.581-7.445 6.56-1.25 10.621 3.749 11.61 10.309.989 6.56-1.301 14.63-4.061 20.67-6.404 14.214-13.797 27.959-21.139 41.704-16.296 30.407-58.469 111.317-74.766 141.723" fill="#F8AE9D"/><path d="M118.693 497.298c5.831-8.175 11.298-16.661 16.713-25.096 6.144-9.58 12.184-19.212 18.171-28.844 4.374-7.029 8.695-14.11 13.017-21.139.781-1.302 1.614-2.603 2.395-3.957.572-.989.572-2.187.676-3.28.781-6.665 1.614-13.329 2.448-19.993 1.197-9.58 2.499-19.161 3.957-28.689 1.145-7.445 2.186-15.046 4.113-22.284l.468-1.562c.052-.208.156-.416.209-.624.052-.209.104-.209 0 0 .052-.105.052-.209.104-.313a17.095 17.095 0 0 1 2.499-3.592c3.384-3.905 7.341-7.342 11.246-10.622a239.433 239.433 0 0 1 26.918-19.889c6.352-4.009 13.641-7.393 21.347-5.883 1.666.312 3.332.937 4.79 1.77a14.51 14.51 0 0 1 2.135 1.51c.208.208.416.469.729.521.416.104 1.405-.365 1.77-.521a108.556 108.556 0 0 1 12.808-2.968c3.28-.52 7.445-.625 9.632 2.447 1.822 2.708 1.614 6.352-.521 8.799-2.551 3.02-6.56 4.426-10.152 5.623-3.801 1.25-7.55 2.604-11.038 4.686-6.456 3.853-11.767 9.32-16.661 14.891a98.125 98.125 0 0 0-7.29 8.851c-2.03 2.812-3.748 6.196-3.748 9.789 0 2.863 1.145 5.935 3.54 7.705 2.656 1.927 6.404 1.302 9.164.052 3.228-1.457 5.987-3.8 8.486-6.352a43.73 43.73 0 0 0 6.977-9.059c1.927-3.332 3.332-6.925 4.894-10.413.833-1.874 1.771-3.749 2.708-5.571.833-1.77 1.718-3.489 2.759-5.155 3.593-5.258 11.819-7.914 16.193-2.082 4.373 5.831 3.072 14.11 1.041 20.514-1.197 3.852-2.916 7.445-4.634 11.09a513.931 513.931 0 0 1-5.883 12.027c-5.884 11.662-12.131 23.065-18.275 34.623-4.946 9.268-9.841 18.588-14.735 27.908a18515.383 18515.383 0 0 0-17.181 32.749l-17.286 32.905-14.683 27.803-5.467 10.309c-.208.365-.416 1.302.209 1.406.624.104 1.249-.937 1.457-1.354 7.862-14.63 15.568-29.365 23.274-44.047 9.684-18.431 19.368-36.863 29.052-55.242 7.862-14.943 15.776-29.885 23.69-44.828 6.977-13.017 14.006-26.085 19.993-39.622 2.552-5.727 4.426-12.027 4.374-18.379-.052-4.738-1.614-10.466-6.092-12.861-4.998-2.707-10.881.313-14.37 4.062-2.239 2.447-3.644 5.466-5.102 8.434a201.673 201.673 0 0 0-4.165 9.06c-1.198 2.967-2.708 5.779-4.426 8.434-1.77 2.551-3.853 4.842-6.144 6.925-3.644 3.384-10.882 8.018-15.203 3.124-1.718-1.979-2.395-4.634-1.978-7.237.572-3.072 2.499-5.623 4.425-8.018 4.009-4.842 8.174-9.737 12.86-13.954 2.343-2.187 4.947-4.113 7.654-5.779a43.188 43.188 0 0 1 8.955-4.009c5.988-1.979 12.444-4.218 15.464-10.309 2.395-4.79 1.145-11.299-4.634-12.652-2.968-.677-6.092 0-9.007.625-1.823.364-3.593.781-5.415 1.197-1.771.417-3.541 1.146-5.363 1.458-.833.156-1.145-.365-1.822-.833a12.494 12.494 0 0 0-1.771-1.094c-1.301-.676-2.655-1.197-4.061-1.509a21.651 21.651 0 0 0-8.382-.209c-6.456 1.042-12.184 4.634-17.546 8.175a264.162 264.162 0 0 0-21.451 15.828c-3.697 3.019-7.342 6.091-10.726 9.423-2.499 2.448-5.102 5.051-6.873 8.071-.937 1.77-1.562 3.644-1.978 5.623-.677 2.707-1.198 5.519-1.718 8.278-1.354 7.446-2.499 14.995-3.541 22.493a1442.736 1442.736 0 0 0-5.05 39.569c-.104.781-.156 1.562-.26 2.343l.416-1.041a1635.873 1635.873 0 0 1-12.496 20.41c-8.226 13.381-16.557 26.657-25.147 39.83-4.114 6.352-8.331 12.704-12.704 18.9-.261.364-.729 1.406-.209 1.718.521.312 1.198-.781 1.458-1.093z" fill="#F8AE9D"/><path d="M286.553 295.543c4.634-2.759 9.476-5.154 14.475-7.237a59.266 59.266 0 0 1-4.738 15.099" fill="#009688"/><path d="M286.397 296.741c3.541-2.083 7.186-4.009 10.934-5.675l3.28-1.406-.624-.677c-.105.469-.157.989-.261 1.458-.052.26-.104.468-.156.729 0 .052 0 .104-.052.156 0-.052.052-.208 0 0l-.104.416c-.208.99-.469 1.927-.729 2.916a27.23 27.23 0 0 1-.937 2.916c-.156.468-.313.937-.521 1.406 0 .052-.156.364-.104.208a.394.394 0 0 1-.104.208c-.104.26-.208.469-.26.729a34.918 34.918 0 0 1-1.406 3.176c-.156.364-.469 1.354.208 1.406.677.052 1.25-.885 1.458-1.354 1.822-3.853 3.28-7.914 4.217-12.079a77.5 77.5 0 0 0 .729-3.697c.052-.416-.156-.885-.625-.677-3.957 1.666-7.81 3.489-11.558 5.571-1.042.573-2.083 1.198-3.124 1.771a2.652 2.652 0 0 0-1.146 1.874c0 .208 0 .521.209.677.208.156.52.052.676-.052zm15.254-9.112.677-.781-.677.781z" fill="#009688"/><path d="m302.172 288.618.469-.52.208-.26c.156-.209.313-.469.469-.677.156-.209.26-.469.312-.729.052-.209.104-.417.104-.625.052-.156 0-.364-.104-.521l-.156-.208c-.156-.104-.364-.104-.573 0l-.364.156a2.62 2.62 0 0 0-.677.625l-.469.521-.208.26c-.156.208-.312.469-.468.677a1.81 1.81 0 0 0-.313.729c-.052.208-.104.416-.104.625 0 .156 0 .364.104.468l.156.208c.157.105.365.105.573 0l.365-.156c.208-.156.468-.364.676-.573zm-15.93 7.03a35.323 35.323 0 0 1 9.736 8.278l-78.931 82.055c-1.979 2.083-4.843 4.27-8.227 2.552-2.811-1.458-4.269-5.051-3.905-7.602.365-2.551 2.135-4.425 3.853-6.144l77.995-78.358" fill="#009688"/><path d="M285.407 296.949a34.144 34.144 0 0 1 9.58 8.122l.833-2.186-17.442 18.118-17.442 18.119-17.442 18.119-17.442 18.119-8.747 9.059c-1.145 1.146-2.082 2.239-3.54 2.864a4.818 4.818 0 0 1-4.53-.26 6.994 6.994 0 0 1-2.759-3.124c-.261-.573-.469-1.25-.625-1.875a5.73 5.73 0 0 1-.104-.937v-.26c0-.208 0-.312.052-.469.052-.364.104-.677.26-.989.104-.208-.052.156 0-.052.052-.104.052-.156.104-.26.052-.104.104-.157.104-.261 0-.104-.104.157.053-.052l.312-.468s.26-.365.104-.156c-.156.208.052-.105.104-.105l.781-.937c0-.052.417-.416.208-.26l.417-.417 1.041-1.041 2.239-2.239 17.755-17.806 17.754-17.807 17.754-17.806 17.755-17.807 4.321-4.321c.469-.469 1.042-1.25.937-1.979-.104-.729-.833-.416-1.145-.052l-18.067 18.119-18.067 18.119-18.066 18.119-17.963 18.119-4.53 4.529a35.634 35.634 0 0 0-3.801 4.114c-1.249 1.51-2.03 3.384-2.291 5.31a8.947 8.947 0 0 0 .729 4.218c1.302 2.967 4.426 5.102 7.706 4.165 1.666-.573 3.176-1.51 4.374-2.812 1.457-1.405 2.811-2.915 4.217-4.373l17.754-18.431 17.755-18.432 17.702-18.379 17.754-18.431 4.322-4.478c.312-.312.573-.729.781-1.145.104-.261.26-.781.104-1.042a36.354 36.354 0 0 0-9.84-8.434c-.521-.313-1.198.573-1.458.937-.261.365-.937 1.302-.365 1.614z" fill="#009688"/><path d="M285.409 296.949a34.172 34.172 0 0 1 9.58 8.122l.833-2.186-17.546 18.223-17.547 18.223-17.494 18.17-17.546 18.223c-2.915 3.072-5.883 6.092-8.799 9.164-1.041 1.093-2.083 2.031-3.54 2.499-1.51.469-3.228.208-4.478-.781-1.145-.833-2.031-1.978-2.499-3.332a6.208 6.208 0 0 1-.469-1.874c-.052-.573-.052-1.146.104-1.667.052-.208.105-.364.157-.572-.052.208 0 0 0-.052s.104-.157.104-.261l.104-.208.052-.104c.104-.208.208-.364.364-.521.157-.26.052-.052 0 0l.157-.208.416-.521c.104-.156.26-.312.365-.416l.208-.208.104-.105a158.801 158.801 0 0 1 4.165-4.165c5.884-5.935 11.767-11.871 17.546-17.858 5.832-5.988 11.611-11.923 17.338-17.807a2833.183 2833.183 0 0 1 17.442-17.91 2878.027 2878.027 0 0 1 17.494-17.807c1.406-1.406 2.812-2.863 4.27-4.269.468-.469 1.041-1.25.937-1.979-.104-.729-.833-.364-1.146-.052a1960.554 1960.554 0 0 0-17.858 18.119c-5.936 6.04-11.819 12.131-17.702 18.171l-17.703 18.171c-5.883 6.04-11.819 12.131-17.806 18.171l-4.53 4.53c-1.354 1.353-2.759 2.707-4.009 4.165-1.302 1.51-2.239 3.332-2.655 5.258a7.883 7.883 0 0 0 .468 4.374c1.146 3.02 4.009 5.415 7.341 4.79 1.719-.312 3.229-1.406 4.478-2.551 1.458-1.354 2.76-2.864 4.165-4.27l17.807-18.483 17.858-18.587 17.807-18.484 17.806-18.483 4.374-4.53c.312-.312.573-.729.781-1.145.104-.26.26-.781.104-1.041a36.355 36.355 0 0 0-9.84-8.435c-.521-.312-1.198.573-1.458.937-.261.365-.677 1.25-.104 1.562z" fill="#009688"/><path d="M204.915 380.879c.417-2.603 2.135-4.426 3.853-6.144l4.061-4.113a42.394 42.394 0 0 1 8.174 7.393 4.901 4.901 0 0 1 1.302 2.395l-5.311 5.519c-1.978 2.083-4.842 4.27-8.226 2.552-2.76-1.458-4.27-5.051-3.853-7.602z" fill="#009688"/><path d="M205.903 380.202c0-.052.104-.521 0-.208l.104-.313c.053-.156.105-.26.105-.416.104-.312-.105.26 0-.052.104-.313.208-.417.312-.625l-.052.104.104-.156.156-.26.209-.313c.208-.26-.209.261 0 0 .208-.26.26-.364.416-.572.156-.209.312-.365.469-.521l.26-.312c.208-.209-.208.208.052-.053a217.143 217.143 0 0 1 4.894-4.894l-.937.313a46.885 46.885 0 0 1 5.311 4.321c.781.781 1.562 1.562 2.291 2.395.729.833 1.562 1.666 1.666 2.655l.937-1.978c-1.458 1.562-2.968 3.072-4.426 4.582-.624.677-1.249 1.353-1.926 1.926-.156.104-.313.261-.469.365-.26.208.209-.157-.052.052l-.156.104c-.364.26-.729.468-1.093.677-.261.156.208-.104-.104.052l-.261.104c-.156.052-.364.156-.52.208-.365.104-.729.208-1.094.208-.833.052-1.666-.156-2.395-.52a6.313 6.313 0 0 1-2.968-2.968c-.156-.312-.312-.677-.468-1.041-.052-.104-.052-.156-.104-.261-.052-.104-.104-.364-.052-.156-.052-.208-.105-.364-.157-.573a62.141 62.141 0 0 1-.156-1.145v-.26.052-.156c.052-.053.104-.209.104-.365.052-.208 0-.573-.208-.677-.208-.104-.469-.052-.677.104a2.655 2.655 0 0 0-1.145 1.875c-.261 2.291.364 4.582 1.822 6.404a6.928 6.928 0 0 0 2.968 2.187 5.9 5.9 0 0 0 4.009 0c2.759-.99 4.686-3.437 6.664-5.467l1.718-1.771.834-.833c.624-.52 1.093-1.145 1.353-1.926.261-.833-.208-1.718-.677-2.447a23.742 23.742 0 0 0-1.457-1.77c-2.239-2.447-4.738-4.686-7.446-6.561-.312-.208-.781.105-.937.313-1.822 1.822-3.645 3.592-5.415 5.467-1.77 1.874-3.02 3.957-3.436 6.404-.052.26 0 .468.208.677.208.104.469.052.677-.105.625-.468 1.041-1.145 1.145-1.874zm72.684-76.849c1.041.469 4.425 2.135 6.039 3.489a26.048 26.048 0 0 1 4.113 4.529l-19.264 20.046c-2.187-3.957-5.675-6.977-9.892-8.643a2194.861 2194.861 0 0 1 19.004-19.421z" fill="#009688"/><path d="M277.754 304.707a34.952 34.952 0 0 1 3.645 1.926c.729.417 1.406.833 2.03 1.302a18.282 18.282 0 0 1 2.083 1.926c.781.885 1.562 1.771 2.239 2.76l.833-2.187a4186.882 4186.882 0 0 1-15.047 15.62l-4.217 4.373 1.093-.156c-1.718-3.124-4.269-5.675-7.341-7.497a18.378 18.378 0 0 0-2.708-1.302l-.729 2.343c4.947-5.05 9.893-10.153 14.839-15.203 1.406-1.406 2.76-2.812 4.165-4.27.469-.468 1.042-1.249.885-1.978-.156-.729-.833-.417-1.145-.052a2017.712 2017.712 0 0 0-14.839 15.151l-4.165 4.269a3.302 3.302 0 0 0-.833 1.354c-.052.208-.208.885.104.989a18.965 18.965 0 0 1 9.736 8.487c.261.416.833.052 1.094-.156l15.047-15.62 4.217-4.373c.312-.313.573-.729.781-1.146.104-.26.26-.729.052-1.041a27.005 27.005 0 0 0-4.321-4.79 25.677 25.677 0 0 0-4.114-2.551c-.624-.313-1.197-.625-1.822-.886-.625-.26-1.197.521-1.458.938a2.577 2.577 0 0 0-.416 1.041c.104.26.052.625.312.729z" fill="#009688"/><path d="M238.237 337.352c5.727-6.352 12.027-12.183 19.837-15.359 3.28-1.354 6.768-2.187 10.049-3.593 3.28-1.406 6.352-3.54 8.018-6.716 1.666-3.176 1.301-7.498-1.406-9.789-2.708-2.291-6.873-1.874-10.465-1.197-4.374.833-8.695 1.926-13.017 3.176" fill="#F8AE9D"/><path d="m238.601 338.081 1.406-1.562.156-.156c.26-.261-.156.156 0 0l.364-.365.729-.729c.938-.989 1.927-1.926 2.916-2.863a47.972 47.972 0 0 1 3.02-2.656l.781-.624.208-.157c.156-.156-.26.209.052-.052l.417-.312c.52-.417 1.093-.833 1.666-1.198 1.093-.728 2.187-1.457 3.384-2.134.26-.156.573-.313.833-.469l.417-.208.26-.104c.052 0 .104-.052.104-.052a28.004 28.004 0 0 1 1.822-.833c2.76-1.198 5.728-1.979 8.539-3.02a26.796 26.796 0 0 0 7.393-4.009c2.239-1.77 3.853-4.217 4.686-6.977.625-2.291.573-4.946-.624-7.081-1.25-2.239-3.541-3.384-5.988-3.644-2.655-.313-5.363.312-7.966.833-3.124.624-6.196 1.405-9.216 2.238-.781.209-1.51.417-2.291.625-.676.208-1.197 1.042-1.353 1.666-.104.469-.104 1.198.572.99a133.532 133.532 0 0 1 9.008-2.343c1.51-.313 2.968-.625 4.477-.938a15.98 15.98 0 0 1 1.667-.26c.572-.052 1.249-.156 1.822-.156 2.343-.104 4.738.364 6.456 2.135.364.364.625.781.885 1.249.104.208.208.469.313.677.052.104.104.26.156.364l.052.209c.052.156 0-.104.052.104.156.521.208 1.041.26 1.614v.625c0 .312-.052.52-.052.833 0 .156-.052.26-.052.416 0 .156 0 .156-.052.209-.052.052 0 .208 0-.053-.052.313-.104.573-.208.833 0 .053-.052.105-.052.157 0 .052-.157.208 0-.052l-.157.312-.156.364a.4.4 0 0 0-.104.209c0-.104.156-.313.052-.052-.104.26-.312.52-.468.781-.052.052-.157.208 0 .052l-.052.052c-.105.104-.209.26-.313.416a1.627 1.627 0 0 1-.26.313l-.156.208c-.104.156.208-.208.052-.052l-.677.677a6.594 6.594 0 0 1-.677.572c-.052.053-.156.157 0 0-.052.053-.104.105-.156.105l-.417.312c-.52.364-1.041.677-1.614.989-.26.156-.52.261-.781.417l-.156.052-.156.052-.469.208c-.625.313-1.301.573-1.926.833-2.76 1.042-5.675 1.823-8.435 2.968-2.499.989-4.894 2.291-7.133 3.749-4.582 3.019-8.539 6.82-12.287 10.829-.469.469-.885.99-1.354 1.458-.364.417-.885 1.354-.573 1.927.313.572 1.094-.209 1.354-.521zm8.174 19.681c4.322-4.686 7.966-12.184 10.413-17.911 1.51-3.592 3.593-7.549 5.415-10.986 1.822-3.436 5.779-6.716 9.58-7.445 6.561-1.25 10.622 3.749 11.611 10.309.989 6.56-1.302 14.63-4.061 20.67-6.404 14.214-13.798 27.959-21.139 41.705l-48.838 91.219" fill="#F8AE9D"/><path d="M247.192 358.491c4.582-5.103 7.758-11.507 10.465-17.703 1.458-3.436 3.124-6.768 4.842-10.048.677-1.458 1.51-2.76 2.5-4.009a13.615 13.615 0 0 1 3.904-2.968c2.5-1.25 5.572-1.666 8.123-.417 2.343 1.146 3.853 3.281 4.79 5.623 2.499 6.248.833 13.59-1.354 19.681-1.302 3.541-2.968 6.977-4.582 10.361-1.718 3.645-3.54 7.237-5.31 10.83-3.697 7.289-7.55 14.474-11.403 21.711-7.862 14.683-15.724 29.417-23.638 44.1l-23.637 44.152-2.968 5.467c-.208.364-.417 1.301.208 1.405.625.104 1.25-.937 1.458-1.353l24.263-45.35 24.366-45.453c3.905-7.341 7.862-14.682 11.663-22.128 1.874-3.696 3.749-7.393 5.519-11.09 1.77-3.644 3.54-7.237 5.05-10.986 2.604-6.456 4.686-14.005 3.124-20.982-.625-2.655-1.718-5.259-3.748-7.185-1.927-1.822-4.582-2.655-7.186-2.343-3.384.416-6.456 2.291-8.747 4.686-2.603 2.707-4.165 6.248-5.831 9.528-3.228 6.404-5.675 13.172-9.736 19.16-.885 1.302-1.822 2.551-2.916 3.697-.364.364-.937 1.353-.573 1.926.365.573 1.094-.052 1.354-.312zm419.895 5.924c-1.765-.077-3.568-.154-5.141-.921s-2.801-2.494-2.494-4.221c.192-.882.69-1.65 1.381-2.225a10.682 10.682 0 0 1 2.264-1.42c2.379-1.228 9.247-2.801 9.247-2.801l22.369 5.487 18.916 19.645s7.751 25.247 7.022 25.554c-.729.307-25.976 2.571-25.976 2.571l-18.302-30.734-9.286-10.935z" fill="#F8AE9D"/><path d="M667.547 365.451c-2.494-.077-5.18-.307-7.022-2.187a6.18 6.18 0 0 1-1.842-3.607 3.943 3.943 0 0 1 1.151-3.185c.806-.805 1.804-1.458 2.84-1.918.614-.307 1.266-.537 1.918-.767a71.434 71.434 0 0 1 4.911-1.42 23.479 23.479 0 0 1 1.765-.422c.269-.115.537-.154.806-.115.345.077.652.153.998.23l6.1 1.496 8.096 1.996 6.139 1.496c.346.077.691.153 1.036.269.346.191.653.46.883.767l3.722 3.875 5.678 5.871 5.487 5.678 3.3 3.415c.384.346.69.806.882 1.305.115.422.269.844.384 1.266.614 1.995 1.189 3.952 1.803 5.947.806 2.686 1.573 5.372 2.379 8.058a147.23 147.23 0 0 1 1.919 7.06c.192.805.383 1.611.537 2.455.077.346.268 1.151-.077 1.382-.153.076-.268.076-.422.115-.23.038-.46.076-.729.076-.806.116-1.611.192-2.456.269-2.532.269-5.064.499-7.597.767-2.801.269-5.602.538-8.364.806l-5.717.537-.844.077c-.384.038-.768-.46-.921-.729l-.921-1.573-2.417-4.067-3.377-5.64-3.722-6.255-3.53-5.947-2.762-4.643-1.458-2.455a.288.288 0 0 1-.077-.154c0-.076.269.307.154.231l-.116-.116-1.189-1.381-4.412-5.141-3.415-3.991-.192-.23c-.269-.307-.652-.998-.422-1.42.23-.422.806.115.997.346l2.533 2.916 4.604 5.333 1.688 1.957c.269.269.499.575.729.882l1.036 1.727 2.494 4.182 3.415 5.717 3.722 6.254 3.492 5.871 2.724 4.528c.46.767.921 1.496 1.343 2.263l.076.115-.92-.729 2.609-.23 6.216-.575c2.494-.231 5.026-.461 7.52-.729 2.149-.192 4.336-.422 6.484-.653.691-.076 1.42-.153 2.111-.23l.652-.077.192-.038c.115 0 .153-.077 0 0 .076-.038-.115.154-.039.077 0 .038-.076.23-.038.115 0-.038 0-.192 0 0v-.115c0-.039-.038-.192-.038-.269 0-.077-.039-.23-.077-.345-.039-.115-.039-.115-.039-.192l-.038-.115v-.038l.038.153-.23-1.036c-.46-1.995-1.036-3.952-1.573-5.909-.691-2.379-1.381-4.796-2.072-7.175-.614-2.11-1.266-4.22-1.88-6.331a384.802 384.802 0 0 0-1.036-3.415l-.038-.153.614.997-1.88-1.956-4.528-4.681-5.448-5.641-4.72-4.911c-.767-.806-1.573-1.535-2.302-2.379l-.038-.038.383.23-5.026-1.228-9.899-2.417-7.022-1.727a.874.874 0 0 1-.422-.115c.23.115.192 0 .115.039-.077.038-.115.038-.192.038l-.805.192c-1.842.46-3.684.959-5.526 1.535-.844.268-1.649.575-2.455.92-1.266.614-2.609 1.382-3.3 2.648-.307.499-.384 1.113-.307 1.688-.038-.192.038.077.038.115 0 .039.039.115.039.154-.077-.23 0 .038.038.076.039.039.039.116.077.154-.192-.23 0 0 .038.038.039.039.192.269.077.115-.115-.153.077.077.077.077s.307.307.115.154a4.41 4.41 0 0 0 1.42.959c.729.268 1.458.46 2.225.537a45.2 45.2 0 0 0 2.264.154c.499.038.882.613 1.074.997 0 .307.23 1.151-.268 1.113z" fill="#F8AE9D"/><path d="M785.84 493.143c-11.972-16.882-37.103-58.321-37.103-58.321s-5.641-49.458-8.71-56.326c-2.571-5.755-20.643-19.338-27.703-24.019-3.645-2.417-7.367-4.873-11.587-6.024-4.49-1.228-9.669-.767-13.084 2.456-3.146-.921-6.37-1.727-9.593-2.341-2.609-.499-5.64-.844-7.712.883-2.072 1.726-2.225 4.873-1.036 7.213 1.19 2.341 3.492 3.914 5.909 4.95s4.95 1.65 7.405 2.647c7.598 3.108 13.238 9.593 18.533 15.847 2.033 2.379 4.144 4.911 4.681 8.019.537 3.108-1.151 6.791-4.221 7.29-4.681.537-8.595-3.108-11.779-6.599-3.185-3.492-4.796-7.175-6.6-11.396-1.112-2.648-2.647-5.564-3.99-8.096-1.343-2.532-4.259-4.95-7.06-5.487-4.835-.921-7.827 2.763-8.556 7.597-.729 4.835.959 10.782 2.992 15.233 4.72 10.475 10.168 20.604 15.578 30.734 12.01 22.407 43.089 82.033 55.099 104.441" fill="#F8AE9D"/><path d="M785.379 493.45c-4.297-6.024-8.326-12.278-12.316-18.494a1776.834 1776.834 0 0 1-13.391-21.256c-3.223-5.18-6.408-10.398-9.592-15.578-.576-.959-1.19-1.918-1.765-2.916-.422-.729-.422-1.612-.499-2.417a1941.04 1941.04 0 0 0-1.804-14.734 773.168 773.168 0 0 0-2.916-21.142c-.844-5.486-1.611-11.088-3.031-16.422l-.345-1.151c-.039-.153-.115-.307-.154-.46-.038-.154-.076-.154 0 0-.038-.077-.038-.154-.076-.23a12.61 12.61 0 0 0-1.842-2.648c-2.494-2.877-5.41-5.41-8.288-7.827a176.335 176.335 0 0 0-19.837-14.657c-4.681-2.955-10.052-5.448-15.731-4.336-1.228.23-2.456.691-3.53 1.305-.537.307-1.074.69-1.573 1.112-.154.154-.307.346-.537.384-.307.077-1.036-.268-1.305-.384a80.409 80.409 0 0 0-9.439-2.187c-2.417-.383-5.487-.46-7.098 1.804-1.343 1.995-1.189 4.681.384 6.484 1.88 2.226 4.834 3.262 7.482 4.144 2.801.921 5.563 1.919 8.134 3.453 4.758 2.84 8.671 6.868 12.278 10.974a72.255 72.255 0 0 1 5.372 6.523c1.496 2.072 2.762 4.566 2.762 7.213 0 2.11-.844 4.374-2.609 5.679-1.957 1.419-4.719.959-6.753.038-2.379-1.074-4.412-2.801-6.254-4.681a32.249 32.249 0 0 1-5.141-6.676c-1.42-2.456-2.456-5.103-3.607-7.674-.614-1.381-1.305-2.763-1.995-4.106-.614-1.304-1.266-2.57-2.034-3.798-2.647-3.875-8.71-5.832-11.933-1.535-3.223 4.297-2.263 10.398-.767 15.118.882 2.839 2.149 5.486 3.415 8.172a372.149 372.149 0 0 0 4.336 8.863c4.335 8.595 8.94 16.998 13.467 25.516 3.645 6.83 7.252 13.698 10.859 20.566 4.22 8.019 8.441 16.077 12.661 24.134l12.739 24.249 10.82 20.49 4.029 7.597c.153.268.307.959-.154 1.036-.46.076-.92-.691-1.074-.998-5.794-10.782-11.472-21.64-17.151-32.46-7.137-13.583-14.273-27.166-21.41-40.71a13851.927 13851.927 0 0 0-17.458-33.036c-5.141-9.592-10.321-19.223-14.734-29.199-1.88-4.22-3.261-8.863-3.223-13.544.039-3.492 1.19-7.712 4.489-9.477 3.684-1.996 8.02.23 10.59 2.992 1.65 1.804 2.686 4.029 3.761 6.216a149.059 149.059 0 0 1 3.069 6.677c.883 2.187 1.995 4.258 3.261 6.215 1.305 1.88 2.84 3.569 4.528 5.103 2.686 2.494 8.019 5.909 11.204 2.303 1.266-1.458 1.765-3.415 1.458-5.334-.422-2.264-1.842-4.144-3.262-5.909-2.954-3.568-6.024-7.175-9.477-10.283-1.726-1.611-3.645-3.031-5.64-4.259a31.854 31.854 0 0 0-6.6-2.954c-4.412-1.458-9.17-3.108-11.395-7.597-1.765-3.53-.844-8.326 3.415-9.324 2.187-.499 4.489 0 6.638.461 1.342.268 2.647.575 3.99.882 1.305.307 2.609.844 3.952 1.074.614.116.844-.268 1.343-.613a9.18 9.18 0 0 1 1.304-.806c.96-.499 1.957-.883 2.993-1.113a15.95 15.95 0 0 1 6.178-.153c4.757.767 8.978 3.415 12.93 6.024a194.603 194.603 0 0 1 15.808 11.664c2.724 2.225 5.41 4.489 7.904 6.945 1.842 1.803 3.76 3.721 5.065 5.947.691 1.304 1.151 2.686 1.458 4.144.499 1.995.883 4.067 1.266 6.1.998 5.487 1.842 11.051 2.609 16.576a1060.025 1060.025 0 0 1 3.722 29.161c.077.575.115 1.151.192 1.726l-.307-.767a1205.004 1205.004 0 0 0 9.209 15.04c6.062 9.861 12.201 19.646 18.532 29.353 3.031 4.681 6.139 9.362 9.362 13.928.192.268.537 1.036.154 1.266-.384.23-.883-.575-1.075-.806z" fill="#F8AE9D"/><path d="M661.676 344.77c-3.415-2.034-6.983-3.799-10.666-5.334a43.62 43.62 0 0 0 3.491 11.128" fill="#009688"/><path d="M661.791 345.652c-2.609-1.535-5.295-2.954-8.057-4.182l-2.418-1.036.461-.499c.077.346.115.729.192 1.075.038.191.076.345.115.537 0 .038 0 .076.038.115 0-.039-.038-.154 0 0l.077.307c.153.729.345 1.419.537 2.148.192.729.422 1.458.691 2.149.115.345.23.691.383 1.036 0 .038.116.269.077.154 0 .038.039.115.077.153.077.192.153.345.192.537a25.48 25.48 0 0 0 1.036 2.341c.115.268.345.997-.154 1.036-.499.038-.921-.653-1.074-.998-1.343-2.839-2.417-5.832-3.108-8.902a56.1 56.1 0 0 1-.537-2.724c-.039-.307.115-.652.46-.499 2.916 1.228 5.756 2.571 8.518 4.106.768.422 1.535.882 2.302 1.305.461.306.768.805.844 1.381 0 .153 0 .383-.153.499-.153.115-.384.038-.499-.039zm-11.241-6.714-.499-.576.499.576z" fill="#009688"/><path d="m650.166 339.667-.345-.384-.153-.192c-.116-.153-.231-.345-.346-.499a1.337 1.337 0 0 1-.23-.537c-.038-.153-.077-.307-.077-.46-.038-.115 0-.269.077-.384l.115-.153c.115-.077.269-.077.422 0l.269.115c.192.115.383.307.499.46l.345.384.153.192c.115.153.231.345.346.498.115.154.191.346.23.538.038.153.077.307.077.46 0 .115 0 .269-.077.345l-.115.154c-.115.077-.269.077-.422 0l-.269-.115a5.02 5.02 0 0 1-.499-.422zm11.74 5.18a26.053 26.053 0 0 0-7.175 6.1l58.168 60.47c1.458 1.535 3.568 3.146 6.062 1.88 2.072-1.074 3.146-3.722 2.878-5.602-.269-1.88-1.574-3.261-2.84-4.527l-57.477-57.746" fill="#009688"/><path d="M662.521 345.806a25.185 25.185 0 0 0-7.06 5.985l-.613-1.611 12.853 13.352 12.854 13.353 12.854 13.352 12.853 13.353 6.446 6.676c.844.844 1.535 1.65 2.609 2.11a3.554 3.554 0 0 0 3.339-.191 5.157 5.157 0 0 0 2.033-2.303c.192-.422.345-.92.461-1.381.038-.23.076-.46.076-.691v-.191c0-.154 0-.231-.038-.346-.038-.268-.077-.499-.192-.729-.077-.153.038.115 0-.038-.038-.077-.038-.115-.077-.192-.038-.077-.076-.115-.076-.192s.076.115-.039-.038l-.23-.346s-.192-.268-.077-.115c.115.154-.038-.076-.076-.076l-.576-.691c0-.038-.307-.307-.153-.192l-.307-.307-.768-.767-1.65-1.65-13.084-13.122-13.084-13.123-13.083-13.122-13.084-13.122-3.185-3.185c-.345-.345-.767-.921-.691-1.458.077-.537.614-.307.844-.038l13.315 13.352 13.314 13.353 13.314 13.352 13.237 13.353 3.338 3.338a26.211 26.211 0 0 1 2.801 3.031c.921 1.113 1.497 2.494 1.689 3.914a6.596 6.596 0 0 1-.538 3.108c-.959 2.187-3.261 3.76-5.678 3.069-1.228-.422-2.341-1.113-3.223-2.072-1.075-1.036-2.072-2.148-3.108-3.223l-13.084-13.582-13.084-13.583-13.046-13.545-13.083-13.582-3.185-3.3c-.23-.23-.422-.537-.576-.844-.076-.192-.191-.576-.076-.768a26.77 26.77 0 0 1 7.251-6.215c.384-.231.883.422 1.075.69.192.269.69.96.268 1.19z" fill="#009688"/><path d="M662.52 345.806a25.167 25.167 0 0 0-7.059 5.985l-.614-1.611 12.93 13.429 12.93 13.429 12.893 13.391 12.93 13.429c2.149 2.264 4.336 4.49 6.484 6.753.768.806 1.535 1.497 2.609 1.842 1.113.345 2.379.154 3.3-.575a5.108 5.108 0 0 0 1.842-2.456c.192-.461.307-.921.345-1.381.039-.422.039-.845-.076-1.228-.039-.154-.077-.269-.116-.422.039.153 0 0 0-.039 0-.038-.076-.115-.076-.191l-.077-.154-.038-.077a1.389 1.389 0 0 0-.269-.383c-.115-.192-.038-.039 0 0l-.115-.154-.307-.384a2.216 2.216 0 0 0-.269-.307l-.153-.153-.077-.077a113.858 113.858 0 0 0-3.069-3.069c-4.336-4.374-8.672-8.748-12.931-13.161L690.76 375.12a2078.486 2078.486 0 0 0-12.853-13.199 2063.512 2063.512 0 0 0-12.893-13.122c-1.035-1.036-2.071-2.111-3.146-3.147-.345-.345-.767-.921-.69-1.458.076-.537.613-.268.844-.038 4.412 4.412 8.786 8.863 13.16 13.352 4.374 4.451 8.71 8.94 13.046 13.391l13.045 13.391a2130.7 2130.7 0 0 0 13.123 13.391l3.338 3.338c.997.998 2.033 1.995 2.954 3.07.959 1.112 1.65 2.455 1.957 3.875a5.814 5.814 0 0 1-.345 3.223c-.844 2.225-2.955 3.99-5.41 3.53-1.267-.23-2.379-1.036-3.3-1.88-1.074-.998-2.034-2.111-3.07-3.147l-13.122-13.621-13.161-13.697-13.122-13.621-13.122-13.622-3.223-3.338c-.23-.23-.422-.537-.576-.844-.076-.192-.191-.575-.076-.767a26.79 26.79 0 0 1 7.251-6.216c.384-.23.883.422 1.075.691.192.268.499.921.076 1.151z" fill="#009688"/><path d="M721.839 407.657c-.307-1.919-1.573-3.261-2.839-4.528l-2.993-3.031a31.219 31.219 0 0 0-6.024 5.449 3.6 3.6 0 0 0-.959 1.765l3.913 4.067c1.458 1.535 3.569 3.146 6.063 1.88 2.033-1.074 3.146-3.722 2.839-5.602z" fill="#009688"/><path d="M721.11 407.158c0-.038-.076-.384 0-.153l-.076-.231c-.039-.115-.077-.191-.077-.307-.077-.23.077.192 0-.038s-.154-.307-.23-.46l.038.076-.077-.115-.115-.192-.153-.23c-.154-.192.153.192 0 0-.154-.192-.192-.268-.307-.422-.115-.153-.23-.268-.345-.384l-.192-.23c-.154-.153.153.154-.039-.038a161.365 161.365 0 0 0-3.606-3.607l.69.23a34.63 34.63 0 0 0-3.913 3.185c-.576.576-1.151 1.151-1.689 1.765-.537.614-1.151 1.228-1.227 1.957l-.691-1.458c1.074 1.151 2.187 2.264 3.261 3.376.461.499.921.998 1.42 1.42.115.077.23.192.345.269.192.153-.153-.116.039.038l.115.077c.268.192.537.345.805.498.192.116-.153-.076.077.039l.192.077c.115.038.269.115.384.153.268.077.537.154.806.154.613.038 1.227-.116 1.764-.384a4.657 4.657 0 0 0 2.188-2.187c.115-.23.23-.499.345-.768.038-.076.038-.115.077-.191.038-.077.076-.269.038-.116.038-.153.077-.268.115-.422.038-.268.077-.537.115-.844v-.192.039-.115c-.038-.039-.077-.154-.077-.269-.038-.153 0-.422.154-.499.153-.076.345-.038.499.077.46.307.767.806.844 1.381a6.363 6.363 0 0 1-1.343 4.72 5.104 5.104 0 0 1-2.187 1.611 4.336 4.336 0 0 1-2.955 0c-2.033-.729-3.453-2.532-4.911-4.029l-1.266-1.304-.614-.614c-.46-.384-.806-.844-.998-1.42-.191-.614.154-1.266.499-1.803.346-.46.691-.882 1.075-1.305 1.65-1.803 3.491-3.453 5.486-4.834.231-.154.576.077.691.23 1.343 1.343 2.686 2.648 3.99 4.029 1.305 1.381 2.226 2.916 2.533 4.719a.503.503 0 0 1-.154.499c-.153.077-.345.039-.498-.077a2.122 2.122 0 0 1-.845-1.381zm-53.562-56.633c-.767.346-3.261 1.573-4.451 2.571a19.221 19.221 0 0 0-3.031 3.338l14.197 14.772c1.611-2.916 4.182-5.141 7.29-6.369a1652.216 1652.216 0 0 0-14.005-14.312z" fill="#009688"/><path d="M668.161 351.523c-.921.422-1.804.882-2.686 1.419-.537.307-1.036.614-1.497.96-.537.422-1.074.92-1.534 1.419-.576.653-1.151 1.305-1.65 2.034l-.614-1.612c3.683 3.837 7.367 7.674 11.089 11.511l3.108 3.223-.806-.115c1.266-2.302 3.146-4.182 5.41-5.525a13.47 13.47 0 0 1 1.995-.959l.537 1.726c-3.645-3.722-7.29-7.482-10.935-11.204-1.036-1.036-2.034-2.072-3.07-3.146-.345-.345-.767-.921-.652-1.458.115-.537.614-.307.844-.038 3.684 3.722 7.329 7.443 10.936 11.165l3.069 3.146c.269.269.499.614.614.998.038.154.153.652-.077.729a13.978 13.978 0 0 0-7.175 6.254c-.192.307-.614.039-.806-.115l-11.088-11.511a9626.859 9626.859 0 0 1-3.108-3.223c-.23-.23-.422-.537-.576-.844-.076-.192-.192-.537-.038-.767a19.904 19.904 0 0 1 3.185-3.53 18.947 18.947 0 0 1 3.031-1.88c.46-.23.882-.461 1.343-.652.46-.192.882.383 1.074.69.153.23.269.499.307.768-.077.191-.038.46-.23.537z" fill="#009688"/><path d="M697.283 375.58c-4.22-4.681-8.863-8.978-14.618-11.319-2.418-.997-4.988-1.611-7.406-2.647-2.417-1.036-4.681-2.609-5.909-4.95-1.227-2.34-.959-5.525 1.036-7.213 1.996-1.688 5.065-1.381 7.713-.883 3.223.614 6.407 1.42 9.592 2.341" fill="#F8AE9D"/><path d="m697.015 376.117-1.036-1.151-.116-.115c-.191-.192.116.115 0 0l-.268-.268-.537-.538c-.691-.729-1.42-1.419-2.149-2.11a35.636 35.636 0 0 0-2.225-1.957l-.576-.46-.153-.115c-.115-.115.191.153-.039-.039l-.307-.23a13.861 13.861 0 0 0-1.228-.882c-.805-.537-1.611-1.075-2.494-1.573-.191-.116-.422-.231-.613-.346l-.307-.153-.192-.077c-.039 0-.077-.038-.077-.038-.46-.231-.882-.422-1.343-.614-2.033-.883-4.22-1.458-6.292-2.226a19.743 19.743 0 0 1-5.449-2.954c-1.65-1.305-2.839-3.108-3.453-5.142-.46-1.688-.422-3.645.46-5.218.921-1.65 2.609-2.494 4.413-2.686 1.957-.23 3.952.231 5.87.614 2.302.461 4.566 1.036 6.792 1.65.575.154 1.112.307 1.688.461.499.153.882.767.997 1.227.077.346.077.883-.422.729a99.474 99.474 0 0 0-6.637-1.726c-1.113-.23-2.187-.461-3.3-.691a11.865 11.865 0 0 0-1.228-.192c-.422-.038-.921-.115-1.343-.115-1.727-.076-3.492.269-4.758 1.573-.268.269-.46.576-.652.921-.077.154-.153.346-.23.499-.039.077-.077.192-.115.269l-.039.153c-.038.115 0-.077-.038.077-.115.384-.154.767-.192 1.189v.461c0 .23.038.383.038.614 0 .115.039.191.039.307 0 .115 0 .115.038.153.039.038 0 .154 0-.038.039.23.077.422.154.614 0 .038.038.076.038.115 0 .038.115.153 0-.039l.115.231.115.268a.288.288 0 0 1 .077.154c0-.077-.115-.231-.038-.039.076.192.23.384.345.576.038.038.115.153 0 .038a1.88 1.88 0 0 0 .038.039c.077.076.154.191.231.306.076.116.115.154.191.231l.116.153c.076.115-.154-.153-.039-.038l.499.499c.153.153.345.307.499.422.038.038.115.115 0 0 .038.038.076.076.115.076l.307.231c.383.268.767.498 1.189.729.192.115.384.191.576.307l.115.038.115.038.345.154c.461.23.96.422 1.42.614 2.034.767 4.182 1.343 6.216 2.187 1.842.729 3.607 1.688 5.256 2.762 3.377 2.226 6.293 5.027 9.056 7.981.345.345.652.729.997 1.074.269.307.652.998.422 1.42-.23.422-.806-.153-.997-.384zm-6.025 14.504c-3.184-3.453-5.87-8.978-7.673-13.199-1.113-2.648-2.648-5.564-3.991-8.096s-4.259-4.95-7.06-5.487c-4.834-.921-7.827 2.763-8.556 7.597-.729 4.835.959 10.782 2.993 15.233 4.719 10.475 10.167 20.604 15.578 30.734l35.99 67.222" fill="#F8AE9D"/><path d="M690.683 391.158c-3.376-3.76-5.717-8.479-7.712-13.045-1.074-2.533-2.302-4.988-3.568-7.406a14.682 14.682 0 0 0-1.842-2.954 10.02 10.02 0 0 0-2.878-2.187c-1.842-.921-4.105-1.228-5.985-.307-1.727.844-2.84 2.417-3.53 4.144-1.842 4.604-.614 10.014.997 14.503.959 2.609 2.187 5.142 3.377 7.636 1.266 2.686 2.609 5.333 3.913 7.981 2.725 5.371 5.564 10.666 8.403 16 5.794 10.82 11.588 21.678 17.42 32.498l17.419 32.537 2.187 4.029c.154.269.307.959-.153 1.036-.46.077-.921-.691-1.074-.997l-17.88-33.42-17.957-33.496c-2.878-5.41-5.794-10.82-8.595-16.307-1.381-2.724-2.762-5.449-4.067-8.173-1.305-2.686-2.609-5.333-3.722-8.096-1.918-4.758-3.453-10.321-2.302-15.463.46-1.956 1.266-3.875 2.763-5.295 1.419-1.342 3.376-1.956 5.295-1.726 2.494.307 4.757 1.688 6.446 3.453 1.918 1.995 3.069 4.604 4.297 7.022 2.379 4.719 4.182 9.707 7.175 14.119.652.96 1.343 1.881 2.149 2.725.268.268.69.997.422 1.419-.269.422-.806-.038-.998-.23z" fill="#F8AE9D"/><path d="M301.087 159.95c1.155 2-.289 4.5-2.598 4.5H269.91c-2.309 0-3.753-2.5-2.598-4.5l14.29-24.75c1.154-2 4.041-2 5.196 0l14.289 24.75z" fill="#fff" stroke="#E1E4E5" stroke-width="4"/><circle cx="432.5" cy="139.5" r="15.5" fill="#fff" stroke="#E1E4E5" stroke-width="4"/><circle cx="577.5" cy="267.5" r="15.5" fill="#fff" stroke="#E1E4E5" stroke-width="4"/><circle cx="721.5" cy="275.5" r="5.5" fill="#009688"/><path d="M312.952 430.407c-.146-2.24-.824-4.627-2.229-6.38a8.44 8.44 0 0 0-1.163-1.12 14.106 14.106 0 0 0-15.36-1.169c-2.423 1.413-4.313 3.507-5.572 6.039a13.558 13.558 0 0 0-1.551 7.89c.727 5.795 5.572 10.179 11.387 10.325 5.669.195 10.902-3.068 13.276-8.231 1.018-2.289 1.405-4.821 1.212-7.354zm-10.621-39.062a5.96 5.96 0 0 0 .619-3.512c-.103-1.063-.67-2.034-1.495-2.727-2.011-1.341-4.744-1.479-6.91-.324-2.218 1.202-3.816 3.836-3.507 6.147.155 1.063.722 2.08 1.599 2.819a5.38 5.38 0 0 0 3.455 1.248c2.681.093 5.105-1.525 6.239-3.651z" fill="#E1E4E5"/></svg>