<svg width="900" height="600" viewBox="0 0 900 600" fill="none" xmlns="http://www.w3.org/2000/svg"><path fill="transparent" d="M0 0h900v600H0z"/><rect x="342" y="102" width="340" height="120" rx="29" fill="#fff" stroke="#E1E4E5" stroke-width="2"/><rect x="354" y="113" width="98" height="98" rx="30" fill="#009688"/><path fill-rule="evenodd" clip-rule="evenodd" d="M425.267 182.555v3.276c0 1.809-1.449 3.277-3.234 3.277h-38.8c-1.785 0-3.233-1.468-3.233-3.277v-3.329c0-9.914 11.181-16.356 22.633-16.356 11.453 0 22.634 6.445 22.634 16.356m-14.516-45.139c4.484 4.483 4.484 11.752 0 16.236-4.483 4.484-11.752 4.484-16.236 0s-4.484-11.753 0-16.236c4.484-4.484 11.753-4.484 16.236 0z" fill="#fff"/><rect x="463" y="129" width="182" height="11" rx="5.5" fill="#E1E4E5"/><rect x="463" y="156" width="182" height="11" rx="5.5" fill="#E1E4E5"/><rect x="463" y="183" width="182" height="11" rx="5.5" fill="#E1E4E5"/><rect x="341.957" y="377.957" width="340.086" height="120.086" rx="29.043" fill="#fff" stroke="#E1E4E5" stroke-width="1.914"/><rect x="354" y="389" width="98" height="98" rx="30" fill="#009688"/><path fill-rule="evenodd" clip-rule="evenodd" d="M425.267 458.555v3.276c0 1.809-1.449 3.277-3.234 3.277h-38.8c-1.785 0-3.233-1.468-3.233-3.277v-3.329c0-9.914 11.181-16.356 22.633-16.356 11.453 0 22.634 6.445 22.634 16.356m-14.516-45.139c4.484 4.483 4.484 11.752 0 16.236-4.483 4.484-11.752 4.484-16.236 0s-4.484-11.753 0-16.236c4.484-4.484 11.753-4.484 16.236 0z" fill="#fff"/><rect x="463" y="405" width="182" height="11" rx="5.5" fill="#E1E4E5"/><rect x="463" y="432" width="182" height="11" rx="5.5" fill="#E1E4E5"/><rect x="463" y="459" width="182" height="11" rx="5.5" fill="#E1E4E5"/><rect x="426" y="240" width="340" height="120" rx="29" fill="#fff" stroke="#E1E4E5" stroke-width="2"/><rect x="438" y="251" width="98" height="98" rx="30" fill="#009688"/><path fill-rule="evenodd" clip-rule="evenodd" d="M509.267 320.555v3.276c0 1.809-1.449 3.277-3.234 3.277h-38.8c-1.785 0-3.233-1.468-3.233-3.277v-3.329c0-9.914 11.181-16.356 22.633-16.356 11.453 0 22.634 6.445 22.634 16.356m-14.516-45.139c4.484 4.483 4.484 11.752 0 16.236-4.483 4.484-11.752 4.484-16.236 0s-4.484-11.753 0-16.236c4.484-4.484 11.753-4.484 16.236 0z" fill="#fff"/><rect x="547" y="267" width="182" height="11" rx="5.5" fill="#E1E4E5"/><rect x="547" y="294" width="182" height="11" rx="5.5" fill="#E1E4E5"/><rect x="547" y="321" width="182" height="11" rx="5.5" fill="#E1E4E5"/><path fill-rule="evenodd" clip-rule="evenodd" d="M353.722 338.845c-20.924 0-37.889-17.204-37.889-38.422 0-21.219 16.965-38.423 37.889-38.423 20.924 0 37.889 17.204 37.889 38.423 0 21.218-16.965 38.422-37.889 38.422z" fill="#009688"/><path d="m367.063 294.019-16.006 17.076-9.609-10.244" stroke="#fff" stroke-width="6.288" stroke-linecap="round" stroke-linejoin="round"/><path d="M300.478 210.435c-.593 4.581-2.18 10.103-4.749 11.978-2.913 2.129-3.813 4.389-3.813 4.389l-2.961-.913-3.539-1.091s-.006-.361.016-.963c.018-.596.073-1.431.19-2.371 0 0 .675-1.451-.271-2.861-.945-1.407-1.38-3.822-.714-5.509.662-1.682.8-5.491 1.426-5.521 1.518-.085.479 5.342 1.317 6.108.753.698 1.398.25 1.513.154a.398.398 0 0 0 .024-.019c3.675-2.746 6.394-13.593 8.893-12.789.932.299 2.924 7.458 2.668 9.408zM151.053 323.154s3.138 5.43 1.733 8.562c-1.401 3.134-6.266 7.312-7.521 8.951-1.25 1.636-5.493 5.959-7.203 3.177-1.708-2.775 1.309-10.156 3.401-12.938 2.09-2.787 2.288-7.57 2.288-7.57l7.302-.182z" fill="#F8AE9D"/><path d="M153.061 330.811s-.239 5.984-.523 7.581c-.286 1.601-.568 1.111-1.662.037-1.094-1.075-1.082-4.206-1.492-4.412-.41-.206 3.677-3.206 3.677-3.206z" fill="#F8AE9D"/><path d="M207.952 209.782s36.604 39.455 47.999 45.638l28.71-33.889s5.389.378 8.763 4.923c0 0-11.139 47.795-31.462 54.415-20.323 6.619-61.756-39.918-61.756-39.918l7.746-31.169zM242.08 499h-37.588c-1.806-2.129-1.141-9.989-.87-12.559.057-.518.095-.816.095-.816s12.835-9.912 14.598-2.322c.053.238.119.472.19.702 2.22 7.098 12.185 10.324 17.934 11.223 3.745.583 5.128 2.46 5.641 3.772z" fill="#133835"/><path d="M216.773 499h-37.588c-1.806-2.129-1.14-9.989-.87-12.559.057-.518.095-.816.095-.816s12.836-9.912 14.599-2.322c.052.238.118.472.19.702 2.219 7.098 12.184 10.324 17.934 11.223 3.744.583 5.127 2.46 5.64 3.772z" fill="#133835"/><path d="M231.812 329.993s-1.797 19.45-3.909 42.827c-2.871 31.757-6.324 70.767-6.666 78.156-.592 12.833-2.958 33.358-2.958 33.358s-5.619 4.877-16.865 2.821c0 0-10.023-29.303-12.884-60.308l-.132-1.531c-2.665-31.56-6.802-98.021-6.802-98.021l50.216 2.698z" fill="#009688"/><path d="M221.618 331.324s-3.389 19.256-7.414 42.403c-5.47 31.446-12.114 70.077-13.055 77.413-1.632 12.74-5.687 33.033-5.687 33.033s-6.111 4.524-17.395 1.813c0 0-7.855-29.762-8.281-60.796l-.011-1.533c-.182-31.576.936-97.982.936-97.982l50.907 5.649z" fill="#009688"/><path d="M215.796 216.887c-12.916 4.079-34.23-7.42-34.23-7.42s10.872-8.448 10.25-27.034l9.986 8.05 6.785 5.465s-.027 3.224-.77 8.873c-.196 1.485-.554 3.806.559 4.995 4.325 4.616 7.42 7.071 7.42 7.071z" fill="#F8AE9D"/><path d="M212.536 195.643s-21.337 3.547-23.341-9.776c-2.003-13.323-6.104-21.838 7.433-24.664 13.537-2.827 16.959 1.856 18.707 6.14 1.749 4.285 2.697 27.035-2.799 28.3z" fill="#F8AE9D"/><path d="M233.828 336.885c-.389.322-.841.519-1.36.519-4.852-.067-18.998 2.63-30.965 1.4-10.09-.971-19.025-3.958-28.614-8.256-1.274-.572-4.203-2.138-4.141-3.56.045-1.561.197-3.819.394-6.668.68-9.901 1.86-26.927.706-46.573a208.972 208.972 0 0 1-.331-10.859c-.098-26.628 5.179-50.044 15.792-57.969.908-.648 6.471 2.071 11.583 4.589 4.722 2.33 8.425 2.576 12.889 1.672l5.478 3.954c5.434 5.044 11.386 11.905 13.976 22.316 2.2 8.864 3.493 24.843 4.204 41.404.322 7.504.581 15.076.648 22.254v.254c.063.712.063 1.49.063 2.201.259 18.443 0 33.063-.322 33.322z" fill="#133835"/><path d="M147.855 325.919c4.05.55 8.371-.018 8.371-.018s9.767-37.415 11.104-40.856c1.338-3.442 32.823-45.104 32.823-45.104l-16.11-34.409s-33.011 63.15-36.225 71.941c-5.311 14.526-5.603 46.425-5.603 46.425s2.457 1.591 5.64 2.021zm38.94-144.824c1.161 2.401 4.531 2.757 4.22.108-.353-3.015-.349-6.959 2.102-6.226 2.451.734 2.576 2.697 3.582 1.552 1.007-1.145 1.025-5.975 8.323-6.315 7.299-.335 10.264 2.205 13.654.711 2.032-.894 2.911-3.092 3.29-4.713.108-.459-.227-1.1-.533-.742-.29.339-1.019.317-.811-.077 1.285-2.439 3.208-7.764-1.691-11.73-6.556-5.309-13.238-1.834-17.03-1.606-8.359.505-13.757 1.006-16.485 6.498-2.261 4.556-1.874 15.811 1.379 22.54z" fill="#133835"/><path fill-rule="evenodd" clip-rule="evenodd" d="M752.555 158.613h-2.584a1.128 1.128 0 0 1-1.127-1.128v-2.583c0-.625.508-1.128 1.127-1.128h2.584c.62 0 1.128.508 1.128 1.128v2.583a1.125 1.125 0 0 1-1.128 1.128zm-8.958 0h-2.583c-.62 0-1.128-.508-1.128-1.128v-2.583c0-.625.508-1.128 1.128-1.128h2.583c.62 0 1.128.508 1.128 1.128v2.583c0 .62-.508 1.128-1.128 1.128zm-8.963 0h-2.584c-.62 0-1.128-.508-1.128-1.128v-2.583c0-.625.508-1.128 1.128-1.128h2.584c.619 0 1.127.508 1.127 1.128v2.583a1.125 1.125 0 0 1-1.127 1.128zm-8.959 0h-2.584a1.132 1.132 0 0 1-1.128-1.128v-2.583a1.13 1.13 0 0 1 1.128-1.128h2.584c.625 0 1.133.508 1.133 1.128v2.583a1.14 1.14 0 0 1-1.133 1.128zm-8.959 0h-2.583a1.133 1.133 0 0 1-1.133-1.128v-2.583a1.13 1.13 0 0 1 1.133-1.128h2.583c.62 0 1.128.508 1.128 1.128v2.583c0 .62-.508 1.128-1.128 1.128zm26.553-9.768h-2.584c-.62 0-1.128-.509-1.128-1.128v-2.589c0-.62.508-1.128 1.128-1.128h2.584c.624 0 1.127.508 1.127 1.128v2.584a1.126 1.126 0 0 1-1.127 1.133zm-8.959 0h-2.583c-.62 0-1.128-.509-1.128-1.128v-2.589c0-.62.508-1.128 1.128-1.128h2.583c.62 0 1.128.508 1.128 1.128v2.584a1.127 1.127 0 0 1-1.128 1.133zm-8.958 0h-2.584a1.134 1.134 0 0 1-1.133-1.128v-2.589c0-.62.508-1.128 1.133-1.128h2.584c.619 0 1.128.508 1.128 1.128v2.584c0 .624-.509 1.133-1.128 1.133zm9.282 20.262h-2.584c-.62 0-1.128-.508-1.128-1.128v-2.583c0-.625.508-1.128 1.128-1.128h2.584c.619 0 1.127.508 1.127 1.128v2.583a1.125 1.125 0 0 1-1.127 1.128zm-8.959 0h-2.584a1.132 1.132 0 0 1-1.128-1.128v-2.583a1.13 1.13 0 0 1 1.128-1.128h2.584c.625 0 1.133.508 1.133 1.128v2.583a1.14 1.14 0 0 1-1.133 1.128zm26.88 270.506h-2.584a1.128 1.128 0 0 1-1.127-1.128v-2.583c0-.625.508-1.128 1.127-1.128h2.584c.62 0 1.128.508 1.128 1.128v2.583a1.125 1.125 0 0 1-1.128 1.128zm-8.958 0h-2.583c-.62 0-1.128-.508-1.128-1.128v-2.583c0-.625.508-1.128 1.128-1.128h2.583c.62 0 1.128.508 1.128 1.128v2.583c0 .62-.508 1.128-1.128 1.128zm-8.963 0h-2.584c-.62 0-1.128-.508-1.128-1.128v-2.583c0-.625.508-1.128 1.128-1.128h2.584c.619 0 1.127.508 1.127 1.128v2.583a1.125 1.125 0 0 1-1.127 1.128zm-8.959 0h-2.584a1.132 1.132 0 0 1-1.128-1.128v-2.583a1.13 1.13 0 0 1 1.128-1.128h2.584c.625 0 1.133.508 1.133 1.128v2.583a1.14 1.14 0 0 1-1.133 1.128zm-8.959 0h-2.583a1.133 1.133 0 0 1-1.133-1.128v-2.583a1.13 1.13 0 0 1 1.133-1.128h2.583c.62 0 1.128.508 1.128 1.128v2.583c0 .62-.508 1.128-1.128 1.128zm26.553-9.768h-2.584c-.62 0-1.128-.509-1.128-1.128v-2.589c0-.62.508-1.128 1.128-1.128h2.584c.624 0 1.127.508 1.127 1.128v2.584a1.126 1.126 0 0 1-1.127 1.133zm-8.959 0h-2.583c-.62 0-1.128-.509-1.128-1.128v-2.589c0-.62.508-1.128 1.128-1.128h2.583c.62 0 1.128.508 1.128 1.128v2.584a1.127 1.127 0 0 1-1.128 1.133zm-8.958 0h-2.584a1.134 1.134 0 0 1-1.133-1.128v-2.589c0-.62.508-1.128 1.133-1.128h2.584c.619 0 1.128.508 1.128 1.128v2.584c0 .624-.509 1.133-1.128 1.133zm9.282 20.262h-2.584c-.62 0-1.128-.508-1.128-1.128v-2.583c0-.625.508-1.128 1.128-1.128h2.584c.619 0 1.127.508 1.127 1.128v2.583a1.125 1.125 0 0 1-1.127 1.128zm-8.959 0h-2.584a1.132 1.132 0 0 1-1.128-1.128v-2.583a1.13 1.13 0 0 1 1.128-1.128h2.584c.625 0 1.133.508 1.133 1.128v2.583a1.14 1.14 0 0 1-1.133 1.128z" fill="#E1E4E5"/><path d="M324.548 222h-.095c-.559 7.643-6.453 7.761-6.453 7.761s6.5.122 6.5 8.953c0-8.831 6.5-8.953 6.5-8.953s-5.893-.118-6.452-7.761zm-42.97 78h-.153C280.521 312.346 271 312.536 271 312.536s10.5.198 10.5 14.464c0-14.266 10.5-14.464 10.5-14.464s-9.519-.19-10.422-12.536zm125.97 40.143h-.095c-.559 7.643-6.453 7.761-6.453 7.761s6.5.122 6.5 8.953c0-8.831 6.5-8.953 6.5-8.953s-5.893-.118-6.452-7.761zm0-100.143h-.095c-.559 7.643-6.453 7.761-6.453 7.761s6.5.122 6.5 8.953c0-8.831 6.5-8.953 6.5-8.953s-5.893-.118-6.452-7.761zm-89.105 114h-.107c-.636 8.688-7.336 8.822-7.336 8.822s7.388.139 7.388 10.178c0-10.039 7.389-10.178 7.389-10.178s-6.698-.134-7.334-8.822z" fill="#E1E4E5"/></svg>