<svg width="900" height="600" viewBox="0 0 900 600" fill="none" xmlns="http://www.w3.org/2000/svg"><path fill="transparent" d="M0 0h900v600H0z"/><path fill-rule="evenodd" clip-rule="evenodd" d="M219.088 499.79c44.488 37.973 111.422 35.926 153.49-6.142 42.068-42.068 44.115-109.002 6.141-153.49L219.088 499.79z" fill="url(#a)"/><path fill="#133835" d="M426.924 371.276h153.084v151.966H426.924zm-69.705-172.079 58.47 58.47-57.68 57.678-58.469-58.47z"/><circle cx="504.584" cy="295.852" r="75.424" fill="#009688"/><circle cx="382.787" cy="133.829" r="47.489" fill="#009688"/><circle cx="272.723" cy="203.666" r="36.874" fill="#F8AE9D"/><circle cx="263.784" cy="308.702" r="27.935" fill="url(#b)"/><path d="m571.142 55.839 51.682 192.878-192.879-51.681L571.142 55.839z" fill="#F8AE9D"/><path d="m131.872 328.756 110.899 29.715-81.184 81.185-29.715-110.9z" fill="#009688"/><path d="M730.526 143.968c.639 2.553-.208 5.208-1.605 7.438-.988 1.575-2.368-.165-4.381-.443-3.114-.437-5.085-3.732-5.759-11.762-.312-5.865-.165-8.791.162-9.303 1.163-1.833 4.154-2.446 6.513-2.269" fill="#133835"/><path fill-rule="evenodd" clip-rule="evenodd" d="M724.874 492.966s.189 12.059-7.254 16.342c-7.442 4.284-18.973 12.243-18.973 12.243l43.865 1.478-1.251-30.171-16.387.108z" fill="#F8AE9D"/><path fill-rule="evenodd" clip-rule="evenodd" d="m744.042 506.254.714 19.562h-10.189l-.698-2.52s-3.836-.156-6.052.932c-2.343 1.151-2.658 1.71-2.658 1.71l-32.318.067s-1.594-6.322 8.257-10.895c9.851-4.575 17.024-11.067 18.387-11.731 1.372-.669 4.141-1.048 6.091.525 1.95 1.572 3.492 5.706 7.911 5.836 5.687.167 8.954-6.794 10.555-3.486zm12.597-210.087s-11.972 101.587-12.345 108.649c-.372 7.062 3.845 19.249 3.763 32.458-.082 13.209-1.54 59.765-1.54 59.765l-26.41.431s-11.099-84.13-11.219-96.745c-.119-12.616-1.137-103.344-1.137-103.344l48.888-1.214z" fill="#133835"/><path fill-rule="evenodd" clip-rule="evenodd" d="m788.938 490.847 5.147 31.256-18.973-.095-.601-31.651 14.427.49z" fill="#F8AE9D"/><path fill-rule="evenodd" clip-rule="evenodd" d="M791.854 504.556a3 3 0 0 1 2.361 2.833l.183 5.548c2.712 3.017 3.979 11.789 4.09 12.591a.58.58 0 0 1 .005.125c-.286 4.279-28.362 4.204-30.636.145a.665.665 0 0 1-.057-.442c.25-1.538 1.793-10.332 4.812-12.7l.02-5.488a3 3 0 0 1 2.221-2.886l3.699-.995c2.774-4.056 6.554-3.913 9.793.507l3.509.762zm-12.23-207.432s8.455 69.309 8.34 82.582c-.115 13.273-2.602 19.102.938 28.624 3.54 9.522 6.559 85.521 6.559 85.521l-26.178 2.181s-16.725-81.324-18.543-92.599c-1.819-11.275-24.297-107.266-24.297-107.266l53.181.957z" fill="#133835"/><path fill-rule="evenodd" clip-rule="evenodd" d="M649.084 172.505s2.186-12.181 1.4-14.647c-.671-2.132-7.016-5.206-7.016-5.206s-11.036-17.433-13.451-15.658c-1.964 1.439 5.747 14.291 5.747 14.291s-7.032 7.378-6.934 10.676c.099 3.298 11.478 13.623 11.478 13.623l8.776-3.079zm113.423 2.862s-7.268-1.706-7.52-13.615c-.252-11.909-.075-15.974-.075-15.974l-17.231-.289s-.174 13.272-.177 18.073c-.006 10.451-7.768 13.275-7.768 13.275s.645 11.428 15.151 12.244c11.327.637 17.62-13.714 17.62-13.714z" fill="#F8AE9D"/><path fill-rule="evenodd" clip-rule="evenodd" d="M756.495 139.758c7.141-.276 5.976 10.179-1.443 10.165 0 0-7.973 16.031-20.49 16.073-6.03.02-7.998-5.351-9.806-9.122-1.808-3.77-3.134-9.41-3.244-12.863-.119-3.682-.134-15.778-.134-15.778l35.395-.016-.278 11.541z" fill="#F8AE9D"/><path fill-rule="evenodd" clip-rule="evenodd" d="M729.465 176.128s-18.563 5.794-23.036 12.716c-14.41 12.659-32.432 30.044-32.432 30.044s-17.165-43.079-22.776-47.991c-3.84-3.361-11.49.795-12.915 5.065-1.831 5.486 9.925 37.659 15.477 52.854h.001v.003c1.076 2.943 1.918 5.248 2.384 6.6 3.386 9.822 11.624 15.456 21.648 9.213 4.041-2.517 16.066-10.763 26.326-18.239.16 7.853.431 16.128.687 23.987v.003c.624 19.095 1.167 35.735-.138 37.897-6.472 10.718 2.132 18.075 30.617 20.778 28.485 2.703 53.756.489 49.17-13.813-.956-2.981-.944-9.395-.467-17.729a331.84 331.84 0 0 0 8.365-.551c11.888-.937 20.68-6.045 21.906-19.311.859-9.29-16.839-52.904-23.476-67.245-1.552-3.355-3.953-5.444-6.672-6.485-.633-.707-1.347-1.203-2.148-1.467-4.875-1.607-22.354-8.95-22.354-8.95l-20.792 13.604-9.375-10.983zm56.472 76.772.046.121-.057.007.011-.128z" fill="#009688"/><path fill-rule="evenodd" clip-rule="evenodd" d="M739.8 264.41s-6.342-1.275-8.938-3.312c-2.594-2.038-10.455-3.478-10.455-3.478l2.515 5.295s-19.265-1.808-19.721.092c-.457 1.901 5.115 3.967 5.115 3.967s2.748 5.133 5.408 8.108c2.517 2.815 15.022 2.48 19.405.723 3.788-1.518 7.907-.759 7.907-.759L739.8 264.41z" fill="#F8AE9D"/><path d="M754.552 128.71c-1.043 1.366-2.883 1.667-4.399 1.938-2.037.362-3.045 1.119-4.103 3.148-.67 1.297-1.339 2.717-2.538 3.419-.976.575-.946-.879-1.091-2.003a2.21 2.21 0 0 0-.061-.311c-.233-.899-1.187-.748-1.463.138-.254.803-.797 1.482-1.488 1.86-.113.062-.232.116-.352.092-.162-.023-.289-.177-.395-.316-.22-.289-.439-.655-.664-1.043-.746-1.283-2.169-.833-3.002.395-.522.764-1.142 1.551-1.995 1.729-.275.061-.621.015-.747-.255-.163-.332.091-.664.049-1.003-.035-.317-.169-.456-.317-.726-.578-1.042-1.916-1.08-2.731-.212a30.31 30.31 0 0 1-1.774 1.74c-.261.232-.642.463-.903.232-.141-.124-.176-.332-.204-.533-.148-.98-.289-1.96-.437-2.94-.085-.548-.374-1.266-.867-1.127-.24.069-.381.324-.515.556-.162.293-3.06 3.635-3.116 3.38-.451-1.899-1.375-3.627-1.826-5.526-2.919-12.217 10.032-22.042 19.923-22.096 2.2-.015 4.209.021 6.345.538 2.277.556 4.681 1.438 6.747 2.681 2.897 1.736 5.09 4.893 4.526 8.659" fill="#133835"/><path d="M746.509 124.761c-1.395 1.596-1.764 3.84-1.894 5.96-.191 3.197.068 6.519 1.531 9.357.418.808.725 4.807 1.368 4.586.205-.069.171-3.17.711-4.841.834-2.59 4.676-3.577 6.406-1.941 2.762 2.604 1.142 5.767.226 7.735-.547 1.188-1.415 2.521-1.566 3.777-.184 1.61-.239 7.473.8 8.84.868 1.146 1.791-4.392 2.578-5.483 5.818-8.128 11.397-28.825 1.463-33.314-1.511-.684-6.174-1.036-7.589-.166" fill="#133835"/><rect x="277.997" y="371.276" width="19.71" height="64.347" rx="9.855" transform="rotate(45 277.997 371.276)" fill="#E1E4E5"/><rect x="221.418" y="249.48" width="15.399" height="44.382" rx="7.7" transform="rotate(45 221.418 249.48)" fill="#E1E4E5"/><rect x="309.746" y="100.866" width="14.803" height="44.456" rx="7.402" transform="rotate(45 309.746 100.866)" fill="#E1E4E5"/><rect x="491.034" y="84.105" width="16.045" height="44.838" rx="8.022" transform="rotate(45 491.034 84.105)" fill="#E1E4E5"/><path d="M396.902 510.268c5.48-1.298 11.276 3.349 11.276 3.349s-3.093 6.75-8.575 8.044c-5.48 1.299-11.274-3.345-11.274-3.345s3.093-6.75 8.573-8.048z" fill="url(#c)"/><path d="M427.645 223.834c-4.858-3.345-12.278-1.007-12.278-1.007s.459 7.763 5.32 11.105c4.857 3.346 12.274 1.01 12.274 1.01s-.459-7.762-5.316-11.108z" fill="url(#d)"/><path d="M645.214 332.709c-7.336-7.467-21.055-5.893-21.055-5.893s-1.816 13.681 5.528 21.144c7.336 7.466 21.048 5.897 21.048 5.897s1.816-13.681-5.521-21.148z" fill="url(#e)"/><ellipse cx="199.741" cy="226.136" rx="14.175" ry="13.53" fill="#009688"/><circle cx="624.352" cy="94.927" r="14.175" fill="#009688"/><ellipse rx="12.886" ry="13.53" transform="matrix(1 0 0 -1 198.452 456.32)" fill="#009688"/><circle r="10.953" transform="matrix(1 0 0 -1 787.624 276.076)" fill="#009688"/><circle r="6.551" transform="matrix(1 0 0 -1 415.597 210.217)" fill="#fff"/><circle r="6.89" transform="matrix(1 0 0 -1 509.798 77.586)" fill="#E1E4E5"/><circle r="3.395" transform="matrix(1 0 0 -1 330.632 330.66)" fill="#E1E4E5"/><circle r="5.182" transform="matrix(1 0 0 -1 403.054 518.368)" fill="#fff"/><circle r="6.852" transform="matrix(0 -1 -1 0 601.387 285.384)" fill="#E1E4E5"/><circle r="7.087" transform="matrix(1 0 0 -1 625.087 421.942)" fill="#E1E4E5"/><ellipse rx="12.242" ry="9.665" transform="scale(1 -1) rotate(45.482 420.671 27.27)" fill="#E1E4E5"/><circle r="7.054" transform="scale(-1 1) rotate(-75 7.118 430.94)" fill="#fff"/><path d="M316.211 374.728h-.091c-.537-7.613-6.199-7.73-6.199-7.73s6.243-.122 6.243-8.918c0 8.796 6.243 8.918 6.243 8.918s-5.659.117-6.196 7.73zm299.166-240.81h-.106c-.63-9.108-7.271-9.248-7.271-9.248s7.323-.146 7.323-10.67c0 10.524 7.322 10.67 7.322 10.67s-6.637.14-7.268 9.248z" fill="#E1E4E5"/><defs><linearGradient id="a" x1="417.287" y1="531.55" x2="221.093" y2="337.453" gradientUnits="userSpaceOnUse"><stop stop-color="#fff"/><stop offset="1" stop-color="#EEE"/></linearGradient><linearGradient id="b" x1="264.975" y1="367.961" x2="263.252" y2="219.99" gradientUnits="userSpaceOnUse"><stop stop-color="#fff"/><stop offset="1" stop-color="#EEE"/></linearGradient><linearGradient id="c" x1="417.538" y1="507.04" x2="369.565" y2="529.704" gradientUnits="userSpaceOnUse"><stop stop-color="#fff"/><stop offset="1" stop-color="#EEE"/></linearGradient><linearGradient id="d" x1="408.723" y1="212.857" x2="446.959" y2="253.175" gradientUnits="userSpaceOnUse"><stop stop-color="#fff"/><stop offset="1" stop-color="#EEE"/></linearGradient><linearGradient id="e" x1="615.943" y1="307.204" x2="668.981" y2="390.345" gradientUnits="userSpaceOnUse"><stop stop-color="#fff"/><stop offset="1" stop-color="#EEE"/></linearGradient></defs></svg>