<svg width="900" height="600" viewBox="0 0 900 600" fill="none" xmlns="http://www.w3.org/2000/svg"><path fill="transparent" d="M0 0h900v600H0z"/><path fill-rule="evenodd" clip-rule="evenodd" d="M596 276c-43.076 0-78-34.924-78-78s34.924-78 78-78 78 34.924 78 78-34.924 78-78 78z" fill="#009688"/><path d="m630.007 182.676-42.503 43.286-25.518-25.968" stroke="#fff" stroke-width="15" stroke-linecap="round" stroke-linejoin="round"/><path fill-rule="evenodd" clip-rule="evenodd" d="M457.817 383.751c-56.348 0-102.032-45.685-102.032-102.032 0-56.347 45.684-102.032 102.032-102.032 56.347 0 102.032 45.685 102.032 102.032 0 56.347-45.685 102.032-102.032 102.032z" fill="#009688"/><path d="m491.827 266.26-42.503 43.286-25.518-25.968" stroke="#fff" stroke-width="15" stroke-linecap="round" stroke-linejoin="round"/><path fill-rule="evenodd" clip-rule="evenodd" d="M319.5 443c-43.352 0-78.5-35.148-78.5-78.5s35.148-78.5 78.5-78.5 78.5 35.148 78.5 78.5-35.148 78.5-78.5 78.5z" fill="#009688"/><path d="m353.648 348.86-42.504 43.287-25.518-25.968" stroke="#fff" stroke-width="15" stroke-linecap="round" stroke-linejoin="round"/><rect x="320.069" y="142.74" width="52.381" height="138.341" rx="26.191" transform="rotate(53.426 320.069 142.74)" fill="#E1E4E5"/><rect x="318.422" y="150.615" width="41.636" height="41.636" rx="20.818" transform="rotate(53.426 318.422 150.615)" fill="#fff"/><rect x="642.047" y="341.354" width="52.381" height="138.341" rx="26.191" transform="rotate(53.426 642.047 341.354)" fill="#E1E4E5"/><rect x="640.4" y="349.23" width="41.636" height="41.636" rx="20.818" transform="rotate(53.426 640.4 349.23)" fill="#fff"/><path d="M697.487 319.94c15.215-18.093 41.944-47.618 27.14-20.971-18.504 33.308 15.421 11.102 27.14 0 11.72-11.103 39.476-19.122 19.738 9.869-19.738 28.99 37.009 11.719 47.495-9.869M80.672 319.94c15.214-18.093 41.943-47.618 27.14-20.971-18.505 33.308 15.42 11.102 27.139 0 11.72-11.103 39.477-19.122 19.739 9.869-19.739 28.99 37.008 11.719 47.494-9.869m188.129 202.315c15.215-18.093 41.943-47.618 27.14-20.972-18.505 33.308 15.42 11.103 27.14 0 11.719-11.102 39.476-19.121 19.738 9.869-19.738 28.991 37.009 11.72 47.495-9.869m-151.12-352.818c15.215-18.093 41.944-47.618 27.14-20.972-18.505 33.308 15.42 11.103 27.14 0 11.719-11.103 39.476-19.121 19.738 9.869-19.738 28.991 37.009 11.72 47.495-9.869" stroke="#E1E4E5" stroke-width="4"/><circle cx="132.484" cy="441.278" r="35.009" fill="#009688" stroke="#fff" stroke-width="4"/><circle cx="781.374" cy="157.543" r="35.009" fill="#009688" stroke="#fff" stroke-width="4"/><circle cx="132.484" cy="484.456" r="35.009" fill="#009688" stroke="#fff" stroke-width="4"/><circle cx="781.374" cy="200.72" r="35.009" fill="#009688" stroke="#fff" stroke-width="4"/><path fill-rule="evenodd" clip-rule="evenodd" d="M107.123 197.537h4.076c.986 0 1.78.802 1.78 1.779v4.076a1.78 1.78 0 0 1-1.78 1.779h-4.076a1.785 1.785 0 0 1-1.779-1.779v-4.076a1.776 1.776 0 0 1 1.779-1.779zm14.132 0h4.076c.978 0 1.779.802 1.779 1.779v4.076a1.78 1.78 0 0 1-1.779 1.779h-4.076a1.785 1.785 0 0 1-1.779-1.779v-4.076c0-.977.802-1.779 1.779-1.779zm14.141 0h4.076c.978 0 1.779.802 1.779 1.779v4.076a1.78 1.78 0 0 1-1.779 1.779h-4.076a1.785 1.785 0 0 1-1.779-1.779v-4.076a1.776 1.776 0 0 1 1.779-1.779zm14.132 0h4.076c.978 0 1.78.802 1.78 1.779v4.076a1.78 1.78 0 0 1-1.78 1.779h-4.076a1.787 1.787 0 0 1-1.787-1.779v-4.076a1.798 1.798 0 0 1 1.787-1.779zm14.133 0h4.076c.986 0 1.788.802 1.788 1.779v4.076c0 .986-.802 1.779-1.788 1.779h-4.076a1.785 1.785 0 0 1-1.779-1.779v-4.076c0-.977.802-1.779 1.779-1.779zm-41.888 15.411h4.076c.978 0 1.779.801 1.779 1.779v4.084c0 .977-.801 1.779-1.779 1.779h-4.076a1.78 1.78 0 0 1-1.779-1.779v-4.076a1.777 1.777 0 0 1 1.779-1.787zm14.132 0h4.076c.978 0 1.779.801 1.779 1.779v4.084c0 .977-.801 1.779-1.779 1.779h-4.076a1.786 1.786 0 0 1-1.779-1.779v-4.076a1.777 1.777 0 0 1 1.779-1.787zm14.133 0h4.076c.986 0 1.788.801 1.788 1.779v4.084c0 .977-.802 1.779-1.788 1.779h-4.076a1.786 1.786 0 0 1-1.779-1.779v-4.076c0-.986.802-1.787 1.779-1.787zm-14.642-31.966h4.076c.978 0 1.779.802 1.779 1.779v4.076a1.78 1.78 0 0 1-1.779 1.78h-4.076a1.786 1.786 0 0 1-1.779-1.78v-4.076a1.776 1.776 0 0 1 1.779-1.779zm14.132 0h4.076c.978 0 1.78.802 1.78 1.779v4.076c0 .986-.802 1.78-1.78 1.78h-4.076a1.788 1.788 0 0 1-1.787-1.78v-4.076a1.798 1.798 0 0 1 1.787-1.779zm596.616 199.133h4.076c.986 0 1.78.801 1.78 1.779v4.076c0 .985-.802 1.779-1.78 1.779h-4.076a1.786 1.786 0 0 1-1.779-1.779v-4.076a1.775 1.775 0 0 1 1.779-1.779zm14.132 0h4.076c.977 0 1.779.801 1.779 1.779v4.076a1.78 1.78 0 0 1-1.779 1.779h-4.076a1.786 1.786 0 0 1-1.779-1.779v-4.076c0-.978.802-1.779 1.779-1.779zm14.141 0h4.076c.978 0 1.779.801 1.779 1.779v4.076a1.78 1.78 0 0 1-1.779 1.779h-4.076a1.786 1.786 0 0 1-1.779-1.779v-4.076a1.775 1.775 0 0 1 1.779-1.779zm14.132 0h4.076c.978 0 1.78.801 1.78 1.779v4.076c0 .985-.802 1.779-1.78 1.779h-4.076a1.788 1.788 0 0 1-1.787-1.779v-4.076a1.798 1.798 0 0 1 1.787-1.779zm14.133 0h4.076c.986 0 1.788.801 1.788 1.779v4.076c0 .985-.802 1.779-1.788 1.779h-4.076a1.786 1.786 0 0 1-1.779-1.779v-4.076c0-.978.802-1.779 1.779-1.779zm-41.888 15.41h4.076c.978 0 1.779.802 1.779 1.779v4.084c0 .978-.801 1.78-1.779 1.78h-4.076a1.781 1.781 0 0 1-1.779-1.78v-4.076a1.778 1.778 0 0 1 1.779-1.787zm14.132 0h4.076c.977 0 1.779.802 1.779 1.779v4.084c0 .978-.802 1.78-1.779 1.78h-4.076a1.786 1.786 0 0 1-1.779-1.78v-4.076a1.778 1.778 0 0 1 1.779-1.787zm14.133 0h4.076c.986 0 1.788.802 1.788 1.779v4.084c0 .978-.802 1.78-1.788 1.78h-4.076a1.786 1.786 0 0 1-1.779-1.78v-4.076c0-.985.802-1.787 1.779-1.787zm-14.642-31.965h4.076c.978 0 1.779.802 1.779 1.779v4.076a1.78 1.78 0 0 1-1.779 1.779h-4.076a1.786 1.786 0 0 1-1.779-1.779v-4.076a1.776 1.776 0 0 1 1.779-1.779zm14.132 0h4.076c.978 0 1.78.802 1.78 1.779v4.076c0 .985-.802 1.779-1.78 1.779h-4.076a1.788 1.788 0 0 1-1.787-1.779v-4.076a1.798 1.798 0 0 1 1.787-1.779z" fill="#E1E4E5"/><path d="m258.032 505.904-10.294 10.284-5.001-4.986m244.092-89.19-10.294 10.284-5.001-4.986m240.823-.94-10.294 10.284-5.001-4.986m30.548-309.27-10.294 10.284-5.001-4.986M527.141 78.817l-10.294 10.284-5.001-4.986M191.572 241.154l-10.294 10.284-5.001-4.986m7.669 127.622-10.294 10.284-5.001-4.986" stroke="#E1E4E5" stroke-width="5.5" stroke-linecap="round" stroke-linejoin="round"/></svg>