<svg width="900" height="600" viewBox="0 0 900 600" fill="none" xmlns="http://www.w3.org/2000/svg"><path fill="transparent" d="M0 0h900v600H0z"/><path fill-rule="evenodd" clip-rule="evenodd" d="M454.78 438.232S334.104 341.873 334.104 253.87c0-64.803 54.033-117.327 120.676-117.327s120.675 52.524 120.675 117.327c0 88.003-120.675 184.362-120.675 184.362z" fill="#009688" stroke="#009688" stroke-width="43.158" stroke-linecap="round" stroke-linejoin="round"/><path d="M454.754 243.08c-8.05 0-14.521 6.369-14.521 14.164 0 7.796 6.522 14.114 14.572 14.114 8.051 0 14.522-6.318 14.522-14.165.051-7.744-6.471-14.113-14.573-14.113" stroke="#fff" stroke-width="73.387" stroke-linecap="round" stroke-linejoin="round"/><path fill-rule="evenodd" clip-rule="evenodd" d="M86.214 419.126h2.78c.673 0 1.214.547 1.214 1.214v2.78c0 .673-.547 1.214-1.213 1.214h-2.78A1.218 1.218 0 0 1 85 423.12v-2.78a1.211 1.211 0 0 1 1.214-1.214zm9.64 0h2.78c.667 0 1.214.547 1.214 1.214v2.78c0 .673-.547 1.214-1.213 1.214h-2.78a1.218 1.218 0 0 1-1.214-1.214v-2.78c0-.667.547-1.214 1.213-1.214zm9.647 0h2.78c.667 0 1.214.547 1.214 1.214v2.78c0 .673-.547 1.214-1.214 1.214h-2.78a1.218 1.218 0 0 1-1.214-1.214v-2.78a1.212 1.212 0 0 1 1.214-1.214zm9.64 0h2.781c.667 0 1.213.547 1.213 1.214v2.78c0 .673-.546 1.214-1.213 1.214h-2.781a1.22 1.22 0 0 1-1.219-1.214v-2.78a1.227 1.227 0 0 1 1.219-1.214zm9.641 0h2.781a1.22 1.22 0 0 1 1.219 1.214v2.78c0 .673-.547 1.214-1.219 1.214h-2.781a1.218 1.218 0 0 1-1.213-1.214v-2.78c0-.667.547-1.214 1.213-1.214zm-28.574 10.513h2.78c.667 0 1.214.547 1.214 1.213v2.786c0 .667-.547 1.214-1.214 1.214h-2.78a1.215 1.215 0 0 1-1.214-1.214v-2.78a1.212 1.212 0 0 1 1.214-1.219zm9.64 0h2.781c.666 0 1.213.547 1.213 1.213v2.786c0 .667-.547 1.214-1.213 1.214h-2.781a1.218 1.218 0 0 1-1.214-1.214v-2.78a1.213 1.213 0 0 1 1.214-1.219zm9.641 0h2.781a1.22 1.22 0 0 1 1.219 1.213v2.786a1.22 1.22 0 0 1-1.219 1.214h-2.781a1.218 1.218 0 0 1-1.214-1.214v-2.78a1.22 1.22 0 0 1 1.214-1.219zm-9.988-21.806h2.78c.667 0 1.214.547 1.214 1.213v2.781c0 .672-.547 1.214-1.214 1.214h-2.78a1.218 1.218 0 0 1-1.214-1.214v-2.781a1.212 1.212 0 0 1 1.214-1.213zm9.64 0h2.781c.667 0 1.213.547 1.213 1.213v2.781c0 .672-.546 1.214-1.213 1.214h-2.781a1.22 1.22 0 0 1-1.219-1.214v-2.781a1.227 1.227 0 0 1 1.219-1.213zm695.637 7.379h-2.8c-.677 0-1.222.55-1.222 1.222v2.799c0 .677.551 1.222 1.222 1.222h2.8c.671 0 1.222-.551 1.222-1.222v-2.799a1.219 1.219 0 0 0-1.222-1.222zm-9.706 0h-2.8c-.671 0-1.222.55-1.222 1.222v2.799c0 .677.551 1.222 1.222 1.222h2.8c.671 0 1.222-.551 1.222-1.222v-2.799c0-.672-.551-1.222-1.222-1.222zm-9.713 0h-2.8c-.671 0-1.222.55-1.222 1.222v2.799c0 .677.551 1.222 1.222 1.222h2.8c.671 0 1.222-.551 1.222-1.222v-2.799a1.219 1.219 0 0 0-1.222-1.222zm-9.706 0h-2.8c-.671 0-1.222.55-1.222 1.222v2.799c0 .677.551 1.222 1.222 1.222h2.8c.677 0 1.227-.551 1.227-1.222v-2.799a1.234 1.234 0 0 0-1.227-1.222zm-9.708 0h-2.799c-.677 0-1.228.55-1.228 1.222v2.799c0 .677.551 1.222 1.228 1.222h2.799c.672 0 1.222-.551 1.222-1.222v-2.799c0-.672-.55-1.222-1.222-1.222zm28.771 10.584h-2.8c-.671 0-1.222.551-1.222 1.222v2.805c0 .672.551 1.222 1.222 1.222h2.8c.677 0 1.222-.55 1.222-1.222v-2.799a1.22 1.22 0 0 0-1.222-1.228zm-9.707 0h-2.799c-.671 0-1.222.551-1.222 1.222v2.805c0 .672.551 1.222 1.222 1.222h2.799c.672 0 1.222-.55 1.222-1.222v-2.799a1.22 1.22 0 0 0-1.222-1.228zm-9.707 0h-2.799c-.677 0-1.228.551-1.228 1.222v2.805c0 .672.551 1.222 1.228 1.222h2.799c.671 0 1.222-.55 1.222-1.222v-2.799c0-.677-.551-1.228-1.222-1.228zm10.057-21.955h-2.8c-.671 0-1.222.551-1.222 1.222v2.8c0 .677.551 1.222 1.222 1.222h2.8c.671 0 1.222-.551 1.222-1.222v-2.8a1.22 1.22 0 0 0-1.222-1.222zm-9.706 0h-2.8c-.671 0-1.222.551-1.222 1.222v2.8c0 .677.551 1.222 1.222 1.222h2.8c.677 0 1.227-.551 1.227-1.222v-2.8a1.235 1.235 0 0 0-1.227-1.222zM608.214 175.293h2.78c.672 0 1.214.547 1.214 1.214v2.781c0 .672-.547 1.213-1.214 1.213h-2.78a1.218 1.218 0 0 1-1.214-1.213v-2.781a1.21 1.21 0 0 1 1.214-1.214zm9.64 0h2.781c.666 0 1.213.547 1.213 1.214v2.781c0 .672-.547 1.213-1.213 1.213h-2.781a1.218 1.218 0 0 1-1.214-1.213v-2.781c0-.667.547-1.214 1.214-1.214zm9.647 0h2.78c.667 0 1.214.547 1.214 1.214v2.781c0 .672-.547 1.213-1.214 1.213h-2.78a1.218 1.218 0 0 1-1.214-1.213v-2.781a1.21 1.21 0 0 1 1.214-1.214zm9.64 0h2.78c.667 0 1.214.547 1.214 1.214v2.781c0 .672-.547 1.213-1.214 1.213h-2.78a1.22 1.22 0 0 1-1.22-1.213v-2.781a1.228 1.228 0 0 1 1.22-1.214zm9.641 0h2.781a1.22 1.22 0 0 1 1.219 1.214v2.78c0 .673-.547 1.214-1.219 1.214h-2.781a1.218 1.218 0 0 1-1.214-1.214v-2.78c0-.667.547-1.214 1.214-1.214zm-28.575 10.513h2.781c.666 0 1.213.547 1.213 1.213v2.787c0 .666-.547 1.213-1.213 1.213h-2.781a1.214 1.214 0 0 1-1.213-1.213v-2.781a1.212 1.212 0 0 1 1.213-1.219zm9.641 0h2.78c.667 0 1.214.547 1.214 1.213v2.787c0 .666-.547 1.213-1.214 1.213h-2.78a1.218 1.218 0 0 1-1.214-1.213v-2.781a1.212 1.212 0 0 1 1.214-1.219zm9.641 0h2.78c.673 0 1.22.547 1.22 1.213v2.787a1.22 1.22 0 0 1-1.22 1.213h-2.78a1.218 1.218 0 0 1-1.214-1.213v-2.781a1.22 1.22 0 0 1 1.214-1.219zM627.501 164h2.78c.667 0 1.214.547 1.214 1.214v2.78c0 .673-.547 1.214-1.214 1.214h-2.78a1.218 1.218 0 0 1-1.214-1.214v-2.78a1.21 1.21 0 0 1 1.214-1.214zm9.64 0h2.78c.667 0 1.214.547 1.214 1.214v2.78c0 .673-.547 1.214-1.214 1.214h-2.78a1.22 1.22 0 0 1-1.22-1.214v-2.78a1.228 1.228 0 0 1 1.22-1.214zm-515.11 199.383v-27.794c0-8.529 6.924-15.441 15.469-15.441 8.545 0 15.469 6.912 15.469 15.441v27.794H187v-53.031c0-3.273-1.305-6.417-3.626-8.733l-41.499-41.425a6.188 6.188 0 0 0-8.749 0l-41.5 41.425A12.345 12.345 0 0 0 88 310.352v53.031h34.031zM781.562 358v-20.911c0-6.418-5.175-11.618-11.562-11.618s-11.562 5.2-11.562 11.618V358H733v-39.899c0-2.463.976-4.828 2.71-6.571l31.02-31.167a4.605 4.605 0 0 1 6.54 0l31.02 31.167a9.322 9.322 0 0 1 2.71 6.571V358h-25.438zm-556.531-72.617v-19.059c0-5.849 4.686-10.588 10.469-10.588 5.783 0 10.469 4.739 10.469 10.588v19.059H269v-36.364c0-2.245-.883-4.4-2.454-5.989l-28.085-28.405a4.15 4.15 0 0 0-5.921 0l-28.086 28.405a8.526 8.526 0 0 0-2.454 5.989v36.364h23.031zM694.969 293v-19.058c0-5.849-4.686-10.589-10.469-10.589-5.783 0-10.469 4.74-10.469 10.589V293H651v-36.364c0-2.244.884-4.4 2.454-5.988l28.085-28.406a4.15 4.15 0 0 1 5.922 0l28.085 28.406a8.523 8.523 0 0 1 2.454 5.988V293h-23.031zM248.032 447.383v-28.059c0-8.61 6.924-15.588 15.468-15.588 8.545 0 15.469 6.978 15.469 15.588v28.059H313v-53.536c0-3.304-1.305-6.478-3.625-8.816l-41.5-41.82a6.147 6.147 0 0 0-8.749 0l-41.5 41.82a12.524 12.524 0 0 0-3.626 8.816v53.536h34.032zM656.219 443v-21.176c0-6.499-5.246-11.765-11.719-11.765-6.473 0-11.719 5.266-11.719 11.765V443H607v-40.404c0-2.494.989-4.889 2.747-6.654l31.439-31.562a4.67 4.67 0 0 1 6.628 0l31.439 31.562a9.433 9.433 0 0 1 2.747 6.654V443h-25.781z" fill="#E1E4E5"/><circle cx="167.5" cy="404.883" r="5.5" transform="rotate(-180 167.5 404.883)" fill="#E1E4E5"/><circle r="5.5" transform="matrix(1 0 0 -1 728.5 400.5)" fill="#E1E4E5"/><circle r="4" transform="matrix(-1 0 0 1 166 241.383)" fill="#E1E4E5"/><circle cx="754.5" cy="248.5" r="3.5" fill="#E1E4E5"/><circle r="5.5" transform="matrix(-1 0 0 1 227.5 320.883)" fill="#E1E4E5"/><ellipse cx="692.5" cy="329" rx="5.5" ry="5" fill="#E1E4E5"/><circle r="9.488" transform="matrix(-1 0 0 1 381.685 208.767)" fill="#009688"/><circle r="3.5" transform="matrix(-1 0 0 1 221.5 430.883)" fill="#E1E4E5"/><ellipse cx="699" cy="439.5" rx="4" ry="3.5" fill="#E1E4E5"/><circle r="6.75" transform="matrix(-1 0 0 1 577.735 387.325)" fill="#E1E4E5"/><circle r="3.671" transform="scale(1 -1) rotate(-75 -116.212 -261.958)" fill="#E1E4E5"/><circle cx="753.837" cy="314.202" r="3.696" transform="rotate(105 753.837 314.202)" fill="#E1E4E5"/><circle r="5" transform="matrix(-1 0 0 1 223 241.383)" fill="#E1E4E5"/><ellipse cx="697.5" cy="249" rx="4.5" ry="5" fill="#E1E4E5"/><ellipse rx="4.518" ry="3.614" transform="matrix(-1 0 0 1 386.892 446.762)" fill="#E1E4E5"/><circle r="9.188" transform="scale(1 -1) rotate(-75 107.54 -288.903)" fill="#E1E4E5"/><path d="M544.195 435.997h.119c.699 9.916 8.074 10.069 8.074 10.069s-8.132.159-8.132 11.617c0-11.458-8.132-11.617-8.132-11.617s7.372-.153 8.071-10.069zM208.933 184.383h.131c.775 10.974 8.936 11.143 8.936 11.143s-9 .176-9 12.857c0-12.681-9-12.857-9-12.857s8.159-.169 8.933-11.143zM711.067 191h-.131c-.775 10.975-8.936 11.143-8.936 11.143s9 .176 9 12.857c0-12.681 9-12.857 9-12.857s-8.159-.168-8.933-11.143z" fill="#E1E4E5"/></svg>