<svg width="900" height="600" viewBox="0 0 900 600" fill="none" xmlns="http://www.w3.org/2000/svg"><path fill="transparent" d="M0 0h900v600H0z"/><rect x="126" y="97" width="647.229" height="406.909" rx="28" fill="#fff" stroke="#E1E4E5" stroke-width="4"/><path fill-rule="evenodd" clip-rule="evenodd" d="M263.618 228.195a4.234 4.234 0 0 1-4.491-.297 4.274 4.274 0 0 1-1.706-4.182l3.074-17.857-13.017-12.652a4.277 4.277 0 0 1-1.059-4.367 4.252 4.252 0 0 1 3.425-2.895l17.995-2.606 8.038-16.261a4.283 4.283 0 0 1 3.831-2.376c1.622 0 3.105.92 3.832 2.376l8.038 16.261 17.995 2.606a4.253 4.253 0 0 1 3.425 2.895 4.277 4.277 0 0 1-1.06 4.367l-13.023 12.645 3.073 17.857a4.276 4.276 0 0 1-1.701 4.188 4.237 4.237 0 0 1-4.496.298l-16.09-8.422-16.083 8.422zm85 0a4.234 4.234 0 0 1-4.491-.297 4.274 4.274 0 0 1-1.706-4.182l3.074-17.857-13.017-12.652a4.277 4.277 0 0 1-1.059-4.367 4.252 4.252 0 0 1 3.425-2.895l17.995-2.606 8.038-16.261a4.283 4.283 0 0 1 3.831-2.376c1.622 0 3.105.92 3.832 2.376l8.038 16.261 17.995 2.606a4.253 4.253 0 0 1 3.425 2.895 4.277 4.277 0 0 1-1.06 4.367l-13.023 12.645 3.073 17.857a4.276 4.276 0 0 1-1.701 4.188 4.237 4.237 0 0 1-4.496.298l-16.09-8.422-16.083 8.422zm85 0a4.234 4.234 0 0 1-4.491-.297 4.274 4.274 0 0 1-1.706-4.182l3.074-17.857-13.017-12.652a4.277 4.277 0 0 1-1.059-4.367 4.252 4.252 0 0 1 3.425-2.895l17.995-2.606 8.038-16.261a4.283 4.283 0 0 1 3.831-2.376c1.622 0 3.105.92 3.832 2.376l8.038 16.261 17.995 2.606a4.253 4.253 0 0 1 3.425 2.895 4.277 4.277 0 0 1-1.06 4.367l-13.023 12.645 3.073 17.857a4.276 4.276 0 0 1-1.701 4.188 4.237 4.237 0 0 1-4.496.298l-16.09-8.422-16.083 8.422zm85 0a4.234 4.234 0 0 1-4.491-.297 4.274 4.274 0 0 1-1.706-4.182l3.074-17.857-13.017-12.652a4.277 4.277 0 0 1-1.059-4.367 4.252 4.252 0 0 1 3.425-2.895l17.995-2.606 8.038-16.261a4.283 4.283 0 0 1 3.831-2.376c1.622 0 3.105.92 3.832 2.376l8.038 16.261 17.995 2.606a4.253 4.253 0 0 1 3.425 2.895 4.277 4.277 0 0 1-1.06 4.367l-13.023 12.645 3.073 17.857a4.276 4.276 0 0 1-1.701 4.188 4.237 4.237 0 0 1-4.496.298l-16.09-8.422-16.083 8.422zm85 0a4.234 4.234 0 0 1-4.491-.297 4.274 4.274 0 0 1-1.706-4.182l3.074-17.857-13.017-12.652a4.277 4.277 0 0 1-1.059-4.367 4.252 4.252 0 0 1 3.425-2.895l17.995-2.606 8.038-16.261a4.283 4.283 0 0 1 3.831-2.376c1.622 0 3.105.92 3.832 2.376l8.038 16.261 17.995 2.606a4.253 4.253 0 0 1 3.425 2.895 4.277 4.277 0 0 1-1.06 4.367l-13.023 12.645 3.073 17.857a4.276 4.276 0 0 1-1.701 4.188 4.237 4.237 0 0 1-4.496.298l-16.09-8.422-16.083 8.422z" fill="#009688"/><rect x="167.091" y="126.884" width="20.904" height="20.904" rx="10.452" fill="#fff" stroke="#E1E4E5" stroke-width="4"/><circle r="6" transform="matrix(1 0 0 -1 171.208 379.702)" fill="#009688"/><circle r="6.596" transform="matrix(-1 0 0 1 671.265 338.35)" fill="#009688"/><circle cx="483.208" cy="376.702" r="5" fill="#009688"/><circle cx="490.708" cy="465.556" transform="rotate(180 490.708 465.556)" fill="#009688" r="5.5"/><circle r="7" transform="matrix(-1 0 0 1 205.208 400.702)" fill="#E1E4E5"/><rect x="719.196" y="144.165" width="29.967" height="3.491" rx="1.746" transform="rotate(-45 719.196 144.165)" fill="#E1E4E5"/><rect x="730.686" y="144.247" width="11.127" height="3.491" rx="1.746" transform="rotate(-45 730.686 144.247)" fill="#E1E4E5"/><rect x="143.923" y="461.924" width="26.812" height="3.124" rx="1.562" transform="rotate(-45 143.923 461.924)" fill="#E1E4E5"/><rect x="154.203" y="461.998" width="9.955" height="3.124" rx="1.562" transform="rotate(-45 154.203 461.998)" fill="#E1E4E5"/><rect x="192.224" y="198.968" width="26.619" height="3.101" rx="1.551" transform="rotate(135 192.224 198.968)" fill="#E1E4E5"/><rect x="182.018" y="198.895" width="9.884" height="3.101" rx="1.551" transform="rotate(135 182.018 198.895)" fill="#E1E4E5"/><rect x="748.004" y="442.335" width="36.49" height="4.251" rx="2.126" transform="rotate(135 748.004 442.335)" fill="#E1E4E5"/><rect x="734.014" y="442.236" width="13.549" height="4.251" rx="2.126" transform="rotate(135 734.014 442.236)" fill="#E1E4E5"/><path fill-rule="evenodd" clip-rule="evenodd" d="M678.794 267.459h3.633c.879 0 1.586.715 1.586 1.586v3.633c0 .878-.714 1.586-1.586 1.586h-3.633a1.592 1.592 0 0 1-1.586-1.586v-3.633a1.583 1.583 0 0 1 1.586-1.586zm12.597 0h3.633c.871 0 1.586.715 1.586 1.586v3.633c0 .878-.715 1.586-1.586 1.586h-3.633a1.592 1.592 0 0 1-1.586-1.586v-3.633c0-.871.715-1.586 1.586-1.586zm12.605 0h3.633c.871 0 1.586.715 1.586 1.586v3.633c0 .878-.715 1.586-1.586 1.586h-3.633a1.592 1.592 0 0 1-1.586-1.586v-3.633a1.583 1.583 0 0 1 1.586-1.586zm12.596 0h3.633c.871 0 1.586.715 1.586 1.586v3.633c0 .878-.715 1.586-1.586 1.586h-3.633a1.594 1.594 0 0 1-1.593-1.586v-3.633a1.603 1.603 0 0 1 1.593-1.586zm12.598 0h3.633c.879 0 1.593.715 1.593 1.586v3.633c0 .878-.714 1.586-1.593 1.586h-3.633a1.592 1.592 0 0 1-1.586-1.586v-3.633c0-.871.715-1.586 1.586-1.586zm-37.337 13.736h3.633c.871 0 1.586.715 1.586 1.586v3.64c0 .872-.715 1.586-1.586 1.586h-3.633a1.587 1.587 0 0 1-1.586-1.586v-3.633a1.584 1.584 0 0 1 1.586-1.593zm12.596 0h3.634c.871 0 1.585.715 1.585 1.586v3.64a1.59 1.59 0 0 1-1.585 1.586h-3.634a1.59 1.59 0 0 1-1.585-1.586v-3.633a1.583 1.583 0 0 1 1.585-1.593zm12.598 0h3.633c.879 0 1.593.715 1.593 1.586v3.64c0 .872-.714 1.586-1.593 1.586h-3.633a1.592 1.592 0 0 1-1.586-1.586v-3.633c0-.878.715-1.593 1.586-1.593zm-13.051-28.493h3.633c.871 0 1.586.715 1.586 1.586v3.633c0 .879-.715 1.586-1.586 1.586h-3.633a1.592 1.592 0 0 1-1.586-1.586v-3.633a1.583 1.583 0 0 1 1.586-1.586zm12.596 0h3.633c.871 0 1.586.715 1.586 1.586v3.633c0 .879-.715 1.586-1.586 1.586h-3.633a1.593 1.593 0 0 1-1.593-1.586v-3.633a1.603 1.603 0 0 1 1.593-1.586zM205.179 463.73h2.222c.538 0 .971.438.971.971v2.222a.972.972 0 0 1-.971.971h-2.222a.975.975 0 0 1-.971-.971v-2.222a.97.97 0 0 1 .971-.971zm7.706 0h2.223c.533 0 .97.438.97.971v2.222a.971.971 0 0 1-.97.971h-2.223a.974.974 0 0 1-.97-.971v-2.222c0-.533.437-.971.97-.971zm7.712 0h2.223c.533 0 .97.438.97.971v2.222a.971.971 0 0 1-.97.971h-2.223a.974.974 0 0 1-.97-.971v-2.222a.968.968 0 0 1 .97-.971zm7.706 0h2.223c.533 0 .97.438.97.971v2.222a.971.971 0 0 1-.97.971h-2.223a.975.975 0 0 1-.974-.971v-2.222a.981.981 0 0 1 .974-.971zm7.708 0h2.223c.537 0 .974.438.974.971v2.222a.972.972 0 0 1-.974.971h-2.223a.974.974 0 0 1-.97-.971v-2.222c0-.533.437-.971.97-.971zm-22.843 8.404h2.223c.533 0 .97.438.97.97v2.228c0 .533-.437.97-.97.97h-2.223a.97.97 0 0 1-.97-.97v-2.223a.969.969 0 0 1 .97-.975zm7.706 0h2.223c.533 0 .97.438.97.97v2.228c0 .533-.437.97-.97.97h-2.223a.973.973 0 0 1-.97-.97v-2.223a.97.97 0 0 1 .97-.975zm7.708 0h2.222c.538 0 .975.438.975.97v2.228c0 .533-.437.97-.975.97h-2.222a.974.974 0 0 1-.971-.97v-2.223c0-.537.438-.975.971-.975zm-7.985-17.432h2.223c.533 0 .97.438.97.971v2.222a.971.971 0 0 1-.97.971h-2.223a.974.974 0 0 1-.97-.971v-2.222a.968.968 0 0 1 .97-.971zm7.706 0h2.223c.533 0 .97.438.97.971v2.222a.971.971 0 0 1-.97.971h-2.223a.975.975 0 0 1-.974-.971v-2.222a.981.981 0 0 1 .974-.971z" fill="#E1E4E5"/><rect x="170.208" y="265.702" width="208" height="83" rx="41.5" fill="#fff" stroke="#E1E4E5" stroke-width="4"/><rect x="179.027" y="273.843" width="66.48" height="66.48" rx="33.24" fill="#009688"/><path fill-rule="evenodd" clip-rule="evenodd" d="M227.372 321.026v2.223c0 1.227-.983 2.223-2.193 2.223h-26.321c-1.211 0-2.194-.996-2.194-2.223v-2.258c0-6.726 7.585-11.096 15.354-11.096 7.769 0 15.354 4.372 15.354 11.096m-9.847-30.621a7.789 7.789 0 1 1-11.014 11.012 7.789 7.789 0 0 1 11.014-11.012z" fill="#fff"/><rect x="253.208" y="284.702" width="92" height="7" rx="3.5" fill="#E1E4E5"/><rect x="253.208" y="302.702" width="92" height="8" rx="4" fill="#E1E4E5"/><rect x="253.208" y="321.702" width="92" height="7" rx="3.5" fill="#E1E4E5"/><rect x="253.208" y="371.702" width="208" height="83" rx="41.5" fill="#fff" stroke="#E1E4E5" stroke-width="4"/><rect x="262.027" y="379.843" width="66.48" height="66.48" rx="33.24" fill="#009688"/><path fill-rule="evenodd" clip-rule="evenodd" d="M310.372 427.026v2.223c0 1.227-.983 2.223-2.193 2.223h-26.321c-1.211 0-2.194-.996-2.194-2.223v-2.258c0-6.726 7.585-11.096 15.354-11.096 7.769 0 15.354 4.372 15.354 11.096m-9.847-30.622a7.788 7.788 0 1 1-11.014 11.015 7.788 7.788 0 0 1 11.014-11.015z" fill="#fff"/><rect x="336.208" y="390.702" width="92" height="7" rx="3.5" fill="#E1E4E5"/><rect x="336.208" y="408.702" width="92" height="8" rx="4" fill="#E1E4E5"/><rect x="336.208" y="427.702" width="92" height="7" rx="3.5" fill="#E1E4E5"/><rect x="511.208" y="371.702" width="208" height="83" rx="41.5" fill="#fff" stroke="#E1E4E5" stroke-width="4"/><rect x="520.027" y="379.843" width="66.48" height="66.48" rx="33.24" fill="#009688"/><path fill-rule="evenodd" clip-rule="evenodd" d="M568.372 427.026v2.223c0 1.227-.983 2.223-2.193 2.223h-26.321c-1.211 0-2.194-.996-2.194-2.223v-2.258c0-6.726 7.585-11.096 15.354-11.096 7.769 0 15.354 4.372 15.354 11.096m-9.847-30.622a7.788 7.788 0 1 1-11.014 11.015 7.788 7.788 0 0 1 11.014-11.015z" fill="#fff"/><rect x="594.208" y="390.702" width="92" height="7" rx="3.5" fill="#E1E4E5"/><rect x="594.208" y="408.702" width="92" height="8" rx="4" fill="#E1E4E5"/><rect x="594.208" y="427.702" width="92" height="7" rx="3.5" fill="#E1E4E5"/><rect x="428.208" y="265.702" width="208" height="83" rx="41.5" fill="#fff" stroke="#E1E4E5" stroke-width="4"/><rect x="437.027" y="273.843" width="66.48" height="66.48" rx="33.24" fill="#009688"/><path fill-rule="evenodd" clip-rule="evenodd" d="M485.372 321.026v2.223c0 1.227-.983 2.223-2.193 2.223h-26.321c-1.211 0-2.194-.996-2.194-2.223v-2.258c0-6.726 7.585-11.096 15.354-11.096 7.769 0 15.354 4.372 15.354 11.096m-9.847-30.621a7.789 7.789 0 1 1-11.014 11.012 7.789 7.789 0 0 1 11.014-11.012z" fill="#fff"/><rect x="511.208" y="284.702" width="92" height="7" rx="3.5" fill="#E1E4E5"/><rect x="511.208" y="302.702" width="92" height="8" rx="4" fill="#E1E4E5"/><rect x="511.208" y="321.702" width="92" height="7" rx="3.5" fill="#E1E4E5"/></svg>