<svg width="900" height="600" viewBox="0 0 900 600" fill="none" xmlns="http://www.w3.org/2000/svg"><path fill="transparent" d="M0 0h900v600H0z"/><path d="M727.463 358.638c3.357 61.869-117.602 187.673-266.693 141.109-69.341-21.659-63.467-57.607-116.194-104.984-31.428-28.237-76.584-49.589-89.143-90.634-10.85-35.428-4.196-73.507 14.614-98.276 42.303-55.702 127.704-93.845 211.852-6.081 84.147 87.764 236.886-.7 245.564 158.866z" fill="url(#a)"/><path d="M685.149 203.253c-11.57 20.649-36.91 23.486-77.505 19.562-30.531-2.957-58.373-5.244-88.906-21.892-21.371-11.643-38.288-27.397-50.635-42.697-13.38-16.575-32.055-35.492-22.9-54.286 12.581-25.816 85.338-47.56 155.987-12.002 77.609 39.071 95.277 91.133 83.959 111.315z" fill="url(#b)"/><path d="M763.362 246.424c-21.797 10.812-50.726-3.091-50.726-3.091s6.429-31.427 28.238-42.224c21.796-10.812 50.714 3.075 50.714 3.075s-6.429 31.427-28.226 42.24z" fill="url(#c)"/><path d="M142.904 323.967c23.239 13.928 56.58 1.053 56.58 1.053s-4.36-35.452-27.613-49.364c-23.239-13.928-56.565-1.069-56.565-1.069s4.359 35.452 27.598 49.38z" fill="url(#d)"/><circle cx="720.475" cy="173.971" r="11.901" transform="rotate(180 720.475 173.971)" fill="#009688"/><circle cx="781.821" cy="441.396" r="9.797" transform="rotate(180 781.821 441.396)" fill="#009688"/><circle r="11.158" transform="matrix(-1 0 0 1 259.567 395.947)" fill="#009688"/><circle r="5.207" transform="matrix(-1 0 0 1 618.405 220.708)" fill="#009688"/><circle r="6.695" transform="matrix(-1 0 0 1 771.067 384.361)" fill="#E1E4E5"/><circle r="9.67" transform="matrix(-1 0 0 1 180.521 383.531)" fill="#E1E4E5"/><circle r="7.36" transform="matrix(-1 0 0 1 771.763 332.276)" fill="#E1E4E5"/><circle r="8.182" transform="matrix(-1 0 0 1 649.659 137.821)" fill="#E1E4E5"/><circle r="7.348" transform="scale(1 -1) rotate(-75 -48.972 -247.404)" fill="#E1E4E5"/><circle r="9.775" transform="matrix(-1 0 0 1 392.556 86.867)" fill="#E1E4E5"/><ellipse rx="7.519" ry="6.015" transform="matrix(-1 0 0 1 700.973 324.568)" fill="#E1E4E5"/><circle r="15.292" transform="scale(1 -1) rotate(-75 231.186 -401.483)" fill="#E1E4E5"/><path d="M770.216 269.398h.197c1.165 16.504 13.438 16.758 13.438 16.758s-13.534.264-13.534 19.333c0-19.069-13.534-19.333-13.534-19.333s12.268-.254 13.433-16.758zM224.951 415.27h.103c.609 8.96 7.026 9.098 7.026 9.098s-7.076.143-7.076 10.497c0-10.354-7.076-10.497-7.076-10.497s6.414-.138 7.023-9.098z" fill="#E1E4E5"/><path fill="#009688" stroke="#133835" stroke-width="4" d="M509.528 281.15H728.69v231.137H509.528z"/><path fill="#009688" stroke="#133835" stroke-width="4" d="M295.106 435.306h215.526v76.981H295.106zm59.516-77.078h215.526v76.981H354.622zm89.762-77.078H659.91v76.981H444.384z"/><rect x="157" y="152.873" width="106.682" height="106.682" rx="53.341" fill="#009688"/><path fill-rule="evenodd" clip-rule="evenodd" d="M234.585 228.59v3.567c0 1.969-1.577 3.567-3.52 3.567h-42.238c-1.943 0-3.52-1.598-3.52-3.567v-3.624c0-10.793 12.172-17.805 24.639-17.805 12.467 0 24.639 7.016 24.639 17.805m-15.805-49.139c4.881 4.881 4.881 12.794 0 17.675-4.881 4.88-12.794 4.88-17.675 0-4.88-4.881-4.88-12.794 0-17.675 4.881-4.881 12.794-4.881 17.675 0z" fill="#fff"/><rect x="242.999" y="285.681" width="56.607" height="56.607" rx="28.303" fill="#009688"/><path fill-rule="evenodd" clip-rule="evenodd" d="M284.167 325.858v1.893c0 1.044-.837 1.892-1.868 1.892h-22.412c-1.031 0-1.868-.848-1.868-1.892v-1.923c0-5.727 6.459-9.448 13.074-9.448s13.074 3.723 13.074 9.448m-8.387-26.074a6.63 6.63 0 0 1 0 9.378 6.63 6.63 0 0 1-9.378 0 6.63 6.63 0 0 1 0-9.378 6.63 6.63 0 0 1 9.378 0z" fill="#fff"/><rect x="520.591" y="123.481" width="56.607" height="56.607" rx="28.303" fill="#009688"/><path fill-rule="evenodd" clip-rule="evenodd" d="M561.758 163.657v1.893c0 1.045-.836 1.893-1.867 1.893h-22.412c-1.031 0-1.868-.848-1.868-1.893v-1.923c0-5.727 6.458-9.448 13.074-9.448 6.615 0 13.073 3.723 13.073 9.448m-8.386-26.074a6.632 6.632 0 1 1-9.379 9.379 6.632 6.632 0 0 1 9.379-9.379z" fill="#fff"/><rect x="286.543" y="93" width="56.607" height="56.607" rx="28.303" fill="#009688"/><path fill-rule="evenodd" clip-rule="evenodd" d="M327.711 133.177v1.892c0 1.045-.837 1.893-1.868 1.893h-22.412c-1.031 0-1.868-.848-1.868-1.893v-1.923c0-5.726 6.459-9.447 13.074-9.447s13.074 3.722 13.074 9.447m-8.387-26.074a6.632 6.632 0 1 1-9.379 9.379 6.632 6.632 0 0 1 9.379-9.379z" fill="#fff"/><path fill-rule="evenodd" clip-rule="evenodd" d="M684.501 219.942h3.916c.947 0 1.709.77 1.709 1.709v3.916a1.71 1.71 0 0 1-1.709 1.709h-3.916c-.939 0-1.71-.77-1.71-1.709v-3.916a1.706 1.706 0 0 1 1.71-1.709zm13.577 0h3.916c.939 0 1.709.77 1.709 1.709v3.916a1.71 1.71 0 0 1-1.709 1.709h-3.916c-.939 0-1.709-.77-1.709-1.709v-3.916c0-.939.77-1.709 1.709-1.709zm13.586 0h3.916c.939 0 1.709.77 1.709 1.709v3.916a1.71 1.71 0 0 1-1.709 1.709h-3.916c-.939 0-1.709-.77-1.709-1.709v-3.916a1.705 1.705 0 0 1 1.709-1.709zm13.577 0h3.916c.939 0 1.709.77 1.709 1.709v3.916a1.71 1.71 0 0 1-1.709 1.709h-3.916c-.947 0-1.717-.77-1.717-1.709v-3.916a1.727 1.727 0 0 1 1.717-1.709zm13.578 0h3.916c.947 0 1.718.77 1.718 1.709v3.916c0 .947-.771 1.709-1.718 1.709h-3.916c-.939 0-1.709-.77-1.709-1.709v-3.916c0-.939.77-1.709 1.709-1.709zm-40.243 14.805h3.916c.939 0 1.709.771 1.709 1.709v3.925c0 .938-.77 1.709-1.709 1.709h-3.916c-.947 0-1.71-.771-1.71-1.709v-3.917a1.708 1.708 0 0 1 1.71-1.717zm13.577 0h3.916c.939 0 1.709.771 1.709 1.709v3.925c0 .938-.77 1.709-1.709 1.709h-3.916a1.716 1.716 0 0 1-1.709-1.709v-3.917a1.707 1.707 0 0 1 1.709-1.717zm13.578 0h3.916c.947 0 1.717.771 1.717 1.709v3.925c0 .938-.77 1.709-1.717 1.709h-3.916a1.716 1.716 0 0 1-1.709-1.709v-3.917c0-.946.77-1.717 1.709-1.717zm-14.067-30.71h3.916c.939 0 1.709.77 1.709 1.709v3.916a1.71 1.71 0 0 1-1.709 1.709h-3.916c-.939 0-1.709-.77-1.709-1.709v-3.916a1.705 1.705 0 0 1 1.709-1.709zm13.577 0h3.916c.939 0 1.709.77 1.709 1.709v3.916a1.71 1.71 0 0 1-1.709 1.709h-3.916c-.947 0-1.717-.77-1.717-1.709v-3.916a1.727 1.727 0 0 1 1.717-1.709zM200.076 489.913h3.916a1.71 1.71 0 0 1 1.709 1.71v3.916a1.71 1.71 0 0 1-1.709 1.709h-3.916c-.939 0-1.709-.77-1.709-1.709v-3.916a1.706 1.706 0 0 1 1.709-1.71zm13.577 0h3.916c.939 0 1.709.771 1.709 1.71v3.916a1.71 1.71 0 0 1-1.709 1.709h-3.916c-.939 0-1.709-.77-1.709-1.709v-3.916c0-.939.77-1.71 1.709-1.71zm13.586 0h3.916c.939 0 1.71.771 1.71 1.71v3.916a1.71 1.71 0 0 1-1.71 1.709h-3.916c-.939 0-1.709-.77-1.709-1.709v-3.916a1.706 1.706 0 0 1 1.709-1.71zm13.577 0h3.916c.939 0 1.71.771 1.71 1.71v3.916a1.71 1.71 0 0 1-1.71 1.709h-3.916c-.947 0-1.717-.77-1.717-1.709v-3.916a1.728 1.728 0 0 1 1.717-1.71zm13.579 0h3.916c.946 0 1.717.771 1.717 1.71v3.916c0 .947-.771 1.709-1.717 1.709h-3.916c-.939 0-1.71-.77-1.71-1.709v-3.916c0-.939.771-1.71 1.71-1.71zm-40.244 14.806h3.916c.939 0 1.709.77 1.709 1.709v3.924c0 .939-.77 1.709-1.709 1.709h-3.916a1.71 1.71 0 0 1-1.709-1.709v-3.916a1.707 1.707 0 0 1 1.709-1.717zm13.577 0h3.916c.939 0 1.709.77 1.709 1.709v3.924c0 .939-.77 1.709-1.709 1.709h-3.916c-.939 0-1.709-.77-1.709-1.709v-3.916a1.707 1.707 0 0 1 1.709-1.717zm13.578 0h3.916c.947 0 1.717.77 1.717 1.709v3.924c0 .939-.77 1.709-1.717 1.709h-3.916c-.939 0-1.709-.77-1.709-1.709v-3.916c0-.947.77-1.717 1.709-1.717zm-14.067-30.711h3.916c.939 0 1.71.771 1.71 1.71v3.916a1.71 1.71 0 0 1-1.71 1.709h-3.916c-.939 0-1.709-.77-1.709-1.709v-3.916a1.706 1.706 0 0 1 1.709-1.71zm13.577 0h3.916c.939 0 1.71.771 1.71 1.71v3.916a1.71 1.71 0 0 1-1.71 1.709h-3.916c-.947 0-1.717-.77-1.717-1.709v-3.916a1.728 1.728 0 0 1 1.717-1.71z" fill="#E1E4E5"/><path d="M550.366 372.094c8.562-2.892 15.982-9.053 20.316-16.956 1.223-2.179 2.223-4.683 1.894-7.161-.084-.505-.212-1.102-.666-1.338-.409-.235-.96-.106-1.42.024-14.301 3.859-29.42 10.361-44.43 9.675-.687-.011-1.373-.067-1.973.199-.737.309-1.205.989-1.537 1.717-1.135 2.364-2.119 6.837-1.747 9.498.456 3.167 3.517 3.626 6.208 4.308 7.664 1.948 15.714 2.62 23.355.034z" fill="#F8AE9D"/><path d="M551.688 354.346c1.152-.486 2.35-.972 3.587-.999 1.236-.027 2.6.635 2.994 1.831.262.829.02 1.695-.312 2.469-.901 2.001-2.482 3.625-4.153 5.065-6.401 5.399-14.602 8.663-22.99 9.176-3.713.219-7.601-.115-10.871-1.859 1.633-1.99 1.31-4.834 1.485-7.35.524-7.365 6.801-4.568 11.839-4.583 6.322-.133 12.614-1.366 18.421-3.75z" fill="#F8AE9D"/><path d="m360.086 299.871-.287.82c-2.012 5.831-3.569 11.852-4.212 18.025-1.18 11.339 1.046 24.607 9.576 32.842 11.373 10.98 29.62 12.677 44.451 10.063a37.523 37.523 0 0 0 16.644-7.395c4.833 4.379 10.027 9.174 14.349 14.048a109.267 109.267 0 0 0 24.595-12.265c18.1 8.289 36.562 13.881 56.054 17.932a75.609 75.609 0 0 0 4.659-17.239c.152-.959-11.997-9.158-13.399-10.324-4.205-3.544-12.966-11.646-12.966-11.646s11.042-9.403 15.872-13.817a230.235 230.235 0 0 0 14.69-14.431c3.864-4.155 7.64-8.539 10.008-13.724 2.368-5.139 3.239-11.216 1.259-16.558-6.25-16.627-31.48-10.782-43.198-5.053-9.689 4.753-18.175 11.676-26.341 18.696-3.294 2.789-6.544 5.671-9.746 8.507-2.525-2.603-5.313-5.988-7.699-8.726-2.565-2.97-5.499-5.762-9.045-7.51-3.726-1.889-7.165-1.62-11.14-2.184-1.782-.257-3.514-.787-5.25-1.088-5.206-.949-10.717.066-15.291 2.745-4.344 2.544-7.87 5.559-12.968 6.534-5.787 1.103-12.508.452-18.312-.324-5.21-.72-10.504-1.899-15.695-.879-2.158.425-2.983 3.435-3.696 5.164-.954 2.505-1.955 5.1-2.912 7.787zm45.986-191.779s-14.012-2.228-17.774 22.508c-4.181 27.499-15.346 22.975-33.075 45.304-10.362 13.048.542 36.09 22.701 35.633 22.159-.445 42.171-6.852 54.917-4.111 12.747 2.741 13.447-29.906.871-39.979-12.577-10.072 14.237-38.998-2.102-51.878-16.34-12.881-25.538-7.477-25.538-7.477z" fill="#133835"/><path d="M322.317 217.167c-1.278-2.626-1.201-5.677-.739-8.524 1.997-12.218 10.56-22.429 20.375-29.911 9.847-7.502 21.118-12.857 31.478-19.579 2.689-1.751 5.384-3.637 8.472-4.583 3.087-.946 6.675-.844 9.224 1.146 1.8 1.397 2.84 3.557 3.445 5.717 1.327 4.73.818 9.739.009 14.537-1.012 6.052-2.497 12.041-4.935 17.603-1.955 4.487-5.137 9.104-9.919 9.983-1.384 5.362-4.233 10.388-8.229 14.233-4.571 4.408-10.366 7.291-16.38 9.304-5.541 1.859-11.601 3.073-17.175 1.338-3.308-1.01-6.222-2.955-9.072-4.939-2.542-1.69-5.18-3.539-6.554-6.325zm50.078-8.148 3.271-5.193c-.697.072-1.355.207-2.02.477-1.795.777-2.877 3.606-1.251 4.716z" fill="#133835"/><path d="M433.01 129.845c.169.919.2 1.881.138 2.979a61.195 61.195 0 0 1-4.085 18.714c-1.428 3.55-3.175 7.049-5.647 9.989-1.026 1.22-2.188 2.348-3.706 2.782-1.564.435-3.534.496-5.085.106-1.368 5.658-.797 16.337 4.087 20.349 1.493 1.214 3.268 1.973 5.043 2.641 3.46 1.335 7.063 2.352 10.669 3.139 4.108.887 8.585 1.55 11.47 4.571.361.371.72.881.575 1.382-.097.319-.329.545-.607.724-2.272 1.843-5.08 2.853-7.889 3.818-4.925 1.666-9.983 3.054-15.126 3.983-5.373.972-10.921 1.437-16.362.851-4.206-.476-8.357-1.547-12.175-3.436-4-1.984-8.096-3.604-12.235-5.498-3.502-1.611-6.954-3.449-10.745-4.102 1.792-3.407 5.53-5.32 9.253-6.225 3.723-.859 7.616-.937 11.383-1.659 1.24-.256 2.481-.557 3.546-1.32 2.917-2.108 2.118-6.791 2.164-9.858l.148-9.706c-.433-4.632-2.344-8.508-4.02-12.746-2.557-6.496-3.086-13.877-.833-20.529 2.253-6.606 7.378-12.344 13.962-14.671s14.486-1.016 19.541 3.823c3.205 3.117 5.818 5.904 6.536 9.899z" fill="#F8AE9D"/><path d="M412.763 109.206c6.562-.732 12.542 2.481 16.975 7.462 3.73 4.176 5.922 9.688 5.811 15.226-.015.791-.105 1.653-.55 2.363-1.186 1.703-3.763 1.076-5.691.318-3.141-1.214-5.48-2.987-8.328-4.483-2.848-1.496-6.306-1.277-8.855-3.343-2.407-1.991-10.669-6.185-10.892-9.427-.281-3.963 6.979-7.199 10.014-7.858.434-.135.939-.197 1.516-.258z" fill="#133835"/><path d="M393.858 118.177c-5.549 3.578-8.153 9.847-8.442 16.509-.252 5.593 1.531 11.251 5.116 15.473.513.603 1.126 1.215 1.921 1.484 1.994.571 3.596-1.544 4.611-3.349 1.668-2.926 2.36-5.778 3.623-8.737 1.262-2.96 4.08-4.975 4.751-8.186.607-3.064 4.361-11.536 2.485-14.189-2.286-3.249-9.958-1.171-12.727.236-.422.17-.853.441-1.338.759z" fill="#133835"/><path d="M443.214 193.7c.876-.399 1.925-.108 2.508.679 6.547 9.167 9.074 20.654 11.288 31.724 2.51 12.586 4.746 25.213 6.889 37.839.128.643.209 1.332-.075 1.923s-.929.901-1.529 1.167c-3.783 1.82-7.61 3.594-11.393 5.414a125.704 125.704 0 0 1-8.764-29.03c-2.429 6.146-6.814 11.483-12.409 14.97 4.169 5.971 9.299 17.909 14.303 23.16.766.836 5.502-.466 6.561-.816.658 1.887-2.425-.128-2.409 1.795-2.845.415-6.483-1.289-9.408-1.654a48.494 48.494 0 0 0-10.623-.07c-5.872.644-11.578 2.48-16.795 5.24a59.983 59.983 0 0 0-7.444 4.696c-2.038 1.526-7.084 5.113-7.084 5.113-.371.269-2.105-.124-2.516-.222a46.368 46.368 0 0 0-3.61-.467 86.099 86.099 0 0 1-9.05-1.19c-5.982-1.099-11.864-2.791-17.507-5.121-.543-.42 1.395-4.42 1.499-5.197-.103.731-11.217-.171-12.313-.371-4.383-.89-8.818-1.37-13.2-2.307 1.963-17.646 7.351-34.692 12.645-51.601 2.07-6.654 4.186-13.308 7.121-19.583 3.124-6.685 7.157-12.943 12.004-18.502.139-.135.37-.223.552-.175 2.327.585 16.513 4.235 23.572 6.861 3.596 1.383 7.241 2.629 10.931 3.875 1.458.48 2.962.961 4.474.938 1.008-.03 2.019-.244 2.984-.458 9.833-2.186 19.669-4.555 28.798-8.63z" fill="#009688"/><path d="M379.211 228.86c-.404 2.512-.947 5.068-1.489 7.579a133.535 133.535 0 0 1-5.063 16.775c-1.049 2.732-2.143 5.417-3.375 8.1-.615 1.319-1.23 2.638-1.891 3.956-.331.636-.662 1.318-.992 1.954-.283.545-.611 1.044-.893 1.543 1.97-.061 11.693.499 13.705.667" stroke="#fff" stroke-width="1.376" stroke-miterlimit="10" stroke-linecap="round"/><path d="M379.528 271.407a56.265 56.265 0 0 1-.746 3.836l-.882 3.833c-.291 1.095-.953 2.458-.971 3.603.004-.229 7.799-.889 8.533-.969 8.117-.793 16.276-1.264 24.389-1.782 5.272-.332 10.445-.208 15.711-.174 1.556.024 3.39-.131 4.234-1.401.703-1.088.129-2.471.694-3.47.365.097 4.607 1.169 4.563 1.077.168.964.504 2.984 1.504 3.458.364.142.73.194 1.096.199.55.009 1.1-.075 1.651-.158a.35.35 0 0 0 .231-.088c.093-.09.003-.229-.086-.368a10.91 10.91 0 0 1-1.875-6.256c-1.314-.89-2.626-1.917-3.754-3.034-.902-.929-1.571-2.13-2.566-2.924-1.04-.886-2.056-.351-3.205-.048a54.97 54.97 0 0 0-3.954 1.039c-2.531.785-5.064 1.754-7.195 3.325-.741.538-1.436 1.123-2.31 1.384-.829.263-1.744.249-2.614.235-5.356-.127-10.71-.391-16.013-.975-5.441-.587-9.152-.506-16.279-1.576-.001.046-.007.458-.156 1.234z" fill="#F8AE9D"/><path d="M438.511 228.351c1.281 5.535 2.204 11.125 2.829 16.828" stroke="#fff" stroke-width="1.376" stroke-miterlimit="10" stroke-linecap="round"/><path d="m546.503 219.22-15.719 70.101-119.358-1.813c.063-4.121 3.456-7.458 7.623-7.395l28.523.434 14.214-64.492c.444-2.1 2.344-3.582 4.45-3.55l75.91 1.153c2.884.09 4.996 2.732 4.357 5.562z" fill="#133835"/><path d="M390.582 390.503c.553-3.197 2.114-6.471 3.577-9.333 6.039-11.724 16.835-19.986 28.462-25.671 1.199-.577 2.398-1.154 3.641-1.593-.093.136-.187.272-.281.454l-.001.045h-.046c.139-.09.232-.18.371-.269 4.698 4.238 9.71 8.894 13.99 13.584-2.829 2.293-6.933 4.154-8.971 5.68-4.816 3.544-9.453 7.321-14.449 10.633-6.709 4.524-13.857 7.804-21.847 9.24-3.076.548-4.688 1.119-4.652-1.262.052-.365.105-.868.206-1.508z" fill="#F8AE9D"/><path d="M398.372 381.279c3.112-5.86 7.942-10.32 13.223-14.27 3.706-2.783 7.636-5.288 11.384-7.841 1.065-.716 3.155-2.654 4.955-3.588 3.749 3.4 7.587 6.984 11.057 10.701-11.463 6.969-21.676 16.065-34.253 21.003-1.151.44-2.349.88-3.585.907-1.237.027-2.557-.497-3.275-1.515-1.121-1.574-.401-3.716.494-5.397z" fill="#F8AE9D"/><path d="M227.694 345.554h.126c.75 10.454 8.648 10.615 8.648 10.615s-8.709.167-8.709 12.246c0-12.079-8.709-12.246-8.709-12.246s7.894-.161 8.644-10.615zm71.847-100.151h.127c.749 10.454 8.647 10.615 8.647 10.615s-8.709.167-8.709 12.246c0-12.079-8.709-12.246-8.709-12.246s7.895-.161 8.644-10.615zM261.44 131.101h.127c.749 10.453 8.647 10.614 8.647 10.614s-8.709.168-8.709 12.246c0-12.078-8.709-12.246-8.709-12.246s7.895-.161 8.644-10.614zm229.694 1.088h.126c.75 10.454 8.647 10.615 8.647 10.615s-8.708.167-8.708 12.246c0-12.079-8.709-12.246-8.709-12.246s7.894-.161 8.644-10.615zM362.696 93h.095c.562 7.467 6.485 7.582 6.485 7.582s-6.531.119-6.531 8.747c0-8.628-6.532-8.747-6.532-8.747s5.921-.115 6.483-7.582zm210.083 102.328h.126c.75 10.453 8.647 10.614 8.647 10.614s-8.709.168-8.709 12.246c0-12.078-8.708-12.246-8.708-12.246s7.894-.161 8.644-10.614zM308.25 359.706h.126c.75 10.453 8.647 10.614 8.647 10.614s-8.708.168-8.708 12.246c0-12.078-8.709-12.246-8.709-12.246s7.894-.161 8.644-10.614z" fill="#E1E4E5"/><defs><linearGradient id="a" x1="582.89" y1="729.493" x2="356.629" y2="-291.32" gradientUnits="userSpaceOnUse"><stop stop-color="#fff"/><stop offset="1" stop-color="#EEE"/></linearGradient><linearGradient id="b" x1="607.205" y1="337.078" x2="504.079" y2="-126.329" gradientUnits="userSpaceOnUse"><stop stop-color="#fff"/><stop offset="1" stop-color="#EEE"/></linearGradient><linearGradient id="c" x1="679.661" y1="280.15" x2="859.44" y2="137.944" gradientUnits="userSpaceOnUse"><stop stop-color="#fff"/><stop offset="1" stop-color="#EEE"/></linearGradient><linearGradient id="d" x1="232.832" y1="368.801" x2="45.844" y2="195.064" gradientUnits="userSpaceOnUse"><stop stop-color="#fff"/><stop offset="1" stop-color="#EEE"/></linearGradient></defs></svg>