<svg width="900" height="600" viewBox="0 0 900 600" fill="none" xmlns="http://www.w3.org/2000/svg"><path fill="transparent" d="M0 0h900v600H0z"/><path d="M262.653 397.957c-94.826 0-94.826 113.792-189.653 113.792" stroke="#E1E4E5" stroke-width="4" stroke-linecap="round" stroke-linejoin="round"/><path d="M262.653 511.749c-94.826 0-94.826-113.792-189.653-113.792m190.406.419v112.949M215.24 409.967v89.77M82.483 511.325V398.376m37.93 100.728v-89.137m517.633-12.01c-94.827 0-94.827 113.792-189.653 113.792" stroke="#E1E4E5" stroke-width="4" stroke-linecap="round" stroke-linejoin="round"/><path d="M638.046 511.749c-94.827 0-94.827-113.792-189.653-113.792m190.405.419v112.949m-48.166-101.358v89.77m-139.38 11.588V398.376m44.554 100.728v-89.137" stroke="#E1E4E5" stroke-width="4" stroke-linecap="round" stroke-linejoin="round"/><path d="M452.607 397.957c-94.826 0-94.826 113.792-189.653 113.792" stroke="#E1E4E5" stroke-width="4" stroke-linecap="round" stroke-linejoin="round"/><path d="M452.607 511.749c-94.826 0-94.826-113.792-189.653-113.792m142.24 12.01v89.77m-94.827-.633v-89.137M828 397.957c-94.827 0-94.827 113.792-189.653 113.792" stroke="#E1E4E5" stroke-width="4" stroke-linecap="round" stroke-linejoin="round"/><path d="M828 511.749c-94.827 0-94.827-113.792-189.653-113.792m180.17.419v112.949m-37.93-101.358v89.77m-94.827-.633v-89.137" stroke="#E1E4E5" stroke-width="4" stroke-linecap="round" stroke-linejoin="round"/><path fill-rule="evenodd" clip-rule="evenodd" d="M564.075 243.864h-70.616a7 7 0 0 0-5.799 3.079l-23.747 35.12-35.955-79.581a7 7 0 0 0-12.168-1.054l-28.851 42.436h-48.14C342.408 184.792 391.459 138 451.439 138a112.854 112.854 0 0 1 112.636 105.864zm.003 14h-66.902l-28.684 42.421a7 7 0 0 1-12.178-1.039l-35.97-79.615-23.911 35.168a7 7 0 0 1-5.789 3.065H338.8c3.62 59.061 52.666 105.842 112.639 105.842 59.972 0 109.019-46.781 112.639-105.842z" fill="#009688"/><path fill-rule="evenodd" clip-rule="evenodd" d="M135.174 328.351h4.505c1.089 0 1.966.886 1.966 1.966v4.505c0 1.09-.886 1.967-1.966 1.967h-4.505a1.974 1.974 0 0 1-1.966-1.967v-4.505a1.961 1.961 0 0 1 1.966-1.966zm15.618 0h4.505c1.08 0 1.966.886 1.966 1.966v4.505c0 1.09-.886 1.967-1.966 1.967h-4.505a1.974 1.974 0 0 1-1.966-1.967v-4.505c0-1.08.886-1.966 1.966-1.966zm15.63 0h4.505c1.08 0 1.966.886 1.966 1.966v4.505c0 1.09-.886 1.967-1.966 1.967h-4.505a1.975 1.975 0 0 1-1.967-1.967v-4.505a1.962 1.962 0 0 1 1.967-1.966zm15.619 0h4.504c1.081 0 1.967.886 1.967 1.966v4.505c0 1.09-.886 1.967-1.967 1.967h-4.504a1.976 1.976 0 0 1-1.976-1.967v-4.505a1.987 1.987 0 0 1 1.976-1.966zm15.619 0h4.505c1.09 0 1.976.886 1.976 1.966v4.505a1.97 1.97 0 0 1-1.976 1.966h-4.505a1.973 1.973 0 0 1-1.966-1.966v-4.505c0-1.08.886-1.966 1.966-1.966zm-46.295 17.032h4.505c1.08 0 1.966.886 1.966 1.966v4.514c0 1.08-.886 1.967-1.966 1.967h-4.505a1.969 1.969 0 0 1-1.966-1.967v-4.505a1.963 1.963 0 0 1 1.966-1.975zm15.619 0h4.505c1.08 0 1.966.886 1.966 1.966v4.514c0 1.08-.886 1.967-1.966 1.967h-4.505a1.974 1.974 0 0 1-1.966-1.967v-4.505a1.963 1.963 0 0 1 1.966-1.975zm15.62 0h4.505c1.09 0 1.976.886 1.976 1.966v4.514c0 1.08-.886 1.967-1.976 1.967h-4.505a1.974 1.974 0 0 1-1.966-1.967v-4.505c0-1.089.886-1.975 1.966-1.975zm-16.182-35.329h4.505c1.08 0 1.966.886 1.966 1.966v4.505c0 1.09-.886 1.967-1.966 1.967h-4.505a1.975 1.975 0 0 1-1.967-1.967v-4.505a1.962 1.962 0 0 1 1.967-1.966zm15.619 0h4.504c1.081 0 1.967.886 1.967 1.966v4.505c0 1.09-.886 1.967-1.967 1.967h-4.504a1.976 1.976 0 0 1-1.976-1.967v-4.505a1.987 1.987 0 0 1 1.976-1.966zm517.878 39.972h4.505c1.089 0 1.966.886 1.966 1.966v4.505a1.968 1.968 0 0 1-1.966 1.966h-4.505a1.974 1.974 0 0 1-1.967-1.966v-4.505a1.962 1.962 0 0 1 1.967-1.966zm15.618 0h4.505c1.08 0 1.966.886 1.966 1.966v4.505a1.968 1.968 0 0 1-1.966 1.966h-4.505a1.973 1.973 0 0 1-1.966-1.966v-4.505c0-1.08.886-1.966 1.966-1.966zm15.629 0h4.505c1.08 0 1.967.886 1.967 1.966v4.505a1.969 1.969 0 0 1-1.967 1.966h-4.505a1.973 1.973 0 0 1-1.966-1.966v-4.505a1.962 1.962 0 0 1 1.966-1.966zm15.619 0h4.505c1.08 0 1.967.886 1.967 1.966v4.505a1.969 1.969 0 0 1-1.967 1.966h-4.505a1.975 1.975 0 0 1-1.975-1.966v-4.505a1.987 1.987 0 0 1 1.975-1.966zm15.62 0h4.505c1.09 0 1.976.886 1.976 1.966v4.505a1.97 1.97 0 0 1-1.976 1.966h-4.505a1.973 1.973 0 0 1-1.966-1.966v-4.505c0-1.08.886-1.966 1.966-1.966zm-46.295 17.032h4.505c1.08 0 1.966.886 1.966 1.966v4.514c0 1.08-.886 1.966-1.966 1.966h-4.505a1.968 1.968 0 0 1-1.966-1.966v-4.505a1.963 1.963 0 0 1 1.966-1.975zm15.619 0h4.505c1.08 0 1.966.886 1.966 1.966v4.514c0 1.08-.886 1.966-1.966 1.966h-4.505a1.974 1.974 0 0 1-1.967-1.966v-4.505a1.964 1.964 0 0 1 1.967-1.975zm15.62 0h4.505c1.089 0 1.976.886 1.976 1.966v4.514c0 1.08-.887 1.966-1.976 1.966h-4.505a1.973 1.973 0 0 1-1.966-1.966v-4.505c0-1.089.886-1.975 1.966-1.975zm-16.183-35.329h4.505c1.08 0 1.967.886 1.967 1.966v4.505a1.969 1.969 0 0 1-1.967 1.966h-4.505a1.973 1.973 0 0 1-1.966-1.966v-4.505a1.962 1.962 0 0 1 1.966-1.966zm15.619 0h4.505c1.08 0 1.967.886 1.967 1.966v4.505a1.969 1.969 0 0 1-1.967 1.966h-4.505a1.975 1.975 0 0 1-1.975-1.966v-4.505a1.987 1.987 0 0 1 1.975-1.966z" fill="#E1E4E5"/><path d="m131.995 173.065-15.393 15.378-7.479-7.456m56.224-15.281h45.494m-45.14 22.57h75.235m-108.941 37.453-15.393 15.378-7.479-7.455m56.224-15.281h45.494m-45.14 22.57h75.235m447.374-49.814-15.393 15.378-7.478-7.456m56.223-15.281h45.495m-45.14 22.57h75.234M688.31 243.792l-15.393 15.378-7.478-7.456m56.223-15.281h45.495m-45.14 22.57h75.234" stroke="#E1E4E5" stroke-width="4" stroke-linecap="round" stroke-linejoin="round"/><path d="M279.742 319.03c-16.716 3.96-34.396-10.216-34.396-10.216s9.435-20.589 26.156-24.536c16.716-3.96 34.39 10.203 34.39 10.203s-9.435 20.59-26.15 24.549z" fill="url(#a)"/><path d="M288.465 123.075c17.598 12.121 44.483 3.648 44.483 3.648s-1.665-28.123-19.275-40.232c-17.598-12.122-44.471-3.66-44.471-3.66s1.665 28.123 19.263 40.244z" fill="url(#b)"/><path d="M634.594 166.457c-10.512 10.699-30.169 8.444-30.169 8.444s-2.601-19.603 7.92-30.295c10.512-10.699 30.159-8.45 30.159-8.45s2.601 19.603-7.91 30.301z" fill="url(#c)"/><circle cx="543.219" cy="392.538" r="9.031" transform="rotate(180 543.219 392.538)" fill="#009688"/><ellipse cx="357.022" cy="388.755" rx="19.11" ry="18.493" transform="rotate(180 357.022 388.755)" fill="#009688"/><circle r="6.781" transform="matrix(-1 0 0 1 96.639 313.223)" fill="#009688"/><circle r="12.945" transform="matrix(-1 0 0 1 732.572 145.99)" fill="#009688"/><ellipse rx="12.945" ry="12.329" transform="matrix(-1 0 0 1 733.776 524.68)" fill="#E1E4E5"/><circle r="7.225" transform="matrix(-1 0 0 1 178.965 401.569)" fill="#E1E4E5"/><circle r="4.315" transform="matrix(-1 0 0 1 361.493 528.707)" fill="#E1E4E5"/><circle r="6.164" transform="matrix(-1 0 0 1 595.743 93.452)" fill="#E1E4E5"/><circle r="6.024" transform="scale(1 -1) rotate(-75 -245.89 -362.895)" fill="#E1E4E5"/><circle r="8.014" transform="matrix(-1 0 0 1 296.556 177.183)" fill="#E1E4E5"/><ellipse rx="6.164" ry="4.932" transform="matrix(-1 0 0 1 737.833 293.311)" fill="#E1E4E5"/><circle r="12.537" transform="scale(1 -1) rotate(-75 94.167 -555.262)" fill="#E1E4E5"/><path d="M803.98 313.917h.161c.955 13.53 11.018 13.739 11.018 13.739s-11.096.216-11.096 15.85c0-15.634-11.096-15.85-11.096-15.85s10.058-.209 11.013-13.739zM365.527 93.308h.157c.933 13.765 10.761 13.977 10.761 13.977s-10.837.221-10.837 16.127c0-15.906-10.838-16.127-10.838-16.127s9.824-.212 10.757-13.977z" fill="#E1E4E5"/><defs><linearGradient id="a" x1="216.795" y1="328.876" x2="363.124" y2="259.745" gradientUnits="userSpaceOnUse"><stop stop-color="#fff"/><stop offset="1" stop-color="#EEE"/></linearGradient><linearGradient id="b" x1="357.017" y1="162.847" x2="218.489" y2="16.773" gradientUnits="userSpaceOnUse"><stop stop-color="#fff"/><stop offset="1" stop-color="#EEE"/></linearGradient><linearGradient id="c" x1="592.654" y1="203.002" x2="668.648" y2="83.875" gradientUnits="userSpaceOnUse"><stop stop-color="#fff"/><stop offset="1" stop-color="#EEE"/></linearGradient></defs></svg>