<svg width="900" height="600" viewBox="0 0 900 600" fill="none" xmlns="http://www.w3.org/2000/svg"><path fill="transparent" d="M0 0h900v600H0z"/><path clip-rule="evenodd" d="M447.962 353.569v0c-61.284-29.076-87.393-102.323-58.317-163.607v0c29.075-61.284 102.323-87.393 163.607-58.317v0c61.284 29.075 87.393 102.323 58.317 163.607v0c-29.076 61.284-102.323 87.393-163.607 58.317z" stroke="#E1E4E5" stroke-width="16" stroke-linecap="round" stroke-linejoin="round"/><path d="m567.25 429.571-25.383-71.21m-76.585-82.014 70.644-67.482m1.6 66.718c1.51 1.581 1.453 4.081-.128 5.575-1.581 1.51-4.08 1.453-5.574-.128-1.51-1.581-1.453-4.08.127-5.574 1.565-1.511 4.065-1.454 5.575.127m-68.124-71.398c1.51 1.581 1.453 4.08-.128 5.574-1.581 1.51-4.08 1.453-5.574-.128-1.494-1.58-1.453-4.08.127-5.574 1.581-1.494 4.081-1.453 5.575.128" stroke="#E1E4E5" stroke-width="16" stroke-linecap="round" stroke-linejoin="round"/><path fill-rule="evenodd" clip-rule="evenodd" d="m705.329 489.702-16.407-25.478a94.5 94.5 0 0 0-38.81-34.154l-56.339-26.842a37.587 37.587 0 0 0-16.329-3.655l-12.631.055 3.584 11.713-49.847-11.948c-5.8-1.39-11.487 2.679-12.042 8.618a9.803 9.803 0 0 0 4.144 8.944l13.807 9.649c-8.606 4.192-9.752 15.994-2.113 21.763l7.018 5.3c-6.622 4.134-6.965 13.652-.658 18.252l10.18 7.425a14.566 14.566 0 0 0 8.075 15.932l10.872 5.141a30.087 30.087 0 0 0 5.005 1.843l50.235 13.58 56.156 37.298 36.1-63.436z" fill="#F8AE9D"/><path fill-rule="evenodd" clip-rule="evenodd" d="M798.405 561.412 676.531 445.711l-83.197 84.605 33.664 31.832 171.407-.736z" fill="#009688"/><path fill-rule="evenodd" clip-rule="evenodd" d="M229.045 477.736a2.72 2.72 0 0 1-2.883-.191 2.743 2.743 0 0 1-1.094-2.684l1.972-11.458-8.353-8.119a2.746 2.746 0 0 1-.679-2.803 2.728 2.728 0 0 1 2.197-1.858l11.548-1.672 5.158-10.434a2.748 2.748 0 0 1 2.459-1.525c1.041 0 1.992.59 2.458 1.525l5.158 10.434 11.548 1.672a2.73 2.73 0 0 1 2.198 1.858 2.746 2.746 0 0 1-.68 2.803l-8.357 8.114 1.972 11.459a2.742 2.742 0 0 1-1.092 2.687 2.72 2.72 0 0 1-2.885.192l-10.325-5.405-10.32 5.405zm54.545-.001a2.719 2.719 0 0 1-2.882-.191 2.74 2.74 0 0 1-1.095-2.683l1.973-11.459-8.353-8.119a2.744 2.744 0 0 1-.68-2.803 2.731 2.731 0 0 1 2.198-1.858l11.547-1.672 5.158-10.434a2.748 2.748 0 0 1 2.459-1.525c1.041 0 1.993.59 2.459 1.525l5.158 10.434 11.547 1.672a2.731 2.731 0 0 1 2.198 1.858 2.746 2.746 0 0 1-.68 2.803l-8.357 8.114 1.972 11.459a2.741 2.741 0 0 1-1.092 2.687 2.716 2.716 0 0 1-2.884.192l-10.326-5.404-10.32 5.404zm54.545 0a2.719 2.719 0 0 1-2.882-.191 2.742 2.742 0 0 1-1.095-2.683l1.973-11.459-8.353-8.119a2.746 2.746 0 0 1-.68-2.803 2.731 2.731 0 0 1 2.198-1.858l11.547-1.672 5.159-10.434a2.746 2.746 0 0 1 4.917 0l5.158 10.434 11.548 1.672a2.731 2.731 0 0 1 2.197 1.858 2.744 2.744 0 0 1-.68 2.803l-8.357 8.114 1.972 11.459a2.741 2.741 0 0 1-1.092 2.687 2.716 2.716 0 0 1-2.884.192l-10.325-5.404-10.321 5.404zm54.545 0a2.719 2.719 0 0 1-2.882-.191 2.74 2.74 0 0 1-1.094-2.683l1.972-11.459-8.353-8.119a2.746 2.746 0 0 1-.68-2.803 2.731 2.731 0 0 1 2.198-1.858l11.548-1.672 5.158-10.434a2.747 2.747 0 0 1 2.458-1.525c1.041 0 1.993.59 2.459 1.525l5.158 10.434 11.548 1.672a2.73 2.73 0 0 1 2.197 1.858 2.746 2.746 0 0 1-.679 2.803l-8.358 8.114 1.972 11.459a2.74 2.74 0 0 1-1.091 2.687 2.718 2.718 0 0 1-2.885.192l-10.325-5.404-10.321 5.404zm54.545 0a2.719 2.719 0 0 1-2.882-.191 2.742 2.742 0 0 1-1.094-2.683l1.972-11.459-8.353-8.119a2.748 2.748 0 0 1-.68-2.803 2.732 2.732 0 0 1 2.198-1.858l11.548-1.672 5.158-10.434a2.748 2.748 0 0 1 2.459-1.525c1.041 0 1.992.59 2.458 1.525l5.158 10.434 11.548 1.672a2.731 2.731 0 0 1 2.198 1.858 2.748 2.748 0 0 1-.68 2.803l-8.358 8.114 1.973 11.459a2.741 2.741 0 0 1-1.092 2.687 2.718 2.718 0 0 1-2.885.192l-10.325-5.404-10.321 5.404zm-344.852-40.269h5.399a2.359 2.359 0 0 1 2.357 2.357v5.398a2.359 2.359 0 0 1-2.357 2.357h-5.399a2.365 2.365 0 0 1-2.356-2.357v-5.398c-.011-1.295 1.051-2.357 2.356-2.357zm18.718 0h5.399a2.365 2.365 0 0 1 2.356 2.356v5.399a2.358 2.358 0 0 1-2.356 2.357h-5.399a2.366 2.366 0 0 1-2.356-2.357v-5.399a2.365 2.365 0 0 1 2.356-2.356zm18.731 0h5.398a2.366 2.366 0 0 1 2.357 2.357v5.398a2.359 2.359 0 0 1-2.357 2.357h-5.398a2.366 2.366 0 0 1-2.357-2.357v-5.398c-.011-1.295 1.051-2.357 2.357-2.357zm18.718 0h5.398a2.366 2.366 0 0 1 2.357 2.357v5.398a2.359 2.359 0 0 1-2.357 2.357h-5.399a2.368 2.368 0 0 1-2.367-2.357v-5.398a2.382 2.382 0 0 1 2.368-2.357zm18.719 0h5.398a2.368 2.368 0 0 1 2.368 2.356v5.399a2.36 2.36 0 0 1-2.368 2.357h-5.398a2.366 2.366 0 0 1-2.357-2.357v-5.399a2.365 2.365 0 0 1 2.357-2.356zm-55.481 20.411h5.399a2.365 2.365 0 0 1 2.356 2.357v5.41a2.365 2.365 0 0 1-2.356 2.356h-5.399a2.358 2.358 0 0 1-2.357-2.356v-5.399a2.354 2.354 0 0 1 2.357-2.368zm18.718 0h5.398a2.366 2.366 0 0 1 2.357 2.357v5.41a2.365 2.365 0 0 1-2.357 2.356h-5.398a2.365 2.365 0 0 1-2.357-2.356v-5.399a2.354 2.354 0 0 1 2.357-2.368zm18.719 0h5.398a2.368 2.368 0 0 1 2.368 2.357v5.41a2.368 2.368 0 0 1-2.368 2.356h-5.398a2.365 2.365 0 0 1-2.357-2.356v-5.399a2.368 2.368 0 0 1 2.357-2.368zm-19.393-42.338h5.398a2.365 2.365 0 0 1 2.357 2.356v5.399a2.359 2.359 0 0 1-2.357 2.357h-5.398a2.366 2.366 0 0 1-2.357-2.357v-5.399c-.011-1.294 1.051-2.356 2.357-2.356zm18.718 0h5.398a2.365 2.365 0 0 1 2.357 2.356v5.399a2.359 2.359 0 0 1-2.357 2.357h-5.399a2.368 2.368 0 0 1-2.367-2.357v-5.399a2.382 2.382 0 0 1 2.368-2.356zm563.386-37.377h5.949a2.598 2.598 0 0 1 2.596 2.596v5.949a2.598 2.598 0 0 1-2.596 2.597h-5.949a2.606 2.606 0 0 1-2.597-2.597v-5.949c-.012-1.426 1.158-2.596 2.597-2.596zm20.625 0h5.949a2.606 2.606 0 0 1 2.596 2.596v5.949a2.598 2.598 0 0 1-2.596 2.597h-5.949a2.607 2.607 0 0 1-2.597-2.597v-5.949a2.606 2.606 0 0 1 2.597-2.596zm20.639 0h5.949a2.606 2.606 0 0 1 2.596 2.596v5.949a2.598 2.598 0 0 1-2.596 2.597h-5.949a2.607 2.607 0 0 1-2.597-2.597v-5.949c-.012-1.426 1.158-2.596 2.597-2.596zm20.625 0h5.949a2.607 2.607 0 0 1 2.597 2.596v5.949a2.6 2.6 0 0 1-2.597 2.597h-5.949a2.61 2.61 0 0 1-2.609-2.597v-5.949c.013-1.426 1.183-2.596 2.609-2.596zm20.627 0h5.949a2.609 2.609 0 0 1 2.609 2.596v5.949a2.601 2.601 0 0 1-2.609 2.597h-5.949a2.607 2.607 0 0 1-2.596-2.597v-5.949a2.606 2.606 0 0 1 2.596-2.596zm-61.135 22.491h5.949a2.606 2.606 0 0 1 2.597 2.597v5.961a2.606 2.606 0 0 1-2.597 2.596h-5.949a2.598 2.598 0 0 1-2.596-2.596v-5.949a2.593 2.593 0 0 1 2.596-2.609zm20.626 0h5.949a2.606 2.606 0 0 1 2.596 2.597v5.961a2.606 2.606 0 0 1-2.596 2.596h-5.949a2.606 2.606 0 0 1-2.597-2.596v-5.949a2.594 2.594 0 0 1 2.597-2.609zm20.626 0h5.949a2.609 2.609 0 0 1 2.609 2.597v5.961a2.609 2.609 0 0 1-2.609 2.596h-5.949a2.606 2.606 0 0 1-2.596-2.596v-5.949a2.609 2.609 0 0 1 2.596-2.609zM763.19 354h5.949a2.606 2.606 0 0 1 2.596 2.597v5.949a2.598 2.598 0 0 1-2.596 2.596h-5.949a2.607 2.607 0 0 1-2.597-2.596v-5.949c-.012-1.427 1.158-2.597 2.597-2.597zm20.625 0h5.949a2.607 2.607 0 0 1 2.597 2.597v5.949a2.6 2.6 0 0 1-2.597 2.596h-5.949a2.61 2.61 0 0 1-2.609-2.596v-5.949c.013-1.427 1.183-2.597 2.609-2.597zM232.324 176.623h5.323a2.325 2.325 0 0 1 2.324 2.323v5.324a2.326 2.326 0 0 1-2.324 2.324h-5.323A2.333 2.333 0 0 1 230 184.27v-5.324c-.011-1.276 1.036-2.323 2.324-2.323zm18.457-.001h5.324a2.333 2.333 0 0 1 2.323 2.324v5.324a2.325 2.325 0 0 1-2.323 2.323h-5.324a2.333 2.333 0 0 1-2.324-2.323v-5.324a2.334 2.334 0 0 1 2.324-2.324zm18.47.001h5.324a2.333 2.333 0 0 1 2.324 2.323v5.324a2.327 2.327 0 0 1-2.324 2.324h-5.324a2.333 2.333 0 0 1-2.323-2.324v-5.324c-.011-1.276 1.036-2.323 2.323-2.323zm18.458 0h5.324a2.332 2.332 0 0 1 2.323 2.323v5.324a2.326 2.326 0 0 1-2.323 2.324h-5.324a2.336 2.336 0 0 1-2.335-2.324v-5.324a2.35 2.35 0 0 1 2.335-2.323zm18.459-.001h5.324a2.335 2.335 0 0 1 2.334 2.324v5.324a2.327 2.327 0 0 1-2.334 2.323h-5.324a2.333 2.333 0 0 1-2.324-2.323v-5.324a2.334 2.334 0 0 1 2.324-2.324zm-54.71 20.128h5.324a2.333 2.333 0 0 1 2.324 2.324v5.334a2.333 2.333 0 0 1-2.324 2.324h-5.324a2.325 2.325 0 0 1-2.323-2.324v-5.323a2.32 2.32 0 0 1 2.323-2.335zm18.458 0h5.324a2.332 2.332 0 0 1 2.323 2.324v5.334a2.332 2.332 0 0 1-2.323 2.324h-5.324a2.332 2.332 0 0 1-2.324-2.324v-5.323a2.321 2.321 0 0 1 2.324-2.335zm18.459 0h5.323a2.335 2.335 0 0 1 2.335 2.324v5.334a2.335 2.335 0 0 1-2.335 2.324h-5.323a2.332 2.332 0 0 1-2.324-2.324v-5.323a2.335 2.335 0 0 1 2.324-2.335zM269.251 155h5.324a2.333 2.333 0 0 1 2.324 2.324v5.323a2.326 2.326 0 0 1-2.324 2.324h-5.324a2.332 2.332 0 0 1-2.323-2.324v-5.323c-.011-1.277 1.036-2.324 2.323-2.324zm18.458 0h5.324a2.332 2.332 0 0 1 2.323 2.324v5.323a2.325 2.325 0 0 1-2.323 2.324h-5.324a2.335 2.335 0 0 1-2.335-2.324v-5.323a2.35 2.35 0 0 1 2.335-2.324z" fill="#E1E4E5"/><path fill-rule="evenodd" clip-rule="evenodd" d="M673.697 203.38c0-7.942 6.438-14.38 14.379-14.38H825.62c7.942 0 14.38 6.438 14.38 14.38 0 7.941-6.438 14.379-14.38 14.379H688.076c-7.941 0-14.379-6.438-14.379-14.379zM314.57 258.095c0-7.596-6.158-13.754-13.754-13.754H113.255c-7.596 0-13.754 6.158-13.754 13.754 0 7.596 6.158 13.754 13.754 13.754h187.561c7.596 0 13.754-6.158 13.754-13.754zm359.127-5.281c0-7.941 6.438-14.379 14.379-14.379h76.275c7.941 0 14.379 6.438 14.379 14.379 0 7.942-6.438 14.38-14.379 14.38h-76.275c-7.941 0-14.379-6.438-14.379-14.38zM260.802 306.38c0-7.942-6.437-14.38-14.379-14.38H111.38c-7.942 0-14.38 6.438-14.38 14.38 0 7.941 6.438 14.379 14.38 14.379h135.043c7.942 0 14.379-6.438 14.379-14.379zm412.895-5.816c0-7.251 5.878-13.129 13.129-13.129h78.775c7.251 0 13.129 5.878 13.129 13.129 0 7.251-5.878 13.129-13.129 13.129h-78.775c-7.251 0-13.129-5.878-13.129-13.129zm-412.895 53.565c0-7.251-5.878-13.129-13.129-13.129H110.129c-7.251 0-13.13 5.878-13.13 13.129 0 7.251 5.879 13.129 13.13 13.129h137.544c7.251 0 13.129-5.878 13.129-13.129z" fill="#fff" stroke="#E1E4E5" stroke-width="4" stroke-linecap="round" stroke-linejoin="round"/><rect x="306.078" y="284.353" width="128.45" height="128.45" rx="64.225" fill="#009688"/><path d="m391.178 337.034-28.005 27.675-16.803-16.605" stroke="#fff" stroke-width="9.368" stroke-linecap="round" stroke-linejoin="round"/></svg>