<svg width="900" height="600" viewBox="0 0 900 600" fill="none" xmlns="http://www.w3.org/2000/svg"><path fill="transparent" d="M0 0h900v600H0z"/><path d="M549.158 311.911H351.506v66.986h197.652v-66.986z" fill="#fff" stroke="#E1E4E5" stroke-width="3.008"/><path d="M428.416 378.897H347.37v-69.156L388.199 235l40.217 74.656v69.241z" fill="#fff" stroke="#E1E4E5" stroke-width="3.008"/><path d="M456.761 324.234h-18.75v37.403h18.75v-37.403z" fill="#fff"/><path d="M455.752 359.96v-34.05h-15.824v34.05h15.824z" fill="#fff" stroke="#E1E4E5" stroke-width="3.008"/><path d="M474.475 324.234h-18.75v37.403h18.75v-37.403z" fill="#fff"/><path d="M472.559 359.96v-34.05h-15.824v34.05h15.824z" fill="#fff" stroke="#E1E4E5" stroke-width="3.008"/><path d="M390.214 324.234h-18.75v37.403h18.75v-37.403z" fill="#fff"/><path d="M389.205 359.961v-34.05h-15.824v34.05h15.824z" fill="#fff" stroke="#E1E4E5" stroke-width="3.008"/><path d="M407.927 324.234h-18.75v37.403h18.75v-37.403z" fill="#fff"/><path d="M406.012 359.961v-34.05h-15.824v34.05h15.824z" fill="#fff" stroke="#E1E4E5" stroke-width="3.008"/><path d="M390.044 304.336h-12.592v-12.504c0-6.966 5.638-12.613 12.592-12.613v25.117z" fill="#fff"/><path d="M378.74 303.211V290.99c0-5.879 4.758-10.645 10.627-10.645v22.866H378.74z" fill="#fff" stroke="#E1E4E5" stroke-width="3.008"/><path d="M401.939 304.336h-12.592v-25.117c6.954 0 12.592 5.647 12.592 12.613v12.504z" fill="#fff"/><path d="M390.026 303.211v-22.866c5.869 0 10.628 4.766 10.628 10.645v12.221h-10.628z" fill="#fff" stroke="#E1E4E5" stroke-width="3.008"/><path d="M523.203 324.234h-18.75v37.403h18.75v-37.403z" fill="#fff"/><path d="M522.193 359.96v-34.05h-15.824v34.05h15.824z" fill="#fff" stroke="#E1E4E5" stroke-width="3.008"/><path d="M540.917 324.234h-18.75v37.403h18.75v-37.403z" fill="#fff"/><path d="M539 359.96v-34.05h-15.823v34.05H539zm16.33-47.583H432.168L387.894 235h123.161l44.275 77.377zm-6.173 66.52H347.37v18.194h201.787v-18.194zm79.392 29.772H430.896v66.987h197.653v-66.987z" fill="#fff" stroke="#E1E4E5" stroke-width="3.008"/><path d="M507.808 475.656h-81.046V406.5l40.829-74.742 40.217 74.656v69.242z" fill="#fff" stroke="#E1E4E5" stroke-width="3.008"/><path d="M536.152 420.993h-18.75v37.402h18.75v-37.402z" fill="#fff"/><path d="M535.142 456.719v-34.05h-15.824v34.05h15.824z" fill="#fff" stroke="#E1E4E5" stroke-width="3.008"/><path d="M553.865 420.993h-18.75v37.402h18.75v-37.402z" fill="#fff"/><path d="M551.949 456.719v-34.05h-15.824v34.05h15.824z" fill="#fff" stroke="#E1E4E5" stroke-width="3.008"/><path d="M469.606 420.993h-18.75v37.402h18.75v-37.402z" fill="#fff"/><path d="M468.595 456.719v-34.05h-15.823v34.05h15.823z" fill="#fff" stroke="#E1E4E5" stroke-width="3.008"/><path d="M487.319 420.993h-18.75v37.402h18.75v-37.402z" fill="#fff"/><path d="M485.403 456.719v-34.05h-15.824v34.05h15.824z" fill="#fff" stroke="#E1E4E5" stroke-width="3.008"/><path d="M469.435 401.095h-12.592v-12.504c0-6.966 5.638-12.613 12.592-12.613v25.117z" fill="#fff"/><path d="M458.131 399.969v-12.221c0-5.879 4.759-10.645 10.628-10.645v22.866h-10.628z" fill="#fff" stroke="#E1E4E5" stroke-width="3.008"/><path d="M481.331 401.095h-12.592v-25.117c6.954 0 12.592 5.647 12.592 12.613v12.504z" fill="#fff"/><path d="M469.418 399.969v-22.866c5.869 0 10.627 4.766 10.627 10.645v12.221h-10.627z" fill="#fff" stroke="#E1E4E5" stroke-width="3.008"/><path d="M602.593 420.993h-18.75v37.402h18.75v-37.402z" fill="#fff"/><path d="M601.584 456.718v-34.05h-15.823v34.05h15.823z" fill="#fff" stroke="#E1E4E5" stroke-width="3.008"/><path d="M620.309 420.993h-18.75v37.402h18.75v-37.402z" fill="#fff"/><path d="M618.392 456.718v-34.05h-15.824v34.05h15.824zm16.329-47.583H511.559l-44.275-77.377h123.162l44.275 77.377zm-6.172 66.521H426.762v18.194h201.787v-18.194zm-188.555-82.699H242.342v66.986h197.652v-66.986z" fill="#fff" stroke="#E1E4E5" stroke-width="3.008"/><path d="M319.253 459.943h-81.046v-69.156l40.829-74.741 40.217 74.656v69.241z" fill="#fff" stroke="#E1E4E5" stroke-width="3.008"/><path d="M347.598 405.28h-18.751v37.403h18.751V405.28z" fill="#fff"/><path d="M346.587 441.006v-34.05h-15.823v34.05h15.823z" fill="#fff" stroke="#E1E4E5" stroke-width="3.008"/><path d="M365.31 405.28h-18.75v37.402h18.75V405.28z" fill="#fff"/><path d="M363.396 441.006v-34.05h-15.824v34.05h15.824z" fill="#fff" stroke="#E1E4E5" stroke-width="3.008"/><path d="M281.05 405.28H262.3v37.403h18.75V405.28z" fill="#fff"/><path d="M280.041 441.006v-34.05h-15.824v34.05h15.824z" fill="#fff" stroke="#E1E4E5" stroke-width="3.008"/><path d="M298.765 405.28h-18.751v37.402h18.751V405.28z" fill="#fff"/><path d="M296.848 441.006v-34.05h-15.824v34.05h15.824z" fill="#fff" stroke="#E1E4E5" stroke-width="3.008"/><path d="M280.881 385.382h-12.592v-12.504c0-6.966 5.638-12.613 12.592-12.613v25.117z" fill="#fff"/><path d="M269.577 384.256v-12.221c0-5.879 4.758-10.645 10.627-10.645v22.866h-10.627z" fill="#fff" stroke="#E1E4E5" stroke-width="3.008"/><path d="M292.777 385.382h-12.592v-25.118c6.954 0 12.592 5.648 12.592 12.614v12.504z" fill="#fff"/><path d="M280.864 384.256V361.39c5.869 0 10.627 4.766 10.627 10.645v12.221h-10.627z" fill="#fff" stroke="#E1E4E5" stroke-width="3.008"/><path d="M414.039 405.28h-18.75v37.403h18.75V405.28z" fill="#fff"/><path d="M413.029 441.006v-34.05h-15.824v34.05h15.824z" fill="#fff" stroke="#E1E4E5" stroke-width="3.008"/><path d="M431.753 405.28h-18.75v37.402h18.75V405.28z" fill="#fff"/><path d="M429.836 441.006v-34.05h-15.823v34.05h15.823zm16.331-47.584H323.005l-44.275-77.376h123.162l44.275 77.376zm-6.173 66.521H238.207v18.194h201.787v-18.194z" fill="#fff" stroke="#E1E4E5" stroke-width="3.008"/><path fill-rule="evenodd" clip-rule="evenodd" d="M132 514.681s72.351-71.36 174.011-72.363c102.121-1.006 183.366 69.92 190.851 73.584L132 514.681z" fill="#fff" stroke="#E1E4E5" stroke-width="3.008"/><path fill-rule="evenodd" clip-rule="evenodd" d="M254.312 514.681s72.351-71.36 174.01-72.363c102.121-1.006 183.367 69.92 190.851 73.584l-364.861-1.221z" fill="#fff" stroke="#E1E4E5" stroke-width="3.008"/><path fill-rule="evenodd" clip-rule="evenodd" d="M402.536 514.681s72.352-71.36 174.011-72.363c102.121-1.006 183.367 69.92 190.851 73.584l-364.862-1.221zm-217.139-105.13h.037c1.019 0 1.846.826 1.846 1.846v83.223h-3.729v-83.223c0-1.02.827-1.846 1.846-1.846z" fill="#fff" stroke="#E1E4E5" stroke-width="3.008"/><path fill-rule="evenodd" clip-rule="evenodd" d="M152.73 448.515c0 18.13 14.698 32.829 32.829 32.829s32.828-14.699 32.828-32.829c0-18.13-14.697-53.888-32.828-53.888-18.131 0-32.829 35.758-32.829 53.888z" fill="#fff"/><path d="M152.73 448.515c0 18.13 14.698 32.829 32.829 32.829s32.828-14.699 32.828-32.829c0-18.13-14.697-53.888-32.828-53.888-18.131 0-32.829 35.758-32.829 53.888" stroke="#E1E4E5" stroke-width="3.008"/><path fill-rule="evenodd" clip-rule="evenodd" d="M346.984 399.561h.033c.888 0 1.608.72 1.608 1.608v72.494h-3.248v-72.494c0-.888.72-1.608 1.607-1.608z" fill="#fff" stroke="#E1E4E5" stroke-width="3.008"/><path fill-rule="evenodd" clip-rule="evenodd" d="M318.53 433.502c0 15.792 12.802 28.596 28.596 28.596 15.793 0 28.596-12.804 28.596-28.596 0-15.793-12.803-46.941-28.596-46.941-15.794 0-28.596 31.148-28.596 46.941z" fill="#fff"/><path d="M318.53 433.502c0 15.792 12.802 28.596 28.596 28.596 15.793 0 28.596-12.804 28.596-28.596 0-15.793-12.803-46.941-28.596-46.941-15.794 0-28.596 31.148-28.596 46.941" stroke="#E1E4E5" stroke-width="3.008"/><path fill-rule="evenodd" clip-rule="evenodd" d="M452.824 418.879h.038c1.019 0 1.846.826 1.846 1.846v83.224h-3.729v-83.224c0-1.02.826-1.846 1.845-1.846z" fill="#fff" stroke="#E1E4E5" stroke-width="3.008"/><path fill-rule="evenodd" clip-rule="evenodd" d="M420.157 457.844c0 18.13 14.698 32.829 32.829 32.829s32.828-14.699 32.828-32.829c0-18.13-14.697-53.888-32.828-53.888-18.131 0-32.829 35.758-32.829 53.888z" fill="#fff"/><path d="M420.157 457.844c0 18.13 14.698 32.829 32.829 32.829s32.828-14.699 32.828-32.829c0-18.13-14.697-53.888-32.828-53.888-18.131 0-32.829 35.758-32.829 53.888" stroke="#E1E4E5" stroke-width="3.008"/><path fill-rule="evenodd" clip-rule="evenodd" d="M567.694 413.501h.027c.746 0 1.351.605 1.351 1.351v60.914h-2.729v-60.914c0-.746.605-1.351 1.351-1.351z" fill="#fff" stroke="#E1E4E5" stroke-width="3.008"/><path fill-rule="evenodd" clip-rule="evenodd" d="M543.784 442.02c0 13.27 10.758 24.029 24.028 24.029 13.271 0 24.028-10.759 24.028-24.029s-10.757-39.442-24.028-39.442c-13.27 0-24.028 26.172-24.028 39.442z" fill="#fff"/><path d="M543.784 442.02c0 13.27 10.758 24.029 24.028 24.029 13.271 0 24.028-10.759 24.028-24.029s-10.757-39.442-24.028-39.442c-13.27 0-24.028 26.172-24.028 39.442" stroke="#E1E4E5" stroke-width="3.008"/><path fill-rule="evenodd" clip-rule="evenodd" d="M644.668 398.837h.03c.808 0 1.463.655 1.463 1.463v65.972h-2.956V400.3c0-.808.655-1.463 1.463-1.463z" fill="#fff" stroke="#E1E4E5" stroke-width="3.008"/><path fill-rule="evenodd" clip-rule="evenodd" d="M618.773 429.724c0 14.372 11.651 26.024 26.023 26.024 14.373 0 26.023-11.652 26.023-26.024 0-14.372-11.65-42.717-26.023-42.717-14.372 0-26.023 28.345-26.023 42.717z" fill="#fff"/><path d="M618.773 429.724c0 14.372 11.651 26.024 26.023 26.024 14.373 0 26.023-11.652 26.023-26.024 0-14.372-11.65-42.717-26.023-42.717-14.372 0-26.023 28.345-26.023 42.717" stroke="#E1E4E5" stroke-width="3.008"/><path fill-rule="evenodd" clip-rule="evenodd" d="M161.807 287.134s-21.819-17.423-21.819-33.335c0-11.717 9.769-21.214 21.819-21.214 12.05 0 21.819 9.497 21.819 21.214 0 15.912-21.819 33.335-21.819 33.335z" fill="#009688" stroke="#009688" stroke-width="6.616" stroke-linecap="round" stroke-linejoin="round"/><path d="M161.802 251.848c-1.455 0-2.625 1.152-2.625 2.561 0 1.41 1.179 2.552 2.634 2.552 1.456 0 2.626-1.142 2.626-2.561.009-1.4-1.17-2.552-2.635-2.552" stroke="#fff" stroke-width="11.251" stroke-linecap="round" stroke-linejoin="round"/><path fill-rule="evenodd" clip-rule="evenodd" d="M752.698 364.975s-21.82-17.422-21.82-33.334c0-11.717 9.77-21.214 21.82-21.214 12.049 0 21.819 9.497 21.819 21.214 0 15.912-21.819 33.334-21.819 33.334z" fill="#009688" stroke="#009688" stroke-width="6.616" stroke-linecap="round" stroke-linejoin="round"/><path d="M752.693 329.69c-1.456 0-2.626 1.152-2.626 2.561 0 1.41 1.18 2.552 2.635 2.552 1.456 0 2.626-1.142 2.626-2.561.009-1.4-1.17-2.552-2.635-2.552" stroke="#fff" stroke-width="11.251" stroke-linecap="round" stroke-linejoin="round"/><path d="M194.831 258.533c21.033-18.085 76.544-51.423 130.326-40.101 67.227 14.153 215.834 8.256 228.218-45.408 12.384-53.663-100.841-43.049-56.612 33.614 35.383 61.33 159.812 108.9 218.193 129.147" stroke="#E1E4E5" stroke-width="2" stroke-dasharray="7 6"/><path stroke="#E1E4E5" stroke-width="4" d="M98 516h704"/><path d="m542.43 413.094-2.051-1.668 27.492-35.87 9.92-.411-35.361 37.949zm-35.917 0-1.697-1.668 22.745-35.87 8.206-.411-29.254 37.949zM401.819 476.05l-19.299 7.752c-13.363-25.92-27.011-38.636-38.686-44.91-20.998-11.29-35.614-1.726-30.693-10.621l36.022-75.805a32.967 32.967 0 0 1 12.693-10.554 33.296 33.296 0 0 1 17.23-3.04c6.876.634 11.367 7.551 9.178 14.079-4.715 14.064-6.528 28.202-6.528 41.63 0 44.676 20.083 81.469 20.083 81.469z" fill="#009688" stroke="#133835" stroke-width="2"/><path d="M491.582 485.772h-122.58a2.436 2.436 0 0 1-2.423-2.436v-11.565a2.436 2.436 0 0 1 2.423-2.436h108.281a2.436 2.436 0 0 1 2.423 2.436l11.876 14.001zm37.713 27.516c20.231 0 36.632-16.375 36.632-36.575 0-20.199-16.401-36.575-36.632-36.575-20.232 0-36.633 16.376-36.633 36.575 0 20.2 16.401 36.575 36.633 36.575z" fill="#009688" stroke="#133835" stroke-width="2"/><path d="M529.295 495.356c10.312 0 18.672-8.347 18.672-18.643 0-10.296-8.36-18.643-18.672-18.643-10.313 0-18.672 8.347-18.672 18.643 0 10.296 8.359 18.643 18.672 18.643z" fill="#fff" stroke="#133835" stroke-width="2"/><path d="m378.496 347.069-13.827-5.272c-1.882 0-5.469 1.698-5.469-.182l2.048-33.711a3.427 3.427 0 0 1 3.421-3.416h8.911c1.883 0 9.424 3.601 8.891 10.345l2.372 33.985c.003 1.879-4.464-1.749-6.347-1.749zm235.492 29.743h-92.079c-2.665 0-4.845-2.176-4.845-4.837v-3.319c0-2.661 2.18-4.837 4.845-4.837h92.079c2.666 0 4.845 2.176 4.845 4.837v3.319c0 2.661-2.179 4.837-4.845 4.837zM324.616 513.288c20.231 0 36.632-16.375 36.632-36.575 0-20.199-16.401-36.575-36.632-36.575-20.232 0-36.633 16.376-36.633 36.575 0 20.2 16.401 36.575 36.633 36.575z" fill="#009688" stroke="#133835" stroke-width="2"/><path d="M343.288 476.713c0 3.14-.78 6.101-2.153 8.695-.088.168-.182.333-.28.498a18.649 18.649 0 0 1-16.239 9.453c-10.315 0-18.676-8.348-18.676-18.646 0-7.758 4.744-14.408 11.499-17.211.067-.034.142-.061.212-.088a18.629 18.629 0 0 1 6.965-1.344c10.314 0 18.672 8.348 18.672 18.643z" fill="#fff" stroke="#133835" stroke-width="2"/><path d="M458.79 403.045s14.279 31.764-17.626 66.29h73.639l-9.991-75.588-46.022 9.298z" fill="#009688" stroke="#133835" stroke-width="2"/><path d="M603.14 480.934c0 1.331-.546 2.54-1.427 3.419a4.83 4.83 0 0 1-3.421 1.419H480.776c-2.666 0-4.846-2.177-4.846-4.838l1.559-76.741 39.572-2.418c52.713 0 86.079 26.529 86.079 79.159zM361.062 318.91c0 1.189-.108 2.351-.32 3.48-1.637 8.789-9.363 15.442-18.639 15.442v-37.848c10.47 0 18.959 8.472 18.959 18.926zm31.623 2.556c-.075 0-.861-.155-.935-.168l-20.855-5.777c-.827-.162-1.401-1.186-1.279-2.288.121-1.101.887-1.866 1.717-1.701l20.903 4.076c.826.162 1.488 1.415 1.683 2.5.331 1.812-.496 3.358-1.234 3.358zm-50.392 113.949.518 3.205c.012.077-.062.13-.134.1a41.958 41.958 0 0 0-18.061-4.066c-21.841 0-39.855 16.689-41.923 37.97-.223 2.314-2.146 4.089-4.471 4.089h-.24c-4.319 0-7.642-3.83-6.998-8.092 3.334-22.092 20.076-39.859 41.667-44.727a.485.485 0 0 0 .316-.258l34.086-71.807c.052-.11.114-.214.185-.312a31.394 31.394 0 0 1 6.373-6.507c1.572-1.195 3.333.576 2.429 2.331-7.004 13.593-18.235 41.708-15.04 77.746.26 2.904.611 5.858 1.063 8.866.074.485.149.974.23 1.462z" fill="#009688" stroke="#133835" stroke-width="2"/><path d="M537.491 388.05v11.4a3.611 3.611 0 0 1-3.604 3.598H458.79a3.613 3.613 0 0 1-3.604-3.598v-11.4a3.61 3.61 0 0 1 3.604-3.597h75.097a3.609 3.609 0 0 1 3.604 3.597zm-12.867-24.236h58.527v-48.183h-58.527v48.183z" fill="#009688" stroke="#133835" stroke-width="2"/><path d="M612.413 315.632h-58.528v48.183h58.528v-48.183z" fill="#009688" stroke="#133835" stroke-width="2"/><path d="M612.413 347.578v16.237h-58.528v-48.183h10.369l48.159 31.946z" fill="#009688" stroke="#133835" stroke-width="2"/><path fill-rule="evenodd" clip-rule="evenodd" d="M426.341 460.109s6.308 12.741 1.137 16.756c-5.179 4.016-18.859 11.541-18.859 11.541l36.243-2.278-8.056-27.787-10.465 1.768z" fill="#F8AE9D"/><path fill-rule="evenodd" clip-rule="evenodd" d="M441.273 471.638c-1.141.545.734 5.664-3.278 5.304-4.012-.359-6.531-5.65-9.489-5.306-2.96.342-4.838 5.671-10.471 9.382-5.632 3.713-13.984 8.14-13.424 11.872.559 3.732 13.701 4.731 20.359 3.496 6.658-1.235 9.766-3.911 14.086-3.698 4.319.213 7.034-.315 8.388-3.089 1.353-2.774-4.855-18.589-6.171-17.961zm39.666-123.823c-10.972.49-72.042 13.997-83.137 16.292-11.096 2.295-20.476 14.712-12.015 29.091 9.502 16.14 34.021 61.979 39.974 72.312 2.947 5.115 17.811 2.247 14.319-6.337-6.509-16.003-9.531-56.203-26.126-70.861 0 0 55.808 9.713 79.915-1.413 17.52-8.087 13.556-40.268-12.93-39.084z" fill="#133835"/><path fill-rule="evenodd" clip-rule="evenodd" d="M404.394 279.324s.124-6.523-2.999-11.189-3.247-9.622-5.61-9.46c-2.364.162-.023 11.682-.023 11.682s-2.999-1.146-5.154-2.595c-2.154-1.449-8.687-8.593-10.213-7.327-2.589 2.157 1.581 14.325 3.851 16.757 2.278 2.434 13.521 9.233 13.521 9.233l33.111 33.357 4.951-17.708-31.435-22.75z" fill="#F8AE9D"/><path fill-rule="evenodd" clip-rule="evenodd" d="M470.623 276.379c-5.104 11.838-14.45 33.586-18.303 40.074-4.828 8.126-12.442 11.706-21.356 5.677-1.865-1.262-7.222-5.674-7.222-5.674.793-7.722 3.678-14.177 8.651-19.366l3.378 2.794s9.579-24.555 17.285-38.78c6.673-12.306 25.336-2.723 17.567 15.275zm22.059-45.953v10.475l7.693-6.193s2.364-10.037 4.287-17.491c1.206-4.675 4.144-20.495-7.684-19.753-9.689-17.08-37.907-6.509-38.132 14.358-.27 25.097-.049 34.868-.049 34.868 15.956.916 24.938-1.391 33.885-16.264z" fill="#133835"/><path fill-rule="evenodd" clip-rule="evenodd" d="M500.541 250.371s-7.156-1.68-7.405-13.406c-.248-11.725-.074-15.727-.074-15.727l-15.762-.285s-.172 13.068-.174 17.795c-.007 11.492-8.459 12.434-8.459 12.434s1.445 9.483 15.728 10.286c11.151.628 16.146-11.097 16.146-11.097z" fill="#F8AE9D"/><path fill-rule="evenodd" clip-rule="evenodd" d="M496.737 215.383c7.032-.273 5.885 10.021-1.42 10.007 0 0-4.242 14.623-18.972 14.623-11.963 0-12.741-17.043-12.849-20.443-.117-3.625-.132-15.535-.132-15.535l33.647-.015-.274 11.363z" fill="#F8AE9D"/><path fill-rule="evenodd" clip-rule="evenodd" d="M497.281 215.315c-2.914.48-2.56 2.41-3.353 2.241-4.023-.855-20.31.273-22.407-8.683-2.61 5.595-3.247 6.971-8.993 8.473V200.95l36.342-3.486s-.564 17.681-1.589 17.851z" fill="#133835"/><path fill-rule="evenodd" clip-rule="evenodd" d="M498.942 249.171c-8.98 5.501-19.362 7.517-29.027 1.544-15.772 31.099-19.702 68.204-15.909 109.215 22.999 9.105 42.328 7.314 58.784-3.093l-13.848-107.666z" fill="#009688"/><path fill-rule="evenodd" clip-rule="evenodd" d="M387.028 460.621s.19 14.996-12.166 20.603c-12.349 5.606-21.147 5.268-20.028 9.603 1.12 4.333 33.263 4.158 36.265.769 2.558-2.884 8.122-29.735 9.654-27.682l-13.725-3.293z" fill="#F8AE9D"/><path fill-rule="evenodd" clip-rule="evenodd" d="M396.002 481.799c-1.893-1.363-3.486 6.495-8.63 4.309-5.143-2.184-1.087-9.406-4.324-10.738-3.237-1.332-9.488 5.829-17.79 7.57-8.302 1.74-15.043 3.263-16.959 6.494-1.65 2.778 0 3.665 0 3.665s7.993 3.991 12.959 4.87c7.214 1.276 28.066 2.126 30.35-.201 1.403-1.427 5.341-15.287 4.394-15.969zm119.316-138.62s15.951 33.689-6.466 45.257c-21.68 11.188-86.582-2.044-86.582-2.044s1.16 9.337 0 17.665c-3.029 21.75-17.434 57.986-20.482 62.539-4.215 6.297-17.054 1.548-17.296-3.695-.241-5.243 9.679-72.202 11.188-84.971 1.501-12.77 6.239-14.625 20.078-18.115 3.18-.802 40.778-10.146 44.223-9.874 29.595 2.34 55.337-6.762 55.337-6.762z" fill="#133835"/><path fill-rule="evenodd" clip-rule="evenodd" d="M498.55 249.196c-14.873 48.722-23.793 117.796 22.658 105.779-24.675-45.431 8.869-65.878 1.266-89.358-2.6-8.028-23.73-17.05-23.924-16.421zm-27.848 1.178c-5.675 14.235-8.404 25.405-10.949 46.3-2.123 17.403-1.06 53.315-1.06 53.315l-7.014 1.379s-5.014-55.482-3.338-62.626c2.813-11.988 4.719-18.992 8.434-29.951 2.046-6.015 13.927-8.417 13.927-8.417z" fill="#133835"/><path fill-rule="evenodd" clip-rule="evenodd" d="M495.426 304.508s-9.157-9.17-12.329-10.234c-3.171-1.064-20.544-2.342-20.426.062.133 2.576 11.312 2.428 12.346 3.695 1.033 1.267 2.471 11.131 6.378 12.104 3.9.972 11.984 3.851 11.984 3.851l35.984 18.593-3.833-18.591-30.104-9.48z" fill="#F8AE9D"/><path fill-rule="evenodd" clip-rule="evenodd" d="M522.989 265.684c10.915 15.405 20.234 38.87 23.811 48.019 3.577 9.148-.031 22.947-15.761 20.238-1.873-.322-4.919-1.508-4.919-1.508-5.784-7.928-6.798-14.735-4.64-20.795l2.035.859s-15.634-27.711-19.451-35.14c-6.377-12.406 9.31-25.247 18.925-11.673z" fill="#133835"/><path d="M215.933 342.846c-19.715 4.67-40.566-12.049-40.566-12.049s11.127-24.283 30.848-28.939c19.715-4.671 40.56 12.034 40.56 12.034s-11.127 24.284-30.842 28.954z" fill="url(#a)"/><path d="M325.188 156.011c20.755 14.296 52.465 4.303 52.465 4.303s-1.964-33.169-22.734-47.451c-20.755-14.296-52.45-4.317-52.45-4.317s1.963 33.169 22.719 47.465z" fill="url(#b)"/><path d="M645.953 201.734c-12.398 12.618-35.581 9.958-35.581 9.958s-3.068-23.12 9.341-35.73c12.398-12.619 35.57-9.966 35.57-9.966s3.068 23.119-9.33 35.738z" fill="url(#c)"/><circle cx="746.247" cy="453.174" r="10.652" transform="rotate(180 746.247 453.174)" fill="#009688"/><circle r="7.998" transform="matrix(-1 0 0 1 105.035 327.136)" fill="#009688"/><circle r="15.268" transform="matrix(-1 0 0 1 719.02 141.705)" fill="#009688"/><ellipse rx="6.394" ry="5.861" transform="matrix(-1 0 0 1 795.275 493.398)" fill="#E1E4E5"/><circle r="8.521" transform="matrix(-1 0 0 1 113.999 406.632)" fill="#E1E4E5"/><circle r="5.089" transform="matrix(-1 0 0 1 311.209 297.603)" fill="#E1E4E5"/><circle r="7.271" transform="matrix(-1 0 0 1 547.082 87.71)" fill="#E1E4E5"/><circle r="7.105" transform="scale(1 -1) rotate(-75 -26.427 -308.693)" fill="#E1E4E5"/><circle r="9.452" transform="matrix(-1 0 0 1 252.688 141.985)" fill="#E1E4E5"/><ellipse rx="7.271" ry="5.816" transform="matrix(-1 0 0 1 773.14 278.95)" fill="#E1E4E5"/><circle r="14.786" transform="scale(1 -1) rotate(-75 80.85 -658.425)" fill="#E1E4E5"/><path d="M679.11 238.145h.19c1.126 15.958 12.994 16.204 12.994 16.204s-13.087.255-13.087 18.695c0-18.44-13.087-18.695-13.087-18.695s11.863-.246 12.99-16.204zM423.941 80.44h.186c1.1 16.235 12.691 16.485 12.691 16.485s-12.782.26-12.782 19.02c0-18.76-12.781-19.02-12.781-19.02s11.586-.25 12.686-16.485z" fill="#E1E4E5"/><defs><linearGradient id="a" x1="141.692" y1="354.458" x2="314.276" y2="272.924" gradientUnits="userSpaceOnUse"><stop stop-color="#fff"/><stop offset="1" stop-color="#EEE"/></linearGradient><linearGradient id="b" x1="406.039" y1="202.919" x2="242.657" y2="30.636" gradientUnits="userSpaceOnUse"><stop stop-color="#fff"/><stop offset="1" stop-color="#EEE"/></linearGradient><linearGradient id="c" x1="596.488" y1="244.835" x2="686.117" y2="104.334" gradientUnits="userSpaceOnUse"><stop stop-color="#fff"/><stop offset="1" stop-color="#EEE"/></linearGradient></defs></svg>