<svg width="900" height="600" viewBox="0 0 900 600" fill="none" xmlns="http://www.w3.org/2000/svg"><path fill="transparent" d="M0 0h900v600H0z"/><path fill-rule="evenodd" clip-rule="evenodd" d="M296.342 307.313c-21.351 0-38.645-17.293-38.645-38.645 0-21.351 17.294-38.645 38.645-38.645 21.352 0 38.645 17.294 38.645 38.645 0 21.352-17.293 38.645-38.645 38.645zm135.259 0c-21.352 0-38.645-17.293-38.645-38.645 0-21.351 17.293-38.645 38.645-38.645 21.352 0 38.645 17.294 38.645 38.645 0 21.352-17.293 38.645-38.645 38.645zm135.259 0c-21.352 0-38.646-17.293-38.646-38.645 0-21.351 17.294-38.645 38.646-38.645 21.351 0 38.645 17.294 38.645 38.645 0 21.352-17.294 38.645-38.645 38.645zM296.342 442.572c-21.351 0-38.645-17.293-38.645-38.645 0-21.351 17.294-38.645 38.645-38.645 21.352 0 38.645 17.294 38.645 38.645 0 21.352-17.293 38.645-38.645 38.645zm135.259 0c-21.352 0-38.645-17.293-38.645-38.645 0-21.351 17.293-38.645 38.645-38.645 21.352 0 38.645 17.294 38.645 38.645 0 21.352-17.293 38.645-38.645 38.645zm135.259 0c-21.352 0-38.646-17.293-38.646-38.645 0-21.351 17.294-38.645 38.646-38.645 21.351 0 38.645 17.294 38.645 38.645 0 21.352-17.294 38.645-38.645 38.645zM296.342 172.055c-21.351 0-38.645-17.294-38.645-38.646 0-21.351 17.294-38.645 38.645-38.645 21.352 0 38.646 17.294 38.646 38.645 0 21.352-17.294 38.646-38.646 38.646zm135.259 0c-21.352 0-38.645-17.294-38.645-38.646 0-21.351 17.293-38.645 38.645-38.645 21.352 0 38.645 17.294 38.645 38.645 0 21.352-17.293 38.646-38.645 38.646zm135.259 0c-21.352 0-38.646-17.294-38.646-38.646 0-21.351 17.294-38.645 38.646-38.645 21.351 0 38.645 17.294 38.645 38.645 0 21.352-17.294 38.646-38.645 38.646z" fill="#fff" stroke="#E1E4E5" stroke-width="4"/><path fill-rule="evenodd" clip-rule="evenodd" d="M412.942 287.334c-19.09-19.088-33.481-40.461-43.042-62.144-2.024-4.585-.833-9.952 2.708-13.493l13.363-13.346c10.948-10.947 10.948-26.43 1.387-35.991l-19.155-19.154c-12.743-12.742-33.4-12.742-46.143 0l-10.638 10.637c-12.09 12.09-17.132 29.531-13.868 46.825 8.06 42.632 32.828 89.309 72.786 129.265 39.958 39.956 86.639 64.723 129.273 72.783 17.295 3.263 34.737-1.779 46.828-13.868l10.622-10.622c12.742-12.742 12.742-33.397 0-46.139l-19.139-19.138c-9.562-9.56-25.062-9.56-34.607 0l-14.734 14.749c-3.54 3.541-8.908 4.732-13.493 2.709-21.684-9.578-43.058-23.984-62.148-43.073z" fill="#009688"/><path fill-rule="evenodd" clip-rule="evenodd" d="M667.009 440.468h4.801c1.161 0 2.095.944 2.095 2.095v4.801a2.096 2.096 0 0 1-2.095 2.095h-4.801a2.103 2.103 0 0 1-2.095-2.095v-4.801a2.09 2.09 0 0 1 2.095-2.095zm16.645 0h4.8c1.151 0 2.096.944 2.096 2.095v4.801a2.097 2.097 0 0 1-2.096 2.095h-4.8a2.104 2.104 0 0 1-2.096-2.095v-4.801c0-1.151.945-2.095 2.096-2.095zm16.655 0h4.801c1.151 0 2.096.944 2.096 2.095v4.801a2.097 2.097 0 0 1-2.096 2.095h-4.801a2.103 2.103 0 0 1-2.095-2.095v-4.801a2.09 2.09 0 0 1 2.095-2.095zm16.645 0h4.801c1.151 0 2.095.944 2.095 2.095v4.801a2.096 2.096 0 0 1-2.095 2.095h-4.801a2.105 2.105 0 0 1-2.105-2.095v-4.801a2.117 2.117 0 0 1 2.105-2.095zm16.646 0h4.801c1.161 0 2.105.944 2.105 2.095v4.801a2.098 2.098 0 0 1-2.105 2.095H733.6a2.104 2.104 0 0 1-2.096-2.095v-4.801c0-1.151.945-2.095 2.096-2.095zm-49.336 18.15h4.801c1.151 0 2.095.945 2.095 2.096v4.81a2.104 2.104 0 0 1-2.095 2.096h-4.801a2.097 2.097 0 0 1-2.095-2.096v-4.8a2.093 2.093 0 0 1 2.095-2.106zm16.645 0h4.8c1.151 0 2.096.945 2.096 2.096v4.81a2.104 2.104 0 0 1-2.096 2.096h-4.8a2.104 2.104 0 0 1-2.096-2.096v-4.8a2.094 2.094 0 0 1 2.096-2.106zm16.646 0h4.8c1.161 0 2.106.945 2.106 2.096v4.81a2.107 2.107 0 0 1-2.106 2.096h-4.8a2.104 2.104 0 0 1-2.096-2.096v-4.8c0-1.161.945-2.106 2.096-2.106zm-17.246-37.649h4.801c1.151 0 2.096.945 2.096 2.096v4.801c0 1.16-.945 2.095-2.096 2.095h-4.801a2.103 2.103 0 0 1-2.095-2.095v-4.801a2.09 2.09 0 0 1 2.095-2.096zm16.645 0h4.801c1.151 0 2.095.945 2.095 2.096v4.801c0 1.16-.944 2.095-2.095 2.095h-4.801a2.105 2.105 0 0 1-2.105-2.095v-4.801a2.118 2.118 0 0 1 2.105-2.096zm-563.016 57.304h4.8c1.161 0 2.096.945 2.096 2.096v4.8a2.098 2.098 0 0 1-2.096 2.096h-4.8a2.104 2.104 0 0 1-2.096-2.096v-4.8a2.092 2.092 0 0 1 2.096-2.096zm16.644 0h4.801c1.151 0 2.095.945 2.095 2.096v4.8a2.097 2.097 0 0 1-2.095 2.096h-4.801a2.104 2.104 0 0 1-2.095-2.096v-4.8c0-1.151.944-2.096 2.095-2.096zm16.656 0h4.801c1.151 0 2.095.945 2.095 2.096v4.8a2.097 2.097 0 0 1-2.095 2.096h-4.801a2.104 2.104 0 0 1-2.095-2.096v-4.8a2.09 2.09 0 0 1 2.095-2.096zm16.645 0h4.8c1.151 0 2.096.945 2.096 2.096v4.8a2.098 2.098 0 0 1-2.096 2.096h-4.8a2.107 2.107 0 0 1-2.106-2.096v-4.8a2.119 2.119 0 0 1 2.106-2.096zm16.645 0h4.801c1.161 0 2.106.944 2.106 2.095v4.801a2.1 2.1 0 0 1-2.106 2.096h-4.801a2.104 2.104 0 0 1-2.095-2.096v-4.801c0-1.151.944-2.095 2.095-2.095zm-49.335 18.151h4.8c1.152 0 2.096.944 2.096 2.095v4.811a2.103 2.103 0 0 1-2.096 2.095h-4.8a2.097 2.097 0 0 1-2.096-2.095v-4.801a2.093 2.093 0 0 1 2.096-2.105zm16.644 0h4.801c1.151 0 2.095.944 2.095 2.095v4.811a2.103 2.103 0 0 1-2.095 2.095h-4.801a2.103 2.103 0 0 1-2.095-2.095v-4.801a2.092 2.092 0 0 1 2.095-2.105zm16.646 0h4.801c1.161 0 2.105.944 2.105 2.095v4.811a2.105 2.105 0 0 1-2.105 2.095h-4.801a2.103 2.103 0 0 1-2.095-2.095v-4.801c0-1.161.944-2.105 2.095-2.105zm-17.245-37.65h4.801c1.151 0 2.095.945 2.095 2.096v4.801a2.096 2.096 0 0 1-2.095 2.095h-4.801a2.103 2.103 0 0 1-2.095-2.095v-4.801a2.09 2.09 0 0 1 2.095-2.096zm16.645 0h4.8c1.151 0 2.096.945 2.096 2.096v4.801a2.097 2.097 0 0 1-2.096 2.095h-4.8a2.106 2.106 0 0 1-2.106-2.095v-4.801a2.119 2.119 0 0 1 2.106-2.096z" fill="#E1E4E5"/><path fill-rule="evenodd" clip-rule="evenodd" d="M216.059 216.642h-80.136c-6.487 0-9.286-8.212-3.975-11.856l.225-.153c7.561-5.08 17.483-4.619 17.483-4.619s1.418-27.479 28.114-27.479c13.198 0 23.865 22.053 23.865 22.053s17.954 0 20.926 13.857c.898 4.197-2.113 8.197-6.502 8.197zm497.949 12.962h-80.136c-6.487 0-9.285-8.212-3.974-11.856.074-.051.149-.103.225-.153 7.56-5.08 17.482-4.619 17.482-4.619s1.418-27.48 28.114-27.48c13.198 0 23.865 22.054 23.865 22.054s17.955 0 20.926 13.856c.899 4.198-2.113 8.198-6.502 8.198zM85.878 382.77H237.09c14.194 0 13.542-11.666 8.906-15.732-4.752-4.166-14.142-2.476-14.142-2.476s-2.795-7.847-11.996-11.668c-8.139-3.379-16.666-1.771-16.666-1.771s0-5.385-5.211-9.846c-5.211-4.46-12.16-4.027-12.16-4.027s-4.776-29.697-36.696-29.697c-31.919 0-35.61 27.963-35.61 27.963s-7.166 0-12.377 4.769c-5.212 4.769-5.863 10.187-5.863 10.187s-17.428-2.344-22.583 12.664c-3.071 8.945 3.24 19.634 13.186 19.634zm580.041-18.362H817.13c14.194 0 13.543-11.667 8.907-15.732-4.752-4.167-14.142-2.477-14.142-2.477s-2.795-7.847-11.997-11.667c-8.138-3.379-16.665-1.771-16.665-1.771s0-5.386-5.211-9.846c-5.212-4.461-12.16-4.027-12.16-4.027s-4.777-29.697-36.696-29.697c-31.919 0-35.61 27.962-35.61 27.962s-7.166 0-12.378 4.769c-5.211 4.769-5.862 10.188-5.862 10.188s-17.428-2.344-22.583 12.664c-3.071 8.945 3.239 19.634 13.186 19.634z" fill="#fff" stroke="#E1E4E5" stroke-width="4"/><path d="M125.918 110.904h38.438m496.237 0h38.437m58.776 135.019h38.438m-644.402 9.721h38.438m132.226 210.629h38.437m122.505-4.32h38.438m-395.668-331.98h63.565m471.11 0h63.564m33.649 135.019h63.565m-669.529 9.721h63.565m107.099 210.63h63.564m97.378-4.321h63.565" stroke="#E1E4E5" stroke-width="5.5" stroke-linecap="round" stroke-linejoin="round"/></svg>