<svg width="900" height="600" viewBox="0 0 900 600" fill="none" xmlns="http://www.w3.org/2000/svg"><path fill="transparent" d="M0 0h900v600H0z"/><path d="M334.05 487.466c-28.028-39.21-56.732-80.884-94.312-101.411-38.762-21.182-45.91-8.127-48.594 12.628-2.683 20.756 9.276 69.932 62.176 97.912 52.913 27.989 106.955 27.569 80.73-9.129z" fill="url(#a)"/><path d="M735.714 227.823C715.879 232.522 694.9 215.7 694.9 215.7s11.196-24.431 31.037-29.116c19.835-4.698 40.808 12.109 40.808 12.109s-11.196 24.431-31.031 29.13z" fill="url(#b)"/><path d="M742.554 428.136c17.983 12.387 45.456 3.728 45.456 3.728s-1.701-28.738-19.696-41.112c-17.983-12.387-45.444-3.74-45.444-3.74s1.701 28.738 19.684 41.124z" fill="url(#c)"/><path d="M132.207 300.561c19.496 19.842 55.952 15.658 55.952 15.658s4.824-36.354-14.69-56.184c-19.495-19.843-55.933-15.671-55.933-15.671s-4.824 36.354 14.671 56.197z" fill="url(#d)"/><ellipse cx="700.457" cy="347.175" rx="14.488" ry="13.858" transform="rotate(180 700.457 347.175)" fill="#009688"/><ellipse cx="293.666" cy="438.99" rx="19.528" ry="18.898" transform="rotate(180 293.666 438.99)" fill="#009688"/><circle r="14.221" transform="matrix(-1 0 0 1 229.698 183.623)" fill="#009688"/><circle r="11.897" transform="matrix(-1 0 0 1 699.975 446.361)" fill="#E1E4E5"/><circle r="12.514" transform="matrix(-1 0 0 1 202.236 353.123)" fill="#E1E4E5"/><circle r="6.166" transform="matrix(-1 0 0 1 339.539 501.002)" fill="#E1E4E5"/><circle r="9.411" transform="matrix(-1 0 0 1 637.535 138.049)" fill="#E1E4E5"/><circle r="6.156" transform="scale(1 -1) rotate(-75 -8.757 -278.202)" fill="#E1E4E5"/><ellipse rx="6.299" ry="5.039" transform="matrix(-1 0 0 1 629.605 300.704)" fill="#E1E4E5"/><path d="M776.001 249.398h.164c.976 13.826 11.259 14.039 11.259 14.039s-11.339.222-11.339 16.198c0-15.976-11.339-16.198-11.339-16.198s10.279-.213 11.255-14.039zM328.945 63.358h.283c1.681 24.196 19.39 24.568 19.39 24.568s-19.528.388-19.528 28.346c0-27.958-19.528-28.346-19.528-28.346s17.702-.372 19.383-24.568z" fill="#E1E4E5"/><path fill-rule="evenodd" clip-rule="evenodd" d="M295.974 222.13c-9.273 24.201-13.363 50.997-10.925 79.04a170.057 170.057 0 0 0 4.978 28.612l24.22-6.94a31.393 31.393 0 0 1 31.174 8.312l41.2 42.442a26.799 26.799 0 0 0 20.776 8.088l.673-.039c19.544-1.131 35.345 15.706 32.977 35.14l-5.208 42.736c2.82.389 5.66.709 8.518.958 8.851.769 17.578.888 26.139.4a31.393 31.393 0 0 1-7.463-30.051l8.136-29.135c4.12-14.756 18.29-24.383 33.526-22.778l33.568 3.536c22.419 2.362 34.784 26.66 24.444 45.949a176.165 176.165 0 0 0 24.29-20.989l-20.344-59.579a26.796 26.796 0 0 0-16.036-16.463L513.06 317.43c-21.568-8.005-27.486-35.722-11.069-51.837l93.783-92.056c-15.797-19.068-35.506-34.832-57.792-45.958l-25.611 82.299a31.394 31.394 0 0 1-24.054 21.502l-66.906 12.853a26.794 26.794 0 0 0-18.155 12.924l-2.767 4.795c-9.771 16.936-32.481 20.916-47.43 8.312l-57.085-48.134zm135.318 236.7 5.192-42.601c2.021-16.588-11.466-30.96-28.149-29.995l-.672.039a31.392 31.392 0 0 1-24.34-9.475l-41.2-42.442a26.798 26.798 0 0 0-26.609-7.095l-24.257 6.95c18.669 63.867 73.538 113.597 140.035 124.619zm204.173-189.459c4.508 51.856-13.3 99.437-44.91 134.237l-19.552-57.261a31.392 31.392 0 0 0-18.786-19.288l-37.558-13.939c-18.409-6.832-23.461-30.491-9.447-44.246l93.463-91.742c20.473 26.047 33.8 57.858 36.79 92.239zm-337.696-51.74 58.254 49.118c12.759 10.759 32.144 7.362 40.485-7.095l2.766-4.794a31.396 31.396 0 0 1 21.27-15.142l66.906-12.852a26.8 26.8 0 0 0 20.532-18.354l25.814-82.953c-17.873-8.338-37.307-13.723-57.64-15.496-80.125-6.967-150.062 39.364-178.387 107.568zm178.771 242.8c27.936-2.55 53.954-11.589 76.539-25.606l4.191-6.288c11.177-16.764.548-39.403-19.489-41.514l-33.567-3.536c-13.005-1.37-25.1 6.847-28.617 19.443l-8.136 29.134a26.796 26.796 0 0 0 6.891 26.185l2.188 2.182z" fill="#009688"/><path d="M619.349 467.626c7.655-5.243 8.412-17.46 8.412-17.46s-11.657-3.708-19.31 1.541c-7.655 5.243-8.415 17.453-8.415 17.453s11.657 3.709 19.313-1.534z" fill="#E1E4E5"/><circle cx="437.456" cy="282.014" r="7.166" transform="rotate(180 437.456 282.014)" fill="#009688"/><circle r="12.204" transform="matrix(-1 0 0 1 590.35 113.889)" fill="#009688"/><circle r="9.772" transform="matrix(-1 0 0 1 756.68 314.588)" fill="#E1E4E5"/><circle r="10.412" transform="matrix(-1 0 0 1 471.415 511.63)" fill="#E1E4E5"/><circle r="8.351" transform="matrix(-1 0 0 1 198.578 269.523)" fill="#E1E4E5"/><circle r="12.747" transform="matrix(-1 0 0 1 699.259 161.593)" fill="#E1E4E5"/><circle r="11.092" transform="matrix(-1 0 0 1 286.328 142.614)" fill="#E1E4E5"/><ellipse rx="8.532" ry="6.826" transform="matrix(-1 0 0 1 670.358 391.72)" fill="#E1E4E5"/><ellipse rx="13.887" ry="10.964" transform="scale(-1 1) rotate(26.006 -1369.359 -961.866)" fill="#E1E4E5"/><circle r="16.147" transform="scale(1 -1) rotate(-75 205.882 -374.553)" fill="#E1E4E5"/><path d="M399.371 469.088h.223c1.322 18.727 15.25 19.016 15.25 19.016s-15.358.3-15.358 21.939c0-21.639-15.358-21.939-15.358-21.939s13.921-.289 15.243-19.016z" fill="#E1E4E5"/><rect x="381.258" y="100.123" width="92.62" height="92.62" rx="46.31" fill="#009688" stroke="#fff" stroke-width="6"/><path fill-rule="evenodd" clip-rule="evenodd" d="M447.253 164.601v2.896c0 1.599-1.28 2.896-2.858 2.896H410.1c-1.578 0-2.858-1.297-2.858-2.896v-2.942c0-8.763 9.883-14.457 20.005-14.457 10.123 0 20.006 5.697 20.006 14.457m-12.833-39.898c3.963 3.962 3.963 10.388 0 14.35-3.962 3.963-10.388 3.963-14.35 0-3.963-3.962-3.963-10.388 0-14.35 3.962-3.963 10.388-3.963 14.35 0z" fill="#fff"/><rect x="589.59" y="215.28" width="92.62" height="92.62" rx="46.31" fill="#009688" stroke="#fff" stroke-width="6"/><path fill-rule="evenodd" clip-rule="evenodd" d="M655.584 279.759v2.896c0 1.598-1.28 2.896-2.858 2.896h-34.295c-1.577 0-2.858-1.298-2.858-2.896v-2.943c0-8.763 9.883-14.457 20.006-14.457 10.123 0 20.005 5.697 20.005 14.457m-12.832-39.898c3.963 3.963 3.963 10.388 0 14.351-3.963 3.963-10.388 3.963-14.351 0-3.963-3.963-3.963-10.388 0-14.351 3.963-3.963 10.388-3.963 14.351 0z" fill="#fff"/><rect x="219.905" y="271.447" width="92.62" height="92.62" rx="46.31" fill="#009688" stroke="#fff" stroke-width="6"/><path fill-rule="evenodd" clip-rule="evenodd" d="M285.9 335.926v2.896c0 1.599-1.281 2.896-2.858 2.896h-34.295c-1.578 0-2.858-1.297-2.858-2.896v-2.942c0-8.764 9.883-14.457 20.005-14.457 10.123 0 20.006 5.696 20.006 14.457m-12.833-39.899c3.963 3.963 3.963 10.388 0 14.351-3.963 3.963-10.388 3.963-14.351 0-3.963-3.963-3.963-10.388 0-14.351 3.963-3.963 10.388-3.963 14.351 0z" fill="#fff"/><defs><linearGradient id="a" x1="302.754" y1="616.186" x2="210.797" y2="190.932" gradientUnits="userSpaceOnUse"><stop stop-color="#fff"/><stop offset="1" stop-color="#EEE"/></linearGradient><linearGradient id="b" x1="661.02" y1="239.506" x2="834.657" y2="157.474" gradientUnits="userSpaceOnUse"><stop stop-color="#fff"/><stop offset="1" stop-color="#EEE"/></linearGradient><linearGradient id="c" x1="812.605" y1="468.778" x2="671.048" y2="319.51" gradientUnits="userSpaceOnUse"><stop stop-color="#fff"/><stop offset="1" stop-color="#EEE"/></linearGradient><linearGradient id="d" x1="209.99" y1="368.338" x2="69.05" y2="147.401" gradientUnits="userSpaceOnUse"><stop stop-color="#fff"/><stop offset="1" stop-color="#EEE"/></linearGradient></defs></svg>