<svg width="900" height="600" viewBox="0 0 900 600" fill="none" xmlns="http://www.w3.org/2000/svg"><path fill="transparent" d="M0 0h900v600H0z"/><path opacity=".76" fill-rule="evenodd" clip-rule="evenodd" d="m503.242 361.202 69.378 108.46H433.864l69.378-108.46z" fill="url(#a)"/><path opacity=".76" fill-rule="evenodd" clip-rule="evenodd" d="m657.441 286.584 23.515 36.58h-47.03l23.515-36.58z" fill="url(#b)"/><path d="M593.327 340.981c0 3.61-3.072 6.532-6.866 6.532-3.794 0-6.851-2.936-6.851-6.532 0-3.609 3.072-6.532 6.866-6.532 3.795 0 6.851 2.923 6.851 6.532z" stroke="#E1E4E5" stroke-width="5.225" stroke-miterlimit="10"/><path d="M463.927 338.179c-5.816 5.081-15.82 3.154-15.82 3.154s-.569-10.166 5.252-15.244c5.816-5.082 15.815-3.159 15.815-3.159s.569 10.167-5.247 15.249z" fill="url(#c)"/><circle cx="563.652" cy="304.972" r="3.562" transform="rotate(105 563.652 304.972)" fill="#E1E4E5"/><circle cx="549.11" cy="332.845" r="3.562" transform="rotate(105 549.11 332.845)" fill="#E1E4E5"/><circle cx="631.515" cy="283.765" r="3.562" transform="rotate(105 631.515 283.765)" fill="#E1E4E5"/><circle cx="739.69" cy="295.6" r="2.341" transform="rotate(105 739.69 295.6)" fill="#E1E4E5"/><circle cx="842.374" cy="429.792" r="3.562" transform="rotate(105 842.374 429.792)" fill="#E1E4E5"/><rect x="751.972" y="479.338" width="13.685" height="1.594" rx=".797" transform="rotate(-45 751.972 479.338)" fill="#E1E4E5"/><rect x="757.219" y="479.375" width="5.081" height="1.594" rx=".797" transform="rotate(-45 757.219 479.375)" fill="#E1E4E5"/><path d="M822.723 418.68c-.082-.118 5.881-4.366 13.325-9.471 7.44-5.114 13.547-9.161 13.629-9.043.082.118-5.884 4.357-13.325 9.471-7.45 5.117-13.547 9.161-13.629 9.043z" fill="#fff"/><path d="M830.517 350.901h.085c.506 6.87 5.838 6.976 5.838 6.976s-5.879.11-5.879 8.048c0-7.938-5.879-8.048-5.879-8.048s5.329-.106 5.835-6.976z" fill="#E1E4E5"/><path d="m635.686 399.36-20.88 76.334 7.449-8.574c-2.755 1.467-5.95 2.592-9.487 3.391-3.537.798-7.384 1.255-11.41 1.467-4.026.211-8.215.179-12.519 0-4.287-.18-8.671-.506-13.121-.881h-.017c-6.569-.554-12.339 4.304-12.91 10.873-.537 6.259 3.912 11.801 10.009 12.795 4.596.734 9.258 1.418 14.051 1.973 4.792.554 9.698.961 14.784 1.075 5.086.115 10.351-.081 15.795-.863 5.428-.783 11.068-2.201 16.577-4.581a12.982 12.982 0 0 0 7.172-7.791l.261-.799 25.054-75.079c2.82-8.444-1.744-17.555-10.188-20.375-8.443-2.82-17.555 1.744-20.375 10.187-.082.277-.18.587-.245.848z" fill="#F8AE9D"/><path d="M682.092 504.22c.277 2.152 1.223 3.798 2.119 3.668.88-.114 1.386-1.956 1.108-4.091-.277-2.152-1.222-3.798-2.119-3.668-.896.114-1.385 1.956-1.108 4.091z" fill="#B55E63"/><mask id="d" fill="#fff"><path fill-rule="evenodd" clip-rule="evenodd" d="M646.281 477.516a.22.22 0 0 0-.096-.182 22.52 22.52 0 0 1-.814-.597c-1.887-1.392-2.224-4.614-2.781-9.927-.185-1.767-.394-3.765-.693-6.004-1.165-8.741-2.034-14.038-4.597-25.44-.275-1.224-.607-2.456-.941-3.693-.926-3.437-1.864-6.914-1.624-10.393.099-1.193.165-2.385.198-3.594a84 84 0 0 0 .05-2.883v-.878a374.013 374.013 0 0 0-.041-4.181c-.136-10.06-.213-15.699 6.955-20.665 1.853-1.292 4.202-2.518 7.147-3.776 2.382-1.011 5.144-2.038 8.386-3.115 1.307-.43 2.713-.877 4.202-1.341l3.507-.961 36.23-10.037c.36-.099.734-.134 1.106-.117a214.597 214.597 0 0 1 5.55.36 281.38 281.38 0 0 1 12.745 1.23c1.207.138 2.457.304 3.722.472l.315.042c4.202.563 7.593 1.988 10.272 4.041 4.748 3.645 7.312 9.31 8.255 15.886.529 3.693.562 7.669.199 11.744a70.63 70.63 0 0 1-.613 4.853 67.685 67.685 0 0 1-.843 4.389 237.883 237.883 0 0 0-2.531 13.103l-.298 1.789c-.06.409-.125.822-.189 1.237-.076.491-.153.985-.224 1.479-1.986 13.218-2.961 26.056-2.763 35.083v.009l.05 1.615c.231 6.079.926 12.887 2.233 20.456.072.382.14.764.208 1.148.056.317.113.635.172.956.039.203.046.403.027.595 3.868 3.763 5.7 8.578 2.291 13.089-1.631 2.158-5.775 3.334-8.478 3.438l-63.047 2.428c-10.926.42-22.016-4.488-21.79-15.42.017-.826.061-1.686.137-2.583 0-.002.219-.227.651-.623-1.071-.364-1.898-1.337-1.898-2.564a201.881 201.881 0 0 0-.082-4.754c-.05-1.805-.116-3.395-.199-4.721a17.232 17.232 0 0 0-.066-.993z"/></mask><path fill-rule="evenodd" clip-rule="evenodd" d="M646.281 477.516a.22.22 0 0 0-.096-.182 22.52 22.52 0 0 1-.814-.597c-1.887-1.392-2.224-4.614-2.781-9.927-.185-1.767-.394-3.765-.693-6.004-1.165-8.741-2.034-14.038-4.597-25.44-.275-1.224-.607-2.456-.941-3.693-.926-3.437-1.864-6.914-1.624-10.393.099-1.193.165-2.385.198-3.594a84 84 0 0 0 .05-2.883v-.878a374.013 374.013 0 0 0-.041-4.181c-.136-10.06-.213-15.699 6.955-20.665 1.853-1.292 4.202-2.518 7.147-3.776 2.382-1.011 5.144-2.038 8.386-3.115 1.307-.43 2.713-.877 4.202-1.341l3.507-.961 36.23-10.037c.36-.099.734-.134 1.106-.117a214.597 214.597 0 0 1 5.55.36 281.38 281.38 0 0 1 12.745 1.23c1.207.138 2.457.304 3.722.472l.315.042c4.202.563 7.593 1.988 10.272 4.041 4.748 3.645 7.312 9.31 8.255 15.886.529 3.693.562 7.669.199 11.744a70.63 70.63 0 0 1-.613 4.853 67.685 67.685 0 0 1-.843 4.389 237.883 237.883 0 0 0-2.531 13.103l-.298 1.789c-.06.409-.125.822-.189 1.237-.076.491-.153.985-.224 1.479-1.986 13.218-2.961 26.056-2.763 35.083v.009l.05 1.615c.231 6.079.926 12.887 2.233 20.456.072.382.14.764.208 1.148.056.317.113.635.172.956.039.203.046.403.027.595 3.868 3.763 5.7 8.578 2.291 13.089-1.631 2.158-5.775 3.334-8.478 3.438l-63.047 2.428c-10.926.42-22.016-4.488-21.79-15.42.017-.826.061-1.686.137-2.583 0-.002.219-.227.651-.623-1.071-.364-1.898-1.337-1.898-2.564a201.881 201.881 0 0 0-.082-4.754c-.05-1.805-.116-3.395-.199-4.721a17.232 17.232 0 0 0-.066-.993z" fill="#fff"/><path d="m646.185 477.334-1.139 1.644 1.139-1.644zm.096.182-1.989.209-.011-.105v-.104h2zm-.91-.779 1.188-1.609.014.01.014.011-1.216 1.588zm-2.781-9.927 1.989-.208-1.989.208zm-.693-6.004 1.983-.264-1.983.264zm-4.597-25.44-1.951.439 1.951-.439zm-.941-3.693 1.931-.521-1.931.521zm-1.624-10.393-1.996-.137.001-.015.002-.014 1.993.166zm.198-3.594-1.999-.055v-.014l1.999.069zm.05-3.761 2-.005v.005h-2zm-.041-4.181 2-.028-2 .028zm6.955-20.665 1.144 1.641-.005.003-1.139-1.644zm7.147-3.776-.787-1.839.006-.003.781 1.842zm8.386-3.115-.63-1.898.004-.001.626 1.899zm4.202-1.341-.595-1.91.033-.01.034-.009.528 1.929zm3.507-.961.534 1.927-.005.002-.529-1.929zm36.23-10.037.534 1.928-.534-1.928zm1.106-.117-.085 1.998h-.006l.091-1.998zm4.516.282.138-1.995h.009l.009.001-.156 1.994zm1.034.078-.15 1.995.15-1.995zm1.761.137-.16 1.994-.003-.001.163-1.993zm10.984 1.093-.226 1.987-.013-.001.239-1.986zm3.722.472.263-1.983-.263 1.983zm.315.042.263-1.983.002.001-.265 1.982zm10.272 4.041 1.217-1.587.001.001-1.218 1.586zm8.255 15.886 1.98-.284-1.98.284zm.199 11.744 1.992.178-.001.006-1.991-.184zm-.613 4.853-1.975-.314.002-.008 1.973.322zm-.843 4.389-1.952-.436.001-.006 1.951.442zm-2.531 13.103 1.973.326v.002l-1.973-.328zm-.298 1.789-1.978-.293.002-.018.003-.018 1.973.329zm-.189 1.237-1.976-.306 1.976.306zm-.224 1.479 1.979.288-.002.009-1.977-.297zm-2.763 35.083-1.999.061v-.017l1.999-.044zm0 .009 1.999-.06-1.999.06zm.05 1.615-1.999.076v-.014l1.999-.062zm2.233 20.456-1.965.374-.003-.017-.003-.016 1.971-.341zm.208 1.148-1.969.349 1.969-.349zm.172.956-1.965.372-.001-.007 1.966-.365zm.027.595-1.394 1.434-.692-.673.096-.96 1.99.199zm2.291 13.089 1.596 1.205-1.596-1.205zm-8.478 3.438-.077-1.999.077 1.999zm-63.047 2.428-.077-1.999.077 1.999zm-21.79-15.42-2-.041 2 .041zm.137-2.583h2v.085l-.007.084-1.993-.169zm.651-.623.643-1.894 3.199 1.088-2.492 2.281-1.35-1.475zm-1.898-2.564 2-.019v.019h-2zm-.082-4.754-1.999.068-.001-.013 2-.055zm-.199-4.721-1.996.125-.001-.015-.001-.015 1.998-.095zm.978-2.818c.588.408.956 1.084.956 1.825h-4c0 .595.296 1.136.765 1.462l2.279-3.287zm-.738-.542c.361.276.621.461.738.542l-2.279 3.287a24.163 24.163 0 0 1-.891-.653l2.432-3.176zm-2.008-8.547c.284 2.707.496 4.691.849 6.18.354 1.496.764 2.075 1.131 2.346l-2.375 3.218c-1.521-1.121-2.223-2.849-2.648-4.641-.427-1.797-.662-4.081-.935-6.687l3.978-.416zm-.699-6.06c.303 2.27.514 4.294.699 6.06l-3.978.416c-.185-1.768-.392-3.74-.686-5.947l3.965-.529zm-4.629-25.614c2.577 11.461 3.456 16.816 4.629 25.614l-3.965.529c-1.158-8.685-2.017-13.924-4.566-25.266l3.902-.877zm-.961-3.776c.332 1.23.675 2.503.961 3.776l-3.902.877a89.021 89.021 0 0 0-.921-3.611l3.862-1.042zm-1.56-9.735c-.213 3.087.616 6.234 1.56 9.735l-3.862 1.042c-.909-3.372-1.955-7.18-1.689-11.051l3.991.274zm.202-3.677a66.726 66.726 0 0 1-.204 3.706l-3.986-.332a62.62 62.62 0 0 0 .192-3.483l3.998.109zm.051-2.937c0 .984-.017 1.968-.051 2.951l-3.998-.137c.033-.938.049-1.876.049-2.814h4zm0-.215v.215h-4v-.215h4zm0-.663v.663h-4v-.663h4zm-.041-4.209c.018 1.315.037 2.717.041 4.204l-4 .011c-.004-1.463-.023-2.844-.041-4.16l4-.055zm6.094-18.993c-3.226 2.235-4.692 4.498-5.421 7.284-.776 2.969-.743 6.586-.673 11.709l-4 .055c-.067-4.936-.14-9.168.804-12.776.991-3.789 3.071-6.829 7.012-9.56l2.278 3.288zm6.794-3.582c-2.878 1.231-5.091 2.395-6.789 3.579l-2.288-3.281c2.008-1.4 4.493-2.688 7.504-3.975l1.573 3.677zm8.231-3.054c-3.206 1.064-5.916 2.072-8.236 3.057l-1.562-3.683c2.443-1.036 5.258-2.082 8.537-3.171l1.261 3.797zm4.166-1.331c-1.482.462-2.877.906-4.171 1.332l-1.252-3.799c1.321-.435 2.738-.886 4.233-1.352l1.19 3.819zm3.441-.941-3.507.961-1.057-3.858 3.507-.961 1.057 3.858zm36.235-10.038-36.23 10.036-1.068-3.854 36.23-10.037 1.068 3.855zm.481-.047a1.543 1.543 0 0 0-.481.047l-1.068-3.855a5.544 5.544 0 0 1 1.731-.188l-.182 3.996zm4.469.279a217.518 217.518 0 0 0-4.463-.279l.17-3.996c.808.034 2.422.136 4.569.285l-.276 3.99zm1.022.078-1.041-.079.313-3.988 1.027.078-.299 3.989zm1.748.135c-.606-.049-1.189-.093-1.748-.135l.299-3.989c.557.042 1.154.087 1.776.138l-.327 3.986zm10.908 1.086a278.13 278.13 0 0 0-10.905-1.085l.321-3.987c3.095.249 6.91.6 11.063 1.101l-.479 3.971zm3.698.469c-1.269-.169-2.5-.332-3.685-.468l.453-3.974c1.229.14 2.496.309 3.758.476l-.526 3.966zm.315.041a38.994 38.994 0 0 0-.315-.041l.526-3.966.315.042-.526 3.965zm9.319 3.647c-2.375-1.82-5.43-3.125-9.322-3.647l.531-3.964c4.512.604 8.239 2.148 11.224 4.436l-2.433 3.175zm7.491 14.581c-.897-6.255-3.294-11.359-7.492-14.582l2.435-3.173c5.297 4.065 8.028 10.291 9.017 17.188l-3.96.567zm.186 11.283c.354-3.955.317-7.772-.186-11.283l3.96-.567c.555 3.877.585 8.01.211 12.206l-3.985-.356zm-.593 4.709c.256-1.571.449-3.148.594-4.716l3.983.369a71.868 71.868 0 0 1-.63 4.991l-3.947-.644zm-.821 4.269c.321-1.413.594-2.844.819-4.261l3.951.628a70.302 70.302 0 0 1-.869 4.518l-3.901-.885zm-2.553 13.219a240.155 240.155 0 0 1 2.552-13.213l3.904.873a236.15 236.15 0 0 0-2.51 12.992l-3.946-.652zm-.298 1.786.298-1.789 3.946.657-.298 1.789-3.946-.657zm-.192 1.26c.064-.416.127-.823.187-1.224l3.957.585c-.062.418-.127.838-.192 1.252l-3.952-.613zm-.228 1.498c.074-.505.152-1.009.228-1.498l3.952.613c-.076.493-.151.977-.221 1.46l-3.959-.575zm-2.782 35.414c-.202-9.177.788-22.134 2.784-35.424l3.955.594c-1.974 13.147-2.936 25.864-2.74 34.742l-3.999.088zm0 .026v-.009l3.998-.121v.009l-3.998.121zm.05 1.616-.05-1.616 3.998-.121.05 1.612-3.998.125zm2.261 20.735c-1.321-7.651-2.026-14.547-2.261-20.721l3.997-.153c.228 5.984.913 12.704 2.206 20.193l-3.942.681zm.21 1.156c-.069-.386-.134-.756-.204-1.123l3.93-.747c.075.396.145.79.213 1.172l-3.939.698zm.175.972c-.062-.331-.119-.657-.175-.972l3.939-.698c.056.318.111.628.169.94l-3.933.73zm.003.031v-.008l-.002-.016 3.93-.744c.075.392.09.785.052 1.167l-3.98-.399zm3.385-1.234c2.102 2.045 3.798 4.512 4.428 7.248.65 2.821.121 5.757-1.936 8.479l-3.192-2.411c1.352-1.789 1.611-3.516 1.23-5.171-.4-1.74-1.554-3.561-3.319-5.278l2.789-2.867zm2.492 15.727c-1.158 1.532-3.029 2.535-4.746 3.162-1.767.646-3.684 1.009-5.251 1.069l-.154-3.997c1.136-.044 2.643-.321 4.031-.829 1.439-.525 2.455-1.19 2.928-1.816l3.192 2.411zm-9.997 4.231-63.047 2.428-.154-3.997 63.047-2.428.154 3.997zm-63.047 2.428c-5.745.221-11.671-.946-16.206-3.75-4.614-2.853-7.79-7.428-7.661-13.709l3.999.082c-.096 4.651 2.16 7.995 5.766 10.225 3.685 2.278 8.767 3.355 13.948 3.155l.154 3.997zm-23.867-17.459c.018-.869.065-1.772.144-2.71l3.986.337a38.711 38.711 0 0 0-.131 2.455l-3.999-.082zm.137-2.542c0-.386.115-.671.144-.745a2.151 2.151 0 0 1 .235-.426c.04-.056.075-.098.085-.11l.056-.064.041-.044.055-.057.15-.149c.125-.121.303-.291.534-.503l2.701 2.95c-.2.184-.347.324-.44.415l-.095.094-.006.006.025-.027.052-.06c.01-.012.044-.053.085-.109.017-.024.064-.09.115-.18a1.889 1.889 0 0 0 .202-.501c.023-.101.056-.346.061-.49h-4zm2.753-3.187c0 .259.171.545.541.67l-1.287 3.788c-1.771-.602-3.254-2.263-3.254-4.458h4zm-.083-4.822c.05 1.486.067 3.101.083 4.803l-3.999.039a199.68 199.68 0 0 0-.082-4.706l3.998-.136zm-.202-4.777c.085 1.355.152 2.97.202 4.79l-3.999.11a136.078 136.078 0 0 0-.195-4.651l3.992-.249zm-.073-1.079c.04.381.059.768.075 1.108l-3.996.19a15.24 15.24 0 0 0-.057-.879l3.978-.419z" fill="#E1E4E5" mask="url(#d)"/><path d="M701.116 371.503s-3.243 12.274-15.501 15.681c-15.583 4.319-17.931-.913-17.931-.913.392-2.233.522-4.417.424-6.732a38.408 38.408 0 0 0-.212-2.69c-.277-2.51-.798-5.248-1.532-8.378-.163-.734-.358-1.5-.554-2.282l-.016-.098c10.66-4.01 19.022-10.025 24.14-18.924l1.516-1.19 1.027-.815.294.619.048 2.07c.212 9.731 1.859 15.485 8.297 23.652zm4.345 19.418-23.414 86.331 8.349-9.695c-3.089 1.661-6.67 2.923-10.63 3.833-3.96.895-8.285 1.422-12.784 1.645-4.515.24-9.22.192-14.036 0-4.815-.207-9.726-.559-14.716-.99h-.032c-7.366-.639-13.845 4.872-14.479 12.299-.602 7.076 4.388 13.353 11.232 14.471 5.148.831 10.392 1.613 15.762 2.236 5.37.623 10.883 1.102 16.586 1.23 5.703.128 11.612-.096 17.711-.99 6.098-.895 12.419-2.492 18.597-5.175 3.961-1.725 6.765-5 8.048-8.801l.301-.895 28.071-84.926c3.152-9.551-1.949-19.853-11.422-23.048-9.457-3.178-19.691 1.965-22.859 11.516-.095.304-.206.671-.285.959z" fill="#F8AE9D"/><path fill-rule="evenodd" clip-rule="evenodd" d="M429.674 510.397v-4.519c0-2.594 2.605-4.696 5.805-4.709h403.444c3.218 0 5.806 2.115 5.806 4.709v4.519c0 2.606-2.605 4.708-5.806 4.708h-18.064a4.61 4.61 0 0 0-4.609 4.609c0 .804-1.32 1.451-2.95 1.451H450.18c-1.614 0-2.934-.647-2.934-1.451a4.61 4.61 0 0 0-4.609-4.609h-7.158c-3.217 0-5.805-2.102-5.805-4.708z" fill="#fff"/><path d="m435.479 501.169-.004-1h.004v1zm-4.805 4.709v4.519h-2v-4.519h2zm4.809-3.709c-2.861.011-4.809 1.856-4.809 3.709h-2c0-3.334 3.261-5.695 6.801-5.709l.008 2zm403.44 0H435.479v-2h403.444v2zm4.806 3.709c0-1.858-1.937-3.709-4.806-3.709v-2c3.567 0 6.806 2.379 6.806 5.709h-2zm0 4.519v-4.519h2v4.519h-2zm-4.806 3.708c2.856 0 4.806-1.841 4.806-3.708h2c0 3.345-3.26 5.708-6.806 5.708v-2zm-18.064 0h18.064v2h-18.064v-2zm-7.559 6.06c.696 0 1.277-.141 1.646-.322.432-.212.304-.318.304-.129h2c0 .993-.787 1.612-1.423 1.924-.698.344-1.593.527-2.527.527v-2zm-363.12 0H813.3v2H450.18v-2zm-1.934-.451c0-.188-.127-.083.304.13.367.181.943.321 1.63.321v2c-.927 0-1.818-.184-2.515-.527-.633-.313-1.419-.932-1.419-1.924h2zm-12.767-5.609h7.158v2h-7.158v-2zm-4.805-3.708c0 1.869 1.935 3.708 4.805 3.708v2c-3.564 0-6.805-2.365-6.805-5.708h2zm15.572 9.317a3.61 3.61 0 0 0-3.609-3.609v-2a5.609 5.609 0 0 1 5.609 5.609h-2zm374.613-3.609a3.61 3.61 0 0 0-3.609 3.609h-2a5.609 5.609 0 0 1 5.609-5.609v2z" fill="#E1E4E5"/><path d="m478.503 389.107 18.909 79.969.505 2.103 1.271 5.379a5.162 5.162 0 0 0 5.021 3.978h127.386c3.326 0 5.803-3.114 5.037-6.358l-20.685-87.45a5.16 5.16 0 0 0-5.02-3.978H483.54c-3.341.017-5.803 3.13-5.037 6.357z" fill="#009688"/><path d="M540.395 435.074c.603 5.51 5.558 9.96 11.067 9.96 5.51 0 9.471-4.467 8.868-9.96-.603-5.509-5.559-9.959-11.068-9.959-5.51 0-9.471 4.45-8.867 9.959z" fill="#fff"/><path d="m605.858 382.764 22.022 97.785h3.716c3.326 0 5.787-3.113 5.021-6.357l-20.685-87.451a5.16 5.16 0 0 0-5.021-3.977h-5.053zm-36.808 96.994 3.493 19.548H561l-3.494-19.548h11.544z" fill="#133835"/><path d="m588.591 497.542-2.608-3.668a4.989 4.989 0 0 0-4.058-2.086h-34.997a4.939 4.939 0 0 0-4.401 2.673l-1.76 3.374c-.832 1.581.326 3.456 2.102 3.456h43.783c1.923 0 3.048-2.185 1.939-3.749z" fill="#133835"/><path fill-rule="evenodd" clip-rule="evenodd" d="M681.25 346.928v14.229l10.404-8.413s3.198-13.634 5.799-23.76c1.631-6.35 5.605-27.84-10.393-26.833-13.105-23.201-51.271-8.841-51.574 19.504 7.305 41.18 1.12 54.258 1.12 54.258 21.582 1.244 32.542-8.782 44.644-28.985z" fill="#133835"/><path fill-rule="evenodd" clip-rule="evenodd" d="m666.124 341.526 1.778 12.409-10.123-6.037s-4.493-11.489-8.026-19.994c-2.216-5.333-8.366-23.576 5.71-24.697 8.529-21.869 43.604-14.116 47.41 10.563-1.224 36.823 5.803 47.454 5.803 47.454-18.664 3.781-29.474-3.592-42.552-19.698z" fill="#133835"/><path d="M660.267 369.018s35.275-3.436 32.796-25.372c-2.479-21.936.401-37.153-22.224-35.885-22.625 1.267-26.054 10.129-27.005 17.652-.951 7.523 7.197 43.933 16.433 43.605z" fill="#F8AE9D"/><path fill-rule="evenodd" clip-rule="evenodd" d="M691.823 331.421c-4.469.724-3.927 3.631-5.143 3.377-6.171-1.289-31.154.412-34.371-13.086-4.002 8.433-4.98 10.506-13.794 12.769v-24.71l55.745-5.253s-.866 26.647-2.437 26.903z" fill="#133835"/><path stroke="#E1E4E5" stroke-width="2" d="M116.218 304.114h342.445"/><path d="M275.937 121.563c-2.379 3.732-8.595 8.082-13.003 8.022-15.018-.275-19.963-10.505-21.583-14.23.305-.074.818-.134 1.182-.178 2.766-.402 5.591-3.138 6.416-6.223 1.063-4.015 2.372-11.866 2.215-16.855l18.996 10.513a74.428 74.428 0 0 1-.26 4.61 138.65 138.65 0 0 1-.305 2.84 98.301 98.301 0 0 1-.334 2.498c-.35 2.602.81 5.182 3.003 6.617l3.673 2.386z" fill="#F8AE9D"/><path d="M277.572 80.672c-1.026 2.692-.595 5.747.446 8.431.736 1.896 2.372.223 4.409.26 3.152.053 5.613-3.226 7.516-11.917 1.212-6.38 1.517-9.613 1.272-10.23-.87-2.209-3.74-3.39-6.104-3.599" fill="#133835"/><path d="M282.368 61.558c4.966 5.985 6.773 22.824 2.58 34.556-2.982 8.342-6.446 13.725-10.491 13.554-6.141-.261-18.044-5.309-21.917-9.524-6.981-7.591-4.952-22.475-3.509-31.843 1.308-8.513 5.293-19.568 15.992-17.464 7.033 1.375 12.891 5.345 17.345 10.72z" fill="#F8AE9D"/><path d="M254.27 68.168c1.101 1.416 3.043 1.728 4.643 2.007 2.151.376 3.215 1.16 4.331 3.263.707 1.343 1.414 2.814 2.679 3.542 1.028.594.989-.923 1.154-2.099a2.54 2.54 0 0 1 .063-.304c.25-.938 1.249-.777 1.543.148.268.832.841 1.535 1.57 1.927.119.064.246.12.372.096.172-.024.306-.184.417-.328.234-.302.467-.686.708-1.092.789-1.333 2.28-.854 3.162.42.55.792 1.205 1.608 2.106 1.792.29.064.654.016.788-.264.171-.344-.096-.688-.052-1.04.037-.328.179-.471.335-.751.614-1.088 2.015-1.127 2.878-.224a31.983 31.983 0 0 0 1.877 1.807c.275.24.677.48.952.24.149-.128.186-.344.216-.552.157-1.015.305-2.03.462-3.046.089-.568.394-1.312.915-1.168.253.072.402.336.543.576.171.304 3.23 3.766 3.289 3.502.476-1.967 1.451-3.758 1.927-5.725 3.081-12.657-10.588-22.836-21.029-22.892-2.321-.016-4.442.021-6.697.557-2.403.576-4.941 1.49-7.121 2.777-3.058 1.8-5.372 5.07-4.777 8.971" fill="#133835"/><path d="M259.186 63.825c1.517 1.718 1.918 4.134 2.059 6.416.209 3.443-.074 7.019-1.665 10.075-.453.87-.788 5.174-1.487 4.936-.223-.074-.186-3.412-.773-5.212-.907-2.788-5.085-3.85-6.966-2.089-3.004 2.803-1.242 6.208-.246 8.327.595 1.279 1.539 2.714 1.703 4.067.201 1.732.26 8.044-.87 9.516-.944 1.234-1.948-4.728-2.803-5.903-6.327-8.75-12.394-31.032-1.591-35.865 1.643-.736 6.714-1.115 8.253-.178m44.385 183.034c.625.104 1.257.194 1.911.216 3.479.111 6.84-.654 10.238-1.234 2.988-.513 3.799-.796 3.739-4.402-.52-28.556-4.721-57.038-12.274-84.584-1.153-4.208-2.409-8.446-4.617-12.208-3.77-6.416-12.424-11.955-19.063-15.062-.937-.439-4.818 2.029-5.762 1.605-.825-.371-1.554-.951-2.386-1.316-2.439-1.063-4.075 1.16-6.112 2.09-1.055.475-2.23.78-3.39.728-.944-.037-1.799-.609-2.662-.163-3.88 2.007-13.516-12.892-13.516-12.892l-4.186 4.349-12.215 12.795-30.527 42.058s-5.538 34.468-9.345 57.062c-.662 3.895-3.279 12.319-3.799 15.27.111-.639 26.058-.81 27.456-.81h52.883c2.967 0 10.944 1.257 13.026-.922 2.565-2.676 5.531-14.958 5.687-18.401.513-11.575-.282-23.062-.438-34.705.067 4.736 1.427 9.018 2.007 13.658.751 5.97 1.821 11.932 2.788 17.873.773 4.773 1.517 9.561 2.111 14.364.268 2.163-.074 3.449 1.755 4.297 1.539.706 4.892.03 6.691.334z" fill="#133835"/><path d="M255.976 218.705s5.428 3.078 4.944 9.62c-.483 6.543-2.446 14.126-10.639 13.331-8.193-.788 5.695-22.951 5.695-22.951z" fill="#133835"/><path d="M229.738 157.54c.015 4.111-.558 8.23-1.628 12.215-1.078 3.985-2.655 7.829-4.484 11.531a118.677 118.677 0 0 1-2.892 5.457c-.988 1.799-2.007 3.584-2.84 5.413-.409.914-.765 1.858-.907 2.788-.037.453-.074.922.052 1.316.03.215.156.379.231.572.141.171.238.357.416.52 1.331 1.331 3.234 2.231 5.041 3.101 7.42 3.382 15.3 5.888 22.81 9.263 3.754 1.688 7.471 3.509 10.929 5.785l.639.431c.215.148.416.342.624.513.387.379.722.795.989 1.249.55.899.922 1.881 1.212 2.877.55 2 .781 4.059.796 6.119-.134-2.045-.476-4.089-1.078-6.03-.64-1.925-1.629-3.799-3.48-4.699-3.472-2.156-7.197-3.873-10.973-5.457a364.225 364.225 0 0 0-11.457-4.475c-3.844-1.457-7.71-2.848-11.487-4.573-1.859-.922-3.769-1.791-5.353-3.39-.201-.193-.364-.461-.535-.691-.127-.283-.298-.55-.342-.848-.179-.595-.119-1.182-.067-1.74.178-1.1.58-2.096 1.011-3.048.885-1.903 1.918-3.68 2.922-5.472 1.004-1.791 2.015-3.568 2.974-5.375 3.829-7.197 6.49-15.115 6.877-23.352z" fill="#fff"/><path d="M280.643 124.381c-1.874 1.859-10.215 7.799-18.171 7.799-1.323 0-2.721-.119-4.2-.394-6.677-1.219-12.297-5.673-15.583-10.773a22.557 22.557 0 0 1-1.584-2.937 16.787 16.787 0 0 1-1.264-3.851c3.346-.409 6.543-1.249 7.063-1.844.565 3.896 5.375 10.929 12.661 12.253.915.171 1.777.245 2.603.26h.014a14.319 14.319 0 0 0 7.837-2.134c.014 0 3.486-2.736 3.501-2.751l7.123 4.372z" fill="#133835"/><path d="M285.878 209.312c-.021-.363.026-.723.013-1.088-.015-.393-.059-.778-.088-1.171l-.216-2.252a308.014 308.014 0 0 1-.393-4.602c-.231-3.04-.388-6.092-.47-9.14-.157-6.097-.069-12.208.341-18.293.113-1.704.255-3.402.413-5.102.085-.868.177-1.745.27-2.614.093-.854.232-1.703.243-2.567.007-.537-.8-.573-.921-.075-.356 1.479-.408 3.068-.561 4.581-.145 1.52-.276 3.039-.391 4.565a189.55 189.55 0 0 0-.441 9.228c-.132 6.129.087 12.26.609 18.374.149 1.719.32 3.429.528 5.138.108.872.217 1.737.348 2.609.058.384.11.768.183 1.144.092.441.256.849.348 1.291.051.101.197.063.185-.026z" fill="#fff"/><path d="M284.166 90.657c.052 0 .193-.082.074-.082-.059 0-.192.082-.074.082z" fill="#CC6144"/><path d="M418.828 304.114H156.053c-7.924 0-14.134-5.656-14.134-12.381V146.151c0-6.725 6.21-12.382 14.134-12.382h262.775c7.924 0 14.134 5.657 14.134 12.382v145.582c0 6.725-6.21 12.381-14.134 12.381z" fill="#fff" stroke="#E1E4E5" stroke-width="2"/><path d="M433.23 152.425H141.919v-4.508c0-7.812 6.335-14.148 14.148-14.148h263.016c7.812 0 14.147 6.336 14.147 14.148v4.508z" fill="#fff" stroke="#E1E4E5" stroke-width="2"/><path d="M156.095 147.014a3.252 3.252 0 1 0 .001-6.505 3.252 3.252 0 0 0-.001 6.505zm13.554 0a3.252 3.252 0 1 0 .001-6.505 3.252 3.252 0 0 0-.001 6.505zm13.013 0a3.253 3.253 0 1 0 0-6.506 3.253 3.253 0 0 0 0 6.506z" fill="#E1E4E5"/><rect x="167.181" y="170.821" width="51.332" height="50.77" rx="11" fill="#fff" stroke="#E1E4E5" stroke-width="2"/><rect x="167.181" y="231.772" width="51.332" height="50.77" rx="11" fill="#fff" stroke="#E1E4E5" stroke-width="2"/><rect x="227.525" y="170.821" width="51.332" height="50.77" rx="11" fill="#fff" stroke="#E1E4E5" stroke-width="2"/><rect x="227.525" y="231.772" width="51.332" height="50.77" rx="11" fill="#fff" stroke="#E1E4E5" stroke-width="2"/><rect x="287.869" y="170.821" width="51.332" height="50.77" rx="11" fill="#fff" stroke="#E1E4E5" stroke-width="2"/><rect x="348.212" y="170.821" width="51.332" height="50.77" rx="11" fill="#fff" stroke="#E1E4E5" stroke-width="2"/><rect x="287.869" y="231.772" width="51.332" height="50.77" rx="11" fill="#fff" stroke="#E1E4E5" stroke-width="2"/><rect x="348.212" y="231.772" width="51.332" height="50.77" rx="11" fill="#fff" stroke="#E1E4E5" stroke-width="2"/><path d="M240.77 221.609s10.547 1.553 15.695-.543c5.094-2.074 17.093-10.018 28.582-11.434a.464.464 0 0 1 .501.316c.239.753.368 2.575-3.039 4.358a382.512 382.512 0 0 0-7.792 4.173s20.899 5.471 26.452 7.374c1.096.375 1.936.8 2.585 1.252 2.023 1.411.54 4.583-1.855 3.991l-14.015-3.459s1.211 1.112.745 2.504c-.444 1.315-2.982 2.197-5.148 1.528 0 0 1.254 1.363.15 2.925-1.105 1.562-3.773 1.505-5.061 1.212 0 0 1.478 1.041 1.007 2.395-.471 1.354-3.418 2.001-4.362 1.909-.944-.091-8.907.524-20.498-3.942l-15.611 3.544s-4.683-3.831 1.664-18.103z" fill="#F8AE9D"/><path d="M251.603 241.009c-19.642 6.817-45.924.305-62.585-11.018-10.438-7.078-17.1-16.067-15.977-24.847 2.907-22.81 20.832-75.09 36.341-82.718 10.542-5.19 23.33-7.339 30.46-8.201 3.345-.409 5.434-.506 5.434-.506l-2.587 7.301-12.951 36.52c-.483 21.672-15.992 34.541-12.907 39.589 3.086 5.034 27.449 10.468 40.244 19.085 3.539 2.394 8.03 19.71-5.472 24.795z" fill="#133835"/><path d="M530.898 167.759c-7.793 1.846-16.036-4.763-16.036-4.763s4.399-9.599 12.194-11.439c7.793-1.847 16.033 4.757 16.033 4.757s-4.398 9.599-12.191 11.445z" fill="url(#e)"/><path d="M207.126 92.754c8.204 5.65 20.739 1.7 20.739 1.7s-.777-13.11-8.987-18.756c-8.204-5.651-20.733-1.706-20.733-1.706s.777 13.11 8.981 18.762z" fill="url(#f)"/><path d="M401.662 92.754c8.894 9.052 25.527 7.144 25.527 7.144s2.2-16.586-6.702-25.634c-8.895-9.052-25.519-7.15-25.519-7.15s-2.201 16.587 6.694 25.64z" fill="url(#g)"/><ellipse cx="414.748" cy="225.545" rx="6.61" ry="6.323" transform="rotate(180 414.748 225.545)" fill="#009688"/><ellipse cx="168.353" cy="258.72" rx="8.909" ry="8.622" transform="rotate(180 168.353 258.72)" fill="#009688"/><circle r="3.161" transform="matrix(-1 0 0 1 117.695 181.402)" fill="#009688"/><circle r="6.035" transform="matrix(-1 0 0 1 473.001 126.495)" fill="#009688"/><ellipse rx="6.035" ry="5.748" transform="matrix(-1 0 0 1 414.173 287.845)" fill="#E1E4E5"/><circle r="3.368" transform="matrix(-1 0 0 1 156.076 222.591)" fill="#E1E4E5"/><circle r="2.012" transform="matrix(-1 0 0 1 225.454 293.091)" fill="#E1E4E5"/><circle r="2.874" transform="matrix(-1 0 0 1 350.382 78.943)" fill="#E1E4E5"/><circle r="7.172" transform="scale(1 -1) rotate(-75 -106.615 -197.836)" fill="#E1E4E5"/><circle r="3.736" transform="matrix(-1 0 0 1 165.987 113.488)" fill="#E1E4E5"/><ellipse rx="2.874" ry="2.299" transform="matrix(-1 0 0 1 416.625 172.12)" fill="#E1E4E5"/><circle r="5.845" transform="scale(1 -1) rotate(-75 90.155 -270.683)" fill="#E1E4E5"/><path d="M447.464 181.726h.075c.445 6.308 5.137 6.405 5.137 6.405s-5.174.101-5.174 7.39c0-7.289-5.173-7.39-5.173-7.39s4.69-.097 5.135-6.405zM128.429 117.05h.129c.767 11.039 8.846 11.209 8.846 11.209s-8.909.177-8.909 12.932c0-12.755-8.909-12.932-8.909-12.932s8.076-.17 8.843-11.209z" fill="#E1E4E5"/><path d="M505.521 304.468H263.13a12.234 12.234 0 0 1-12.246-12.246v-80.729a12.234 12.234 0 0 1 12.246-12.246h242.391a12.234 12.234 0 0 1 12.246 12.246v80.763c0 6.739-5.473 12.212-12.246 12.212z" fill="#009688"/><path d="M297.512 239.577h177.363m-177.286 27.612H397.67" stroke="#fff" stroke-width="9.492" stroke-miterlimit="10" stroke-linecap="round" stroke-linejoin="round"/><path d="M280.432 304.32v-47.616l-60.683 47.616h60.683zm-81.984 176.013h242.391a12.234 12.234 0 0 0 12.246-12.246v-80.729a12.234 12.234 0 0 0-12.246-12.246H198.448a12.234 12.234 0 0 0-12.246 12.246v80.763c0 6.739 5.473 12.212 12.246 12.212z" fill="#009688"/><path d="M406.458 415.442H229.094m177.287 27.611H306.3" stroke="#fff" stroke-width="9.492" stroke-miterlimit="10" stroke-linecap="round" stroke-linejoin="round"/><path d="M423.538 480.185v-47.617l60.683 47.617h-60.683z" fill="#009688"/><path d="M161.857 359.863c-23.041 5.459-47.41-14.082-47.41-14.082s13.004-28.379 36.053-33.821c23.041-5.458 47.402 14.065 47.402 14.065s-13.004 28.38-36.045 33.838z" fill="url(#h)"/><path d="M129.695 489.808c24.257 16.708 61.315 5.029 61.315 5.029s-2.294-38.765-26.568-55.457c-24.257-16.708-61.299-5.045-61.299-5.045s2.295 38.765 26.552 55.473z" fill="url(#i)"/><path d="M664.422 194.945c-14.49 14.747-41.584 11.638-41.584 11.638s-3.586-27.02 10.917-41.758c14.489-14.747 41.571-11.647 41.571-11.647s3.585 27.02-10.904 41.767z" fill="url(#j)"/><circle cx="775.039" cy="432.288" r="12.448" transform="rotate(180 775.039 432.288)" fill="#009688"/><circle r="9.347" transform="matrix(-1 0 0 1 60.347 393.23)" fill="#009688"/><circle r="17.844" transform="matrix(-1 0 0 1 586.272 252.67)" fill="#009688"/><ellipse rx="7.473" ry="6.85" transform="matrix(-1 0 0 1 360.391 516.148)" fill="#E1E4E5"/><circle r="9.959" transform="matrix(-1 0 0 1 70.823 486.137)" fill="#E1E4E5"/><circle r="5.948" transform="matrix(-1 0 0 1 273.066 356.642)" fill="#E1E4E5"/><circle r="8.497" transform="matrix(-1 0 0 1 548.871 61.685)" fill="#E1E4E5"/><circle r="8.303" transform="scale(1 -1) rotate(-75 -191.16 -285.783)" fill="#E1E4E5"/><circle r="11.046" transform="matrix(-1 0 0 1 77.196 289.585)" fill="#E1E4E5"/><ellipse rx="8.497" ry="6.798" transform="matrix(-1 0 0 1 813.065 285.188)" fill="#E1E4E5"/><circle r="12.159" transform="scale(1 -1) rotate(-75 -39.248 -411.953)" fill="#E1E4E5"/><path d="M703.172 237.499h.222c1.317 18.651 15.187 18.938 15.187 18.938s-15.295.298-15.295 21.848c0-21.55-15.295-21.848-15.295-21.848s13.865-.287 15.181-18.938zM509.842 71.374h.217c1.285 18.974 14.832 19.267 14.832 19.267s-14.938.303-14.938 22.228c0-21.925-14.938-22.228-14.938-22.228s13.541-.293 14.827-19.267z" fill="#E1E4E5"/><defs><linearGradient id="a" x1="506.2" y1="530.47" x2="503.586" y2="243.201" gradientUnits="userSpaceOnUse"><stop stop-color="#fff"/><stop offset="1" stop-color="#EEE"/></linearGradient><linearGradient id="b" x1="658.444" y1="343.672" x2="657.566" y2="246.787" gradientUnits="userSpaceOnUse"><stop stop-color="#fff"/><stop offset="1" stop-color="#EEE"/></linearGradient><linearGradient id="c" x1="440.963" y1="355.301" x2="484.643" y2="297.11" gradientUnits="userSpaceOnUse"><stop stop-color="#fff"/><stop offset="1" stop-color="#EEE"/></linearGradient><linearGradient id="e" x1="501.551" y1="172.349" x2="569.771" y2="140.119" gradientUnits="userSpaceOnUse"><stop stop-color="#fff"/><stop offset="1" stop-color="#EEE"/></linearGradient><linearGradient id="f" x1="239.085" y1="111.296" x2="174.503" y2="43.195" gradientUnits="userSpaceOnUse"><stop stop-color="#fff"/><stop offset="1" stop-color="#EEE"/></linearGradient><linearGradient id="g" x1="437.149" y1="123.676" x2="372.847" y2="22.877" gradientUnits="userSpaceOnUse"><stop stop-color="#fff"/><stop offset="1" stop-color="#EEE"/></linearGradient><linearGradient id="h" x1="75.091" y1="373.435" x2="276.791" y2="278.145" gradientUnits="userSpaceOnUse"><stop stop-color="#fff"/><stop offset="1" stop-color="#EEE"/></linearGradient><linearGradient id="i" x1="224.186" y1="544.629" x2="33.241" y2="343.282" gradientUnits="userSpaceOnUse"><stop stop-color="#fff"/><stop offset="1" stop-color="#EEE"/></linearGradient><linearGradient id="j" x1="606.612" y1="245.318" x2="711.362" y2="81.114" gradientUnits="userSpaceOnUse"><stop stop-color="#fff"/><stop offset="1" stop-color="#EEE"/></linearGradient></defs></svg>