<svg width="900" height="600" viewBox="0 0 900 600" fill="none" xmlns="http://www.w3.org/2000/svg"><path fill="transparent" d="M0 0h900v600H0z"/><path d="M640.94 230.511c-10.206 18.214-32.557 20.716-68.364 17.255-26.93-2.608-51.488-4.626-78.42-19.31-18.851-10.27-33.772-24.165-44.663-37.661-11.802-14.62-28.274-31.306-20.199-47.883 11.097-22.772 75.273-41.951 137.59-10.587 68.455 34.463 84.039 80.385 74.056 98.186z" fill="url(#a)"/><path d="M817.318 238.11c-25.771 12.784-59.975-3.654-59.975-3.654s7.602-37.156 33.386-49.922c25.77-12.784 59.961 3.636 59.961 3.636s-7.602 37.156-33.372 49.94z" fill="url(#b)"/><path d="M212.777 182.459c14.92 8.942 36.326.676 36.326.676s-2.799-22.762-17.728-31.694c-14.921-8.942-36.317-.686-36.317-.686s2.799 22.762 17.719 31.704z" fill="url(#c)"/><circle cx="612.232" cy="423.117" r="14.071" transform="rotate(180 612.232 423.117)" fill="#009688"/><circle cx="290.584" cy="197.584" r="11.584" transform="rotate(180 290.584 197.584)" fill="#009688"/><circle r="13.192" transform="matrix(-1 0 0 1 221.67 414.894)" fill="#009688"/><circle r="6.156" transform="matrix(-1 0 0 1 645.932 207.706)" fill="#009688"/><circle r="7.915" transform="matrix(-1 0 0 1 473.655 486.718)" fill="#E1E4E5"/><circle r="11.433" transform="matrix(-1 0 0 1 128.212 400.215)" fill="#E1E4E5"/><circle r="8.701" transform="matrix(-1 0 0 1 576.121 473.316)" fill="#E1E4E5"/><circle r="9.674" transform="matrix(-1 0 0 1 682.884 109.707)" fill="#E1E4E5"/><circle r="8.687" transform="scale(1 -1) rotate(-75 -65.818 -210.36)" fill="#E1E4E5"/><circle r="11.557" transform="matrix(-1 0 0 1 353.557 144.557)" fill="#E1E4E5"/><ellipse rx="8.89" ry="7.112" transform="matrix(-1 0 0 1 765.481 394.876)" fill="#E1E4E5"/><circle r="18.08" transform="scale(1 -1) rotate(-75 -131.562 -467.73)" fill="#E1E4E5"/><path d="M680.253 384.217h.232c1.377 19.512 15.889 19.813 15.889 19.813s-16.002.312-16.002 22.858c0-22.546-16.002-22.858-16.002-22.858s14.505-.301 15.883-19.813zM180.744 437.74h.121c.72 10.594 8.307 10.757 8.307 10.757s-8.366.17-8.366 12.41c0-12.24-8.366-12.41-8.366-12.41s7.584-.163 8.304-10.757z" fill="#E1E4E5"/><path fill-rule="evenodd" clip-rule="evenodd" d="M546.671 205.208c53.809 53.808 53.809 141.049 0 194.858-53.808 53.808-141.049 53.808-194.857 0-53.809-53.809-53.809-141.05 0-194.858 53.808-53.809 141.049-53.809 194.857 0z" fill="#009688"/><path fill-rule="evenodd" clip-rule="evenodd" d="M479.554 272.326c16.741 16.74 16.741 43.882 0 60.622-16.74 16.741-43.882 16.741-60.622 0-16.741-16.74-16.741-43.882 0-60.622 16.74-16.741 43.882-16.741 60.622 0z" fill="#fff"/><path d="M160.658 283.883v26.791m26.792-53.583v80.375m26.792-100.469V357.56m26.791-100.469v80.375m26.792-53.583v26.791M81.08 287.965v18.627m18.627-37.253v55.879m18.627-69.849v83.819m18.626-69.849v55.879m600.388-41.335v26.791m-26.791-53.583v80.375m-26.792-100.469V357.56m-26.792-100.469v80.375m-26.791-53.583v26.791m186.744-22.709v18.627m-18.627-37.253v55.879m-18.626-69.849v83.819m-18.627-69.849v55.879" stroke="#E1E4E5" stroke-width="7.381" stroke-linecap="round" stroke-linejoin="round"/><defs><linearGradient id="a" x1="572.189" y1="348.552" x2="481.226" y2="-60.199" gradientUnits="userSpaceOnUse"><stop stop-color="#fff"/><stop offset="1" stop-color="#EEE"/></linearGradient><linearGradient id="b" x1="718.356" y1="277.986" x2="930.912" y2="109.852" gradientUnits="userSpaceOnUse"><stop stop-color="#fff"/><stop offset="1" stop-color="#EEE"/></linearGradient><linearGradient id="c" x1="270.514" y1="211.243" x2="150.461" y2="99.699" gradientUnits="userSpaceOnUse"><stop stop-color="#fff"/><stop offset="1" stop-color="#EEE"/></linearGradient></defs></svg>