<svg width="900" height="600" viewBox="0 0 900 600" fill="none" xmlns="http://www.w3.org/2000/svg"><path fill="transparent" d="M0 0h900v600H0z"/><path fill-rule="evenodd" clip-rule="evenodd" d="M667.211 303.134c0 48.469-24.718 91.351-63.068 119.386-2.726 1.994-4.406 5.134-4.404 8.511.005 11.102-.01 24.324-.018 38.454-.004 7.573-7.959 12.512-14.746 9.154l-48.381-23.937c-1.998-.988-4.263-1.287-6.46-.906a185.134 185.134 0 0 1-31.661 2.739c-92.843 0-168.737-68.302-168.737-153.401 0-85.1 75.894-153.401 168.737-153.401 92.843 0 168.738 68.301 168.738 153.401z" fill="#E1E4E5"/><path fill-rule="evenodd" clip-rule="evenodd" d="M247.924 303.134c0 48.469 24.718 91.351 63.068 119.386 2.726 1.994 4.406 5.134 4.404 8.511-.005 11.102.01 24.324.018 38.454.004 7.573 7.959 12.512 14.746 9.154l48.381-23.937c1.998-.988 4.263-1.287 6.46-.906a185.134 185.134 0 0 0 31.661 2.739c92.843 0 168.737-68.302 168.737-153.401 0-85.1-75.894-153.401-168.737-153.401-92.843 0-168.738 68.301-168.738 153.401z" fill="url(#a)"/><path fill-rule="evenodd" clip-rule="evenodd" d="M247.924 303.134c0 48.469 24.718 91.351 63.068 119.386 2.726 1.994 4.406 5.134 4.404 8.511-.005 11.102.01 24.324.018 38.454.004 7.573 7.959 12.512 14.746 9.154l48.381-23.937c1.998-.988 4.263-1.287 6.46-.906a185.134 185.134 0 0 0 31.661 2.739c92.843 0 168.737-68.302 168.737-153.401 0-85.1-75.894-153.401-168.737-153.401-92.843 0-168.738 68.301-168.738 153.401z" fill="#009688"/><path fill-rule="evenodd" clip-rule="evenodd" d="m400.991 249.944 66.754 38.736c9.611 5.575 9.611 19.225 0 24.82l-66.754 38.736c-9.799 5.678-22.167-1.25-22.167-12.399v-77.473c0-11.19 12.368-18.117 22.167-12.42z" fill="#fff"/><path d="M222.46 420.341c-13.252 3.139-27.267-8.099-27.267-8.099s7.479-16.322 20.735-19.452c13.251-3.139 27.262 8.089 27.262 8.089s-7.479 16.322-20.73 19.462z" fill="url(#b)"/><path d="M232.853 160.947c20.155 13.882 50.945 4.178 50.945 4.178s-1.906-32.208-22.074-46.077c-20.155-13.882-50.932-4.191-50.932-4.191s1.907 32.208 22.061 46.09z" fill="url(#c)"/><path d="M686.193 157.467c-12.038 12.253-34.55 9.669-34.55 9.669s-2.979-22.449 9.07-34.695c12.039-12.252 34.54-9.677 34.54-9.677s2.979 22.45-9.06 34.703z" fill="url(#d)"/><circle cx="741.523" cy="481.559" r="10.343" transform="rotate(180 741.523 481.559)" fill="#009688"/><ellipse cx="300.593" cy="498.582" rx="11.453" ry="10.88" transform="rotate(180 300.593 498.582)" fill="#009688"/><circle r="14.826" transform="matrix(-1 0 0 1 720.097 229.895)" fill="#009688"/><ellipse rx="10.307" ry="9.735" transform="matrix(-1 0 0 1 437.52 497.437)" fill="#E1E4E5"/><circle r="8.274" transform="matrix(-1 0 0 1 127.173 422.619)" fill="#E1E4E5"/><circle r="4.942" transform="matrix(-1 0 0 1 515.617 496.765)" fill="#E1E4E5"/><circle r="7.06" transform="matrix(-1 0 0 1 513.613 116.607)" fill="#E1E4E5"/><circle r="6.899" transform="scale(1 -1) rotate(-75 -226.319 -363.34)" fill="#E1E4E5"/><circle r="9.178" transform="matrix(-1 0 0 1 204.552 231.038)" fill="#E1E4E5"/><ellipse rx="7.06" ry="5.648" transform="matrix(-1 0 0 1 774.94 321.935)" fill="#E1E4E5"/><circle r="14.358" transform="scale(1 -1) rotate(-75 47.308 -646.07)" fill="#E1E4E5"/><path d="M706.432 298.674h.184c1.094 15.495 12.618 15.734 12.618 15.734s-12.708.248-12.708 18.153c0-17.905-12.707-18.153-12.707-18.153s11.519-.239 12.613-15.734zM347.827 103.365h.18c1.068 15.765 12.324 16.008 12.324 16.008s-12.412.252-12.412 18.468c0-18.216-12.411-18.468-12.411-18.468s11.251-.243 12.319-16.008zM135.565 315.626h.181c1.068 15.765 12.323 16.008 12.323 16.008s-12.411.252-12.411 18.468c0-18.216-12.412-18.468-12.412-18.468s11.251-.243 12.319-16.008zM764.319 163h.18c1.069 15.765 12.324 16.008 12.324 16.008s-12.412.252-12.412 18.468c0-18.216-12.411-18.468-12.411-18.468s11.251-.243 12.319-16.008zM204.578 285.745h.135c.798 11.779 9.208 11.96 9.208 11.96s-9.273.189-9.273 13.8c0-13.611-9.274-13.8-9.274-13.8s8.406-.181 9.204-11.96z" fill="#E1E4E5"/><defs><linearGradient id="a" x1="416.662" y1="149.733" x2="416.662" y2="485.932" gradientUnits="userSpaceOnUse"><stop stop-color="#8B6EE7"/><stop offset="1" stop-color="#5C30D6"/></linearGradient><linearGradient id="b" x1="172.558" y1="428.146" x2="288.561" y2="373.342" gradientUnits="userSpaceOnUse"><stop stop-color="#fff"/><stop offset="1" stop-color="#EEE"/></linearGradient><linearGradient id="c" x1="311.363" y1="206.496" x2="152.713" y2="39.203" gradientUnits="userSpaceOnUse"><stop stop-color="#fff"/><stop offset="1" stop-color="#EEE"/></linearGradient><linearGradient id="d" x1="638.161" y1="199.32" x2="725.194" y2="62.889" gradientUnits="userSpaceOnUse"><stop stop-color="#fff"/><stop offset="1" stop-color="#EEE"/></linearGradient></defs></svg>