<svg width="900" height="600" viewBox="0 0 900 600" fill="none" xmlns="http://www.w3.org/2000/svg"><path fill="transparent" d="M0 0h900v600H0z"/><path d="M697.861 354.38c3.442 63.422-120.554 192.384-273.387 144.651-71.081-22.202-65.06-59.053-119.11-107.619-32.217-28.946-78.507-50.834-91.381-92.909-11.122-36.317-4.302-75.353 14.98-100.743 43.365-57.101 130.91-96.201 217.17-6.234 86.26 89.967 242.833-.717 251.728 162.854z" fill="url(#a)"/><path d="M644.056 191.92c-11.362 20.279-36.248 23.065-76.116 19.211-29.983-2.903-57.326-5.15-87.312-21.499-20.988-11.435-37.601-26.906-49.727-41.932-13.14-16.278-31.481-34.856-22.49-53.312C420.767 69.034 492.22 47.68 561.603 82.6c76.217 38.371 93.569 89.5 82.453 109.32z" fill="url(#b)"/><path d="M304.876 516.864c-27.87-38.99-56.413-80.429-93.78-100.84-38.544-21.063-45.652-8.082-48.32 12.557-2.668 20.638 9.223 69.538 61.824 97.36 52.615 27.83 106.353 27.413 80.276-9.077z" fill="url(#c)"/><path d="M708.176 253.49c-19.724 4.672-40.584-12.055-40.584-12.055s11.132-24.293 30.862-28.951c19.723-4.673 40.577 12.04 40.577 12.04s-11.132 24.293-30.855 28.966z" fill="url(#d)"/><path d="M740.872 435.734c17.882 12.316 45.2 3.707 45.2 3.707s-1.692-28.576-19.585-40.881c-17.882-12.316-45.188-3.719-45.188-3.719s1.691 28.576 19.573 40.893z" fill="url(#e)"/><path d="M133.966 308.878c19.385 19.73 55.636 15.57 55.636 15.57s4.797-36.149-14.607-55.868c-19.385-19.73-55.618-15.582-55.618-15.582s-4.797 36.149 14.589 55.88z" fill="url(#f)"/><ellipse cx="727.4" cy="329.619" rx="14.407" ry="13.78" transform="rotate(180 727.4 329.619)" fill="#009688"/><ellipse cx="242.228" cy="447.13" rx="19.418" ry="18.791" transform="rotate(180 242.228 447.13)" fill="#009688"/><circle r="14.141" transform="matrix(-1 0 0 1 230.907 192.599)" fill="#009688"/><circle r="13.154" transform="matrix(-1 0 0 1 539.981 143.322)" fill="#009688"/><circle r="11.83" transform="matrix(-1 0 0 1 698.533 453.856)" fill="#E1E4E5"/><circle r="12.443" transform="matrix(-1 0 0 1 203.6 361.144)" fill="#E1E4E5"/><circle r="6.131" transform="matrix(-1 0 0 1 340.129 508.19)" fill="#E1E4E5"/><circle r="9.358" transform="matrix(-1 0 0 1 636.445 147.282)" fill="#E1E4E5"/><circle r="6.121" transform="scale(1 -1) rotate(-75 -68.895 -298.787)" fill="#E1E4E5"/><circle r="8.143" transform="matrix(-1 0 0 1 345.354 138.311)" fill="#E1E4E5"/><ellipse rx="6.264" ry="5.011" transform="matrix(-1 0 0 1 628.56 309.02)" fill="#E1E4E5"/><circle r="12.739" transform="scale(1 -1) rotate(-75 192.496 -368.95)" fill="#E1E4E5"/><path d="M774.13 258.004h.164c.97 13.748 11.195 13.96 11.195 13.96s-11.275.22-11.275 16.106c0-15.886-11.274-16.106-11.274-16.106s10.22-.212 11.19-13.96zM302.44 68.723h.282c1.671 24.06 19.28 24.43 19.28 24.43s-19.417.385-19.417 28.186c0-27.8-19.418-28.186-19.418-28.186s17.602-.37 19.273-24.43z" fill="#E1E4E5"/><path fill-rule="evenodd" clip-rule="evenodd" d="m398.491 151.489 11.686-26.475c7.097-16.101 22.944-26.475 40.432-26.475 17.488 0 33.335 10.374 40.432 26.475l11.686 26.475a48.733 48.733 0 0 0 19.994 22.379 48.357 48.357 0 0 0 29.391 6.289l28.592-3.066c17.387-1.853 34.227 6.787 42.964 22.044 8.749 15.248 7.757 34.258-2.532 48.497l-16.928 23.431a49.17 49.17 0 0 0-9.198 28.892 49.168 49.168 0 0 0 9.286 28.781l16.929 23.431c10.289 14.239 11.281 33.249 2.532 48.497-8.737 15.257-25.577 23.896-42.965 22.044l-28.591-3.066a48.356 48.356 0 0 0-29.391 6.288 48.734 48.734 0 0 0-19.994 22.492l-11.775 26.475c-7.097 16.101-22.944 26.475-40.432 26.475-17.488 0-33.335-10.374-40.432-26.475l-11.686-26.475a48.734 48.734 0 0 0-19.994-22.492 48.356 48.356 0 0 0-29.391-6.288l-28.68 3.066c-17.388 1.852-34.227-6.787-42.965-22.044-8.749-15.248-7.756-34.258 2.532-48.497l16.929-23.431a49.168 49.168 0 0 0 9.286-28.781 49.165 49.165 0 0 0-9.286-28.78l-16.929-23.431c-10.288-14.239-11.281-33.249-2.532-48.497 8.746-15.248 25.579-23.885 42.965-22.044l28.591 3.066a48.355 48.355 0 0 0 29.391-6.289 48.728 48.728 0 0 0 20.083-22.491z" fill="#009688"/><path fill-rule="evenodd" clip-rule="evenodd" d="M450.609 407.777c-58.521 0-105.962-48.274-105.962-107.822s47.441-107.821 105.962-107.821 105.962 48.273 105.962 107.821c0 59.548-47.441 107.822-105.962 107.822z" fill="#fff"/><path fill-rule="evenodd" clip-rule="evenodd" d="M430.099 211.757a29.929 29.929 0 0 0-3.497 4.733c-8.235 13.749-14.254 28.571-18.054 43.888-12.111-1.762-23.87-4.298-34.966-7.608 12.412-20.353 32.642-35.415 56.517-41.013zm-62.356 52.906c12.087 3.733 24.925 6.581 38.157 8.542a167.368 167.368 0 0 0-.002 54.553c-13.116 1.945-25.844 4.761-37.836 8.447-4.915-11.146-7.643-23.472-7.643-36.435 0-12.479 2.528-24.367 7.101-35.18.073.025.148.05.223.073zm6.587 83.312c12.199 19.317 31.515 33.691 54.264 39.442a30.47 30.47 0 0 1-1.992-2.93c-8.238-13.754-14.257-28.58-18.058-43.902-11.838 1.724-23.34 4.187-34.214 7.39zm47.302-8.981c3.509 13.53 8.905 26.614 16.189 38.775l.001.001c6.053 10.11 19.947 10.11 26 0l.001-.001c7.283-12.161 12.68-25.245 16.189-38.775a301.1 301.1 0 0 0-58.38 0zm71.467 1.592c-3.801 15.321-9.82 30.147-18.057 43.901a30.718 30.718 0 0 1-1.99 2.927c22.745-5.753 42.057-20.127 54.255-39.443-10.873-3.201-22.372-5.663-34.208-7.385zm40.475-4.385c-11.991-3.684-24.716-6.499-37.828-8.443a167.353 167.353 0 0 0-.003-54.555c13.225-1.962 26.055-4.808 38.134-8.54.08-.025.158-.05.236-.078 4.573 10.815 7.103 22.705 7.103 35.185 0 12.962-2.728 25.286-7.642 36.431zm-50.814-10.072a313.83 313.83 0 0 0-63.876-.001 154.266 154.266 0 0 1 .002-51.294c21.063 2.172 42.81 2.172 63.871-.001a154.25 154.25 0 0 1 .003 51.296zm-61.125-64.16a301.027 301.027 0 0 0 58.373-.002c-3.509-13.523-8.904-26.602-16.184-38.757-6.064-10.117-19.951-10.111-26.002-.003l-.001.001c-7.281 12.156-12.676 25.236-16.186 38.761zm71.46-1.594c12.108-1.762 23.863-4.298 34.955-7.609-12.411-20.348-32.637-35.408-56.507-41.007a29.93 29.93 0 0 1 3.497 4.728l.001.002c8.235 13.749 14.253 28.57 18.054 43.886z" fill="#009688"/><defs><linearGradient id="a" x1="549.66" y1="734.544" x2="317.719" y2="-311.893" gradientUnits="userSpaceOnUse"><stop stop-color="#fff"/><stop offset="1" stop-color="#EEE"/></linearGradient><linearGradient id="b" x1="567.51" y1="323.346" x2="466.232" y2="-131.754" gradientUnits="userSpaceOnUse"><stop stop-color="#fff"/><stop offset="1" stop-color="#EEE"/></linearGradient><linearGradient id="c" x1="273.756" y1="644.857" x2="182.317" y2="222.001" gradientUnits="userSpaceOnUse"><stop stop-color="#fff"/><stop offset="1" stop-color="#EEE"/></linearGradient><linearGradient id="d" x1="633.903" y1="265.107" x2="806.561" y2="183.538" gradientUnits="userSpaceOnUse"><stop stop-color="#fff"/><stop offset="1" stop-color="#EEE"/></linearGradient><linearGradient id="e" x1="810.528" y1="476.146" x2="669.769" y2="327.72" gradientUnits="userSpaceOnUse"><stop stop-color="#fff"/><stop offset="1" stop-color="#EEE"/></linearGradient><linearGradient id="f" x1="211.31" y1="376.273" x2="71.164" y2="156.582" gradientUnits="userSpaceOnUse"><stop stop-color="#fff"/><stop offset="1" stop-color="#EEE"/></linearGradient></defs></svg>