<svg width="900" height="600" viewBox="0 0 900 600" fill="none" xmlns="http://www.w3.org/2000/svg"><path fill="transparent" d="M0 0h900v600H0z"/><path d="M462.932 200.335c-3.185 17.872-21.734 33.591-21.734 33.591s-15.207-21.745-12.022-39.617c3.197-17.876 13.327-31.016 22.652-29.347 9.321 1.657 14.289 17.5 11.104 35.373zm-40.841 31.046c12.433 13.223 13.966 37.484 13.966 37.484s-26.515-.767-38.952-14.002c-12.436-13.235-16.922-29.207-10.014-35.69 6.895-6.48 22.566-1.015 35 12.208zm14.858 91.566c.56 3.102.781 5.275.839 5.827.004.064.017.112.011.139l.003.012s-.012.003-.015-.009l-.087.011c-.288-.013-1.147-.041-2.445-.119-6.946-.449-26.365-2.613-36.661-13.157-12.68-12.99-17.459-28.896-10.686-35.498 6.77-6.614 22.542-1.446 35.222 11.543 5.676 5.821 9.216 13.879 11.377 21.029a87.617 87.617 0 0 1 2.442 10.222zm38.845-58.769c-15.797 8.943-39.734 4.699-39.734 4.699s7.04-25.59 22.837-34.532c15.797-8.943 32.379-9.515 37.05-1.283 4.673 8.245-4.356 22.174-20.153 31.116z" fill="#E1E4E5"/><path d="M474.021 320.015C459.245 330.554 435 328.819 435 328.819s4.339-26.182 19.115-36.722c14.776-10.539 31.217-12.842 36.716-5.128 5.499 7.713-2.022 22.503-16.81 33.046z" fill="#E1E4E5"/><path d="M444.327 226.584c-.087.256-7.081 24.955-4.676 87.768.174 4.599.406 9.414.69 14.422l-.305.017-2.238.122-.003-.012-.012.003-.088.011c-.287-.013-1.146-.041-2.445-.119a743.01 743.01 0 0 1-.748-16.083c-2.274-62.423 4.636-86.519 4.942-87.595l4.883 1.466zm117.871 60.077c-5.019 12.95.862 30.598.862 30.598s18.583-8.174 23.602-21.125c5.013-12.957 3.611-25.573-3.149-28.187-6.752-2.621-16.296 5.763-21.315 18.714zm14.366 36.526c-13.383 3.705-24.025 18.957-24.025 18.957s17.639 10.035 31.029 6.323c13.39-3.711 22.67-12.371 20.73-19.354-1.934-6.977-14.351-9.63-27.734-5.926zm-46.098 53.961c-1.599 1.806-2.607 3.139-2.864 3.477-.028.04-.055.066-.062.086l-.007.007s.006.006.013 0l.053.042c.193.105.766.428 1.646.893 4.719 2.467 18.275 8.768 29.196 5.965 13.452-3.453 22.896-11.954 21.091-18.962-1.797-7.014-14.162-9.902-27.614-6.449-6.023 1.551-11.539 5.412-15.793 9.228a67.041 67.041 0 0 0-5.659 5.713zm-2.045-53.858c6.775 12.124 24.111 18.86 24.111 18.86s5.566-19.527-1.209-31.651c-6.775-12.123-17.389-19.086-23.713-15.56-6.332 3.533-5.963 16.228.811 28.351z" fill="#E1E4E5"/><path d="M507.394 360.5c5.472 12.762 22.014 21.261 22.014 21.261s7.566-18.841 2.094-31.603c-5.473-12.762-15.307-20.8-21.967-17.942-6.66 2.858-7.62 15.515-2.141 28.284z" fill="#E1E4E5"/><path d="M563.932 311.215c-.045.201-5.287 19.129-31.818 59.24a585.905 585.905 0 0 1-6.182 9.154l.193.133 1.415.969.007-.007.006.007.053.042c.193.105.766.429 1.646.894a569.208 569.208 0 0 0 6.88-10.218c26.29-39.907 31.347-58.408 31.575-59.232l-3.775-.982z" fill="#E1E4E5"/><path d="M354.286 258.966s-8.231-29.462 3.447-43.04c12.542-14.607 22.349-.581 12.64 19.85-6.658 14.026-16.087 23.19-16.087 23.19zm-4.389 32.871s-26.93-14.585-28.502-32.372c-1.702-19.11 15.239-16.375 23.133 4.772 5.389 14.5 5.369 27.6 5.369 27.6zm.381 19.448s28.742-10.848 32.829-28.243c4.401-18.707-12.782-18.257-23.583 1.621-7.392 13.633-9.246 26.622-9.246 26.622zm1.674 14.035s-30.633-1.927-39.555-17.366c-9.597-16.611 6.969-21.216 23.036-5.377 11.01 10.842 16.519 22.743 16.519 22.743z" fill="#009688"/><path d="M359.909 232.514c-5.642 18.651-9.833 37.785-10.944 57.25-1.088 19.162.894 38.327 4.989 57.038a288.837 288.837 0 0 0 3.604 14.633l1.842-.995c-3.47-12.877-6.199-25.968-7.612-39.249-1.978-18.462-1.211-37.097 2.045-55.373 1.977-11.061 4.772-21.962 8.022-32.713.381-1.266-1.573-1.831-1.946-.591z" fill="#133835"/><mask id="a" mask-type="alpha" maskUnits="userSpaceOnUse" x="295" y="214" width="298" height="298"><circle cx="444.112" cy="363.16" r="148.197" fill="#C4C4C4"/></mask><g mask="url(#a)"><circle cx="473.334" cy="473.786" r="148.197" fill="#009688"/><ellipse cx="410.314" cy="421.305" rx="105.868" ry="101.457" fill="#E1E4E5"/><circle cx="426.37" cy="505.096" r="148.197" fill="#133835"/></g><path d="M279.035 322.996s-24.208-35.098-14.973-58.289c9.907-24.938 29.193-10.9 25.66 20.431-2.415 21.504-10.687 37.858-10.687 37.858zm9.119 45.313s-42.106-7.011-52.244-29.742c-10.907-24.415 12.661-28.492 32.653-4.2 13.678 16.667 19.591 33.942 19.591 33.942zm9.322 25.459s32.962-27.329 30.462-52.108c-2.683-26.651-25.125-18.268-30.347 12.829-3.561 21.319-.115 39.279-.115 39.279zm8.569 17.739s-41.246 11.35-60.006-4.952c-20.181-17.542-.435-31.123 27.923-17.532 19.427 9.297 32.083 22.484 32.083 22.484z" fill="#009688"/><path d="M274.452 285.584c1.02 27.138 4.173 54.257 11.534 80.416 7.255 25.747 18.558 50.109 32.439 72.912 3.63 5.988 7.456 11.877 11.385 17.652l1.976-2.146c-10.411-15.399-19.944-31.414-27.829-48.279-10.978-23.435-18.417-48.344-22.412-73.907-2.41-15.475-3.669-31.109-4.26-46.753-.072-1.841-2.903-1.7-2.833.105z" fill="#133835"/><path d="M536.093 256.794s12.636-40.721-3.097-60.102c-16.896-20.847-31.115-1.695-18.397 27.156 8.72 19.804 21.494 32.946 21.494 32.946zm4.815 45.97s38.097-19.254 40.992-43.974c3.127-26.556-20.584-23.417-32.419 5.733-8.083 19.988-8.573 38.241-8.573 38.241zm-1.303 27.081s-39.615-16.252-44.62-40.649c-5.39-26.237 18.531-24.93 32.792 3.193 9.759 19.285 11.828 37.456 11.828 37.456zm-2.887 19.487s42.754-1.472 55.796-22.628c14.03-22.763-8.869-29.835-31.881-8.403-15.769 14.668-23.915 31.031-23.915 31.031z" fill="#009688"/><path d="M529.307 219.717c7.122 26.208 12.203 53.032 12.981 80.196.756 26.739-2.765 53.363-9.211 79.269-1.679 6.798-3.573 13.56-5.6 20.245l-2.527-1.459c5.344-17.804 9.664-35.934 12.159-54.382 3.487-25.644 3.157-51.637-.656-77.229-2.317-15.489-5.779-30.786-9.882-45.895-.48-1.778 2.265-2.488 2.736-.745z" fill="#133835"/><path d="M352.951 167.623c-9.047 1.793-19.353-7.737-19.353-7.737s4.37-12.432 13.42-14.217c9.047-1.793 19.349 7.729 19.349 7.729s-4.369 12.432-13.416 14.225z" fill="url(#b)"/><path d="M648.328 453.468c10.812 7.447 27.33 2.241 27.33 2.241s-1.023-17.278-11.842-24.718c-10.813-7.447-27.323-2.249-27.323-2.249s1.023 17.279 11.835 24.726z" fill="url(#c)"/><path d="M658.24 248.807c-11.243 11.443-32.266 9.03-32.266 9.03s-2.782-20.965 8.471-32.401c11.243-11.442 32.256-9.037 32.256-9.037s2.782 20.965-8.461 32.408z" fill="url(#d)"/><circle cx="290.466" cy="489.687" r="13.624" transform="rotate(180 290.466 489.687)" fill="#009688"/><circle r="10.23" transform="matrix(-1 0 0 1 173.518 288.172)" fill="#009688"/><circle r="5.514" transform="matrix(-1 0 0 1 604.36 150.859)" fill="#009688"/><ellipse rx="8.179" ry="7.497" transform="matrix(-1 0 0 1 588.172 483.56)" fill="#E1E4E5"/><circle r="10.9" transform="matrix(-1 0 0 1 173.9 438.356)" fill="#E1E4E5"/><circle r="6.51" transform="matrix(-1 0 0 1 220.78 260.101)" fill="#E1E4E5"/><ellipse rx="6.617" ry="7.168" transform="matrix(-1 0 0 1 513.931 95.168)" fill="#E1E4E5"/><circle r="9.088" transform="scale(1 -1) rotate(-75 9.634 -299.907)" fill="#E1E4E5"/><circle r="8.822" transform="matrix(-1 0 0 1 233.822 147.551)" fill="#E1E4E5"/><ellipse rx="9.3" ry="7.44" transform="matrix(-1 0 0 1 727.439 402.918)" fill="#E1E4E5"/><circle r="18.913" transform="scale(1 -1) rotate(-75 116.356 -597.39)" fill="#E1E4E5"/><path d="M644.014 145.608h.177c1.044 15.128 12.044 15.361 12.044 15.361s-12.13.242-12.13 17.723c0-17.481-12.131-17.723-12.131-17.723s10.996-.233 12.04-15.361zM396.389 88h.185c1.091 15.633 12.592 15.873 12.592 15.873s-12.682.25-12.682 18.313c0-18.063-12.682-18.313-12.682-18.313s11.496-.24 12.587-15.873z" fill="#E1E4E5"/><defs><linearGradient id="b" x1="318.679" y1="171.223" x2="396.759" y2="134.652" gradientUnits="userSpaceOnUse"><stop stop-color="#fff"/><stop offset="1" stop-color="#EEE"/></linearGradient><linearGradient id="c" x1="690.445" y1="477.903" x2="605.335" y2="388.157" gradientUnits="userSpaceOnUse"><stop stop-color="#fff"/><stop offset="1" stop-color="#EEE"/></linearGradient><linearGradient id="d" x1="613.384" y1="287.893" x2="694.662" y2="160.482" gradientUnits="userSpaceOnUse"><stop stop-color="#fff"/><stop offset="1" stop-color="#EEE"/></linearGradient></defs></svg>