<svg width="900" height="600" viewBox="0 0 900 600" fill="none" xmlns="http://www.w3.org/2000/svg"><path fill="transparent" d="M0 0h900v600H0z"/><path d="M367.097 363.764v97.378M283.464 266v195.147m-83.633-48.508v48.508m250.9-146.279v146.276m83.205-97.38v97.378M617.569 266v195.147m83.634-48.508v48.508" stroke="#009688" stroke-width="36.547" stroke-linecap="round" stroke-linejoin="round"/><path fill-rule="evenodd" clip-rule="evenodd" d="M132.316 358.351h4.505c1.089 0 1.966.886 1.966 1.966v4.505c0 1.09-.886 1.967-1.966 1.967h-4.505a1.975 1.975 0 0 1-1.967-1.967v-4.505a1.962 1.962 0 0 1 1.967-1.966zm15.618 0h4.505c1.08 0 1.966.886 1.966 1.966v4.505c0 1.09-.886 1.967-1.966 1.967h-4.505a1.974 1.974 0 0 1-1.966-1.967v-4.505c0-1.08.886-1.966 1.966-1.966zm15.629 0h4.505c1.08 0 1.967.886 1.967 1.966v4.505c0 1.09-.887 1.967-1.967 1.967h-4.505a1.974 1.974 0 0 1-1.966-1.967v-4.505a1.962 1.962 0 0 1 1.966-1.966zm15.619 0h4.505c1.08 0 1.967.886 1.967 1.966v4.505c0 1.09-.887 1.967-1.967 1.967h-4.505a1.976 1.976 0 0 1-1.975-1.967v-4.505a1.987 1.987 0 0 1 1.975-1.966zm15.62 0h4.505c1.09 0 1.976.886 1.976 1.966v4.505a1.97 1.97 0 0 1-1.976 1.966h-4.505a1.973 1.973 0 0 1-1.966-1.966v-4.505c0-1.08.886-1.966 1.966-1.966zm-46.295 17.032h4.505c1.08 0 1.966.886 1.966 1.966v4.514c0 1.08-.886 1.967-1.966 1.967h-4.505a1.969 1.969 0 0 1-1.966-1.967v-4.505a1.963 1.963 0 0 1 1.966-1.975zm15.619 0h4.505c1.08 0 1.966.886 1.966 1.966v4.514c0 1.08-.886 1.967-1.966 1.967h-4.505a1.975 1.975 0 0 1-1.967-1.967v-4.505a1.964 1.964 0 0 1 1.967-1.975zm15.62 0h4.505c1.089 0 1.976.886 1.976 1.966v4.514c0 1.08-.887 1.967-1.976 1.967h-4.505a1.974 1.974 0 0 1-1.966-1.967v-4.505c0-1.089.886-1.975 1.966-1.975zm-16.183-35.329h4.505c1.08 0 1.967.886 1.967 1.966v4.505c0 1.09-.887 1.967-1.967 1.967h-4.505a1.974 1.974 0 0 1-1.966-1.967v-4.505a1.962 1.962 0 0 1 1.966-1.966zm15.619 0h4.505c1.08 0 1.967.886 1.967 1.966v4.505c0 1.09-.887 1.967-1.967 1.967h-4.505a1.976 1.976 0 0 1-1.975-1.967v-4.505a1.987 1.987 0 0 1 1.975-1.966zm517.879 39.972h4.504c1.09 0 1.967.886 1.967 1.966v4.505a1.968 1.968 0 0 1-1.967 1.966h-4.504a1.974 1.974 0 0 1-1.967-1.966v-4.505a1.962 1.962 0 0 1 1.967-1.966zm15.618 0h4.505c1.08 0 1.966.886 1.966 1.966v4.505a1.968 1.968 0 0 1-1.966 1.966h-4.505a1.973 1.973 0 0 1-1.966-1.966v-4.505c0-1.08.886-1.966 1.966-1.966zm15.629 0h4.505c1.08 0 1.967.886 1.967 1.966v4.505a1.969 1.969 0 0 1-1.967 1.966h-4.505a1.973 1.973 0 0 1-1.966-1.966v-4.505a1.962 1.962 0 0 1 1.966-1.966zm15.619 0h4.505c1.08 0 1.966.886 1.966 1.966v4.505a1.968 1.968 0 0 1-1.966 1.966h-4.505a1.975 1.975 0 0 1-1.975-1.966v-4.505a1.987 1.987 0 0 1 1.975-1.966zm15.62 0h4.505c1.089 0 1.976.886 1.976 1.966v4.505a1.97 1.97 0 0 1-1.976 1.966h-4.505a1.973 1.973 0 0 1-1.966-1.966v-4.505c0-1.08.886-1.966 1.966-1.966zm-46.295 17.032h4.505c1.08 0 1.966.886 1.966 1.966v4.514c0 1.08-.886 1.966-1.966 1.966h-4.505a1.968 1.968 0 0 1-1.967-1.966v-4.505a1.964 1.964 0 0 1 1.967-1.975zm15.619 0h4.505c1.08 0 1.966.886 1.966 1.966v4.514c0 1.08-.886 1.966-1.966 1.966h-4.505a1.974 1.974 0 0 1-1.967-1.966v-4.505a1.964 1.964 0 0 1 1.967-1.975zm15.62 0h4.505c1.089 0 1.975.886 1.975 1.966v4.514c0 1.08-.886 1.966-1.975 1.966h-4.505a1.973 1.973 0 0 1-1.966-1.966v-4.505c0-1.089.886-1.975 1.966-1.975zm-16.183-35.329h4.505c1.08 0 1.967.886 1.967 1.966v4.505c0 1.09-.887 1.967-1.967 1.967h-4.505a1.974 1.974 0 0 1-1.966-1.967v-4.505a1.962 1.962 0 0 1 1.966-1.966zm15.619 0h4.505c1.08 0 1.966.886 1.966 1.966v4.505c0 1.09-.886 1.967-1.966 1.967h-4.505a1.976 1.976 0 0 1-1.975-1.967v-4.505a1.987 1.987 0 0 1 1.975-1.966z" fill="#E1E4E5"/><path d="m129.137 203.065-15.394 15.378-7.478-7.456m56.224-15.281h45.494m-45.14 22.57h75.235m-108.941 37.453-15.394 15.378-7.478-7.455m56.224-15.281h45.494m-45.14 22.57h75.235m447.374-49.814-15.393 15.378-7.478-7.456m56.223-15.281h45.495m-45.141 22.57h75.235m-108.941 37.454-15.393 15.377-7.478-7.455m56.223-15.281h45.495m-45.141 22.57h75.235" stroke="#E1E4E5" stroke-width="4" stroke-linecap="round" stroke-linejoin="round"/><path d="M461.507 263.305c-16.716 3.96-34.395-10.216-34.395-10.216s9.435-20.589 26.156-24.537c16.716-3.96 34.39 10.204 34.39 10.204s-9.435 20.589-26.151 24.549z" fill="url(#a)"/><path d="M502.168 199.075c17.598 12.121 44.483 3.648 44.483 3.648s-1.664-28.123-19.274-40.232c-17.598-12.122-44.472-3.66-44.472-3.66s1.665 28.123 19.263 40.244z" fill="url(#b)"/><path d="M631.735 196.458c-10.511 10.698-30.168 8.443-30.168 8.443s-2.601-19.603 7.92-30.295c10.512-10.699 30.159-8.449 30.159-8.449s2.601 19.602-7.911 30.301z" fill="url(#c)"/><circle cx="540.361" cy="422.538" r="9.031" transform="rotate(-180 540.361 422.538)" fill="#009688"/><ellipse cx="534.252" cy="289.493" rx="19.11" ry="18.493" transform="rotate(-180 534.252 289.493)" fill="#009688"/><circle r="6.781" transform="matrix(-1 0 0 1 93.78 343.223)" fill="#009688"/><circle r="12.945" transform="matrix(-1 0 0 1 729.714 175.99)" fill="#009688"/><circle r="6.164" transform="matrix(-1 0 0 1 573.306 149.164)" fill="#E1E4E5"/><circle r="8.014" transform="matrix(-1 0 0 1 293.698 207.183)" fill="#E1E4E5"/><ellipse rx="6.164" ry="4.932" transform="matrix(-1 0 0 1 734.974 323.311)" fill="#E1E4E5"/><circle r="12.537" transform="scale(1 -1) rotate(-75 3.279 -371.732)" fill="#E1E4E5"/><path d="M801.122 343.917h.161c.955 13.53 11.018 13.739 11.018 13.739s-11.096.216-11.096 15.85c0-15.634-11.096-15.85-11.096-15.85s10.058-.209 11.013-13.739zM396.898 194h.158c.933 13.766 10.76 13.977 10.76 13.977s-10.837.221-10.837 16.127c0-15.906-10.837-16.127-10.837-16.127s9.824-.211 10.756-13.977z" fill="#E1E4E5"/><defs><linearGradient id="a" x1="398.56" y1="273.151" x2="544.89" y2="204.02" gradientUnits="userSpaceOnUse"><stop stop-color="#fff"/><stop offset="1" stop-color="#EEE"/></linearGradient><linearGradient id="b" x1="570.72" y1="238.847" x2="432.192" y2="92.773" gradientUnits="userSpaceOnUse"><stop stop-color="#fff"/><stop offset="1" stop-color="#EEE"/></linearGradient><linearGradient id="c" x1="589.795" y1="233.002" x2="665.789" y2="113.875" gradientUnits="userSpaceOnUse"><stop stop-color="#fff"/><stop offset="1" stop-color="#EEE"/></linearGradient></defs></svg>