<svg width="900" height="600" viewBox="0 0 900 600" fill="none" xmlns="http://www.w3.org/2000/svg"><path fill="transparent" d="M0 0h900v600H0z"/><path fill-rule="evenodd" clip-rule="evenodd" d="m607.251 146.082-79.112-79.087a55.978 55.978 0 0 0-39.556-16.387H287.949c-30.912 0-55.949 25.029-55.949 55.93v391.516c0 30.902 25.037 55.931 55.949 55.931h279.746c30.911 0 55.949-25.029 55.949-55.931V185.625a55.94 55.94 0 0 0-16.393-39.543z" fill="#fff" stroke="#E1E4E5" stroke-width="4"/><path fill-rule="evenodd" clip-rule="evenodd" d="m649.35 146.082-79.112-79.087a55.975 55.975 0 0 0-39.556-16.387H330.049c-30.912 0-55.95 25.029-55.95 55.93v391.516c0 30.902 25.038 55.931 55.95 55.931h279.745c30.912 0 55.949-25.029 55.949-55.931V185.625a55.936 55.936 0 0 0-16.393-39.543z" fill="#fff" stroke="#E1E4E5" stroke-width="4"/><path d="M609.797 527.255c-14.885 3.526-30.628-9.097-30.628-9.097s8.401-18.333 23.291-21.848c14.884-3.526 30.622 9.086 30.622 9.086s-8.401 18.333-23.285 21.859z" fill="url(#a)"/><path d="M664.97 98.288c-15.314-13.231-13.973-39.896-13.973-39.896s26.172-5.194 41.479 8.051c15.314 13.232 13.981 39.883 13.981 39.883s-26.172 5.194-41.487-8.037z" fill="url(#b)"/><path d="M189.736 338.784c-11.251 11.451-32.29 9.036-32.29 9.036s-2.784-20.98 8.477-32.424c11.251-11.451 32.28-9.044 32.28-9.044s2.784 20.981-8.467 32.432z" fill="url(#c)"/><circle cx="720.459" cy="386.384" r="12.095" transform="rotate(180 720.459 386.384)" fill="#009688"/><ellipse cx="204.724" cy="462.174" rx="17.016" ry="16.467" transform="rotate(180 204.724 462.174)" fill="#009688"/><circle r="6.038" transform="matrix(-1 0 0 1 208.038 226.038)" fill="#009688"/><circle r="11.527" transform="matrix(-1 0 0 1 739.473 125.489)" fill="#009688"/><circle r="10.367" transform="matrix(-1 0 0 1 696.845 497.542)" fill="#E1E4E5"/><circle r="3.842" transform="matrix(-1 0 0 1 311.348 515.207)" fill="#E1E4E5"/><circle r="5.489" transform="matrix(-1 0 0 1 617.093 67.616)" fill="#E1E4E5"/><circle r="5.364" transform="scale(1 -1) rotate(-75 -54.286 -356.076)" fill="#E1E4E5"/><circle r="7.136" transform="matrix(-1 0 0 1 252.136 136.136)" fill="#E1E4E5"/><ellipse rx="5.489" ry="4.391" transform="matrix(-1 0 0 1 711.549 230.087)" fill="#E1E4E5"/><circle r="11.164" transform="scale(1 -1) rotate(-75 144.494 -332.538)" fill="#E1E4E5"/><path d="M720.474 291.353h.143c.851 12.048 9.811 12.234 9.811 12.234s-9.881.193-9.881 14.114c0-13.921-9.88-14.114-9.88-14.114s8.956-.186 9.807-12.234zM192.576 82h.185c1.09 15.802 12.581 16.045 12.581 16.045s-12.671.253-12.671 18.512c0-18.259-12.671-18.512-12.671-18.512s11.486-.243 12.576-16.045z" fill="#E1E4E5"/><rect x="321.118" y="142.921" width="76.577" height="76.577" rx="38.289" fill="#009688"/><path fill-rule="evenodd" clip-rule="evenodd" d="M376.807 197.271v2.56c0 1.414-1.132 2.561-2.527 2.561h-30.319c-1.394 0-2.526-1.147-2.526-2.561v-2.601c0-7.747 8.737-12.781 17.686-12.781s17.686 5.036 17.686 12.781m-11.343-35.272a8.972 8.972 0 1 1-12.687 12.685 8.972 8.972 0 0 1 12.687-12.685z" fill="#fff"/><rect x="420.467" y="155.423" width="166.948" height="8.595" rx="4.298" fill="#E1E4E5"/><rect x="324.783" y="247.581" width="262.33" height="8.063" rx="4.032" fill="#E1E4E5"/><rect x="324.783" y="339.733" width="262.33" height="8.063" rx="4.032" fill="#E1E4E5"/><rect x="324.783" y="431.884" width="262.33" height="8.063" rx="4.032" fill="#E1E4E5"/><rect x="420.466" y="176.521" width="166.948" height="8.595" rx="4.298" fill="#E1E4E5"/><rect x="324.783" y="268.315" width="262.33" height="9.215" rx="4.608" fill="#E1E4E5"/><rect x="324.783" y="360.467" width="262.33" height="9.215" rx="4.608" fill="#E1E4E5"/><rect x="324.783" y="452.618" width="262.33" height="9.215" rx="4.608" fill="#E1E4E5"/><rect x="420.466" y="197.618" width="166.948" height="8.595" rx="4.298" fill="#E1E4E5"/><rect x="324.783" y="290.201" width="262.33" height="8.063" rx="4.032" fill="#E1E4E5"/><rect x="324.783" y="382.353" width="262.33" height="8.063" rx="4.032" fill="#E1E4E5"/><rect x="324.783" y="474.504" width="262.33" height="8.063" rx="4.032" fill="#E1E4E5"/><defs><linearGradient id="a" x1="553.746" y1="536.023" x2="684.044" y2="474.465" gradientUnits="userSpaceOnUse"><stop stop-color="#fff"/><stop offset="1" stop-color="#EEE"/></linearGradient><linearGradient id="b" x1="612.14" y1="44.966" x2="779.115" y2="137.019" gradientUnits="userSpaceOnUse"><stop stop-color="#fff"/><stop offset="1" stop-color="#EEE"/></linearGradient><linearGradient id="c" x1="144.847" y1="377.898" x2="226.184" y2="250.395" gradientUnits="userSpaceOnUse"><stop stop-color="#fff"/><stop offset="1" stop-color="#EEE"/></linearGradient></defs></svg>