<svg width="900" height="600" viewBox="0 0 900 600" fill="none" xmlns="http://www.w3.org/2000/svg"><path fill="transparent" d="M0 0h900v600H0z"/><path d="M145.224 184.053H398.11M266.055 316.112H518.94M266.056 436.939V184.054m132.053 132.057V63.226" stroke="#E1E4E5" stroke-width="4" stroke-linecap="round" stroke-linejoin="round"/><path clip-rule="evenodd" d="M332.082 448.165c109.398 0 198.083-88.685 198.083-198.083C530.165 140.685 441.48 52 332.082 52 222.685 52 134 140.685 134 250.082c0 109.398 88.685 198.083 198.082 198.083z" stroke="#E1E4E5" stroke-width="4" stroke-linecap="round" stroke-linejoin="round"/><path d="M746.859 318.23H397.141c-10.357 0-18.141-6.996-18.141-14.926V119.157c0-7.931 7.784-14.927 18.141-14.927h349.718c10.357 0 18.141 6.996 18.141 14.927v184.147c0 7.93-7.784 14.926-18.141 14.926z" fill="#fff" stroke="#E1E4E5" stroke-width="4"/><path fill-rule="evenodd" clip-rule="evenodd" d="M410.59 166.214v68.594c0 3.724 2.981 6.739 6.663 6.739h40.378l17.625-25.124c.841-1.198 2.942-1.198 3.782 0l6.171 8.798.048.068.042-.06 13.234-19.216c.915-1.33 3.209-1.33 4.124 0l17.527 25.452v-65.251c0-3.723-2.989-6.738-6.663-6.738h-96.268c-3.682 0-6.663 3.015-6.663 6.738z" fill="#009688"/><path d="M441.497 206.195c-6.429 0-11.641-5.212-11.641-11.641s5.212-11.641 11.641-11.641 11.641 5.212 11.641 11.641-5.212 11.641-11.641 11.641z" fill="#fff"/><path d="M765 127.465H379v-5.324c0-10.017 8.124-18.141 18.141-18.141h349.718c10.017 0 18.141 8.124 18.141 18.141v5.324z" fill="#fff" stroke="#E1E4E5" stroke-width="4"/><path d="M397.178 120.941a4.325 4.325 0 1 0 0-8.65 4.325 4.325 0 0 0 0 8.65zm18.023 0a4.325 4.325 0 1 0 0-8.65 4.325 4.325 0 0 0 0 8.65zm17.302 0a4.325 4.325 0 1 0 0-8.65 4.325 4.325 0 0 0 0 8.65z" fill="#E1E4E5"/><rect x="537.485" y="159.476" width="196.314" height="14.182" rx="7.091" fill="#E1E4E5"/><rect x="537.485" y="192.32" width="196.314" height="14.182" rx="7.091" fill="#E1E4E5"/><rect x="537" y="225" width="186" height="14" rx="7" fill="#E1E4E5"/><rect x="537.485" y="258.006" width="196.314" height="14.182" rx="7.091" fill="#E1E4E5"/><path d="M292.821 146.397c-.669 2.676.219 5.458 1.683 7.796 1.035 1.651 2.482-.172 4.592-.464 3.264-.458 5.33-3.912 6.036-12.329.327-6.147.173-9.214-.169-9.751-1.219-1.921-4.355-2.563-6.827-2.378" fill="#133835"/><path fill-rule="evenodd" clip-rule="evenodd" d="M298.747 512.207s-.198 12.639 7.603 17.128c7.801 4.49 19.887 12.833 19.887 12.833l-45.977 1.55 1.311-31.625 17.176.114z" fill="#F8AE9D"/><path fill-rule="evenodd" clip-rule="evenodd" d="m278.655 526.135-.748 20.504h10.68l.732-2.641s4.02-.165 6.344.976c2.456 1.207 2.785 1.792 2.785 1.792l33.875.071s1.671-6.627-8.655-11.42c-10.326-4.795-17.844-11.599-19.272-12.296-1.439-.701-4.341-1.098-6.385.551-2.044 1.647-3.66 5.981-8.292 6.117-5.961.175-9.385-7.122-11.064-3.654zm-13.202-220.207s12.549 106.48 12.939 113.882c.39 7.402-4.03 20.176-3.944 34.022.086 13.845 1.614 62.644 1.614 62.644l27.682.451s11.634-88.182 11.76-101.405c.125-13.223 1.192-108.322 1.192-108.322l-51.243-1.272z" fill="#133835"/><path fill-rule="evenodd" clip-rule="evenodd" d="m231.592 509.986-5.395 32.762 19.888-.1.629-33.176-15.122.514z" fill="#F8AE9D"/><path fill-rule="evenodd" clip-rule="evenodd" d="M228.235 524.421a2.746 2.746 0 0 0-2.162 2.594l-.202 6.125c-2.853 3.172-4.179 12.419-4.288 13.205a.622.622 0 0 0-.005.114c.263 4.504 29.855 4.418 32.127.133a.62.62 0 0 0 .051-.401c-.244-1.513-1.862-10.846-5.049-13.346l-.023-6.057a2.745 2.745 0 0 0-2.033-2.641l-4.171-1.122c-2.907-4.252-6.869-4.101-10.264.531l-3.981.865zm13.121-217.49s-8.863 72.648-8.742 86.56c.12 13.913 2.727 20.023-.983 30.003-3.711 9.98-6.876 89.64-6.876 89.64l27.44 2.286s17.53-85.241 19.436-97.059c1.907-11.819 25.467-112.433 25.467-112.433l-55.742 1.003z" fill="#133835"/><path fill-rule="evenodd" clip-rule="evenodd" d="M378.186 176.309s-2.291-12.768-1.467-15.353c.703-2.235 7.354-5.457 7.354-5.457s11.567-18.273 14.098-16.412c2.06 1.508-6.024 14.98-6.024 14.98s7.372 7.733 7.269 11.19c-.103 3.457-12.031 14.279-12.031 14.279l-9.199-3.227zm-118.885 3s7.618-1.789 7.882-14.271c.265-12.483.079-16.744.079-16.744l18.061-.303s.182 13.912.185 18.944c.007 10.955 8.143 13.915 8.143 13.915s-.676 11.978-15.881 12.833c-11.872.668-18.469-14.374-18.469-14.374z" fill="#F8AE9D"/><path fill-rule="evenodd" clip-rule="evenodd" d="M265.604 141.985c-7.486-.29-6.265 10.668 1.511 10.654 0 0 8.358 16.803 21.478 16.847 6.32.021 8.384-5.609 10.278-9.561 1.895-3.952 3.285-9.863 3.401-13.483.124-3.859.14-16.537.14-16.537l-37.1-.017.292 12.097z" fill="#F8AE9D"/><path fill-rule="evenodd" clip-rule="evenodd" d="M293.936 180.106s19.461 6.075 24.147 13.332c15.103 13.268 33.991 31.489 33.991 31.489s17.992-45.155 23.873-50.304c4.025-3.522 12.043.834 13.537 5.31 1.919 5.749-10.403 39.473-16.223 55.4-1.127 3.086-2.011 5.503-2.499 6.92-3.549 10.296-12.184 16.201-22.691 9.657-4.235-2.638-16.839-11.281-27.593-19.116-.168 8.232-.451 16.906-.72 25.144-.654 20.015-1.224 37.457.145 39.723 6.783 11.234-2.235 18.945-32.092 21.779-29.857 2.833-56.345.513-51.539-14.478 1.002-3.125.99-9.848.49-18.583a354.97 354.97 0 0 1-8.769-.578c-12.461-.982-21.676-6.336-22.961-20.242-.901-9.737 17.651-55.451 24.607-70.483 1.627-3.517 4.144-5.707 6.994-6.799.664-.74 1.411-1.26 2.251-1.537 5.11-1.684 23.431-9.381 23.431-9.381l21.794 14.259 9.827-11.512zm-59.193 80.469-.049.128.061.008a70.69 70.69 0 0 1-.012-.136z" fill="#009688"/><path fill-rule="evenodd" clip-rule="evenodd" d="M283.101 272.641s6.647-1.336 9.368-3.472c2.72-2.136 10.959-3.645 10.959-3.645l-2.636 5.55s20.193-1.895 20.671.097c.479 1.992-5.362 4.158-5.362 4.158s-2.88 5.379-5.668 8.498c-2.638 2.951-15.745 2.6-20.34.758-3.97-1.591-8.287-.796-8.287-.796l1.295-11.148z" fill="#F8AE9D"/><path d="M267.638 130.405c1.094 1.431 3.022 1.747 4.611 2.03 2.136.38 3.192 1.173 4.301 3.3.702 1.36 1.404 2.848 2.66 3.584 1.023.602.992-.922 1.144-2.099a2.664 2.664 0 0 1 .064-.327c.244-.942 1.244-.784 1.533.145.267.841.836 1.553 1.56 1.949.118.065.244.122.369.098.17-.025.303-.187.414-.332.23-.303.46-.687.696-1.094.782-1.344 2.273-.872 3.146.414.547.801 1.198 1.626 2.092 1.812.288.065.65.017.783-.267.17-.347-.096-.695-.052-1.051.037-.332.178-.477.333-.761.605-1.092 2.008-1.132 2.863-.221a31.954 31.954 0 0 0 1.859 1.823c.273.243.672.486.946.243.147-.13.184-.348.214-.558.155-1.028.303-2.055.458-3.082.089-.575.392-1.327.909-1.182.251.073.399.34.539.583.17.307 3.207 3.81 3.267 3.543.472-1.99 1.44-3.802 1.913-5.792 3.06-12.806-10.515-23.104-20.882-23.16-2.306-.016-4.412.022-6.651.564-2.387.582-4.907 1.507-7.072 2.809-3.037 1.82-5.335 5.129-4.744 9.077" fill="#133835"/><path d="M276.068 126.265c1.462 1.672 1.849 4.025 1.985 6.247.201 3.351-.071 6.833-1.605 9.808-.437.847-.76 5.038-1.433 4.807-.215-.073-.179-3.323-.745-5.075-.875-2.714-4.902-3.749-6.715-2.034-2.896 2.729-1.197 6.044-.237 8.107.573 1.245 1.484 2.643 1.641 3.96.194 1.686.251 7.832-.838 9.265-.91 1.202-1.878-4.603-2.702-5.747-6.098-8.52-11.946-30.214-1.533-34.919 1.583-.716 6.471-1.085 7.954-.173" fill="#133835"/><path fill-rule="evenodd" clip-rule="evenodd" d="M547.442 363.413h3.302c.799 0 1.441.65 1.441 1.441v3.303c0 .798-.649 1.441-1.441 1.441h-3.302a1.447 1.447 0 0 1-1.442-1.441v-3.303a1.438 1.438 0 0 1 1.442-1.441zm11.449 0h3.303c.792 0 1.441.65 1.441 1.441v3.303c0 .798-.649 1.441-1.441 1.441h-3.303a1.446 1.446 0 0 1-1.441-1.441v-3.303c0-.791.65-1.441 1.441-1.441zm11.458 0h3.302c.792 0 1.442.65 1.442 1.441v3.303c0 .798-.65 1.441-1.442 1.441h-3.302a1.447 1.447 0 0 1-1.442-1.441v-3.303a1.44 1.44 0 0 1 1.442-1.441zm11.45 0h3.302c.792 0 1.441.65 1.441 1.441v3.303c0 .798-.649 1.441-1.441 1.441h-3.302a1.448 1.448 0 0 1-1.449-1.441v-3.303a1.458 1.458 0 0 1 1.449-1.441zm11.45 0h3.303c.798 0 1.448.649 1.448 1.441v3.302c0 .799-.65 1.442-1.448 1.442h-3.303c-.791 0-1.441-.65-1.441-1.442v-3.302c0-.792.65-1.441 1.441-1.441zm-33.938 12.486h3.303c.792 0 1.441.649 1.441 1.441v3.309c0 .792-.649 1.442-1.441 1.442h-3.303c-.798 0-1.441-.65-1.441-1.442v-3.302a1.44 1.44 0 0 1 1.441-1.448zm11.45 0h3.303c.791 0 1.441.649 1.441 1.441v3.309c0 .792-.65 1.442-1.441 1.442h-3.303c-.792 0-1.441-.65-1.441-1.442v-3.302a1.44 1.44 0 0 1 1.441-1.448zm11.451 0h3.302c.799 0 1.449.649 1.449 1.441v3.309a1.45 1.45 0 0 1-1.449 1.442h-3.302c-.792 0-1.442-.65-1.442-1.442v-3.302c0-.799.65-1.448 1.442-1.448zM570.349 350h3.302c.792 0 1.442.65 1.442 1.441v3.303c0 .798-.65 1.441-1.442 1.441h-3.302a1.447 1.447 0 0 1-1.442-1.441v-3.303a1.44 1.44 0 0 1 1.442-1.441zm11.45 0h3.302c.792 0 1.441.65 1.441 1.441v3.303c0 .798-.649 1.441-1.441 1.441h-3.302a1.448 1.448 0 0 1-1.449-1.441v-3.303a1.458 1.458 0 0 1 1.449-1.441z" fill="#E1E4E5"/><path d="M595.349 466.626c7.655-5.243 8.412-17.46 8.412-17.46s-11.657-3.708-19.31 1.541c-7.656 5.243-8.415 17.453-8.415 17.453s11.657 3.709 19.313-1.534z" fill="#E1E4E5"/><circle cx="441.166" cy="355.166" r="7.166" transform="rotate(180 441.166 355.166)" fill="#009688"/><circle r="12.204" transform="matrix(-1 0 0 1 642.204 355.204)" fill="#009688"/><circle r="9.772" transform="matrix(-1 0 0 1 722.772 359.772)" fill="#E1E4E5"/><circle r="10.412" transform="matrix(-1 0 0 1 447.414 510.63)" fill="#E1E4E5"/><circle r="8.351" transform="matrix(-1 0 0 1 174.578 268.523)" fill="#E1E4E5"/><circle r="12.747" transform="matrix(-1 0 0 1 710.747 70.747)" fill="#E1E4E5"/><circle r="11.092" transform="matrix(-1 0 0 1 382.092 380.092)" fill="#E1E4E5"/><ellipse rx="8.532" ry="6.826" transform="matrix(-1 0 0 1 683.532 397.826)" fill="#E1E4E5"/><ellipse rx="13.887" ry="10.964" transform="scale(-1 1) rotate(26.006 -1147.079 -869.256)" fill="#E1E4E5"/><circle r="16.147" transform="scale(1 -1) rotate(-75 211.92 -370.323)" fill="#E1E4E5"/><path d="M375.371 468.088h.223c1.322 18.727 15.249 19.016 15.249 19.016s-15.358.3-15.358 21.939c0-21.639-15.358-21.939-15.358-21.939s13.922-.289 15.244-19.016z" fill="#E1E4E5"/></svg>