<svg width="900" height="600" viewBox="0 0 900 600" fill="none" xmlns="http://www.w3.org/2000/svg"><path fill="transparent" d="M0 0h900v600H0z"/><path fill-rule="evenodd" clip-rule="evenodd" d="M391.443 403.666v-26.649h33.32l28.287-28.287 39.049 16.584c14.153 6.012 30.53 2.827 41.385-8.047l55.463-55.463c10.875-10.874 14.041-27.251 8.048-41.386l-28.307-66.639a37.665 37.665 0 0 0-19.958-19.957l-66.638-28.307a37.67 37.67 0 0 0-41.386 8.047l-55.463 55.464c-10.855 10.855-14.04 27.232-8.029 41.385l16.151 38.05-113.527 113.527v59.968h59.967l24.99-24.99v-33.319h26.648v.019z" fill="#009688"/><path fill-rule="evenodd" clip-rule="evenodd" d="M484.648 221.327c-16.908.071-30.633 13.795-30.562 30.703 0 16.908 13.795 30.632 30.703 30.562 16.908 0 30.632-13.725 30.632-30.633s-13.724-30.632-30.632-30.632" fill="#fff"/><path fill-rule="evenodd" clip-rule="evenodd" d="M587.471 393.045h6.003a2.623 2.623 0 0 1 2.621 2.621v6.003a2.623 2.623 0 0 1-2.621 2.62h-6.003a2.63 2.63 0 0 1-2.62-2.62v-6.003c-.012-1.44 1.169-2.621 2.62-2.621zm20.813 0h6.003a2.63 2.63 0 0 1 2.621 2.621v6.003a2.623 2.623 0 0 1-2.621 2.62h-6.003a2.63 2.63 0 0 1-2.62-2.62v-6.003a2.63 2.63 0 0 1 2.62-2.621zm20.828 0h6.003a2.63 2.63 0 0 1 2.62 2.621v6.003c0 1.451-1.18 2.62-2.62 2.62h-6.003a2.63 2.63 0 0 1-2.62-2.62v-6.003c-.013-1.44 1.168-2.621 2.62-2.621zm20.813 0h6.003a2.63 2.63 0 0 1 2.621 2.621v6.003a2.623 2.623 0 0 1-2.621 2.62h-6.003a2.633 2.633 0 0 1-2.632-2.62v-6.003c.012-1.44 1.193-2.621 2.632-2.621zm20.815 0h6.004a2.633 2.633 0 0 1 2.632 2.621v6.003a2.625 2.625 0 0 1-2.632 2.62h-6.004a2.63 2.63 0 0 1-2.62-2.62v-6.003a2.63 2.63 0 0 1 2.62-2.621zm-61.692 22.697h6.003a2.63 2.63 0 0 1 2.62 2.62v6.016a2.63 2.63 0 0 1-2.62 2.62h-6.003a2.622 2.622 0 0 1-2.62-2.62v-6.003a2.616 2.616 0 0 1 2.62-2.633zm20.813 0h6.003a2.63 2.63 0 0 1 2.621 2.62v6.016a2.63 2.63 0 0 1-2.621 2.62h-6.003a2.63 2.63 0 0 1-2.62-2.62v-6.003a2.618 2.618 0 0 1 2.62-2.633zm20.815 0h6.003a2.633 2.633 0 0 1 2.633 2.62v6.016a2.633 2.633 0 0 1-2.633 2.62h-6.003a2.63 2.63 0 0 1-2.62-2.62v-6.003a2.633 2.633 0 0 1 2.62-2.633zm-21.564-47.078h6.003c1.44 0 2.62 1.18 2.62 2.62v6.003c0 1.452-1.18 2.62-2.62 2.62h-6.003a2.63 2.63 0 0 1-2.62-2.62v-6.003c-.013-1.44 1.168-2.62 2.62-2.62zm20.813 0h6.003a2.63 2.63 0 0 1 2.621 2.62v6.003a2.622 2.622 0 0 1-2.621 2.62h-6.003a2.633 2.633 0 0 1-2.632-2.62v-6.003a2.648 2.648 0 0 1 2.632-2.62z" fill="#E1E4E5"/><path d="M707.292 323.186c-22.937 5.434-47.197-14.018-47.197-14.018s12.946-28.252 35.891-33.669c22.937-5.434 47.189 14.002 47.189 14.002s-12.946 28.251-35.883 33.685z" fill="url(#a)"/><path d="M150.615 376.534c-22.937 5.434-47.197-14.018-47.197-14.018s12.946-28.252 35.891-33.669c22.937-5.434 47.189 14.002 47.189 14.002s-12.946 28.252-35.883 33.685z" fill="url(#b)"/><path d="M324.429 168.871c28.74-5.81 46.011-40.42 46.011-40.42s-29.341-25.17-58.081-19.337c-28.74 5.81-46.011 40.397-46.011 40.397s29.34 25.17 58.081 19.36z" fill="url(#c)"/><ellipse cx="687.807" cy="209.832" rx="19.455" ry="18.609" transform="rotate(180 687.807 209.832)" fill="#009688"/><circle cx="394.194" cy="493.56" r="16.937" transform="rotate(180 394.194 493.56)" fill="#009688"/><circle r="9.305" transform="matrix(-1 0 0 1 244.686 219.083)" fill="#009688"/><ellipse rx="15.077" ry="14.497" transform="matrix(-1 0 0 1 508.883 475.94)" fill="#E1E4E5"/><circle r="9.914" transform="matrix(-1 0 0 1 279.314 302.034)" fill="#E1E4E5"/><ellipse rx="8.698" ry="9.278" transform="matrix(-1 0 0 1 598.763 518.27)" fill="#E1E4E5"/><circle r="8.459" transform="matrix(-1 0 0 1 514.447 80.228)" fill="#E1E4E5"/><circle r="8.266" transform="scale(1 -1) rotate(-75 -170.048 -353.254)" fill="#E1E4E5"/><circle r="17.203" transform="scale(1 -1) rotate(-75 215.963 -456.777)" fill="#E1E4E5"/><defs><linearGradient id="a" x1="620.917" y1="336.696" x2="821.707" y2="241.836" gradientUnits="userSpaceOnUse"><stop stop-color="#fff"/><stop offset="1" stop-color="#EEE"/></linearGradient><linearGradient id="b" x1="64.24" y1="390.045" x2="265.031" y2="295.184" gradientUnits="userSpaceOnUse"><stop stop-color="#fff"/><stop offset="1" stop-color="#EEE"/></linearGradient><linearGradient id="c" x1="429.036" y1="139.139" x2="152.808" y2="136.577" gradientUnits="userSpaceOnUse"><stop stop-color="#fff"/><stop offset="1" stop-color="#EEE"/></linearGradient></defs></svg>