<svg width="900" height="600" viewBox="0 0 900 600" fill="none" xmlns="http://www.w3.org/2000/svg"><path fill="transparent" d="M0 0h900v600H0z"/><path fill-rule="evenodd" clip-rule="evenodd" d="M104.75 461.059s88.449-113.449 212.727-115.042C442.32 344.416 541.642 457.175 550.792 463l-446.042-1.941z" fill="#fff" stroke="#E1E4E5" stroke-width="4"/><path fill-rule="evenodd" clip-rule="evenodd" d="M348.541 461.059S436.99 347.61 561.269 346.017C686.111 344.416 785.434 457.175 794.583 463l-446.042-1.941z" fill="#fff" stroke="#E1E4E5" stroke-width="4"/><path fill-rule="evenodd" clip-rule="evenodd" d="M249.058 461.059s88.449-113.449 212.728-115.042C586.628 344.416 685.95 457.175 695.1 463l-446.042-1.941z" fill="#fff" stroke="#E1E4E5" stroke-width="4"/><path fill-rule="evenodd" clip-rule="evenodd" d="M209.701 461.228v-23.046 23.046z" fill="#fff"/><path d="M209.701 461.228v-23.046" stroke="#E1E4E5" stroke-width="4"/><path fill-rule="evenodd" clip-rule="evenodd" d="M334.331 461.228v-23.046 23.046z" fill="#fff"/><path d="M334.331 461.228v-23.046" stroke="#E1E4E5" stroke-width="4"/><path fill-rule="evenodd" clip-rule="evenodd" d="M548.605 461.228v-23.046 23.046z" fill="#fff"/><path d="M548.605 461.228v-23.046" stroke="#E1E4E5" stroke-width="4"/><path fill-rule="evenodd" clip-rule="evenodd" d="M225.007 461.227v-15.954 15.954z" fill="#fff"/><path d="M225.007 461.227v-15.954" stroke="#E1E4E5" stroke-width="4"/><path fill-rule="evenodd" clip-rule="evenodd" d="M348.541 461.227v-15.954 15.954z" fill="#fff"/><path d="M348.541 461.227v-15.954" stroke="#E1E4E5" stroke-width="4"/><path fill-rule="evenodd" clip-rule="evenodd" d="M563.91 461.227v-15.954 15.954z" fill="#fff"/><path d="M563.91 461.227v-15.954" stroke="#E1E4E5" stroke-width="4"/><path fill-rule="evenodd" clip-rule="evenodd" d="M194.395 461.227v-15.954 15.954z" fill="#fff"/><path d="M194.395 461.227v-15.954" stroke="#E1E4E5" stroke-width="4"/><path fill-rule="evenodd" clip-rule="evenodd" d="M319.025 461.227v-15.954 15.954z" fill="#fff"/><path d="M319.025 461.227v-15.954" stroke="#E1E4E5" stroke-width="4"/><path fill-rule="evenodd" clip-rule="evenodd" d="M533.299 461.227v-15.954 15.954z" fill="#fff"/><path d="M533.299 461.227v-15.954" stroke="#E1E4E5" stroke-width="4"/><path fill-rule="evenodd" clip-rule="evenodd" d="M74 479.368s96.441-76.285 231.95-77.357c136.123-1.076 244.42 74.746 254.396 78.663L74 479.368z" fill="#fff" stroke="#E1E4E5" stroke-width="4"/><path fill-rule="evenodd" clip-rule="evenodd" d="M339.82 479.368s96.441-76.285 231.95-77.357c136.123-1.076 244.42 74.746 254.396 78.663l-486.346-1.306z" fill="#fff" stroke="#E1E4E5" stroke-width="4"/><path fill-rule="evenodd" clip-rule="evenodd" d="M231.348 479.368s96.441-76.285 231.949-77.357c136.123-1.076 244.42 74.746 254.397 78.663l-486.346-1.306z" fill="#fff" stroke="#E1E4E5" stroke-width="4"/><path fill-rule="evenodd" clip-rule="evenodd" d="M188.435 479.482v-15.497 15.497z" fill="#fff"/><path d="M188.435 479.482v-15.497" stroke="#E1E4E5" stroke-width="4"/><path fill-rule="evenodd" clip-rule="evenodd" d="M324.326 479.482v-15.497 15.497z" fill="#fff"/><path d="M324.326 479.482v-15.497" stroke="#E1E4E5" stroke-width="4"/><path fill-rule="evenodd" clip-rule="evenodd" d="M557.961 479.482v-15.497 15.497z" fill="#fff"/><path d="M557.961 479.482v-15.497" stroke="#E1E4E5" stroke-width="4"/><path fill-rule="evenodd" clip-rule="evenodd" d="M205.124 479.482v-10.729 10.729z" fill="#fff"/><path d="M205.124 479.482v-10.729" stroke="#E1E4E5" stroke-width="4"/><path fill-rule="evenodd" clip-rule="evenodd" d="M339.82 479.482v-10.729 10.729z" fill="#fff"/><path d="M339.82 479.482v-10.729" stroke="#E1E4E5" stroke-width="4"/><path fill-rule="evenodd" clip-rule="evenodd" d="M574.65 479.482v-10.729 10.729z" fill="#fff"/><path d="M574.65 479.482v-10.729" stroke="#E1E4E5" stroke-width="4"/><path fill-rule="evenodd" clip-rule="evenodd" d="M171.746 479.482v-10.729 10.729z" fill="#fff"/><path d="M171.746 479.482v-10.729" stroke="#E1E4E5" stroke-width="4"/><path fill-rule="evenodd" clip-rule="evenodd" d="M307.637 479.482v-10.729 10.729z" fill="#fff"/><path d="M307.637 479.482v-10.729" stroke="#E1E4E5" stroke-width="4"/><path fill-rule="evenodd" clip-rule="evenodd" d="M541.273 479.482v-10.729 10.729z" fill="#fff"/><path d="M541.273 479.482v-10.729" stroke="#E1E4E5" stroke-width="4"/><path d="M293.603 516.87c-1.641-.81-2.673-2.59-2.534-4.365.144-1.919 1.454-3.578 3.31-4.114.51-.147 1.051-.201 1.584-.259 3.188-.361 6.382-.664 9.517-1.41 1.386-.335 2.75-.111 3.98.672 1.627 1.038 2.351 2.563 2.15 4.441-.207 1.887-1.312 3.18-3.092 3.854a4.902 4.902 0 0 1-1.037.264c-3.659.54-7.313 1.138-11.007 1.414-1.01.076-1.967-.045-2.871-.497zm14.746 13.036c-.685 1.413-1.852 2.361-3.31 2.727-3.587.889-7.21 1.715-10.917 1.862-3.386.129-5.643-3.047-4.533-6.204.635-1.807 2.031-2.831 3.896-3.027 2.406-.25 4.74-.781 7.115-1.169.756-.125 1.458-.389 2.178-.621a4.609 4.609 0 0 1 4.968 1.423 4.569 4.569 0 0 1 .603 5.009zm10.476-9.451c.604-1.23 1.58-2.016 2.881-2.405a61.004 61.004 0 0 1 5.962-1.456c.917-.179 1.793-.434 2.643-.858a4.953 4.953 0 0 1 6.797 2.528c1.064 2.568-.212 5.385-2.909 6.395-.371.138-.76.268-1.154.339-2.978.523-5.93 1.193-8.873 1.889-1.825.429-3.448.008-4.718-1.432-1.238-1.414-1.466-3.305-.629-5zm5.158 12.465c1.962 1.038 2.736 2.622 2.762 4.581.026 1.936-.855 3.429-2.559 4.377a7.957 7.957 0 0 1-1.991.76c-2.428.585-4.843 1.188-7.272 1.773-1.547.366-3.028.196-4.306-.824-1.404-1.127-2.008-2.626-1.681-4.397.341-1.864 1.495-3.121 3.315-3.675 1.409-.424 2.836-.773 4.276-1.103 1.087-.25 2.102-.559 3.055-1.234 1.413-1.014 2.996-.938 4.401-.258zm28.874 5.089c-.483.988-1.207 1.766-2.214 2.235-.568.264-1.145.501-1.744.648-2.031.505-4.043 1.064-6.056 1.622-3.05.844-5.84-1.111-6.005-4.134-.102-1.896.963-3.6 2.823-4.458 1.382-.639 2.854-1.01 4.325-1.358.787-.188 1.517-.438 2.219-.858 1.901-1.14 4.043-.862 5.657.65 1.529 1.436 1.935 3.73.995 5.653zm-85.916-24.55c.537-.984 1.258-1.686 2.215-2.124.653-.299 1.333-.518 2.048-.585 1.901-.178 3.811-.419 5.72-.504 3.462-.146 5.818 2.922 4.725 6.155-.568 1.695-1.838 2.692-3.578 3.04-.559.112-1.149.107-1.722.179-1.543.178-3.099.249-4.642.495-1.825.295-3.341-.386-4.405-1.902-1.077-1.512-1.099-3.144-.361-4.754zM320.8 494.83c1.816.931 2.772 2.595 2.633 4.437-.153 1.981-1.195 3.305-3.02 4.024a3.942 3.942 0 0 1-1.292.304c-1.695.08-3.381.142-5.072.146-.952.004-1.838-.304-2.629-.868-1.565-1.141-2.267-3.002-1.81-4.831.47-1.855 1.933-3.282 3.811-3.46 1.856-.178 3.735-.178 5.599-.217a3.389 3.389 0 0 1 1.78.465zm341.566-116.379c-.718-.428-1.123-1.276-.995-2.079a2.116 2.116 0 0 1 1.655-1.752c.238-.049.486-.053.73-.06 1.465-.049 2.929-.071 4.383-.297a2.294 2.294 0 0 1 1.787.45c.703.531.977 1.252.817 2.099-.162.852-.712 1.4-1.546 1.642a2.263 2.263 0 0 1-.482.083c-1.685.113-3.369.253-5.061.244-.462-.002-.894-.092-1.288-.33zm6.238 6.467a2.264 2.264 0 0 1-1.605 1.122c-1.665.274-3.344.519-5.036.451-1.546-.064-2.458-1.591-1.838-2.988.354-.799 1.027-1.214 1.882-1.236 1.105-.027 2.186-.184 3.281-.274.349-.03.678-.124 1.014-.204.852-.2 1.704.128 2.21.828.49.68.525 1.576.092 2.301zm5.111-3.921c.319-.538.792-.861 1.398-.99.915-.2 1.838-.341 2.766-.447a4.646 4.646 0 0 0 1.234-.294 2.261 2.261 0 0 1 3.002 1.397c.391 1.207-.291 2.443-1.556 2.805a3.142 3.142 0 0 1-.537.112c-1.375.13-2.742.328-4.107.538-.846.129-1.57-.121-2.095-.823-.513-.688-.547-1.557-.105-2.298zm1.895 5.86c.856.544 1.15 1.292 1.091 2.185-.058.882-.513 1.53-1.323 1.899a3.592 3.592 0 0 1-.934.274c-1.126.178-2.247.365-3.374.543-.717.111-1.385-.02-1.93-.531-.598-.564-.818-1.268-.605-2.062.223-.836.793-1.366 1.642-1.552a29.96 29.96 0 0 1 1.986-.347c.504-.075.977-.178 1.435-.451.68-.41 1.398-.318 2.012.042zm12.957 3.363c-.255.432-.613.76-1.088.937-.268.1-.54.187-.818.232-.942.156-1.878.337-2.815.518-1.418.274-2.617-.717-2.583-2.099.022-.866.569-1.603 1.447-1.926.652-.241 1.335-.356 2.017-.462a3.471 3.471 0 0 0 1.041-.31c.907-.45 1.872-.245 2.551.501.644.709.746 1.768.248 2.609zm-38.212-14.288c.28-.428.633-.722 1.085-.886.308-.113.625-.188.953-.192.872-.013 1.75-.053 2.622-.022 1.581.058 2.542 1.54 1.927 2.972-.32.751-.934 1.159-1.739 1.254-.258.031-.527.007-.79.019-.708.025-1.419.001-2.13.057-.842.068-1.507-.297-1.936-1.025-.436-.728-.386-1.471.008-2.177zm25.188-6.526c.792.489 1.167 1.281 1.037 2.115-.141.896-.663 1.461-1.52 1.722-.191.06-.401.099-.599.091a52.315 52.315 0 0 1-2.314-.117 2.029 2.029 0 0 1-1.165-.491c-.671-.576-.923-1.448-.648-2.264.281-.827.998-1.423 1.86-1.436.851-.014 1.706.054 2.556.104.31.016.595.135.793.276zM279.64 384.529c-1.148-.685-1.797-2.042-1.592-3.327.216-1.389 1.267-2.521 2.65-2.804.38-.078.777-.085 1.168-.097 2.343-.078 4.687-.113 7.014-.475a3.673 3.673 0 0 1 2.86.721c1.125.85 1.564 2.003 1.308 3.359-.26 1.363-1.14 2.24-2.476 2.628a3.607 3.607 0 0 1-.771.132c-2.696.181-5.392.405-8.098.392-.741-.004-1.431-.148-2.063-.529zm9.984 10.35c-.581.99-1.486 1.612-2.569 1.794-2.664.44-5.351.831-8.06.723-2.473-.103-3.933-2.547-2.941-4.782.567-1.279 1.643-1.944 3.013-1.978 1.767-.043 3.498-.294 5.251-.439.557-.048 1.084-.199 1.622-.326a3.368 3.368 0 0 1 3.536 1.325 3.338 3.338 0 0 1 .148 3.683zm8.179-6.276c.511-.86 1.267-1.377 2.238-1.584a44.538 44.538 0 0 1 4.427-.715c.678-.077 1.331-.212 1.975-.472a3.62 3.62 0 0 1 4.804 2.237c.626 1.931-.467 3.909-2.49 4.488-.278.08-.569.151-.86.181-2.2.207-4.389.524-6.573.861-1.354.206-2.512-.195-3.353-1.317-.82-1.102-.876-2.493-.168-3.679zm3.033 9.379c1.37.87 1.841 2.068 1.747 3.496-.093 1.412-.822 2.449-2.118 3.04a5.827 5.827 0 0 1-1.494.438c-1.803.285-3.597.584-5.4.87-1.148.177-2.216-.033-3.089-.85-.957-.903-1.309-2.029-.968-3.3.356-1.339 1.269-2.187 2.627-2.485a48.191 48.191 0 0 1 3.179-.555c.806-.12 1.563-.285 2.296-.722 1.089-.657 2.237-.509 3.22.068zm20.737 5.382c-.41.691-.983 1.216-1.743 1.499-.429.16-.863.299-1.308.371-1.508.25-3.006.54-4.505.83-2.27.438-4.189-1.148-4.134-3.359.036-1.388.91-2.567 2.315-3.084 1.044-.385 2.137-.57 3.229-.738.584-.091 1.13-.231 1.666-.496 1.451-.72 2.995-.394 4.083.801 1.03 1.135 1.193 2.83.397 4.176zm-61.154-22.867c.448-.685 1.013-1.154 1.736-1.418.493-.18 1.001-.3 1.526-.307 1.394-.02 2.799-.085 4.195-.035 2.53.094 4.068 2.466 3.085 4.757-.513 1.201-1.496 1.854-2.783 2.007-.414.048-.844.011-1.265.03-1.134.04-2.272.002-3.41.091-1.346.109-2.41-.475-3.097-1.641-.697-1.164-.619-2.354.013-3.484zm40.31-10.443c1.268.783 1.868 2.05 1.66 3.384-.226 1.434-1.062 2.338-2.433 2.756a2.862 2.862 0 0 1-.959.146 81.357 81.357 0 0 1-3.703-.188c-.694-.052-1.321-.328-1.864-.785-1.074-.921-1.477-2.317-1.038-3.623.45-1.324 1.598-2.278 2.976-2.299 1.363-.022 2.731.087 4.091.166.496.027.953.217 1.27.443zM119.64 484.529c-1.148-.685-1.797-2.042-1.592-3.327.216-1.389 1.267-2.521 2.65-2.804.38-.078.777-.085 1.168-.097 2.343-.078 4.687-.113 7.014-.475a3.673 3.673 0 0 1 2.86.721c1.125.85 1.564 2.003 1.308 3.359-.26 1.363-1.14 2.24-2.476 2.628a3.607 3.607 0 0 1-.771.132c-2.696.181-5.392.405-8.098.392-.741-.004-1.431-.148-2.063-.529zm9.984 10.35c-.581.99-1.486 1.612-2.569 1.794-2.664.44-5.351.831-8.06.723-2.473-.103-3.933-2.547-2.941-4.782.567-1.279 1.643-1.944 3.013-1.978 1.767-.043 3.498-.294 5.251-.439.557-.048 1.084-.199 1.622-.326a3.368 3.368 0 0 1 3.536 1.325 3.338 3.338 0 0 1 .148 3.683zm8.179-6.276c.511-.86 1.267-1.377 2.238-1.584a44.538 44.538 0 0 1 4.427-.715c.678-.077 1.331-.212 1.975-.472a3.62 3.62 0 0 1 4.804 2.237c.626 1.931-.467 3.909-2.49 4.488-.278.08-.569.151-.86.181-2.2.207-4.389.524-6.573.861-1.354.206-2.512-.195-3.353-1.317-.82-1.102-.876-2.493-.168-3.679zm3.033 9.379c1.37.87 1.841 2.068 1.747 3.496-.093 1.412-.822 2.449-2.118 3.04a5.827 5.827 0 0 1-1.494.438c-1.803.285-3.597.584-5.4.87-1.148.177-2.216-.033-3.089-.85-.957-.903-1.309-2.029-.968-3.3.356-1.339 1.269-2.187 2.627-2.485a48.191 48.191 0 0 1 3.179-.555c.806-.12 1.563-.285 2.296-.722 1.089-.657 2.237-.509 3.22.068zm20.737 5.382c-.41.691-.983 1.216-1.743 1.499-.429.16-.863.299-1.308.371-1.508.25-3.006.54-4.505.83-2.27.438-4.189-1.148-4.134-3.359.036-1.388.91-2.567 2.315-3.084 1.044-.385 2.137-.57 3.229-.738.584-.091 1.13-.231 1.666-.496 1.451-.72 2.995-.394 4.083.801 1.03 1.135 1.193 2.83.397 4.176zm-61.154-22.867c.448-.685 1.013-1.154 1.736-1.418.493-.18 1.001-.3 1.526-.307 1.394-.02 2.799-.085 4.195-.035 2.53.094 4.068 2.466 3.085 4.757-.513 1.201-1.496 1.854-2.783 2.007-.414.048-.844.011-1.265.03-1.134.04-2.272.002-3.41.091-1.346.109-2.41-.475-3.097-1.641-.697-1.164-.619-2.354.013-3.484zm40.31-10.443c1.268.783 1.868 2.05 1.66 3.384-.226 1.434-1.062 2.338-2.433 2.756a2.862 2.862 0 0 1-.959.146 81.357 81.357 0 0 1-3.703-.188c-.694-.052-1.321-.328-1.864-.785-1.074-.921-1.477-2.317-1.038-3.623.45-1.324 1.598-2.278 2.976-2.299 1.363-.022 2.731.087 4.091.166.496.027.953.217 1.27.443zm589.373 40.226c-1.57-.639-2.643-2.216-2.632-3.865.006-1.783 1.107-3.402 2.786-4.021.461-.17.958-.255 1.446-.344 2.922-.546 5.852-1.038 8.7-1.935 1.258-.402 2.533-.285 3.722.357 1.572.851 2.342 2.212 2.281 3.961-.066 1.757-1.001 3.024-2.601 3.766a4.48 4.48 0 0 1-.941.312c-3.344.742-6.681 1.537-10.076 2.038-.928.137-1.821.089-2.685-.269zm14.489 11.066c-.539 1.351-1.555 2.304-2.877 2.74-3.256 1.059-6.548 2.063-9.964 2.444-3.119.344-5.416-2.441-4.6-5.431.467-1.712 1.689-2.75 3.399-3.055 2.207-.391 4.328-1.037 6.497-1.553.69-.166 1.321-.456 1.971-.719a4.27 4.27 0 0 1 4.685.986 4.232 4.232 0 0 1 .889 4.588zm9.053-9.428c.476-1.176 1.325-1.968 2.502-2.413a56.058 56.058 0 0 1 5.412-1.741c.835-.226 1.628-.52 2.385-.969a4.589 4.589 0 0 1 6.448 1.886c1.153 2.301.162 4.989-2.263 6.101a6.296 6.296 0 0 1-1.044.39c-2.717.681-5.4 1.496-8.073 2.335-1.658.517-3.185.236-4.454-1.011-1.238-1.224-1.574-2.956-.913-4.578zm5.592 11.175c1.883.829 2.702 2.241 2.857 4.049.152 1.787-.563 3.226-2.075 4.215a7.393 7.393 0 0 1-1.788.834c-2.205.701-4.397 1.419-6.602 2.121-1.405.441-2.784.382-4.033-.476-1.372-.948-2.029-2.293-1.845-3.951.191-1.745 1.174-2.983 2.819-3.615 1.274-.486 2.569-.903 3.877-1.304.988-.303 1.906-.655 2.741-1.342 1.239-1.032 2.707-1.066 4.049-.531zm27.018 2.785c-.381.946-.999 1.713-1.898 2.213-.507.281-1.025.538-1.569.714a216.576 216.576 0 0 0-5.487 1.901c-2.763.982-5.47-.639-5.823-3.421-.221-1.746.65-3.39 2.313-4.307 1.234-.682 2.569-1.122 3.905-1.542.715-.225 1.372-.505 1.993-.94 1.681-1.179 3.679-1.065 5.27.225 1.508 1.226 2.036 3.319 1.296 5.157zm-81.013-16.98c.43-.944 1.049-1.641 1.905-2.109.583-.32 1.197-.567 1.853-.677 1.745-.291 3.493-.64 5.252-.845 3.189-.365 5.569 2.314 4.775 5.374-.413 1.603-1.521 2.609-3.105 3.046-.509.14-1.055.175-1.579.279-1.414.267-2.847.436-4.257.766-1.666.393-3.112-.135-4.195-1.465-1.096-1.326-1.225-2.833-.649-4.369zm48.527-20.788c1.739.74 2.733 2.214 2.727 3.925-.01 1.841-.885 3.133-2.523 3.919-.365.18-.775.321-1.174.366-1.561.187-3.115.356-4.676.472-.88.067-1.719-.159-2.488-.628-1.521-.95-2.293-2.623-1.992-4.343.311-1.746 1.568-3.16 3.291-3.45 1.703-.288 3.439-.412 5.159-.573a3.159 3.159 0 0 1 1.676.312z" fill="#E1E4E5"/><path d="M375.31 483.965c.32-.97.99-1.75 1.5-2.61 3.78-6.47 7.02-13.19 9.5-20.28 1.51-4.31 3-8.63 4.01-13.09.89-3.92 1.66-7.86 2.06-11.87.21-2.08.41-4.15.48-6.24.04-1.12.23-2.24.14-3.36-.17-2.04-.11-4.1-.65-6.1-.1-.37-.2-.75-.35-1.1-.85-2.05-2.76-2.46-4.38-.97-.78.72-1.34 1.6-1.86 2.51-2.41 4.21-4.41 8.62-6.18 13.13-2.72 6.92-5.17 13.94-7.45 21.01-.41 1.28-.81 2.57-1.39 3.84 0-.69-.1-1.4.02-2.07.19-.97.13-1.93.19-2.89.37-5.96.32-11.93.17-17.9-.06-2.38-.28-4.78-.56-7.16-.19-1.61-.33-3.23-.55-4.83-.65-4.63-1.29-9.27-3.02-13.66-.34-.87-.79-1.69-1.45-2.36-1.33-1.37-2.98-1.27-4.19.23-1.17 1.45-1.74 3.19-2.24 4.94-.62 2.2-.94 4.45-1.23 6.72-.49 3.84-.6 7.7-.74 11.57-.09 2.63-.19 5.27-.11 7.9.09 2.94.08 5.89.24 8.83.16 2.94.26 5.87.41 8.81 0 .08-.02.15-.05.33-.4-.65-.45-1.32-.6-1.94-1.85-7.81-4.22-15.46-7.35-22.85-1.94-4.57-4.09-9.04-7.06-13.06-1.2-1.63-2.48-3.19-4.25-4.23-.94-.55-1.93-.98-3.08-.68-1.2.31-1.9 1.13-2.32 2.24-.6 1.59-.75 3.25-.61 4.91.22 2.62.58 5.22 1.09 7.8.93 4.72 2.31 9.31 4 13.81 3.12 8.33 6.7 16.49 10.13 24.71.15.35.39.68.31 1.1.12.02.18.09.18.2 0 .03-.07.06-.11.09-.03-.1-.05-.19-.08-.29-.66-.46-.97-1.2-1.4-1.82-2.35-3.37-4.77-6.68-7.43-9.81-2.59-3.04-5.28-5.99-8.71-8.13-1.22-.76-2.47-1.46-3.98-1.45-1.71.01-2.87.78-3.41 2.43-.35 1.07-.44 2.15-.31 3.3.44 3.8 2.02 7.13 4.03 10.28 2.8 4.38 6.04 8.42 9.51 12.29 3.48 3.88 7.42 7.24 11.49 10.46 3.61 2.86 7.16 5.8 10.73 8.7.96.78 1.94 1.54 2.97 2.23 1.03.7 2.13.87 3.31.54 4.7-1.34 9.32-2.85 13.65-5.17 3.39-1.82 6.54-3.98 9.51-6.43 2.85-2.34 5.59-4.79 8.1-7.49 2.21-2.39 4.29-4.89 5.8-7.8.48-.92.7-1.88.6-2.91-.1-1.04-.89-1.92-1.93-2.02-.88-.08-1.77-.07-2.64.21-2.33.75-4.29 2.14-6.15 3.66-4.13 3.39-8.23 6.81-12.15 10.44-1.16 1.08-2.37 2.11-3.56 3.16-.15.13-.3.25-.5.27-.05.18-.12.33-.32.39-.01.03-.02.06-.04.08-.01.01-.04.01-.06.01.04-.03.08-.05.12-.08-.05-.19.02-.35.2-.48zm295.619 11.05c-4.739 4.739-9.404 9.551-14.246 14.187-1.966 1.878-3.873 3.874-6.193 5.369-.631.396-1.277.689-2.011.805-1.631.247-3.013-.489-3.721-2.018-.619-1.324-.636-2.72-.609-4.13.097-4.393.854-8.742 1.612-13.06 3.161-18.23 9.454-35.354 18.452-51.503a209.815 209.815 0 0 1 8.31-13.726c3.358-5.123 7.524-9.555 11.97-13.706 5.664-5.282 11.814-9.901 18.508-13.799 2.276-1.334 4.713-2.271 7.225-3.046 1.821-.555 2.409-.143 3.44 1.386 2.091 3.119 2.229 6.631 2.44 10.157.528 9.567-.81 18.851-3.999 27.868-2.839 8.019-6.869 15.433-11.795 22.361-2.86 4.007-5.881 7.882-9.02 11.668-5.324 6.354-11.207 12.179-17.047 18.018l-3.227 3.228c-.045-.015-.059-.03-.089-.059zm-35.428-33.745c-1.212 4.891-2.336 9.812-3.651 14.688-.541 1.983-.994 3.995-1.902 5.875a3.929 3.929 0 0 1-.982 1.306c-.969.792-2.13.834-3.174.142-.912-.618-1.472-1.501-1.987-2.427-1.65-2.883-2.83-5.97-4.04-9.057-5.044-12.997-7.651-26.49-8.127-40.405-.153-4.026-.144-8.067.012-12.078.169-4.614 1.132-9.079 2.375-13.5 1.593-5.596 3.759-10.971 6.544-16.08.937-1.732 2.155-3.303 3.46-4.755.954-1.072 1.497-1.027 2.747-.452 2.559 1.209 4.017 3.43 5.519 5.607 4.079 5.957 6.821 12.485 8.257 19.525 1.288 6.276 1.577 12.639 1.101 19.001-.274 3.687-.709 7.36-1.276 11.018-.932 6.17-2.465 12.207-3.955 18.258-.263 1.116-.555 2.233-.833 3.334-.044.015-.073.015-.088 0zm-337.112.001c-1.212 4.891-2.336 9.812-3.651 14.688-.541 1.983-.994 3.995-1.902 5.875a3.929 3.929 0 0 1-.982 1.306c-.969.792-2.13.834-3.174.142-.912-.618-1.472-1.501-1.987-2.427-1.65-2.883-2.83-5.97-4.04-9.057-5.044-12.997-7.651-26.49-8.127-40.405-.153-4.026-.144-8.067.012-12.078.169-4.614 1.132-9.079 2.374-13.5 1.594-5.596 3.76-10.971 6.544-16.08.938-1.732 2.156-3.303 3.461-4.755.954-1.072 1.497-1.027 2.747-.452 2.559 1.209 4.017 3.43 5.519 5.607 4.079 5.957 6.821 12.485 8.257 19.525 1.288 6.276 1.576 12.639 1.101 19.001-.274 3.687-.709 7.36-1.277 11.018-.931 6.17-2.465 12.206-3.954 18.258-.263 1.116-.555 2.233-.833 3.334-.044.015-.073.015-.088 0zm-92.824 21.125c.18-4.01-.04-7.96-.22-11.91-.12-2.59-.28-5.18-.46-7.76-.33-4.76-.47-9.52-.35-14.29.11-4.1.47-8.18 1.04-12.24.85-6.04 2.22-11.94 4.26-17.68 1.91-5.35 4.28-10.47 7.66-15.07 1.71-2.33 3.71-4.37 6.23-5.85 1.38-.81 2.85-1.41 4.46-1.56 2.8-.26 4.97.89 6.61 3.11 1.38 1.89 2.05 4.06 2.48 6.33.58 3.03.61 6.09.47 9.15-.61 13.03-4.21 25.28-9.66 37.06-2.15 4.64-4.54 9.16-6.84 13.73-3.2 6.36-5.58 13.02-7.45 19.87-.94 3.44-1.99 6.84-3.24 10.17-.29.77-.61 1.51-1.07 2.19-.91 1.34-2.09 1.61-3.52.81-.65-.36-1.21-.83-1.66-1.43-.96-1.28-1.83-2.62-2.36-4.12-.49-1.4-1.33-2.5-2.28-3.59-6.89-7.89-12.82-16.43-17.46-25.84-2.54-5.15-4.69-10.46-5.98-16.08-.36-1.55-.67-3.1-.64-4.7 0-.27.01-.54.04-.81.27-2.29 2.06-3.28 4.12-2.25 1.35.67 2.35 1.76 3.3 2.89 2.2 2.62 4.08 5.47 5.89 8.36 4.86 7.75 9.37 15.71 13.29 23.98 1.08 2.28 2.01 4.62 2.92 6.96.08.19.05.46.42.57z" fill="#009688"/><path d="M230.532 509.994c-2.099-.041-3.701-1.035-4.924-2.73-1.109-1.534-1.219-3.243-.797-5.029.387-1.641 1.109-3.117 2.28-4.318 1.047-1.075 2.301-1.817 3.82-1.911.831-.05 1.619.22 2.297.733.356.27.739.499 1.1.76 1.716 1.241 2.834 2.897 3.221 5.024.119.639.031 1.291-.167 1.907-.871 2.717-2.574 4.588-5.311 5.384a4.516 4.516 0 0 1-1.519.18zm502.543-45.999c-1.938-.035-3.417-.887-4.546-2.34-1.024-1.315-1.125-2.78-.735-4.311.357-1.407 1.023-2.671 2.104-3.701.967-.921 2.125-1.557 3.526-1.638a3.342 3.342 0 0 1 2.12.628c.33.232.683.428 1.016.652 1.584 1.064 2.616 2.483 2.974 4.306.109.548.028 1.107-.155 1.635-.804 2.328-2.376 3.932-4.903 4.615a4.483 4.483 0 0 1-1.401.154z" fill="#E1E4E5"/><path d="M592.935 506.38c7.865-2.657 14.682-8.317 18.662-15.576 1.125-2.002 2.043-4.302 1.741-6.578-.077-.464-.195-1.013-.612-1.229-.376-.216-.882-.098-1.305.022-13.137 3.544-27.025 9.517-40.814 8.887-.631-.01-1.261-.061-1.812.183-.677.284-1.107.909-1.412 1.577-1.042 2.172-1.946 6.281-1.605 8.726.419 2.909 3.231 3.33 5.703 3.956 7.041 1.79 14.435 2.407 21.454.032z" fill="#F8AE9D"/><path d="M594.149 490.076c1.059-.447 2.159-.893 3.295-.917 1.137-.025 2.389.583 2.751 1.682.241.761.019 1.557-.287 2.267-.827 1.839-2.28 3.331-3.814 4.654-5.881 4.959-13.414 7.957-21.12 8.429-3.41.201-6.982-.106-9.986-1.708 1.5-1.828 1.203-4.441 1.365-6.752.481-6.766 6.247-4.196 10.875-4.21 5.807-.122 11.587-1.254 16.921-3.445z" fill="#F8AE9D"/><path d="m418.142 440.035-.264.753c-1.848 5.357-3.279 10.888-3.87 16.558-1.083 10.416.961 22.605 8.797 30.17 10.448 10.086 27.209 11.645 40.833 9.244a34.488 34.488 0 0 0 15.29-6.793c4.44 4.021 9.211 8.427 13.181 12.904a100.352 100.352 0 0 0 22.593-11.267c16.627 7.614 33.586 12.752 51.493 16.473a69.55 69.55 0 0 0 4.279-15.836c.139-.882-11.02-8.413-12.308-9.484-3.863-3.256-11.911-10.698-11.911-10.698s10.143-8.638 14.58-12.693a211.319 211.319 0 0 0 13.495-13.257c3.549-3.816 7.018-7.844 9.193-12.606 2.176-4.721 2.975-10.304 1.157-15.211-5.742-15.274-28.918-9.905-39.683-4.642-8.901 4.366-16.696 10.726-24.197 17.175-3.026 2.562-6.011 5.209-8.953 7.815-2.32-2.391-4.881-5.501-7.072-8.016-2.356-2.728-5.052-5.293-8.309-6.899-3.423-1.735-6.582-1.489-10.234-2.007-1.637-.235-3.228-.722-4.822-.999-4.783-.872-9.845.061-14.047 2.521-3.99 2.338-7.229 5.107-11.912 6.003-5.316 1.013-11.491.415-16.822-.297-4.786-.662-9.649-1.745-14.417-.808-1.983.39-2.741 3.155-3.396 4.744-.876 2.3-1.796 4.684-2.674 7.153zm42.243-176.171s-12.872-2.047-16.328 20.676c-3.841 25.261-14.097 21.105-30.383 41.617-9.519 11.986.498 33.153 20.854 32.733 20.355-.409 38.738-6.295 50.447-3.777 11.709 2.518 12.353-27.472.8-36.725-11.554-9.253 13.079-35.824-1.931-47.656-15.01-11.832-23.459-6.868-23.459-6.868z" fill="#133835"/><path d="M383.446 364.062c-1.174-2.413-1.103-5.215-.679-7.83 1.834-11.225 9.7-20.604 18.717-27.477 9.045-6.891 19.399-11.811 28.916-17.986 2.47-1.609 4.946-3.341 7.782-4.21 2.836-.869 6.132-.775 8.474 1.053 1.653 1.284 2.608 3.267 3.165 5.252 1.218 4.345.751 8.946.008 13.353-.93 5.56-2.294 11.061-4.534 16.171-1.796 4.122-4.719 8.363-9.112 9.17-1.271 4.926-3.888 9.543-7.559 13.075-4.199 4.05-9.522 6.698-15.047 8.547-5.09 1.708-10.657 2.823-15.777 1.229-3.039-.928-5.715-2.715-8.333-4.537-2.336-1.552-4.759-3.251-6.021-5.81zm46.003-7.485 3.004-4.771a6.617 6.617 0 0 0-1.855.439c-1.65.714-2.644 3.312-1.149 4.332z" fill="#133835"/><path d="M485.13 283.846c.156.844.184 1.728.127 2.737a56.184 56.184 0 0 1-3.753 17.19c-1.311 3.262-2.917 6.476-5.187 9.176-.943 1.122-2.01 2.157-3.404 2.557-1.437.399-3.247.455-4.671.097-1.257 5.197-.733 15.007 3.754 18.693 1.371 1.115 3.001 1.812 4.633 2.426 3.178 1.226 6.487 2.16 9.8 2.883 3.773.815 7.887 1.424 10.537 4.199.331.341.661.809.528 1.27-.089.293-.303.5-.557.665-2.087 1.693-4.668 2.621-7.247 3.507-4.525 1.53-9.171 2.806-13.896 3.659-4.935.893-10.032 1.32-15.03.782-3.863-.438-7.677-1.421-11.184-3.157-3.674-1.823-7.438-3.31-11.239-5.051-3.217-1.479-6.389-3.167-9.871-3.767 1.646-3.13 5.08-4.887 8.5-5.718 3.42-.79 6.997-.862 10.456-1.524 1.14-.235 2.28-.513 3.258-1.213 2.679-1.936 1.946-6.238 1.988-9.056l.136-8.916c-.398-4.255-2.153-7.816-3.693-11.709-2.349-5.967-2.835-12.748-.765-18.858 2.07-6.068 6.777-11.339 12.825-13.477 6.048-2.138 13.308-.934 17.952 3.512 2.943 2.863 5.344 5.424 6.003 9.093z" fill="#F8AE9D"/><path d="M466.531 264.887c6.028-.672 11.521 2.279 15.593 6.855 3.427 3.836 5.441 8.899 5.339 13.986-.015.727-.097 1.519-.506 2.171-1.089 1.565-3.457.989-5.227.293-2.886-1.116-5.035-2.745-7.651-4.119-2.616-1.374-5.793-1.173-8.134-3.07-2.211-1.829-9.801-5.682-10.006-8.66-.258-3.641 6.411-6.614 9.199-7.219.399-.124.863-.181 1.393-.237z" fill="#133835"/><path d="M449.165 273.128c-5.097 3.287-7.49 9.046-7.755 15.166-.232 5.138 1.406 10.335 4.7 14.213.47.554 1.034 1.116 1.764 1.363 1.832.525 3.303-1.418 4.236-3.076 1.532-2.688 2.168-5.308 3.327-8.027 1.16-2.718 3.749-4.569 4.365-7.519.558-2.815 4.006-10.597 2.283-13.035-2.101-2.984-9.148-1.075-11.691.218-.388.156-.784.405-1.229.697z" fill="#133835"/><path d="M494.504 342.505c.804-.367 1.768-.1 2.304.624 6.014 8.42 8.335 18.972 10.368 29.142 2.307 11.561 4.36 23.161 6.329 34.759.118.591.192 1.223-.069 1.766-.26.543-.853.828-1.404 1.072-3.475 1.672-6.991 3.302-10.466 4.974a115.479 115.479 0 0 1-8.051-26.667c-2.231 5.645-6.26 10.548-11.398 13.751 3.828 5.485 8.542 16.452 13.138 21.275.703.768 5.054-.428 6.027-.749.605 1.733-2.228-.118-2.213 1.649-2.614.381-5.955-1.185-8.642-1.52a44.533 44.533 0 0 0-9.759-.064c-5.394.591-10.636 2.278-15.428 4.814a54.961 54.961 0 0 0-6.838 4.313c-1.872 1.402-6.508 4.697-6.508 4.697-.34.247-1.933-.114-2.31-.204a42.47 42.47 0 0 0-3.317-.429 78.827 78.827 0 0 1-8.313-1.093c-5.495-1.009-10.899-2.564-16.082-4.704-.499-.386 1.281-4.061 1.376-4.775-.094.672-10.304-.156-11.311-.34-4.026-.818-8.1-1.259-12.125-2.119 1.803-16.211 6.752-31.869 11.616-47.402 1.901-6.113 3.845-12.225 6.541-17.989 2.87-6.141 6.575-11.89 11.027-16.996.128-.125.34-.206.507-.161 2.138.537 15.17 3.89 21.654 6.303 3.304 1.27 6.652 2.414 10.042 3.56 1.339.441 2.721.882 4.109.861.926-.028 1.855-.224 2.741-.421 9.033-2.008 18.068-4.185 26.455-7.927z" fill="#009688"/><path d="M435.71 374.803c-.372 2.308-.87 4.656-1.368 6.962a122.756 122.756 0 0 1-4.651 15.41c-.964 2.51-1.969 4.976-3.1 7.441a142.759 142.759 0 0 1-1.738 3.634c-.303.584-.607 1.21-.911 1.795-.26.5-.561.959-.821 1.417 1.81-.056 10.742.459 12.591.613" stroke="#fff" stroke-width="1.376" stroke-miterlimit="10" stroke-linecap="round"/><path d="M436 413.888a51.958 51.958 0 0 1-.684 3.523l-.811 3.521c-.267 1.006-.875 2.259-.891 3.31.003-.21 7.163-.817 7.838-.89 7.457-.729 14.951-1.162 22.404-1.637 4.843-.305 9.595-.191 14.432-.16 1.43.022 3.115-.121 3.89-1.287.646-1 .118-2.27.637-3.187.335.089 4.232 1.074 4.192.989.154.886.463 2.741 1.382 3.176.334.131.67.178 1.007.184.504.007 1.01-.069 1.516-.146a.317.317 0 0 0 .212-.081c.085-.082.003-.21-.079-.337a10.03 10.03 0 0 1-1.722-5.748c-1.207-.817-2.413-1.761-3.449-2.786-.829-.854-1.443-1.957-2.357-2.686-.955-.814-1.888-.324-2.944-.045a51.299 51.299 0 0 0-3.632.954c-2.325.722-4.652 1.612-6.609 3.055-.681.494-1.32 1.032-2.123 1.272-.761.241-1.602.228-2.401.216-4.92-.117-9.839-.36-14.71-.897-4.998-.539-8.407-.464-14.954-1.447-.001.042-.007.421-.144 1.134z" fill="#F8AE9D"/><path d="M490.184 374.335c1.176 5.085 2.024 10.22 2.598 15.459" stroke="#fff" stroke-width="1.376" stroke-miterlimit="10" stroke-linecap="round"/><path d="m589.387 365.947-14.44 64.396-109.644-1.665c.057-3.785 3.175-6.851 7.002-6.793l26.202.398 13.057-59.243a4.138 4.138 0 0 1 4.088-3.261l69.732 1.059c2.649.083 4.589 2.51 4.003 5.109z" fill="#133835"/><path d="M446.155 523.291c.508-2.937 1.942-5.944 3.286-8.574 5.548-10.769 15.465-18.359 26.145-23.581 1.102-.53 2.204-1.061 3.346-1.464-.086.125-.172.25-.259.417l-.001.042-.042-.001c.128-.082.213-.165.341-.247 4.316 3.894 8.92 8.17 12.851 12.479-2.598 2.106-6.368 3.816-8.24 5.217-4.425 3.256-8.684 6.725-13.274 9.769-6.163 4.155-12.729 7.168-20.069 8.487-2.826.504-4.306 1.028-4.273-1.159.047-.336.096-.798.189-1.385z" fill="#F8AE9D"/><path d="M453.312 514.818c2.858-5.383 7.295-9.481 12.146-13.109 3.404-2.556 7.015-4.857 10.458-7.203.977-.658 2.897-2.438 4.551-3.296 3.444 3.123 6.97 6.416 10.157 9.83-10.53 6.402-19.911 14.757-31.465 19.293-1.058.405-2.157.809-3.294.834-1.136.025-2.348-.457-3.007-1.392-1.03-1.446-.369-3.413.454-4.957z" fill="#F8AE9D"/><circle cx="546.583" cy="393" r="9" fill="#fff"/><path fill-rule="evenodd" clip-rule="evenodd" d="M416.692 130.768c0 22.869 18.539 41.41 41.41 41.41 22.869 0 41.409-18.541 41.409-41.41 0-22.869-18.54-41.409-41.409-41.409-22.871 0-41.41 18.54-41.41 41.409z" fill="#E1E4E5"/><path fill-rule="evenodd" clip-rule="evenodd" d="M154.793 215.375c-14.403 0-7.664-22.839 10.583-17.384 1.01-31.712 52.7-54.915 74.075-12.143 6.043-4.782 19.613 4.251 16.608 12.143 6.712.572 11.993 1.349 16.102 2.377 9.487 2.375 7.609 14.9-2.17 14.813l-115.198.194zm271.361.001c13.62 0 7.247-21.597-10.007-16.439-.956-29.987-49.835-51.929-70.047-11.482-5.715-4.522-18.547 4.019-15.705 11.482-6.348.542-11.341 1.276-15.227 2.248-8.971 2.246-7.195 14.09 2.052 14.007l108.934.184zm113.637-91.553c-10.184 0-5.419-16.149 7.483-12.292.714-22.423 37.263-38.83 52.377-8.586 4.273-3.381 13.868 3.005 11.743 8.586 4.746.405 8.48.954 11.385 1.681 6.708 1.679 5.381 10.535-1.534 10.473l-81.454.138zM320.399 177.88h-61.016c-5.455 0-7.806-7.078-3.342-10.218.062-.045.126-.09.189-.133 6.356-4.378 14.698-3.98 14.698-3.98s1.191-23.687 23.634-23.687c20.292 0 28.383 19.958 31.302 30.953.948 3.572-1.777 7.065-5.465 7.065zM717.1 165.11h-54.811c-4.901 0-7.012-6.393-3.002-9.229l.17-.121c5.71-3.954 13.203-3.594 13.203-3.594s1.07-21.395 21.231-21.395c18.228 0 25.496 18.026 28.118 27.958.852 3.226-1.596 6.381-4.909 6.381zm-13.336 50.046h73.529c5.952 0 8.52-7.535 3.647-10.878l-.207-.141c-6.937-4.661-16.041-4.238-16.041-4.238s-1.301-25.214-25.796-25.214c-12.11 0-21.898 20.236-21.898 20.236s-16.474 0-19.201 12.714c-.824 3.851 1.939 7.521 5.967 7.521zm-41.357 2.461H499.394c-15.302 0-14.6-12.665-9.602-17.078 5.123-4.523 15.246-2.688 15.246-2.688s3.013-8.519 12.933-12.667c8.774-3.668 17.966-1.923 17.966-1.923s0-5.846 5.617-10.688c5.619-4.842 13.11-4.371 13.11-4.371s5.149-32.239 39.559-32.239c34.411 0 38.39 30.355 38.39 30.355s7.725 0 13.344 5.178c5.617 5.177 6.32 11.059 6.32 11.059s18.788-2.545 24.345 13.748c3.311 9.71-3.492 21.314-14.215 21.314zm-406.592-91.553h119.911c11.256 0 10.739-9.316 7.063-12.562-3.769-3.328-11.214-1.978-11.214-1.978s-2.217-6.267-9.514-9.317c-6.454-2.699-13.215-1.415-13.215-1.415s0-4.3-4.133-7.862c-4.133-3.562-9.643-3.216-9.643-3.216S331.282 66 305.97 66s-28.239 22.33-28.239 22.33-5.682 0-9.815 3.808c-4.132 3.808-4.649 8.135-4.649 8.135s-13.821-1.872-17.908 10.112c-2.436 7.143 2.569 15.679 10.456 15.679z" fill="#fff" stroke="#E1E4E5" stroke-width="4"/></svg>