<svg width="900" height="600" viewBox="0 0 900 600" fill="none" xmlns="http://www.w3.org/2000/svg"><path fill="transparent" d="M0 0h900v600H0z"/><path fill-rule="evenodd" clip-rule="evenodd" d="M271.648 430.971c-17.832 0-9.489-28.276 13.103-21.523 1.25-39.262 65.247-67.99 91.711-15.033 7.482-5.921 24.282 5.262 20.562 15.033 8.311.709 14.849 1.67 19.936 2.943 11.746 2.941 9.421 18.448-2.686 18.339l-142.626.241zm-99.843-76.369c-16.862 0-8.972-26.739 12.391-20.352 1.182-37.128 61.699-64.293 86.723-14.217 7.075-5.598 22.962 4.977 19.444 14.217 7.859.67 14.042 1.579 18.852 2.783 11.107 2.78 8.908 17.444-2.54 17.341l-134.87.228zm61.49 75.485h-75.543c-6.754 0-9.663-8.764-4.137-12.65.077-.056.156-.112.234-.166 7.87-5.42 18.198-4.927 18.198-4.927s1.474-29.327 29.261-29.327c25.122 0 35.14 24.71 38.754 38.323 1.173 4.423-2.2 8.747-6.767 8.747zm442.781 1.522h-53.125c-4.75 0-6.796-6.163-2.909-8.896a9.65 9.65 0 0 1 .164-.116c5.534-3.812 12.797-3.465 12.797-3.465s1.037-20.624 20.578-20.624c17.667 0 24.713 17.377 27.254 26.95.825 3.111-1.547 6.151-4.759 6.151zm-209.509-.995h91.036c7.369 0 10.548-9.329 4.515-13.468-.084-.058-.17-.117-.256-.174-8.588-5.771-19.86-5.247-19.86-5.247s-1.611-31.217-31.938-31.217c-14.994 0-27.111 25.053-27.111 25.053s-20.397 0-23.772 15.741c-1.021 4.769 2.4 9.312 7.386 9.312z" fill="#fff" stroke="#E1E4E5" stroke-width="4"/><path fill-rule="evenodd" clip-rule="evenodd" d="M729.653 386.176H527.829c-18.945 0-18.076-15.68-11.888-21.144 6.343-5.6 18.875-3.329 18.875-3.329s3.732-10.547 16.013-15.681c10.863-4.542 22.243-2.381 22.243-2.381s0-7.238 6.955-13.233c6.957-5.996 16.231-5.413 16.231-5.413s6.375-39.914 48.978-39.914 47.53 37.583 47.53 37.583 9.564 0 16.52 6.41c6.955 6.41 7.825 13.692 7.825 13.692s23.262-3.15 30.141 17.021c4.1 12.023-4.323 26.389-17.599 26.389z" fill="#fff" stroke="#E1E4E5" stroke-width="4"/><path fill-rule="evenodd" clip-rule="evenodd" d="M362.834 232.818C324.572 238.042 295 270.5 295 310.191c0 43.314 35.125 78.439 78.439 78.439h172.567c34.654 0 62.751-28.097 62.751-62.751 0-34.655-28.097-62.752-62.751-62.752 0-51.989-42.138-94.127-94.127-94.127-41.369 0-76.416 26.716-89.045 63.818z" fill="#009688"/><path d="M489.531 294.503h-75.302m37.65 37.652v-75.301" stroke="#fff" stroke-width="21.625" stroke-linecap="round" stroke-linejoin="round"/><path d="M622.751 478.766c13.811 3.272 28.419-8.441 28.419-8.441s-7.795-17.011-21.611-20.273c-13.811-3.272-28.414 8.431-28.414 8.431s7.795 17.011 21.606 20.283z" fill="url(#a)"/><path d="M677.233 173.9c-21.005 14.469-53.096 4.355-53.096 4.355s1.987-33.568 23.007-48.023c21.005-14.468 53.082-4.368 53.082-4.368s-1.987 33.568-22.993 48.036z" fill="url(#b)"/><path d="M204.75 170.274c12.547 12.77 36.01 10.077 36.01 10.077s3.105-23.397-9.454-36.16c-12.547-12.77-35.998-10.085-35.998-10.085s-3.105 23.397 9.442 36.168z" fill="url(#c)"/><circle r="10.78" transform="matrix(1 0 0 -1 139.78 394.287)" fill="#009688"/><ellipse rx="11.936" ry="11.339" transform="matrix(1 0 0 -1 536.064 473.61)" fill="#009688"/><circle cx="152.017" cy="264.623" r="15.452" fill="#009688"/><ellipse cx="412.995" cy="473.505" rx="10.743" ry="10.146" fill="#E1E4E5"/><circle cx="787.376" cy="446.622" r="8.624" fill="#E1E4E5"/><circle cx="341.351" cy="494.336" r="5.151" fill="#E1E4E5"/><circle cx="384.618" cy="127.688" r="7.358" fill="#E1E4E5"/><circle cx="687.788" cy="485.105" r="7.19" transform="rotate(105 687.788 485.105)" fill="#E1E4E5"/><circle cx="706.73" cy="246.951" r="9.565" fill="#E1E4E5"/><ellipse cx="112.256" cy="341.686" rx="7.358" ry="5.886" fill="#E1E4E5"/><circle cx="188.581" cy="461.882" r="11.581" transform="rotate(90 188.581 461.882)" fill="#E1E4E5"/><path d="M227.169 243.73h-.192c-1.14 16.151-13.151 16.399-13.151 16.399s13.245.259 13.245 18.92c0-18.661 13.244-18.92 13.244-18.92s-12.006-.248-13.146-16.399zm330.236-129.843h-.188c-1.113 16.431-12.844 16.683-12.844 16.683s12.935.264 12.935 19.249c0-18.985 12.936-19.249 12.936-19.249s-11.726-.252-12.839-16.683zm221.224 221.224h-.188c-1.113 16.431-12.844 16.684-12.844 16.684s12.936.263 12.936 19.248c0-18.985 12.935-19.248 12.935-19.248s-11.726-.253-12.839-16.684zm-435.336-163.2h-.188c-1.113 16.431-12.844 16.684-12.844 16.684s12.936.263 12.936 19.248c0-18.985 12.935-19.248 12.935-19.248s-11.726-.253-12.839-16.684zm265.484 65.29h-.14c-.832 12.277-9.597 12.466-9.597 12.466s9.665.197 9.665 14.382c0-14.185 9.666-14.382 9.666-14.382s-8.762-.189-9.594-12.466z" fill="#E1E4E5"/><defs><linearGradient id="a" x1="674.76" y1="486.901" x2="553.858" y2="429.783" gradientUnits="userSpaceOnUse"><stop stop-color="#fff"/><stop offset="1" stop-color="#EEE"/></linearGradient><linearGradient id="b" x1="595.409" y1="221.373" x2="760.758" y2="47.016" gradientUnits="userSpaceOnUse"><stop stop-color="#fff"/><stop offset="1" stop-color="#EEE"/></linearGradient><linearGradient id="c" x1="254.811" y1="213.894" x2="164.103" y2="71.701" gradientUnits="userSpaceOnUse"><stop stop-color="#fff"/><stop offset="1" stop-color="#EEE"/></linearGradient></defs></svg>