<svg width="900" height="600" viewBox="0 0 900 600" fill="none" xmlns="http://www.w3.org/2000/svg"><path fill="transparent" d="M0 0h900v600H0z"/><path d="M596.686 201.361c-16.103-52.558-155.282-120.393-265.239-36.065-51.139 39.221-35.266 67.369-64.71 122.937-17.551 33.119-48.64 64.698-46.563 102.722 1.786 32.822 18.96 62.507 42.193 77.391 52.25 33.474 135.034 39.156 178.313-59.649 43.278-98.806 197.521-71.78 156.006-207.336z" fill="url(#a)"/><path d="M662.122 312.523c-19.073-19.57-48.178-15.162-92.276 1.344-33.162 12.419-63.526 23.29-92.601 50.977-20.353 19.37-34.511 41.992-43.708 62.744-9.967 22.482-25.14 49.157-9.316 67.379 21.744 25.03 109.376 27.537 177.536-33.225 74.87-66.759 79.017-130.096 60.365-149.219z" fill="url(#b)"/><mask id="c" fill="#fff"><path fill-rule="evenodd" clip-rule="evenodd" d="M589.651 177.646c75.979 68.096 75.979 178.501 0 246.597-75.979 68.097-199.164 68.097-275.143 0-75.979-68.096-75.979-178.501 0-246.597 75.979-68.097 199.164-68.097 275.143 0z"/></mask><path fill-rule="evenodd" clip-rule="evenodd" d="M589.651 177.646c75.979 68.096 75.979 178.501 0 246.597-75.979 68.097-199.164 68.097-275.143 0-75.979-68.096-75.979-178.501 0-246.597 75.979-68.097 199.164-68.097 275.143 0z" fill="#fff"/><path d="M586.981 180.624c74.205 66.507 74.205 174.134 0 240.641l5.34 5.957c77.752-69.686 77.752-182.869 0-252.555l-5.34 5.957zm0 240.641c-74.459 66.734-195.344 66.734-269.803 0l-5.34 5.957c77.498 69.458 202.985 69.458 280.483 0l-5.34-5.957zm-269.803 0c-74.205-66.507-74.205-174.134 0-240.641l-5.34-5.957c-77.752 69.686-77.752 182.869 0 252.555l5.34-5.957zm0-240.641c74.459-66.734 195.344-66.734 269.803 0l5.34-5.957c-77.498-69.458-202.985-69.458-280.483 0l5.34 5.957z" fill="#E1E4E5" mask="url(#c)"/><path d="M260.645 301.505c0-8.127 3.071-16.262 9.173-23.864 32.112-40.003 103.545-66.087 182.822-66.087s150.71 26.084 182.821 66.087c6.103 7.602 9.174 15.737 9.174 23.864s-3.071 16.262-9.174 23.864c-32.111 40.004-103.544 66.087-182.821 66.087s-150.71-26.083-182.822-66.087c-6.102-7.602-9.173-15.737-9.173-23.864z" fill="#fff" stroke="#E1E4E5" stroke-width="4"/><mask id="d" fill="#fff"><path fill-rule="evenodd" clip-rule="evenodd" d="M517.884 236.573c35.921 35.912 35.921 94.21 0 130.183-35.92 35.911-94.233 35.911-130.215 0-35.92-35.912-35.92-94.21 0-130.183 35.982-35.972 94.264-35.972 130.215 0z"/></mask><path fill-rule="evenodd" clip-rule="evenodd" d="M517.884 236.573c35.921 35.912 35.921 94.21 0 130.183-35.92 35.911-94.233 35.911-130.215 0-35.92-35.912-35.92-94.21 0-130.183 35.982-35.972 94.264-35.972 130.215 0z" fill="#fff"/><path d="m517.884 366.756 2.828 2.829.003-.003-2.831-2.826zm-130.215 0-2.828 2.829.003.002 2.825-2.831zm0-130.183-2.828-2.828-.002.002 2.83 2.826zm127.387 2.829c34.357 34.348 34.36 90.115-.002 124.527l5.661 5.653c37.478-37.533 37.482-98.363-.003-135.837l-5.656 5.657zm0 124.525c-34.357 34.348-90.14 34.352-124.561-.002l-5.651 5.662c37.541 37.468 98.385 37.472 135.868-.002l-5.656-5.658zm-124.559 0c-34.356-34.348-34.36-90.115.003-124.527l-5.661-5.653c-37.479 37.533-37.482 98.363.002 135.838l5.656-5.658zm0-124.525c34.421-34.412 90.17-34.41 124.558-.001l5.659-5.655c-37.514-37.537-98.33-37.535-135.873-.001l5.656 5.657z" fill="#E1E4E5" mask="url(#d)"/><path fill-rule="evenodd" clip-rule="evenodd" d="M505.565 302.235a52.197 52.197 0 0 1-15.287 36.909 52.198 52.198 0 0 1-89.104-36.909 52.195 52.195 0 1 1 104.391 0z" fill="#009688"/><circle cx="442.539" cy="283.539" r="17.539" fill="#fff"/><path fill-rule="evenodd" clip-rule="evenodd" d="M266.483 432.885h-3.665a1.6 1.6 0 0 0-1.599 1.6v3.665c0 .886.721 1.6 1.599 1.6h3.665c.879 0 1.6-.721 1.6-1.6v-3.665a1.596 1.596 0 0 0-1.6-1.6zm-12.708 0h-3.665c-.878 0-1.599.721-1.599 1.6v3.665c0 .886.721 1.6 1.599 1.6h3.665c.879 0 1.6-.721 1.6-1.6v-3.665c0-.879-.721-1.6-1.6-1.6zm-12.713 0h-3.665c-.879 0-1.6.721-1.6 1.6v3.665c0 .886.721 1.6 1.6 1.6h3.665c.878 0 1.599-.721 1.599-1.6v-3.665a1.596 1.596 0 0 0-1.599-1.6zm-12.708 0h-3.665c-.879 0-1.6.721-1.6 1.6v3.665c0 .886.721 1.6 1.6 1.6h3.665c.886 0 1.607-.721 1.607-1.6v-3.665a1.617 1.617 0 0 0-1.607-1.6zm-12.707 0h-3.665c-.887 0-1.607.721-1.607 1.6v3.665c0 .886.721 1.6 1.607 1.6h3.665c.878 0 1.599-.721 1.599-1.6v-3.665c0-.879-.721-1.6-1.599-1.6zm37.665 13.857h-3.665c-.879 0-1.6.721-1.6 1.6v3.672c0 .879.721 1.6 1.6 1.6h3.665c.886 0 1.6-.721 1.6-1.6v-3.665a1.599 1.599 0 0 0-1.6-1.607zm-12.709 0h-3.665c-.879 0-1.6.721-1.6 1.6v3.672c0 .879.721 1.6 1.6 1.6h3.665c.879 0 1.6-.721 1.6-1.6v-3.665a1.599 1.599 0 0 0-1.6-1.607zm-12.708 0h-3.665c-.886 0-1.607.721-1.607 1.6v3.672c0 .879.721 1.6 1.607 1.6h3.665c.879 0 1.6-.721 1.6-1.6v-3.665c0-.886-.721-1.607-1.6-1.607zM241.062 418h-3.665c-.879 0-1.6.721-1.6 1.6v3.665c0 .886.721 1.6 1.6 1.6h3.665c.878 0 1.599-.721 1.599-1.6V419.6a1.596 1.596 0 0 0-1.599-1.6zm-12.708 0h-3.665c-.879 0-1.6.721-1.6 1.6v3.665c0 .886.721 1.6 1.6 1.6h3.665c.886 0 1.607-.721 1.607-1.6V419.6a1.617 1.617 0 0 0-1.607-1.6z" fill="#E1E4E5"/><path d="M630.395 469.424c-6.742 1.983-15.728 5.974-20.568 13.248-4.839 7.274 1.554 9.02 9.789 7.249s16.234-6.876 19.235-13.642c3.002-6.765-2.923-8.482-8.456-6.855z" fill="#E1E4E5"/><path fill-rule="evenodd" clip-rule="evenodd" d="M670.063 241.552v4.671h4.889c2.041 0 3.718 1.602 3.718 3.551 0 1.95-1.677 3.552-3.718 3.552h-4.889v4.671c0 1.95-1.677 3.552-3.718 3.552s-3.718-1.602-3.718-3.552v-4.652h-4.909c-2.041 0-3.718-1.602-3.718-3.551 0-1.95 1.677-3.552 3.718-3.552h4.889v-4.69c0-1.95 1.677-3.552 3.738-3.552 2.041 0 3.718 1.602 3.718 3.552zm-20.429-65.647v6.45h6.89c2.875 0 5.238 2.213 5.238 4.905s-2.363 4.904-5.238 4.904h-6.89v6.451c0 2.692-2.363 4.905-5.239 4.905-2.875 0-5.238-2.213-5.238-4.905v-6.424h-6.918c-2.876 0-5.239-2.212-5.239-4.904 0-2.693 2.363-4.905 5.239-4.905h6.889v-6.477c0-2.692 2.363-4.905 5.267-4.905 2.876 0 5.239 2.213 5.239 4.905zm-59.462-30.846v9.565h9.779c4.082 0 7.436 3.28 7.436 7.272 0 3.992-3.354 7.272-7.436 7.272h-9.779v9.565c0 3.992-3.354 7.272-7.435 7.272-4.081 0-7.435-3.28-7.435-7.272v-9.525h-9.82c-4.081 0-7.435-3.281-7.435-7.272 0-3.992 3.354-7.273 7.435-7.273h9.779v-9.604c0-3.992 3.354-7.272 7.476-7.272 4.081 0 7.435 3.28 7.435 7.272z" fill="#E1E4E5"/><circle r="5.878" transform="matrix(-1 0 0 1 218.548 244.587)" fill="#009688"/><circle r="5.222" transform="scale(1 -1) rotate(-75 -81.789 -305.804)" fill="#E1E4E5"/><circle r="6.947" transform="matrix(-1 0 0 1 237.522 198.012)" fill="#E1E4E5"/><path d="M264.995 144.515h.241c1.425 20.525 16.448 20.841 16.448 20.841s-16.566.329-16.566 24.045c0-23.716-16.565-24.045-16.565-24.045s15.016-.316 16.442-20.841z" fill="#E1E4E5"/><path d="M459.907 176.434c-5.636 5.736-16.175 4.527-16.175 4.527s-1.395-10.51 4.246-16.243c5.636-5.736 16.17-4.53 16.17-4.53s1.395 10.51-4.241 16.246z" fill="url(#e)"/><path d="M694.311 437.477c-11.341 11.542-32.548 9.108-32.548 9.108s-2.806-21.147 8.545-32.683c11.341-11.542 32.537-9.116 32.537-9.116s2.806 21.148-8.534 32.691z" fill="url(#f)"/><circle cx="392.132" cy="178.209" r="11.259" fill="#E1E4E5"/><path d="M204.82 288.049H188m35.883-8.971H188m15.699 18.502H188" stroke="#E1E4E5" stroke-width="4.046" stroke-linecap="round" stroke-linejoin="round"/><defs><linearGradient id="a" x1="362.982" y1="-63.369" x2="486.356" y2="856.003" gradientUnits="userSpaceOnUse"><stop stop-color="#fff"/><stop offset="1" stop-color="#EEE"/></linearGradient><linearGradient id="b" x1="535.216" y1="186.578" x2="558.682" y2="734.158" gradientUnits="userSpaceOnUse"><stop stop-color="#fff"/><stop offset="1" stop-color="#EEE"/></linearGradient><linearGradient id="e" x1="437.421" y1="196.027" x2="478.165" y2="132.157" gradientUnits="userSpaceOnUse"><stop stop-color="#fff"/><stop offset="1" stop-color="#EEE"/></linearGradient><linearGradient id="f" x1="649.063" y1="476.903" x2="731.05" y2="348.382" gradientUnits="userSpaceOnUse"><stop stop-color="#fff"/><stop offset="1" stop-color="#EEE"/></linearGradient></defs></svg>