<svg width="900" height="600" viewBox="0 0 900 600" fill="none" xmlns="http://www.w3.org/2000/svg"><path fill="transparent" d="M0 0h900v600H0z"/><path fill-rule="evenodd" clip-rule="evenodd" d="M422.252 160.346v31.79h.01a26.543 26.543 0 0 0-13.823.899 25.761 25.761 0 0 0-16.656 18.116 26.105 26.105 0 0 0 25.266 32.571 26.687 26.687 0 0 0 5.213-.523v31.79a20.845 20.845 0 0 1-6.104 14.738 20.848 20.848 0 0 1-14.739 6.104h-31.792v.009a26.53 26.53 0 0 0-.898-13.822 25.765 25.765 0 0 0-18.118-16.655 26.107 26.107 0 0 0-32.572 25.265c.003 1.75.178 3.496.523 5.212l-31.782-.009c-11.508.002-20.84-9.325-20.843-20.832v-31.791a26.68 26.68 0 0 1-5.213.524 26.109 26.109 0 0 1-25.266-32.571 25.76 25.76 0 0 1 16.656-18.116 26.543 26.543 0 0 1 13.823-.899h-.01v-31.79a20.843 20.843 0 0 1 20.843-20.842h31.792a26.679 26.679 0 0 1-.523-5.213 26.107 26.107 0 0 1 32.572-25.264 25.8 25.8 0 0 1 18.118 16.655 26.529 26.529 0 0 1 .898 13.822h31.792a20.843 20.843 0 0 1 20.843 20.842m-.01 195.282v31.79h.01a26.543 26.543 0 0 0-13.823.899 25.761 25.761 0 0 0-16.656 18.117 26.103 26.103 0 0 0 30.479 32.047v31.79a20.843 20.843 0 0 1-20.843 20.842h-31.792v.01c.93-4.606.62-9.376-.898-13.822a25.764 25.764 0 0 0-18.118-16.656 26.105 26.105 0 0 0-32.572 25.265c.003 1.75.178 3.496.523 5.213l-31.782-.01c-11.508.002-20.84-9.324-20.843-20.832v-31.79c-1.716.345-3.462.52-5.213.523a26.109 26.109 0 0 1-25.266-32.571 25.761 25.761 0 0 1 16.656-18.116 26.543 26.543 0 0 1 13.823-.899h-.01v-31.79a20.843 20.843 0 0 1 20.843-20.842h31.792a26.679 26.679 0 0 1-.523-5.213 26.103 26.103 0 0 1 32.572-25.264 25.8 25.8 0 0 1 18.118 16.655 26.53 26.53 0 0 1 .898 13.822h31.792a20.843 20.843 0 0 1 20.843 20.842m208.074-195.303v31.791h.01a26.528 26.528 0 0 0-13.822.898 25.762 25.762 0 0 0-16.657 18.117 26.106 26.106 0 0 0 25.266 32.571 26.68 26.68 0 0 0 5.213-.524v31.791a20.839 20.839 0 0 1-20.842 20.841h-31.793v.01a26.53 26.53 0 0 0-.898-13.822 25.76 25.76 0 0 0-18.118-16.655 26.105 26.105 0 0 0-32.572 25.264c.003 1.751.178 3.497.523 5.213l-31.782-.01c-11.508.002-20.839-9.324-20.842-20.831v-31.791c-1.717.345-3.463.52-5.214.523a26.105 26.105 0 0 1-25.266-32.57 25.766 25.766 0 0 1 16.657-18.117 26.533 26.533 0 0 1 13.823-.898h-.01v-31.791a20.837 20.837 0 0 1 20.842-20.841h31.792a26.687 26.687 0 0 1-.523-5.213 26.106 26.106 0 0 1 32.572-25.265 25.799 25.799 0 0 1 18.118 16.656 26.528 26.528 0 0 1 .898 13.822h31.793a20.837 20.837 0 0 1 20.842 20.841m-.01 195.283v31.79h.01a26.539 26.539 0 0 0-13.822.899 25.76 25.76 0 0 0-16.657 18.117 26.103 26.103 0 0 0 30.479 32.047v31.79a20.841 20.841 0 0 1-20.842 20.842h-31.793v.01c.93-4.606.62-9.376-.898-13.822a25.76 25.76 0 0 0-18.118-16.656 26.108 26.108 0 0 0-32.572 25.265c.003 1.75.178 3.496.523 5.213l-31.782-.01c-11.508.002-20.839-9.324-20.842-20.832v-31.79c-1.717.345-3.463.52-5.214.523a26.108 26.108 0 0 1-25.266-32.571 25.765 25.765 0 0 1 16.657-18.116 26.543 26.543 0 0 1 13.823-.899h-.01v-31.79a20.837 20.837 0 0 1 20.842-20.842h31.792a26.679 26.679 0 0 1-.523-5.213 26.104 26.104 0 0 1 32.572-25.264 25.798 25.798 0 0 1 18.118 16.655 26.53 26.53 0 0 1 .898 13.822h31.793a20.841 20.841 0 0 1 20.842 20.842" fill="#009688"/><path d="M668.284 193.602c8.081-9.353 24.365-8.533 24.365-8.533s3.172 15.983-4.917 25.331c-8.081 9.352-24.357 8.538-24.357 8.538s-3.172-15.983 4.909-25.336z" fill="url(#a)"/><circle cx="188" cy="242" r="7" fill="#009688"/><circle r="10.178" transform="matrix(1 0 0 -1 690.178 303.178)" fill="#009688"/><circle r="9.253" transform="matrix(1 0 0 -1 340.544 518.591)" fill="#E1E4E5"/><circle r="14.638" transform="matrix(0 -1 -1 0 449.638 93.638)" fill="#E1E4E5"/><path d="M498.332 544.618h-.176c-1.041-15.131-12.005-15.364-12.005-15.364s12.09-.242 12.09-17.725c0 17.483 12.091 17.725 12.091 17.725s-10.96.233-12 15.364zM146.734 324.436c-1.899-.937-3.094-2.997-2.933-5.051.167-2.22 1.683-4.139 3.831-4.76.59-.17 1.216-.232 1.832-.299 3.689-.418 7.384-.769 11.011-1.632 1.604-.388 3.182-.128 4.605.777 1.883 1.201 2.721 2.966 2.488 5.139-.239 2.184-1.518 3.679-3.577 4.46a5.736 5.736 0 0 1-1.201.305c-4.233.624-8.46 1.317-12.734 1.636-1.17.088-2.277-.052-3.322-.575zm17.061 15.083c-.793 1.634-2.143 2.731-3.83 3.155-4.15 1.028-8.342 1.984-12.632 2.154-3.917.149-6.529-3.526-5.244-7.178.735-2.091 2.35-3.275 4.508-3.502 2.783-.289 5.485-.904 8.232-1.354.875-.144 1.687-.449 2.521-.718 2.111-.677 4.33-.019 5.748 1.647 1.376 1.62 1.644 3.876.697 5.796zm12.121-10.935c.699-1.423 1.828-2.333 3.333-2.783 2.272-.688 4.575-1.23 6.898-1.685 1.061-.207 2.075-.501 3.059-.993a5.731 5.731 0 0 1 7.864 2.926c1.231 2.971-.245 6.23-3.366 7.399-.429.16-.879.31-1.335.392-3.446.605-6.861 1.38-10.266 2.186-2.112.496-3.99.009-5.459-1.657-1.433-1.636-1.696-3.825-.728-5.785zm5.967 14.422c2.272 1.201 3.166 3.033 3.197 5.3.03 2.24-.99 3.968-2.962 5.065-.719.403-1.506.682-2.302.878-2.81.678-5.605 1.375-8.415 2.052-1.79.424-3.503.227-4.982-.953-1.625-1.305-2.323-3.038-1.944-5.087.394-2.158 1.729-3.611 3.835-4.252 1.63-.492 3.281-.895 4.947-1.277 1.258-.289 2.432-.646 3.535-1.427 1.635-1.174 3.467-1.086 5.091-.299zm33.409 5.888c-.559 1.143-1.397 2.043-2.562 2.586-.657.305-1.325.579-2.018.75-2.349.584-4.678 1.23-7.007 1.876-3.529.977-6.757-1.285-6.947-4.783-.119-2.194 1.113-4.165 3.266-5.158 1.599-.739 3.302-1.168 5.004-1.571.911-.217 1.754-.507 2.567-.993 2.199-1.319 4.678-.997 6.545.752 1.769 1.662 2.24 4.316 1.152 6.541zm-99.407-28.405c.622-1.138 1.455-1.95 2.562-2.457.756-.346 1.543-.6 2.37-.677 2.2-.207 4.409-.485 6.619-.583 4.005-.17 6.731 3.381 5.467 7.122-.658 1.96-2.128 3.114-4.141 3.517-.646.129-1.329.124-1.992.206-1.785.207-3.586.289-5.371.573-2.111.341-3.865-.446-5.096-2.2-1.247-1.75-1.272-3.638-.418-5.501zm62.316-21.554c2.101 1.077 3.208 3.002 3.047 5.134-.177 2.292-1.383 3.823-3.494 4.656-.471.191-.994.331-1.496.351a129.35 129.35 0 0 1-5.868.169c-1.102.005-2.126-.352-3.042-1.004-1.811-1.32-2.622-3.473-2.094-5.589.544-2.148 2.236-3.798 4.41-4.004 2.147-.206 4.32-.206 6.478-.252a3.923 3.923 0 0 1 2.059.539zm528.532 128.476c-1.899-.937-3.093-2.997-2.932-5.051.166-2.22 1.683-4.139 3.83-4.759.59-.171 1.216-.233 1.832-.3 3.689-.418 7.384-.769 11.011-1.632 1.605-.387 3.183-.128 4.605.778 1.884 1.201 2.721 2.966 2.488 5.139-.239 2.183-1.517 3.678-3.577 4.459a5.681 5.681 0 0 1-1.2.305c-4.233.625-8.461 1.317-12.735 1.636-1.17.088-2.277-.052-3.322-.575zm17.061 15.083c-.792 1.635-2.143 2.731-3.83 3.155-4.15 1.029-8.342 1.985-12.631 2.154-3.917.149-6.529-3.525-5.245-7.178.735-2.09 2.35-3.275 4.508-3.502 2.784-.289 5.485-.904 8.233-1.353.874-.145 1.687-.45 2.52-.719 2.111-.677 4.331-.019 5.748 1.647 1.376 1.62 1.644 3.876.697 5.796zm12.122-10.935c.699-1.423 1.827-2.333 3.333-2.783 2.271-.687 4.574-1.23 6.898-1.685 1.06-.206 2.075-.501 3.058-.992a5.73 5.73 0 0 1 7.864 2.925c1.231 2.971-.245 6.23-3.365 7.399-.43.16-.88.31-1.335.393-3.447.604-6.862 1.379-10.267 2.186-2.111.496-3.989.009-5.458-1.658-1.433-1.635-1.697-3.824-.728-5.785zm5.967 14.423c2.271 1.201 3.165 3.033 3.196 5.299.03 2.241-.99 3.968-2.961 5.065-.72.403-1.506.682-2.303.879-2.81.677-5.604 1.375-8.414 2.052-1.791.423-3.503.226-4.983-.954-1.624-1.304-2.322-3.038-1.944-5.087.394-2.157 1.729-3.611 3.835-4.252 1.63-.491 3.281-.894 4.947-1.277 1.258-.289 2.433-.646 3.535-1.427 1.635-1.174 3.467-1.085 5.092-.298zm33.409 5.887c-.56 1.144-1.398 2.044-2.562 2.587-.658.305-1.325.579-2.019.749-2.349.584-4.678 1.23-7.006 1.877-3.53.977-6.758-1.286-6.948-4.784-.119-2.194 1.114-4.165 3.266-5.157 1.599-.74 3.302-1.169 5.004-1.572.911-.217 1.755-.507 2.567-.993 2.2-1.319 4.678-.997 6.546.752 1.769 1.662 2.239 4.316 1.152 6.541zm-99.407-28.405c.621-1.138 1.454-1.95 2.562-2.457.755-.346 1.542-.599 2.37-.677 2.199-.206 4.408-.485 6.618-.583 4.005-.169 6.731 3.381 5.467 7.122-.658 1.961-2.127 3.114-4.14 3.517-.647.129-1.33.124-1.993.207-1.785.206-3.585.288-5.371.572-2.111.341-3.865-.446-5.096-2.2-1.246-1.749-1.272-3.638-.417-5.501zm62.316-21.554c2.1 1.077 3.207 3.002 3.046 5.134-.177 2.292-1.383 3.824-3.494 4.656-.471.191-.994.331-1.496.352-1.961.092-3.912.164-5.867.169-1.103.004-2.127-.353-3.043-1.005-1.81-1.32-2.622-3.473-2.094-5.589.544-2.147 2.237-3.797 4.41-4.004 2.147-.206 4.321-.205 6.478-.251a3.93 3.93 0 0 1 2.06.538z" fill="#E1E4E5"/><defs><linearGradient id="a" x1="700.849" y1="161.337" x2="644.63" y2="263.312" gradientUnits="userSpaceOnUse"><stop stop-color="#fff"/><stop offset="1" stop-color="#EEE"/></linearGradient></defs></svg>