<svg width="900" height="600" viewBox="0 0 900 600" fill="none" xmlns="http://www.w3.org/2000/svg"><path fill="transparent" d="M0 0h900v600H0z"/><path d="M354.387 452.58c14.029-6.376 31.883-6.376 45.911 0 14.029 6.377 31.883 6.377 45.911 0 14.029-6.376 31.883-6.376 45.912 0 14.028 6.377 31.882 6.377 45.911 0 14.028-6.376 31.882-6.376 45.911 0m-410.584.026c8.161-4.508 18.547-4.508 26.707 0 8.161 4.507 18.547 4.507 26.707 0 8.16-4.508 18.547-4.508 26.707 0 8.16 4.507 18.546 4.507 26.707 0 8.16-4.508 18.546-4.508 26.707 0m324.54 0c8.16-4.508 18.546-4.508 26.707 0 8.16 4.507 18.546 4.507 26.707 0 8.16-4.508 18.546-4.508 26.707 0 8.16 4.507 18.546 4.507 26.707 0 8.16-4.508 18.546-4.508 26.707 0m-185.935 41.412c8.161-4.507 18.547-4.507 26.707 0 8.161 4.508 18.547 4.508 26.707 0 8.161-4.507 18.547-4.507 26.707 0 8.16 4.508 18.547 4.508 26.707 0 8.16-4.507 18.546-4.507 26.707 0m-486.81 0c8.16-4.507 18.546-4.507 26.707 0 8.16 4.508 18.546 4.508 26.707 0 8.16-4.507 18.546-4.507 26.707 0 8.16 4.508 18.546 4.508 26.707 0 8.16-4.507 18.546-4.507 26.707 0m41.005-3.179c14.028 6.377 31.883 6.377 45.911 0 14.029-6.376 31.883-6.376 45.911 0 14.029 6.377 31.883 6.377 45.911 0" stroke="#E1E4E5" stroke-width="6" stroke-linecap="round" stroke-linejoin="round"/><path fill-rule="evenodd" clip-rule="evenodd" d="M456.411 406.351V252.727c0-12.013-15.585-16.732-22.255-6.734l-68.803 103.211c-5.381 8.073.396 18.887 10.101 18.887h80.957" fill="#009688"/><path d="M456.411 406.351V252.727c0-12.013-15.585-16.732-22.255-6.734l-68.803 103.211c-5.381 8.073.396 18.887 10.101 18.887h80.957" stroke="#009688" stroke-width="6" stroke-linecap="round" stroke-linejoin="round"/><path fill-rule="evenodd" clip-rule="evenodd" d="M433.064 368.091V252.727c0-12.013 15.584-16.732 22.254-6.734l68.803 103.211c5.381 8.073-.396 18.887-10.101 18.887h-80.956z" fill="#009688" stroke="#009688" stroke-width="6" stroke-linecap="round" stroke-linejoin="round"/><path d="m569.914 448.437 14.028-42.085H363.951l20.966 41.945" stroke="#E1E4E5" stroke-width="6" stroke-linecap="round" stroke-linejoin="round"/><path fill-rule="evenodd" clip-rule="evenodd" d="M407.581 131.199c0 22.869 18.539 41.41 41.409 41.41 22.87 0 41.41-18.541 41.41-41.41 0-22.87-18.54-41.41-41.41-41.41-22.87 0-41.409 18.54-41.409 41.41z" fill="#E1E4E5"/><path fill-rule="evenodd" clip-rule="evenodd" d="M145.681 215.806c-14.403 0-7.664-22.839 10.583-17.384 1.011-31.712 52.701-54.916 74.075-12.143 6.043-4.782 19.613 4.25 16.608 12.143 6.713.572 11.994 1.349 16.103 2.377 9.487 2.375 7.609 14.9-2.17 14.812l-115.199.195zm271.362.001c13.62 0 7.247-21.597-10.008-16.439-.955-29.988-49.834-51.929-70.046-11.482-5.715-4.522-18.547 4.019-15.705 11.482-6.348.541-11.342 1.275-15.227 2.248-8.971 2.245-7.195 14.089 2.052 14.007l108.934.184zm113.637-91.554c-10.184 0-5.419-16.149 7.483-12.291.714-22.424 37.263-38.83 52.376-8.586 4.273-3.382 13.868 3.005 11.744 8.586 4.746.404 8.48.953 11.385 1.68 6.708 1.679 5.38 10.536-1.534 10.474l-81.454.137zm-219.393 54.058h-61.015c-5.456 0-7.806-7.079-3.342-10.218l.189-.134c6.356-4.377 14.698-3.98 14.698-3.98s1.19-23.687 23.634-23.687c20.291 0 28.383 19.958 31.302 30.954.948 3.572-1.777 7.065-5.466 7.065zm396.701-12.77h-54.81c-4.901 0-7.012-6.394-3.002-9.229a6.57 6.57 0 0 1 .17-.121c5.709-3.954 13.203-3.595 13.203-3.595s1.069-21.395 21.23-21.395c18.228 0 25.497 18.027 28.119 27.959.851 3.226-1.596 6.381-4.91 6.381zm-13.336 50.046h73.529c5.953 0 8.521-7.535 3.647-10.878l-.206-.141c-6.937-4.661-16.041-4.238-16.041-4.238s-1.301-25.214-25.796-25.214c-12.111 0-21.898 20.236-21.898 20.236s-16.475 0-19.201 12.713c-.824 3.852 1.939 7.522 5.966 7.522zm-41.356 2.461H490.283c-15.302 0-14.6-12.665-9.602-17.078 5.123-4.523 15.245-2.689 15.245-2.689s3.014-8.519 12.933-12.666c8.774-3.668 17.966-1.923 17.966-1.923s0-5.846 5.618-10.688c5.619-4.843 13.109-4.372 13.109-4.372s5.15-32.238 39.56-32.238c34.411 0 38.39 30.355 38.39 30.355s7.725 0 13.343 5.178c5.618 5.176 6.32 11.059 6.32 11.059s18.789-2.545 24.346 13.748c3.311 9.71-3.493 21.314-14.215 21.314zm-406.592-91.553h119.911c11.256 0 10.739-9.317 7.062-12.563-3.768-3.327-11.214-1.977-11.214-1.977s-2.217-6.267-9.513-9.317c-6.454-2.699-13.216-1.415-13.216-1.415s0-4.3-4.132-7.862c-4.133-3.562-9.643-3.216-9.643-3.216s-3.788-23.714-29.1-23.714S268.62 88.76 268.62 88.76s-5.682 0-9.815 3.808c-4.133 3.808-4.649 8.135-4.649 8.135s-13.821-1.872-17.908 10.113c-2.436 7.143 2.568 15.679 10.456 15.679z" fill="#fff" stroke="#E1E4E5" stroke-width="4"/><path d="M699.345 333.17c-15.578 3.69-32.055-9.521-32.055-9.521s8.793-19.188 24.376-22.867c15.579-3.691 32.05 9.509 32.05 9.509s-8.792 19.188-24.371 22.879z" fill="url(#a)"/><path d="M537.506 285.499c10.806 7.443 27.315 2.24 27.315 2.24s-1.022-17.269-11.836-24.705c-10.806-7.443-27.308-2.248-27.308-2.248s1.022 17.27 11.829 24.713z" fill="url(#b)"/><path d="M137.46 292.335c13.088 13.321 37.563 10.512 37.563 10.512s3.238-24.407-9.862-37.719c-13.088-13.321-37.551-10.521-37.551-10.521s-3.238 24.407 9.85 37.728z" fill="url(#c)"/><ellipse cx="583.836" cy="338.777" rx="6.371" ry="5.84" transform="rotate(180 583.836 338.777)" fill="#009688"/><ellipse cx="311.49" cy="404.077" rx="7.963" ry="7.432" transform="rotate(180 311.49 404.077)" fill="#009688"/><circle r="12.575" transform="matrix(-1 0 0 1 706.837 393.293)" fill="#E1E4E5"/><ellipse rx="7.432" ry="7.963" transform="matrix(-1 0 0 1 249.375 350.457)" fill="#E1E4E5"/><circle r="6.517" transform="matrix(-1 0 0 1 400.295 526.328)" fill="#E1E4E5"/><circle r="9.947" transform="matrix(-1 0 0 1 704.209 242.016)" fill="#E1E4E5"/><circle r="6.506" transform="scale(1 -1) rotate(-75 -9.689 -311.23)" fill="#E1E4E5"/><ellipse rx="6.658" ry="5.327" transform="matrix(-1 0 0 1 631.904 382.859)" fill="#E1E4E5"/><path d="M770.926 291.528h.174c1.031 14.614 11.9 14.839 11.9 14.839s-11.985.234-11.985 17.121c0-16.887-11.985-17.121-11.985-17.121s10.864-.225 11.896-14.839zM359.73 272.416h.139c.822 12.138 9.488 12.325 9.488 12.325s-9.556.194-9.556 14.22c0-14.026-9.556-14.22-9.556-14.22s8.662-.187 9.485-12.325z" fill="#E1E4E5"/><defs><linearGradient id="a" x1="640.681" y1="342.346" x2="777.054" y2="277.919" gradientUnits="userSpaceOnUse"><stop stop-color="#fff"/><stop offset="1" stop-color="#EEE"/></linearGradient><linearGradient id="b" x1="579.601" y1="309.921" x2="494.536" y2="220.223" gradientUnits="userSpaceOnUse"><stop stop-color="#fff"/><stop offset="1" stop-color="#EEE"/></linearGradient><linearGradient id="c" x1="189.679" y1="337.836" x2="95.06" y2="189.512" gradientUnits="userSpaceOnUse"><stop stop-color="#fff"/><stop offset="1" stop-color="#EEE"/></linearGradient></defs></svg>