<svg width="900" height="600" viewBox="0 0 900 600" fill="none" xmlns="http://www.w3.org/2000/svg"><path fill="transparent" d="M0 0h900v600H0z"/><rect x="372.838" y="116.039" width="238.028" height="91.282" rx="20" fill="#fff" stroke="#E1E4E5" stroke-width="4"/><rect x="452.662" y="144.451" width="133.942" height="10.824" rx="5.412" fill="#E1E4E5"/><rect x="452.662" y="167.451" width="86.589" height="10.824" rx="5.412" fill="#E1E4E5"/><path fill-rule="evenodd" clip-rule="evenodd" d="M410.561 184.691c-12.617 0-22.846-10.374-22.846-23.168 0-12.795 10.229-23.169 22.846-23.169s22.847 10.374 22.847 23.169c0 12.794-10.23 23.168-22.847 23.168z" fill="#009688"/><path d="m418.606 157.662-9.651 10.297-5.794-6.177" stroke="#fff" stroke-width="3.568" stroke-linecap="round" stroke-linejoin="round"/><rect x="400.515" y="253.271" width="238.028" height="91.282" rx="20" fill="#fff" stroke="#E1E4E5" stroke-width="4"/><rect x="480.339" y="281.683" width="133.942" height="10.824" rx="5.412" fill="#E1E4E5"/><rect x="480.339" y="304.683" width="86.589" height="10.824" rx="5.412" fill="#E1E4E5"/><path fill-rule="evenodd" clip-rule="evenodd" d="M438.238 321.923c-12.617 0-22.846-10.374-22.846-23.168 0-12.795 10.229-23.169 22.846-23.169s22.847 10.374 22.847 23.169c0 12.794-10.23 23.168-22.847 23.168z" fill="#133835"/><path d="m446.283 294.894-9.651 10.297-5.794-6.177" stroke="#fff" stroke-width="3.568" stroke-linecap="round" stroke-linejoin="round"/><rect x="372.838" y="390.503" width="238.028" height="91.282" rx="20" fill="#fff" stroke="#E1E4E5" stroke-width="4"/><rect x="452.662" y="418.915" width="133.942" height="10.824" rx="5.412" fill="#E1E4E5"/><rect x="452.662" y="441.915" width="86.589" height="10.824" rx="5.412" fill="#E1E4E5"/><path fill-rule="evenodd" clip-rule="evenodd" d="M410.561 459.155c-12.617 0-22.846-10.374-22.846-23.168 0-12.795 10.229-23.169 22.846-23.169s22.847 10.374 22.847 23.169c0 12.794-10.23 23.168-22.847 23.168z" fill="#009688"/><path d="m418.606 432.126-9.651 10.297-5.794-6.177" stroke="#fff" stroke-width="3.568" stroke-linecap="round" stroke-linejoin="round"/><path d="M255.487 201.898c-.582 2.328.191 4.749 1.464 6.782.9 1.436 2.159-.15 3.994-.404 2.839-.398 4.636-3.403 5.25-10.723.285-5.347.151-8.015-.147-8.482-1.06-1.671-3.788-2.23-5.938-2.069" fill="#133835"/><path fill-rule="evenodd" clip-rule="evenodd" d="M260.641 520.083s-.173 10.993 6.613 14.898c6.785 3.906 17.298 11.162 17.298 11.162l-39.992 1.348 1.14-27.507 14.941.099z" fill="#F8AE9D"/><path fill-rule="evenodd" clip-rule="evenodd" d="m243.165 532.197-.651 17.835h9.289l.637-2.298s3.497-.142 5.518.85c2.136 1.05 2.423 1.559 2.423 1.559l29.464.061s1.453-5.764-7.528-9.933c-8.981-4.171-15.521-10.089-16.763-10.695-1.251-.61-3.776-.955-5.554.479-1.777 1.433-3.184 5.202-7.212 5.32-5.185.152-8.163-6.194-9.623-3.178zM231.68 340.659s10.915 92.618 11.255 99.056c.339 6.438-3.506 17.549-3.431 29.592.075 12.044 1.404 54.489 1.404 54.489l24.078.392s10.12-76.701 10.229-88.203c.108-11.502 1.036-94.219 1.036-94.219l-44.571-1.107z" fill="#133835"/><path fill-rule="evenodd" clip-rule="evenodd" d="m202.232 518.15-4.692 28.497 17.298-.087.547-28.857-13.153.447z" fill="#F8AE9D"/><path fill-rule="evenodd" clip-rule="evenodd" d="M199.776 530.605a3 3 0 0 0-2.361 2.833l-.16 4.852c-2.467 2.743-3.622 10.707-3.728 11.473a.592.592 0 0 0-.006.126c.286 3.888 25.775 3.825 27.921.144.078-.134.083-.29.058-.444-.239-1.467-1.645-9.408-4.383-11.555l-.018-4.802a3 3 0 0 0-2.22-2.886l-3.178-.854c-2.528-3.698-5.975-3.567-8.928.462l-2.997.651zm10.949-189.074s-7.709 63.19-7.604 75.291c.104 12.102 2.372 17.416-.855 26.097-3.228 8.681-5.981 77.97-5.981 77.97l23.868 1.988s15.247-74.143 16.905-84.423c1.659-10.28 22.151-97.795 22.151-97.795l-48.484.872z" fill="#133835"/><path fill-rule="evenodd" clip-rule="evenodd" d="M329.738 227.916s-1.993-11.105-1.276-13.354c.612-1.944 6.397-4.746 6.397-4.746s10.061-15.894 12.263-14.276c1.791 1.312-5.24 13.03-5.24 13.03s6.412 6.726 6.322 9.733c-.09 3.007-10.464 12.42-10.464 12.42l-8.002-2.807zm-103.408 2.609s6.626-1.555 6.856-12.413c.23-10.857.068-14.563.068-14.563l15.71-.264s.158 12.101.161 16.477c.006 9.529 7.083 12.103 7.083 12.103s-.589 10.419-13.814 11.163c-10.326.581-16.064-12.503-16.064-12.503z" fill="#F8AE9D"/><path fill-rule="evenodd" clip-rule="evenodd" d="M231.812 198.06c-6.512-.252-5.45 9.28 1.314 9.267 0 0 7.269 14.616 18.682 14.654 5.497.019 7.292-4.878 8.94-8.316 1.648-3.437 2.857-8.579 2.958-11.727.108-3.357.122-14.385.122-14.385l-32.27-.014.254 10.521z" fill="#F8AE9D"/><path fill-rule="evenodd" clip-rule="evenodd" d="M256.455 231.219s16.923 5.283 21.002 11.593c13.137 11.542 29.569 27.392 29.569 27.392s15.649-39.276 20.765-43.754c3.5-3.064 10.474.725 11.774 4.618 1.669 5.001-9.049 34.334-14.111 48.187-.981 2.684-1.749 4.787-2.174 6.02-3.087 8.955-10.597 14.091-19.737 8.399-3.684-2.294-14.647-9.812-24.001-16.628-.146 7.16-.393 14.705-.627 21.871v.001c-.568 17.409-1.064 32.58.127 34.551 5.899 9.771-1.945 16.479-27.915 18.943-25.969 2.465-49.009.446-44.828-12.593.871-2.718.86-8.566.426-16.163a305.858 305.858 0 0 1-7.627-.503c-10.838-.854-18.854-5.511-19.972-17.606-.783-8.47 15.353-48.233 21.404-61.307 1.415-3.059 3.603-4.964 6.083-5.913.577-.644 1.227-1.097 1.957-1.338 4.445-1.465 20.381-8.16 20.381-8.16l18.957 12.403 8.547-10.013zm-51.486 69.994-.043.11.053.007-.01-.117z" fill="#009688"/><path fill-rule="evenodd" clip-rule="evenodd" d="M247.032 311.707s5.782-1.163 8.149-3.02c2.365-1.858 9.532-3.171 9.532-3.171l-2.293 4.828s17.564-1.649 17.98.084c.417 1.732-4.664 3.616-4.664 3.616s-2.505 4.68-4.93 7.392c-2.295 2.567-13.695 2.261-17.692.659-3.453-1.383-7.208-.691-7.208-.691l1.126-9.697z" fill="#F8AE9D"/><path d="M233.583 187.988c.951 1.246 2.628 1.52 4.01 1.766 1.858.331 2.777 1.021 3.741 2.871.611 1.182 1.221 2.477 2.314 3.117.89.524.863-.801.995-1.826a2.018 2.018 0 0 1 .056-.284c.212-.819 1.081-.682 1.334.126.231.732.726 1.351 1.356 1.696.103.056.212.105.321.084.148-.021.264-.162.36-.288.201-.264.4-.598.606-.951.68-1.17 1.977-.759 2.736.36.476.696 1.042 1.414 1.819 1.576.251.056.566.014.682-.232.147-.303-.084-.606-.045-.915.032-.289.154-.415.289-.662.526-.949 1.746-.984 2.49-.193a27.806 27.806 0 0 0 1.617 1.587c.238.211.585.422.823.211.128-.113.16-.303.186-.486.135-.893.264-1.787.399-2.681.077-.499.34-1.154.79-1.027.219.063.347.296.469.507.148.267 2.79 3.314 2.841 3.082.412-1.731 1.254-3.307 1.665-5.038 2.661-11.139-9.146-20.096-18.164-20.145-2.005-.014-3.837.019-5.785.49-2.076.507-4.267 1.311-6.151 2.444-2.641 1.583-4.64 4.461-4.126 7.895" fill="#133835"/><path d="M240.916 184.388c1.272 1.454 1.608 3.5 1.727 5.433.174 2.915-.063 5.944-1.397 8.532-.38.736-.66 4.382-1.246 4.18-.187-.063-.156-2.89-.649-4.413-.76-2.361-4.263-3.262-5.84-1.77-2.519 2.374-1.041 5.258-.206 7.052.499 1.083 1.29 2.298 1.427 3.444.169 1.467.219 6.812-.729 8.059-.791 1.045-1.633-4.004-2.35-4.999-5.304-7.411-10.391-26.28-1.334-30.373 1.378-.623 5.629-.944 6.919-.151" fill="#133835"/><path d="M326.653 139.822c-10.433 2.068-22.317-8.922-22.317-8.922s5.039-14.337 15.476-16.396c10.433-2.068 22.313 8.914 22.313 8.914s-5.039 14.337-15.472 16.404z" fill="url(#a)"/><path d="M698.56 469.526c12.468 8.588 31.517 2.585 31.517 2.585s-1.18-19.926-13.657-28.506c-12.468-8.588-31.508-2.593-31.508-2.593s1.179 19.925 13.648 28.514z" fill="url(#b)"/><path d="M710.389 218.388c-12.965 13.196-37.21 10.414-37.21 10.414s-3.208-24.177 9.769-37.365c12.965-13.196 37.198-10.422 37.198-10.422s3.208 24.177-9.757 37.373z" fill="url(#c)"/><circle cx="319.79" cy="487.373" r="8.072" transform="rotate(180 319.79 487.373)" fill="#009688"/><circle r="6" transform="matrix(-1 0 0 1 130 337.533)" fill="#009688"/><circle r="6.359" transform="matrix(-1 0 0 1 369.971 240.025)" fill="#009688"/><ellipse rx="9.432" ry="8.646" transform="matrix(-1 0 0 1 586.388 520.237)" fill="#E1E4E5"/><circle r="5.5" transform="matrix(-1 0 0 1 166.5 437.033)" fill="#E1E4E5"/><circle r="7.507" transform="matrix(-1 0 0 1 147.397 222.723)" fill="#E1E4E5"/><ellipse rx="7.63" ry="8.266" transform="matrix(-1 0 0 1 512.297 56.266)" fill="#E1E4E5"/><circle r="10.48" transform="scale(1 -1) rotate(-75 -47.385 -389.076)" fill="#E1E4E5"/><circle r="10.174" transform="matrix(-1 0 0 1 189.273 116.674)" fill="#E1E4E5"/><ellipse rx="10.725" ry="8.58" transform="matrix(-1 0 0 1 765.275 391.011)" fill="#E1E4E5"/><circle r="21.811" transform="scale(1 -1) rotate(-75 125.241 -617.212)" fill="#E1E4E5"/><path d="M638.123 87.21h.203c1.204 17.445 13.89 17.714 13.89 17.714s-13.989.279-13.989 20.438c0-20.159-13.989-20.438-13.989-20.438s12.681-.269 13.885-17.715zM376.747 48h.212c1.259 18.028 14.522 18.305 14.522 18.305s-14.625.289-14.625 21.12c0-20.831-14.625-21.12-14.625-21.12s13.257-.277 14.516-18.305z" fill="#E1E4E5"/><defs><linearGradient id="a" x1="287.131" y1="143.974" x2="377.174" y2="101.799" gradientUnits="userSpaceOnUse"><stop stop-color="#fff"/><stop offset="1" stop-color="#EEE"/></linearGradient><linearGradient id="b" x1="747.13" y1="497.705" x2="648.98" y2="394.209" gradientUnits="userSpaceOnUse"><stop stop-color="#fff"/><stop offset="1" stop-color="#EEE"/></linearGradient><linearGradient id="c" x1="658.66" y1="263.462" x2="752.391" y2="116.532" gradientUnits="userSpaceOnUse"><stop stop-color="#fff"/><stop offset="1" stop-color="#EEE"/></linearGradient></defs></svg>