<svg width="900" height="600" viewBox="0 0 900 600" fill="none" xmlns="http://www.w3.org/2000/svg"><path fill="transparent" d="M0 0h900v600H0z"/><path d="M644.803 362.29s-17.673 11.565-32.616 10.381c-14.942-1.185-24.264-16.031-29.267-21.421-5-5.39-17.602-18.412-13.821-23.873 3.78-5.462 7.141.42 8.401 4.2 1.261 3.781.021-3.755 1.903-3.348 1.878.408 1.13 4.983 2.975 6.478 1.844 1.491 29.15 15.774 35.031 14.934 5.881-.84 8.456-2.453 10.111-4.167 1.651-1.718 19.471 13.082 17.283 16.816z" fill="#F8AE9D"/><path d="m587.015 502.961-.046 7.919-18.093 9.75v4.264h36.186v-7.309l1.895-14.624h-19.942z" fill="#E1E4E5"/><path d="M677.78 406.362s-49.953-17.073-73.024-14.296c-22.723 4.621-22.895 32.028-22.811 48.151.084 16.123 2.76 62.753 2.76 62.753h25.398s9.087-41.938 12.12-61.72c0 0 1.248-8.855 7.931-5.495 27.365 13.762 44.555 7.562 47.676-5.461 3.121-13.023-.05-23.932-.05-23.932z" fill="#133835"/><path d="M657.128 333.279s-16.346 8.045-29.637 10.057c-13.863 2.1 5.461 20.164 20.584 20.164s9.053-30.221 9.053-30.221z" fill="#009688"/><path d="m724.582 512.69 9.696.046 9.044 12.183h4.524v-34.12h-7.754l-15.51 3.092v18.799z" fill="#E1E4E5"/><path d="M724.611 513.471v-21.004c-20.496-2.1-28.511-2.348-50.037-2.449-15.459-.071-7.439-4.272-7.439-4.272 16.929-11.763 34.308-40.329 34.308-40.329 10.246-15.963 4.457-40.749 4.457-40.749s-18.715 5.462-34.754 4.621c0 0-17.375 21.425-47.676 68.475-12.106 18.799-10.72 39.421 12.019 40.505 0 0 54.813.664 89.122-4.798z" fill="#133835"/><path d="M662.946 331.019s-14.451 2.655-16.219 21.365c-1.319 13.964-.231 32.902-.231 38.993 0 6.091-3.105 5.579 1.159 7.406 4.264 1.828 26.886 20.165 57.939 5.999 0 0 4.848-28.07 3.394-45.067-.916-10.691-3.781-28.146-22.281-29.646l-23.761.95z" fill="#009688"/><path d="m667.282 301.89-7.944-.185s-6.562 28.734 9.687 25.466l-.306 3.033s-4.97.727-6.852 1.147c0 0 5.637 4.852 12.426 4.31 6.789-.542 11.523-4.966 11.523-4.966l-3.335-.336-1.235-12.065s3.881-2.058 4.125-4.482c.244-2.424-.303-3.092-2.059-3.882-1.756-.789-4.486 2-4.486 2s-2.483-5.759-2.722-9.46l-8.822-.58z" fill="#F8AE9D"/><path d="m590.943 317.29 120.473 99.082a9.483 9.483 0 0 1 1.387 13.254 9.486 9.486 0 0 1-13.317 1.492L577.08 333.254l13.863-15.964z" fill="#133835"/><path d="M546.414 227.181c33.527 0 60.703 27.176 60.703 60.703s-27.176 60.703-60.703 60.703-60.703-27.176-60.703-60.703 27.176-60.703 60.703-60.703zm0 103.619c23.701 0 42.916-19.215 42.916-42.916 0-23.701-19.215-42.916-42.916-42.916-23.702 0-42.916 19.215-42.916 42.916 0 23.701 19.214 42.916 42.916 42.916z" fill="#E1E4E5"/><path d="M692.273 397.157s-17.673 11.565-32.616 10.381c-14.942-1.185-24.264-16.031-29.267-21.421-4.999-5.389-17.602-18.412-13.821-23.873 3.781-5.461 7.141.42 8.402 4.201 1.26 3.78.021-3.756 1.903-3.348 1.877.407 1.13 4.982 2.974 6.477 1.844 1.492 29.15 15.775 35.031 14.934 5.881-.84 8.456-2.453 10.112-4.167 1.651-1.718 19.471 13.082 17.282 16.816z" fill="#F8AE9D"/><path d="M707.711 350.737s.857 27.046-5.444 38.388c-6.302 11.343-6.751 11.712-12.62 5.646-5.864-6.066-16.366-12.199-14.896-17.114 1.47-4.915 4.491-13.397 5.671-20.879 1.26-7.981 4.201-24.365 10.502-26.465 0 0 15.09 5.566 16.787 20.424z" fill="#009688"/><path d="M684.889 318.122c-1.298 2.072-4.408 2.062-3.861-.321.62-2.708 1.007-6.298-1.302-5.874-2.309.424-2.618 2.198-3.423 1.056-.805-1.142-.343-5.539-6.97-6.573-6.627-1.03-9.584.987-12.53-.709-1.765-1.015-2.35-3.103-2.536-4.616-.052-.429.315-.982.559-.625.231.337.899.39.748.01-.931-2.349-2.155-7.383 2.706-10.505 6.509-4.181 12.262-.355 15.7.229 7.578 1.29 12.454 2.282 14.4 7.551 1.612 4.371.144 14.577-3.491 20.377z" fill="#133835"/><rect x="159.609" y="328.273" width="95.457" height="95.457" rx="47.728" fill="#009688"/><path fill-rule="evenodd" clip-rule="evenodd" d="M229.03 396.023v3.191c0 1.762-1.411 3.192-3.149 3.192h-37.794c-1.738 0-3.149-1.43-3.149-3.192v-3.242c0-9.658 10.891-15.932 22.046-15.932s22.046 6.278 22.046 15.932m-14.141-43.969c4.367 4.367 4.367 11.448 0 15.815-4.368 4.367-11.448 4.367-15.815 0-4.367-4.367-4.367-11.448 0-15.815 4.367-4.367 11.447-4.367 15.815 0z" fill="#fff"/><rect x="387.88" y="351.1" width="95.457" height="95.457" rx="47.728" fill="#009688"/><path fill-rule="evenodd" clip-rule="evenodd" d="M457.301 418.85v3.191c0 1.762-1.411 3.192-3.149 3.192h-37.794c-1.738 0-3.149-1.43-3.149-3.192v-3.242c0-9.657 10.891-15.932 22.046-15.932 11.156 0 22.046 6.278 22.046 15.932M443.16 374.83c4.367 4.367 4.367 11.448 0 15.815-4.367 4.367-11.448 4.367-15.815 0-4.367-4.367-4.367-11.448 0-15.815 4.367-4.367 11.448-4.367 15.815 0z" fill="#fff"/><rect x="292.224" y="232.616" width="95.457" height="95.457" rx="47.728" fill="#009688"/><path fill-rule="evenodd" clip-rule="evenodd" d="M361.645 300.366v3.192c0 1.761-1.411 3.191-3.15 3.191h-37.793c-1.739 0-3.15-1.43-3.15-3.191v-3.243c0-9.657 10.891-15.932 22.047-15.932 11.155 0 22.046 6.278 22.046 15.932m-14.142-43.969c4.367 4.367 4.367 11.448 0 15.815-4.367 4.367-11.448 4.367-15.815 0-4.367-4.367-4.367-11.448 0-15.815 4.367-4.367 11.448-4.367 15.815 0z" fill="#fff"/><rect x="152" y="170.656" width="95.457" height="95.457" rx="47.728" fill="#009688"/><path fill-rule="evenodd" clip-rule="evenodd" d="M221.421 238.407v3.191c0 1.762-1.411 3.192-3.149 3.192h-37.794c-1.738 0-3.149-1.43-3.149-3.192v-3.242c0-9.658 10.891-15.932 22.046-15.932s22.046 6.278 22.046 15.932m-14.141-43.969c4.367 4.367 4.367 11.448 0 15.815-4.368 4.367-11.448 4.367-15.815 0-4.368-4.367-4.368-11.448 0-15.815 4.367-4.367 11.447-4.367 15.815 0z" fill="#fff"/><rect x="281.354" y="75" width="95.457" height="95.457" rx="47.728" fill="#009688"/><path fill-rule="evenodd" clip-rule="evenodd" d="M350.775 142.75v3.192c0 1.761-1.411 3.191-3.15 3.191h-37.793c-1.739 0-3.15-1.43-3.15-3.191v-3.243c0-9.657 10.891-15.932 22.047-15.932 11.155 0 22.046 6.278 22.046 15.932M336.633 98.73c4.367 4.367 4.367 11.448 0 15.815-4.367 4.367-11.447 4.367-15.815 0-4.367-4.367-4.367-11.448 0-15.815 4.368-4.367 11.448-4.367 15.815 0z" fill="#fff"/><rect x="408.534" y="128.263" width="95.457" height="95.457" rx="47.728" fill="#009688"/><path fill-rule="evenodd" clip-rule="evenodd" d="M477.955 196.014v3.191c0 1.762-1.411 3.191-3.15 3.191h-37.793c-1.739 0-3.15-1.429-3.15-3.191v-3.242c0-9.658 10.891-15.932 22.047-15.932 11.155 0 22.046 6.277 22.046 15.932m-14.142-43.969c4.367 4.367 4.367 11.447 0 15.815-4.367 4.367-11.448 4.367-15.815 0-4.367-4.368-4.367-11.448 0-15.815 4.367-4.368 11.448-4.368 15.815 0z" fill="#fff"/><rect x="574.846" y="122.828" width="95.457" height="95.457" rx="47.728" fill="#009688"/><path fill-rule="evenodd" clip-rule="evenodd" d="M644.267 190.579v3.191c0 1.762-1.411 3.191-3.15 3.191h-37.793c-1.739 0-3.15-1.429-3.15-3.191v-3.243c0-9.657 10.891-15.931 22.047-15.931 11.155 0 22.046 6.277 22.046 15.931m-14.142-43.968c4.367 4.367 4.367 11.447 0 15.815-4.367 4.367-11.448 4.367-15.815 0-4.367-4.368-4.367-11.448 0-15.815 4.367-4.368 11.448-4.368 15.815 0z" fill="#fff"/></svg>