<svg width="900" height="600" viewBox="0 0 900 600" fill="none" xmlns="http://www.w3.org/2000/svg"><path fill="transparent" d="M0 0h900v600H0z"/><path d="M617.068 185.807s-15.873-4.26-21.345 32.129c-5.472 36.388-5.511 56.321-5.511 56.321s-2.01 7.912-7.911 5.142c-5.901-2.771-16.057-12.803-22.945-8.094-7.14 4.888-6.795 14.559-.976 27.004 5.818 12.445 17.563 40.154 18.617 42.672 1.039 2.459.824 6.678-3.497 5.431-4.322-1.247-32.045-17.016-38.735-3.419-6.704 13.6 15.208 45.595 17.533 49.133 2.325 3.539 2.127 5.459.604 7.038-1.523 1.579-10.347-4.601-18.411-8.77-8.063-4.169-18.153-7.573-21.36.597-3.207 8.169 3.93 35.277 43.554 69.947l19.41 14.863 22.831-9.044c47.674-22.332 62.047-46.406 61.225-55.142-.821-8.736-11.454-8.26-20.363-6.49-8.909 1.77-19.098 5.26-20.124 3.319-1.026-1.94-.695-3.833 2.521-6.593 3.216-2.761 33.129-27.422 30.457-42.356-2.668-14.918-33.675-7.449-38.172-7.462-4.494.001-3.521-4.105-1.847-6.183 1.711-2.12 20.686-25.496 29.717-35.844 9.036-10.333 12.044-19.541 6.537-26.214-5.303-6.444-17.852.4-24.286 1.428-6.434 1.028-6.171-7.145-6.171-7.145s5.498-19.164 10.312-55.645c4.814-36.481-12.018-36.703-12.018-36.703" fill="#E1E4E5"/><path d="M575.69 470.688c3.631-26.781 8.968-63.734 15.014-104.534 6.036-40.78 11.458-77.709 15.253-104.471 1.881-13.353 3.397-24.171 4.454-31.685.523-3.716.934-6.612 1.219-8.618.14-.956.257-1.699.333-2.242.088-.498.143-.766.143-.766s-.011.256-.061.776c-.062.539-.145 1.289-.252 2.251-.251 2.014-.614 4.912-1.07 8.642-.935 7.497-2.365 18.34-4.19 31.725-3.631 26.781-8.972 63.72-15.004 104.515-6.031 40.796-11.468 77.729-15.248 104.487" fill="#fff"/><path d="M573.004 285.925c.055-.031.438.452 1.128 1.375.687.908 1.632 2.252 2.777 3.924 2.292 3.357 5.341 8.063 8.607 13.343 3.179 5.193 6.069 9.893 8.291 13.523.998 1.599 1.837 2.957 2.534 4.084.606.961.912 1.512.857 1.542-.055.031-.453-.448-1.139-1.356a114.88 114.88 0 0 1-2.751-3.947c-2.266-3.38-5.249-8.135-8.497-13.404l-8.383-13.451c-.998-1.599-1.851-2.953-2.548-4.08-.61-.976-.916-1.527-.876-1.553zm26.453 37.487c-.129-.187 9.305-6.908 21.081-14.985 11.773-8.091 21.434-14.494 21.563-14.307.13.187-9.308 6.894-21.081 14.985-11.787 8.095-21.434 14.494-21.563 14.307zm-12.091 62.23c-.016-.059.588-.284 1.672-.67 1.264-.417 2.82-.929 4.649-1.546 3.923-1.304 9.349-3.138 15.255-5.369 5.909-2.217 11.193-4.408 15.018-6.018 1.778-.745 3.284-1.386 4.521-1.908 1.067-.444 1.676-.654 1.702-.614.031.055-.535.365-1.56.909a114.207 114.207 0 0 1-4.424 2.15 215.296 215.296 0 0 1-14.955 6.254 223.777 223.777 0 0 1-15.377 5.149c-1.996.582-3.62 1.018-4.732 1.3-1.126.285-1.754.422-1.769.363zm-31.381-28.651c.036-.041.509.307 1.355.982.831.68 2.015 1.675 3.471 2.915 2.915 2.495 6.9 5.968 11.262 9.847a855.159 855.159 0 0 1 11.106 10.031c1.409 1.3 2.531 2.36 3.304 3.118.769.744 1.173 1.189 1.137 1.231-.037.041-.51-.307-1.355-.982-.831-.68-2.016-1.676-3.471-2.915a824.97 824.97 0 0 1-11.263-9.847c-4.362-3.879-8.289-7.432-11.091-10.035-1.408-1.3-2.531-2.36-3.304-3.118-.783-.74-1.202-1.181-1.151-1.227zm-17.656 53.578c.037-.041.649.412 1.72 1.28 1.181.981 2.685 2.224 4.463 3.725a1302.5 1302.5 0 0 1 14.526 12.517c5.64 4.929 10.721 9.422 14.369 12.701 1.717 1.566 3.163 2.887 4.296 3.928.995.937 1.538 1.487 1.501 1.529-.036.041-.648-.412-1.719-1.28-1.181-.981-2.685-2.224-4.464-3.725a1312.828 1312.828 0 0 1-14.525-12.517 1462.149 1462.149 0 0 1-14.369-12.701 1498.884 1498.884 0 0 1-4.296-3.929c-1.01-.932-1.538-1.486-1.502-1.528zm40.131 34.55c-.016-.059.739-.372 2.102-.895 1.525-.567 3.481-1.297 5.828-2.163 4.919-1.84 11.72-4.391 19.136-7.422a626.473 626.473 0 0 0 18.884-8.066 864.715 864.715 0 0 0 5.686-2.521c1.347-.582 2.102-.895 2.132-.84.031.055-.685.452-1.99 1.134a169.46 169.46 0 0 1-5.589 2.764 349.786 349.786 0 0 1-18.806 8.298 352.658 352.658 0 0 1-19.258 7.202c-2.496.843-4.52 1.496-5.926 1.92-1.39.42-2.173.63-2.199.589z" fill="#fff"/><path d="M333.928 463.853V250m222 213.853V250" stroke="#E1E4E5" stroke-width="4" stroke-linecap="round" stroke-linejoin="round"/><path fill-rule="evenodd" clip-rule="evenodd" d="M297.047 348.23h295.64V314h-295.64v34.23zm0-55.383h295.64v-36.304h-295.64v36.304z" fill="#fff" stroke="#E1E4E5" stroke-width="4"/><path fill-rule="evenodd" clip-rule="evenodd" d="M268 397.618h353.733v-25.934H268v25.934z" fill="#fff"/><path fill-rule="evenodd" clip-rule="evenodd" d="M268 397.618h353.733v-25.934H268v25.934z" fill="#fff" stroke="#E1E4E5" stroke-width="4"/><path fill-rule="evenodd" clip-rule="evenodd" d="M461.328 450.714s6.833 13.801 1.232 18.15c-5.61 4.349-20.428 12.5-20.428 12.5l39.258-2.467-8.727-30.098-11.335 1.915z" fill="#F8AE9D"/><path fill-rule="evenodd" clip-rule="evenodd" d="M477.501 463.202c-1.236.59.796 6.135-3.551 5.745-4.345-.388-7.074-6.12-10.278-5.747-3.206.371-5.24 6.143-11.342 10.163-6.1 4.021-15.146 8.816-14.54 12.858.606 4.043 14.841 5.125 22.053 3.787 7.211-1.337 10.578-4.236 15.256-4.005 4.679.231 7.619-.342 9.086-3.346 1.466-3.005-5.259-20.135-6.684-19.455zm42.965-134.121c-11.885.531-78.033 15.161-90.051 17.647-12.019 2.486-22.179 15.936-13.015 31.51 10.293 17.483 36.851 67.134 43.299 78.327 3.192 5.54 19.293 2.434 15.511-6.865-7.051-17.333-10.325-60.877-28.3-76.754 0 0 60.45 10.521 86.561-1.53 18.978-8.76 14.684-43.618-14.005-42.335z" fill="#133835"/><path fill-rule="evenodd" clip-rule="evenodd" d="M437.558 254.893s.134-7.065-3.249-12.119c-3.382-5.054-3.517-10.422-6.077-10.246-2.56.176-.025 12.653-.025 12.653s-3.248-1.241-5.582-2.81c-2.333-1.57-9.409-9.308-11.063-7.937-2.803 2.336 1.712 15.516 4.172 18.151 2.468 2.636 14.646 10.001 14.646 10.001l35.864 36.13 5.362-19.18-34.048-24.643z" fill="#F8AE9D"/><path fill-rule="evenodd" clip-rule="evenodd" d="M509.292 251.704c-5.529 12.823-15.652 36.379-19.825 43.407-5.23 8.801-13.477 12.679-23.133 6.149-2.02-1.366-7.822-6.145-7.822-6.145.858-8.365 3.984-15.357 9.371-20.978l3.658 3.027s10.376-26.597 18.722-42.005c7.229-13.33 27.444-2.949 19.029 16.545zm23.895-49.775v11.347l8.332-6.709s2.561-10.871 4.644-18.945c1.306-5.064 4.489-22.199-8.323-21.397-10.495-18.5-41.06-7.05-41.303 15.552-.293 27.185-.054 37.769-.054 37.769 17.284.992 27.012-1.507 36.704-17.617z" fill="#133835"/><path fill-rule="evenodd" clip-rule="evenodd" d="M541.7 223.533s-7.751-1.82-8.02-14.521c-.269-12.7-.08-17.035-.08-17.035l-17.074-.309s-.185 14.155-.188 19.275c-.007 12.448-9.162 13.469-9.162 13.469s1.565 10.27 17.035 11.14c12.079.681 17.489-12.019 17.489-12.019z" fill="#F8AE9D"/><path fill-rule="evenodd" clip-rule="evenodd" d="M537.58 185.635c7.617-.295 6.374 10.855-1.538 10.84 0 0-4.595 15.838-20.55 15.838-12.957 0-13.8-18.46-13.918-22.143-.126-3.926-.142-16.826-.142-16.826l36.445-.017-.297 12.308z" fill="#F8AE9D"/><path fill-rule="evenodd" clip-rule="evenodd" d="M538.169 185.561c-3.156.521-2.773 2.611-3.632 2.428-4.358-.927-21.999.296-24.271-9.405-2.826 6.06-3.517 7.55-9.741 9.177v-17.76l39.365-3.775s-.611 19.151-1.721 19.335z" fill="#133835"/><path fill-rule="evenodd" clip-rule="evenodd" d="M539.967 222.234c-9.728 5.957-20.973 8.142-31.441 1.672-17.084 33.685-21.341 73.876-17.232 118.298 24.911 9.862 45.848 7.922 63.672-3.35l-14.999-116.62z" fill="#009688"/><path fill-rule="evenodd" clip-rule="evenodd" d="M418.743 451.269s.206 16.243-13.178 22.316c-13.376 6.072-22.906 5.706-21.693 10.401 1.213 4.695 36.029 4.505 39.281.833 2.771-3.123 8.797-32.207 10.456-29.983l-14.866-3.567z" fill="#F8AE9D"/><path fill-rule="evenodd" clip-rule="evenodd" d="M428.465 474.208c-2.051-1.476-3.776 7.035-9.348 4.668-5.571-2.366-1.178-10.189-4.684-11.632-3.506-1.443-10.277 6.315-19.27 8.2-8.992 1.884-16.293 3.534-18.368 7.034-1.788 3.008 0 3.97 0 3.97s8.657 4.323 14.036 5.275c7.814 1.382 30.4 2.302 32.874-.218 1.52-1.546 5.785-16.558 4.76-17.297zM557.704 324.06s17.279 36.49-7.003 49.021c-23.483 12.117-93.783-2.215-93.783-2.215s1.257 10.114 0 19.134c-3.281 23.559-18.884 62.809-22.185 67.741-4.566 6.82-18.473 1.677-18.734-4.002-.262-5.679 10.483-78.208 12.117-92.039 1.626-13.831 6.758-15.84 21.749-19.621 3.444-.869 44.169-10.99 47.9-10.695 32.056 2.535 59.939-7.324 59.939-7.324z" fill="#133835"/><path fill-rule="evenodd" clip-rule="evenodd" d="M539.541 222.261c-16.11 52.773-25.771 127.592 24.543 114.576-26.727-49.21 9.607-71.358 1.371-96.79-2.815-8.696-25.704-18.469-25.914-17.786zm-30.163 1.275c-6.148 15.42-9.103 27.518-11.86 50.151-2.299 18.85-1.148 57.749-1.148 57.749l-7.598 1.494s-5.431-60.097-3.615-67.835c3.047-12.984 5.112-20.571 9.135-32.441 2.217-6.515 15.086-9.118 15.086-9.118z" fill="#133835"/><path fill-rule="evenodd" clip-rule="evenodd" d="M536.16 282.172s-9.919-9.932-13.355-11.085c-3.435-1.152-22.252-2.537-22.125.067.144 2.791 12.253 2.63 13.373 4.003 1.119 1.372 2.676 12.057 6.909 13.11 4.224 1.054 12.98 4.172 12.98 4.172l38.977 20.139-4.152-20.137-32.607-10.269z" fill="#F8AE9D"/><path fill-rule="evenodd" clip-rule="evenodd" d="M566.014 240.119c11.823 16.686 21.917 42.103 25.791 52.013 3.875 9.909-.033 24.856-17.071 21.921-2.029-.349-5.328-1.633-5.328-1.633-6.265-8.588-7.364-15.96-5.026-22.525l2.204.93s-16.934-30.015-21.069-38.061c-6.907-13.438 10.085-27.347 20.499-12.645z" fill="#133835"/><path d="M517.802 470.469c-1.016-.413-1.71-1.433-1.703-2.5a2.779 2.779 0 0 1 1.802-2.601c.299-.11.62-.165.936-.223 1.89-.353 3.786-.671 5.628-1.251a3.008 3.008 0 0 1 2.407.23c1.018.551 1.516 1.431 1.476 2.563-.042 1.137-.647 1.956-1.682 2.436a2.94 2.94 0 0 1-.609.202c-2.164.48-4.322.995-6.518 1.318-.601.089-1.178.058-1.737-.174zm9.373 7.159c-.349.874-1.006 1.491-1.862 1.772-2.105.686-4.235 1.335-6.445 1.582-2.018.222-3.504-1.579-2.976-3.514.303-1.107 1.093-1.779 2.199-1.976 1.428-.253 2.8-.671 4.203-1.005.446-.107.855-.295 1.275-.465a2.764 2.764 0 0 1 3.031.638c.771.786.993 1.941.575 2.968zm5.856-6.099c.308-.761.857-1.273 1.619-1.561a36.649 36.649 0 0 1 3.5-1.127 6.091 6.091 0 0 0 1.544-.626 2.968 2.968 0 0 1 4.171 1.22c.746 1.489.104 3.227-1.464 3.947a4.115 4.115 0 0 1-.675.252c-1.758.44-3.494.967-5.223 1.51-1.072.335-2.061.153-2.881-.653-.801-.792-1.018-1.913-.591-2.962zm3.618 7.229c1.218.536 1.748 1.45 1.848 2.619.098 1.157-.364 2.087-1.342 2.727a4.78 4.78 0 0 1-1.157.539c-1.427.454-2.844.918-4.271 1.372-.909.286-1.801.248-2.609-.307-.888-.614-1.313-1.483-1.193-2.556.123-1.129.759-1.93 1.823-2.339a39.284 39.284 0 0 1 2.509-.843c.638-.196 1.232-.424 1.773-.869.801-.667 1.75-.689 2.619-.343zm17.477 1.802c-.246.611-.646 1.108-1.227 1.431a5.712 5.712 0 0 1-1.015.462c-1.192.389-2.371.81-3.55 1.23-1.787.635-3.538-.413-3.767-2.213-.142-1.129.421-2.193 1.496-2.786.799-.441 1.663-.726 2.527-.998.463-.146.888-.326 1.289-.608 1.088-.763 2.38-.689 3.41.146.975.793 1.316 2.146.837 3.336zm-52.407-10.985c.279-.611.679-1.061 1.232-1.364a3.808 3.808 0 0 1 1.2-.438c1.128-.188 2.259-.414 3.397-.546 2.063-.237 3.603 1.496 3.089 3.476-.267 1.037-.984 1.687-2.009 1.97-.329.091-.682.114-1.021.181-.915.173-1.842.282-2.754.495-1.078.255-2.013-.087-2.714-.948-.709-.857-.792-1.832-.42-2.826zm31.392-13.447c1.126.478 1.769 1.432 1.765 2.539-.007 1.191-.573 2.026-1.633 2.535a2.369 2.369 0 0 1-.759.237c-1.01.121-2.015.23-3.025.305a2.666 2.666 0 0 1-1.609-.406c-.984-.615-1.484-1.697-1.289-2.81.201-1.129 1.014-2.044 2.129-2.232 1.102-.186 2.225-.266 3.338-.37.405-.04.799.058 1.083.202zm-243.108 11.925c-1.084-.441-1.824-1.53-1.817-2.669a2.965 2.965 0 0 1 1.924-2.776c.318-.118.661-.177.998-.238 2.018-.377 4.042-.716 6.008-1.336a3.215 3.215 0 0 1 2.57.246c1.086.588 1.618 1.528 1.575 2.736-.045 1.213-.691 2.088-1.795 2.6a3.14 3.14 0 0 1-.65.216c-2.31.512-4.614 1.062-6.958 1.407-.642.095-1.258.061-1.855-.186zm10.006 7.642c-.372.933-1.074 1.592-1.987 1.892-2.248.732-4.522 1.425-6.88 1.688-2.155.238-3.741-1.685-3.177-3.75.323-1.182 1.166-1.899 2.347-2.11 1.524-.27 2.989-.716 4.487-1.073.476-.114.912-.314 1.361-.496a2.95 2.95 0 0 1 3.235.681 2.924 2.924 0 0 1 .614 3.168zm6.251-6.51c.329-.812.915-1.359 1.728-1.667a39.153 39.153 0 0 1 3.737-1.202c.577-.156 1.125-.359 1.647-.669a3.17 3.17 0 0 1 4.453 1.302c.796 1.589.112 3.445-1.563 4.213a4.36 4.36 0 0 1-.72.27c-1.877.47-3.73 1.032-5.575 1.612-1.145.357-2.2.163-3.076-.698-.855-.845-1.087-2.042-.631-3.161zm3.862 7.717c1.3.572 1.866 1.547 1.973 2.796.105 1.234-.389 2.227-1.433 2.91-.38.251-.803.436-1.235.576-1.522.485-3.036.98-4.559 1.465-.97.304-1.922.264-2.785-.329-.947-.655-1.401-1.583-1.274-2.728.132-1.205.811-2.06 1.947-2.497a42.282 42.282 0 0 1 2.678-.9c.681-.209 1.315-.452 1.892-.927.855-.712 1.869-.736 2.796-.366zm18.657 1.923c-.263.653-.69 1.182-1.31 1.528a6.193 6.193 0 0 1-1.083.493 149.95 149.95 0 0 0-3.79 1.313c-1.907.678-3.777-.441-4.021-2.363-.152-1.205.449-2.341 1.597-2.974.853-.471 1.775-.775 2.697-1.064.494-.156.948-.349 1.377-.65 1.16-.814 2.54-.735 3.639.156 1.041.846 1.406 2.291.894 3.561zm-55.944-11.726c.298-.652.725-1.133 1.316-1.456a4.057 4.057 0 0 1 1.28-.468c1.204-.201 2.412-.442 3.626-.583 2.202-.252 3.846 1.597 3.297 3.71-.285 1.108-1.049 1.802-2.143 2.104-.352.097-.729.121-1.091.193-.976.184-1.966.301-2.939.529-1.151.271-2.149-.093-2.898-1.012-.756-.915-.845-1.956-.448-3.017zm33.511-14.355c1.201.511 1.887 1.529 1.883 2.711-.007 1.271-.611 2.163-1.742 2.706a2.55 2.55 0 0 1-.811.253 73.518 73.518 0 0 1-3.229.325c-.608.047-1.187-.11-1.718-.433-1.051-.656-1.583-1.811-1.376-2.999.215-1.206 1.083-2.183 2.273-2.383 1.176-.199 2.375-.285 3.563-.395.433-.043.853.062 1.157.215z" fill="#E1E4E5"/><path d="M585.25 475.54c59.602-21.759 101.293-73.654 125.769-113.354 26.575-43.103 39.171-81.545 39.296-81.931l2.631 1.05c-.124.385-12.809 39.118-39.55 82.511-24.712 40.097-66.835 92.52-127.176 114.552l-.97-2.828z" fill="#009688"/><path d="M747.985 266.287c-5.423 10.251-6.369 21.901-3.466 31.998 9.474-2.319 18.261-9.036 23.684-19.287 5.429-10.251 6.375-21.901 3.471-31.998-9.479 2.318-18.261 9.036-23.689 19.287zm5.836 39.201a38.046 38.046 0 0 0-21.638 21.854c8.894 4.66 19.834 5.52 30.195 1.441a38.077 38.077 0 0 0 21.638-21.854c-8.894-4.666-19.834-5.52-30.195-1.441zm-8.173 60.282c-15.316-2.189-26.955-9.429-25.997-16.172.959-6.742 14.152-10.434 29.468-8.246 15.316 2.189 26.955 9.429 25.997 16.172-.959 6.743-14.152 10.434-29.468 8.246zm-21.016 34.281c-15.317-2.189-26.956-9.429-25.997-16.172.958-6.742 14.151-10.434 29.468-8.246 15.316 2.189 26.955 9.429 25.996 16.172-.958 6.743-14.151 10.434-29.467 8.246z" fill="#009688"/><path d="M729.126 322.154c-.603-10.82-5.103-20.591-11.726-27.261-5.89 6.445-9.314 16.073-8.711 26.894.603 10.82 5.103 20.591 11.726 27.261 5.896-6.445 9.314-16.074 8.711-26.894zm-21.939 35.478c-.443-10.826-4.808-20.679-11.33-27.468-5.991 6.326-9.551 15.883-9.107 26.71.443 10.826 4.808 20.679 11.336 27.468 5.979-6.326 9.545-15.883 9.101-26.71zm-15.577 53.354c-4.234-2.241-8.888-2.312-12.814-.605 1.2 4.423 4.133 8.372 8.362 10.613 4.234 2.241 8.888 2.312 12.814.605-1.194-4.423-4.127-8.372-8.362-10.613zm-83.26 67.861c23.169-27.836 28.853-65.405 29.542-92.017.748-28.893-4.066-51.477-4.115-51.703l1.6-.237c.049.226 4.902 22.978 4.155 52.063-.691 26.876-6.437 64.828-29.892 93.012l-1.29-1.118z" fill="#009688"/><path d="M628.62 328.903c.265 6.614 3.14 12.634 7.47 16.784 4.009-3.862 6.418-9.698 6.153-16.312-.262-6.616-3.137-12.636-7.467-16.786-4.012 3.864-6.418 9.698-6.156 16.314zm14.127 17.67a21.711 21.711 0 0 0-4.408 16.991c5.726-.252 11.371-2.966 15.313-7.951a21.74 21.74 0 0 0 4.408-16.992c-5.728.249-11.371 2.966-15.313 7.952zm13.26 32.091c-8.185 3.314-16.006 3.08-17.467-.522-1.462-3.602 3.989-9.209 12.175-12.523s16.006-3.08 17.468.522c1.461 3.602-3.99 9.209-12.176 12.523zm-.535 22.945c-8.186 3.314-16.007 3.081-17.468-.521-1.462-3.603 3.99-9.209 12.175-12.523 8.186-3.314 16.007-3.081 17.468.521 1.462 3.603-3.99 9.209-12.175 12.523z" fill="#009688"/><path d="M635.342 361.881c-3.402-5.166-8.426-8.696-13.607-10.087-1.058 4.869.015 10.603 3.417 15.769 3.401 5.166 8.425 8.697 13.607 10.088 1.06-4.872-.015-10.603-3.417-15.77zm-.648 23.802c-3.325-5.215-8.305-8.826-13.472-10.304-1.141 4.84-.155 10.577 3.169 15.792 3.325 5.215 8.305 8.826 13.475 10.303 1.135-4.837.153-10.576-3.172-15.791zm7.621 30.796c-2.733.109-5.049 1.409-6.497 3.378 1.861 1.838 4.441 2.945 7.171 2.838 2.732-.109 5.049-1.409 6.497-3.378-1.859-1.84-4.439-2.947-7.171-2.838z" fill="#009688"/><path d="M538.991 484.135c5.29-7.268 34.728-45.9 54.192-52.814 21.484-7.632 1.849 20.779 1.849 20.779s37.255-43.083 51.483-39.708c13.041 3.093.853 29.482.853 29.482s14.158-14.825 31.833-15.336c17.202-.498-10.428 52.724-11.925 55.504l-128.285 2.093z" fill="#009688"/><path fill-rule="evenodd" clip-rule="evenodd" d="M385 197.187v-41.421c0-4.291 3.468-7.766 7.75-7.766h46.5c4.282 0 7.75 3.475 7.75 7.766v41.421a7.765 7.765 0 0 1-3.987 6.787l-23.25 12.943a7.736 7.736 0 0 1-7.53 0l-23.249-12.943a7.773 7.773 0 0 1-3.984-6.787z" fill="#E1E4E5"/><path d="M403.113 182.251h25.775m-25.775-12.075h25.775m-25.775 23.802h25.775" stroke="#fff" stroke-width="3.982" stroke-linecap="round" stroke-linejoin="round"/><path fill-rule="evenodd" clip-rule="evenodd" d="M217.5 455.75S116 374.702 116 300.683C116 246.178 161.447 202 217.5 202S319 246.178 319 300.683c0 74.019-101.5 155.067-101.5 155.067z" fill="#009688" stroke="#009688" stroke-width="28.37" stroke-linecap="round" stroke-linejoin="round"/><path d="M217.478 291.608c-6.771 0-12.213 5.357-12.213 11.913 0 6.557 5.485 11.871 12.256 11.871s12.214-5.314 12.214-11.913c.043-6.514-5.443-11.871-12.257-11.871" stroke="#fff" stroke-width="48.242" stroke-linecap="round" stroke-linejoin="round"/></svg>