<svg width="900" height="600" viewBox="0 0 900 600" fill="none" xmlns="http://www.w3.org/2000/svg"><path fill="transparent" d="M0 0h900v600H0z"/><path d="M521.676 518.656H210.142c-11.898 0-21.546-7.72-21.546-17.241v-10.251c0-9.524 9.648-17.24 21.546-17.24h311.529c-14.252 12.465-14.495 31.517-.575 44.216l.58.516z" fill="#133835"/><path d="M516.864 479.042H344.075c-11.898 0-21.547 7.72-21.547 17.245 0 9.52 9.644 17.24 21.547 17.24h172.804c-8.078-10.576-8.058-23.935-.015-34.485z" fill="url(#a)"/><path d="M451.12 442.85c.451-.654-.238-1.415-1.284-1.415h-164.84c-12.919 0-23.395 7.272-23.395 16.246 0 8.97 10.476 16.247 23.395 16.247h164.885c1.05 0 1.744-.765 1.283-1.423-6.526-9.39-6.506-20.307-.044-29.655z" fill="#009688"/><path d="M450.079 444.459h-81.697c-15.164 0-27.458 6.095-27.458 13.612s12.294 13.612 27.458 13.612h82.232c-5.619-8.661-5.773-18.525-.535-27.224z" fill="url(#b)"/><path d="M426.088 440.261h-95.909c-8.504 0-15.402-6.313-15.402-14.102 0-7.788 6.893-14.101 15.402-14.101h95.914c-7.329 7.819-7.616 19.286-.684 27.404l.679.799z" fill="url(#c)"/><path d="M314.787 426.159c0-7.789 7.057-14.101 15.764-14.101h97.366c.456 0 .822-.333.817-.738-.005-.402-.366-.723-.817-.723H273.458c-9.609 0-17.399 6.967-17.399 15.566 0 8.595 7.79 15.566 17.399 15.566h154.459c.446 0 .812-.325.817-.723.005-.405-.361-.738-.817-.738h-97.366c-8.707-.008-15.764-6.32-15.764-14.109z" fill="#133835"/><path d="M483.523 380.349H238.105c-7.621 0-13.801 4.768-13.801 10.649v8.955c0 5.88 6.18 10.648 13.801 10.648h245.418l-.129-.103c-10.501-8.435-10.446-21.771.129-30.149z" fill="#009688"/><path d="M479.176 384.827H347.979c-7.622 0-13.801 4.768-13.801 10.648 0 5.881 6.179 10.649 13.801 10.649h131.192c-4.821-6.596-4.816-14.709.005-21.297z" fill="url(#d)"/><path d="M467.546 397.254c8.167-2.759 15.245-8.636 19.378-16.173 1.167-2.079 2.121-4.467 1.807-6.831-.08-.481-.202-1.051-.635-1.276-.39-.224-.916-.101-1.355.023-13.64 3.68-28.062 9.882-42.379 9.228-.655-.01-1.309-.064-1.881.19-.703.295-1.15.943-1.466 1.637-1.083 2.255-2.021 6.522-1.667 9.06.435 3.021 3.355 3.458 5.922 4.109 7.31 1.858 14.988 2.499 22.276.033z" fill="#F8AE9D"/><path d="M468.807 380.324c1.099-.463 2.242-.927 3.421-.952 1.18-.026 2.481.605 2.857 1.747.25.79.019 1.616-.298 2.354-.859 1.909-2.368 3.458-3.961 4.832-6.106 5.149-13.928 8.262-21.929 8.752-3.542.208-7.25-.11-10.369-1.774 1.557-1.898 1.249-4.611 1.417-7.011.499-7.024 6.487-4.356 11.292-4.371 6.03-.127 12.032-1.302 17.57-3.577z" fill="#F8AE9D"/><path d="m286.051 328.365-.274.782c-1.919 5.562-3.404 11.305-4.017 17.192-1.126 10.816.997 23.472 9.133 31.327 10.849 10.473 28.252 12.092 42.399 9.598a35.81 35.81 0 0 0 15.876-7.053c4.61 4.176 9.564 8.75 13.686 13.399a104.168 104.168 0 0 0 23.46-11.699c17.264 7.906 34.874 13.241 53.467 17.105a72.18 72.18 0 0 0 4.443-16.444c.145-.915-11.443-8.735-12.78-9.847-4.011-3.381-12.368-11.108-12.368-11.108s10.533-8.969 15.139-13.18a218.791 218.791 0 0 0 14.012-13.765c3.686-3.962 7.288-8.145 9.547-13.09 2.258-4.902 3.089-10.698 1.201-15.794-5.962-15.859-30.027-10.284-41.205-4.819-9.242 4.533-17.335 11.137-25.125 17.833-3.142 2.66-6.241 5.409-9.296 8.114-2.408-2.483-5.068-5.712-7.343-8.323-2.447-2.833-5.245-5.496-8.627-7.164-3.555-1.801-6.834-1.545-10.626-2.083-1.7-.244-3.352-.75-5.008-1.037-4.966-.906-10.222.063-14.585 2.617-4.143 2.427-7.506 5.303-12.369 6.234-5.52 1.051-11.931.43-17.467-.309-4.969-.687-10.019-1.813-14.97-.839-2.059.405-2.845 3.276-3.526 4.926-.909 2.388-1.864 4.863-2.777 7.427zm43.863-182.925s-13.365-2.126-16.954 21.468c-3.988 26.23-14.637 21.915-31.548 43.213-9.883 12.445.518 34.424 21.654 33.988 21.136-.425 40.224-6.536 52.382-3.922 12.157 2.615 12.826-28.525.829-38.133-11.996-9.607 13.581-37.197-2.004-49.483-15.585-12.286-24.359-7.131-24.359-7.131z" fill="#133835"/><path d="M250.026 249.479c-1.219-2.505-1.145-5.415-.705-8.13 1.905-11.655 10.072-21.394 19.434-28.531 9.393-7.155 20.144-12.264 30.025-18.675 2.565-1.671 5.136-3.469 8.081-4.371 2.944-.903 6.367-.806 8.798 1.093 1.717 1.332 2.709 3.392 3.286 5.453 1.266 4.512.781 9.289.009 13.865-.965 5.773-2.382 11.485-4.708 16.791-1.864 4.28-4.9 8.684-9.461 9.522-1.32 5.114-4.037 9.908-7.849 13.575-4.359 4.206-9.887 6.955-15.623 8.876-5.286 1.773-11.066 2.931-16.383 1.276-3.155-.964-5.934-2.819-8.652-4.711-2.425-1.612-4.942-3.376-6.252-6.033zm47.766-7.772 3.12-4.954c-.665.069-1.293.198-1.927.456-1.712.741-2.744 3.439-1.193 4.498z" fill="#133835"/><path d="M355.609 166.188c.161.876.191 1.794.131 2.841a58.373 58.373 0 0 1-3.896 17.85c-1.362 3.386-3.029 6.724-5.387 9.528-.978 1.164-2.087 2.239-3.534 2.654-1.492.414-3.371.473-4.85.101-1.305 5.397-.761 15.583 3.898 19.41 1.424 1.157 3.116 1.882 4.81 2.519 3.301 1.273 6.737 2.243 10.176 2.994 3.918.846 8.189 1.478 10.941 4.359.344.355.686.841.548 1.319-.092.304-.314.519-.578.69-2.167 1.758-4.847 2.722-7.525 3.642-4.698 1.589-9.523 2.913-14.428 3.8-5.125.927-10.417 1.37-15.607.811-4.011-.454-7.971-1.475-11.612-3.278-3.816-1.892-7.723-3.437-11.671-5.244-3.34-1.536-6.633-3.289-10.249-3.912 1.709-3.25 5.275-5.074 8.826-5.938 3.551-.819 7.265-.894 10.857-1.582 1.183-.244 2.367-.532 3.383-1.259 2.782-2.011 2.02-6.478 2.064-9.403l.141-9.258c-.413-4.418-2.235-8.115-3.834-12.158-2.439-6.196-2.944-13.236-.794-19.581 2.148-6.301 7.036-11.774 13.316-13.994 6.28-2.219 13.818-.969 18.64 3.647 3.056 2.973 5.549 5.632 6.234 9.442z" fill="#F8AE9D"/><path d="M336.296 146.502c6.259-.698 11.962 2.367 16.191 7.118 3.558 3.983 5.649 9.24 5.543 14.522-.015.755-.1 1.577-.525 2.255-1.131 1.624-3.589 1.026-5.428.303-2.996-1.158-5.227-2.85-7.944-4.276-2.716-1.427-6.015-1.219-8.446-3.189-2.295-1.899-10.176-5.899-10.389-8.992-.268-3.78 6.657-6.867 9.552-7.495.414-.129.896-.188 1.446-.246z" fill="#133835"/><path d="M318.264 155.058c-5.292 3.414-7.777 9.393-8.052 15.748-.241 5.335 1.46 10.731 4.88 14.758.488.576 1.074 1.159 1.831 1.416 1.903.544 3.431-1.473 4.399-3.195 1.591-2.791 2.251-5.511 3.455-8.334 1.204-2.822 3.892-4.745 4.532-7.808.579-2.922 4.16-11.002 2.371-13.534-2.181-3.099-9.499-1.116-12.14.226-.402.162-.813.42-1.276.723z" fill="#133835"/><path d="M365.341 227.095c.836-.38 1.836-.103 2.393.648 6.244 8.744 8.655 19.7 10.766 30.259 2.395 12.005 4.527 24.05 6.571 36.093.122.613.2 1.27-.071 1.833-.271.564-.887.86-1.459 1.114-3.608 1.736-7.259 3.428-10.867 5.164a119.89 119.89 0 0 1-8.359-27.689c-2.317 5.861-6.5 10.952-11.836 14.278 3.976 5.695 8.87 17.083 13.642 22.091.731.797 5.249-.445 6.258-.779.628 1.801-2.313-.122-2.297 1.713-2.714.395-6.184-1.23-8.974-1.578a46.202 46.202 0 0 0-10.133-.067c-5.6.614-11.043 2.366-16.019 4.999a57.069 57.069 0 0 0-7.101 4.478c-1.944 1.456-6.757 4.877-6.757 4.877-.353.257-2.007-.118-2.399-.211a44.158 44.158 0 0 0-3.444-.446c-2.88-.218-5.8-.612-8.631-1.135-5.707-1.048-11.317-2.662-16.7-4.884-.518-.401 1.331-4.217 1.43-4.958-.098.697-10.699-.162-11.745-.353-4.18-.85-8.41-1.307-12.59-2.201 1.872-16.832 7.011-33.09 12.061-49.219 1.975-6.347 3.993-12.694 6.792-18.679 2.98-6.376 6.827-12.345 11.45-17.648.133-.129.353-.213.527-.166 2.219.558 15.751 4.039 22.483 6.544 3.431 1.319 6.907 2.507 10.427 3.696 1.391.458 2.826.917 4.267.895.962-.029 1.926-.233 2.846-.437 9.379-2.085 18.761-4.345 27.469-8.232z" fill="#009688"/><path d="M304.293 260.631c-.386 2.397-.903 4.835-1.42 7.23a127.253 127.253 0 0 1-4.83 16c-1 2.606-2.044 5.167-3.218 7.727-.587 1.257-1.174 2.515-1.805 3.772-.315.607-.63 1.258-.945 1.864-.27.52-.583.996-.853 1.472 1.879-.058 11.154.477 13.073.637" stroke="#fff" stroke-width="1.376" stroke-miterlimit="10" stroke-linecap="round"/><path d="M304.595 301.215c-.193 1.22-.43 2.44-.711 3.658l-.841 3.657c-.278 1.044-.91 2.345-.926 3.436.003-.218 7.438-.848 8.138-.924 7.743-.756 15.525-1.206 23.264-1.7 5.028-.317 9.962-.198 14.985-.165 1.485.022 3.234-.126 4.039-1.337.671-1.038.123-2.357.661-3.309.348.092 4.395 1.115 4.353 1.027.161.919.481 2.846 1.435 3.297.347.137.696.186 1.045.191.524.008 1.05-.071 1.575-.151a.333.333 0 0 0 .22-.084c.088-.086.003-.218-.082-.35a10.41 10.41 0 0 1-1.788-5.968c-1.254-.849-2.506-1.829-3.581-2.894-.86-.886-1.498-2.032-2.448-2.789-.992-.845-1.96-.335-3.057-.046a52.394 52.394 0 0 0-3.771.991c-2.414.749-4.83 1.674-6.863 3.172-.706.513-1.37 1.071-2.204 1.32-.79.25-1.663.237-2.493.224-5.108-.121-10.215-.373-15.274-.93-5.189-.56-8.728-.482-15.527-1.503-.001.044-.007.437-.149 1.177z" fill="#F8AE9D"/><path d="M360.856 260.146c1.221 5.28 2.102 10.611 2.698 16.052" stroke="#fff" stroke-width="1.376" stroke-miterlimit="10" stroke-linecap="round"/><path d="m463.862 251.437-14.993 66.865-113.848-1.73c.06-3.93 3.297-7.113 7.27-7.053l27.207.413 13.558-61.514c.424-2.003 2.236-3.416 4.245-3.386l72.405 1.1c2.75.085 4.765 2.606 4.156 5.305z" fill="#133835"/><path d="M315.139 414.813c.527-3.05 2.016-6.172 3.411-8.903 5.761-11.182 16.058-19.063 27.148-24.485 1.144-.551 2.288-1.101 3.474-1.52-.089.13-.179.259-.269.433v.043h-.044c.132-.086.221-.172.353-.257 4.482 4.043 9.263 8.484 13.344 12.957-2.697 2.187-6.612 3.962-8.556 5.418-4.594 3.381-9.017 6.983-13.782 10.143-6.399 4.314-13.217 7.443-20.838 8.812-2.935.523-4.472 1.068-4.437-1.203.048-.349.099-.828.196-1.438z" fill="#F8AE9D"/><path d="M322.57 406.015c2.968-5.59 7.575-9.844 12.612-13.612 3.535-2.654 7.284-5.043 10.859-7.479 1.015-.683 3.009-2.531 4.726-3.422 3.576 3.243 7.237 6.661 10.546 10.206-10.933 6.648-20.675 15.324-32.671 20.034-1.098.42-2.241.839-3.42.865-1.18.026-2.439-.474-3.123-1.445-1.069-1.502-.383-3.544.471-5.147z" fill="#F8AE9D"/><path d="M507.371 303.426c12.152 2.879 25.005-7.427 25.005-7.427s-6.859-14.968-19.015-17.838c-12.152-2.879-25.001 7.418-25.001 7.418s6.859 14.968 19.011 17.847z" fill="url(#e)"/><path d="M514.848 141.144c-18.483 12.73-46.719 3.832-46.719 3.832s1.748-29.537 20.243-42.255c18.483-12.73 46.706-3.844 46.706-3.844s-1.748 29.536-20.23 42.267z" fill="url(#f)"/><path d="M141.491 186.41c11.04 11.236 31.685 8.867 31.685 8.867s2.732-20.587-8.319-31.816c-11.04-11.237-31.674-8.875-31.674-8.875s-2.732 20.588 8.308 31.824z" fill="url(#g)"/><circle r="9.485" transform="matrix(1 0 0 -1 178.846 427.612)" fill="#009688"/><ellipse rx="10.502" ry="9.977" transform="matrix(1 0 0 -1 532.179 431.809)" fill="#009688"/><circle cx="86.338" cy="199.736" r="6.338" fill="#009688"/><ellipse cx="127.018" cy="458.17" rx="9.452" ry="8.927" fill="#E1E4E5"/><circle cx="573.73" cy="265.008" r="7.588" fill="#E1E4E5"/><circle cx="223.074" cy="346.545" r="4.532" fill="#E1E4E5"/><circle cx="240.036" cy="97.478" r="6.474" fill="#E1E4E5"/><circle cx="551.514" cy="352.34" r="6.327" transform="rotate(105 551.514 352.34)" fill="#E1E4E5"/><circle cx="540.801" cy="205.421" r="8.416" fill="#E1E4E5"/><ellipse cx="136.989" cy="265.438" rx="6.474" ry="5.179" fill="#E1E4E5"/><circle cx="202.028" cy="296.175" r="13.167" transform="rotate(105 202.028 296.175)" fill="#E1E4E5"/><path d="M197.508 226.819h-.169c-1.003 14.21-11.571 14.429-11.571 14.429s11.654.228 11.654 16.647c0-16.419 11.653-16.647 11.653-16.647s-10.564-.219-11.567-14.429zm204.695-116.911h-.165c-.98 14.457-11.302 14.68-11.302 14.68s11.382.231 11.382 16.936c0-16.705 11.382-16.936 11.382-16.936s-10.317-.223-11.297-14.68zm163.831 56.983h-.166c-.979 14.458-11.301 14.68-11.301 14.68s11.382.232 11.382 16.937c0-16.705 11.382-16.937 11.382-16.937s-10.318-.222-11.297-14.68zM164.357 346.674h-.166c-.979 14.458-11.301 14.68-11.301 14.68s11.382.232 11.382 16.937c0-16.705 11.382-16.937 11.382-16.937s-10.318-.222-11.297-14.68zM451.01 205.509h-.124c-.732 10.802-8.444 10.968-8.444 10.968s8.505.173 8.505 12.654c0-12.481 8.504-12.654 8.504-12.654s-7.709-.166-8.441-10.968z" fill="#E1E4E5"/><path d="m510.113 490 135.5-331 135.5 331m-27-66h-217" stroke="#133835" stroke-width="63.436" stroke-linecap="round" stroke-linejoin="round"/><defs><linearGradient id="a" x1="423.848" y1="532.861" x2="423.659" y2="441.517" gradientUnits="userSpaceOnUse"><stop stop-color="#fff"/><stop offset="1" stop-color="#EEE"/></linearGradient><linearGradient id="b" x1="398.108" y1="486.946" x2="397.9" y2="414.835" gradientUnits="userSpaceOnUse"><stop stop-color="#fff"/><stop offset="1" stop-color="#EEE"/></linearGradient><linearGradient id="c" x1="372.809" y1="456.073" x2="372.588" y2="381.369" gradientUnits="userSpaceOnUse"><stop stop-color="#fff"/><stop offset="1" stop-color="#EEE"/></linearGradient><linearGradient id="d" x1="409.769" y1="418.064" x2="409.672" y2="361.651" gradientUnits="userSpaceOnUse"><stop stop-color="#fff"/><stop offset="1" stop-color="#EEE"/></linearGradient><linearGradient id="e" x1="553.133" y1="310.584" x2="446.753" y2="260.326" gradientUnits="userSpaceOnUse"><stop stop-color="#fff"/><stop offset="1" stop-color="#EEE"/></linearGradient><linearGradient id="f" x1="442.851" y1="182.914" x2="588.34" y2="29.5" gradientUnits="userSpaceOnUse"><stop stop-color="#fff"/><stop offset="1" stop-color="#EEE"/></linearGradient><linearGradient id="g" x1="185.539" y1="224.791" x2="105.726" y2="99.678" gradientUnits="userSpaceOnUse"><stop stop-color="#fff"/><stop offset="1" stop-color="#EEE"/></linearGradient></defs></svg>