<svg width="900" height="600" viewBox="0 0 900 600" fill="none" xmlns="http://www.w3.org/2000/svg"><path fill="transparent" d="M0 0h900v600H0z"/><rect x="207" y="157.932" width="461.729" height="267.116" rx="32.526" fill="#009688"/><path d="M601.672 232.343h-97.425m97.425 50.355h-97.425m-45.976-50.355H261.232m197.039 50.355H261.232m197.039 44.882H261.232" stroke="#fff" stroke-width="22.309" stroke-miterlimit="10" stroke-linecap="round" stroke-linejoin="round"/><path fill-rule="evenodd" clip-rule="evenodd" d="M551.054 334.152a28.333 28.333 0 0 0-17.25-5.822c-15.719 0-28.462 12.743-28.462 28.461 0 15.719 12.743 28.462 28.462 28.462a28.332 28.332 0 0 0 16.631-5.363c-5.884-5.72-9.54-13.721-9.54-22.576 0-9.162 3.913-17.409 10.159-23.162z" fill="#fff"/><circle cx="575.238" cy="356.36" r="28.619" fill="#fff"/><path d="M501.136 445.514c5.609 38.678-21.236 74.579-60.021 80.215-38.758 5.636-74.738-21.156-80.375-59.834-5.609-38.652 21.263-74.578 60.021-80.215 38.785-5.636 74.766 21.156 80.375 59.834z" fill="url(#a)"/><path d="M484.441 447.945c4.273 29.462-16.188 56.842-45.73 61.142-29.543 4.274-56.976-16.134-61.25-45.596-4.274-29.49 16.187-56.869 45.73-61.143 29.543-4.301 56.949 16.107 61.25 45.597z" fill="#fff"/><path d="m441.456 486.385 1.553 9.387-8.628 1.348-1.499-9.143c-8.628.836-17.229-.486-22.556-3.372l3.052-10.951c4.827 2.428 11.403 3.723 17.701 3.345L428.776 463c-9.933-.782-21.142-2.211-23.112-14.187-1.47-8.874 3.913-17.532 17.286-21.173l-1.526-9.306 8.628-1.348 1.499 9.143c6.548-.512 13.123.189 18.339 2.374l-2.608 10.978c-4.8-1.754-9.516-2.482-13.9-2.32l2.358 14.241c9.933.675 20.948 2.158 22.89 13.972 1.415 8.739-3.884 17.316-17.174 21.011zm-14.705-35.711-1.97-11.895c-4.412 1.727-5.799 4.424-5.355 7.202.499 2.913 3.329 4.127 7.325 4.693zm18.145 17.91c-.472-2.94-3.246-4.127-7.158-4.828l1.914 11.571c4.162-1.592 5.688-4.073 5.244-6.743z" fill="#E1E4E5"/><path d="M284.136 438.514c5.609 38.678-21.236 74.579-60.021 80.215-38.758 5.636-74.738-21.156-80.375-59.834-5.609-38.652 21.263-74.578 60.021-80.215 38.785-5.636 74.766 21.156 80.375 59.834z" fill="url(#b)"/><path d="M267.441 440.945c4.273 29.462-16.188 56.842-45.73 61.142-29.543 4.274-56.976-16.134-61.25-45.596-4.274-29.49 16.187-56.869 45.73-61.143 29.543-4.301 56.949 16.107 61.25 45.597z" fill="#fff"/><path d="m224.456 479.385 1.553 9.387-8.628 1.348-1.499-9.143c-8.628.836-17.229-.486-22.556-3.372l3.052-10.951c4.827 2.428 11.403 3.723 17.701 3.345L211.776 456c-9.933-.782-21.142-2.211-23.112-14.187-1.47-8.874 3.913-17.532 17.286-21.173l-1.526-9.306 8.628-1.348 1.499 9.143c6.548-.512 13.123.189 18.339 2.374l-2.608 10.978c-4.8-1.754-9.516-2.482-13.9-2.32l2.358 14.241c9.933.675 20.948 2.158 22.89 13.972 1.415 8.739-3.884 17.316-17.174 21.011zm-14.705-35.711-1.97-11.895c-4.412 1.727-5.799 4.424-5.355 7.202.499 2.913 3.329 4.127 7.325 4.693zm18.145 17.91c-.472-2.94-3.246-4.127-7.158-4.828l1.914 11.571c4.162-1.592 5.688-4.073 5.244-6.743z" fill="#E1E4E5"/><path d="M758.136 445.514c5.609 38.678-21.236 74.579-60.021 80.215-38.758 5.636-74.738-21.156-80.375-59.834-5.609-38.652 21.263-74.578 60.021-80.215 38.785-5.636 74.766 21.156 80.375 59.834z" fill="url(#c)"/><path d="M741.441 447.945c4.273 29.462-16.188 56.842-45.73 61.142-29.543 4.274-56.976-16.134-61.25-45.596-4.274-29.49 16.187-56.869 45.73-61.143 29.543-4.301 56.949 16.107 61.25 45.597z" fill="#fff"/><path d="m698.456 486.385 1.553 9.387-8.628 1.348-1.499-9.143c-8.628.836-17.229-.486-22.556-3.372l3.052-10.951c4.827 2.428 11.403 3.723 17.701 3.345L685.776 463c-9.933-.782-21.142-2.211-23.112-14.187-1.47-8.874 3.913-17.532 17.286-21.173l-1.526-9.306 8.628-1.348 1.499 9.143c6.548-.512 13.123.189 18.339 2.374l-2.608 10.978c-4.8-1.754-9.516-2.482-13.9-2.32l2.358 14.241c9.933.675 20.948 2.158 22.89 13.972 1.415 8.739-3.884 17.316-17.174 21.011zm-14.705-35.711-1.97-11.895c-4.412 1.727-5.799 4.424-5.355 7.202.499 2.913 3.329 4.127 7.325 4.693zm18.145 17.91c-.472-2.94-3.246-4.127-7.158-4.828l1.914 11.571c4.162-1.592 5.688-4.073 5.244-6.743z" fill="#E1E4E5"/><path fill-rule="evenodd" clip-rule="evenodd" d="M118.967 126.229h4.504c1.09 0 1.967.886 1.967 1.966v4.505a1.968 1.968 0 0 1-1.967 1.966h-4.504A1.974 1.974 0 0 1 117 132.7v-4.505a1.962 1.962 0 0 1 1.967-1.966zm15.618 0h4.505c1.08 0 1.966.886 1.966 1.966v4.505a1.968 1.968 0 0 1-1.966 1.966h-4.505a1.973 1.973 0 0 1-1.966-1.966v-4.505c0-1.08.886-1.966 1.966-1.966zm15.629 0h4.505c1.08 0 1.967.886 1.967 1.966v4.505a1.969 1.969 0 0 1-1.967 1.966h-4.505a1.973 1.973 0 0 1-1.966-1.966v-4.505a1.962 1.962 0 0 1 1.966-1.966zm15.619 0h4.505c1.08 0 1.966.886 1.966 1.966v4.505a1.968 1.968 0 0 1-1.966 1.966h-4.505a1.975 1.975 0 0 1-1.975-1.966v-4.505a1.987 1.987 0 0 1 1.975-1.966zm15.62-.001h4.505c1.089 0 1.976.886 1.976 1.967v4.504a1.97 1.97 0 0 1-1.976 1.967h-4.505a1.974 1.974 0 0 1-1.966-1.967v-4.504c0-1.081.886-1.967 1.966-1.967zm-46.295 17.032h4.505c1.08 0 1.966.887 1.966 1.967v4.514c0 1.08-.886 1.966-1.966 1.966h-4.505a1.968 1.968 0 0 1-1.967-1.966v-4.505a1.965 1.965 0 0 1 1.967-1.976zm15.619 0h4.505c1.08 0 1.966.887 1.966 1.967v4.514c0 1.08-.886 1.966-1.966 1.966h-4.505a1.974 1.974 0 0 1-1.967-1.966v-4.505a1.965 1.965 0 0 1 1.967-1.976zm15.62 0h4.505c1.089 0 1.975.887 1.975 1.967v4.514c0 1.08-.886 1.966-1.975 1.966h-4.505a1.973 1.973 0 0 1-1.966-1.966v-4.505c0-1.089.886-1.976 1.966-1.976zm-16.183-35.328h4.505c1.08 0 1.967.886 1.967 1.966v4.505a1.969 1.969 0 0 1-1.967 1.966h-4.505a1.973 1.973 0 0 1-1.966-1.966v-4.505a1.962 1.962 0 0 1 1.966-1.966zm15.619 0h4.505c1.08 0 1.966.886 1.966 1.966v4.505a1.968 1.968 0 0 1-1.966 1.966h-4.505a1.975 1.975 0 0 1-1.975-1.966v-4.505a1.987 1.987 0 0 1 1.975-1.966zm525.134 44.297h4.504c1.09 0 1.967.886 1.967 1.966v4.505a1.968 1.968 0 0 1-1.967 1.966h-4.504A1.974 1.974 0 0 1 689 158.7v-4.505a1.962 1.962 0 0 1 1.967-1.966zm15.618 0h4.505c1.08 0 1.966.886 1.966 1.966v4.505a1.968 1.968 0 0 1-1.966 1.966h-4.505a1.973 1.973 0 0 1-1.966-1.966v-4.505c0-1.08.886-1.966 1.966-1.966zm15.629 0h4.505c1.08 0 1.967.886 1.967 1.966v4.505a1.969 1.969 0 0 1-1.967 1.966h-4.505a1.973 1.973 0 0 1-1.966-1.966v-4.505a1.962 1.962 0 0 1 1.966-1.966zm15.619 0h4.505c1.08 0 1.966.886 1.966 1.966v4.505a1.968 1.968 0 0 1-1.966 1.966h-4.505a1.975 1.975 0 0 1-1.975-1.966v-4.505a1.987 1.987 0 0 1 1.975-1.966zm15.62-.001h4.505c1.089 0 1.976.886 1.976 1.967v4.504a1.97 1.97 0 0 1-1.976 1.967h-4.505a1.974 1.974 0 0 1-1.966-1.967v-4.504c0-1.081.886-1.967 1.966-1.967zm-46.295 17.032h4.505c1.08 0 1.966.887 1.966 1.967v4.514c0 1.08-.886 1.966-1.966 1.966h-4.505a1.968 1.968 0 0 1-1.967-1.966v-4.505a1.965 1.965 0 0 1 1.967-1.976zm15.619 0h4.505c1.08 0 1.966.887 1.966 1.967v4.514c0 1.08-.886 1.966-1.966 1.966h-4.505a1.974 1.974 0 0 1-1.967-1.966v-4.505a1.965 1.965 0 0 1 1.967-1.976zm15.62 0h4.505c1.089 0 1.975.887 1.975 1.967v4.514c0 1.08-.886 1.966-1.975 1.966h-4.505a1.973 1.973 0 0 1-1.966-1.966v-4.505c0-1.089.886-1.976 1.966-1.976zm-16.183-35.328h4.505c1.08 0 1.967.886 1.967 1.966v4.505a1.969 1.969 0 0 1-1.967 1.966h-4.505a1.973 1.973 0 0 1-1.966-1.966v-4.505a1.962 1.962 0 0 1 1.966-1.966zm15.619 0h4.505c1.08 0 1.966.886 1.966 1.966v4.505a1.968 1.968 0 0 1-1.966 1.966h-4.505a1.975 1.975 0 0 1-1.975-1.966v-4.505a1.987 1.987 0 0 1 1.975-1.966z" fill="#E1E4E5"/><path d="M731.687 272.086c-15.579 3.69-32.055-9.521-32.055-9.521s8.792-19.188 24.376-22.867c15.578-3.691 32.05 9.509 32.05 9.509s-8.793 19.188-24.371 22.879z" fill="url(#d)"/><path d="M538.506 127.431c10.806 7.443 27.315 2.24 27.315 2.24s-1.022-17.269-11.836-24.705c-10.806-7.444-27.308-2.248-27.308-2.248s1.022 17.269 11.829 24.713z" fill="url(#e)"/><path d="M140.847 243.029c13.088 13.321 37.563 10.512 37.563 10.512s3.238-24.406-9.862-37.719c-13.088-13.321-37.55-10.521-37.55-10.521s-3.239 24.407 9.849 37.728z" fill="url(#f)"/><ellipse cx="584.836" cy="180.709" rx="6.371" ry="5.84" transform="rotate(180 584.836 180.709)" fill="#009688"/><ellipse cx="134.963" cy="308.364" rx="7.963" ry="7.432" transform="rotate(180 134.963 308.364)" fill="#009688"/><circle r="12.575" transform="matrix(-1 0 0 1 737.575 349.507)" fill="#E1E4E5"/><ellipse rx="7.432" ry="7.963" transform="matrix(-1 0 0 1 458.432 123.895)" fill="#E1E4E5"/><circle r="6.517" transform="matrix(-1 0 0 1 401.295 368.26)" fill="#E1E4E5"/><circle r="9.947" transform="matrix(-1 0 0 1 705.209 83.947)" fill="#E1E4E5"/><circle r="6.506" transform="scale(1 -1) rotate(-75 93.81 -232.848)" fill="#E1E4E5"/><ellipse rx="6.658" ry="5.327" transform="matrix(-1 0 0 1 632.904 224.79)" fill="#E1E4E5"/><path d="M644.895 110h.175c1.031 14.614 11.9 14.839 11.9 14.839s-11.985.234-11.985 17.121c0-16.887-11.985-17.121-11.985-17.121s10.864-.225 11.895-14.839zm-284.166 4.348h.139c.823 12.138 9.489 12.325 9.489 12.325s-9.556.194-9.556 14.219c0-14.025-9.556-14.219-9.556-14.219s8.662-.187 9.484-12.325z" fill="#E1E4E5"/><defs><linearGradient id="a" x1="433.964" y1="605.836" x2="429.609" y2="230.954" gradientUnits="userSpaceOnUse"><stop stop-color="#fff"/><stop offset="1" stop-color="#EEE"/></linearGradient><linearGradient id="b" x1="216.964" y1="598.836" x2="212.609" y2="223.954" gradientUnits="userSpaceOnUse"><stop stop-color="#fff"/><stop offset="1" stop-color="#EEE"/></linearGradient><linearGradient id="c" x1="690.964" y1="605.836" x2="686.609" y2="230.954" gradientUnits="userSpaceOnUse"><stop stop-color="#fff"/><stop offset="1" stop-color="#EEE"/></linearGradient><linearGradient id="d" x1="673.023" y1="281.262" x2="809.395" y2="216.835" gradientUnits="userSpaceOnUse"><stop stop-color="#fff"/><stop offset="1" stop-color="#EEE"/></linearGradient><linearGradient id="e" x1="580.601" y1="151.853" x2="495.536" y2="62.155" gradientUnits="userSpaceOnUse"><stop stop-color="#fff"/><stop offset="1" stop-color="#EEE"/></linearGradient><linearGradient id="f" x1="193.066" y1="288.53" x2="98.447" y2="140.206" gradientUnits="userSpaceOnUse"><stop stop-color="#fff"/><stop offset="1" stop-color="#EEE"/></linearGradient></defs></svg>