<svg width="900" height="600" viewBox="0 0 900 600" fill="none" xmlns="http://www.w3.org/2000/svg"><path fill="transparent" d="M0 0h900v600H0z"/><path fill-rule="evenodd" clip-rule="evenodd" d="M542.366 165.998h-194.33c-8.444 0-15.43 6.538-15.991 14.95L319.29 372.169c-1.233 18.491 13.444 34.178 31.983 34.178h187.856c18.539 0 33.217-15.687 31.983-34.178l-12.755-191.221c-.561-8.412-7.547-14.95-15.991-14.95z" fill="#009688" stroke="#009688" stroke-width="22.252" stroke-linecap="round" stroke-linejoin="round"/><path fill-rule="evenodd" clip-rule="evenodd" d="M423.966 323.842a7.465 7.465 0 0 1-10.802-7.919l4.026-23.066-16.947-16.236a7.46 7.46 0 0 1 4.115-12.789l23.529-3.363 10.623-21.185a7.464 7.464 0 0 1 13.374 0l10.623 21.185 23.529 3.363a7.463 7.463 0 0 1 4.115 12.789l-16.947 16.236 4.025 23.071a7.465 7.465 0 0 1-10.802 7.919l-21.23-10.969-21.231 10.964z" fill="#fff"/><path d="M493.283 195.314v-64.093 0c0-26.55-21.519-48.07-48.07-48.07h-.016c-26.55 0-48.07 21.52-48.07 48.07v64.093" stroke="#009688" stroke-width="22.252" stroke-linecap="round" stroke-linejoin="round"/><path d="M186.743 394.228c-2.391-1.18-3.896-3.774-3.693-6.361.209-2.796 2.119-5.213 4.824-5.994.743-.215 1.531-.293 2.307-.377 4.646-.527 9.299-.969 13.867-2.056 2.02-.488 4.008-.161 5.8.98 2.371 1.512 3.426 3.734 3.132 6.471-.301 2.75-1.911 4.633-4.504 5.616a7.153 7.153 0 0 1-1.512.384c-5.331.787-10.655 1.659-16.038 2.061-1.473.111-2.867-.066-4.183-.724zm21.485 18.994c-.997 2.059-2.698 3.44-4.823 3.974-5.226 1.295-10.505 2.499-15.907 2.713-4.933.187-8.223-4.44-6.605-9.04.926-2.633 2.959-4.124 5.677-4.41 3.506-.364 6.908-1.139 10.368-1.705 1.101-.182 2.124-.566 3.174-.905 2.659-.852 5.454-.024 7.239 2.075 1.733 2.04 2.071 4.881.877 7.298zm15.266-13.771c.88-1.792 2.301-2.938 4.198-3.505 2.861-.865 5.761-1.549 8.687-2.121 1.336-.261 2.613-.632 3.851-1.25a7.216 7.216 0 0 1 9.904 3.684c1.55 3.741-.308 7.846-4.238 9.317-.541.202-1.108.391-1.682.495-4.34.761-8.641 1.738-12.929 2.753-2.659.625-5.024.012-6.874-2.087-1.805-2.06-2.136-4.817-.917-7.286zm7.515 18.163c2.86 1.513 3.987 3.82 4.025 6.674.038 2.822-1.246 4.998-3.729 6.379-.906.508-1.897.859-2.9 1.107-3.539.852-7.058 1.731-10.597 2.584-2.255.533-4.412.285-6.275-1.201-2.046-1.643-2.925-3.826-2.448-6.406.496-2.718 2.178-4.548 4.83-5.356 2.053-.618 4.132-1.126 6.23-1.607 1.584-.365 3.063-.814 4.451-1.798 2.06-1.478 4.367-1.367 6.413-.376zm42.074 7.415c-.704 1.44-1.76 2.574-3.227 3.258-.827.384-1.668.729-2.541.944-2.959.735-5.892 1.549-8.824 2.363-4.445 1.23-8.51-1.619-8.75-6.024-.149-2.763 1.403-5.245 4.114-6.496 2.014-.931 4.158-1.471 6.302-1.979 1.147-.273 2.209-.638 3.232-1.25 2.77-1.661 5.891-1.256 8.243.947 2.228 2.092 2.82 5.436 1.451 8.237zm-125.19-35.772c.782-1.433 1.832-2.456 3.227-3.094.951-.436 1.942-.755 2.984-.853 2.77-.26 5.553-.611 8.335-.734 5.044-.213 8.477 4.258 6.885 8.969-.828 2.469-2.679 3.922-5.214 4.429-.815.163-1.675.156-2.509.26-2.248.26-4.516.364-6.764.722-2.659.429-4.868-.562-6.418-2.772-1.57-2.203-1.602-4.581-.526-6.927zm78.479-27.144c2.645 1.356 4.039 3.78 3.836 6.465-.222 2.887-1.741 4.815-4.4 5.863-.593.241-1.252.417-1.884.443-2.469.117-4.926.207-7.389.213-1.388.006-2.678-.444-3.832-1.265-2.28-1.663-3.302-4.374-2.637-7.039.685-2.704 2.817-4.782 5.554-5.042 2.704-.26 5.441-.259 8.158-.317a4.94 4.94 0 0 1 2.594.679zm114.182 105.009c-1.919-.947-3.126-3.028-2.963-5.104.168-2.243 1.7-4.182 3.87-4.809.596-.172 1.229-.235 1.851-.303 3.728-.422 7.461-.776 11.126-1.649 1.621-.391 3.216-.129 4.653.786 1.903 1.214 2.749 2.997 2.513 5.192-.241 2.207-1.533 3.717-3.614 4.506a5.727 5.727 0 0 1-1.213.308c-4.277.632-8.548 1.331-12.867 1.654-1.182.088-2.3-.053-3.356-.581zm17.238 15.24c-.8 1.652-2.165 2.76-3.87 3.188-4.193 1.039-8.428 2.005-12.762 2.177-3.958.15-6.597-3.563-5.3-7.254.743-2.112 2.375-3.308 4.555-3.538 2.813-.292 5.542-.913 8.319-1.367.883-.146 1.704-.455 2.546-.726 2.133-.684 4.376-.02 5.808 1.664 1.39 1.637 1.662 3.917.704 5.856zm12.248-11.049c.707-1.438 1.847-2.358 3.368-2.812 2.296-.695 4.622-1.243 6.97-1.702 1.072-.209 2.097-.507 3.09-1.003a5.79 5.79 0 0 1 7.946 2.956c1.244 3.001-.247 6.295-3.4 7.475a7.945 7.945 0 0 1-1.349.397c-3.483.611-6.933 1.394-10.374 2.209-2.133.501-4.031.009-5.515-1.675-1.448-1.652-1.714-3.864-.736-5.845zm6.029 14.572c2.295 1.214 3.199 3.065 3.23 5.355.031 2.264-1 4.01-2.992 5.117-.727.408-1.522.69-2.327.889-2.839.684-5.663 1.389-8.502 2.073-1.809.428-3.539.229-5.034-.964-1.642-1.318-2.347-3.069-1.965-5.14.398-2.18 1.748-3.649 3.876-4.296 1.647-.496 3.315-.904 4.998-1.29 1.271-.293 2.458-.653 3.572-1.442 1.652-1.186 3.503-1.097 5.144-.302zm33.757 5.95c-.565 1.155-1.412 2.065-2.588 2.613-.665.309-1.339.585-2.04.758-2.373.59-4.726 1.243-7.079 1.896-3.566.987-6.828-1.299-7.02-4.833-.12-2.217 1.125-4.209 3.3-5.212 1.616-.747 3.336-1.181 5.056-1.588.921-.219 1.773-.512 2.594-1.003 2.222-1.333 4.726-1.008 6.613.76 1.788 1.679 2.263 4.361 1.164 6.609zm-100.442-28.701c.628-1.15 1.47-1.971 2.589-2.483.763-.35 1.558-.606 2.395-.684 2.222-.209 4.454-.49 6.687-.589 4.046-.171 6.801 3.416 5.524 7.196-.665 1.981-2.15 3.147-4.184 3.554-.653.13-1.343.125-2.013.208-1.804.209-3.623.292-5.427.579-2.133.344-3.905-.451-5.149-2.223-1.26-1.768-1.285-3.676-.422-5.558zm62.965-21.779c2.123 1.088 3.241 3.034 3.078 5.188-.178 2.316-1.397 3.863-3.53 4.704-.476.193-1.004.334-1.511.355-1.982.094-3.953.166-5.929.171-1.114.005-2.149-.356-3.074-1.015-1.83-1.334-2.65-3.509-2.116-5.647.55-2.17 2.26-3.837 4.456-4.046 2.169-.208 4.365-.208 6.545-.254a3.963 3.963 0 0 1 2.081.544zm145.312 20.094c-2.1-1.036-3.421-3.314-3.243-5.586.184-2.454 1.861-4.577 4.236-5.263.653-.188 1.345-.257 2.026-.331 4.08-.462 8.166-.85 12.177-1.805 1.774-.428 3.519-.142 5.092.86 2.083 1.328 3.009 3.28 2.751 5.683-.264 2.414-1.678 4.068-3.955 4.931-.424.16-.882.275-1.328.337-4.681.691-9.356 1.457-14.082 1.81-1.294.097-2.518-.058-3.674-.636zm18.867 16.679c-.876 1.808-2.37 3.02-4.236 3.489-4.589 1.137-9.224 2.195-13.968 2.382-4.332.165-7.22-3.899-5.8-7.938.813-2.312 2.599-3.621 4.985-3.872 3.079-.32 6.066-1 9.104-1.497.968-.16 1.866-.497 2.787-.795 2.335-.748 4.79-.021 6.357 1.822 1.522 1.791 1.818 4.286.771 6.409zm13.404-12.092c.773-1.574 2.021-2.58 3.686-3.078 2.512-.76 5.059-1.36 7.628-1.863 1.173-.228 2.295-.554 3.382-1.098a6.337 6.337 0 0 1 8.697 3.236c1.361 3.285-.271 6.889-3.722 8.181a8.747 8.747 0 0 1-1.476.435c-3.811.668-7.588 1.525-11.354 2.417-2.334.549-4.411.01-6.036-1.833-1.584-1.808-1.875-4.229-.805-6.397zm6.599 15.949c2.511 1.328 3.501 3.354 3.534 5.86.034 2.478-1.094 4.389-3.274 5.601-.796.446-1.666.755-2.547.972-3.107.749-6.197 1.521-9.305 2.269-1.98.469-3.873.251-5.51-1.054-1.796-1.443-2.568-3.36-2.15-5.626.436-2.386 1.913-3.993 4.242-4.702 1.803-.543 3.628-.989 5.471-1.412 1.39-.32 2.689-.714 3.908-1.578 1.809-1.298 3.834-1.2 5.631-.33zm36.945 6.511c-.618 1.265-1.546 2.26-2.833 2.86-.727.338-1.465.641-2.232.829-2.598.646-5.173 1.361-7.748 2.075-3.903 1.081-7.473-1.421-7.684-5.289-.13-2.426 1.232-4.606 3.613-5.704 1.768-.818 3.651-1.292 5.533-1.738 1.008-.24 1.94-.56 2.839-1.098 2.432-1.458 5.173-1.102 7.238.832 1.956 1.838 2.476 4.773 1.274 7.233zm-109.929-31.411c.687-1.259 1.609-2.157 2.833-2.717.836-.384 1.706-.664 2.621-.749 2.432-.229 4.876-.537 7.319-.645 4.429-.187 7.443 3.739 6.046 7.875-.727 2.169-2.353 3.444-4.579 3.89-.715.143-1.47.137-2.203.228-1.974.229-3.965.32-5.939.634-2.335.377-4.275-.493-5.636-2.434-1.378-1.934-1.406-4.023-.462-6.082zm68.912-23.837c2.323 1.191 3.547 3.32 3.369 5.678-.196 2.535-1.529 4.228-3.864 5.148-.521.212-1.099.366-1.654.389-2.169.102-4.326.182-6.489.187-1.219.005-2.351-.39-3.364-1.111-2.002-1.46-2.9-3.84-2.316-6.181.602-2.374 2.473-4.199 4.877-4.427 2.375-.228 4.778-.227 7.164-.278a4.336 4.336 0 0 1 2.277.595zm101.508-46.576c-2.391-1.181-3.896-3.775-3.693-6.362.21-2.795 2.12-5.212 4.824-5.993.743-.215 1.532-.293 2.307-.378 4.646-.526 9.299-.968 13.868-2.055 2.02-.488 4.007-.161 5.799.979 2.371 1.513 3.426 3.735 3.132 6.472-.3 2.75-1.91 4.633-4.504 5.616a7.199 7.199 0 0 1-1.512.384c-5.331.787-10.655 1.659-16.037 2.061-1.473.11-2.868-.066-4.184-.724zm21.486 18.994c-.998 2.059-2.699 3.44-4.824 3.974-5.226 1.295-10.505 2.499-15.907 2.713-4.933.187-8.222-4.44-6.605-9.041.926-2.632 2.96-4.124 5.677-4.41 3.506-.363 6.908-1.138 10.368-1.704 1.102-.182 2.125-.566 3.174-.905 2.659-.853 5.454-.024 7.239 2.075 1.733 2.04 2.071 4.881.878 7.298zm15.265-13.771c.881-1.792 2.302-2.938 4.198-3.505 2.861-.866 5.761-1.549 8.687-2.122 1.336-.26 2.613-.631 3.852-1.25a7.218 7.218 0 0 1 9.904 3.685c1.549 3.741-.309 7.846-4.239 9.317-.541.202-1.108.391-1.681.495-4.34.761-8.641 1.737-12.93 2.753-2.658.625-5.024.011-6.874-2.087-1.804-2.06-2.136-4.817-.917-7.286zm7.515 18.163c2.86 1.513 3.987 3.82 4.025 6.674.039 2.822-1.246 4.998-3.729 6.379-.906.508-1.896.859-2.9 1.107-3.539.852-7.058 1.731-10.597 2.584-2.254.533-4.411.285-6.274-1.201-2.046-1.643-2.925-3.826-2.449-6.407.496-2.717 2.178-4.547 4.83-5.355 2.053-.618 4.132-1.126 6.231-1.607 1.583-.365 3.063-.814 4.451-1.798 2.059-1.478 4.366-1.367 6.412-.376zm42.074 7.415c-.704 1.44-1.76 2.574-3.226 3.257-.828.385-1.669.73-2.542.945-2.959.735-5.891 1.549-8.824 2.362-4.445 1.231-8.51-1.618-8.75-6.023-.149-2.763 1.403-5.246 4.114-6.496 2.014-.931 4.158-1.471 6.302-1.979 1.147-.273 2.209-.638 3.232-1.25 2.77-1.661 5.892-1.256 8.243.947 2.228 2.092 2.82 5.435 1.451 8.237zm-125.19-35.772c.783-1.433 1.832-2.456 3.227-3.094.952-.437 1.942-.756 2.985-.853 2.769-.26 5.552-.611 8.334-.734 5.044-.214 8.477 4.258 6.886 8.969-.829 2.469-2.68 3.922-5.215 4.429-.814.163-1.674.156-2.509.26-2.248.26-4.516.364-6.764.722-2.659.429-4.867-.562-6.418-2.772-1.57-2.203-1.601-4.581-.526-6.927zm78.479-27.145c2.645 1.357 4.039 3.781 3.836 6.466-.222 2.887-1.741 4.815-4.4 5.863-.593.241-1.251.417-1.883.443-2.47.116-4.927.207-7.39.213-1.388.006-2.678-.444-3.831-1.265-2.281-1.663-3.303-4.374-2.637-7.039.685-2.704 2.816-4.782 5.553-5.042 2.704-.26 5.441-.259 8.159-.317a4.948 4.948 0 0 1 2.593.678z" fill="#E1E4E5"/><path d="M660.161 371.931c-.531-1.61-1.643-2.904-2.49-4.331-6.273-10.738-11.65-21.891-15.766-33.657-2.506-7.153-4.979-14.323-6.655-21.725-1.477-6.506-2.755-13.045-3.419-19.7-.348-3.452-.68-6.887-.797-10.356-.066-1.858-.381-3.717-.232-5.576.282-3.386.183-6.805 1.079-10.124.166-.614.332-1.244.581-1.825 1.41-3.403 4.58-4.083 7.269-1.61 1.294 1.195 2.224 2.655 3.087 4.165 3.999 6.987 7.319 14.306 10.256 21.791 4.514 11.485 8.581 23.135 12.364 34.869.681 2.124 1.345 4.265 2.307 6.373 0-1.145.166-2.324-.033-3.435-.315-1.61-.216-3.204-.315-4.797-.614-9.891-.531-19.799-.282-29.707.099-3.95.464-7.933.929-11.883.315-2.672.548-5.361.913-8.016 1.079-7.684 2.141-15.385 5.012-22.67.564-1.444 1.311-2.805 2.406-3.917 2.208-2.274 4.946-2.108 6.954.382 1.942 2.406 2.888 5.294 3.718 8.198 1.029 3.651 1.56 7.386 2.041 11.153.813 6.373.996 12.779 1.228 19.202.15 4.365.316 8.746.183 13.111-.15 4.879-.133 9.775-.399 14.654-.265 4.879-.431 9.742-.68 14.621 0 .133.033.249.083.548.664-1.079.747-2.191.996-3.22 3.07-12.961 7.003-25.657 12.198-37.922 3.22-7.584 6.788-15.003 11.717-21.675 1.991-2.705 4.116-5.294 7.053-7.02 1.56-.913 3.203-1.626 5.112-1.128 1.992.514 3.153 1.875 3.85 3.717.996 2.639 1.245 5.394 1.013 8.149a117.388 117.388 0 0 1-1.809 12.945c-1.544 7.833-3.834 15.451-6.639 22.919-5.178 13.825-11.119 27.368-16.812 41.01-.249.581-.647 1.128-.514 1.825-.199.033-.299.15-.299.332 0 .05.116.1.183.15.049-.166.083-.316.132-.482 1.096-.763 1.61-1.991 2.324-3.02 3.9-5.593 7.916-11.087 12.331-16.281 4.298-5.045 8.763-9.941 14.455-13.493 2.025-1.261 4.099-2.423 6.605-2.406 2.838.016 4.764 1.294 5.66 4.033.581 1.775.73 3.568.514 5.476-.73 6.307-3.352 11.833-6.688 17.061-4.647 7.269-10.024 13.974-15.783 20.397-5.776 6.439-12.315 12.016-19.069 17.36-5.991 4.746-11.883 9.625-17.808 14.438-1.593 1.295-3.22 2.556-4.929 3.701-1.709 1.162-3.535 1.444-5.493.897-7.801-2.224-15.468-4.73-22.654-8.581-5.626-3.02-10.854-6.605-15.783-10.671-4.73-3.884-9.278-7.95-13.443-12.431-3.668-3.966-7.12-8.115-9.626-12.945-.797-1.527-1.162-3.12-.996-4.829.166-1.726 1.477-3.187 3.203-3.353 1.461-.132 2.938-.116 4.382.349 3.867 1.245 7.12 3.551 10.206 6.074 6.855 5.626 13.659 11.302 20.165 17.327 1.925 1.792 3.933 3.501 5.908 5.244.249.216.498.415.83.448.083.299.199.548.531.647.017.05.033.1.066.133.017.017.067.017.1.017-.066-.05-.133-.083-.199-.133.083-.315-.033-.581-.332-.797zm-30.476 107.916c-.244-.741-.757-1.338-1.147-1.995-2.89-4.947-5.367-10.085-7.263-15.506-1.155-3.296-2.294-6.599-3.066-10.009-.681-2.997-1.27-6.01-1.575-9.076-.161-1.59-.314-3.173-.367-4.771-.031-.856-.176-1.713-.108-2.569.13-1.56.085-3.135.497-4.664.077-.283.153-.573.268-.841.65-1.568 2.11-1.881 3.349-.742.596.551 1.025 1.224 1.422 1.919 1.843 3.219 3.372 6.591 4.725 10.04 2.08 5.291 3.953 10.658 5.697 16.064.313.979.619 1.965 1.062 2.936 0-.528.077-1.071-.015-1.583-.145-.741-.099-1.476-.145-2.21-.283-4.557-.245-9.121-.13-13.686.046-1.82.214-3.655.428-5.474.145-1.231.252-2.47.421-3.693.497-3.541.986-7.088 2.309-10.445.26-.665.604-1.292 1.108-1.804 1.017-1.048 2.279-.971 3.204.176.895 1.108 1.33 2.439 1.713 3.777.474 1.682.718 3.402.94 5.138.375 2.936.459 5.887.566 8.846.069 2.011.145 4.03.084 6.041-.069 2.247-.061 4.503-.183 6.751-.123 2.248-.199 4.488-.314 6.736 0 .061.015.115.038.252.306-.497.344-1.009.459-1.483 1.415-5.971 3.227-11.821 5.62-17.471 1.483-3.494 3.127-6.912 5.398-9.986.918-1.246 1.896-2.439 3.25-3.234.718-.42 1.475-.749 2.355-.52.917.237 1.452.864 1.773 1.713.459 1.216.574 2.485.467 3.754a54.004 54.004 0 0 1-.834 5.964c-.711 3.609-1.766 7.118-3.058 10.559-2.386 6.369-5.123 12.608-7.745 18.893-.115.268-.299.52-.237.841-.092.016-.138.069-.138.153 0 .023.053.046.084.069.023-.076.038-.145.061-.222.505-.351.742-.917 1.071-1.391 1.796-2.577 3.647-5.108 5.681-7.501 1.98-2.324 4.037-4.58 6.659-6.216.933-.581 1.889-1.116 3.043-1.109 1.308.008 2.195.597 2.608 1.858.267.818.336 1.644.237 2.523-.337 2.906-1.545 5.452-3.082 7.86-2.141 3.349-4.618 6.438-7.271 9.397-2.661 2.967-5.673 5.536-8.785 7.998-2.76 2.187-5.475 4.435-8.204 6.652a30.914 30.914 0 0 1-2.271 1.705c-.788.535-1.629.665-2.531.413-3.594-1.025-7.126-2.179-10.437-3.953-2.592-1.392-5-3.043-7.271-4.916-2.179-1.79-4.274-3.663-6.193-5.727-1.69-1.828-3.281-3.739-4.435-5.964-.367-.704-.535-1.438-.459-2.225.077-.795.681-1.468 1.476-1.545.673-.061 1.353-.053 2.018.161 1.782.573 3.28 1.636 4.703 2.798 3.157 2.592 6.292 5.207 9.289 7.983.887.826 1.813 1.613 2.722 2.416.115.099.23.191.383.206.038.138.092.253.244.299a.16.16 0 0 0 .031.061c.008.007.031.007.046.007-.031-.022-.061-.038-.092-.061.038-.145-.015-.267-.153-.367zm-197 15c-.244-.741-.757-1.338-1.147-1.995-2.89-4.947-5.367-10.085-7.263-15.506-1.155-3.296-2.294-6.599-3.066-10.009-.681-2.997-1.27-6.01-1.575-9.076-.161-1.59-.314-3.173-.367-4.771-.031-.856-.176-1.713-.108-2.569.13-1.56.085-3.135.497-4.664.077-.283.153-.573.268-.841.65-1.568 2.11-1.881 3.349-.742.596.551 1.025 1.224 1.422 1.919 1.843 3.219 3.372 6.591 4.725 10.04 2.08 5.291 3.953 10.658 5.697 16.064.313.979.619 1.965 1.062 2.936 0-.528.077-1.071-.015-1.583-.145-.741-.099-1.476-.145-2.21-.283-4.557-.245-9.121-.13-13.686.046-1.82.214-3.655.428-5.474.145-1.231.252-2.47.421-3.693.497-3.541.986-7.088 2.309-10.445.26-.665.604-1.292 1.108-1.804 1.017-1.048 2.279-.971 3.204.176.895 1.108 1.33 2.439 1.713 3.777.474 1.682.718 3.402.94 5.138.375 2.936.459 5.887.566 8.846.069 2.011.145 4.03.084 6.041-.069 2.247-.061 4.503-.183 6.751-.123 2.248-.199 4.488-.314 6.736 0 .061.015.115.038.252.306-.497.344-1.009.459-1.483 1.415-5.971 3.227-11.821 5.62-17.471 1.483-3.494 3.127-6.912 5.398-9.986.918-1.246 1.896-2.439 3.25-3.234.718-.42 1.475-.749 2.355-.52.917.237 1.452.864 1.773 1.713.459 1.216.574 2.485.467 3.754a54.004 54.004 0 0 1-.834 5.964c-.711 3.609-1.766 7.118-3.058 10.559-2.386 6.369-5.123 12.608-7.745 18.893-.115.268-.299.52-.237.841-.092.016-.138.069-.138.153 0 .023.053.046.084.069.023-.076.038-.145.061-.222.505-.351.742-.917 1.071-1.391 1.796-2.577 3.647-5.108 5.681-7.501 1.98-2.324 4.037-4.58 6.659-6.216.933-.581 1.889-1.116 3.043-1.109 1.308.008 2.195.597 2.608 1.858.267.818.336 1.644.237 2.523-.337 2.906-1.545 5.452-3.082 7.86-2.141 3.349-4.618 6.438-7.271 9.397-2.661 2.967-5.673 5.536-8.785 7.998-2.76 2.187-5.475 4.435-8.204 6.652a30.914 30.914 0 0 1-2.271 1.705c-.788.535-1.629.665-2.531.413-3.594-1.025-7.126-2.179-10.437-3.953-2.592-1.392-5-3.043-7.271-4.916-2.179-1.79-4.274-3.663-6.193-5.727-1.69-1.828-3.281-3.739-4.435-5.964-.367-.704-.535-1.438-.459-2.225.077-.795.681-1.468 1.476-1.545.673-.061 1.353-.053 2.018.161 1.782.573 3.28 1.636 4.703 2.798 3.157 2.592 6.292 5.207 9.289 7.983.887.826 1.813 1.613 2.722 2.416.115.099.23.191.383.206.038.138.092.253.244.299a.16.16 0 0 0 .031.061c.008.007.031.007.046.007-.031-.022-.061-.038-.092-.061.038-.145-.015-.267-.153-.367zm-175-4c-.244-.741-.757-1.338-1.147-1.995-2.89-4.947-5.367-10.085-7.263-15.506-1.155-3.296-2.294-6.599-3.066-10.009-.681-2.997-1.27-6.01-1.575-9.076-.161-1.59-.314-3.173-.367-4.771-.031-.856-.176-1.713-.108-2.569.13-1.56.085-3.135.497-4.664.077-.283.153-.573.268-.841.65-1.568 2.11-1.881 3.349-.742.596.551 1.025 1.224 1.422 1.919 1.843 3.219 3.372 6.591 4.725 10.04 2.08 5.291 3.953 10.658 5.697 16.064.313.979.619 1.965 1.062 2.936 0-.528.077-1.071-.015-1.583-.145-.741-.099-1.476-.145-2.21-.283-4.557-.245-9.121-.13-13.686.046-1.82.214-3.655.428-5.474.145-1.231.252-2.47.421-3.693.497-3.541.986-7.088 2.309-10.445.26-.665.604-1.292 1.108-1.804 1.017-1.048 2.279-.971 3.204.176.895 1.108 1.33 2.439 1.713 3.777.474 1.682.718 3.402.94 5.138.375 2.936.459 5.887.566 8.846.069 2.011.145 4.03.084 6.041-.069 2.247-.061 4.503-.183 6.751-.123 2.248-.199 4.488-.314 6.736 0 .061.015.115.038.252.306-.497.344-1.009.459-1.483 1.415-5.971 3.227-11.821 5.62-17.471 1.483-3.494 3.127-6.912 5.398-9.986.918-1.246 1.896-2.439 3.25-3.234.718-.42 1.475-.749 2.355-.52.917.237 1.452.864 1.773 1.713.459 1.216.574 2.485.467 3.754a54.004 54.004 0 0 1-.834 5.964c-.711 3.609-1.766 7.118-3.058 10.559-2.386 6.369-5.123 12.608-7.745 18.893-.115.268-.299.52-.237.841-.092.016-.138.069-.138.153 0 .023.053.046.084.069.023-.076.038-.145.061-.222.505-.351.742-.917 1.071-1.391 1.796-2.577 3.647-5.108 5.681-7.501 1.98-2.324 4.037-4.58 6.659-6.216.933-.581 1.889-1.116 3.043-1.109 1.308.008 2.195.597 2.608 1.858.267.818.336 1.644.237 2.523-.337 2.906-1.545 5.452-3.082 7.86-2.141 3.349-4.618 6.438-7.271 9.397-2.661 2.967-5.673 5.536-8.785 7.998-2.76 2.187-5.475 4.435-8.204 6.652a30.914 30.914 0 0 1-2.271 1.705c-.788.535-1.629.665-2.531.413-3.594-1.025-7.126-2.179-10.437-3.953-2.592-1.392-5-3.043-7.271-4.916-2.179-1.79-4.274-3.663-6.193-5.727-1.69-1.828-3.281-3.739-4.435-5.964-.367-.704-.535-1.438-.459-2.225.077-.795.681-1.468 1.476-1.545.673-.061 1.353-.053 2.018.161 1.782.573 3.28 1.636 4.703 2.798 3.157 2.592 6.292 5.207 9.289 7.983.887.826 1.813 1.613 2.722 2.416.115.099.23.191.383.206.038.138.092.253.244.299a.16.16 0 0 0 .031.061c.008.007.031.007.046.007-.031-.022-.061-.038-.092-.061.038-.145-.015-.267-.153-.367zm-55.933-118.916c-.531-1.61-1.643-2.904-2.49-4.331-6.273-10.738-11.65-21.891-15.766-33.657-2.506-7.153-4.979-14.323-6.655-21.725-1.477-6.506-2.755-13.045-3.419-19.7-.348-3.452-.68-6.887-.796-10.356-.067-1.858-.382-3.717-.233-5.576.282-3.386.183-6.805 1.079-10.124.166-.614.332-1.244.581-1.825 1.41-3.403 4.58-4.083 7.269-1.61 1.294 1.195 2.224 2.655 3.087 4.165 4 6.987 7.319 14.306 10.256 21.791 4.515 11.485 8.581 23.135 12.365 34.869.68 2.124 1.344 4.265 2.306 6.373 0-1.145.166-2.324-.033-3.435-.315-1.61-.216-3.204-.315-4.797-.614-9.891-.531-19.799-.282-29.707.099-3.95.464-7.933.929-11.883.315-2.672.548-5.361.913-8.016 1.079-7.684 2.141-15.385 5.012-22.67.564-1.444 1.311-2.805 2.406-3.917 2.208-2.274 4.946-2.108 6.954.382 1.942 2.406 2.888 5.294 3.718 8.198 1.029 3.651 1.56 7.386 2.041 11.153.813 6.373.996 12.779 1.228 19.202.15 4.365.316 8.746.183 13.111-.15 4.879-.133 9.775-.398 14.654-.266 4.879-.432 9.742-.681 14.621 0 .133.033.249.083.548.664-1.079.747-2.191.996-3.22 3.07-12.961 7.003-25.657 12.198-37.922 3.22-7.584 6.788-15.003 11.717-21.675 1.992-2.705 4.116-5.294 7.053-7.02 1.56-.913 3.203-1.626 5.112-1.128 1.992.514 3.153 1.875 3.85 3.717.996 2.639 1.245 5.394 1.013 8.149a117.388 117.388 0 0 1-1.809 12.945c-1.544 7.833-3.834 15.451-6.639 22.919-5.178 13.825-11.119 27.368-16.812 41.01-.249.581-.647 1.128-.514 1.825-.199.033-.299.15-.299.332 0 .05.116.1.183.15.049-.166.083-.316.132-.482 1.096-.763 1.61-1.991 2.324-3.02 3.9-5.593 7.916-11.087 12.331-16.281 4.298-5.045 8.763-9.941 14.455-13.493 2.025-1.261 4.099-2.423 6.605-2.406 2.838.016 4.764 1.294 5.66 4.033.581 1.775.73 3.568.514 5.476-.73 6.307-3.352 11.833-6.688 17.061-4.647 7.269-10.024 13.974-15.783 20.397-5.776 6.439-12.314 12.016-19.069 17.36-5.991 4.746-11.883 9.625-17.808 14.438-1.593 1.295-3.22 2.556-4.929 3.701-1.709 1.162-3.535 1.444-5.493.897-7.801-2.224-15.468-4.73-22.654-8.581-5.626-3.02-10.854-6.605-15.783-10.671-4.73-3.884-9.277-7.95-13.443-12.431-3.668-3.966-7.12-8.115-9.626-12.945-.797-1.527-1.162-3.12-.996-4.829.166-1.726 1.477-3.187 3.203-3.353 1.461-.132 2.938-.116 4.382.349 3.867 1.245 7.12 3.551 10.206 6.074 6.855 5.626 13.659 11.302 20.165 17.327 1.925 1.792 3.933 3.501 5.908 5.244.249.216.498.415.83.448.083.299.199.548.531.647.017.05.033.1.066.133.017.017.067.017.1.017-.066-.05-.133-.083-.199-.133.083-.315-.033-.581-.332-.797z" fill="#009688"/><path d="m195.833 192.928 24.329-23.241m421.486 25.759 24.33-23.24m-398.361-49.803 24.329-23.24m281.696 10.646 24.33-23.24M220.713 192.665c.52.544.501 1.405-.044 1.919a1.354 1.354 0 0 1-1.92-.044c-.52-.544-.5-1.405.044-1.919a1.353 1.353 0 0 1 1.92.044m445.816 2.518c.52.545.5 1.406-.044 1.92a1.354 1.354 0 0 1-1.92-.044 1.354 1.354 0 0 1 .044-1.92c.539-.52 1.399-.5 1.92.044M292.497 122.14c.52.545.501 1.405-.044 1.92-.544.52-1.405.5-1.92-.044-.52-.545-.5-1.405.044-1.92.539-.52 1.4-.5 1.92.044m306.026-12.593c.52.544.5 1.405-.044 1.919a1.353 1.353 0 0 1-1.92-.044c-.52-.544-.5-1.405.044-1.919a1.353 1.353 0 0 1 1.92.044m-401.271 58.529c.52.544.5 1.405-.044 1.919a1.359 1.359 0 1 1 .044-1.919m445.815 2.518c.52.545.501 1.405-.044 1.92-.544.52-1.405.5-1.92-.044a1.36 1.36 0 0 1 .044-1.92 1.36 1.36 0 0 1 1.92.044M269.036 97.551c.52.545.5 1.405-.044 1.92a1.358 1.358 0 1 1 .044-1.92m306.026-12.594c.52.545.5 1.406-.044 1.92a1.358 1.358 0 1 1 .044-1.92" stroke="#E1E4E5" stroke-width="5.51" stroke-linecap="round" stroke-linejoin="round"/></svg>