<svg width="900" height="600" viewBox="0 0 900 600" fill="none" xmlns="http://www.w3.org/2000/svg"><path fill="transparent" d="M0 0h900v600H0z"/><path fill-rule="evenodd" clip-rule="evenodd" d="M127 452.551s82.957-65.62 199.519-66.541c117.09-.926 210.246 64.294 218.827 67.664L127 452.551z" fill="#fff" stroke="#E1E4E5" stroke-width="4"/><path fill-rule="evenodd" clip-rule="evenodd" d="M355.654 452.551s82.957-65.62 199.519-66.541c117.09-.926 210.245 64.294 218.827 67.664l-418.346-1.123z" fill="#fff" stroke="#E1E4E5" stroke-width="4"/><path fill-rule="evenodd" clip-rule="evenodd" d="M262.348 452.551s82.957-65.62 199.519-66.541c117.09-.926 210.245 64.294 218.827 67.664l-418.346-1.123z" fill="#fff" stroke="#E1E4E5" stroke-width="4"/><path fill-rule="evenodd" clip-rule="evenodd" d="M225.435 452.648v-13.33 13.33z" fill="#fff"/><path d="M225.435 452.648v-13.33" stroke="#E1E4E5" stroke-width="4"/><path fill-rule="evenodd" clip-rule="evenodd" d="M342.326 452.648v-13.33 13.33z" fill="#fff"/><path d="M342.326 452.648v-13.33" stroke="#E1E4E5" stroke-width="4"/><path fill-rule="evenodd" clip-rule="evenodd" d="M543.295 452.648v-13.33 13.33z" fill="#fff"/><path d="M543.295 452.648v-13.33" stroke="#E1E4E5" stroke-width="4"/><path fill-rule="evenodd" clip-rule="evenodd" d="M711.454 452.648v-13.33 13.33z" fill="#fff"/><path d="M711.454 452.648v-13.33" stroke="#E1E4E5" stroke-width="4"/><path fill-rule="evenodd" clip-rule="evenodd" d="M239.791 452.648v-9.228 9.228z" fill="#fff"/><path d="M239.791 452.648v-9.228" stroke="#E1E4E5" stroke-width="4"/><path fill-rule="evenodd" clip-rule="evenodd" d="M355.654 452.648v-9.228 9.228z" fill="#fff"/><path d="M355.654 452.648v-9.228" stroke="#E1E4E5" stroke-width="4"/><path fill-rule="evenodd" clip-rule="evenodd" d="M557.65 452.648v-9.228 9.228z" fill="#fff"/><path d="M557.65 452.648v-9.228" stroke="#E1E4E5" stroke-width="4"/><path fill-rule="evenodd" clip-rule="evenodd" d="M725.808 452.648v-9.228 9.228z" fill="#fff"/><path d="M725.808 452.648v-9.228" stroke="#E1E4E5" stroke-width="4"/><path fill-rule="evenodd" clip-rule="evenodd" d="M211.079 452.648v-9.228 9.228z" fill="#fff"/><path d="M211.079 452.648v-9.228" stroke="#E1E4E5" stroke-width="4"/><path fill-rule="evenodd" clip-rule="evenodd" d="M327.971 452.648v-9.228 9.228z" fill="#fff"/><path d="M327.971 452.648v-9.228" stroke="#E1E4E5" stroke-width="4"/><path fill-rule="evenodd" clip-rule="evenodd" d="M528.939 452.648v-9.228 9.228z" fill="#fff"/><path d="M528.939 452.648v-9.228" stroke="#E1E4E5" stroke-width="4"/><path fill-rule="evenodd" clip-rule="evenodd" d="M697.099 452.648v-9.228 9.228z" fill="#fff"/><path d="M697.099 452.648v-9.228" stroke="#E1E4E5" stroke-width="4"/><path fill-rule="evenodd" clip-rule="evenodd" d="M639.186 255.867h.072a3.57 3.57 0 0 1 3.57 3.57v160.98h-7.212v-160.98a3.57 3.57 0 0 1 3.57-3.57z" fill="#fff" stroke="#E1E4E5" stroke-width="4"/><path fill-rule="evenodd" clip-rule="evenodd" d="M576 331.236c0 35.069 28.429 63.501 63.5 63.501s63.5-28.432 63.5-63.501C703 296.166 674.571 227 639.5 227S576 296.166 576 331.236z" fill="#fff"/><path d="M576 331.236c0 35.069 28.429 63.501 63.5 63.501s63.5-28.432 63.5-63.501C703 296.166 674.571 227 639.5 227S576 296.166 576 331.236" stroke="#E1E4E5" stroke-width="4"/><path fill-rule="evenodd" clip-rule="evenodd" d="M253.186 255.867h.072a3.57 3.57 0 0 1 3.57 3.57v160.98h-7.212v-160.98a3.57 3.57 0 0 1 3.57-3.57z" fill="#fff" stroke="#E1E4E5" stroke-width="4"/><path fill-rule="evenodd" clip-rule="evenodd" d="M190 331.236c0 35.069 28.429 63.501 63.5 63.501s63.5-28.432 63.5-63.501C317 296.166 288.571 227 253.5 227S190 296.166 190 331.236z" fill="#fff"/><path d="M190 331.236c0 35.069 28.429 63.501 63.5 63.501s63.5-28.432 63.5-63.501C317 296.166 288.571 227 253.5 227S190 296.166 190 331.236" stroke="#E1E4E5" stroke-width="4"/><path fill-rule="evenodd" clip-rule="evenodd" d="M157.339 351.774h.037c1.009 0 1.828.818 1.828 1.828v82.391h-3.692v-82.391c0-1.01.818-1.828 1.827-1.828z" fill="#fff" stroke="#E1E4E5" stroke-width="4"/><path fill-rule="evenodd" clip-rule="evenodd" d="M125 390.349c0 17.949 14.55 32.501 32.5 32.501s32.5-14.552 32.5-32.501C190 372.4 175.45 337 157.5 337S125 372.4 125 390.349z" fill="#fff"/><path d="M125 390.349c0 17.949 14.55 32.501 32.5 32.501s32.5-14.552 32.5-32.501C190 372.4 175.45 337 157.5 337S125 372.4 125 390.349" stroke="#E1E4E5" stroke-width="4"/><path fill-rule="evenodd" clip-rule="evenodd" d="M305.539 422.297h.026c.703 0 1.273.57 1.273 1.273v57.423h-2.573V423.57c0-.703.571-1.273 1.274-1.273z" fill="#fff" stroke="#E1E4E5" stroke-width="4"/><path fill-rule="evenodd" clip-rule="evenodd" d="M283 449.182c0 12.509 10.141 22.651 22.651 22.651s22.651-10.142 22.651-22.651c0-12.51-10.141-37.182-22.651-37.182S283 436.672 283 449.182z" fill="#fff"/><path d="M283 449.182c0 12.509 10.141 22.651 22.651 22.651s22.651-10.142 22.651-22.651c0-12.51-10.141-37.182-22.651-37.182S283 436.672 283 449.182" stroke="#E1E4E5" stroke-width="4"/><path fill-rule="evenodd" clip-rule="evenodd" d="M741.339 367.774h.037c1.009 0 1.828.818 1.828 1.828v82.391h-3.692v-82.391c0-1.01.818-1.828 1.827-1.828z" fill="#fff" stroke="#E1E4E5" stroke-width="4"/><path fill-rule="evenodd" clip-rule="evenodd" d="M709 406.349c0 17.949 14.55 32.501 32.5 32.501s32.5-14.552 32.5-32.501C774 388.4 759.45 353 741.5 353S709 388.4 709 406.349z" fill="#fff"/><path d="M709 406.349c0 17.949 14.55 32.501 32.5 32.501s32.5-14.552 32.5-32.501C774 388.4 759.45 353 741.5 353S709 388.4 709 406.349" stroke="#E1E4E5" stroke-width="4"/><path fill-rule="evenodd" clip-rule="evenodd" d="M91.901 429.092h.023c.62 0 1.124.503 1.124 1.124v50.703h-2.271v-50.703c0-.621.503-1.124 1.124-1.124z" fill="#fff" stroke="#E1E4E5" stroke-width="4"/><path fill-rule="evenodd" clip-rule="evenodd" d="M72 452.83c0 11.046 8.954 20 20 20s20-8.954 20-20c0-11.045-8.954-32.83-20-32.83s-20 21.785-20 32.83z" fill="#fff"/><path d="M72 452.83c0 11.046 8.954 20 20 20s20-8.954 20-20c0-11.045-8.954-32.83-20-32.83s-20 21.785-20 32.83" stroke="#E1E4E5" stroke-width="4"/><path fill-rule="evenodd" clip-rule="evenodd" d="M619.901 429.092h.023c.621 0 1.124.503 1.124 1.124v50.703h-2.271v-50.703c0-.621.503-1.124 1.124-1.124z" fill="#fff" stroke="#E1E4E5" stroke-width="4"/><path fill-rule="evenodd" clip-rule="evenodd" d="M600 452.83c0 11.046 8.954 20 20 20s20-8.954 20-20c0-11.045-8.954-32.83-20-32.83s-20 21.785-20 32.83z" fill="#fff"/><path d="M600 452.83c0 11.046 8.954 20 20 20s20-8.954 20-20c0-11.045-8.954-32.83-20-32.83s-20 21.785-20 32.83" stroke="#E1E4E5" stroke-width="4"/><path fill-rule="evenodd" clip-rule="evenodd" d="M808.901 423.092h.023c.621 0 1.124.503 1.124 1.124v50.703h-2.271v-50.703c0-.621.503-1.124 1.124-1.124z" fill="#fff" stroke="#E1E4E5" stroke-width="4"/><path fill-rule="evenodd" clip-rule="evenodd" d="M789 446.83c0 11.046 8.954 20 20 20s20-8.954 20-20c0-11.045-8.954-32.83-20-32.83s-20 21.785-20 32.83z" fill="#fff"/><path d="M789 446.83c0 11.046 8.954 20 20 20s20-8.954 20-20c0-11.045-8.954-32.83-20-32.83s-20 21.785-20 32.83" stroke="#E1E4E5" stroke-width="4"/><circle cx="450" cy="255" r="159" fill="#009688"/><path fill-rule="evenodd" clip-rule="evenodd" d="M450.076 240.799c39.213 0 71.001 31.788 71.001 71.001 0 13.071-10.596 23.667-23.667 23.667h-94.667c-13.071 0-23.667-10.596-23.667-23.667 0-39.213 31.788-71.001 71-71.001z" fill="#fff"/><path d="M389.051 201.682a5.085 5.085 0 0 0 .027 10.171 5.086 5.086 0 0 0 5.079-5.086 5.067 5.067 0 0 0-5.106-5.085m122.051 0a5.085 5.085 0 0 0 .027 10.171 5.087 5.087 0 0 0 5.079-5.086 5.067 5.067 0 0 0-5.106-5.085m-61.025-20.344a5.086 5.086 0 1 0 5.106 5.086 5.067 5.067 0 0 0-5.106-5.086" stroke="#fff" stroke-width="30.5" stroke-linecap="round" stroke-linejoin="round"/><path d="M752.24 328.865c-11.142 2.64-22.927-6.809-22.927-6.809s6.289-13.724 17.435-16.356c11.142-2.639 22.923 6.802 22.923 6.802s-6.289 13.724-17.431 16.363z" fill="url(#a)"/><path d="M146.142 495.455c-12.8 3.032-26.337-7.822-26.337-7.822s7.224-15.765 20.028-18.788c12.799-3.032 26.332 7.813 26.332 7.813s-7.224 15.765-20.023 18.797z" fill="url(#b)"/><path d="M259.373 187.456c4.363 9.014 17.28 11.788 17.28 11.788s5.834-11.844 1.464-20.856c-4.363-9.014-17.272-11.79-17.272-11.79s-5.835 11.844-1.472 20.858z" fill="url(#c)"/><ellipse cx="721" cy="240.5" rx="9" ry="8.5" transform="rotate(180 721 240.5)" fill="#009688"/><circle cx="410.5" cy="478.5" r="5.5" transform="rotate(180 410.5 478.5)" fill="#E1E4E5"/><circle r="6" transform="matrix(-1 0 0 1 170 298)" fill="#009688"/><ellipse rx="9" ry="8.5" transform="matrix(-1 0 0 1 545 476.5)" fill="#E1E4E5"/><circle r="5" transform="matrix(-1 0 0 1 472 431)" fill="#E1E4E5"/><ellipse rx="5.5" ry="6" transform="matrix(-1 0 0 1 697.5 471)" fill="#E1E4E5"/><circle r="4.5" transform="matrix(-1 0 0 1 595.5 139.5)" fill="#E1E4E5"/><circle r="9.891" transform="scale(1 -1) rotate(-75 -192.246 -401.276)" fill="#E1E4E5"/><circle r="11.83" transform="scale(1 -1) rotate(-75 187.923 -499.214)" fill="#E1E4E5"/><defs><linearGradient id="a" x1="710.281" y1="335.428" x2="807.82" y2="289.348" gradientUnits="userSpaceOnUse"><stop stop-color="#fff"/><stop offset="1" stop-color="#EEE"/></linearGradient><linearGradient id="b" x1="97.944" y1="502.994" x2="209.986" y2="450.061" gradientUnits="userSpaceOnUse"><stop stop-color="#fff"/><stop offset="1" stop-color="#EEE"/></linearGradient><linearGradient id="c" x1="278.094" y1="219.536" x2="255.48" y2="127.939" gradientUnits="userSpaceOnUse"><stop stop-color="#fff"/><stop offset="1" stop-color="#EEE"/></linearGradient></defs></svg>