<svg width="900" height="600" viewBox="0 0 900 600" fill="none" xmlns="http://www.w3.org/2000/svg"><path fill="transparent" d="M0 0h900v600H0z"/><path clip-rule="evenodd" d="M588.179 387.428h42.605c11.759 0 21.303 9.543 21.303 21.302v42.605c0 11.759-9.544 21.302-21.303 21.302h-42.605c-11.759 0-21.302-9.543-21.302-21.302V408.73c0-11.759 9.543-21.302 21.302-21.302zM289.945 89.194h42.605c11.759 0 21.302 9.543 21.302 21.302v42.605c0 11.759-9.543 21.302-21.302 21.302h-42.605c-11.759 0-21.302-9.543-21.302-21.302v-42.605c0-11.759 9.543-21.302 21.302-21.302z" stroke="#E1E4E5" stroke-width="8" stroke-linecap="round" stroke-linejoin="round"/><path clip-rule="evenodd" d="M439.062 238.311h42.605c11.759 0 21.303 9.543 21.303 21.302v42.605c0 11.759-9.544 21.303-21.303 21.303h-42.605c-11.759 0-21.302-9.544-21.302-21.303v-42.605c0-11.759 9.543-21.302 21.302-21.302z" stroke="#E1E4E5" stroke-width="12" stroke-linecap="round" stroke-linejoin="round"/><path d="M439.062 131.798h170.42c23.539 0 42.605 19.066 42.605 42.605v63.908c0 23.539-19.066 42.604-42.605 42.604h-42.605m-85.21 149.118H311.248c-23.54 0-42.605-19.066-42.605-42.605V323.52c0-23.539 19.065-42.604 42.605-42.604h42.604" stroke="#E1E4E5" stroke-width="8" stroke-linecap="round" stroke-linejoin="round"/><circle cx="467.383" cy="280.993" r="78.733" fill="#009688" stroke="#009688" stroke-width="11.812" stroke-linecap="round" stroke-linejoin="round"/><path d="m475.715 251.834-16.663 58.321m-18.756-20.832-16.656-16.656 16.656-16.666m54.159 49.987 16.665-16.665-16.665-16.656" stroke="#fff" stroke-width="9.45" stroke-linecap="round" stroke-linejoin="round"/><rect x="692.86" y="131.702" width="158.467" height="7.35" rx="3.675" fill="#E1E4E5"/><rect x="669.726" y="299.423" width="158.467" height="7.35" rx="3.675" fill="#E1E4E5"/><rect x="97.163" y="206.887" width="158.467" height="7.35" rx="3.675" fill="#E1E4E5"/><rect x="89.066" y="445.166" width="158.467" height="7.35" rx="3.675" fill="#E1E4E5"/><rect x="692.86" y="169.873" width="158.467" height="7.35" rx="3.675" fill="#E1E4E5"/><rect x="669.726" y="337.593" width="158.467" height="7.35" rx="3.675" fill="#E1E4E5"/><rect x="97.163" y="245.058" width="158.467" height="7.35" rx="3.675" fill="#E1E4E5"/><rect x="89.066" y="483.337" width="158.467" height="7.35" rx="3.675" fill="#E1E4E5"/><path d="M764.964 231.931c15.739-3.729 32.386 9.619 32.386 9.619s-8.884 19.386-24.628 23.103c-15.739 3.729-32.381-9.607-32.381-9.607s8.884-19.386 24.623-23.115z" fill="url(#a)"/><circle cx="207.865" cy="321.348" r="15.854" fill="#009688"/><circle r="11.903" transform="matrix(1 0 0 -1 840.096 236.43)" fill="#009688"/><circle r="11.903" transform="matrix(1 0 0 -1 584.467 186.693)" fill="#009688"/><circle r="22.725" transform="matrix(1 0 0 -1 326.936 505.194)" fill="#009688"/><circle r="12.683" transform="matrix(1 0 0 -1 609.537 430.377)" fill="#E1E4E5"/><circle r="10.821" transform="matrix(1 0 0 -1 439.955 494.447)" fill="#E1E4E5"/><circle r="10.575" transform="scale(-1 1) rotate(-75 -106.451 688.544)" fill="#E1E4E5"/><circle r="14.068" transform="matrix(1 0 0 -1 729.916 108.021)" fill="#E1E4E5"/><ellipse rx="10.821" ry="8.657" transform="matrix(1 0 0 -1 59.403 293.31)" fill="#E1E4E5"/><circle r="15.545" transform="scale(-1 1) rotate(-75 -45.443 183.402)" fill="#E1E4E5"/><path d="M129.51 372.474h-.283c-1.677-23.752-19.341-24.117-19.341-24.117s19.479-.38 19.479-27.825c0 27.445 19.478 27.825 19.478 27.825s-17.657.365-19.333 24.117zm14.285-231.006h-.205c-1.217-17.696-14.04-17.968-14.04-17.968s14.14-.284 14.14-20.73c0 20.446 14.139 20.73 14.139 20.73s-12.817.272-14.034 17.968z" fill="#E1E4E5"/><defs><linearGradient id="a" x1="824.233" y1="222.66" x2="686.453" y2="287.752" gradientUnits="userSpaceOnUse"><stop stop-color="#fff"/><stop offset="1" stop-color="#EEE"/></linearGradient></defs></svg>