<svg width="900" height="600" viewBox="0 0 900 600" fill="none" xmlns="http://www.w3.org/2000/svg"><path fill="transparent" d="M0 0h900v600H0z"/><path d="M693.628 397.154c2.836 52.253-99.324 158.505-225.243 119.178-58.563-18.293-53.603-48.654-98.134-88.667-26.544-23.849-64.682-41.882-75.289-76.548-9.163-29.922-3.544-62.083 12.342-83.002 35.729-47.045 107.857-79.26 178.926-5.136 71.069 74.124 200.07-.591 207.398 134.175z" fill="url(#a)"/><path d="M652.126 174.456c-8.397 14.986-26.787 17.045-56.248 14.197-22.158-2.145-42.363-3.806-64.522-15.887-15.51-8.45-27.787-19.883-36.748-30.987-9.71-12.029-23.263-25.758-16.619-39.397 9.13-18.736 61.933-34.516 113.205-8.71 56.324 28.354 69.146 66.138 60.932 80.784z" fill="url(#b)"/><path d="M603.451 76.98a25.953 25.953 0 0 0-1.656-.533c-.185-.053-.367-.11-.552-.157a46.972 46.972 0 0 0-1.193-.286 19.482 19.482 0 0 0-.575-.115 32.561 32.561 0 0 0-1.204-.202 29.66 29.66 0 0 0-.707-.09 25.307 25.307 0 0 0-1.331-.118c-.143-.008-.286-.022-.429-.027a26.42 26.42 0 0 0-1.263-.031H400.449a25.443 25.443 0 0 0-3.985.303 26.83 26.83 0 0 0-1.288.23c-11.077 2.268-19.602 11.553-20.764 23.017-.09.884-.135 1.778-.135 2.684v397.653c0 11.355 7.196 21.022 17.267 24.675.045.017.09.031.135.045.5.176 1.007.339 1.518.485.185.053.368.109.556.157.196.05.393.098.589.146.199.047.401.095.603.14.191.042.382.078.576.115a35.249 35.249 0 0 0 1.201.202c.233.033.469.061.707.089a24.344 24.344 0 0 0 1.33.118c.143.008.286.023.43.028.418.02.839.031 1.262.031h194.096c.903 0 1.796-.045 2.677-.135 12.317-1.253 22.111-11.071 23.362-23.418.09-.884.135-1.778.135-2.683V101.655c-.006-11.355-7.201-21.022-17.27-24.675z" fill="#009688"/><path d="M497.496 504.169c8.333 0 15.088-6.755 15.088-15.088 0-8.333-6.755-15.088-15.088-15.088-8.333 0-15.088 6.755-15.088 15.088 0 8.333 6.755 15.088 15.088 15.088z" fill="#fff"/><rect x="472.35" y="95.535" width="51.551" height="5.029" rx="2.515" fill="#fff"/><circle cx="481.853" cy="205.138" r="6.16" fill="#fff"/><path d="M544.223 216.439a44.73 44.73 0 0 0-6.403-.52c-12.924-.093-25.238 5.573-33.687 15.502-8.449 9.928-12.183 23.119-10.216 36.087" stroke="#fff" stroke-width="10.395" stroke-linecap="round" stroke-linejoin="round"/><path clip-rule="evenodd" d="M546.533 219.383v0a49.666 49.666 0 0 1-49.665 49.664v0a49.665 49.665 0 0 1-49.665-49.664v0a49.665 49.665 0 0 1 49.665-49.665v0a49.665 49.665 0 0 1 49.665 49.665z" stroke="#fff" stroke-width="10.395" stroke-linecap="round" stroke-linejoin="round"/><rect x="430.857" y="367.12" width="139.564" height="10.059" rx="5.029" fill="#fff"/><rect x="440.916" y="336.944" width="129.506" height="10.059" rx="5.029" fill="#fff"/><rect x="424.571" y="306.768" width="145.851" height="10.059" rx="5.029" fill="#fff"/><circle r="7.976" transform="scale(1 -1) rotate(-75 261.025 -473.433)" fill="#E1E4E5"/><path d="M264.068 146.011c-.626 2.501.204 5.101 1.573 7.286.967 1.543 2.319-.161 4.291-.434 3.049-.427 4.98-3.656 5.64-11.52.306-5.745.162-8.611-.158-9.112-1.139-1.796-4.069-2.396-6.38-2.223" fill="#133835"/><path fill-rule="evenodd" clip-rule="evenodd" d="M269.604 487.85s-.185 11.811 7.105 16.006c7.29 4.196 18.584 11.992 18.584 11.992l-42.965 1.448 1.225-29.552 16.051.106z" fill="#F8AE9D"/><path fill-rule="evenodd" clip-rule="evenodd" d="m250.829 500.866-.699 19.16h9.98l.684-2.468s3.757-.153 5.928.913c2.295 1.128 2.603 1.674 2.603 1.674l31.655.067s1.561-6.193-8.088-10.672c-9.649-4.481-16.674-10.84-18.009-11.49-1.344-.656-4.056-1.027-5.966.514-1.91 1.54-3.421 5.589-7.749 5.716-5.57.164-8.77-6.655-10.339-3.414zm-12.338-205.777s11.727 99.502 12.091 106.419c.365 6.917-3.766 18.854-3.686 31.793.081 12.938 1.509 58.538 1.509 58.538l25.868.422s10.872-82.403 10.989-94.76c.117-12.357 1.114-101.223 1.114-101.223l-47.885-1.189z" fill="#133835"/><path fill-rule="evenodd" clip-rule="evenodd" d="m206.852 485.774-5.041 30.616 18.584-.094.588-31.002-14.131.48z" fill="#F8AE9D"/><path fill-rule="evenodd" clip-rule="evenodd" d="M203.851 499.234a2.747 2.747 0 0 0-2.162 2.594l-.184 5.584c-2.661 2.959-3.901 11.577-4.006 12.336a.545.545 0 0 0-.006.114c.263 4.2 27.842 4.123 30.015.133a.607.607 0 0 0 .052-.403c-.236-1.459-1.748-10.128-4.716-12.456l-.02-5.522a2.748 2.748 0 0 0-2.033-2.642l-3.765-1.013c-2.717-3.972-6.42-3.832-9.592.497l-3.583.778zm12.125-203.209s-8.282 67.888-8.169 80.889c.112 13.001 2.548 18.71-.919 28.036-3.468 9.327-6.425 83.767-6.425 83.767l25.642 2.136s16.381-79.656 18.162-90.699c1.782-11.044 23.798-105.065 23.798-105.065l-52.089.936z" fill="#133835"/><path fill-rule="evenodd" clip-rule="evenodd" d="M343.839 173.964s-2.141-11.931-1.372-14.347c.658-2.088 6.872-5.099 6.872-5.099s10.81-17.076 13.175-15.337c1.925 1.41-5.629 13.998-5.629 13.998s6.888 7.227 6.792 10.457c-.096 3.231-11.242 13.343-11.242 13.343l-8.596-3.015zm-111.097 2.803s7.119-1.671 7.366-13.336c.247-11.664.074-15.646.074-15.646l16.877-.283s.17 13 .173 17.702c.007 10.237 7.609 13.003 7.609 13.003s-.632 11.193-14.84 11.992c-11.094.625-17.259-13.432-17.259-13.432z" fill="#F8AE9D"/><path fill-rule="evenodd" clip-rule="evenodd" d="M238.631 141.889c-6.995-.271-5.854 9.969 1.413 9.956 0 0 7.809 15.702 20.07 15.743 5.906.02 7.834-5.241 9.605-8.934 1.77-3.693 3.07-9.217 3.178-12.6.116-3.606.131-15.454.131-15.454l-34.669-.015.272 11.304z" fill="#F8AE9D"/><path fill-rule="evenodd" clip-rule="evenodd" d="M265.107 177.512s18.182 5.676 22.563 12.456c14.115 12.399 31.767 29.427 31.767 29.427s16.813-42.196 22.309-47.007c3.761-3.291 11.253.779 12.649 4.962 1.794 5.373-9.721 36.887-15.16 51.77v.001c-1.053 2.883-1.879 5.142-2.335 6.465-3.316 9.622-11.385 15.14-21.204 9.025-3.958-2.465-15.737-10.542-25.786-17.864-.157 7.691-.421 15.797-.673 23.495v.002c-.611 18.703-1.143 35.002.136 37.12 6.338 10.497-2.089 17.703-29.99 20.351-27.9 2.648-52.652.479-48.161-13.529.937-2.92.925-9.203.458-17.365a328.014 328.014 0 0 1-8.194-.541c-11.644-.917-20.255-5.92-21.456-18.915-.842-9.099 16.494-51.818 22.994-65.864 1.521-3.286 3.872-5.333 6.536-6.353.62-.692 1.318-1.178 2.103-1.437 4.775-1.573 21.895-8.766 21.895-8.766l20.366 13.325 9.183-10.758zm-55.313 75.197a5.185 5.185 0 0 0-.046.119l.056.007-.01-.126z" fill="#009688"/><path fill-rule="evenodd" clip-rule="evenodd" d="M254.984 263.983s6.212-1.249 8.754-3.245c2.542-1.995 10.241-3.406 10.241-3.406l-2.463 5.187s18.869-1.771 19.316.09c.448 1.862-5.01 3.885-5.01 3.885s-2.692 5.028-5.297 7.942c-2.466 2.757-14.714 2.429-19.007.708-3.711-1.486-7.745-.743-7.745-.743l1.211-10.418z" fill="#F8AE9D"/><path d="M240.534 131.067c1.022 1.338 2.825 1.633 4.309 1.898 1.996.355 2.983 1.096 4.019 3.084.656 1.27 1.312 2.661 2.486 3.349.956.563.927-.861 1.069-1.962a2.147 2.147 0 0 1 .06-.305c.228-.88 1.162-.733 1.433.135.248.786.78 1.452 1.457 1.822.11.06.228.113.345.091.159-.023.283-.174.387-.31.215-.283.429-.642.65-1.022.731-1.256 2.124-.815 2.94.387.511.748 1.119 1.519 1.955 1.693.269.061.607.015.732-.249.158-.325-.09-.651-.049-.983.035-.31.166-.446.311-.711.566-1.02 1.876-1.058 2.675-.207a29.705 29.705 0 0 0 1.738 1.704c.255.227.628.454.883.227.138-.121.173-.325.201-.522.145-.96.283-1.92.428-2.88.083-.537.366-1.24.849-1.104.235.068.373.318.504.545.159.287 2.997 3.56 3.052 3.311.442-1.86 1.347-3.553 1.789-5.413 2.859-11.966-9.826-21.589-19.515-21.642-2.154-.016-4.122.02-6.214.527-2.231.544-4.585 1.408-6.609 2.625-2.838 1.701-4.985 4.793-4.433 8.482" fill="#133835"/><path d="M248.413 127.199c1.366 1.563 1.728 3.761 1.855 5.838.187 3.132-.067 6.385-1.5 9.165-.409.792-.71 4.708-1.34 4.492-.2-.068-.167-3.105-.696-4.742-.817-2.537-4.581-3.504-6.275-1.901-2.705 2.55-1.118 5.648-.221 7.576.536 1.164 1.386 2.469 1.534 3.7.18 1.576.234 7.319-.784 8.658-.85 1.123-1.754-4.302-2.524-5.37-5.699-7.962-11.164-28.234-1.434-32.631 1.48-.669 6.048-1.014 7.434-.162" fill="#133835"/><path d="M147.549 350.114c-6.178 1.464-12.712-3.776-12.712-3.776s3.487-7.609 9.667-9.068c6.178-1.464 12.71 3.771 12.71 3.771s-3.487 7.61-9.665 9.073z" fill="url(#c)"/><path d="M717.759 101.92c-12.038 12.253-34.55 9.669-34.55 9.669s-2.979-22.45 9.071-34.695c12.038-12.253 34.539-9.677 34.539-9.677s2.979 22.45-9.06 34.703z" fill="url(#d)"/><circle cx="755.624" cy="442.558" r="10.343" transform="rotate(180 755.624 442.558)" fill="#009688"/><ellipse cx="322.453" cy="458.88" rx="11.453" ry="10.88" transform="rotate(180 322.453 458.88)" fill="#009688"/><circle r="14.826" transform="matrix(-1 0 0 1 734.198 190.895)" fill="#009688"/><ellipse rx="10.307" ry="9.735" transform="matrix(-1 0 0 1 321.307 392.735)" fill="#E1E4E5"/><circle r="8.274" transform="matrix(-1 0 0 1 162.274 402.274)" fill="#E1E4E5"/><circle r="4.942" transform="matrix(-1 0 0 1 690.942 489.942)" fill="#E1E4E5"/><circle r="7.06" transform="matrix(-1 0 0 1 572.06 51.06)" fill="#E1E4E5"/><circle r="6.899" transform="scale(1 -1) rotate(-75 -240.404 -344.366)" fill="#E1E4E5"/><circle r="9.178" transform="matrix(-1 0 0 1 145.178 196.178)" fill="#E1E4E5"/><ellipse rx="7.06" ry="5.648" transform="matrix(-1 0 0 1 759.161 358.648)" fill="#E1E4E5"/><circle r="14.358" transform="scale(1 -1) rotate(-75 79.772 -635.759)" fill="#E1E4E5"/><path d="M717.714 283h.185c1.094 15.496 12.618 15.734 12.618 15.734s-12.708.248-12.708 18.153c0-17.905-12.708-18.153-12.708-18.153s11.52-.238 12.613-15.734zM277.42 44h.181c1.068 15.765 12.323 16.008 12.323 16.008s-12.411.252-12.411 18.468c0-18.216-12.412-18.468-12.412-18.468S276.352 59.765 277.42 44zm-115.101 81h.18c1.069 15.765 12.324 16.008 12.324 16.008s-12.412.252-12.412 18.468c0-18.216-12.411-18.468-12.411-18.468s11.251-.243 12.319-16.008zm511.101 66h.18c1.069 15.765 12.324 16.008 12.324 16.008s-12.411.252-12.411 18.468c0-18.216-12.412-18.468-12.412-18.468s11.251-.243 12.319-16.008zM324.204 95h.135c.798 11.779 9.208 11.961 9.208 11.961s-9.273.188-9.273 13.799c0-13.611-9.274-13.799-9.274-13.799s8.406-.182 9.204-11.961z" fill="#E1E4E5"/><defs><linearGradient id="a" x1="571.526" y1="710.37" x2="380.43" y2="-151.787" gradientUnits="userSpaceOnUse"><stop stop-color="#fff"/><stop offset="1" stop-color="#EEE"/></linearGradient><linearGradient id="b" x1="595.56" y1="271.578" x2="520.717" y2="-64.733" gradientUnits="userSpaceOnUse"><stop stop-color="#fff"/><stop offset="1" stop-color="#EEE"/></linearGradient><linearGradient id="c" x1="124.284" y1="353.753" x2="178.367" y2="328.203" gradientUnits="userSpaceOnUse"><stop stop-color="#fff"/><stop offset="1" stop-color="#EEE"/></linearGradient><linearGradient id="d" x1="669.727" y1="143.773" x2="756.76" y2="7.341" gradientUnits="userSpaceOnUse"><stop stop-color="#fff"/><stop offset="1" stop-color="#EEE"/></linearGradient></defs></svg>