<svg width="900" height="600" viewBox="0 0 900 600" fill="none" xmlns="http://www.w3.org/2000/svg"><path fill="transparent" d="M0 0h900v600H0z"/><path d="M714.99 181.698c-18.441-60.19-177.832-137.876-303.756-41.303-58.566 44.918-40.387 77.153-74.108 140.79-20.1 37.929-55.703 74.094-53.324 117.639 2.044 37.59 21.712 71.585 48.319 88.631 59.839 38.334 154.645 44.842 204.208-68.312 49.564-113.154 226.205-82.204 178.661-237.445z" fill="url(#a)"/><path d="M349.857 149.812c-21.015 56.034-42.048 115.241-80.523 151.936-39.682 37.863-52.451 24.502-62.34.471-9.888-24.03-11.348-86.854 43.105-137.412 54.467-50.572 119.418-67.437 99.758-14.995z" fill="url(#b)"/><rect x="255.97" y="217.857" width="29.608" height="3.45" rx="1.725" transform="rotate(135 255.97 217.857)" fill="#E1E4E5"/><rect x="244.617" y="217.777" width="10.994" height="3.45" rx="1.725" transform="rotate(135 244.617 217.777)" fill="#E1E4E5"/><rect x="559.893" y="502.947" width="29.608" height="3.45" rx="1.725" transform="rotate(-45 559.893 502.947)" fill="#E1E4E5"/><rect x="571.245" y="503.028" width="10.994" height="3.45" rx="1.725" transform="rotate(-45 571.245 503.028)" fill="#E1E4E5"/><rect x="739.825" y="110.81" width="29.608" height="3.45" rx="1.725" transform="rotate(135 739.825 110.81)" fill="#E1E4E5"/><rect x="728.473" y="110.729" width="10.994" height="3.45" rx="1.725" transform="rotate(135 728.473 110.729)" fill="#E1E4E5"/><path d="M716.514 177.205v262.981c0 14.386-11.668 26.054-26.055 26.054H308.411c-14.387 0-26.055-11.668-26.055-26.054V177.205c0-14.386 11.668-26.054 26.055-26.054h382.033c14.402 0 26.07 11.668 26.07 26.054z" fill="#009688"/><rect x="305.501" y="171.916" width="386.868" height="272.628" rx="20.874" stroke="#133835" stroke-width="1.07" stroke-dasharray="7.49 12.85"/><path opacity=".3" d="M431.725 316.56s.09 14.939-4.422 23.978c-4.512 9.038-6.035 12.504-15.522 15.985s-129.854 16.673-129.854 16.673v-40.651l149.798-15.985z" fill="#000"/><path d="M285.885 354.224h124.446c11.817 0 21.378-9.577 21.378-21.379v-55.709c0-11.818-9.576-21.379-21.378-21.379H285.885c-11.817 0-21.379 9.576-21.379 21.379v55.709c0 11.802 9.577 21.379 21.379 21.379z" fill="#009688"/><path d="M381.125 336.79c15.773 0 28.56-12.52 28.56-27.965s-12.787-27.965-28.56-27.965c-15.773 0-28.56 12.52-28.56 27.965s12.787 27.965 28.56 27.965z" fill="#fff"/><path d="M754.525 233.832s-13.786-3.7-18.539 27.905c-4.752 31.604-4.786 48.916-4.786 48.916s-1.746 6.872-6.871 4.466c-5.125-2.406-13.947-11.119-19.928-7.029-6.202 4.245-5.902 12.645-.849 23.453 5.054 10.809 15.254 34.875 16.17 37.062.902 2.136.716 5.8-3.037 4.717-3.754-1.083-27.832-14.779-33.642-2.97-5.823 11.813 13.208 39.601 15.227 42.674 2.02 3.073 1.848 4.741.525 6.113-1.323 1.371-8.987-3.997-15.99-7.617-7.004-3.621-15.767-6.578-18.552.518-2.785 7.095 3.413 30.639 37.827 60.751l16.859 12.909 19.829-7.856c41.406-19.395 53.89-40.304 53.176-47.891-.714-7.588-9.948-7.175-17.686-5.637-7.738 1.537-16.587 4.568-17.479 2.883-.891-1.686-.603-3.329 2.19-5.727 2.794-2.398 28.774-23.817 26.453-36.787-2.318-12.957-29.248-6.47-33.154-6.481-3.903.001-3.058-3.565-1.604-5.37 1.486-1.841 17.966-22.144 25.811-31.131 7.847-8.975 10.459-16.972 5.677-22.768-4.606-5.597-15.506.347-21.094 1.24-5.587.893-5.359-6.205-5.359-6.205s4.775-16.645 8.957-48.33c4.181-31.685-10.438-31.877-10.438-31.877" fill="#E1E4E5"/><path d="M718.587 481.259c3.154-23.26 7.789-55.355 13.04-90.79 5.243-35.419 9.952-67.493 13.248-90.736 1.634-11.597 2.95-20.993 3.868-27.52.454-3.227.811-5.742 1.059-7.485.121-.829.223-1.475.289-1.946.077-.433.124-.666.124-.666s-.009.223-.053.674c-.053.468-.126 1.12-.218 1.955-.219 1.749-.534 4.266-.93 7.506-.812 6.511-2.054 15.928-3.639 27.554-3.154 23.26-7.792 55.342-13.031 90.774-5.239 35.432-9.961 67.509-13.244 90.749" fill="#fff"/><path d="M716.255 320.787c.048-.026.38.393.979 1.194.597.789 1.418 1.957 2.412 3.409 1.99 2.916 4.638 7.003 7.475 11.589 2.762 4.509 5.271 8.592 7.201 11.744.868 1.39 1.596 2.569 2.202 3.547.526.835.791 1.314.743 1.34-.048.027-.393-.389-.989-1.178-.583-.792-1.404-1.96-2.389-3.428-1.968-2.935-4.559-7.065-7.38-11.642l-7.28-11.682c-.867-1.389-1.608-2.565-2.214-3.543-.53-.848-.795-1.327-.76-1.35zm22.974 32.558c-.112-.162 8.082-5.999 18.31-13.014 10.225-7.028 18.616-12.588 18.728-12.426.112.163-8.085 5.987-18.309 13.015-10.238 7.031-18.616 12.588-18.729 12.425zm-10.501 54.049c-.014-.051.511-.247 1.452-.581 1.098-.363 2.45-.808 4.038-1.343 3.407-1.133 8.12-2.726 13.249-4.664 5.133-1.925 9.722-3.828 13.044-5.227 1.544-.647 2.852-1.203 3.926-1.656.928-.386 1.456-.569 1.479-.534.027.048-.465.317-1.355.789a98.12 98.12 0 0 1-3.843 1.868 187.318 187.318 0 0 1-12.988 5.432 194.445 194.445 0 0 1-13.356 4.472c-1.733.506-3.144.884-4.109 1.128-.978.249-1.523.367-1.537.316zm-27.255-24.884c.031-.036.442.267 1.177.853.721.59 1.75 1.455 3.014 2.532a711.13 711.13 0 0 1 9.782 8.552 742.429 742.429 0 0 1 9.646 8.713 137.181 137.181 0 0 1 2.869 2.708c.668.645 1.019 1.032.988 1.068-.032.036-.443-.266-1.177-.853-.722-.59-1.751-1.455-3.015-2.531a719.042 719.042 0 0 1-9.782-8.553c-3.788-3.368-7.199-6.454-9.633-8.715a139.918 139.918 0 0 1-2.869-2.708c-.681-.643-1.045-1.026-1-1.066zm-15.335 46.534c.032-.036.563.358 1.494 1.112 1.025.852 2.331 1.931 3.876 3.235 3.254 2.756 7.717 6.591 12.616 10.871 4.899 4.281 9.312 8.184 12.48 11.032a1341.52 1341.52 0 0 1 3.731 3.411c.864.813 1.336 1.292 1.304 1.328-.031.036-.563-.358-1.493-1.112-1.026-.852-2.332-1.931-3.877-3.235a1144.665 1144.665 0 0 1-12.616-10.872c-4.898-4.28-9.311-8.183-12.479-11.031a1199.787 1199.787 0 0 1-3.732-3.412c-.876-.809-1.335-1.291-1.304-1.327zm34.854 30.008c-.013-.052.642-.323 1.826-.778 1.325-.492 3.024-1.126 5.062-1.879 4.272-1.598 10.179-3.813 16.62-6.446a540.691 540.691 0 0 0 16.401-7.006c1.992-.877 3.651-1.61 4.939-2.189 1.17-.506 1.825-.777 1.852-.73.026.048-.596.394-1.729.986a147.824 147.824 0 0 1-4.854 2.4 304.76 304.76 0 0 1-16.333 7.208 307.336 307.336 0 0 1-16.727 6.254c-2.167.732-3.926 1.3-5.146 1.668-1.208.365-1.888.547-1.911.512z" fill="#fff"/><path d="M214.32 382.038c-13.369 13.771-9.889 38.849-9.889 38.849s25.155 2.735 38.516-11.048c13.369-13.771 9.898-38.837 9.898-38.837s-25.156-2.735-38.525 11.036z" fill="url(#c)"/><path fill-rule="evenodd" clip-rule="evenodd" d="M534.719 119.446h2.285c.553 0 .998.45.998.998v2.285c0 .553-.45.998-.998.998h-2.285c-.548 0-.997-.45-.997-.998v-2.285a.995.995 0 0 1 .997-.998zm7.924 0h2.285c.548 0 .998.45.998.998v2.285c0 .553-.45.998-.998.998h-2.285c-.548 0-.998-.45-.998-.998v-2.285c0-.548.45-.998.998-.998zm7.929 0h2.285c.548 0 .997.45.997.998v2.285a.998.998 0 0 1-.997.998h-2.285c-.548 0-.998-.45-.998-.998v-2.285a.996.996 0 0 1 .998-.998zm7.924 0h2.286c.548 0 .997.45.997.998v2.285a.998.998 0 0 1-.997.998h-2.286c-.552 0-1.002-.45-1.002-.998v-2.285a1.009 1.009 0 0 1 1.002-.998zm7.924 0h2.285c.553 0 1.003.45 1.003.998v2.285a1 1 0 0 1-1.003.998h-2.285c-.548 0-.998-.45-.998-.998v-2.285c0-.548.45-.998.998-.998zm-23.486 8.641h2.285c.548 0 .998.449.998.997v2.29c0 .548-.45.998-.998.998h-2.285a.999.999 0 0 1-.998-.998v-2.285a.997.997 0 0 1 .998-1.002zm7.924 0h2.285c.548 0 .998.449.998.997v2.29c0 .548-.45.998-.998.998h-2.285c-.548 0-.998-.45-.998-.998v-2.285a.997.997 0 0 1 .998-1.002zm7.923 0h2.286c.552 0 1.002.449 1.002.997v2.29c0 .548-.45.998-1.002.998h-2.286c-.548 0-.997-.45-.997-.998v-2.285c0-.553.449-1.002.997-1.002zm-8.209-17.923h2.285c.548 0 .997.45.997.998v2.285a.998.998 0 0 1-.997.998h-2.285c-.548 0-.998-.45-.998-.998v-2.285a.996.996 0 0 1 .998-.998zm7.924 0h2.286c.548 0 .997.45.997.998v2.285a.998.998 0 0 1-.997.998h-2.286c-.552 0-1.002-.45-1.002-.998v-2.285a1.009 1.009 0 0 1 1.002-.998z" fill="#E1E4E5"/><path fill-rule="evenodd" clip-rule="evenodd" d="M616.823 406.237h2.285c.553 0 .997.45.997.998v2.285a.998.998 0 0 1-.997.998h-2.285c-.548 0-.998-.45-.998-.998v-2.285a.996.996 0 0 1 .998-.998zm7.923 0h2.286c.548 0 .997.45.997.998v2.285a.998.998 0 0 1-.997.998h-2.286c-.548 0-.997-.45-.997-.998v-2.285c0-.548.449-.998.997-.998zm7.93 0h2.285c.548 0 .997.45.997.998v2.285a.998.998 0 0 1-.997.998h-2.285c-.548 0-.998-.45-.998-.998v-2.285a.996.996 0 0 1 .998-.998zm7.924 0h2.285c.548 0 .998.45.998.998v2.285c0 .553-.45.998-.998.998H640.6c-.553 0-1.002-.45-1.002-.998v-2.285a1.008 1.008 0 0 1 1.002-.998zm7.923 0h2.286c.552 0 1.002.45 1.002.998v2.285a1 1 0 0 1-1.002.998h-2.286c-.547 0-.997-.45-.997-.998v-2.285c0-.548.45-.998.997-.998zm-23.486 8.641h2.286a1 1 0 0 1 .997.997v2.29c0 .548-.449.998-.997.998h-2.286a.999.999 0 0 1-.997-.998v-2.285a.996.996 0 0 1 .997-1.002zm7.924 0h2.286a1 1 0 0 1 .997.997v2.29c0 .548-.449.998-.997.998h-2.286c-.548 0-.997-.45-.997-.998v-2.285a.996.996 0 0 1 .997-1.002zm7.924 0h2.285c.553 0 1.002.449 1.002.997v2.29c0 .548-.449.998-1.002.998h-2.285c-.548 0-.998-.45-.998-.998v-2.285c0-.553.45-1.002.998-1.002zm-8.209-17.923h2.285c.548 0 .997.45.997.998v2.285a.998.998 0 0 1-.997.998h-2.285c-.548 0-.998-.45-.998-.998v-2.285a.996.996 0 0 1 .998-.998zm7.924 0h2.285c.548 0 .998.45.998.998v2.285c0 .553-.45.998-.998.998H640.6c-.553 0-1.002-.45-1.002-.998v-2.285a1.008 1.008 0 0 1 1.002-.998z" fill="#133835"/><path d="M247.095 453.722c-37.255-40.223-48.875-96.424-52.063-136.484-3.461-43.494 1.992-77.899 2.046-78.238l-2.436-.238c-.057.344-5.554 35.001-2.079 78.783 3.213 40.458 14.957 97.233 52.673 137.958l1.859-1.781z" fill="#009688"/><path d="M212.893 218.848c-1.354 14.96-8.576 28.236-18.883 37.103-8.663-9.249-13.465-22.773-12.105-37.729 1.354-14.96 8.576-28.236 18.883-37.103 8.667 9.242 13.459 22.768 12.105 37.729zm-32.83 40.468c9.56 10.852 13.534 24.782 12.073 38.004-13.036.073-26.188-5.442-35.748-16.294-9.559-10.853-13.533-24.783-12.076-37.998 13.04-.08 26.192 5.435 35.751 16.288zm-24.348 74.213c18.996 6.588 36.732 5.179 39.615-3.147 2.882-8.327-10.18-20.418-29.176-27.006-18.996-6.589-36.732-5.18-39.614 3.147-2.883 8.326 10.179 20.417 29.175 27.006zm9.935 51.923c18.996 6.588 36.732 5.179 39.615-3.147 2.882-8.327-10.18-20.418-29.176-27.006-18.996-6.589-36.732-5.18-39.614 3.147-2.883 8.326 10.179 20.417 29.175 27.006z" fill="#009688"/><path d="M200.626 293.177c7.101-12.088 18.084-20.653 29.686-24.388 2.992 10.916 1.251 24.028-5.85 36.116-7.1 12.089-18.083 20.653-29.685 24.388-3-10.919-1.252-24.027 5.849-36.116zm10.296 53.851c6.92-12.191 17.795-20.931 29.351-24.863 3.179 10.839 1.637 23.95-5.283 36.141-6.919 12.19-17.794 20.931-29.357 24.859-3.169-10.825-1.634-23.94 5.289-36.137zm-3.406 68.291c6.219-.061 11.64 2.624 15.167 6.923-4.005 4.374-9.731 7.173-15.944 7.237-6.219.061-11.64-2.624-15.167-6.923 3.998-4.378 9.724-7.176 15.944-7.237z" fill="#009688"/><path d="M292.929 455.166c8.732 20.322-.684 43.879-21.061 52.641-20.362 8.758-43.955-.617-52.701-20.935-8.728-20.308.699-43.884 21.061-52.642 20.376-8.762 43.97.614 52.701 20.936z" fill="url(#d)"/><path d="M284.159 458.94c6.652 15.48-.522 33.444-16.042 40.122-15.524 6.664-33.509-.474-40.161-15.954-6.656-15.494.519-33.458 16.042-40.122 15.52-6.678 33.491.463 40.161 15.954z" fill="#fff"/><path d="m266.292 486.25 2.224 4.903-4.52 2.002-2.158-4.779c-4.594 1.721-9.49 2.258-12.825 1.461l.065-6.434c2.994.62 6.779.365 10.166-.764l-3.309-7.315c-5.544 1.027-11.881 1.887-14.712-4.371-2.104-4.635-.43-10.156 6.347-14.106l-2.197-4.863 4.52-2.001 2.158 4.779c3.504-1.24 7.202-1.819 10.373-1.389l.182 6.383c-2.88-.255-5.566.037-7.938.768l3.375 7.44c5.529-1.087 11.767-1.889 14.559 4.284 2.054 4.57.413 10.035-6.31 14.002zm-13.27-17.368-2.819-6.214c-2.159 1.59-2.522 3.268-1.872 4.722.699 1.519 2.424 1.768 4.691 1.492zm12.543 7.133c-.689-1.538-2.379-1.781-4.621-1.591l2.742 6.045c2.042-1.48 2.513-3.06 1.879-4.454z" fill="#E1E4E5"/><path d="M785.774 172.135c1.947 13.425-7.371 25.885-20.832 27.841-13.452 1.956-25.94-7.343-27.896-20.767-1.947-13.415 7.38-25.884 20.832-27.84 13.461-1.957 25.949 7.342 27.896 20.766z" fill="url(#e)"/><path d="M779.98 172.979c1.483 10.226-5.619 19.729-15.872 21.221-10.254 1.484-19.775-5.599-21.258-15.825-1.484-10.235 5.618-19.738 15.871-21.221 10.254-1.493 19.766 5.59 21.259 15.825z" fill="#fff"/><path d="m765.06 186.321.539 3.258-2.994.468-.521-3.174c-2.994.29-5.98-.168-7.828-1.17l1.059-3.801c1.675.843 3.958 1.292 6.144 1.161l-.8-4.858c-3.447-.272-7.337-.768-8.021-4.924-.511-3.08 1.358-6.085 5.999-7.349l-.53-3.23 2.995-.468.52 3.174c2.273-.178 4.555.065 6.365.823l-.905 3.811c-1.666-.609-3.303-.862-4.824-.806l.818 4.943c3.448.234 7.271.749 7.945 4.849.491 3.034-1.348 6.01-5.961 7.293zm-5.104-12.394-.683-4.129c-1.531.599-2.013 1.535-1.859 2.5.173 1.011 1.156 1.432 2.542 1.629zm6.298 6.215c-.164-1.02-1.127-1.432-2.484-1.675l.664 4.016c1.445-.553 1.974-1.414 1.82-2.341z" fill="#E1E4E5"/><defs><linearGradient id="a" x1="447.349" y1="-121.475" x2="588.638" y2="931.407" gradientUnits="userSpaceOnUse"><stop stop-color="#fff"/><stop offset="1" stop-color="#EEE"/></linearGradient><linearGradient id="b" x1="270.956" y1="5.489" x2="297.329" y2="545.071" gradientUnits="userSpaceOnUse"><stop stop-color="#fff"/><stop offset="1" stop-color="#EEE"/></linearGradient><linearGradient id="c" x1="168.836" y1="436.796" x2="318.938" y2="335.976" gradientUnits="userSpaceOnUse"><stop stop-color="#fff"/><stop offset="1" stop-color="#EEE"/></linearGradient><linearGradient id="d" x1="279.693" y1="552.646" x2="222.401" y2="348.352" gradientUnits="userSpaceOnUse"><stop stop-color="#fff"/><stop offset="1" stop-color="#EEE"/></linearGradient><linearGradient id="e" x1="762.46" y1="227.779" x2="760.949" y2="97.667" gradientUnits="userSpaceOnUse"><stop stop-color="#fff"/><stop offset="1" stop-color="#EEE"/></linearGradient></defs></svg>