<svg width="900" height="600" viewBox="0 0 900 600" fill="none" xmlns="http://www.w3.org/2000/svg"><path fill="transparent" d="M0 0h900v600H0z"/><path d="M465.509 195.039c-4.238 6.648-15.309 14.395-23.163 14.289-26.752-.49-35.559-18.713-38.446-25.348.543-.132 1.457-.238 2.106-.318 4.927-.715 9.959-5.588 11.429-11.084 1.894-7.152 4.225-21.137 3.947-30.023l33.837 18.726c-.053 2.569-.225 5.377-.464 8.211a243.86 243.86 0 0 1-.543 5.059 167.143 167.143 0 0 1-.596 4.45c-.622 4.635 1.444 9.23 5.351 11.786l6.542 4.252z" fill="#F8AE9D"/><path d="M468.422 122.199c-1.828 4.795-1.06 10.238.794 15.019 1.311 3.377 4.225.397 7.854.463 5.615.093 9.999-5.748 13.389-21.229 2.159-11.363 2.702-17.124 2.265-18.223-1.55-3.934-6.662-6.04-10.873-6.41" fill="#133835"/><path d="M476.965 88.15c8.846 10.661 12.065 40.658 4.595 61.556-5.31 14.859-11.482 24.448-18.686 24.143-10.939-.464-32.142-9.456-39.042-16.965-12.436-13.522-8.82-40.035-6.251-56.722 2.331-15.164 9.429-34.857 28.487-31.109 12.528 2.45 22.964 9.522 30.897 19.097z" fill="#F8AE9D"/><path d="M426.913 99.926c1.962 2.521 5.421 3.077 8.271 3.575 3.831.67 5.726 2.066 7.714 5.812 1.26 2.392 2.519 5.013 4.772 6.309 1.831 1.058 1.762-1.644 2.057-3.738a4.977 4.977 0 0 1 .112-.542c.445-1.671 2.225-1.384 2.749.264.477 1.481 1.498 2.734 2.797 3.432.212.114.437.214.662.171.305-.042.544-.327.743-.584.417-.538.832-1.221 1.26-1.945 1.407-2.375 4.062-1.521 5.632.749.981 1.41 2.148 2.863 3.752 3.19.517.114 1.166.029 1.405-.47.305-.612-.173-1.225-.093-1.851.066-.584.318-.841.596-1.339 1.094-1.938 3.589-2.007 5.127-.399a57 57 0 0 0 3.343 3.219c.491.427 1.207.855 1.697.427.265-.228.331-.612.384-.983.279-1.808.544-3.617.822-5.426.159-1.011.703-2.336 1.631-2.08.45.129.715.599.967 1.026.305.541 5.753 6.708 5.859 6.238.848-3.503 2.585-6.694 3.433-10.198 5.488-22.547-18.862-40.678-37.459-40.778-4.135-.029-7.913.038-11.93.993-4.281 1.025-8.801 2.653-12.685 4.946-5.447 3.205-9.57 9.03-8.509 15.981" fill="#133835"/><path d="M435.671 92.19c2.702 3.059 3.417 7.363 3.668 11.429.371 6.131-.132 12.502-2.966 17.945-.808 1.549-1.404 9.217-2.649 8.793-.397-.132-.331-6.078-1.377-9.283-1.616-4.967-9.059-6.861-12.409-3.722-5.351 4.993-2.212 11.058-.437 14.833 1.059 2.278 2.741 4.834 3.032 7.244.358 3.086.464 14.329-1.549 16.952-1.682 2.198-3.47-8.423-4.993-10.516-11.27-15.587-22.077-55.278-2.834-63.886 2.927-1.311 11.959-1.987 14.7-.318m79.064 326.042c1.113.185 2.239.344 3.404.384 6.198.198 12.184-1.166 18.236-2.199 5.324-.914 6.768-1.417 6.662-7.84-.927-50.868-8.41-101.604-21.865-150.671-2.053-7.496-4.291-15.045-8.224-21.746-6.715-11.429-22.13-21.295-33.957-26.831-1.668-.782-8.581 3.615-10.263 2.86-1.47-.662-2.768-1.695-4.252-2.344-4.343-1.893-7.257 2.066-10.886 3.722-1.88.847-3.973 1.39-6.039 1.298-1.682-.067-3.205-1.086-4.741-.292-6.913 3.576-24.077-22.964-24.077-22.964l-7.456 7.748-21.759 22.792-54.377 74.918s-9.867 61.397-16.647 101.644c-1.179 6.939-5.841 21.944-6.768 27.202.199-1.139 46.419-1.444 48.908-1.444h94.201c5.284 0 19.495 2.238 23.203-1.642 4.569-4.768 9.853-26.646 10.131-32.778.914-20.62-.503-41.081-.781-61.82.119 8.436 2.542 16.064 3.575 24.328 1.338 10.635 3.245 21.256 4.967 31.837 1.377 8.503 2.701 17.032 3.761 25.587.477 3.854-.133 6.145 3.125 7.655 2.742 1.258 8.715.053 11.919.596z" fill="#133835"/><path d="M429.953 368.078s9.667 5.483 8.806 17.137c-.86 11.654-4.357 25.163-18.951 23.746-14.594-1.404 10.145-40.883 10.145-40.883z" fill="#133835"/><path d="M383.214 259.124c.027 7.324-.993 14.661-2.9 21.759-1.92 7.099-4.728 13.945-7.986 20.541-1.629 3.297-3.364 6.529-5.152 9.72-1.761 3.205-3.575 6.384-5.059 9.642-.728 1.629-1.364 3.311-1.615 4.966-.067.808-.133 1.642.092 2.344.053.384.278.675.411 1.02.252.304.424.636.742.927 2.37 2.37 5.76 3.973 8.979 5.522 13.217 6.026 27.255 10.489 40.631 16.502 6.688 3.006 13.309 6.251 19.468 10.303l1.138.768c.385.265.742.61 1.113.914a10.828 10.828 0 0 1 1.761 2.225c.98 1.603 1.643 3.351 2.159 5.125.98 3.563 1.391 7.231 1.417 10.9-.238-3.642-.848-7.284-1.92-10.741-1.139-3.43-2.901-6.767-6.198-8.37-6.185-3.84-12.82-6.9-19.548-9.72-6.741-2.782-13.561-5.417-20.408-7.973-6.847-2.596-13.733-5.072-20.461-8.145-3.311-1.642-6.714-3.191-9.535-6.039-.358-.344-.649-.821-.954-1.231-.225-.504-.53-.98-.609-1.51-.318-1.06-.212-2.106-.119-3.099.318-1.96 1.033-3.735 1.801-5.43 1.576-3.39 3.417-6.555 5.205-9.747 1.787-3.192 3.589-6.357 5.297-9.575 6.82-12.82 11.562-26.924 12.25-41.598z" fill="#fff"/><path d="M473.892 200.058c-3.338 3.311-18.197 13.893-32.367 13.893-2.358 0-4.848-.212-7.483-.702-11.893-2.172-21.905-10.105-27.758-19.19a40.214 40.214 0 0 1-2.821-5.231c-1.06-2.278-1.815-4.609-2.252-6.861 5.96-.728 11.655-2.224 12.582-3.284 1.006 6.94 9.575 19.468 22.553 21.825 1.629.305 3.166.437 4.636.464h.026c6.092.106 10.767-1.841 13.959-3.801.026 0 6.211-4.874 6.237-4.9l12.688 7.787z" fill="#133835"/><path d="M483.217 351.349c-.037-.648.047-1.29.024-1.938-.027-.702-.105-1.387-.158-2.087l-.385-4.011c-.246-2.732-.493-5.464-.7-8.198-.41-5.415-.69-10.851-.836-16.281-.28-10.861-.123-21.747.607-32.585.201-3.036.455-6.061.735-9.088.152-1.547.316-3.108.481-4.656.167-1.522.413-3.035.433-4.574.012-.956-1.424-1.021-1.639-.134-.635 2.636-.727 5.466-1 8.161a406.175 406.175 0 0 0-.697 8.131 339.128 339.128 0 0 0-.786 16.439c-.235 10.916.155 21.838 1.086 32.728.265 3.063.569 6.11.939 9.153.194 1.554.387 3.095.62 4.648.105.683.196 1.368.327 2.037.163.787.456 1.513.62 2.3.09.18.351.113.329-.045z" fill="#fff"/><path d="M480.169 139.985c.092 0 .343-.145.132-.145-.106 0-.344.145-.132.145z" fill="#CC6144"/><path fill-rule="evenodd" clip-rule="evenodd" d="M327.641 264.616h-20.824c-23.01 0-41.647 18.658-41.647 41.647v188.661c0 23.01 18.637 41.647 41.647 41.647h291.529c23.01 0 41.647-18.637 41.647-41.647V245.042c0-23.01-18.637-41.647-41.647-41.647h-93.102a20.817 20.817 0 0 0-17.2 9.099l-29.257 43.001a20.818 20.818 0 0 1-17.221 9.121h-30.631" fill="#009688"/><rect width="25.79" height="25.79" rx="11.899" transform="scale(-1 1) rotate(45 -483.388 -81.753)" fill="#009688"/><path d="M670.063 198h.175c1.033 14.328 11.915 14.548 11.915 14.548s-12 .23-12 16.785c0-16.555-12-16.785-12-16.785s10.878-.22 11.91-14.548z" fill="#E1E4E5"/><rect width="134.46" height="11.899" rx="5.95" transform="matrix(-1 0 0 1 606.676 279)" fill="#fff"/><rect width="94.003" height="13.089" rx="6.545" transform="matrix(-1 0 0 1 606.676 303.988)" fill="#fff"/><rect width="94.003" height="13.089" rx="6.545" transform="matrix(-1 0 0 1 606.676 330.167)" fill="#fff"/><rect width="40.723" height="4.744" rx="2.372" transform="scale(-1 1) rotate(-45 296.93 986.433)" fill="#133835"/><rect width="40.723" height="4.744" rx="2.372" transform="scale(-1 1) rotate(-45 307.339 961.305)" fill="#133835"/><rect width="40.723" height="4.744" rx="2.372" transform="scale(-1 1) rotate(-45 318.398 934.606)" fill="#133835"/><rect width="40.723" height="4.744" rx="2.372" transform="scale(-1 1) rotate(-45 385.833 478.625)" fill="#E1E4E5"/><rect width="40.723" height="4.744" rx="2.372" transform="scale(-1 1) rotate(-45 105.722 408.6)" fill="#E1E4E5"/><rect width="15.12" height="4.744" rx="2.372" transform="scale(-1 1) rotate(-45 393.774 459.834)" fill="#E1E4E5"/><rect width="15.12" height="4.744" rx="2.372" transform="scale(-1 1) rotate(-45 113.663 389.808)" fill="#E1E4E5"/><path d="M332.24 512.958c-9.985.011-24.354-2.589-36.125-13.934-11.768-11.346-5.153-18.396 6.532-19.674 11.684-1.278 25.697 4.05 34.77 15.461 9.073 11.411 3.019 18.137-5.177 18.147z" fill="url(#a)"/><ellipse rx="4.589" ry="4.283" transform="matrix(-1 0 0 1 669.742 431.283)" fill="#E1E4E5"/><path d="M402.866 373.251s18.787 2.767 27.958-.967c9.074-3.695 30.447-17.845 50.912-20.368a.828.828 0 0 1 .894.563c.426 1.341.655 4.588-5.414 7.764-7.908 4.121-13.881 7.433-13.881 7.433s37.229 9.744 47.12 13.135c1.953.668 3.449 1.424 4.605 2.23 3.603 2.513.962 8.164-3.304 7.11l-24.965-6.162s2.156 1.98 1.327 4.46c-.791 2.343-5.313 3.914-9.17 2.723 0 0 2.233 2.427.266 5.21-1.967 2.782-6.721 2.681-9.014 2.159 0 0 2.632 1.853 1.793 4.265-.839 2.412-6.089 3.565-7.771 3.402-1.681-.163-15.865.933-36.512-7.023l-27.808 6.313s-8.342-6.824 2.964-32.247z" fill="#F8AE9D"/><path d="M422.163 407.809c-34.989 12.144-81.805.543-111.484-19.627-18.594-12.608-30.46-28.619-28.46-44.26 5.178-40.631 37.108-133.759 64.734-147.347 18.779-9.244 41.558-13.071 54.259-14.608 5.959-.728 9.681-.9 9.681-.9l-4.609 13.005-23.07 65.052c-.861 38.605-28.487 61.529-22.991 70.522 5.496 8.965 48.895 18.646 71.687 33.996 6.304 4.264 14.303 35.108-9.747 44.167z" fill="#133835"/><path d="M342.936 143.721c14.615 10.066 36.942 3.029 36.942 3.029s-1.383-23.355-16.007-33.411c-14.615-10.067-36.932-3.04-36.932-3.04s1.382 23.355 15.997 33.422z" fill="url(#b)"/><ellipse cx="712.775" cy="380.263" rx="11.774" ry="11.263" transform="rotate(180 712.775 380.263)" fill="#009688"/><circle r="5.631" transform="matrix(-1 0 0 1 183.631 301.631)" fill="#009688"/><circle r="10.751" transform="matrix(-1 0 0 1 628.903 154.751)" fill="#009688"/><ellipse rx="10.751" ry="10.239" transform="matrix(-1 0 0 1 711.751 491.239)" fill="#E1E4E5"/><circle r="3.584" transform="matrix(-1 0 0 1 375.583 500.584)" fill="#E1E4E5"/><circle r="5.119" transform="matrix(-1 0 0 1 544.119 164.119)" fill="#E1E4E5"/><circle r="5.003" transform="scale(1 -1) rotate(-75 -183.848 -328.588)" fill="#E1E4E5"/><circle r="6.655" transform="matrix(-1 0 0 1 269.655 180.655)" fill="#E1E4E5"/><ellipse rx="5.119" ry="4.095" transform="matrix(-1 0 0 1 704.119 287.095)" fill="#E1E4E5"/><path d="M291.299 228h.134c.793 11.236 9.15 11.409 9.15 11.409s-9.215.18-9.215 13.164c0-12.984-9.215-13.164-9.215-13.164s8.353-.173 9.146-11.409zm-94.794-32.473h.139c.825 11.865 9.509 12.048 9.509 12.048s-9.576.19-9.576 13.901c0-13.711-9.577-13.901-9.577-13.901s8.681-.183 9.505-12.048z" fill="#E1E4E5"/><defs><linearGradient id="a" x1="279.463" y1="516.69" x2="370.302" y2="465.403" gradientUnits="userSpaceOnUse"><stop stop-color="#fff"/><stop offset="1" stop-color="#EEE"/></linearGradient><linearGradient id="b" x1="399.866" y1="176.75" x2="284.824" y2="55.441" gradientUnits="userSpaceOnUse"><stop stop-color="#fff"/><stop offset="1" stop-color="#EEE"/></linearGradient></defs></svg>