<svg width="900" height="600" viewBox="0 0 900 600" fill="none" xmlns="http://www.w3.org/2000/svg"><path fill="transparent" d="M0 0h900v600H0z"/><path d="M514.391 388.765v97.378M598.024 291v195.147M430.757 339.869v146.276m-83.205-97.38v97.378M263.919 291v195.147m-83.634-48.507v48.507" stroke="#009688" stroke-width="36.547" stroke-linecap="round" stroke-linejoin="round"/><circle r="9.031" transform="matrix(1 0 0 -1 341.127 447.539)" fill="#009688"/><path d="M721.963 384.197h-56.489m56.489 33.511h-56.49m.001-61.755h37.659m-37.66 90h37.66m-37.659-118.245h9.415m-9.416 146.489h9.415" stroke="#E1E4E5" stroke-width="12.945" stroke-linecap="round" stroke-linejoin="round"/><path d="m703.967 273.676-92.055-36.647a11.53 11.53 0 0 0-8.831.12l-91.01 39.181m-.012-.214-92.055-36.648a11.528 11.528 0 0 0-8.832.121l-91.009 39.181" stroke="#E1E4E5" stroke-width="4" stroke-linecap="round" stroke-linejoin="round"/><circle r="10.873" transform="scale(1 -1) rotate(-21.708 -415.4 -1202.933)" fill="#E1E4E5"/><circle r="10.873" transform="scale(1 -1) rotate(-21.708 -569.22 -972.309)" fill="#E1E4E5"/><circle r="10.873" transform="scale(1 -1) rotate(-21.708 -466.905 -1471.548)" fill="#E1E4E5"/><circle r="10.873" transform="scale(1 -1) rotate(-21.708 -316.07 -1701.6)" fill="#E1E4E5"/><circle r="10.873" transform="scale(1 -1) rotate(-21.708 -368.007 -1973.427)" fill="#E1E4E5"/><path fill-rule="evenodd" clip-rule="evenodd" d="M150.349 348.898h3.176c.767 0 1.386.624 1.386 1.386v3.175c0 .768-.625 1.386-1.386 1.386h-3.176a1.391 1.391 0 0 1-1.386-1.386v-3.175a1.383 1.383 0 0 1 1.386-1.386zm11.009 0h3.176c.761 0 1.386.624 1.386 1.386v3.175c0 .768-.625 1.386-1.386 1.386h-3.176a1.391 1.391 0 0 1-1.386-1.386v-3.175c0-.762.625-1.386 1.386-1.386zm11.017 0h3.176c.761 0 1.386.624 1.386 1.386v3.175c0 .768-.625 1.386-1.386 1.386h-3.176a1.391 1.391 0 0 1-1.386-1.386v-3.175a1.383 1.383 0 0 1 1.386-1.386zm11.01 0h3.175c.761 0 1.386.624 1.386 1.386v3.175c0 .768-.625 1.386-1.386 1.386h-3.175a1.393 1.393 0 0 1-1.393-1.386v-3.175a1.401 1.401 0 0 1 1.393-1.386zm11.01 0h3.175c.768 0 1.393.624 1.393 1.386v3.175c0 .768-.625 1.386-1.393 1.386h-3.175a1.391 1.391 0 0 1-1.386-1.386v-3.175c0-.762.625-1.386 1.386-1.386zm-32.633 12.005h3.175c.762 0 1.386.625 1.386 1.386v3.182c0 .761-.624 1.386-1.386 1.386h-3.175a1.387 1.387 0 0 1-1.386-1.386v-3.176a1.385 1.385 0 0 1 1.386-1.392zm11.01 0h3.175c.761 0 1.386.625 1.386 1.386v3.182c0 .761-.625 1.386-1.386 1.386h-3.175a1.391 1.391 0 0 1-1.386-1.386v-3.176a1.384 1.384 0 0 1 1.386-1.392zm11.01 0h3.176c.767 0 1.392.625 1.392 1.386v3.182c0 .761-.625 1.386-1.392 1.386h-3.176a1.392 1.392 0 0 1-1.386-1.386v-3.176c0-.767.625-1.392 1.386-1.392zM172.375 336h3.176c.761 0 1.386.625 1.386 1.386v3.176c0 .768-.625 1.386-1.386 1.386h-3.176a1.392 1.392 0 0 1-1.386-1.386v-3.176a1.383 1.383 0 0 1 1.386-1.386zm11.01 0h3.175c.761 0 1.386.625 1.386 1.386v3.176c0 .768-.625 1.386-1.386 1.386h-3.175a1.393 1.393 0 0 1-1.393-1.386v-3.176a1.402 1.402 0 0 1 1.393-1.386z" fill="#E1E4E5"/><path d="M149.506 304.884c-12.954 3.069-26.654-7.917-26.654-7.917s7.311-15.956 20.269-19.015c12.954-3.069 26.65 7.908 26.65 7.908s-7.311 15.955-20.265 19.024z" fill="url(#a)"/><circle cx="747.21" cy="463.174" r="10.652" transform="rotate(180 747.21 463.174)" fill="#009688"/><circle r="7.998" transform="matrix(-1 0 0 1 216.998 256.998)" fill="#009688"/><circle r="15.268" transform="matrix(-1 0 0 1 654.231 190.269)" fill="#009688"/><ellipse rx="6.394" ry="5.861" transform="matrix(-1 0 0 1 796.238 503.398)" fill="#E1E4E5"/><circle r="8.521" transform="matrix(-1 0 0 1 114.962 416.632)" fill="#E1E4E5"/><circle r="5.089" transform="matrix(-1 0 0 1 517.052 340.09)" fill="#E1E4E5"/><circle r="7.271" transform="matrix(-1 0 0 1 506.271 198.27)" fill="#E1E4E5"/><circle r="7.453" transform="matrix(0 1 1 0 768.989 354.008)" fill="#E1E4E5"/><path d="M746.952 188h.19c1.127 15.959 12.995 16.204 12.995 16.204s-13.087.256-13.087 18.695c0-18.439-13.087-18.695-13.087-18.695s11.863-.245 12.989-16.204zm-450.515 13h.123c.732 10.797 8.44 10.963 8.44 10.963s-8.5.173-8.5 12.648c0-12.475-8.5-12.648-8.5-12.648s7.705-.166 8.437-10.963z" fill="#E1E4E5"/><defs><linearGradient id="a" x1="100.726" y1="312.514" x2="214.123" y2="258.941" gradientUnits="userSpaceOnUse"><stop stop-color="#fff"/><stop offset="1" stop-color="#EEE"/></linearGradient></defs></svg>