<svg width="900" height="600" viewBox="0 0 900 600" fill="none" xmlns="http://www.w3.org/2000/svg"><path fill="transparent" d="M0 0h900v600H0z"/><path d="m397.561 194.011-14.079-63.227h-40.718" stroke="#009688" stroke-width="29.305" stroke-linecap="round" stroke-linejoin="round"/><path fill-rule="evenodd" clip-rule="evenodd" d="M435.08 368.001 397.56 194.01h269.538c13.564 0 23.657 12.44 20.825 25.643L655.94 368.001c-2.108 9.77-10.775 16.742-20.826 16.742h-179.23c-10.029 0-18.696-6.972-20.804-16.742z" fill="#009688" stroke="#009688" stroke-width="29.305" stroke-linecap="round" stroke-linejoin="round"/><path d="M626.175 439.803c-5.672 0-10.275 4.603-10.22 10.274 0 5.672 4.603 10.275 10.274 10.275 5.672 0 10.275-4.603 10.275-10.275-.028-5.671-4.631-10.274-10.329-10.274m-164.375 0c-5.672 0-10.274 4.603-10.22 10.274-.027 5.672 4.576 10.275 10.247 10.275 5.672 0 10.274-4.603 10.274-10.275 0-5.671-4.602-10.274-10.301-10.274" stroke="#009688" stroke-width="37.956" stroke-linecap="round" stroke-linejoin="round"/><path d="m766.381 299.388-15.145 14.753-9.092-8.85" stroke="#fff" stroke-width="6.209" stroke-linecap="round" stroke-linejoin="round"/><rect x="460.787" y="244.592" width="164.389" height="25.291" rx="10.538" fill="#fff"/><rect x="460.787" y="304.657" width="164.389" height="25.291" rx="10.538" fill="#fff"/><path d="M742.006 215.407h-.161c-.952 13.01-10.986 13.211-10.986 13.211s11.064.208 11.064 15.241c0-15.033 11.065-15.241 11.065-15.241s-10.03-.201-10.982-13.211zm-587.562 33.54h-.16c-.953 13.01-10.987 13.21-10.987 13.21s11.065.209 11.065 15.242c0-15.033 11.064-15.242 11.064-15.242s-10.029-.2-10.982-13.21z" fill="#E1E4E5"/><path fill-rule="evenodd" clip-rule="evenodd" d="M713.118 362.283h4.892c1.182 0 2.135.962 2.135 2.135v4.891a2.137 2.137 0 0 1-2.135 2.135h-4.892a2.144 2.144 0 0 1-2.135-2.135v-4.891a2.13 2.13 0 0 1 2.135-2.135zm16.958 0h4.892c1.172 0 2.135.962 2.135 2.135v4.891a2.137 2.137 0 0 1-2.135 2.135h-4.892a2.143 2.143 0 0 1-2.134-2.135v-4.891c0-1.173.962-2.135 2.134-2.135zm16.97 0h4.891c1.173 0 2.135.962 2.135 2.135v4.891a2.136 2.136 0 0 1-2.135 2.135h-4.891a2.143 2.143 0 0 1-2.135-2.135v-4.891a2.13 2.13 0 0 1 2.135-2.135zm16.959 0h4.891c1.173 0 2.135.962 2.135 2.135v4.891a2.136 2.136 0 0 1-2.135 2.135h-4.891a2.145 2.145 0 0 1-2.145-2.135v-4.891a2.158 2.158 0 0 1 2.145-2.135zm16.959 0h4.891c1.183 0 2.145.962 2.145 2.135v4.891a2.139 2.139 0 0 1-2.145 2.135h-4.891a2.143 2.143 0 0 1-2.135-2.135v-4.891c0-1.173.962-2.135 2.135-2.135zm-50.265 18.492h4.891c1.173 0 2.135.962 2.135 2.135v4.901a2.143 2.143 0 0 1-2.135 2.135h-4.891a2.136 2.136 0 0 1-2.135-2.135v-4.891a2.132 2.132 0 0 1 2.135-2.145zm16.959 0h4.891c1.173 0 2.135.962 2.135 2.135v4.901a2.143 2.143 0 0 1-2.135 2.135h-4.891a2.143 2.143 0 0 1-2.135-2.135v-4.891a2.132 2.132 0 0 1 2.135-2.145zm16.959 0h4.891c1.183 0 2.145.962 2.145 2.135v4.901a2.145 2.145 0 0 1-2.145 2.135h-4.891a2.143 2.143 0 0 1-2.135-2.135v-4.891c0-1.183.962-2.145 2.135-2.145zm-17.571-38.358h4.891c1.173 0 2.135.962 2.135 2.134v4.892a2.137 2.137 0 0 1-2.135 2.135h-4.891a2.144 2.144 0 0 1-2.135-2.135v-4.892a2.13 2.13 0 0 1 2.135-2.134zm16.959 0h4.891c1.173 0 2.135.962 2.135 2.134v4.892a2.137 2.137 0 0 1-2.135 2.135h-4.891a2.146 2.146 0 0 1-2.145-2.135v-4.892a2.158 2.158 0 0 1 2.145-2.134z" fill="#E1E4E5"/><path fill-rule="evenodd" clip-rule="evenodd" d="M237.57 477.543h-33.652c-6.721 0-12.175-5.454-12.175-12.175V246.216c0-6.721 5.454-12.175 12.175-12.175h33.652c1.766 0 3.373.998 4.164 2.568a39.372 39.372 0 0 0 35.235 21.782 39.395 39.395 0 0 0 35.235-21.782 4.663 4.663 0 0 1 4.164-2.568h33.652c6.72 0 12.175 5.454 12.175 12.175v219.152c0 6.721-5.455 12.175-12.175 12.175h-33.652a4.663 4.663 0 0 1-4.164-2.568l-.28-.536a39.376 39.376 0 0 0-34.955-21.246 39.397 39.397 0 0 0-35.235 21.769v.012a4.662 4.662 0 0 1-4.164 2.569z" fill="#009688"/><path d="m245.681 383.604 60.876-60.875m.838 56.978a3.027 3.027 0 0 0-3.032 3.044 3.045 3.045 0 0 0 6.088 0 3.047 3.047 0 0 0-3.056-3.044m-60.876-60.876a3.027 3.027 0 0 0-3.032 3.044 3.045 3.045 0 0 0 6.088 0 3.048 3.048 0 0 0-3.056-3.044" stroke="#fff" stroke-width="16.364" stroke-linecap="round" stroke-linejoin="round"/><rect x="142.884" y="446.457" width="38.917" height="4.534" rx="2.267" transform="rotate(45 142.884 446.457)" fill="#E1E4E5"/><rect x="142.777" y="461.376" width="14.45" height="4.534" rx="2.267" transform="rotate(45 142.777 461.376)" fill="#E1E4E5"/><rect x="433.559" y="121" width="38.917" height="4.534" rx="2.267" transform="rotate(45 433.559 121)" fill="#E1E4E5"/><rect x="433.452" y="135.919" width="14.45" height="4.534" rx="2.267" transform="rotate(45 433.452 135.919)" fill="#E1E4E5"/><path d="M130.19 392.443c-1.049-.518-1.709-1.656-1.62-2.791a2.964 2.964 0 0 1 2.116-2.629c.326-.094.672-.129 1.012-.166 2.039-.231 4.08-.424 6.084-.901a3.214 3.214 0 0 1 2.544.429c1.041.664 1.504 1.639 1.375 2.839-.132 1.207-.839 2.033-1.977 2.464-.211.08-.44.137-.663.169-2.338.345-4.674.727-7.036.904-.646.048-1.257-.029-1.835-.318zm9.426 8.333c-.438.903-1.184 1.509-2.116 1.743-2.293.568-4.609 1.096-6.979 1.19-2.164.082-3.607-1.948-2.897-3.966.406-1.155 1.298-1.809 2.49-1.935 1.538-.159 3.031-.499 4.549-.747.483-.08.932-.249 1.392-.397a2.945 2.945 0 0 1 3.176.91 2.92 2.92 0 0 1 .385 3.202zm6.697-6.042c.387-.786 1.01-1.289 1.842-1.537 1.255-.38 2.527-.68 3.811-.931a6.478 6.478 0 0 0 1.69-.549 3.167 3.167 0 0 1 4.345 1.617c.679 1.641-.136 3.442-1.86 4.087a4.348 4.348 0 0 1-.738.218c-1.904.333-3.79.762-5.672 1.207-1.166.274-2.204.005-3.015-.916-.792-.903-.938-2.112-.403-3.196zm3.297 7.969c1.255.663 1.749 1.675 1.766 2.927.017 1.238-.547 2.193-1.636 2.799a5.061 5.061 0 0 1-1.273.485c-1.552.374-3.096.76-4.648 1.134-.99.234-1.936.125-2.753-.527-.898-.72-1.283-1.678-1.074-2.81.217-1.192.955-1.995 2.119-2.35.9-.271 1.812-.494 2.733-.705.695-.16 1.344-.357 1.953-.788.903-.649 1.915-.6 2.813-.165zm18.458 3.253c-.309.631-.772 1.129-1.415 1.429-.364.168-.732.32-1.116.414-1.297.323-2.584.68-3.871 1.037-1.949.539-3.733-.71-3.838-2.643-.066-1.212.615-2.301 1.805-2.85.883-.408 1.824-.645 2.764-.868.503-.12.969-.28 1.418-.549 1.216-.728 2.585-.551 3.617.416.977.918 1.237 2.385.636 3.614zm-54.921-15.694c.343-.629.803-1.078 1.415-1.358a4.064 4.064 0 0 1 1.31-.374c1.215-.114 2.435-.268 3.656-.322 2.213-.093 3.719 1.868 3.021 3.935-.364 1.083-1.176 1.721-2.288 1.943-.357.072-.735.069-1.101.114-.986.114-1.981.16-2.967.317-1.167.188-2.136-.247-2.816-1.216-.688-.967-.702-2.01-.23-3.039zm34.429-11.909c1.16.595 1.772 1.659 1.683 2.837-.098 1.266-.764 2.112-1.931 2.572-.26.106-.549.183-.826.194a71.727 71.727 0 0 1-3.242.094 2.848 2.848 0 0 1-1.681-.555c-1-.73-1.449-1.919-1.157-3.088.301-1.186 1.236-2.098 2.437-2.212 1.186-.114 2.387-.114 3.579-.139a2.18 2.18 0 0 1 1.138.297zm561.48 72.474c-1.049-.518-1.709-1.656-1.62-2.791a2.963 2.963 0 0 1 2.116-2.629c.326-.095.672-.129 1.012-.166 2.039-.231 4.08-.425 6.084-.902a3.21 3.21 0 0 1 2.544.43c1.041.664 1.504 1.639 1.375 2.839-.132 1.207-.839 2.033-1.977 2.464a3.1 3.1 0 0 1-.663.168c-2.338.346-4.674.728-7.036.905-.646.048-1.257-.029-1.835-.318zm9.426 8.332c-.438.904-1.184 1.51-2.116 1.744-2.293.568-4.609 1.096-6.979 1.19-2.164.082-3.607-1.948-2.897-3.966.406-1.155 1.298-1.809 2.49-1.935 1.538-.16 3.031-.499 4.549-.748.483-.079.932-.248 1.392-.397a2.949 2.949 0 0 1 3.176.91 2.92 2.92 0 0 1 .385 3.202zm6.697-6.041c.387-.786 1.01-1.289 1.842-1.537 1.255-.38 2.527-.68 3.811-.931.586-.115 1.146-.277 1.69-.549a3.167 3.167 0 0 1 4.345 1.617c.68 1.641-.136 3.442-1.86 4.087a4.27 4.27 0 0 1-.737.217c-1.904.334-3.791.763-5.673 1.208-1.166.274-2.204.005-3.015-.916-.792-.903-.937-2.113-.403-3.196zm3.297 7.968c1.255.664 1.749 1.676 1.766 2.928.017 1.238-.547 2.193-1.636 2.799a5.1 5.1 0 0 1-1.273.485c-1.552.374-3.096.76-4.648 1.134-.989.234-1.936.125-2.753-.527-.898-.721-1.283-1.679-1.074-2.811.217-1.192.955-1.995 2.119-2.349.9-.271 1.812-.494 2.733-.705.695-.16 1.344-.357 1.953-.789.903-.648 1.915-.599 2.813-.165zm18.458 3.254c-.309.631-.772 1.129-1.415 1.429-.364.168-.732.32-1.116.414-1.298.322-2.584.679-3.871 1.036-1.949.54-3.733-.71-3.838-2.642-.066-1.212.615-2.301 1.804-2.85.884-.409 1.825-.646 2.765-.868.503-.12.969-.28 1.418-.549 1.216-.728 2.585-.551 3.617.416.977.918 1.237 2.384.636 3.614zm-54.921-15.694c.343-.629.803-1.078 1.415-1.358a4.064 4.064 0 0 1 1.31-.374c1.215-.114 2.435-.268 3.656-.322 2.213-.094 3.719 1.868 3.021 3.935-.364 1.083-1.176 1.72-2.288 1.943-.357.071-.735.068-1.101.114-.986.114-1.981.16-2.967.317-1.167.188-2.136-.247-2.816-1.216-.688-.967-.702-2.01-.23-3.039zm34.429-11.909c1.16.595 1.772 1.659 1.683 2.837-.098 1.266-.764 2.112-1.931 2.572-.26.106-.549.183-.826.194a73.224 73.224 0 0 1-3.242.094 2.848 2.848 0 0 1-1.681-.555c-1-.73-1.449-1.919-1.157-3.088.301-1.187 1.236-2.098 2.437-2.212 1.186-.114 2.387-.114 3.579-.139a2.17 2.17 0 0 1 1.138.297z" fill="#E1E4E5"/></svg>