<svg width="900" height="600" viewBox="0 0 900 600" fill="none" xmlns="http://www.w3.org/2000/svg"><path fill="transparent" d="M0 0h900v600H0z"/><rect x="131.467" y="240.599" width="177.064" height="8.213" rx="4.106" fill="#E1E4E5"/><rect x="131.467" y="283.25" width="177.064" height="8.213" rx="4.106" fill="#E1E4E5"/><circle r="17.369" transform="matrix(0 -1 -1 0 258.871 137.273)" fill="#E1E4E5"/><path d="M183.917 192.502h-.23C182.327 172.73 168 172.425 168 172.425s15.799-.316 15.799-23.162c0 22.846 15.799 23.162 15.799 23.162s-14.322.305-15.681 20.077z" fill="#E1E4E5"/><rect x="592.936" y="417.142" width="177.064" height="8.213" rx="4.106" fill="#E1E4E5"/><rect x="592.936" y="459.792" width="177.064" height="8.213" rx="4.106" fill="#E1E4E5"/><circle r="17.369" transform="matrix(0 -1 -1 0 719.947 288.816)" fill="#E1E4E5"/><path d="M645.041 344.045h-.23c-1.36-19.772-15.687-20.077-15.687-20.077s15.799-.316 15.799-23.162c0 22.846 15.799 23.162 15.799 23.162s-14.322.305-15.681 20.077z" fill="#E1E4E5"/><rect x="592.936" y="243.952" width="177.064" height="8.213" rx="4.106" fill="#E1E4E5"/><rect x="592.936" y="286.602" width="177.064" height="8.213" rx="4.106" fill="#E1E4E5"/><circle transform="matrix(0 -1 -1 0 673.5 190.5)" fill="#E1E4E5" r="7.5"/><path d="M612.917 154.239h-.23C611.327 134.467 597 134.163 597 134.163s15.799-.317 15.799-23.163c0 22.846 15.799 23.163 15.799 23.163s-14.322.304-15.681 20.076z" fill="#E1E4E5"/><rect x="131.467" y="417.142" width="177.064" height="8.213" rx="4.106" fill="#E1E4E5"/><rect x="131" y="459.798" width="437" height="8" rx="4" fill="#E1E4E5"/><rect x="131" y="501.798" width="639" height="8" rx="4" fill="#E1E4E5"/><circle r="17.369" transform="matrix(0 -1 -1 0 246.273 288.816)" fill="#E1E4E5"/><circle r="17.369" transform="matrix(0 -1 -1 0 183.273 463.071)" fill="#E1E4E5"/><circle r="17.369" transform="matrix(0 -1 -1 0 645.273 463.071)" fill="#E1E4E5"/><path d="M183.572 344.045h-.23c-1.359-19.772-15.687-20.077-15.687-20.077s15.799-.316 15.799-23.162c0 22.846 15.799 23.162 15.799 23.162s-14.321.305-15.681 20.077z" fill="#E1E4E5"/><path fill-rule="evenodd" clip-rule="evenodd" d="M556.25 227.629c48.914 48.914 48.914 128.22 0 177.134-48.914 48.914-128.219 48.914-177.133 0-48.914-48.914-48.914-128.22 0-177.134 48.914-48.914 128.219-48.914 177.133 0z" fill="#009688"/><path d="M556.25 227.629c48.914 48.914 48.914 128.22 0 177.134-48.914 48.914-128.219 48.914-177.133 0-48.914-48.914-48.914-128.22 0-177.134 48.914-48.914 128.219-48.914 177.133 0" stroke="#009688" stroke-width="22.586" stroke-linecap="round" stroke-linejoin="round"/><path d="M467.682 354.732v-49.137m-.056-29.27c-7.978 0-14.452 6.475-14.394 14.452 0 7.978 6.474 14.453 14.452 14.453 7.977 0 14.452-6.475 14.452-14.453 0-7.977-6.475-14.452-14.51-14.452" stroke="#fff" stroke-width="38.935" stroke-linecap="round" stroke-linejoin="round"/><path d="M395.79 149.475c8.074-31.544 36.689-54.88 70.758-54.88 40.331 0 73.012 32.681 73.012 73.013v46.054" stroke="#009688" stroke-width="38.935" stroke-linecap="round" stroke-linejoin="round"/><circle cx="383" cy="169" r="82" fill="#133835"/><path d="M382.873 185.193v-12.574c9.328 0 16.89-7.506 16.89-16.765s-7.562-16.766-16.89-16.766-16.89 7.507-16.89 16.766m16.89 50.132a.423.423 0 0 0-.411.434c0 .239.184.433.411.433a.423.423 0 0 0 .411-.433.423.423 0 0 0-.411-.434" stroke="#fff" stroke-width="11.179" stroke-linecap="round" stroke-linejoin="round"/></svg>