<svg width="900" height="600" viewBox="0 0 900 600" fill="none" xmlns="http://www.w3.org/2000/svg"><path fill="transparent" d="M0 0h900v600H0z"/><path fill-rule="evenodd" clip-rule="evenodd" d="M535.581 417.313 545.78 400.4c3.879-6.413 11.773-10.462 20.421-10.462h99.982c12.595 0 22.817 8.476 22.817 18.919v37.836c0 20.905-20.421 37.837-45.633 37.837H278.3c-25.212 0-45.633-16.932-45.633-37.837v-37.836c0-10.443 10.222-18.919 22.816-18.919h99.983c8.648 0 16.542 4.049 20.398 10.462l10.199 16.913c3.879 6.414 11.774 10.462 20.421 10.462h108.699c8.647 0 16.542-4.048 20.398-10.462z" fill="#fff" stroke="#E1E4E5" stroke-width="4"/><path fill-rule="evenodd" clip-rule="evenodd" d="M666.183 389.938V181.837c0-20.905-20.421-37.837-45.633-37.837H301.117c-25.213 0-45.633 16.932-45.633 37.837v208.101" fill="#fff"/><path d="M666.183 389.938V181.837c0-20.905-20.421-37.837-45.633-37.837H301.117c-25.213 0-45.633 16.932-45.633 37.837v208.101" stroke="#E1E4E5" stroke-width="4"/><path d="M431.316 195.204v113.647c0 9.757-6.765 17.668-15.108 17.668H261.334c-2.907 0-5.76.986-8.218 2.833l-22.789 17.269c-10.049 7.617-23.327-.818-23.327-14.835V195.183c0-9.757 6.765-17.668 15.109-17.668H416.19c8.361.021 15.126 7.932 15.126 17.689z" fill="#009688"/><path d="M254.761 259.718h129.036a7.336 7.336 0 0 0 7.329-7.329c0-4.041-3.287-7.328-7.329-7.328H254.761c-4.042 0-7.329 3.287-7.329 7.328a7.336 7.336 0 0 0 7.329 7.329zm.433-31.487h58.178c4.041 0 7.328-3.287 7.328-7.328 0-4.042-3.287-7.329-7.328-7.329h-58.178c-4.041 0-7.328 3.287-7.328 7.329 0 4.041 3.287 7.328 7.328 7.328zm128.603 49.287H254.761c-4.042 0-7.329 3.287-7.329 7.328s3.287 7.328 7.329 7.328h129.036c4.042 0 7.329-3.287 7.329-7.328s-3.287-7.328-7.329-7.328z" fill="#fff"/><path d="M676 250.656v97.274c0 8.351-5.79 15.123-12.932 15.123H530.506c-2.488 0-4.93.844-7.034 2.424l-19.506 14.782c-8.601 6.519-19.966-.701-19.966-12.698V250.638c0-8.352 5.79-15.123 12.932-15.123h166.12c7.158.018 12.948 6.789 12.948 15.141z" fill="#009688"/><path d="M524.88 305.875h110.447a6.28 6.28 0 0 0 6.273-6.273 6.28 6.28 0 0 0-6.273-6.272H524.88a6.278 6.278 0 0 0-6.272 6.272 6.28 6.28 0 0 0 6.272 6.273zm.371-26.951h49.796a6.28 6.28 0 0 0 6.273-6.272 6.28 6.28 0 0 0-6.273-6.273h-49.796a6.28 6.28 0 0 0-6.273 6.273 6.28 6.28 0 0 0 6.273 6.272zm110.076 42.186H524.88a6.28 6.28 0 0 0-6.272 6.273 6.28 6.28 0 0 0 6.272 6.273h110.447a6.28 6.28 0 0 0 6.273-6.273 6.28 6.28 0 0 0-6.273-6.273z" fill="#fff"/><circle cx="532.5" cy="190.015" r="9.5" fill="#E1E4E5"/><circle cx="567.5" cy="190.015" r="9.5" fill="#E1E4E5"/><circle cx="602.5" cy="190.015" r="9.5" fill="#E1E4E5"/><path d="M718.078 186.491c-7.498 5.165-18.954 1.555-18.954 1.555s.709-11.983 8.213-17.143c7.499-5.165 18.949-1.56 18.949-1.56s-.709 11.983-8.208 17.148z" fill="url(#a)"/><path d="M215.185 142.952c7.023 7.148 20.154 5.641 20.154 5.641s1.738-13.095-5.291-20.238c-7.022-7.148-20.147-5.645-20.147-5.645s-1.738 13.095 5.284 20.242z" fill="url(#b)"/><ellipse rx="11.936" ry="11.339" transform="matrix(1 0 0 -1 308.936 431.339)" fill="#009688"/><circle cx="214.5" cy="374.5" r="8.5" fill="#009688"/><circle cx="177.624" cy="428.624" r="8.624" fill="#E1E4E5"/><circle cx="461.151" cy="455.151" r="5.151" fill="#E1E4E5"/><circle cx="673.358" cy="132.358" r="7.358" fill="#E1E4E5"/><circle cx="704.565" cy="260.565" r="9.565" fill="#E1E4E5"/><path d="M423.556 363h-.109c-.646 9.145-7.447 9.286-7.447 9.286s7.5.147 7.5 10.714c0-10.567 7.5-10.714 7.5-10.714s-6.799-.141-7.444-9.286zM182.032 156h-.188C180.731 172.431 169 172.684 169 172.684s12.936.263 12.936 19.248c0-18.985 12.935-19.248 12.935-19.248s-11.726-.253-12.839-16.684zm536 209h-.188C716.731 381.431 705 381.684 705 381.684s12.936.263 12.936 19.248c0-18.985 12.935-19.248 12.935-19.248s-11.726-.253-12.839-16.684zM465.737 218h-.14c-.832 12.277-9.597 12.466-9.597 12.466s9.665.196 9.665 14.382c0-14.186 9.665-14.382 9.665-14.382s-8.761-.189-9.593-12.466z" fill="#E1E4E5"/><defs><linearGradient id="a" x1="688.869" y1="203.438" x2="747.895" y2="141.196" gradientUnits="userSpaceOnUse"><stop stop-color="#fff"/><stop offset="1" stop-color="#EEE"/></linearGradient><linearGradient id="b" x1="243.203" y1="167.366" x2="192.436" y2="87.783" gradientUnits="userSpaceOnUse"><stop stop-color="#fff"/><stop offset="1" stop-color="#EEE"/></linearGradient></defs></svg>