<svg width="900" height="600" viewBox="0 0 900 600" fill="none" xmlns="http://www.w3.org/2000/svg"><path fill="transparent" d="M0 0h900v600H0z"/><path d="M746.811 521.432H153.189C135.074 521.432 121 509.15 121 494.7V182.123c0-14.45 14.074-26.732 32.189-26.732h593.622c18.115 0 32.189 12.282 32.189 26.732V494.7c0 14.45-14.074 26.732-32.189 26.732z" fill="#fff" stroke="#E1E4E5" stroke-width="4"/><path fill-rule="evenodd" clip-rule="evenodd" d="M176.017 262v116.434c0 6.32 5.06 11.438 11.309 11.438h68.54l29.919-42.646c1.426-2.034 4.993-2.034 6.419 0l10.475 14.934.081.116.071-.103 22.465-32.617c1.553-2.259 5.446-2.259 6.999 0l29.751 43.202V262c0-6.32-5.074-11.438-11.31-11.438h-163.41c-6.249 0-11.309 5.118-11.309 11.438z" fill="#009688"/><path d="M228.479 329.864c-10.913 0-19.759-8.847-19.759-19.76 0-10.913 8.846-19.759 19.759-19.759s19.76 8.846 19.76 19.759-8.847 19.76-19.76 19.76z" fill="#fff"/><path d="M779 197.62H121v-10.431C121 169.414 135.414 155 153.189 155h593.622C764.586 155 779 169.414 779 187.189v10.431z" fill="#fff" stroke="#E1E4E5" stroke-width="4"/><path d="M153.251 185.151a7.342 7.342 0 1 0 0-14.684 7.342 7.342 0 0 0 0 14.684zm30.593 0a7.342 7.342 0 1 0-.001-14.685 7.342 7.342 0 0 0 .001 14.685zm29.369 0a7.342 7.342 0 1 0 0-14.684 7.342 7.342 0 0 0 0 14.684z" fill="#E1E4E5"/><rect x="426" y="250.101" width="264" height="14" rx="7" fill="#E1E4E5"/><rect x="426" y="405.101" width="264" height="14" rx="7" fill="#E1E4E5"/><rect x="426" y="289.101" width="264" height="14" rx="7" fill="#E1E4E5"/><rect x="426" y="444.101" width="264" height="30" rx="15" fill="#009688"/><rect x="426" y="328.101" width="249" height="13" rx="6.5" fill="#E1E4E5"/><rect x="426" y="366.101" width="264" height="14" rx="7" fill="#E1E4E5"/><rect x="282" y="78" width="410" height="140" rx="28" fill="#fff" stroke="#E1E4E5" stroke-width="4"/><path fill-rule="evenodd" clip-rule="evenodd" d="M343.389 171.828a3.257 3.257 0 0 1-3.454-.228 3.29 3.29 0 0 1-1.312-3.216l2.364-13.733-10.01-9.73a3.287 3.287 0 0 1-.815-3.358 3.272 3.272 0 0 1 2.634-2.227l13.839-2.004 6.181-12.505a3.294 3.294 0 0 1 2.947-1.827c1.247 0 2.388.707 2.946 1.827l6.182 12.505 13.839 2.004a3.272 3.272 0 0 1 2.634 2.227 3.287 3.287 0 0 1-.815 3.358l-10.016 9.725 2.364 13.732a3.289 3.289 0 0 1-1.308 3.221 3.256 3.256 0 0 1-3.457.229l-12.375-6.476-12.368 6.476zm65.368 0c-1.1.593-2.44.504-3.454-.228a3.287 3.287 0 0 1-1.311-3.216l2.364-13.733-10.011-9.73a3.289 3.289 0 0 1-.814-3.358 3.27 3.27 0 0 1 2.633-2.227l13.839-2.004 6.182-12.505a3.294 3.294 0 0 1 2.947-1.827c1.247 0 2.388.707 2.946 1.827l6.182 12.505 13.839 2.004a3.272 3.272 0 0 1 2.634 2.227 3.29 3.29 0 0 1-.815 3.358l-10.016 9.725 2.364 13.732a3.287 3.287 0 0 1-1.309 3.221 3.256 3.256 0 0 1-3.457.229l-12.374-6.476-12.369 6.476zm65.369 0a3.257 3.257 0 0 1-3.454-.228 3.29 3.29 0 0 1-1.312-3.216l2.364-13.733-10.01-9.73a3.287 3.287 0 0 1-.815-3.358 3.272 3.272 0 0 1 2.634-2.227l13.839-2.004 6.181-12.505A3.294 3.294 0 0 1 486.5 123c1.247 0 2.388.707 2.946 1.827l6.182 12.505 13.839 2.004a3.272 3.272 0 0 1 2.634 2.227 3.287 3.287 0 0 1-.815 3.358l-10.016 9.725 2.364 13.732a3.289 3.289 0 0 1-1.308 3.221 3.256 3.256 0 0 1-3.457.229l-12.374-6.476-12.369 6.476zm65.369 0a3.257 3.257 0 0 1-3.454-.228 3.286 3.286 0 0 1-1.312-3.216l2.364-13.733-10.011-9.73a3.289 3.289 0 0 1-.814-3.358 3.27 3.27 0 0 1 2.633-2.227l13.84-2.004 6.181-12.505a3.294 3.294 0 0 1 2.947-1.827c1.247 0 2.388.707 2.946 1.827l6.182 12.505 13.839 2.004a3.272 3.272 0 0 1 2.634 2.227 3.29 3.29 0 0 1-.815 3.358l-10.016 9.725 2.364 13.732a3.287 3.287 0 0 1-1.309 3.221 3.256 3.256 0 0 1-3.457.229l-12.374-6.476-12.368 6.476zm65.368 0a3.257 3.257 0 0 1-3.454-.228 3.29 3.29 0 0 1-1.312-3.216l2.364-13.733-10.01-9.73a3.287 3.287 0 0 1-.815-3.358 3.272 3.272 0 0 1 2.634-2.227l13.839-2.004 6.182-12.505a3.293 3.293 0 0 1 2.946-1.827c1.248 0 2.388.707 2.946 1.827l6.182 12.505 13.839 2.004a3.272 3.272 0 0 1 2.634 2.227 3.287 3.287 0 0 1-.815 3.358l-10.016 9.725 2.364 13.732a3.289 3.289 0 0 1-1.308 3.221 3.256 3.256 0 0 1-3.457.229l-12.374-6.476-12.369 6.476z" fill="#009688"/></svg>