<svg width="900" height="600" viewBox="0 0 900 600" fill="none" xmlns="http://www.w3.org/2000/svg"><path fill="transparent" d="M0 0h900v600H0z"/><path fill-rule="evenodd" clip-rule="evenodd" d="m665.033 154.441-67.402-67.462A47.662 47.662 0 0 0 563.93 73H392.993c-26.337 0-47.668 21.35-47.668 47.71v333.971c0 26.36 21.331 47.71 47.668 47.71h238.339c26.337 0 47.668-21.35 47.668-47.71V188.172a47.747 47.747 0 0 0-13.967-33.731z" fill="#fff" stroke="#E1E4E5" stroke-width="4"/><path d="M422.495 207.1h147.107m-147.107 66.638h147.107M422.183 340.15h165.532" stroke="#009688" stroke-width="27.221" stroke-linecap="round" stroke-linejoin="round"/><path fill-rule="evenodd" clip-rule="evenodd" d="M293.319 379.473C254.783 384.587 225 416.361 225 455.214 225 497.615 260.376 532 304 532h173.8c34.902 0 63.2-27.505 63.2-61.429 0-33.924-28.298-61.428-63.2-61.428C477.8 358.249 435.361 317 383 317c-41.665 0-76.962 26.153-89.681 62.473z" fill="#009688"/><path d="m417.553 438.457-37.822 37.822-37.822-37.822m37.822-65.053v99.85" stroke="#fff" stroke-width="17.474" stroke-linecap="round" stroke-linejoin="round"/><path fill-rule="evenodd" clip-rule="evenodd" d="M220.386 311.091h3.176c.768 0 1.386.625 1.386 1.386v3.176c0 .767-.625 1.386-1.386 1.386h-3.176a1.392 1.392 0 0 1-1.386-1.386v-3.176a1.383 1.383 0 0 1 1.386-1.386zm11.009 0h3.176c.761 0 1.386.625 1.386 1.386v3.176c0 .767-.625 1.386-1.386 1.386h-3.176a1.392 1.392 0 0 1-1.386-1.386v-3.176c0-.761.625-1.386 1.386-1.386zm11.017 0h3.176c.761 0 1.386.625 1.386 1.386v3.176c0 .767-.625 1.386-1.386 1.386h-3.176a1.392 1.392 0 0 1-1.386-1.386v-3.176a1.383 1.383 0 0 1 1.386-1.386zm11.01 0h3.175c.761 0 1.386.625 1.386 1.386v3.176c0 .767-.625 1.386-1.386 1.386h-3.175a1.393 1.393 0 0 1-1.393-1.386v-3.176a1.402 1.402 0 0 1 1.393-1.386zm11.01 0h3.175c.768 0 1.393.625 1.393 1.386v3.176a1.39 1.39 0 0 1-1.393 1.386h-3.175a1.392 1.392 0 0 1-1.386-1.386v-3.176c0-.761.625-1.386 1.386-1.386zm-32.633 12.005h3.176c.761 0 1.386.625 1.386 1.386v3.182c0 .762-.625 1.386-1.386 1.386h-3.176a1.387 1.387 0 0 1-1.386-1.386v-3.175a1.385 1.385 0 0 1 1.386-1.393zm11.01 0h3.175c.761 0 1.386.625 1.386 1.386v3.182c0 .762-.625 1.386-1.386 1.386h-3.175a1.39 1.39 0 0 1-1.386-1.386v-3.175a1.384 1.384 0 0 1 1.386-1.393zm11.01 0h3.176c.768 0 1.392.625 1.392 1.386v3.182c0 .762-.624 1.386-1.392 1.386h-3.176a1.391 1.391 0 0 1-1.386-1.386v-3.175c0-.768.625-1.393 1.386-1.393zm-11.407-24.902h3.176c.761 0 1.386.624 1.386 1.386v3.175c0 .768-.625 1.386-1.386 1.386h-3.176a1.392 1.392 0 0 1-1.386-1.386v-3.175a1.383 1.383 0 0 1 1.386-1.386zm11.01 0h3.175c.761 0 1.386.624 1.386 1.386v3.175c0 .768-.625 1.386-1.386 1.386h-3.175a1.393 1.393 0 0 1-1.393-1.386v-3.175a1.401 1.401 0 0 1 1.393-1.386zm339.964 144.897h3.176c.768 0 1.386.625 1.386 1.386v3.176c0 .767-.625 1.386-1.386 1.386h-3.176a1.392 1.392 0 0 1-1.386-1.386v-3.176a1.383 1.383 0 0 1 1.386-1.386zm11.009 0h3.176c.761 0 1.386.625 1.386 1.386v3.176c0 .767-.625 1.386-1.386 1.386h-3.176a1.392 1.392 0 0 1-1.386-1.386v-3.176c0-.761.625-1.386 1.386-1.386zm11.017 0h3.176c.761 0 1.386.625 1.386 1.386v3.176c0 .767-.625 1.386-1.386 1.386h-3.176a1.392 1.392 0 0 1-1.386-1.386v-3.176a1.383 1.383 0 0 1 1.386-1.386zm11.01 0h3.175c.761 0 1.386.625 1.386 1.386v3.176c0 .767-.625 1.386-1.386 1.386h-3.175a1.393 1.393 0 0 1-1.393-1.386v-3.176a1.402 1.402 0 0 1 1.393-1.386zm11.01 0h3.175c.768 0 1.393.625 1.393 1.386v3.176a1.39 1.39 0 0 1-1.393 1.386h-3.175a1.392 1.392 0 0 1-1.386-1.386v-3.176c0-.761.625-1.386 1.386-1.386zm-32.633 12.005h3.176c.761 0 1.386.625 1.386 1.386v3.182c0 .762-.625 1.386-1.386 1.386h-3.176a1.387 1.387 0 0 1-1.386-1.386v-3.175a1.385 1.385 0 0 1 1.386-1.393zm11.01 0h3.175c.761 0 1.386.625 1.386 1.386v3.182c0 .762-.625 1.386-1.386 1.386h-3.175a1.39 1.39 0 0 1-1.386-1.386v-3.175a1.384 1.384 0 0 1 1.386-1.393zm11.01 0h3.176c.768 0 1.392.625 1.392 1.386v3.182c0 .762-.624 1.386-1.392 1.386h-3.176a1.391 1.391 0 0 1-1.386-1.386v-3.175c0-.768.625-1.393 1.386-1.393zm-11.407-24.902h3.176c.761 0 1.386.624 1.386 1.386v3.175c0 .768-.625 1.386-1.386 1.386h-3.176a1.392 1.392 0 0 1-1.386-1.386v-3.175a1.383 1.383 0 0 1 1.386-1.386zm11.01 0h3.175c.761 0 1.386.624 1.386 1.386v3.175c0 .768-.625 1.386-1.386 1.386h-3.175a1.393 1.393 0 0 1-1.393-1.386v-3.175a1.401 1.401 0 0 1 1.393-1.386z" fill="#E1E4E5"/><path d="M675.342 93.968c14.147-3.352 29.11 8.646 29.11 8.646s-7.985 17.426-22.137 20.767c-14.147 3.351-29.105-8.636-29.105-8.636s7.985-17.426 22.132-20.777z" fill="url(#a)"/><circle cx="194.716" cy="243.91" r="11.716" fill="#009688"/><circle r="8.797" transform="matrix(1 0 0 -1 717.797 282.99)" fill="#009688"/><circle r="16.794" transform="matrix(1 0 0 -1 168.794 489.988)" fill="#009688"/><circle r="9.373" transform="matrix(1 0 0 -1 736.373 403.566)" fill="#E1E4E5"/><circle r="7.997" transform="matrix(1 0 0 -1 448.997 125.191)" fill="#E1E4E5"/><circle r="7.815" transform="scale(-1 1) rotate(-75 -125.864 560.377)" fill="#E1E4E5"/><circle r="10.396" transform="matrix(1 0 0 -1 737.396 476.59)" fill="#E1E4E5"/><ellipse rx="7.997" ry="6.398" transform="matrix(1 0 0 -1 286.997 133.592)" fill="#E1E4E5"/><circle r="16.264" transform="scale(-1 1) rotate(-75 .362 291.107)" fill="#E1E4E5"/><path d="M197.502 389.58h-.209C196.054 372.027 183 371.757 183 371.757s14.395-.281 14.395-20.563c0 20.282 14.394 20.563 14.394 20.563s-13.048.27-14.287 17.823zm193.025-202.788h-.152C389.476 173.715 380 173.514 380 173.514s10.449-.21 10.449-15.32c0 15.11 10.449 15.32 10.449 15.32s-9.472.201-10.371 13.278z" fill="#E1E4E5"/><defs><linearGradient id="a" x1="728.617" y1="85.635" x2="604.772" y2="144.143" gradientUnits="userSpaceOnUse"><stop stop-color="#fff"/><stop offset="1" stop-color="#EEE"/></linearGradient></defs></svg>