<svg width="900" height="600" viewBox="0 0 900 600" fill="none" xmlns="http://www.w3.org/2000/svg"><path fill="transparent" d="M0 0h900v600H0z"/><path d="M777.431 522H385.569C374.055 522 365 513.427 365 503.191V276.809c0-10.236 9.055-18.809 20.569-18.809h391.862c11.514 0 20.569 8.572 20.569 18.809v226.382c0 10.236-9.055 18.809-20.569 18.809z" fill="#fff" stroke="#E1E4E5" stroke-width="4"/><path d="M798 268.775H365v-6.206c0-11.358 9.211-20.569 20.569-20.569h391.862c11.358 0 20.569 9.211 20.569 20.569v6.206z" fill="#fff" stroke="#E1E4E5" stroke-width="4"/><path d="M385.61 261.224a4.847 4.847 0 1 0-.001-9.693 4.847 4.847 0 0 0 .001 9.693zm20.195 0a4.847 4.847 0 1 0-.001-9.693 4.847 4.847 0 0 0 .001 9.693zm19.387 0a4.847 4.847 0 1 0 0-9.694 4.847 4.847 0 0 0 0 9.694z" fill="#E1E4E5"/><path d="M649.431 431H257.569C246.055 431 237 422.427 237 412.191V185.809c0-10.236 9.055-18.809 20.569-18.809h391.862c11.514 0 20.569 8.572 20.569 18.809v226.382c0 10.236-9.055 18.809-20.569 18.809z" fill="#fff" stroke="#E1E4E5" stroke-width="4"/><path d="M670 185.775H237v-6.206c0-11.358 9.211-20.569 20.569-20.569h391.862c11.358 0 20.569 9.211 20.569 20.569v6.206z" fill="#fff" stroke="#E1E4E5" stroke-width="4"/><path d="M257.61 178.224a4.847 4.847 0 1 0-.001-9.693 4.847 4.847 0 0 0 .001 9.693zm20.195 0a4.847 4.847 0 1 0-.001-9.693 4.847 4.847 0 0 0 .001 9.693zm19.387 0a4.847 4.847 0 1 0 0-9.694 4.847 4.847 0 0 0 0 9.694z" fill="#E1E4E5"/><path d="M513.431 343H121.569C110.055 343 101 334.427 101 324.191V97.809C101 87.573 110.055 79 121.569 79h391.862C524.945 79 534 87.573 534 97.809V324.19c0 10.236-9.055 18.809-20.569 18.809z" fill="#fff" stroke="#E1E4E5" stroke-width="4"/><path d="M534 105.775H101v-6.206C101 88.21 110.211 79 121.569 79h391.862C524.789 79 534 88.21 534 99.569v6.206z" fill="#fff" stroke="#E1E4E5" stroke-width="4"/><path d="M121.61 98.224a4.847 4.847 0 1 0-.001-9.694 4.847 4.847 0 0 0 .001 9.694zm20.195 0a4.847 4.847 0 1 0-.001-9.694 4.847 4.847 0 0 0 .001 9.694zm19.387 0a4.847 4.847 0 1 0 0-9.694 4.847 4.847 0 0 0 0 9.694z" fill="#E1E4E5"/><path d="M257.569 431c-1.918 0-3.77-.248-5.526-.709l-.509 1.934a23.15 23.15 0 0 1-4.735-1.818l.918-1.777c-3.362-1.738-6.146-4.332-8.031-7.456l-1.713 1.034a20.744 20.744 0 0 1-2.073-4.627l1.912-.587a18.443 18.443 0 0 1-.812-5.424v-5.877h-2v-4.898h2V389.04h-2v-4.898h2v-11.755h-2v-4.898h2v-11.755h-2v-4.898h2v-11.755h-2v-4.898h2v-11.755h-2v-4.898h2v-11.755h-2v-4.898h2v-11.754h-2v-4.898h2V272.47h-2v-4.898h2v-11.755h-2v-4.898h2v-11.755h-2v-4.898h2v-11.755h-2v-4.898h2v-11.755h-2v-4.898h2v-11.755h-2v-4.898h2v-5.877c0-1.885.284-3.704.812-5.424l-1.912-.587a20.744 20.744 0 0 1 2.073-4.627l1.713 1.034c1.885-3.124 4.669-5.718 8.031-7.456l-.918-1.777a23.15 23.15 0 0 1 4.735-1.818l.509 1.934a21.737 21.737 0 0 1 5.526-.709h6.013v-2h5.011v2h12.026v-2h5.011v2h12.027v-2h5.011v2h12.026v-2h5.011v2h12.027v-2h5.011v2h12.026v-2h5.011v2h12.027v-2h5.011v2h12.026v-2h5.011v2h12.027v-2h5.011v2h12.026v-2h5.011v2h12.027v-2h5.011v2h12.026v-2h5.011v2h12.027v-2h5.011v2h12.026v-2h5.011v2h12.027v-2h5.011v2h12.026v-2h5.012v2h12.026v-2h5.011v2h12.027v-2h5.011v2h12.026v-2h5.011v2h12.027v-2h5.011v2h12.026v-2h5.011v2h12.027v-2h5.011v2h12.026v-2h5.011v2h6.013c1.918 0 3.77.248 5.526.709l.509-1.934a23.15 23.15 0 0 1 4.735 1.818l-.918 1.777c3.362 1.738 6.146 4.332 8.031 7.456l1.713-1.034a20.744 20.744 0 0 1 2.073 4.627l-1.912.587c.528 1.72.812 3.539.812 5.424v5.877h2v4.898h-2v11.755h2v4.898h-2v11.755h2v4.898h-2v11.755h2v4.898h-2v11.755h2v4.898h-2v11.755h2v4.898h-2v11.755h2v4.898h-2v11.754h2v4.898h-2v11.755h2v4.898h-2v11.755h2v4.898h-2v11.755h2v4.898h-2v11.755h2v4.898h-2v11.755h2v4.898h-2v11.755h2v4.898h-2v5.877c0 1.885-.284 3.704-.812 5.424l1.912.587a20.744 20.744 0 0 1-2.073 4.627l-1.713-1.034c-1.885 3.124-4.669 5.718-8.031 7.456l.918 1.777a23.15 23.15 0 0 1-4.735 1.818l-.509-1.934a21.737 21.737 0 0 1-5.526.709h-6.013v2h-5.011v-2h-12.026v2h-5.011v-2h-12.027v2h-5.011v-2h-12.026v2h-5.011v-2h-12.027v2h-5.011v-2h-12.026v2h-5.011v-2h-12.027v2h-5.011v-2h-12.026v2h-5.011v-2h-12.027v2h-5.011v-2h-12.026v2h-5.011v-2h-12.027v2h-5.011v-2h-12.026v2h-5.011v-2h-12.027v2h-5.011v-2h-12.026v2h-5.011v-2h-12.027v2h-5.011v-2h-12.026v2h-5.012v-2h-12.026v2h-5.011v-2H353.78v2h-5.011v-2h-12.026v2h-5.011v-2h-12.027v2h-5.011v-2h-12.026v2h-5.011v-2H285.63v2h-5.011v-2h-12.026v2h-5.011v-2h-6.013z" stroke="#E1E4E5" stroke-width="4" stroke-dasharray="12 5"/><path fill-rule="evenodd" clip-rule="evenodd" d="M337 289.704c0 31.055 16.436 58.395 41.657 75.629-.011 9.897.012 23.231.012 37.225l40.87-20.221a114.597 114.597 0 0 0 21.633 2.071c57.318 0 104.173-42.166 104.173-94.704 0-52.537-46.855-94.704-104.173-94.704C383.854 195 337 237.167 337 289.704z" fill="#009688" stroke="#009688" stroke-width="12.5" stroke-linecap="round" stroke-linejoin="round"/><path fill-rule="evenodd" clip-rule="evenodd" d="m433.223 259.957 36.981 21.876c5.324 3.149 5.324 10.857 0 14.017l-36.981 21.877c-5.429 3.206-12.281-.707-12.281-7.003v-43.753c0-6.319 6.852-10.232 12.281-7.014z" fill="#fff"/></svg>