<svg width="900" height="600" viewBox="0 0 900 600" fill="none" xmlns="http://www.w3.org/2000/svg"><path fill="transparent" d="M0 0h900v600H0z"/><path d="M286.581 185.916c40.208-50.314 125.651-71.365 182.771 4.06 48.451 63.974 69.559 67.634 106.385 79.805 24.316 8.041 64.106 18.935 40.92 81.161-30.346 81.444-180.472 103.443-262.556 73.042-78.497-29.068-140.493-146.765-67.52-238.068z" fill="url(#a)"/><path d="M470.75 155.003c18.875 33.015 54.624 75.535 114.141 92.784 59.517 17.24 70.117-18.068 52.177-59.112-17.94-41.045-61.964-77.181-116.588-85.392-54.624-8.21-65.224 24.623-49.73 51.72z" fill="url(#b)"/><rect x="702.852" y="167.994" width="329.969" height="507.644" rx="10" transform="rotate(90 702.852 167.994)" fill="#009688"/><path fill-rule="evenodd" clip-rule="evenodd" d="M484.864 251.4c-9.513 1.261-16.864 9.094-16.864 18.671 0 10.453 8.732 18.929 19.5 18.929h42.9c8.615 0 15.6-6.78 15.6-15.143 0-8.362-6.985-15.143-15.6-15.143C530.4 246.168 519.925 236 507 236c-10.284 0-18.997 6.447-22.136 15.4zm110.162-2.23c-6.219.832-11.026 6.005-11.026 12.33 0 6.903 5.709 12.5 12.75 12.5h28.05c5.633 0 10.2-4.477 10.2-10s-4.567-10-10.2-10c0-8.285-6.849-15-15.3-15-6.724 0-12.421 4.257-14.474 10.17zM385.864 236.4c-9.513 1.261-16.864 9.094-16.864 18.671 0 10.453 8.732 18.929 19.5 18.929h42.9c8.615 0 15.6-6.78 15.6-15.143 0-8.362-6.985-15.143-15.6-15.143C431.4 231.168 420.925 221 408 221c-10.284 0-18.997 6.447-22.136 15.4zm-101.243 19.095c-7.683 1.022-13.621 7.377-13.621 15.148 0 8.48 7.053 15.357 15.75 15.357h34.65c6.958 0 12.6-5.501 12.6-12.286 0-6.785-5.642-12.285-12.6-12.285 0-10.179-8.461-18.429-18.9-18.429-8.307 0-15.344 5.231-17.879 12.495zm30.514 73.188c-4.025.547-7.135 3.946-7.135 8.103 0 4.536 3.694 8.214 8.25 8.214h18.15c3.645 0 6.6-2.942 6.6-6.571 0-3.629-2.955-6.572-6.6-6.572 0-5.444-4.432-9.857-9.9-9.857a9.892 9.892 0 0 0-9.365 6.683zm265.73 0c4.025.547 7.135 3.946 7.135 8.103 0 4.536-3.694 8.214-8.25 8.214H561.6c-3.645 0-6.6-2.942-6.6-6.571 0-3.629 2.955-6.572 6.6-6.572 0-5.444 4.432-9.857 9.9-9.857a9.892 9.892 0 0 1 9.365 6.683zm-302.73 61c-4.025.547-7.135 3.946-7.135 8.103 0 4.536 3.694 8.214 8.25 8.214h18.15c3.645 0 6.6-2.942 6.6-6.571 0-3.629-2.955-6.572-6.6-6.572 0-5.444-4.432-9.857-9.9-9.857a9.892 9.892 0 0 0-9.365 6.683zm339.73 0c4.025.547 7.135 3.946 7.135 8.103 0 4.536-3.694 8.214-8.25 8.214H598.6c-3.645 0-6.6-2.942-6.6-6.571 0-3.629 2.955-6.572 6.6-6.572 0-5.444 4.432-9.857 9.9-9.857a9.892 9.892 0 0 1 9.365 6.683z" fill="#fff"/><rect x="105" y="482" width="689" height="16" rx="8" fill="#E1E4E5"/><circle cx="454" cy="194" r="7" fill="#fff"/><path fill-rule="evenodd" clip-rule="evenodd" d="M146.248 249.291h1.809a.79.79 0 0 0 .789-.789v-1.808a.79.79 0 0 0-.789-.79h-1.809a.793.793 0 0 0-.789.79v1.808a.787.787 0 0 0 .789.789zm6.269 0h1.808c.434 0 .79-.356.79-.789v-1.808a.79.79 0 0 0-.79-.79h-1.808a.792.792 0 0 0-.789.79v1.808c0 .433.355.789.789.789zm6.274 0h1.808c.434 0 .79-.356.79-.789v-1.808a.79.79 0 0 0-.79-.79h-1.808a.793.793 0 0 0-.789.79v1.808a.787.787 0 0 0 .789.789zm6.27 0h1.809a.793.793 0 0 0 .789-.789v-1.808a.79.79 0 0 0-.789-.79h-1.809a.794.794 0 0 0-.793.79v1.808c.004.433.36.789.793.789zm6.27 0h1.808a.793.793 0 0 0 .793-.789v-1.808a.791.791 0 0 0-.793-.79h-1.808a.792.792 0 0 0-.789.79v1.808c0 .433.355.789.789.789zm-18.584-6.836h1.808c.434 0 .79-.356.79-.79v-1.812a.793.793 0 0 0-.79-.789h-1.808a.79.79 0 0 0-.789.789v1.809a.788.788 0 0 0 .789.793zm6.27 0h1.809a.793.793 0 0 0 .789-.79v-1.812a.793.793 0 0 0-.789-.789h-1.809a.793.793 0 0 0-.789.789v1.809a.788.788 0 0 0 .789.793zm6.27 0h1.808a.794.794 0 0 0 .793-.79v-1.812a.793.793 0 0 0-.793-.789h-1.808a.793.793 0 0 0-.79.789v1.809c0 .437.356.793.79.793zm-6.496 14.181h1.808c.434 0 .79-.356.79-.789v-1.809a.79.79 0 0 0-.79-.789h-1.808a.793.793 0 0 0-.789.789v1.809a.787.787 0 0 0 .789.789zm6.27 0h1.809a.793.793 0 0 0 .789-.789v-1.809a.79.79 0 0 0-.789-.789h-1.809a.793.793 0 0 0-.793.789v1.809c.004.433.36.789.793.789zm619.385-88.739h-3.165a1.382 1.382 0 0 1-1.381-1.381v-3.165c0-.765.623-1.381 1.381-1.381h3.165c.759 0 1.381.623 1.381 1.381v3.165a1.377 1.377 0 0 1-1.381 1.381zm-10.971 0h-3.164a1.386 1.386 0 0 1-1.381-1.381v-3.165c0-.765.622-1.381 1.381-1.381h3.164c.759 0 1.381.623 1.381 1.381v3.165c0 .759-.622 1.381-1.381 1.381zm-10.979 0h-3.165a1.386 1.386 0 0 1-1.381-1.381v-3.165c0-.765.623-1.381 1.381-1.381h3.165c.758 0 1.381.623 1.381 1.381v3.165a1.378 1.378 0 0 1-1.381 1.381zm-10.973 0h-3.164a1.386 1.386 0 0 1-1.381-1.381v-3.165c0-.765.622-1.381 1.381-1.381h3.164c.765 0 1.388.623 1.388 1.381v3.165a1.396 1.396 0 0 1-1.388 1.381zm-10.971 0h-3.164a1.388 1.388 0 0 1-1.388-1.381v-3.165c0-.765.623-1.381 1.388-1.381h3.164c.759 0 1.381.623 1.381 1.381v3.165c0 .759-.622 1.381-1.381 1.381zm32.521-11.964h-3.165a1.386 1.386 0 0 1-1.381-1.381v-3.171c0-.758.623-1.381 1.381-1.381h3.165c.765 0 1.381.623 1.381 1.381v3.165a1.38 1.38 0 0 1-1.381 1.387zm-10.973 0h-3.164a1.386 1.386 0 0 1-1.381-1.381v-3.171c0-.758.622-1.381 1.381-1.381h3.164c.759 0 1.381.623 1.381 1.381v3.165a1.379 1.379 0 0 1-1.381 1.387zm-10.971 0h-3.164a1.387 1.387 0 0 1-1.388-1.381v-3.171c0-.758.622-1.381 1.388-1.381h3.164c.759 0 1.381.623 1.381 1.381v3.165c0 .765-.622 1.387-1.381 1.387zm11.367 24.817h-3.165a1.387 1.387 0 0 1-1.381-1.382v-3.164c0-.765.623-1.381 1.381-1.381h3.165c.758 0 1.381.622 1.381 1.381v3.164a1.379 1.379 0 0 1-1.381 1.382zm-10.973 0h-3.164a1.387 1.387 0 0 1-1.381-1.382v-3.164c0-.765.622-1.381 1.381-1.381h3.164c.765 0 1.388.622 1.388 1.381v3.164a1.397 1.397 0 0 1-1.388 1.382z" fill="#E1E4E5"/><path fill-rule="evenodd" clip-rule="evenodd" d="M380 367.274c0 22.06 11.676 41.481 29.592 53.724-.008 7.03.008 16.502.008 26.443l29.033-14.364A81.428 81.428 0 0 0 454 434.548c40.716 0 74-29.953 74-67.274 0-37.32-33.284-67.274-74-67.274s-74 29.954-74 67.274z" fill="#fff"/><path fill-rule="evenodd" clip-rule="evenodd" d="m448.353 346.143 26.27 15.54c3.782 2.236 3.782 7.712 0 9.957l-26.27 15.54c-3.856 2.278-8.724-.501-8.724-4.974v-31.08c0-4.49 4.868-7.269 8.724-4.983z" fill="#009688"/><defs><linearGradient id="a" x1="446.757" y1="603.26" x2="439.423" y2="-181.959" gradientUnits="userSpaceOnUse"><stop stop-color="#fff"/><stop offset="1" stop-color="#EEE"/></linearGradient><linearGradient id="b" x1="558.473" y1="336.509" x2="554.621" y2="-61.477" gradientUnits="userSpaceOnUse"><stop stop-color="#fff"/><stop offset="1" stop-color="#EEE"/></linearGradient></defs></svg>