<svg width="900" height="600" viewBox="0 0 900 600" fill="none" xmlns="http://www.w3.org/2000/svg"><path fill="transparent" d="M0 0h900v600H0z"/><path fill-rule="evenodd" clip-rule="evenodd" d="M362.614 458.077c-1.661-.008-2.594-1.86-1.526-3.132 15.308-18.243 98.2-110.493 210.181-111.928 112.69-1.445 204.587 90.29 228.139 112.447 1.461 1.374.259 4.515-1.747 4.506l-435.047-1.893z" fill="#fff" stroke="#E1E4E5" stroke-width="4"/><path fill-rule="evenodd" clip-rule="evenodd" d="M259.058 458.059s88.449-113.449 212.728-115.042C596.628 341.416 695.95 454.175 705.1 460l-446.042-1.941z" fill="#fff" stroke="#E1E4E5" stroke-width="4"/><path fill-rule="evenodd" clip-rule="evenodd" d="M219.701 440.228v-23.046 23.046z" fill="#fff"/><path d="M219.701 440.228v-23.046" stroke="#E1E4E5" stroke-width="4"/><path fill-rule="evenodd" clip-rule="evenodd" d="M344.331 440.228v-23.046 23.046z" fill="#fff"/><path d="M344.331 440.228v-23.046" stroke="#E1E4E5" stroke-width="4"/><path fill-rule="evenodd" clip-rule="evenodd" d="M235.007 440.227v-15.954 15.954z" fill="#fff"/><path d="M235.007 440.227v-15.954" stroke="#E1E4E5" stroke-width="4"/><path fill-rule="evenodd" clip-rule="evenodd" d="M358.541 440.227v-15.954 15.954z" fill="#fff"/><path d="M358.541 440.227v-15.954" stroke="#E1E4E5" stroke-width="4"/><path fill-rule="evenodd" clip-rule="evenodd" d="M578 459.045v-15.954 15.954z" fill="#fff"/><path d="M578 459.045v-15.954" stroke="#E1E4E5" stroke-width="4"/><path fill-rule="evenodd" clip-rule="evenodd" d="M204.395 440.227v-15.954 15.954z" fill="#fff"/><path d="M204.395 440.227v-15.954" stroke="#E1E4E5" stroke-width="4"/><path fill-rule="evenodd" clip-rule="evenodd" d="M329.025 440.227v-15.954 15.954z" fill="#fff"/><path d="M329.025 440.227v-15.954" stroke="#E1E4E5" stroke-width="4"/><path fill-rule="evenodd" clip-rule="evenodd" d="M543.299 459.045v-15.954 15.954z" fill="#fff"/><path d="M543.299 459.045v-15.954" stroke="#E1E4E5" stroke-width="4"/><path fill-rule="evenodd" clip-rule="evenodd" d="M84 458.368s96.441-76.285 231.95-77.357c136.123-1.076 244.42 74.746 254.396 78.663L84 458.368z" fill="#fff" stroke="#E1E4E5" stroke-width="4"/><path fill-rule="evenodd" clip-rule="evenodd" d="M198.435 458.482v-15.497 15.497z" fill="#fff"/><path d="M198.435 458.482v-15.497" stroke="#E1E4E5" stroke-width="4"/><path fill-rule="evenodd" clip-rule="evenodd" d="M334.326 458.482v-15.497 15.497z" fill="#fff"/><path d="M334.326 458.482v-15.497" stroke="#E1E4E5" stroke-width="4"/><path fill-rule="evenodd" clip-rule="evenodd" d="M567.961 458.482v-15.497 15.497z" fill="#fff"/><path d="M567.961 458.482v-15.497" stroke="#E1E4E5" stroke-width="4"/><path fill-rule="evenodd" clip-rule="evenodd" d="M215.124 458.482v-10.729 10.729z" fill="#fff"/><path d="M215.124 458.482v-10.729" stroke="#E1E4E5" stroke-width="4"/><path fill-rule="evenodd" clip-rule="evenodd" d="M349.82 458.482v-10.729 10.729z" fill="#fff"/><path d="M349.82 458.482v-10.729" stroke="#E1E4E5" stroke-width="4"/><path fill-rule="evenodd" clip-rule="evenodd" d="M588.74 458.482v-10.729 10.729z" fill="#fff"/><path d="M588.74 458.482v-10.729" stroke="#E1E4E5" stroke-width="4"/><path fill-rule="evenodd" clip-rule="evenodd" d="M181.746 458.482v-10.729 10.729z" fill="#fff"/><path d="M181.746 458.482v-10.729" stroke="#E1E4E5" stroke-width="4"/><path fill-rule="evenodd" clip-rule="evenodd" d="M317.637 458.482v-10.729 10.729z" fill="#fff"/><path d="M317.637 458.482v-10.729" stroke="#E1E4E5" stroke-width="4"/><path d="M290.505 489.561c-1.176-.581-1.916-1.856-1.816-3.128a3.32 3.32 0 0 1 2.372-2.946c.365-.106.752-.144 1.134-.186 2.284-.259 4.571-.476 6.817-1.01.993-.24 1.97-.08 2.851.481 1.166.744 1.685 1.836 1.54 3.182-.147 1.352-.939 2.277-2.214 2.761a3.551 3.551 0 0 1-.743.188c-2.621.387-5.239.816-7.885 1.014-.724.054-1.409-.033-2.056-.356zm10.562 9.337c-.49 1.013-1.326 1.692-2.371 1.954-2.569.637-5.164 1.229-7.82 1.334-2.425.092-4.043-2.183-3.247-4.445.455-1.294 1.455-2.027 2.791-2.168 1.723-.179 3.396-.559 5.097-.838.541-.089 1.044-.278 1.56-.444a3.303 3.303 0 0 1 3.559 1.019 3.273 3.273 0 0 1 .431 3.588zm7.505-6.769c.433-.881 1.131-1.445 2.064-1.723a43.41 43.41 0 0 1 4.27-1.043c.657-.128 1.285-.311 1.894-.615a3.549 3.549 0 0 1 4.869 1.811c.762 1.84-.152 3.858-2.084 4.581a4.924 4.924 0 0 1-.826.243c-2.134.374-4.249.854-6.357 1.354-1.307.307-2.47.005-3.379-1.027-.887-1.012-1.05-2.367-.451-3.581zm3.694 8.929c1.407.744 1.961 1.878 1.979 3.281.019 1.387-.612 2.457-1.833 3.136-.445.25-.932.423-1.426.544-1.739.419-3.47.851-5.209 1.27-1.109.263-2.169.141-3.085-.59-1.006-.807-1.438-1.881-1.204-3.149.244-1.336 1.071-2.236 2.375-2.633a46.603 46.603 0 0 1 3.063-.79c.778-.18 1.506-.4 2.188-.884 1.013-.727 2.147-.672 3.152-.185zm20.685 3.645c-.346.708-.865 1.265-1.586 1.602-.407.188-.82.358-1.25.464-1.454.361-2.896.761-4.338 1.161-2.185.605-4.183-.795-4.301-2.961-.074-1.358.689-2.579 2.022-3.193.99-.458 2.044-.724 3.098-.973.564-.135 1.086-.314 1.589-.615 1.362-.816 2.897-.617 4.053.466 1.095 1.028 1.386 2.672.713 4.049zm-61.545-17.586c.384-.705.9-1.208 1.586-1.521.468-.215.955-.372 1.467-.42 1.362-.127 2.73-.3 4.098-.36 2.479-.105 4.167 2.093 3.385 4.409-.408 1.214-1.318 1.928-2.564 2.177-.4.08-.823.077-1.233.128-1.106.128-2.22.179-3.326.355-1.307.211-2.393-.276-3.155-1.363-.772-1.083-.787-2.252-.258-3.405zm38.581-13.345c1.3.667 1.986 1.859 1.886 3.179-.109 1.419-.856 2.367-2.163 2.882a2.825 2.825 0 0 1-.926.218 81.717 81.717 0 0 1-3.633.105c-.682.003-1.317-.219-1.884-.622-1.121-.818-1.623-2.15-1.296-3.461.337-1.329 1.385-2.351 2.73-2.478 1.33-.128 2.675-.128 4.011-.156.487-.013.948.138 1.275.333zm-178.069 5.86c-.725-.432-1.134-1.288-1.005-2.099a2.136 2.136 0 0 1 1.672-1.769c.24-.049.49-.054.737-.061 1.479-.049 2.957-.072 4.426-.3a2.315 2.315 0 0 1 1.804.455c.71.536.987 1.264.826 2.12-.164.859-.719 1.413-1.562 1.658a2.308 2.308 0 0 1-.487.083c-1.701.114-3.402.255-5.11.247-.467-.002-.903-.093-1.301-.334zm6.299 6.532a2.286 2.286 0 0 1-1.621 1.132c-1.681.277-3.376.524-5.085.456-1.561-.065-2.482-1.607-1.856-3.018.358-.807 1.037-1.226 1.901-1.248 1.115-.027 2.207-.185 3.313-.277.352-.03.684-.125 1.024-.206.86-.202 1.721.13 2.231.837.495.687.531 1.591.093 2.324zm5.161-3.96c.323-.543.8-.869 1.412-1a27.871 27.871 0 0 1 2.794-.451 4.7 4.7 0 0 0 1.246-.298 2.283 2.283 0 0 1 3.031 1.411c.395 1.219-.294 2.467-1.571 2.832a3.012 3.012 0 0 1-.543.114c-1.388.131-2.769.331-4.147.544-.854.13-1.585-.123-2.116-.831-.517-.695-.552-1.573-.106-2.321zm1.914 5.917c.864.549 1.162 1.305 1.102 2.206-.059.891-.518 1.545-1.336 1.919a3.7 3.7 0 0 1-.943.276c-1.137.18-2.269.369-3.407.549-.725.111-1.399-.021-1.949-.537-.604-.569-.826-1.28-.611-2.082.224-.845.801-1.38 1.658-1.568a30.534 30.534 0 0 1 2.005-.35c.509-.075.987-.18 1.449-.455.687-.415 1.412-.322 2.032.042zm13.085 3.396c-.259.436-.62.767-1.1.946a4.416 4.416 0 0 1-.825.234c-.952.158-1.897.341-2.843.524-1.433.276-2.643-.725-2.608-2.12.022-.875.574-1.619 1.461-1.945.658-.244 1.348-.36 2.037-.466a3.531 3.531 0 0 0 1.051-.314c.915-.454 1.89-.248 2.576.506.65.716.753 1.786.251 2.635zm-38.588-14.428c.283-.433.64-.729 1.096-.895.311-.114.631-.189.962-.194.88-.012 1.767-.053 2.648-.022 1.596.059 2.566 1.556 1.946 3.002-.323.758-.944 1.169-1.756 1.266-.261.031-.532.007-.798.019-.715.025-1.433.001-2.151.057-.85.069-1.522-.299-1.955-1.035-.44-.734-.39-1.485.008-2.198zm25.435-6.59c.801.494 1.179 1.294 1.048 2.135-.143.905-.67 1.475-1.535 1.739-.194.061-.406.1-.606.093a53.314 53.314 0 0 1-2.336-.119 2.047 2.047 0 0 1-1.176-.495c-.678-.582-.932-1.463-.655-2.287.284-.835 1.008-1.437 1.878-1.45.86-.014 1.723.055 2.581.105.313.016.602.137.801.279zm318.312 25.258c-1.115-.454-1.876-1.573-1.868-2.744a3.048 3.048 0 0 1 1.978-2.855c.327-.12.68-.181 1.026-.244 2.075-.387 4.155-.737 6.176-1.374a3.308 3.308 0 0 1 2.643.253c1.116.605 1.663 1.571 1.619 2.813-.046 1.247-.71 2.147-1.846 2.673a3.234 3.234 0 0 1-.668.222c-2.375.527-4.743 1.091-7.153 1.447-.66.097-1.293.063-1.907-.191zm10.287 7.855c-.383.959-1.104 1.636-2.043 1.945-2.311.752-4.648 1.465-7.073 1.736-2.215.244-3.846-1.733-3.266-3.856.332-1.215 1.199-1.953 2.413-2.169 1.566-.277 3.073-.736 4.612-1.103.49-.117.938-.323 1.4-.51a3.033 3.033 0 0 1 3.326.7c.846.862 1.09 2.13.631 3.257zm6.426-6.693c.339-.835.941-1.397 1.777-1.713a40.044 40.044 0 0 1 3.842-1.237c.593-.16 1.156-.368 1.693-.687a3.258 3.258 0 0 1 4.578 1.339c.818 1.633.115 3.541-1.607 4.331a4.487 4.487 0 0 1-.741.277c-1.929.483-3.834 1.062-5.731 1.657-1.177.368-2.262.168-3.162-.717-.879-.869-1.118-2.099-.649-3.25zm3.971 7.934c1.336.588 1.918 1.591 2.028 2.874.108 1.269-.4 2.29-1.473 2.992a5.192 5.192 0 0 1-1.27.592c-1.565.499-3.121 1.008-4.686 1.506-.998.313-1.977.271-2.864-.337-.974-.674-1.44-1.628-1.309-2.805.135-1.239.833-2.118 2.001-2.567a42.544 42.544 0 0 1 2.753-.925c.701-.216 1.352-.466 1.945-.953.88-.733 1.922-.757 2.875-.377zm19.18 1.977c-.27.671-.709 1.215-1.347 1.571-.36.199-.727.382-1.114.507a154.36 154.36 0 0 0-3.896 1.349c-1.961.698-3.883-.453-4.133-2.429-.157-1.239.462-2.406 1.642-3.057.876-.484 1.824-.797 2.773-1.095.507-.16.973-.358 1.414-.667 1.194-.837 2.612-.756 3.742.16 1.07.87 1.445 2.355.919 3.661zm-57.513-12.055c.305-.67.745-1.165 1.352-1.497a4.15 4.15 0 0 1 1.316-.48c1.238-.207 2.48-.455 3.728-.6 2.264-.26 3.954 1.642 3.39 3.814-.293 1.139-1.079 1.853-2.204 2.163-.362.1-.749.125-1.121.198-1.004.19-2.021.31-3.022.544-1.183.279-2.209-.096-2.979-1.04-.778-.941-.869-2.011-.46-3.102zm34.451-14.757c1.234.525 1.94 1.571 1.936 2.786-.007 1.307-.629 2.224-1.792 2.782a2.58 2.58 0 0 1-.833.26 73.01 73.01 0 0 1-3.32.335c-.625.048-1.22-.113-1.766-.446-1.08-.674-1.628-1.862-1.414-3.083.221-1.239 1.113-2.244 2.337-2.449 1.209-.205 2.441-.293 3.662-.407.445-.044.877.064 1.19.222zm164.198 15.739c-1.115-.454-1.876-1.573-1.868-2.744a3.048 3.048 0 0 1 1.978-2.855c.327-.12.68-.181 1.026-.244 2.075-.387 4.155-.737 6.176-1.374a3.308 3.308 0 0 1 2.643.253c1.116.605 1.663 1.571 1.619 2.813-.046 1.247-.71 2.147-1.846 2.673a3.234 3.234 0 0 1-.668.222c-2.375.527-4.743 1.091-7.153 1.447-.66.097-1.293.063-1.907-.191zm10.287 7.855c-.383.959-1.104 1.636-2.043 1.945-2.311.752-4.648 1.465-7.073 1.736-2.215.244-3.846-1.733-3.266-3.856.332-1.215 1.199-1.953 2.413-2.169 1.566-.277 3.073-.736 4.612-1.103.49-.117.938-.323 1.4-.51a3.033 3.033 0 0 1 3.326.7c.846.862 1.09 2.13.631 3.257zm6.426-6.693c.339-.835.941-1.397 1.777-1.713a40.044 40.044 0 0 1 3.842-1.237c.593-.16 1.156-.368 1.693-.687a3.258 3.258 0 0 1 4.578 1.339c.818 1.633.115 3.541-1.607 4.331a4.487 4.487 0 0 1-.741.277c-1.929.483-3.834 1.062-5.731 1.657-1.177.368-2.262.168-3.162-.717-.879-.869-1.118-2.099-.649-3.25zm3.971 7.934c1.336.588 1.918 1.591 2.028 2.874.108 1.269-.4 2.29-1.473 2.992a5.192 5.192 0 0 1-1.27.592c-1.565.499-3.121 1.008-4.686 1.506-.998.313-1.977.271-2.864-.337-.974-.674-1.44-1.628-1.309-2.805.135-1.239.833-2.118 2.001-2.567a42.544 42.544 0 0 1 2.753-.925c.701-.216 1.352-.466 1.945-.953.88-.733 1.922-.757 2.875-.377zm19.18 1.977c-.27.671-.709 1.215-1.347 1.571-.36.199-.727.382-1.114.507-1.308.427-2.602.888-3.896 1.349-1.961.698-3.883-.453-4.133-2.429-.157-1.239.462-2.406 1.642-3.057.876-.484 1.824-.797 2.773-1.095.507-.16.973-.358 1.414-.667 1.194-.837 2.612-.756 3.742.16 1.07.87 1.445 2.355.919 3.661zm-57.513-12.055c.305-.67.745-1.165 1.352-1.497a4.15 4.15 0 0 1 1.316-.48c1.238-.207 2.48-.455 3.728-.6 2.264-.26 3.954 1.642 3.39 3.814-.293 1.139-1.079 1.853-2.204 2.163-.362.1-.749.125-1.121.198-1.004.19-2.021.31-3.022.544-1.183.279-2.209-.096-2.979-1.04-.778-.941-.869-2.011-.46-3.102zm34.451-14.757c1.234.525 1.94 1.571 1.936 2.786-.007 1.307-.629 2.224-1.792 2.782a2.58 2.58 0 0 1-.833.26 73.01 73.01 0 0 1-3.32.335c-.625.048-1.22-.113-1.766-.446-1.08-.674-1.628-1.862-1.414-3.083.221-1.239 1.113-2.244 2.337-2.449 1.209-.205 2.441-.293 3.662-.407.445-.044.877.064 1.19.222zm108.198 15.739c-1.115-.454-1.876-1.573-1.868-2.744a3.048 3.048 0 0 1 1.978-2.855c.327-.12.68-.181 1.026-.244 2.075-.387 4.155-.737 6.176-1.374a3.308 3.308 0 0 1 2.643.253c1.116.605 1.663 1.571 1.619 2.813-.046 1.247-.71 2.147-1.846 2.673a3.234 3.234 0 0 1-.668.222c-2.375.527-4.743 1.091-7.153 1.447-.66.097-1.293.063-1.907-.191zm10.287 7.855c-.383.959-1.104 1.636-2.043 1.945-2.311.752-4.648 1.465-7.073 1.736-2.215.244-3.846-1.733-3.266-3.856.332-1.215 1.199-1.953 2.413-2.169 1.566-.277 3.073-.736 4.612-1.103.49-.117.938-.323 1.4-.51a3.033 3.033 0 0 1 3.326.7c.846.862 1.09 2.13.631 3.257zm6.426-6.693c.339-.835.941-1.397 1.777-1.713a40.044 40.044 0 0 1 3.842-1.237c.593-.16 1.156-.368 1.693-.687a3.258 3.258 0 0 1 4.578 1.339c.818 1.633.115 3.541-1.607 4.331a4.487 4.487 0 0 1-.741.277c-1.929.483-3.834 1.062-5.731 1.657-1.177.368-2.262.168-3.162-.717-.879-.869-1.118-2.099-.649-3.25zm3.971 7.934c1.336.588 1.918 1.591 2.028 2.874.108 1.269-.4 2.29-1.473 2.992a5.192 5.192 0 0 1-1.27.592c-1.565.499-3.121 1.008-4.686 1.506-.998.313-1.977.271-2.864-.337-.974-.674-1.44-1.628-1.309-2.805.135-1.239.833-2.118 2.001-2.567a42.544 42.544 0 0 1 2.753-.925c.701-.216 1.352-.466 1.945-.953.88-.733 1.922-.757 2.875-.377zm19.18 1.977c-.27.671-.709 1.215-1.347 1.571-.36.199-.727.382-1.114.507-1.308.427-2.602.888-3.896 1.349-1.961.698-3.883-.453-4.133-2.429-.157-1.239.462-2.406 1.642-3.057.876-.484 1.824-.797 2.773-1.095.507-.16.973-.358 1.414-.667 1.194-.837 2.612-.756 3.742.16 1.07.87 1.445 2.355.919 3.661zm-57.513-12.055c.305-.67.745-1.165 1.352-1.497a4.15 4.15 0 0 1 1.316-.48c1.238-.207 2.48-.455 3.728-.6 2.264-.26 3.954 1.642 3.39 3.814-.293 1.139-1.079 1.853-2.204 2.163-.362.1-.749.125-1.121.198-1.004.19-2.021.31-3.022.544-1.183.279-2.209-.096-2.979-1.04-.778-.941-.869-2.011-.46-3.102zm34.451-14.757c1.234.525 1.94 1.571 1.936 2.786-.007 1.307-.629 2.224-1.792 2.782a2.58 2.58 0 0 1-.833.26 73.01 73.01 0 0 1-3.32.335c-.625.048-1.22-.113-1.766-.446-1.08-.674-1.628-1.862-1.414-3.083.221-1.239 1.113-2.244 2.337-2.449 1.209-.205 2.441-.293 3.662-.407.445-.044.877.064 1.19.222zm-545.806 8.976c-2.099-.041-3.701-1.035-4.924-2.73-1.109-1.534-1.219-3.243-.797-5.029.387-1.641 1.109-3.117 2.28-4.318 1.047-1.075 2.301-1.817 3.82-1.911.831-.05 1.619.22 2.297.733.356.27.739.499 1.1.76 1.716 1.241 2.834 2.897 3.221 5.024.119.639.031 1.291-.167 1.907-.871 2.717-2.574 4.588-5.311 5.384a4.516 4.516 0 0 1-1.519.18zm502.543-45.999c-1.938-.035-3.417-.887-4.546-2.34-1.024-1.315-1.125-2.78-.735-4.311.357-1.407 1.023-2.671 2.104-3.701.967-.921 2.125-1.557 3.526-1.638a3.342 3.342 0 0 1 2.12.628c.33.232.683.428 1.016.652 1.584 1.064 2.616 2.483 2.974 4.306.109.548.028 1.107-.155 1.635-.804 2.328-2.376 3.932-4.903 4.615a4.483 4.483 0 0 1-1.401.154z" fill="#E1E4E5"/><path fill-rule="evenodd" clip-rule="evenodd" d="M126.339 206.437c-13.565 0-7.218-21.511 9.967-16.373.952-29.867 49.635-51.72 69.765-11.436 5.692-4.504 18.472 4.003 15.642 11.436 6.322.539 11.296 1.27 15.165 2.239 8.935 2.236 7.167 14.033-2.043 13.95l-108.496.184zm255.572 0c12.828 0 6.826-20.34-9.425-15.482-.9-28.243-46.935-48.907-65.971-10.814-5.382-4.259-17.467 3.785-14.791 10.814-5.978.51-10.681 1.202-14.341 2.117-8.449 2.115-6.776 13.27 1.933 13.192l102.595.173zm110.278-92.226c-9.591 0-5.103-15.21 7.048-11.576.673-21.119 35.095-36.57 49.329-8.087 4.024-3.184 13.061 2.83 11.06 8.087 4.47.381 7.987.898 10.723 1.583 6.318 1.581 5.067 9.922-1.445 9.864l-76.715.129zm-209.88 56.912h-57.465c-5.138 0-7.352-6.666-3.147-9.623a8.04 8.04 0 0 1 .178-.126c5.986-4.123 13.842-3.748 13.842-3.748s1.122-22.309 22.259-22.309c19.111 0 26.732 18.797 29.48 29.153.893 3.364-1.673 6.653-5.147 6.653zm418.781-12.027h-51.621c-4.616 0-6.604-6.021-2.828-8.692l.16-.114c5.378-3.723 12.435-3.385 12.435-3.385s1.008-20.15 19.996-20.15c17.167 0 24.013 16.978 26.482 26.331.802 3.039-1.503 6.01-4.624 6.01zm-12.56 47.134h69.251c5.606 0 8.024-7.096 3.435-10.245a13.31 13.31 0 0 0-.195-.132c-6.533-4.39-15.108-3.992-15.108-3.992s-1.225-23.747-24.295-23.747c-11.406 0-20.623 19.058-20.623 19.058s-15.516 0-18.084 11.975c-.776 3.627 1.826 7.083 5.619 7.083zm-38.95 2.318H496.052c-14.412 0-13.751-11.928-9.043-16.084 4.825-4.26 14.358-2.532 14.358-2.532s2.838-8.023 12.181-11.929c8.263-3.455 16.92-1.811 16.92-1.811s0-5.507 5.291-10.067c5.292-4.561 12.346-4.117 12.346-4.117s4.85-30.363 37.259-30.363c32.408 0 36.156 28.589 36.156 28.589s7.275 0 12.566 4.876 5.953 10.416 5.953 10.416 17.695-2.397 22.929 12.948c3.118 9.146-3.289 20.074-13.388 20.074zM347.754 146h127.257c11.945 0 11.397-9.927 7.495-13.386-3.999-3.545-11.901-2.107-11.901-2.107s-2.353-6.677-10.096-9.927c-6.85-2.876-14.025-1.508-14.025-1.508s0-4.582-4.386-8.377c-4.386-3.796-10.234-3.427-10.234-3.427S427.845 82 400.982 82s-29.969 23.792-29.969 23.792-6.03 0-10.416 4.058-4.934 8.669-4.934 8.669-14.667-1.995-19.005 10.775c-2.585 7.611 2.726 16.706 11.096 16.706z" fill="#fff" stroke="#E1E4E5" stroke-width="4"/><path d="M380.001 263.687v-42.374 0c0-31.202 25.298-56.5 56.5-56.5v0c31.201 0 56.499 25.298 56.499 56.5v42.374" stroke="#133835" stroke-width="13.893" stroke-linecap="round" stroke-linejoin="round"/><path fill-rule="evenodd" clip-rule="evenodd" d="M522.571 463.858H350.429c-19.022 0-34.429-15.407-34.429-34.429v-120.5c0-19.022 15.407-34.429 34.429-34.429h172.142c19.022 0 34.429 15.407 34.429 34.429v120.5c0 19.022-15.407 34.429-34.429 34.429z" fill="#009688" stroke="#009688" stroke-width="16.932" stroke-linecap="round" stroke-linejoin="round"/><path d="M435.369 410.482v-43.176m-.048-25.718c-7.01 0-12.699 5.689-12.648 12.699 0 7.01 5.689 12.699 12.698 12.699 7.01 0 12.699-5.689 12.699-12.699s-5.689-12.699-12.749-12.699" stroke="#fff" stroke-width="35.331" stroke-linecap="round" stroke-linejoin="round"/><path fill-rule="evenodd" clip-rule="evenodd" d="M296 385.766c0 38.821-29.224 75.12-68.5 83.934-39.276-8.814-68.5-45.113-68.5-83.934v-30.495a17.092 17.092 0 0 1 10.643-15.824l42.813-17.491a39.763 39.763 0 0 1 30.088 0l42.813 17.491A17.1 17.1 0 0 1 296 355.271v30.495z" fill="#009688"/><path d="m253.473 378.013-29.969 29.968L205.523 390" stroke="#fff" stroke-width="16.625" stroke-linecap="round" stroke-linejoin="round"/><path d="M731.057 461.308c6.516-2.202 12.164-6.891 15.462-12.906.932-1.659 1.693-3.564 1.442-5.45-.063-.384-.161-.839-.507-1.019-.311-.179-.731-.08-1.081.019-10.884 2.937-22.392 7.885-33.816 7.363-.523-.008-1.045-.05-1.501.152-.561.235-.918.753-1.17 1.307-.864 1.799-1.613 5.203-1.33 7.229.347 2.41 2.677 2.759 4.726 3.278 5.833 1.483 11.959 1.995 17.775.027z" fill="#F8AE9D"/><path d="M732.063 447.799c.877-.37 1.788-.739 2.73-.76.941-.02 1.979.483 2.279 1.394.2.631.015 1.29-.238 1.879-.685 1.523-1.889 2.759-3.16 3.855-4.873 4.109-11.114 6.593-17.499 6.984-2.825.166-5.784-.088-8.274-1.415 1.243-1.515.997-3.679 1.131-5.594.399-5.606 5.176-3.477 9.011-3.488 4.811-.102 9.6-1.04 14.02-2.855z" fill="#F8AE9D"/><path d="m586.233 406.337-.219.625c-1.531 4.438-2.716 9.02-3.206 13.718-.898 8.631.796 18.729 7.289 24.997 8.656 8.358 22.543 9.649 33.832 7.659a28.57 28.57 0 0 0 12.668-5.628c3.678 3.332 7.631 6.982 10.921 10.692a83.145 83.145 0 0 0 18.719-9.335c13.777 6.308 27.828 10.565 42.664 13.649a57.558 57.558 0 0 0 3.546-13.122c.115-.73-9.131-6.97-10.198-7.857-3.201-2.698-9.869-8.864-9.869-8.864s8.404-7.157 12.08-10.517a174.558 174.558 0 0 0 11.181-10.984c2.941-3.161 5.815-6.499 7.618-10.445 1.802-3.911 2.465-8.537.958-12.603-4.757-12.654-23.96-8.206-32.879-3.845-7.375 3.617-13.833 8.887-20.049 14.23-2.506 2.123-4.98 4.316-7.417 6.475-1.922-1.981-4.044-4.558-5.86-6.642-1.952-2.26-4.185-4.386-6.884-5.716-2.836-1.438-5.453-1.233-8.479-1.663-1.356-.195-2.675-.598-3.996-.827-3.962-.723-8.157.05-11.638 2.089-3.306 1.936-5.99 4.231-9.87 4.973-4.404.84-9.52.344-13.938-.246-3.965-.548-7.995-1.446-11.945-.67-1.643.324-2.27 2.615-2.813 3.931-.726 1.906-1.488 3.881-2.216 5.926zm35-145.964s-10.665-1.696-13.529 17.13c-3.182 20.93-11.679 17.487-25.173 34.482-7.887 9.931.413 27.469 17.278 27.121 16.866-.339 32.097-5.216 41.798-3.129 9.702 2.086 10.235-22.762.663-30.428-9.573-7.667 10.836-29.682-1.6-39.486-12.436-9.803-19.437-5.69-19.437-5.69z" fill="#133835"/><path d="M557.486 343.391c-.973-1.999-.914-4.321-.563-6.488 1.52-9.3 8.038-17.071 15.508-22.766 7.495-5.709 16.073-9.785 23.959-14.902 2.046-1.332 4.097-2.767 6.447-3.488 2.35-.72 5.081-.642 7.021.873 1.37 1.063 2.161 2.707 2.622 4.351 1.01 3.6.623 7.412.007 11.064-.77 4.606-1.9 9.165-3.756 13.398-1.488 3.415-3.91 6.929-7.55 7.598-1.053 4.081-3.222 7.906-6.263 10.833-3.479 3.355-7.889 5.549-12.467 7.082-4.217 1.415-8.83 2.339-13.072 1.018-2.518-.769-4.736-2.249-6.905-3.759-1.935-1.286-3.943-2.694-4.988-4.814zm38.115-6.202 2.49-3.952a5.445 5.445 0 0 0-1.538.363c-1.367.591-2.19 2.745-.952 3.589z" fill="#133835"/><path d="M641.736 276.929c.129.699.152 1.431.105 2.267a46.552 46.552 0 0 1-3.11 14.243c-1.086 2.702-2.416 5.366-4.298 7.603-.781.929-1.665 1.787-2.82 2.118-1.19.33-2.69.377-3.87.081-1.042 4.306-.607 12.433 3.111 15.487 1.136.924 2.486 1.502 3.838 2.011 2.633 1.016 5.375 1.789 8.12 2.388 3.126.675 6.534 1.18 8.73 3.479.275.283.548.671.437 1.052-.073.243-.25.415-.461.551-1.729 1.403-3.867 2.172-6.005 2.906-3.748 1.268-7.598 2.325-11.513 3.032-4.089.74-8.312 1.094-12.453.647-3.201-.362-6.36-1.177-9.266-2.615-3.044-1.51-6.163-2.743-9.313-4.185-2.665-1.225-5.292-2.624-8.178-3.121 1.364-2.594 4.209-4.049 7.043-4.738 2.833-.654 5.797-.714 8.663-1.263.944-.194 1.889-.424 2.699-1.004 2.221-1.605 1.612-5.169 1.648-7.504l.112-7.387c-.33-3.526-1.784-6.476-3.059-9.702-1.947-4.944-2.349-10.561-.634-15.624 1.714-5.028 5.615-9.395 10.626-11.166 5.011-1.772 11.026-.774 14.873 2.909 2.439 2.373 4.428 4.494 4.975 7.535z" fill="#F8AE9D"/><path d="M626.326 261.221c4.994-.558 9.545 1.888 12.919 5.679 2.839 3.178 4.508 7.374 4.424 11.588-.012.603-.08 1.258-.42 1.799-.902 1.296-2.864.819-4.331.242-2.391-.924-4.171-2.273-6.339-3.412-2.167-1.139-4.799-.972-6.739-2.544-1.832-1.515-8.12-4.708-8.29-7.175-.214-3.016 5.312-5.48 7.622-5.981.33-.103.715-.15 1.154-.196z" fill="#133835"/><path d="M611.937 268.048c-4.224 2.724-6.206 7.495-6.425 12.565-.193 4.257 1.165 8.563 3.893 11.777.39.459.857.925 1.462 1.129 1.518.435 2.737-1.174 3.51-2.549 1.269-2.227 1.796-4.398 2.757-6.65.961-2.252 3.106-3.786 3.616-6.23.462-2.332 3.319-8.78 1.892-10.8-1.741-2.472-7.58-.89-9.687.181-.321.129-.649.335-1.018.577z" fill="#133835"/><path d="M649.502 325.53c.667-.304 1.465-.083 1.909.517 4.983 6.976 6.907 15.719 8.591 24.145 1.911 9.579 3.612 19.19 5.244 28.8.097.489.159 1.013-.057 1.463-.216.45-.708.686-1.164.888-2.879 1.386-5.792 2.736-8.672 4.121a95.694 95.694 0 0 1-6.67-22.095c-1.848 4.678-5.186 8.74-9.444 11.394 3.172 4.544 7.077 13.631 10.886 17.627.582.636 4.187-.354 4.993-.621.501 1.437-1.846-.098-1.833 1.366-2.166.316-4.934-.981-7.161-1.259a36.916 36.916 0 0 0-8.085-.053c-4.469.49-8.812 1.888-12.783 3.989a45.493 45.493 0 0 0-5.666 3.573c-1.551 1.162-5.392 3.892-5.392 3.892-.282.205-1.602-.094-1.914-.169a35.048 35.048 0 0 0-2.748-.355 65.478 65.478 0 0 1-6.888-.906c-4.553-.836-9.03-2.124-13.325-3.897-.413-.32 1.062-3.365 1.141-3.957-.078.557-8.538-.129-9.372-.281-3.335-.678-6.711-1.043-10.046-1.756 1.494-13.431 5.594-26.405 9.624-39.275 1.576-5.064 3.186-10.129 5.42-14.905 2.377-5.087 5.447-9.851 9.136-14.082.107-.103.282-.17.421-.133 1.77.445 12.568 3.224 17.94 5.222 2.738 1.053 5.512 2.001 8.32 2.95 1.11.365 2.255.731 3.405.714.768-.023 1.537-.186 2.271-.349 7.484-1.664 14.971-3.467 21.919-6.568z" fill="#009688"/><path d="M600.789 352.29c-.308 1.913-.721 3.858-1.134 5.769a101.647 101.647 0 0 1-3.853 12.768c-.799 2.079-1.631 4.123-2.569 6.165a112.786 112.786 0 0 1-1.44 3.01c-.251.485-.503 1.004-.754 1.488-.216.415-.465.794-.68 1.174 1.499-.046 8.899.38 10.431.508" stroke="#fff" stroke-width="1.376" stroke-miterlimit="10" stroke-linecap="round"/><path d="M601.03 384.674a43.534 43.534 0 0 1-.568 2.919l-.671 2.917c-.222.834-.726 1.871-.739 2.743.003-.175 5.936-.677 6.494-.738 6.179-.603 12.388-.962 18.563-1.356 4.013-.253 7.95-.158 11.958-.132 1.184.018 2.58-.101 3.222-1.067.536-.828.099-1.88.528-2.641.278.074 3.507.89 3.474.82.128.734.383 2.271 1.145 2.631.277.109.555.148.834.152.418.007.837-.057 1.256-.12a.27.27 0 0 0 .176-.067c.07-.069.002-.174-.066-.28a8.309 8.309 0 0 1-1.426-4.762c-1.001-.677-2-1.459-2.858-2.309-.686-.707-1.195-1.621-1.953-2.225-.791-.674-1.564-.268-2.439-.037a41.913 41.913 0 0 0-3.01.791c-1.926.598-3.854 1.335-5.476 2.53-.563.41-1.093.855-1.758 1.054-.631.2-1.328.189-1.99.179-4.076-.097-8.151-.298-12.188-.743-4.14-.446-6.965-.384-12.39-1.199 0 .035-.005.349-.118.94z" fill="#F8AE9D"/><path d="M645.923 351.903a109.843 109.843 0 0 1 2.153 12.808" stroke="#fff" stroke-width="1.376" stroke-miterlimit="10" stroke-linecap="round"/><path d="m728.117 344.953-11.964 53.355-90.845-1.38a5.718 5.718 0 0 1 5.801-5.628l21.71.33 10.818-49.086a3.429 3.429 0 0 1 3.388-2.702l57.775.878c2.195.068 3.803 2.079 3.317 4.233z" fill="#133835"/><path d="M609.443 475.319c.421-2.434 1.609-4.925 2.722-7.104 4.597-8.923 12.814-15.211 21.663-19.538.913-.439 1.826-.879 2.772-1.213-.071.104-.143.207-.214.346l-.001.034h-.035c.106-.068.177-.137.282-.205 3.576 3.226 7.391 6.77 10.648 10.339-2.153 1.745-5.276 3.162-6.827 4.323-3.666 2.698-7.195 5.572-10.998 8.094-5.106 3.442-10.547 5.939-16.628 7.032-2.342.417-3.568.852-3.541-.96.04-.279.08-.661.157-1.148z" fill="#F8AE9D"/><path d="M615.373 468.299c2.368-4.461 6.044-7.855 10.063-10.861 2.821-2.119 5.812-4.025 8.665-5.968.81-.546 2.401-2.02 3.771-2.732 2.854 2.588 5.775 5.316 8.416 8.145-8.725 5.305-16.498 12.227-26.07 15.986-.877.335-1.788.669-2.729.69-.942.021-1.947-.378-2.492-1.153-.854-1.198-.306-2.828.376-4.107z" fill="#F8AE9D"/></svg>