<svg width="900" height="600" viewBox="0 0 900 600" fill="none" xmlns="http://www.w3.org/2000/svg"><path fill="transparent" d="M0 0h900v600H0z"/><path d="M450.5 524c125.092 0 226.5-6.044 226.5-13.5S575.592 497 450.5 497 224 503.044 224 510.5 325.408 524 450.5 524z" fill="url(#a)"/><path d="M458.122 501h-15.244c-.485 0-.878-4.416-.878-9.861V383.861c0-5.445.393-9.861.878-9.861h15.244c.485 0 .878 4.416.878 9.861v107.278c0 5.445-.393 9.861-.878 9.861z" fill="#fff" stroke="#E1E4E5" stroke-width="4"/><path d="m346.691 501.722-5.775-5.775c-.184-.184 3.356-4.022 7.905-8.571l89.621-89.621c4.549-4.549 8.387-8.089 8.571-7.905l5.775 5.775c.184.183-3.356 4.021-7.905 8.57l-89.622 89.622c-4.549 4.549-8.386 8.088-8.57 7.905z" fill="#fff" stroke="#E1E4E5" stroke-width="4"/><path d="m556.787 502.823 5.775-5.775c.184-.184-3.394-4.06-7.99-8.656L464.02 397.84c-4.596-4.596-8.472-8.174-8.656-7.99l-5.775 5.775c-.184.183 3.395 4.06 7.991 8.656l90.551 90.551c4.596 4.596 8.473 8.175 8.656 7.991z" fill="#fff" stroke="#E1E4E5" stroke-width="4"/><path d="M653.605 427h-406.21C235.573 427 226 417.456 226 405.707V152.293c0-11.749 9.573-21.293 21.395-21.293h406.21c11.822 0 21.395 9.544 21.395 21.293v253.414c0 11.749-9.573 21.293-21.395 21.293zm-153.338 82h-99.534c-1.465 0-2.723-.155-3.555-.369a6.713 6.713 0 0 1-.178-.049v-14.164c.054-.016.114-.032.178-.049.832-.214 2.09-.369 3.555-.369h99.534c1.465 0 2.723.155 3.555.369.064.017.124.033.178.049v14.164a6.713 6.713 0 0 1-.178.049c-.832.214-2.09.369-3.555.369zm-103.777-.61c-.041-.024-.032-.024.004.003l-.004-.003zm0-13.78.004-.003c-.036.027-.045.027-.004.003zm108.02 0c.041.024.032.024-.004-.003l.004.003zm0 13.78-.004.003c.036-.027.045-.027.004-.003zM365 494v15h-34v-15h34zm205 0v15h-34v-15h34z" fill="#fff" stroke="#E1E4E5" stroke-width="4"/><path fill="#fff" stroke="#E1E4E5" stroke-width="4" d="M226 131h449v17H226z"/><rect x="410" y="123" width="79" height="15" rx="7.5" fill="#fff" stroke="#E1E4E5" stroke-width="4"/><path d="M190.067 263.188c-8.35 7.675-23.109 5.216-23.109 5.216s-1.21-14.904 7.147-22.574c8.35-7.676 23.101-5.221 23.101-5.221s1.211 14.903-7.139 22.579z" fill="url(#b)"/><circle r="7" transform="matrix(1 0 0 -1 186 329)" fill="#E1E4E5"/><ellipse rx="8" ry="8.5" transform="matrix(1 0 0 -1 193 167.5)" fill="url(#c)"/><circle cx="677" cy="367" r="10" fill="#E1E4E5"/><circle cx="692.283" cy="194.033" r="3.265" transform="rotate(105 692.283 194.033)" fill="#E1E4E5"/><circle cx="708" cy="251" r="5" fill="#E1E4E5"/><path fill-rule="evenodd" clip-rule="evenodd" d="M391.95 269.475c0 39.478-31.997 71.475-71.475 71.475-39.478 0-71.475-31.997-71.475-71.475C249 229.997 280.997 198 320.475 198c39.478 0 71.475 31.997 71.475 71.475z" fill="#009688" stroke="#fff" stroke-width="4" stroke-linecap="round" stroke-linejoin="round"/><path d="m371.016 320.016-48.214-48.214a7.934 7.934 0 0 1-2.327-5.615V198" stroke="#fff" stroke-width="4" stroke-linecap="round" stroke-linejoin="round"/><path d="m382.375 233.738-59.05 34.092a7.934 7.934 0 0 0-3.701 4.821l-17.648 65.864m18.952-68.589 50.054 50.081" stroke="#fff" stroke-width="4" stroke-linecap="round" stroke-linejoin="round"/><path d="M424.558 305.569h51.05m63.832.037h57.703m-57.703 37.552h57.703m-172.585-21.18h84.779m30.083 0h84.491M539.42 359.53h84.491m-199.353-15.674h51.05m-51.05 16.409h84.779" stroke="#E1E4E5" stroke-width="5.5" stroke-linecap="round" stroke-linejoin="round"/><rect x="464.668" y="198" width="30.083" height="89.337" rx="10" fill="#009688"/><rect x="554.005" y="198" width="30.083" height="89.337" rx="10" fill="#009688"/><rect x="420" y="234.464" width="30.083" height="52.873" rx="10" fill="#E1E4E5"/><rect x="509.337" y="234.464" width="30.083" height="52.873" rx="10" fill="#E1E4E5"/><rect x="598.674" y="234.464" width="30.083" height="52.873" rx="10" fill="#E1E4E5"/><defs><linearGradient id="a" x1="460.159" y1="539.138" x2="460.109" y2="467.619" gradientUnits="userSpaceOnUse"><stop stop-color="#fff"/><stop offset="1" stop-color="#EEE"/></linearGradient><linearGradient id="b" x1="156.988" y1="289.174" x2="218.961" y2="202.131" gradientUnits="userSpaceOnUse"><stop stop-color="#fff"/><stop offset="1" stop-color="#EEE"/></linearGradient><linearGradient id="c" x1="8.341" y1="26.531" x2="7.784" y2="-18.492" gradientUnits="userSpaceOnUse"><stop stop-color="#fff"/><stop offset="1" stop-color="#EEE"/></linearGradient></defs></svg>