<svg width="900" height="600" viewBox="0 0 900 600" fill="none" xmlns="http://www.w3.org/2000/svg"><path fill="transparent" d="M0 0h900v600H0z"/><path d="M157.151 349.224c-3.894 71.753 136.388 217.654 309.295 163.651 80.418-25.118 73.606-66.809 134.755-121.754 36.449-32.748 88.818-57.511 103.384-105.113 12.583-41.087 4.866-85.25-16.948-113.975-49.061-64.601-148.105-108.837-245.694-7.053-97.59 101.784-274.729-.811-284.792 184.244z" fill="url(#a)"/><path d="M195.606 193.214c13.645 24.352 43.528 27.698 91.404 23.07 36.006-3.486 68.84-6.184 104.849-25.817 25.204-13.732 45.154-32.31 59.715-50.354 15.779-19.548 37.804-41.857 27.007-64.02-14.838-30.447-100.642-56.09-183.961-14.156-91.525 46.078-112.362 107.477-99.014 131.277z" fill="url(#b)"/><path d="M543.362 494.931c31.788-44.471 64.343-91.737 106.965-115.017 43.962-24.025 52.07-9.218 55.113 14.322 3.043 23.54-10.52 79.315-70.517 111.048-60.012 31.744-121.305 31.268-91.561-10.353z" fill="url(#c)"/><path d="M613.83 372.237v150.544H399.096v-22.588c0-21.019-19.975-28.586-67.19-25.41-37.771 2.541-49.635-12.251-50.846-19.965V358.17l-34.049-11.343c2.573-64.734 27.149-203.913 104.871-242.754 97.152-48.55 185.809-26.545 244.243 60.348 43.102 64.095 27.995 159.567 17.705 207.816z" fill="#009688"/><ellipse rx="17" ry="16.5" transform="matrix(1 0 0 -1 706.011 228.281)" fill="#133835"/><circle r="10.5" transform="matrix(1 0 0 -1 637.511 153.281)" fill="#F8AE9D"/><circle r="23.5" transform="matrix(1 0 0 -1 160.512 426.281)" fill="#009688"/><ellipse rx="11" ry="11.5" transform="matrix(1 0 0 -1 184.012 341.281)" fill="#F8AE9D"/><ellipse cx="223.012" cy="278.281" rx="6" ry="5.5" transform="rotate(-180 223.012 278.281)" fill="#E1E4E5"/><circle r="11.5" transform="matrix(1 0 0 -1 251.512 488.281)" fill="#E1E4E5"/><circle r="14.5" transform="matrix(1 0 0 -1 576.5 390.5)" fill="#E1E4E5"/><circle cx="357.012" cy="265.781" r="18" fill="#fff"/><path d="m354.651 369.781-.069.551c.023-.022.069-.16.069-.551zm.023 137.902c0 .046 0 .091.023.137 0-.091 0-.114-.023-.137zm-2.733-116.725v-.023c0-.046-.023-.092-.023-.138l.023.161zm10.978 141.392 1.08.069c0-.023-.276-.046-1.08-.069zM637 532.328c.092 0 .183 0 .252-.023-.16 0-.229.023-.252.023zm-231.98 2.733h-.069c-.091 0-.206.023-.275.023l.344-.023z" fill="#B1CBC0"/><path d="M637.682 529.044c-14.49.369-18.324 1.934-33.365 1.29-7.164.092-14.81-.185-21.814-.369-3.329-1.197-9.185 0-13.134-1.013l-1.516.645c-1.355-.369-2.939-.553-4.317-.185l.092.185c-2.021-.461-4.317-.185-5.304-.461l.092.184-2.457-.092.413.277c-3.536-.553-7.164-.553-10.379-.369l.276-.829c-6.866.921-9.369-.737-15.546.277l.092.184c-7.83-2.119-12.354 1.473-20.414-.553 1.011.277-.436.369-.344.645-3.72-.184-7.669-.368-7.738-1.934-2.71 0-2.205.46-2.549 1.105.023-.645-2.342-1.013-4.455-1.013l.965.276-6.062-.276 1.194-1.29c-3.215.369-.827 1.566-3.881 1.29l.046-1.105c-4.432.184-7.05 1.842-11.343 2.671-17.865.46-37.062-2.303-53.663-.369l-.735.829c-.322 1.197-4.593-1.75-5.213-.645l-1.929-.552c-.551.184-1.699.46-.734.737-1.791.092-1.837-.185-3.123-.461l-1.929.737c-7.049.552-13.043-.829-20.459-.553-8.91 1.474-25.695.092-35.362-.644-13.594-1.75-29.392 2.947-43.307.921-.46.184-1.631-.185-1.608-.369l-12.744.184s-61.745.461-14.833-9.394l-.322-.276c6.981-.645 11.366-.737 16.166.552.757-1.566 5.717-.184 7.348-.645l-.161-.092c4.248 1.198 8.748-1.013 12.859.092-.161-.092-.253-.552-1.194-.552 2.985.184 7.072.553 7.302-.369 7.141.277 17.084-.184 21.653 1.29l-.321-.276c2.594 1.013 3.375.184 6.291.644.161-.092.368-.184.322-.276 2.847 1.013 8.289.184 10.562.553l.138-.645 5.649.184-2.113.092c.735 1.658 4.271-1.105 8.359 0 3.834-.184 7.784 3.5 11.756 2.671 1.906.829-1.676-1.289 1.171-.645.092-.921-1.331-.552-.596-1.289 2.778.461 4.569-.921 8.013-.276l.138-.645c4.478 1.289 8.45-.921 11.435.276 4.616.553 3.1-2.026 7.922-.737l1.883-.921c2.067-.184 1.47 1.106 3.766.645-.138-.552 2.893-.46 1.539-1.013 5.166-.921 10.493 1.289 17.313-.276 1.47 1.105 4.914.46 6.016 1.289.184-.46 6.866-.092 3.031-1.197-.321-.092-.918-.092-.872.092l-.46-.645c3.881-1.289 7.05.737 10.908.461-1.149.184-2.664.184-1.654.644l3.582-.092-.734-.552 5.327-.369-.735.737c2.595-.368 3.513-1.566 6.453-.553 1.331.553-2.457.922.275 1.198 3.49-.461 8.703-1.197 13.134-1.382-.413.829.781.737 2.021.921l.138-.644c4.707.921 1.722-1.474 6.406-.737l-.413-.461 1.24 1.474c4.225 1.381 2.273-1.382 6.958.46-1.86-.092-.873 1.474 1.4 1.198l-.574-.645c1.263.184 1.676.461 2.526.276-.758-.368-.39-.921 1.47-.829l-1.24-.829 3.513 1.198c2.71-.737 7.003.184 8.129-.737 0 0 5.832-.461 7.164.553-1.171-.645 2.044-.921 1.125-1.658 1.516.737 5.97 1.289 7.761.552l-.344-.092c6.613-.829 11.297 1.106 17.222.092-.276.829 2.87.369 2.089 1.382 6.131 1.013 11.183-2.118 13.41 1.105 2.802.184 3.307-.737 4.753-.921l-.666-.184c5.236.276 6.751.276 10.632.184 1.929.276 2.25 1.75 5.718 1.382-1.126-.553.298-.461 1.584-.461-.827-.092-1.079-.276.62-.737.23.185.62.277.964.369.023 0 .092-.092.046-.184 2.159.184 1.791.368.781.46.046.092-.023.184-.344.369 2.25-.737 6.268.092 6.544-.922 6.521.277 11.183 1.29 16.602 1.658.62-.552-.666-1.013-2.228-1.197l3.858.184c-.023-.737-2.204-.46-3.398-.552 4.592-1.198 9.46 1.197 14.833.092l1.125.552.322-.092c-.023.277 1.194.737 1.975.829.757-.645-.046-1.474 2.617-1.474 2.113-.644 5.97.277 8.726.645-1.493.092-1.01.461-.367.737 1.331 0 2.089-.645 3.122-.368l.138-.829c-.528.829 3.468.921 3.973 1.197.757-.645-2.067-.553-2.388-1.013 5.327.092 2.663 0 8.013.092 2.848.645-.528.829.85 1.566 2.503.184 4.96.737 7.853.276l-.918.737c4.73.645 7.554.552 10.723-.276 35.178 6.263 7.417 8.565 7.417 8.565-13.915 1.934-21.057-.276-37.543-.921z" fill="#009688"/><path d="m626.825 420.794-.69.528c.023.023.207-.115.69-.528zm-173.594 13.62-.138.161c.092-.092.138-.138.138-.161zm146.698 7.281.046-.023.138-.161-.184.184z" fill="#B1CBC0"/><path d="M446 477a7 7 0 1 0 0-14 7 7 0 0 0 0 14z" fill="#fff"/><path d="M518.5 463c8.008 0 14.5-6.492 14.5-14.5s-6.492-14.5-14.5-14.5-14.5 6.492-14.5 14.5 6.492 14.5 14.5 14.5z" fill="#133835"/><defs><linearGradient id="a" x1="324.818" y1="779.322" x2="587.223" y2="-404.561" gradientUnits="userSpaceOnUse"><stop stop-color="#fff"/><stop offset="1" stop-color="#EEE"/></linearGradient><linearGradient id="b" x1="287.527" y1="351.038" x2="409.146" y2="-195.47" gradientUnits="userSpaceOnUse"><stop stop-color="#fff"/><stop offset="1" stop-color="#EEE"/></linearGradient><linearGradient id="c" x1="578.857" y1="640.92" x2="683.151" y2="158.612" gradientUnits="userSpaceOnUse"><stop stop-color="#fff"/><stop offset="1" stop-color="#EEE"/></linearGradient></defs></svg>