<svg width="900" height="600" viewBox="0 0 900 600" fill="none" xmlns="http://www.w3.org/2000/svg"><path fill="transparent" d="M0 0h900v600H0z"/><path fill-rule="evenodd" clip-rule="evenodd" d="M695.131 135.743 625.309 65.86a49.37 49.37 0 0 0-34.911-14.481H413.326c-27.282 0-49.379 22.116-49.379 49.422v345.958c0 27.306 22.097 49.423 49.379 49.423H660.22c27.282 0 49.379-22.117 49.379-49.423V170.685a49.464 49.464 0 0 0-14.468-34.942z" fill="#fff" stroke="#E1E4E5" stroke-width="4"/><rect x="431.28" y="356.845" width="212.358" height="24.983" rx="12.492" fill="#E1E4E5"/><rect x="431.28" y="307.244" width="212.358" height="24.983" rx="12.492" fill="#E1E4E5"/><rect x="431.28" y="257.521" width="212.358" height="24.983" rx="12.492" fill="#E1E4E5"/><rect x="431.28" y="207.799" width="212.358" height="24.983" rx="12.492" fill="#E1E4E5"/><rect x="431.28" y="158.076" width="212.358" height="24.983" rx="12.492" fill="#E1E4E5"/><rect x="431.28" y="406.812" width="212.358" height="24.983" rx="12.492" fill="#E1E4E5"/><path fill-rule="evenodd" clip-rule="evenodd" d="m519.029 188.573-69.822-69.883a49.37 49.37 0 0 0-34.911-14.481H237.224c-27.282 0-49.379 22.117-49.379 49.423V499.59c0 27.306 22.097 49.422 49.379 49.422h246.894c27.282 0 49.379-22.116 49.379-49.422V223.515a49.464 49.464 0 0 0-14.468-34.942z" fill="#fff" stroke="#E1E4E5" stroke-width="4"/><path fill-rule="evenodd" clip-rule="evenodd" d="M282.66 353.966v11.75c0 6.487 5.195 11.751 11.596 11.751h139.153c6.401 0 11.596-5.264 11.596-11.751v-11.938c0-35.558-40.099-58.66-81.173-58.66-41.073 0-81.172 23.114-81.172 58.66m52.058-161.889c-16.079 16.08-16.079 42.15 0 58.23 16.08 16.079 42.15 16.079 58.23 0 16.079-16.08 16.079-42.15 0-58.23-16.08-16.08-42.15-16.08-58.23 0z" fill="#009688"/><rect x="255.178" y="409.676" width="212.358" height="24.983" rx="12.492" fill="#E1E4E5"/><rect x="255.178" y="459.643" width="212.358" height="24.983" rx="12.492" fill="#E1E4E5"/><path d="M755.318 482.135c-10.034 2.377-20.646-6.132-20.646-6.132s5.663-12.358 15.7-14.728c10.034-2.377 20.642 6.125 20.642 6.125s-5.663 12.358-15.696 14.735z" fill="url(#a)"/><path d="M223.522 373.345c-5.912 1.401-12.165-3.613-12.165-3.613s3.337-7.283 9.251-8.679c5.912-1.401 12.163 3.609 12.163 3.609s-3.337 7.282-9.249 8.683z" fill="url(#b)"/><path d="M305.996 161.145c10.206-2.064 16.339-14.354 16.339-14.354s-10.419-8.938-20.625-6.867c-10.206 2.063-16.339 14.346-16.339 14.346s10.419 8.938 20.625 6.875z" fill="url(#c)"/><ellipse cx="701.853" cy="150.66" rx="8.492" ry="8.123" transform="rotate(180 701.853 150.66)" fill="#009688"/><circle cx="501.035" cy="516.845" r="8.637" transform="rotate(180 501.035 516.845)" fill="#009688"/><circle r="10.671" transform="matrix(-1 0 0 1 244.354 207.229)" fill="#009688"/><ellipse rx="5.697" ry="5.478" transform="matrix(-1 0 0 1 664.874 456.465)" fill="#E1E4E5"/><circle r="11.37" transform="matrix(-1 0 0 1 473.727 285.466)" fill="#E1E4E5"/><ellipse rx="4.144" ry="4.42" transform="matrix(-1 0 0 1 592.879 530.243)" fill="#E1E4E5"/><circle r="9.701" transform="matrix(-1 0 0 1 519.71 89.049)" fill="#E1E4E5"/><circle r="9.48" transform="scale(1 -1) rotate(-75 -197.74 -380.744)" fill="#E1E4E5"/><circle r="6.738" transform="scale(1 -1) rotate(-75 239.197 -463.461)" fill="#E1E4E5"/><defs><linearGradient id="a" x1="717.534" y1="488.045" x2="805.368" y2="446.55" gradientUnits="userSpaceOnUse"><stop stop-color="#fff"/><stop offset="1" stop-color="#EEE"/></linearGradient><linearGradient id="b" x1="201.258" y1="376.828" x2="253.014" y2="352.376" gradientUnits="userSpaceOnUse"><stop stop-color="#fff"/><stop offset="1" stop-color="#EEE"/></linearGradient><linearGradient id="c" x1="343.143" y1="150.587" x2="245.051" y2="149.677" gradientUnits="userSpaceOnUse"><stop stop-color="#fff"/><stop offset="1" stop-color="#EEE"/></linearGradient></defs></svg>