<svg width="900" height="600" viewBox="0 0 900 600" fill="none" xmlns="http://www.w3.org/2000/svg"><path fill="transparent" d="M0 0h900v600H0z"/><path fill-rule="evenodd" clip-rule="evenodd" d="M345.952 121.429h-46.007c-25.419 0-46.007 20.588-46.007 46.007v322.05c0 25.419 20.588 46.007 46.007 46.007h276.042c25.419 0 46.008-20.588 46.008-46.007v-23.004" fill="#fff"/><path d="M345.952 121.429h-46.007c-25.419 0-46.007 20.588-46.007 46.007v322.05c0 25.419 20.588 46.007 46.007 46.007h276.042c25.419 0 46.008-20.588 46.008-46.007v-23.004" stroke="#E1E4E5" stroke-width="4"/><path fill-rule="evenodd" clip-rule="evenodd" d="M495.475 155.935H380.457c-19.046 0-34.505-15.459-34.505-34.506s15.459-34.505 34.505-34.505h115.018c19.047 0 34.505 15.458 34.505 34.505 0 19.047-15.458 34.506-34.505 34.506z" fill="#fff" stroke="#E1E4E5" stroke-width="4"/><path fill-rule="evenodd" clip-rule="evenodd" d="M345.952 236.447h138.021-138.021z" fill="#fff"/><path d="M345.952 236.447h138.021" stroke="#E1E4E5" stroke-width="6.462"/><path fill-rule="evenodd" clip-rule="evenodd" d="M345.952 328.461h92.014-92.014z" fill="#fff"/><path d="M345.952 328.461h92.014" stroke="#E1E4E5" stroke-width="6.462"/><path fill-rule="evenodd" clip-rule="evenodd" d="M345.952 419.695h92.014-92.014z" fill="#fff"/><path d="M345.952 419.695h92.014" stroke="#E1E4E5" stroke-width="6.462"/><path fill-rule="evenodd" clip-rule="evenodd" d="M529.98 121.429h46.008c25.418 0 46.007 20.588 46.007 46.007" fill="#fff"/><path d="M529.98 121.429h46.008c25.418 0 46.007 20.588 46.007 46.007" stroke="#E1E4E5" stroke-width="4"/><path fill-rule="evenodd" clip-rule="evenodd" d="M492.963 279.913v159.82c0 17.58 14.384 31.964 31.964 31.964h223.748c17.581 0 31.964-14.384 31.964-31.964v-159.82" fill="#E1E4E5"/><path d="M492.963 279.913v159.82c0 17.58 14.384 31.964 31.964 31.964h223.748c17.581 0 31.965-14.384 31.965-31.964v-159.82" stroke="#E1E4E5" stroke-width="4.532"/><path fill-rule="evenodd" clip-rule="evenodd" d="m502.359 462.299 97.394-97.394-97.394 97.394z" fill="#fff"/><path d="m502.359 462.299 97.394-97.394" stroke="#fff" stroke-width="4.532"/><path fill-rule="evenodd" clip-rule="evenodd" d="m674.52 365.576 96.723 96.723-96.723-96.723z" fill="#fff"/><path d="m674.52 365.576 96.723 96.723" stroke="#fff" stroke-width="4.532"/><path fill-rule="evenodd" clip-rule="evenodd" d="M492.963 276.716c0 9.59 4.795 17.581 12.786 23.973l95.892 65.527c22.375 14.383 49.544 14.383 71.919 0l95.892-63.928c6.393-7.991 11.188-15.982 11.188-25.572a28.648 28.648 0 0 0-28.768-28.767H521.731a28.648 28.648 0 0 0-28.768 28.767z" fill="#fff" stroke="#E1E4E5" stroke-width="4.532"/><path fill-rule="evenodd" clip-rule="evenodd" d="M636.973 311.75c-47.987 0-86.898-38.911-86.898-86.897 0-47.002 39.973-86.937 86.956-86.898 47.968.038 86.84 38.93 86.84 86.898 0 47.986-38.892 86.897-86.898 86.897z" fill="#009688"/><path d="m668.172 210.289-38.824 38.956-23.295-23.389" stroke="#fff" stroke-width="20.624" stroke-linecap="round" stroke-linejoin="round"/><path d="M180.393 242.673c19.066-27.505 56.821-34.347 84.327-15.28 27.505 19.066 34.347 56.821 15.28 84.327-19.066 27.506-56.821 34.347-84.327 15.28-27.505-19.066-34.347-56.821-15.28-84.327z" fill="#009688"/><path d="M194.313 311.47c1.009 1.843-.283 4.102-2.383 4.167l-26.747.835c-2.258.07-3.676-2.414-2.467-4.323l14.591-23.032c1.148-1.812 3.819-1.727 4.849.155l12.157 22.198z" fill="#009688"/><path d="M248.883 279.673c.078 4.491 3.781 8.052 8.272 7.973 4.49-.079 8.051-3.782 7.972-8.272-.078-4.491-3.781-8.052-8.272-7.973-4.49.095-8.051 3.782-7.972 8.272zm-28.22 1.197c.457 4.459 4.459 7.705 8.918 7.248 4.459-.457 7.705-4.459 7.248-8.918-.457-4.459-4.459-7.705-8.918-7.248-4.459.473-7.705 4.459-7.248 8.918zm-26.534.489c.457 4.459 4.459 7.705 8.918 7.248 4.459-.457 7.705-4.459 7.248-8.918-.457-4.459-4.459-7.705-8.918-7.248-4.459.457-7.705 4.443-7.248 8.918z" fill="#fff"/><path d="M257.393 376.673c19.067-27.505 56.821-34.347 84.327-15.28 27.506 19.066 34.347 56.821 15.28 84.327-19.066 27.506-56.821 34.347-84.326 15.28-27.506-19.066-34.348-56.821-15.281-84.327z" fill="#009688"/><path d="M271.313 445.47c1.009 1.843-.283 4.102-2.383 4.167l-26.747.835c-2.258.07-3.676-2.414-2.467-4.323l14.591-23.032c1.148-1.812 3.819-1.727 4.849.155l12.157 22.198z" fill="#009688"/><path d="M325.883 413.673c.078 4.491 3.781 8.052 8.272 7.973 4.49-.079 8.051-3.782 7.972-8.272-.078-4.491-3.781-8.052-8.272-7.973-4.49.095-8.051 3.782-7.972 8.272zm-28.22 1.197c.457 4.459 4.459 7.705 8.918 7.248 4.459-.457 7.705-4.459 7.248-8.918-.457-4.459-4.459-7.705-8.918-7.248-4.459.473-7.705 4.459-7.248 8.918zm-26.534.489c.457 4.459 4.459 7.705 8.918 7.248 4.459-.457 7.705-4.459 7.248-8.918-.457-4.459-4.459-7.705-8.918-7.248-4.459.457-7.705 4.443-7.248 8.918z" fill="#fff"/><path fill-rule="evenodd" clip-rule="evenodd" d="M167.86 494.387h3.909c.945 0 1.706.769 1.706 1.706v3.908c0 .945-.769 1.706-1.706 1.706h-3.909a1.712 1.712 0 0 1-1.705-1.706v-3.908a1.702 1.702 0 0 1 1.705-1.706zm13.551 0h3.908c.937 0 1.706.769 1.706 1.706v3.908c0 .945-.769 1.706-1.706 1.706h-3.908a1.712 1.712 0 0 1-1.706-1.706v-3.908c0-.937.768-1.706 1.706-1.706zm13.56 0h3.908c.937 0 1.706.769 1.706 1.706v3.908c0 .945-.769 1.706-1.706 1.706h-3.908a1.713 1.713 0 0 1-1.706-1.706v-3.908a1.702 1.702 0 0 1 1.706-1.706zm13.55 0h3.909c.937 0 1.705.769 1.705 1.706v3.908c0 .945-.768 1.706-1.705 1.706h-3.909a1.714 1.714 0 0 1-1.714-1.706v-3.908a1.725 1.725 0 0 1 1.714-1.706zm13.552 0h3.909c.945 0 1.714.769 1.714 1.706v3.908c0 .946-.769 1.706-1.714 1.706h-3.909a1.713 1.713 0 0 1-1.706-1.706v-3.908c0-.937.769-1.706 1.706-1.706zm-40.165 14.777h3.908c.937 0 1.706.769 1.706 1.706v3.916c0 .937-.769 1.706-1.706 1.706h-3.908a1.708 1.708 0 0 1-1.706-1.706v-3.908a1.704 1.704 0 0 1 1.706-1.714zm13.551 0h3.908c.937 0 1.706.769 1.706 1.706v3.916c0 .937-.769 1.706-1.706 1.706h-3.908a1.713 1.713 0 0 1-1.706-1.706v-3.908a1.704 1.704 0 0 1 1.706-1.714zm13.551 0h3.909c.945 0 1.714.769 1.714 1.706v3.916c0 .937-.769 1.706-1.714 1.706h-3.909a1.713 1.713 0 0 1-1.706-1.706v-3.908c0-.945.769-1.714 1.706-1.714zm-14.039-30.651h3.908c.937 0 1.706.769 1.706 1.706v3.908c0 .945-.769 1.706-1.706 1.706h-3.908a1.713 1.713 0 0 1-1.706-1.706v-3.908a1.702 1.702 0 0 1 1.706-1.706zm13.55 0h3.909c.937 0 1.705.769 1.705 1.706v3.908c0 .945-.768 1.706-1.705 1.706h-3.909a1.714 1.714 0 0 1-1.714-1.706v-3.908a1.725 1.725 0 0 1 1.714-1.706z" fill="#E1E4E5"/><path d="M738.999 517.428c-10.612 2.513-21.835-6.486-21.835-6.486s5.989-13.071 16.605-15.577c10.611-2.514 21.831 6.478 21.831 6.478s-5.989 13.071-16.601 15.585z" fill="url(#a)"/><path d="M154.015 369.941c-6.253 1.482-12.867-3.821-12.867-3.821s3.53-7.702 9.785-9.179c6.253-1.481 12.864 3.817 12.864 3.817s-3.529 7.702-9.782 9.183z" fill="url(#b)"/><path d="M230.422 139.957c6.186-9.112 1.726-22.938 1.726-22.938s-14.488.956-20.667 10.074c-6.186 9.111-1.732 22.93-1.732 22.93s14.488-.955 20.673-10.066z" fill="url(#c)"/><ellipse cx="659.532" cy="502.968" rx="8.981" ry="8.591" transform="rotate(180 659.532 502.968)" fill="#009688"/><circle cx="466.139" cy="495.051" r="9.135" transform="rotate(180 466.139 495.051)" fill="#009688"/><circle r="11.286" transform="matrix(-1 0 0 1 176.047 194.252)" fill="#009688"/><ellipse rx="6.026" ry="5.794" transform="matrix(-1 0 0 1 620.804 457.851)" fill="#E1E4E5"/><circle r="9.33" transform="matrix(-1 0 0 1 415.945 276.997)" fill="#E1E4E5"/><ellipse rx="4.382" ry="4.675" transform="matrix(-1 0 0 1 544.659 535.882)" fill="#E1E4E5"/><circle r="10.26" transform="matrix(-1 0 0 1 467.273 69.26)" fill="#E1E4E5"/><circle r="5.71" transform="scale(1 -1) rotate(-75 -168.117 -338.915)" fill="#E1E4E5"/><circle r="7.127" transform="scale(1 -1) rotate(-75 228.027 -424.026)" fill="#E1E4E5"/><defs><linearGradient id="a" x1="699.038" y1="523.678" x2="791.934" y2="479.791" gradientUnits="userSpaceOnUse"><stop stop-color="#fff"/><stop offset="1" stop-color="#EEE"/></linearGradient><linearGradient id="b" x1="130.468" y1="373.625" x2="185.207" y2="347.764" gradientUnits="userSpaceOnUse"><stop stop-color="#fff"/><stop offset="1" stop-color="#EEE"/></linearGradient><linearGradient id="c" x1="250.68" y1="104.49" x2="175.883" y2="176.388" gradientUnits="userSpaceOnUse"><stop stop-color="#fff"/><stop offset="1" stop-color="#EEE"/></linearGradient></defs></svg>