<svg width="900" height="600" viewBox="0 0 900 600" fill="none" xmlns="http://www.w3.org/2000/svg"><path fill="transparent" d="M0 0h900v600H0z"/><path fill-rule="evenodd" clip-rule="evenodd" d="M629.602 207.307v-51.154c0-28.251-22.903-51.153-51.154-51.153H322.681c-28.251 0-51.154 22.902-51.154 51.153v127.884" fill="#fff"/><path d="M629.602 207.307v-51.154c0-28.251-22.903-51.153-51.154-51.153H322.681c-28.251 0-51.154 22.902-51.154 51.153v127.884" stroke="#E1E4E5" stroke-width="4.13"/><path fill-rule="evenodd" clip-rule="evenodd" d="M271.528 216.252h165.353a25.578 25.578 0 0 0 21.28-11.382l35.884-53.941a25.575 25.575 0 0 1 21.357-11.407h114.2c28.251 0 51.153 22.902 51.153 51.153v255.767c0 28.252-22.902 51.154-51.153 51.154H271.528c-28.252 0-51.154-22.902-51.154-51.154V267.405c0-28.251 22.902-51.153 51.154-51.153z" fill="#fff" stroke="#E1E4E5" stroke-width="4.13"/><path d="M535.64 222.6a68.96 68.96 0 0 0-79.394 68.675 67.73 67.73 0 0 0 .792 9.926" stroke="#fff" stroke-width="19.48" stroke-linecap="round" stroke-linejoin="round"/><ellipse rx="9" ry="8.5" transform="matrix(-1 0 0 1 714 463.5)" fill="#E1E4E5"/><circle r="4.639" transform="matrix(-1 0 0 1 247.639 163.639)" fill="#E1E4E5"/><circle r="6.627" transform="matrix(-1 0 0 1 566.399 205.929)" fill="#E1E4E5"/><circle r="6.476" transform="scale(1 -1) rotate(-75 -180.786 -314.12)" fill="#E1E4E5"/><ellipse rx="6.627" ry="5.302" transform="matrix(-1 0 0 1 659.627 110.302)" fill="#E1E4E5"/><path d="M186.177 456.259h.173c1.027 14.545 11.845 14.769 11.845 14.769s-11.929.233-11.929 17.04c0-16.807-11.929-17.04-11.929-17.04s10.813-.224 11.84-14.769zM764.304 245h.18c1.067 15.36 12.309 15.597 12.309 15.597s-12.397.245-12.397 17.994c0-17.749-12.396-17.994-12.396-17.994s11.237-.237 12.304-15.597z" fill="#E1E4E5"/><path fill-rule="evenodd" clip-rule="evenodd" d="m761.2 240.147-37.565-37.398A26.634 26.634 0 0 0 704.853 195h-95.268c-14.678 0-26.566 11.836-26.566 26.448v185.139c0 14.613 11.888 26.448 26.566 26.448h132.833c14.678 0 26.566-11.835 26.566-26.448V258.846a26.4 26.4 0 0 0-7.784-18.699z" fill="#fff" stroke="#E1E4E5" stroke-width="4.64"/><path d="M731.577 282.266h-58.192m58.192 35.281h-58.192m58.192 35.282h-58.192m-38.284-72.032a1.532 1.532 0 1 0 .001 3.063 1.532 1.532 0 0 0-.001-3.063m0 35.219a1.532 1.532 0 1 0 .001 3.063 1.532 1.532 0 0 0-.001-3.063m0 35.221a1.532 1.532 0 1 0 .002 3.064 1.532 1.532 0 0 0-.002-3.064" stroke="#009688" stroke-width="17.194" stroke-linecap="round" stroke-linejoin="round"/><path fill-rule="evenodd" clip-rule="evenodd" d="m533.553 240.147-37.565-37.398A26.634 26.634 0 0 0 477.206 195h-95.268c-14.678 0-26.566 11.836-26.566 26.448v185.139c0 14.613 11.888 26.448 26.566 26.448h132.833c14.678 0 26.566-11.835 26.566-26.448V258.846a26.4 26.4 0 0 0-7.784-18.699z" fill="#fff" stroke="#E1E4E5" stroke-width="4.64"/><path fill-rule="evenodd" clip-rule="evenodd" d="m484.993 334.035-48.435 27.41c-11.926 6.741-26.679-1.924-26.679-15.683v-54.808c0-13.772 14.729-22.425 26.679-15.684l48.435 27.41c12.166 6.862 12.166 24.469 0 31.355z" fill="#009688"/><path fill-rule="evenodd" clip-rule="evenodd" d="m310.181 240.147-37.565-37.398A26.634 26.634 0 0 0 253.834 195h-95.268C143.888 195 132 206.836 132 221.448v185.139c0 14.613 11.888 26.448 26.566 26.448h132.833c14.678 0 26.566-11.835 26.566-26.448V258.846a26.4 26.4 0 0 0-7.784-18.699z" fill="#fff" stroke="#E1E4E5" stroke-width="4.64"/><rect x="153.076" y="250.79" width="138.853" height="138.853" rx="38.959" fill="#009688" stroke="#fff" stroke-width="19.48" stroke-linecap="round" stroke-linejoin="round"/><path d="M200.162 292.456a3.86 3.86 0 1 1-5.429 0 3.873 3.873 0 0 1 5.457 0m91.74 13.183a73.701 73.701 0 0 0-84.853 73.397c.021 3.553.305 7.098.847 10.609" stroke="#fff" stroke-width="19.48" stroke-linecap="round" stroke-linejoin="round"/></svg>