<svg width="900" height="600" viewBox="0 0 900 600" fill="none" xmlns="http://www.w3.org/2000/svg"><path fill="transparent" d="M0 0h900v600H0z"/><circle cx="464.632" cy="291.213" r="210.213" fill="url(#a)"/><path d="M113.808 373.146c18.887 11.32 45.984.856 45.984.856s-3.543-28.813-22.442-40.12c-18.887-11.32-45.972-.869-45.972-.869s3.543 28.814 22.43 40.133z" fill="url(#b)"/><circle cx="712.899" cy="227.112" r="17.851" transform="rotate(180 712.899 227.112)" fill="#009688"/><circle cx="338.529" cy="227.213" r="14.695" transform="rotate(180 338.529 227.213)" fill="#009688"/><circle r="10.041" transform="matrix(-1 0 0 1 664.707 507.916)" fill="#E1E4E5"/><circle r="12.273" transform="matrix(-1 0 0 1 687.129 132.455)" fill="#E1E4E5"/><circle r="11.021" transform="scale(1 -1) rotate(-75 -64.128 -214.086)" fill="#E1E4E5"/><circle r="14.661" transform="matrix(-1 0 0 1 367.648 105.151)" fill="#E1E4E5"/><ellipse rx="11.278" ry="9.022" transform="matrix(-1 0 0 1 764.41 392.562)" fill="#E1E4E5"/><path d="M209.464 144.654h.161c.951 13.48 10.976 13.687 10.976 13.687s-11.055.216-11.055 15.791c0-15.575-11.054-15.791-11.054-15.791s10.021-.207 10.972-13.687zm67.354 338.969h.154c.913 13.439 10.538 13.646 10.538 13.646s-10.613.215-10.613 15.744c0-15.529-10.613-15.744-10.613-15.744s9.62-.207 10.534-13.646z" fill="#E1E4E5"/><path fill-rule="evenodd" clip-rule="evenodd" d="M314.971 215.515c-64.31 8.534-114.012 61.559-114.012 126.398 0 70.76 59.036 128.141 131.836 128.141h290.04c58.245 0 105.469-45.9 105.469-102.513 0-56.612-47.224-102.512-105.469-102.512 0-84.932-70.823-153.77-158.204-153.77-69.53 0-128.434 43.645-149.66 104.256z" fill="#009688"/><path d="m396.059 306.213 63.118-63.117 63.117 63.117m-63.117 108.562v-166.63" stroke="#fff" stroke-width="17.816" stroke-linecap="round" stroke-linejoin="round"/><path fill-rule="evenodd" clip-rule="evenodd" d="M135.286 466.845h4.642c1.122 0 2.026.913 2.026 2.026v4.643a2.028 2.028 0 0 1-2.026 2.026h-4.642a2.034 2.034 0 0 1-2.026-2.026v-4.643a2.02 2.02 0 0 1 2.026-2.026zm16.093 0h4.642c1.113 0 2.027.913 2.027 2.026v4.643a2.029 2.029 0 0 1-2.027 2.026h-4.642a2.034 2.034 0 0 1-2.026-2.026v-4.643c0-1.113.913-2.026 2.026-2.026zm16.106 0h4.642c1.113 0 2.026.913 2.026 2.026v4.643a2.028 2.028 0 0 1-2.026 2.026h-4.642a2.034 2.034 0 0 1-2.026-2.026v-4.643a2.02 2.02 0 0 1 2.026-2.026zm16.094 0h4.642c1.113 0 2.026.913 2.026 2.026v4.643a2.028 2.028 0 0 1-2.026 2.026h-4.642a2.037 2.037 0 0 1-2.036-2.026v-4.643a2.049 2.049 0 0 1 2.036-2.026zm16.096 0h4.642c1.123 0 2.036.913 2.036 2.026v4.643a2.03 2.03 0 0 1-2.036 2.026h-4.642a2.034 2.034 0 0 1-2.026-2.026v-4.643c0-1.113.913-2.026 2.026-2.026zm-47.705 17.551h4.642c1.113 0 2.026.913 2.026 2.026v4.652a2.034 2.034 0 0 1-2.026 2.026h-4.642a2.028 2.028 0 0 1-2.026-2.026v-4.643a2.023 2.023 0 0 1 2.026-2.035zm16.095 0h4.642c1.113 0 2.026.913 2.026 2.026v4.652a2.034 2.034 0 0 1-2.026 2.026h-4.642a2.035 2.035 0 0 1-2.027-2.026v-4.643a2.024 2.024 0 0 1 2.027-2.035zm16.095 0h4.642c1.123 0 2.036.913 2.036 2.026v4.652a2.036 2.036 0 0 1-2.036 2.026h-4.642a2.034 2.034 0 0 1-2.026-2.026v-4.643c0-1.122.913-2.035 2.026-2.035zm-16.675-36.405h4.642c1.113 0 2.026.913 2.026 2.026v4.642a2.028 2.028 0 0 1-2.026 2.027h-4.642a2.034 2.034 0 0 1-2.026-2.027v-4.642a2.02 2.02 0 0 1 2.026-2.026zm16.094 0h4.642c1.113 0 2.026.913 2.026 2.026v4.642a2.028 2.028 0 0 1-2.026 2.027h-4.642a2.037 2.037 0 0 1-2.036-2.027v-4.642a2.049 2.049 0 0 1 2.036-2.026zm540.813 18.854h4.642c1.122 0 2.026.913 2.026 2.026v4.643a2.028 2.028 0 0 1-2.026 2.026h-4.642a2.034 2.034 0 0 1-2.026-2.026v-4.643a2.02 2.02 0 0 1 2.026-2.026zm16.093 0h4.642c1.113 0 2.027.913 2.027 2.026v4.643a2.029 2.029 0 0 1-2.027 2.026h-4.642a2.034 2.034 0 0 1-2.026-2.026v-4.643c0-1.113.913-2.026 2.026-2.026zm16.106 0h4.642c1.113 0 2.026.913 2.026 2.026v4.643a2.028 2.028 0 0 1-2.026 2.026h-4.642a2.034 2.034 0 0 1-2.026-2.026v-4.643a2.02 2.02 0 0 1 2.026-2.026zm16.094 0h4.642c1.113 0 2.026.913 2.026 2.026v4.643a2.028 2.028 0 0 1-2.026 2.026h-4.642a2.037 2.037 0 0 1-2.036-2.026v-4.643a2.049 2.049 0 0 1 2.036-2.026zm16.096 0h4.642c1.123 0 2.036.913 2.036 2.026v4.643a2.03 2.03 0 0 1-2.036 2.026h-4.642a2.034 2.034 0 0 1-2.026-2.026v-4.643c0-1.113.913-2.026 2.026-2.026zm-47.705 17.551h4.642c1.113 0 2.026.913 2.026 2.026v4.652a2.034 2.034 0 0 1-2.026 2.026h-4.642a2.028 2.028 0 0 1-2.026-2.026v-4.643a2.023 2.023 0 0 1 2.026-2.035zm16.095 0h4.642c1.113 0 2.026.913 2.026 2.026v4.652a2.034 2.034 0 0 1-2.026 2.026h-4.642a2.035 2.035 0 0 1-2.027-2.026v-4.643a2.024 2.024 0 0 1 2.027-2.035zm16.095 0h4.642c1.123 0 2.036.913 2.036 2.026v4.652a2.036 2.036 0 0 1-2.036 2.026h-4.642a2.034 2.034 0 0 1-2.026-2.026v-4.643c0-1.122.913-2.035 2.026-2.035zm-16.675-36.405h4.642c1.113 0 2.026.913 2.026 2.026v4.642a2.028 2.028 0 0 1-2.026 2.027h-4.642a2.034 2.034 0 0 1-2.026-2.027v-4.642a2.02 2.02 0 0 1 2.026-2.026zm16.094 0h4.642c1.113 0 2.026.913 2.026 2.026v4.642a2.028 2.028 0 0 1-2.026 2.027h-4.642a2.037 2.037 0 0 1-2.036-2.027v-4.642a2.049 2.049 0 0 1 2.036-2.026z" fill="#E1E4E5"/><defs><linearGradient id="a" x1="473.596" y1="737.141" x2="460.632" y2="-376.352" gradientUnits="userSpaceOnUse"><stop stop-color="#fff"/><stop offset="1" stop-color="#EEE"/></linearGradient><linearGradient id="b" x1="186.896" y1="409.584" x2="34.923" y2="268.382" gradientUnits="userSpaceOnUse"><stop stop-color="#fff"/><stop offset="1" stop-color="#EEE"/></linearGradient></defs></svg>