<svg width="900" height="600" viewBox="0 0 900 600" fill="none" xmlns="http://www.w3.org/2000/svg"><path fill="transparent" d="M0 0h900v600H0z"/><path d="M703.779 443.025c-11.235 63.854-164.321 163.422-305.247 80.645-65.543-38.501-51.041-73.749-93.557-134.527-25.343-36.225-66.309-68.685-69.387-113.494-2.665-38.678 13.137-75.914 38.175-96.702 56.312-46.753 152.391-65.398 217.365 43.987 64.974 109.385 241.606 55.403 212.651 220.091z" fill="url(#a)"/><path d="M716.263 233.164c-13.242 23.633-42.243 26.88-88.705 22.389-34.943-3.384-66.807-6.002-101.753-25.055-24.459-13.326-43.821-31.355-57.952-48.867-15.313-18.97-36.687-40.621-26.209-62.13 14.4-29.547 97.67-54.432 178.528-13.737 88.823 44.717 109.045 104.303 96.091 127.4z" fill="url(#b)"/><path d="M805.779 282.574c-24.947 12.374-58.057-3.537-58.057-3.537s7.359-35.968 32.319-48.326c24.946-12.375 58.043 3.52 58.043 3.52s-7.359 35.968-32.305 48.343z" fill="url(#c)"/><path d="M95.663 371.322c26.597 15.941 64.755 1.205 64.755 1.205s-4.989-40.575-31.602-56.497c-26.597-15.941-64.739-1.223-64.739-1.223s4.99 40.575 31.586 56.515z" fill="url(#d)"/><circle cx="756.693" cy="199.652" r="13.621" transform="rotate(180 756.693 199.652)" fill="#009688"/><circle cx="579.432" cy="439.475" r="21.379" transform="rotate(180 579.432 439.475)" fill="#009688"/><circle cx="320.597" cy="206.52" r="11.213" transform="rotate(180 320.597 206.52)" fill="#009688"/><circle r="12.77" transform="matrix(-1 0 0 1 194.38 337.205)" fill="#009688"/><circle r="5.959" transform="matrix(-1 0 0 1 729.453 270.344)" fill="#009688"/><circle r="7.662" transform="matrix(-1 0 0 1 726.014 494.42)" fill="#E1E4E5"/><circle r="11.067" transform="matrix(-1 0 0 1 138.715 439.494)" fill="#E1E4E5"/><circle r="8.423" transform="matrix(-1 0 0 1 765.032 418.668)" fill="#E1E4E5"/><circle r="9.365" transform="matrix(-1 0 0 1 675.645 158.278)" fill="#E1E4E5"/><circle r="8.409" transform="scale(1 -1) rotate(-75 -90.346 -239.187)" fill="#E1E4E5"/><circle r="11.187" transform="matrix(-1 0 0 1 381.39 99.96)" fill="#E1E4E5"/><ellipse rx="8.605" ry="6.884" transform="matrix(-1 0 0 1 734.374 372.011)" fill="#E1E4E5"/><circle r="17.501" transform="scale(1 -1) rotate(-75 230.296 -415.53)" fill="#E1E4E5"/><path d="M202.381 206.584h.123c.726 10.285 8.375 10.444 8.375 10.444s-8.435.164-8.435 12.049c0-11.885-8.435-12.049-8.435-12.049s7.646-.159 8.372-10.444zm-12.815 269.234h.118c.697 10.255 8.041 10.413 8.041 10.413s-8.098.164-8.098 12.014c0-11.85-8.099-12.014-8.099-12.014s7.341-.158 8.038-10.413z" fill="#E1E4E5"/><path fill-rule="evenodd" clip-rule="evenodd" d="M479.442 155.102h90.394c23.953 0 43.351 19.398 43.351 43.331v90.393a43.399 43.399 0 0 1-12.698 30.654L427.123 492.845c-16.924 16.925-44.361 16.925-61.286 0l-90.393-90.393c-16.924-16.924-16.924-44.362 0-61.286L448.81 167.8a43.347 43.347 0 0 1 30.632-12.698z" fill="#009688" stroke="#009688" stroke-width="26" stroke-linecap="round" stroke-linejoin="round"/><path d="M526.757 241.53a7.648 7.648 0 0 1 0 10.816 7.646 7.646 0 0 1-10.815 0 7.648 7.648 0 1 1 10.815-10.816" stroke="#fff" stroke-width="26" stroke-linecap="round" stroke-linejoin="round"/><defs><linearGradient id="a" x1="468.575" y1="786.761" x2="479.786" y2="-307.273" gradientUnits="userSpaceOnUse"><stop stop-color="#fff"/><stop offset="1" stop-color="#EEE"/></linearGradient><linearGradient id="b" x1="627.057" y1="386.327" x2="509.028" y2="-144.042" gradientUnits="userSpaceOnUse"><stop stop-color="#fff"/><stop offset="1" stop-color="#EEE"/></linearGradient><linearGradient id="c" x1="709.982" y1="321.174" x2="915.74" y2="158.418" gradientUnits="userSpaceOnUse"><stop stop-color="#fff"/><stop offset="1" stop-color="#EEE"/></linearGradient><linearGradient id="d" x1="198.586" y1="422.634" x2="-15.422" y2="223.792" gradientUnits="userSpaceOnUse"><stop stop-color="#fff"/><stop offset="1" stop-color="#EEE"/></linearGradient></defs></svg>