<svg width="900" height="600" viewBox="0 0 900 600" fill="none" xmlns="http://www.w3.org/2000/svg"><path fill="transparent" d="M0 0h900v600H0z"/><path d="M254.755 395.936c11.76-20.988 37.515-23.872 78.776-19.883 31.032 3.005 59.33 5.33 90.365 22.25 21.721 11.835 38.915 27.847 51.465 43.398 13.599 16.847 32.581 36.074 23.276 55.176-12.788 26.24-86.738 48.34-158.547 12.2-78.881-39.712-96.839-92.629-85.335-113.141z" fill="url(#a)"/><path d="M104.414 214.659c18.123-8.99 42.176 2.569 42.176 2.569s-5.346 26.129-23.478 35.106c-18.122 8.99-42.165-2.557-42.165-2.557s5.345-26.129 23.467-35.118z" fill="url(#b)"/><path d="M804.135 453.006c-17.192-10.304-41.858-.779-41.858-.779s3.225 26.228 20.428 36.521c17.193 10.304 41.848.79 41.848.79s-3.225-26.228-20.418-36.532z" fill="url(#c)"/><circle cx="185.725" cy="486.336" r="16.215" fill="#009688"/><circle cx="760.391" cy="308.643" r="13.348" fill="#009688"/><circle r="15.201" transform="matrix(1 0 0 -1 720.595 141.366)" fill="#009688"/><circle r="7.094" transform="matrix(1 0 0 -1 216.885 329.558)" fill="#009688"/><circle r="13.174" transform="matrix(1 0 0 -1 782.411 229.115)" fill="#E1E4E5"/><circle r="11.148" transform="matrix(1 0 0 -1 151.375 409.817)" fill="#E1E4E5"/><circle r="10.01" transform="scale(-1 1) rotate(-75 -111.393 693.273)" fill="#E1E4E5"/><circle r="13.317" transform="matrix(1 0 0 -1 617.035 460.767)" fill="#E1E4E5"/><ellipse rx="10.244" ry="8.195" transform="matrix(1 0 0 -1 111.246 139.703)" fill="#E1E4E5"/><path d="M226.742 125.722h-.268c-1.587-22.484-18.309-22.83-18.309-22.83s18.439-.36 18.439-26.34c0 25.98 18.439 26.34 18.439 26.34s-16.714.346-18.301 22.83zm538.15-10.761h-.14c-.829-12.208-9.572-12.396-9.572-12.396s9.641-.195 9.641-14.3c0 14.105 9.64 14.3 9.64 14.3s-8.739.188-9.569 12.396z" fill="#E1E4E5"/><path d="M434.786 75.323h251.718c28.326 0 51.395 31.743 51.395 70.719v46.208c0 20.09-11.973 36.564-26.574 36.564H496.694c-14.601 0-26.574-16.474-26.574-36.564v-50.226c0-18.885-4.964-37.77-14.308-51.834-5.549-8.438-12.557-14.867-21.026-14.867z" fill="url(#d)"/><path fill-rule="evenodd" clip-rule="evenodd" d="M335.604 75.323h348.12c-11.711 0-21.404 6.43-29.077 14.867-12.923 14.064-19.789 32.949-19.789 51.834v50.226c0 1.103-.05 2.196-.147 3.276v274.488H264.526V146.042c0-38.976 31.905-70.719 71.078-70.719z" fill="#009688"/><path fill-rule="evenodd" clip-rule="evenodd" d="M335.604 75.323h348.12c-11.711 0-21.404 6.43-29.077 14.867-12.923 14.064-19.789 32.949-19.789 51.834v50.226c0 1.103-.05 2.196-.147 3.276v274.488H264.526V146.042c0-38.976 31.905-70.719 71.078-70.719z" fill="#E1E4E5"/><path fill-rule="evenodd" clip-rule="evenodd" d="M242.135 324.429v164.08c0 25.435 20.56 46.036 45.945 46.036h321.592c25.385 0 45.945-20.601 45.945-46.036V322.931l-140.616 94.953c-40.659 27.456-93.81 27.456-134.469 0l-138.397-93.455z" fill="#E1E4E5"/><path d="m242.135 324.429 7.806-11.56a13.948 13.948 0 0 0-21.756 11.56h13.95zm413.482-1.498h13.949a13.949 13.949 0 0 0-21.755-11.56l7.806 11.56zm-140.616 94.953-7.806-11.561 7.806 11.561zm-134.469 0 7.806-11.561-7.806 11.561zm-152.347-93.455v164.08h27.899v-164.08h-27.899zm0 164.08c0 33.113 26.78 59.986 59.895 59.986v-27.899c-17.655 0-31.996-14.33-31.996-32.087h-27.899zm59.895 59.986h321.592v-27.899H288.08v27.899zm321.592 0c33.115 0 59.894-26.873 59.894-59.986h-27.898c0 17.757-14.341 32.087-31.996 32.087v27.899zm59.894-59.986V322.931h-27.898v165.578h27.898zm-21.755-177.138-140.616 94.952 15.613 23.121 140.616-94.953-15.613-23.12zm-140.616 94.952a106.107 106.107 0 0 1-118.857 0l-15.613 23.121c45.376 30.642 104.707 30.642 150.083 0l-15.613-23.121zm-118.857 0-138.397-93.454-15.613 23.121 138.397 93.454 15.613-23.121z" fill="#fff"/><path d="M344.041 320.776h221.383m-220.212-65.01h220.212m-220.212-53.881h220.212" stroke="#fff" stroke-width="20" stroke-linecap="round" stroke-linejoin="round"/><rect x="668.502" y="513.845" width="50.239" height="5.853" rx="2.927" transform="rotate(-45 668.502 513.845)" fill="#E1E4E5"/><rect x="687.764" y="513.983" width="18.654" height="5.853" rx="2.927" transform="rotate(-45 687.764 513.983)" fill="#E1E4E5"/><rect x="234.943" y="175.707" width="50.239" height="5.853" rx="2.927" transform="rotate(135 234.943 175.707)" fill="#E1E4E5"/><rect x="215.681" y="175.569" width="18.654" height="5.853" rx="2.927" transform="rotate(135 215.681 175.569)" fill="#E1E4E5"/><path d="M170.124 260.222c22.333-32.219 66.556-40.232 98.775-17.899 32.219 22.334 40.232 66.557 17.899 98.775-22.334 32.219-66.557 40.233-98.775 17.899-32.219-22.333-40.233-66.556-17.899-98.775z" fill="#009688"/><path d="M186.806 341.495c1.009 1.843-.282 4.102-2.382 4.168l-33.026 1.03c-2.258.07-3.676-2.414-2.467-4.322l18.016-28.439c1.148-1.812 3.819-1.727 4.849.154l15.01 27.409z" fill="#009688"/><path d="M250.348 303.561c.092 5.26 4.43 9.431 9.69 9.339 5.26-.092 9.431-4.429 9.338-9.689-.092-5.26-4.429-9.431-9.689-9.339-5.26.111-9.431 4.429-9.339 9.689zm-33.054 1.402c.535 5.223 5.223 9.025 10.446 8.49 5.223-.535 9.025-5.223 8.49-10.446-.536-5.223-5.224-9.025-10.447-8.49-5.223.554-9.025 5.223-8.489 10.446zm-31.081.573c.536 5.223 5.223 9.025 10.446 8.489 5.223-.535 9.025-5.223 8.49-10.446-.535-5.223-5.223-9.025-10.446-8.49-5.223.536-9.025 5.205-8.49 10.447z" fill="#fff"/><rect x="565.424" y="259.281" width="161.645" height="161.645" rx="78.573" fill="#009688"/><path fill-rule="evenodd" clip-rule="evenodd" d="M682.98 374.008v5.404c0 2.983-2.39 5.404-5.334 5.404h-63.999c-2.943 0-5.333-2.421-5.333-5.404v-5.491c0-16.353 18.443-26.978 37.333-26.978 18.89 0 37.333 10.63 37.333 26.978m-23.947-74.456c7.395 7.395 7.395 19.386 0 26.781-7.396 7.395-19.386 7.395-26.781 0-7.396-7.395-7.396-19.386 0-26.781 7.395-7.395 19.385-7.395 26.781 0z" fill="#fff"/><defs><linearGradient id="a" x1="333.977" y1="259.916" x2="438.795" y2="730.923" gradientUnits="userSpaceOnUse"><stop stop-color="#fff"/><stop offset="1" stop-color="#EEE"/></linearGradient><linearGradient id="b" x1="174.006" y1="186.618" x2="24.533" y2="304.851" gradientUnits="userSpaceOnUse"><stop stop-color="#fff"/><stop offset="1" stop-color="#EEE"/></linearGradient><linearGradient id="c" x1="737.605" y1="419.838" x2="875.942" y2="548.371" gradientUnits="userSpaceOnUse"><stop stop-color="#fff"/><stop offset="1" stop-color="#EEE"/></linearGradient><linearGradient id="d" x1="579.88" y1="-10.732" x2="582.277" y2="395.827" gradientUnits="userSpaceOnUse"><stop stop-color="#fff"/><stop offset="1" stop-color="#EEE"/></linearGradient></defs></svg>