<svg width="900" height="600" viewBox="0 0 900 600" fill="none" xmlns="http://www.w3.org/2000/svg"><path fill="transparent" d="M0 0h900v600H0z"/><path d="M606.693 205.487c-9.464 16.891-30.193 19.212-63.402 16.002-24.975-2.418-47.75-4.29-72.727-17.908-17.482-9.524-31.321-22.411-41.421-34.927-10.945-13.559-26.222-29.034-18.733-44.408 10.292-21.118 69.809-38.905 127.603-9.818 63.486 31.961 77.939 74.55 68.68 91.059z" fill="url(#a)"/><path d="M667.105 166.164c-12.989 10.293-34.232 5.131-34.232 5.131s-.171-21.848 12.827-32.132c12.989-10.293 34.223-5.139 34.223-5.139s.171 21.848-12.818 32.14z" fill="url(#b)"/><path d="M213.061 209.673c13.837 8.293 33.688.626 33.688.626s-2.595-21.109-16.441-29.392c-13.837-8.293-33.68-.637-33.68-.637s2.596 21.11 16.433 29.403z" fill="url(#c)"/><circle cx="667.398" cy="360.65" r="13.05" transform="rotate(180 667.398 360.65)" fill="#009688"/><circle cx="199.743" cy="275.743" r="10.743" transform="rotate(180 199.743 275.743)" fill="#009688"/><circle r="6.5" transform="matrix(-1 0 0 1 265.5 428.5)" fill="#009688"/><circle r="5.709" transform="matrix(-1 0 0 1 637.172 258.91)" fill="#009688"/><circle r="7.341" transform="matrix(-1 0 0 1 254.34 145.341)" fill="#E1E4E5"/><circle r="5.5" transform="matrix(-1 0 0 1 132.5 416.5)" fill="#E1E4E5"/><circle r="8.07" transform="matrix(-1 0 0 1 546.58 484.457)" fill="#E1E4E5"/><circle r="8.972" transform="matrix(-1 0 0 1 722.972 172.972)" fill="#E1E4E5"/><circle r="8.057" transform="scale(1 -1) rotate(-75 -92.76 -197.344)" fill="#E1E4E5"/><circle r="3.5" transform="matrix(-1 0 0 1 307.5 109.5)" fill="#E1E4E5"/><ellipse rx="8.245" ry="6.596" transform="matrix(-1 0 0 1 694.245 422.596)" fill="#E1E4E5"/><circle r="11.573" transform="matrix(0 1 1 0 300.573 470.573)" fill="#E1E4E5"/><path d="M623.729 464h.216c1.277 18.096 14.735 18.375 14.735 18.375s-14.84.289-14.84 21.199c0-20.91-14.84-21.199-14.84-21.199s13.452-.279 14.729-18.375zm-416.028-35h.113c.667 9.825 7.703 9.976 7.703 9.976s-7.758.157-7.758 11.51c0-11.353-7.759-11.51-7.759-11.51s7.033-.151 7.701-9.976z" fill="#E1E4E5"/><path d="M641.581 352.103c2.717 50.063-95.16 151.86-215.8 114.182-56.109-17.526-51.356-46.614-94.021-84.95-25.43-22.849-61.97-40.127-72.132-73.339-8.779-28.667-3.396-59.48 11.825-79.522 34.23-45.073 103.335-75.938 171.425-4.921 68.089 71.016 191.682-.566 198.703 128.55z" fill="url(#d)"/><path d="M618.397 215.811c-10.227 18.252-32.624 20.759-68.506 17.291-26.986-2.613-51.595-4.636-78.583-19.35-18.89-10.291-33.843-24.216-44.756-37.739-11.826-14.651-28.333-31.371-20.241-47.983 11.12-22.819 75.429-42.037 137.876-10.609 68.597 34.535 84.214 80.552 74.21 98.39z" fill="url(#e)"/><path d="M559.79 77.424a25.953 25.953 0 0 0-1.656-.533c-.185-.053-.367-.11-.553-.157a40.169 40.169 0 0 0-1.192-.286 18.618 18.618 0 0 0-.576-.115 32.564 32.564 0 0 0-1.203-.202 28.146 28.146 0 0 0-2.038-.207c-.143-.009-.286-.023-.429-.028a26.42 26.42 0 0 0-1.263-.031H356.787a25.452 25.452 0 0 0-3.984.303c-.433.067-.865.143-1.289.23-11.076 2.268-19.601 11.553-20.763 23.017-.09.883-.135 1.778-.135 2.683v397.654c0 11.355 7.195 21.022 17.267 24.675.045.017.09.031.135.045.499.176 1.007.339 1.518.485.185.053.368.109.556.157a42.104 42.104 0 0 0 1.192.286c.191.042.382.078.576.115.216.042.432.081.648.115a25.235 25.235 0 0 0 1.26.176c.171.02.342.039.516.056.27.025.542.045.814.062.143.008.286.022.429.028.419.02.84.031 1.263.031h194.096c.903 0 1.796-.045 2.677-.135 12.317-1.253 22.11-11.071 23.362-23.419.09-.883.135-1.777.135-2.683V102.098c-.006-11.354-7.201-21.021-17.27-24.674z" fill="#009688"/><path d="M453.835 504.613c8.333 0 15.088-6.755 15.088-15.088 0-8.333-6.755-15.088-15.088-15.088-8.333 0-15.088 6.755-15.088 15.088 0 8.333 6.755 15.088 15.088 15.088z" fill="#fff"/><rect x="428.688" y="95.979" width="51.551" height="5.029" rx="2.515" fill="#fff"/><circle r="7.976" transform="scale(1 -1) rotate(-75 238.906 -445.204)" fill="#E1E4E5"/><path fill-rule="evenodd" clip-rule="evenodd" d="m742.98 237.251-31.41-31.271a22.27 22.27 0 0 0-15.705-6.48h-79.659c-12.273 0-22.214 9.897-22.214 22.115V376.42c0 12.219 9.941 22.115 22.214 22.115h111.069c12.273 0 22.214-9.896 22.214-22.115V252.886a22.07 22.07 0 0 0-6.509-15.635z" fill="#fff" stroke="#E1E4E5" stroke-width="4.64"/><path d="M718.211 272.468h-48.658m48.658 29.501h-48.658m48.658 29.501h-48.658m-32.011-60.229a1.28 1.28 0 1 0 0 2.562 1.28 1.28 0 0 0 0-2.562m0 29.448a1.28 1.28 0 1 0 0 2.562 1.28 1.28 0 0 0 0-2.562m0 29.45a1.282 1.282 0 0 0 0 2.561 1.28 1.28 0 0 0 0-2.561" stroke="#009688" stroke-width="17.194" stroke-linecap="round" stroke-linejoin="round"/><path fill-rule="evenodd" clip-rule="evenodd" d="m525.484 237.251-31.41-31.271a22.273 22.273 0 0 0-15.706-6.48H398.71c-12.273 0-22.214 9.897-22.214 22.115V376.42c0 12.219 9.941 22.115 22.214 22.115h111.069c12.273 0 22.213-9.896 22.213-22.115V252.886a22.07 22.07 0 0 0-6.508-15.635z" fill="#fff"/><path fill-rule="evenodd" clip-rule="evenodd" d="m484.88 315.756-40.5 22.919c-9.971 5.636-22.307-1.609-22.307-13.114v-45.829c0-11.515 12.316-18.75 22.307-13.114l40.5 22.92c10.172 5.737 10.172 20.46 0 26.218z" fill="#009688"/><path fill-rule="evenodd" clip-rule="evenodd" d="m307.988 237.25-31.411-31.27a22.269 22.269 0 0 0-15.705-6.48h-79.658c-12.273 0-22.214 9.897-22.214 22.115V376.42c0 12.219 9.941 22.115 22.214 22.115h111.068c12.274 0 22.214-9.896 22.214-22.115V252.886a22.074 22.074 0 0 0-6.508-15.636z" fill="#fff" stroke="#E1E4E5" stroke-width="4.64"/><rect x="176.623" y="246.149" width="116.103" height="116.103" rx="38.959" fill="#009688" stroke="#fff" stroke-width="19.48" stroke-linecap="round" stroke-linejoin="round"/><path d="M215.994 280.989a3.228 3.228 0 1 1-4.54 0 3.24 3.24 0 0 1 4.563 0m76.709 11.023a61.625 61.625 0 0 0-70.95 61.372 60.56 60.56 0 0 0 .708 8.87" stroke="#fff" stroke-width="19.48" stroke-linecap="round" stroke-linejoin="round"/><rect x="207" y="132" width="99.96" height="75.579" rx="20" fill="#009688"/><rect x="256.573" y="188.888" width="21.13" height="21.13" rx="7" transform="rotate(45 256.573 188.888)" fill="#009688"/><path fill-rule="evenodd" clip-rule="evenodd" d="M267.159 148.254c8.744 0 14.608 8.173 14.608 15.784 0 15.451-24.344 28.1-24.787 28.1-.444 0-24.787-12.649-24.787-28.1 0-7.611 5.864-15.784 14.608-15.784 4.998 0 8.281 2.482 10.179 4.693 1.897-2.211 5.18-4.693 10.179-4.693z" fill="#fff"/><defs><linearGradient id="a" x1="542.933" y1="314.96" x2="458.573" y2="-64.121" gradientUnits="userSpaceOnUse"><stop stop-color="#fff"/><stop offset="1" stop-color="#EEE"/></linearGradient><linearGradient id="b" x1="616.122" y1="200.496" x2="715.738" y2="80.277" gradientUnits="userSpaceOnUse"><stop stop-color="#fff"/><stop offset="1" stop-color="#EEE"/></linearGradient><linearGradient id="c" x1="266.606" y1="236.368" x2="155.268" y2="132.92" gradientUnits="userSpaceOnUse"><stop stop-color="#fff"/><stop offset="1" stop-color="#EEE"/></linearGradient><linearGradient id="d" x1="524.597" y1="652.189" x2="341.513" y2="-173.826" gradientUnits="userSpaceOnUse"><stop stop-color="#fff"/><stop offset="1" stop-color="#EEE"/></linearGradient><linearGradient id="e" x1="549.503" y1="334.097" x2="458.351" y2="-75.502" gradientUnits="userSpaceOnUse"><stop stop-color="#fff"/><stop offset="1" stop-color="#EEE"/></linearGradient></defs></svg>