<svg width="900" height="600" viewBox="0 0 900 600" fill="none" xmlns="http://www.w3.org/2000/svg"><path fill="transparent" d="M0 0h900v600H0z"/><path d="M699.656 187.131c-7.181 12.815-22.908 14.576-48.104 12.141-18.948-1.835-36.228-3.255-55.179-13.587-13.264-7.227-23.763-17.004-31.426-26.5-8.304-10.288-19.895-22.028-14.213-33.692 7.809-16.023 52.965-29.518 96.813-7.45 48.168 24.25 59.134 56.562 52.109 69.088z" fill="url(#a)"/><path d="M773.496 255.564c-16.08 7.977-37.422-2.279-37.422-2.279s4.743-23.184 20.832-31.15c16.079-7.976 37.413 2.269 37.413 2.269s-4.743 23.184-20.823 31.16z" fill="url(#b)"/><path d="M128.401 356.287c17.839 10.692 43.433.808 43.433.808s-3.347-27.214-21.197-37.894c-17.839-10.691-43.422-.82-43.422-.82s3.347 27.214 21.186 37.906z" fill="url(#c)"/><circle cx="691.507" cy="228.837" r="14.617" transform="rotate(180 691.507 228.837)" fill="#009688"/><circle cx="594.228" cy="431.867" r="22.942" transform="rotate(180 594.228 431.867)" fill="#009688"/><circle cx="320.848" cy="179.036" r="12.033" transform="rotate(180 320.848 179.036)" fill="#009688"/><circle r="13.703" transform="matrix(-1 0 0 1 214.135 394.255)" fill="#009688"/><circle r="6.395" transform="matrix(-1 0 0 1 734.794 306.463)" fill="#009688"/><circle r="8.222" transform="matrix(-1 0 0 1 769.888 491.792)" fill="#E1E4E5"/><circle r="11.876" transform="matrix(-1 0 0 1 167.237 422.475)" fill="#E1E4E5"/><circle r="9.039" transform="matrix(-1 0 0 1 768.558 415.345)" fill="#E1E4E5"/><circle r="10.049" transform="matrix(-1 0 0 1 697.475 130.112)" fill="#E1E4E5"/><circle r="9.024" transform="scale(1 -1) rotate(-75 -94.936 -239.576)" fill="#E1E4E5"/><circle r="3.756" transform="matrix(-1 0 0 1 349.056 90.276)" fill="#E1E4E5"/><ellipse rx="9.235" ry="7.388" transform="matrix(-1 0 0 1 711.879 370.769)" fill="#E1E4E5"/><circle r="6.533" transform="scale(1 -1) rotate(-75 193.559 -378.331)" fill="#E1E4E5"/><path d="M237.316 151.98h.132c.779 11.037 8.987 11.207 8.987 11.207s-9.051.177-9.051 12.93c0-12.753-9.052-12.93-9.052-12.93s8.205-.17 8.984-11.207zm-5.724 324.078h.127c.747 11.004 8.628 11.174 8.628 11.174s-8.69.176-8.69 12.891c0-12.715-8.69-12.891-8.69-12.891s7.877-.17 8.625-11.174z" fill="#E1E4E5"/><path d="M634.72 264.134v-23.521c0-25.991-21.051-47.043-47.042-47.043H482.655a23.522 23.522 0 0 1-19.57-10.467l-33.071-49.607a23.515 23.515 0 0 0-19.569-10.49H305.422c-25.991 0-47.043 21.052-47.043 47.043v302.319c0 14.913 12.067 26.979 26.979 26.979v0c11.902 0 22.416-7.809 25.827-19.217l54.734-182.455c5.974-19.922 24.297-33.541 45.066-33.541h231.474c31.401 0 53.981 30.154 45.137 60.285l-41.421 141.128c-5.88 20.04-24.25 33.8-45.137 33.8h-315.68" stroke="#E1E4E5" stroke-width="4" stroke-linecap="round" stroke-linejoin="round"/><path fill-rule="evenodd" clip-rule="evenodd" d="M315.445 220.841 290.292 195.8a17.834 17.834 0 0 0-12.576-5.188h-63.789c-9.828 0-17.788 7.924-17.788 17.709v123.964c0 9.784 7.96 17.709 17.788 17.709h88.941c9.828 0 17.789-7.925 17.789-17.709v-98.924c0-4.692-1.877-9.199-5.212-12.52z" fill="#fff" stroke="#E1E4E5" stroke-width="4"/><rect x="210.251" y="227.967" width="92.973" height="92.973" rx="24.309" fill="#009688" stroke="#fff" stroke-width="12.155" stroke-linecap="round" stroke-linejoin="round"/><path d="M241.778 255.866a2.584 2.584 0 1 1-3.635 0 2.593 2.593 0 0 1 3.654 0m61.427 8.827a49.347 49.347 0 0 0-56.816 49.145c.015 2.378.205 4.752.568 7.103" stroke="#fff" stroke-width="12.155" stroke-linecap="round" stroke-linejoin="round"/><path fill-rule="evenodd" clip-rule="evenodd" d="m479.899 105.529-23.852-23.746a16.91 16.91 0 0 0-11.926-4.92h-60.49c-9.32 0-16.868 7.515-16.868 16.793V211.21c0 9.279 7.548 16.794 16.868 16.794h84.342c9.32 0 16.869-7.515 16.869-16.794v-93.808c0-4.45-1.78-8.724-4.943-11.873z" fill="#fff" stroke="#E1E4E5" stroke-width="4"/><path fill-rule="evenodd" clip-rule="evenodd" d="m449.066 165.143-30.754 17.404c-7.572 4.28-16.94-1.221-16.94-9.958v-34.801c0-8.744 9.352-14.238 16.94-9.958l30.754 17.404c7.725 4.357 7.725 15.537 0 19.909z" fill="#009688"/><path fill-rule="evenodd" clip-rule="evenodd" d="m644.405 120.605-22.11-22.012a15.677 15.677 0 0 0-11.055-4.56h-56.071c-8.639 0-15.636 6.965-15.636 15.566v108.967c0 8.601 6.997 15.567 15.636 15.567h78.181c8.639 0 15.636-6.966 15.636-15.567V131.61c0-4.125-1.649-8.087-4.581-11.005z" fill="#fff" stroke="#E1E4E5" stroke-width="4"/><path d="M626.97 145.394h-34.25m34.25 20.766h-34.25m34.25 20.765h-34.25m-22.533-42.394a.901.901 0 1 0 0 1.803.901.901 0 0 0 0-1.803m0 20.728a.9.9 0 1 0-.001 1.801.9.9 0 0 0 .001-1.801m0 20.73a.901.901 0 1 0 0 1.802.901.901 0 0 0 0-1.802" stroke="#009688" stroke-width="9.43" stroke-linecap="round" stroke-linejoin="round"/><path fill-rule="evenodd" clip-rule="evenodd" d="M487.157 367.439C449.84 372.386 421 403.126 421 440.714 421 481.735 455.257 515 497.5 515h168.3c33.798 0 61.2-26.609 61.2-59.429 0-32.819-27.402-59.428-61.2-59.428C665.8 346.906 624.704 307 574 307c-40.346 0-74.526 25.302-86.843 60.439z" fill="#009688"/><path d="m534 420 36.5-37 36.5 37m-36.5 45v-78" stroke="#fff" stroke-width="16" stroke-linecap="round" stroke-linejoin="round"/><defs><linearGradient id="a" x1="651.281" y1="270.189" x2="587.275" y2="-17.423" gradientUnits="userSpaceOnUse"><stop stop-color="#fff"/><stop offset="1" stop-color="#EEE"/></linearGradient><linearGradient id="b" x1="711.748" y1="280.445" x2="844.375" y2="175.537" gradientUnits="userSpaceOnUse"><stop stop-color="#fff"/><stop offset="1" stop-color="#EEE"/></linearGradient><linearGradient id="c" x1="197.434" y1="390.703" x2="53.894" y2="257.336" gradientUnits="userSpaceOnUse"><stop stop-color="#fff"/><stop offset="1" stop-color="#EEE"/></linearGradient></defs></svg>