<svg width="900" height="600" viewBox="0 0 900 600" fill="none" xmlns="http://www.w3.org/2000/svg"><path fill="transparent" d="M0 0h900v600H0z"/><path d="M725.951 307.671c-21.02 10.427-48.919-2.98-48.919-2.98s6.201-30.307 27.232-40.719c21.02-10.427 48.907 2.965 48.907 2.965s-6.2 30.307-27.22 40.734z" fill="url(#a)"/><path d="M174.929 397.67c22.41 13.432 54.563 1.015 54.563 1.015s-4.204-34.188-26.629-47.605c-22.41-13.431-54.549-1.03-54.549-1.03s4.204 34.189 26.615 47.62z" fill="url(#b)"/><circle cx="678.477" cy="246.477" r="11.477" transform="rotate(180 678.477 246.477)" fill="#009688"/><circle cx="351.016" cy="258.009" r="9.448" transform="rotate(180 351.016 258.009)" fill="#009688"/><circle r="7.5" transform="matrix(-1 0 0 1 325.5 459.5)" fill="#009688"/><circle r="5.021" transform="matrix(-1 0 0 1 654.021 272.021)" fill="#009688"/><circle r="6.456" transform="matrix(-1 0 0 1 676.065 472.132)" fill="#E1E4E5"/><circle r="9.325" transform="matrix(-1 0 0 1 251.325 432.325)" fill="#E1E4E5"/><circle r="7.097" transform="matrix(-1 0 0 1 711.097 417.097)" fill="#E1E4E5"/><circle r="7.891" transform="matrix(-1 0 0 1 633.624 188.896)" fill="#E1E4E5"/><circle r="7.086" transform="scale(1 -1) rotate(-75 -88.448 -258.026)" fill="#E1E4E5"/><circle r="9.426" transform="matrix(-1 0 0 1 385.684 139.757)" fill="#E1E4E5"/><ellipse rx="7.251" ry="5.801" transform="matrix(-1 0 0 1 690.251 360.801)" fill="#E1E4E5"/><circle r="14.747" transform="scale(1 -1) rotate(-75 190.026 -419.807)" fill="#E1E4E5"/><path d="M234.85 229.599h.103c.612 8.666 7.057 8.8 7.057 8.8s-7.107.139-7.107 10.153c0-10.014-7.107-10.153-7.107-10.153s6.442-.134 7.054-8.8zM273.773 475h.099c.587 8.641 6.775 8.774 6.775 8.774s-6.823.138-6.823 10.122c0-9.984-6.824-10.122-6.824-10.122s6.186-.133 6.773-8.774z" fill="#E1E4E5"/><path d="M431.306 91h212.34C667.54 91 687 117.777 687 150.655v38.98c0 16.947-10.099 30.844-22.416 30.844H483.529c-12.317 0-22.417-13.897-22.417-30.844v-42.369c0-15.931-4.187-31.861-12.07-43.725-4.68-7.118-10.592-12.54-17.736-12.54z" fill="url(#c)"/><path fill-rule="evenodd" clip-rule="evenodd" d="M347.64 91h293.661c-9.88 0-18.056 5.423-24.529 12.541-10.901 11.863-16.693 27.794-16.693 43.725v42.369c0 .932-.042 1.855-.125 2.767v231.545H287.681V150.655c0-32.878 26.913-59.655 59.959-59.655z" fill="#E1E4E5"/><path d="M354.756 298.055h186.751m-185.762-54.84h185.762m-185.762-45.452h185.762" stroke="#fff" stroke-width="16.871" stroke-linecap="round" stroke-linejoin="round"/><path d="M430.625 508.747h212.34c23.894 0 43.355-26.777 43.355-59.655v-38.98c0-16.947-10.1-30.844-22.417-30.844H482.848c-12.317 0-22.416 13.897-22.416 30.844v42.369c0 15.931-4.188 31.861-12.071 43.725-4.68 7.118-10.592 12.541-17.736 12.541z" fill="url(#d)"/><path fill-rule="evenodd" clip-rule="evenodd" d="M346.959 508.747H640.62c-9.879 0-18.056-5.423-24.528-12.541-10.902-11.864-16.693-27.794-16.693-43.725v-42.369c0-.932-.043-1.855-.125-2.767V175.8H287v273.291c0 32.879 26.914 59.656 59.959 59.656z" fill="#E1E4E5"/><path d="M354.076 340.092h186.75m-186.75-154.905h186.75M355.064 395h185.762M355.064 240.095h185.762M355.064 439.8h185.762M355.064 284.895h185.762" stroke="#fff" stroke-width="16.871" stroke-linecap="round" stroke-linejoin="round"/><path fill-rule="evenodd" clip-rule="evenodd" d="m292.133 168.4 12.629-6.176c5.827-2.848 12.873-.566 15.913 5.174l6.593 12.42a12.052 12.052 0 0 0 8.553 6.21l13.849 2.43c6.393 1.124 10.739 7.108 9.833 13.536l-1.968 13.918a12.027 12.027 0 0 0 3.266 10.051l9.773 10.103c4.511 4.66 4.511 12.064 0 16.732l-9.773 10.103a12.03 12.03 0 0 0-3.266 10.052l1.968 13.918c.906 6.428-3.44 12.412-9.833 13.535l-13.849 2.43a12.055 12.055 0 0 0-8.553 6.21l-6.593 12.42c-3.04 5.732-10.077 8.022-15.913 5.174l-12.629-6.175a12.03 12.03 0 0 0-10.565 0l-12.63 6.175c-5.827 2.848-12.873.566-15.913-5.174l-6.593-12.428a12.056 12.056 0 0 0-8.553-6.211l-13.849-2.43c-6.393-1.123-10.739-7.107-9.833-13.535l1.968-13.918a12.026 12.026 0 0 0-3.266-10.051l-9.772-10.104c-4.512-4.659-4.512-12.063 0-16.731l9.772-10.104a12.026 12.026 0 0 0 3.266-10.051l-1.959-13.918c-.915-6.419 3.44-12.412 9.833-13.527l13.849-2.43a12.054 12.054 0 0 0 8.544-6.21l6.593-12.42c3.04-5.731 10.078-8.022 15.913-5.174l12.63 6.176a12.038 12.038 0 0 0 10.565 0z" fill="#009688" stroke="#009688" stroke-width="7.464" stroke-linecap="round" stroke-linejoin="round"/><circle cx="287.033" cy="244.844" r="52.833" fill="#fff"/><path fill-rule="evenodd" clip-rule="evenodd" d="m286.323 263.455 13.591 7.139c2.647 1.392 5.741-.854 5.234-3.804l-2.594-15.134 10.997-10.709c2.14-2.088.96-5.726-1.997-6.157l-15.194-2.208-6.792-13.773c-1.324-2.685-5.143-2.685-6.467 0l-6.792 13.773-15.202 2.216c-2.957.431-4.137 4.069-1.996 6.156l10.997 10.71-2.595 15.134c-.506 2.949 2.587 5.196 5.234 3.804l13.591-7.14h-.015v-.007z" fill="#009688"/><rect x="522" y="289" width="143" height="143" rx="71.5" fill="#009688"/><path d="m617 348-31.25 31L567 360.4" stroke="#fff" stroke-width="10.287" stroke-linecap="round" stroke-linejoin="round"/><defs><linearGradient id="a" x1="645.232" y1="340.196" x2="818.605" y2="203.058" gradientUnits="userSpaceOnUse"><stop stop-color="#fff"/><stop offset="1" stop-color="#EEE"/></linearGradient><linearGradient id="b" x1="261.652" y1="440.906" x2="81.327" y2="273.361" gradientUnits="userSpaceOnUse"><stop stop-color="#fff"/><stop offset="1" stop-color="#EEE"/></linearGradient><linearGradient id="c" x1="553.701" y1="18.407" x2="555.723" y2="361.365" gradientUnits="userSpaceOnUse"><stop stop-color="#fff"/><stop offset="1" stop-color="#EEE"/></linearGradient><linearGradient id="d" x1="553.021" y1="581.34" x2="555.043" y2="238.382" gradientUnits="userSpaceOnUse"><stop stop-color="#fff"/><stop offset="1" stop-color="#EEE"/></linearGradient></defs></svg>