<svg width="900" height="600" viewBox="0 0 900 600" fill="none" xmlns="http://www.w3.org/2000/svg"><path fill="transparent" d="M0 0h900v600H0z"/><rect x="155.432" y="191.884" width="311.622" height="119.506" rx="24.834" fill="#fff" stroke="#E1E4E5" stroke-width="4.967"/><rect x="259.936" y="229.08" width="175.355" height="14.17" rx="7.085" fill="#E1E4E5"/><rect x="259.936" y="259.191" width="113.361" height="14.17" rx="7.085" fill="#E1E4E5"/><path fill-rule="evenodd" clip-rule="evenodd" d="M204.819 281.761c-16.518 0-29.911-13.581-29.911-30.331 0-16.751 13.393-30.332 29.911-30.332s29.91 13.581 29.91 30.332c0 16.75-13.392 30.331-29.91 30.331z" fill="#009688"/><path d="m215.351 246.375-12.636 13.481-7.585-8.087" stroke="#fff" stroke-width="4.431" stroke-linecap="round" stroke-linejoin="round"/><rect x="435.085" y="266.052" width="311.622" height="119.506" rx="24.834" fill="#fff" stroke="#E1E4E5" stroke-width="4.967"/><rect x="539.589" y="303.249" width="175.355" height="14.17" rx="7.085" fill="#E1E4E5"/><rect x="539.589" y="333.36" width="113.361" height="14.17" rx="7.085" fill="#E1E4E5"/><path fill-rule="evenodd" clip-rule="evenodd" d="M484.472 355.93c-16.518 0-29.91-13.581-29.91-30.332 0-16.75 13.392-30.331 29.91-30.331s29.91 13.581 29.91 30.331c0 16.751-13.392 30.332-29.91 30.332z" fill="#009688"/><path d="m495.004 320.544-12.635 13.481-7.586-8.087" stroke="#fff" stroke-width="4.431" stroke-linecap="round" stroke-linejoin="round"/><rect x="256.35" y="410" width="311.622" height="119.506" rx="24.834" fill="#fff" stroke="#E1E4E5" stroke-width="4.967"/><rect x="360.854" y="447.197" width="175.355" height="14.17" rx="7.085" fill="#E1E4E5"/><rect x="360.854" y="477.308" width="113.361" height="14.17" rx="7.085" fill="#E1E4E5"/><path fill-rule="evenodd" clip-rule="evenodd" d="M305.737 499.877c-16.518 0-29.91-13.58-29.91-30.331 0-16.751 13.392-30.331 29.91-30.331s29.91 13.58 29.91 30.331c0 16.751-13.392 30.331-29.91 30.331z" fill="#009688"/><path d="m316.269 464.492-12.635 13.48-7.586-8.087" stroke="#fff" stroke-width="4.431" stroke-linecap="round" stroke-linejoin="round"/><rect x="373.075" y="70" width="97.271" height="97.271" rx="48.635" fill="#009688"/><path fill-rule="evenodd" clip-rule="evenodd" d="M443.815 139.038v3.252c0 1.795-1.438 3.252-3.209 3.252h-38.512c-1.771 0-3.209-1.457-3.209-3.252v-3.304c0-9.841 11.098-16.235 22.465-16.235 11.367 0 22.465 6.397 22.465 16.235m-14.41-44.805c4.45 4.45 4.45 11.666 0 16.116-4.451 4.45-11.666 4.45-16.116 0-4.45-4.45-4.45-11.666 0-16.116 4.45-4.45 11.665-4.45 16.116 0z" fill="#fff"/><rect x="508.038" y="70" width="97.271" height="97.271" rx="48.635" fill="#009688"/><path fill-rule="evenodd" clip-rule="evenodd" d="M578.778 139.038v3.252c0 1.795-1.438 3.252-3.209 3.252h-38.512c-1.772 0-3.209-1.457-3.209-3.252v-3.304c0-9.841 11.097-16.235 22.465-16.235 11.367 0 22.465 6.397 22.465 16.235m-14.411-44.805c4.451 4.45 4.451 11.666 0 16.116-4.45 4.45-11.665 4.45-16.115 0-4.45-4.45-4.45-11.666 0-16.116 4.45-4.45 11.665-4.45 16.115 0z" fill="#fff"/><rect x="643.001" y="70" width="97.271" height="97.271" rx="48.635" fill="#009688"/><path d="m707.621 110.133-21.257 21.086-12.754-12.652" stroke="#fff" stroke-width="10.287" stroke-linecap="round" stroke-linejoin="round"/><path fill-rule="evenodd" clip-rule="evenodd" d="M213.325 395.133h-3.94c-.953 0-1.72.775-1.72 1.72v3.94c0 .953.775 1.72 1.72 1.72h3.94c.945 0 1.72-.775 1.72-1.72v-3.94a1.716 1.716 0 0 0-1.72-1.72zm-13.664 0h-3.941c-.944 0-1.72.775-1.72 1.72v3.94c0 .953.776 1.72 1.72 1.72h3.941c.944 0 1.72-.775 1.72-1.72v-3.94c0-.945-.776-1.72-1.72-1.72zm-13.67 0h-3.94c-.945 0-1.72.775-1.72 1.72v3.94c0 .953.775 1.72 1.72 1.72h3.94c.945 0 1.72-.775 1.72-1.72v-3.94a1.716 1.716 0 0 0-1.72-1.72zm-13.661 0h-3.94c-.945 0-1.72.775-1.72 1.72v3.94c0 .953.775 1.72 1.72 1.72h3.94c.953 0 1.728-.775 1.728-1.72v-3.94a1.738 1.738 0 0 0-1.728-1.72zm-13.662 0h-3.94c-.953 0-1.728.775-1.728 1.72v3.94c0 .953.775 1.72 1.728 1.72h3.94c.945 0 1.72-.775 1.72-1.72v-3.94c0-.945-.775-1.72-1.72-1.72zm40.496 14.897h-3.94c-.945 0-1.72.776-1.72 1.72v3.949c0 .944.775 1.719 1.72 1.719h3.94c.953 0 1.72-.775 1.72-1.719v-3.941a1.718 1.718 0 0 0-1.72-1.728zm-13.665 0h-3.94c-.945 0-1.72.776-1.72 1.72v3.949c0 .944.775 1.719 1.72 1.719h3.94c.945 0 1.72-.775 1.72-1.719v-3.941a1.718 1.718 0 0 0-1.72-1.728zm-13.663 0h-3.94c-.953 0-1.728.776-1.728 1.72v3.949c0 .944.775 1.719 1.728 1.719h3.94c.945 0 1.72-.775 1.72-1.719v-3.941c0-.952-.775-1.728-1.72-1.728zm14.155-30.9h-3.94c-.945 0-1.72.775-1.72 1.719v3.941c0 .953.775 1.72 1.72 1.72h3.94c.945 0 1.72-.776 1.72-1.72v-3.941a1.716 1.716 0 0 0-1.72-1.719zm-13.661 0h-3.94c-.945 0-1.72.775-1.72 1.719v3.941c0 .953.775 1.72 1.72 1.72h3.94c.953 0 1.728-.776 1.728-1.72v-3.941a1.738 1.738 0 0 0-1.728-1.719zm548.018 75.581h-3.94c-.953 0-1.72.775-1.72 1.72v3.94c0 .953.775 1.72 1.72 1.72h3.94c.945 0 1.72-.775 1.72-1.72v-3.94a1.716 1.716 0 0 0-1.72-1.72zm-13.664 0h-3.94c-.945 0-1.72.775-1.72 1.72v3.94c0 .953.775 1.72 1.72 1.72h3.94c.945 0 1.72-.775 1.72-1.72v-3.94c0-.945-.775-1.72-1.72-1.72zm-13.67 0h-3.94c-.945 0-1.72.775-1.72 1.72v3.94c0 .953.775 1.72 1.72 1.72h3.94c.945 0 1.72-.775 1.72-1.72v-3.94a1.716 1.716 0 0 0-1.72-1.72zm-13.661 0h-3.94c-.945 0-1.72.775-1.72 1.72v3.94c0 .953.775 1.72 1.72 1.72h3.94c.953 0 1.728-.775 1.728-1.72v-3.94a1.738 1.738 0 0 0-1.728-1.72zm-13.662 0h-3.94c-.953 0-1.728.775-1.728 1.72v3.94c0 .953.775 1.72 1.728 1.72h3.94c.945 0 1.72-.775 1.72-1.72v-3.94c0-.945-.775-1.72-1.72-1.72zm40.496 14.897h-3.941c-.944 0-1.719.776-1.719 1.72v3.949c0 .944.775 1.72 1.719 1.72h3.941c.953 0 1.72-.776 1.72-1.72v-3.941a1.718 1.718 0 0 0-1.72-1.728zm-13.665 0h-3.94c-.945 0-1.72.776-1.72 1.72v3.949c0 .944.775 1.72 1.72 1.72h3.94c.945 0 1.72-.776 1.72-1.72v-3.941a1.718 1.718 0 0 0-1.72-1.728zm-13.663 0h-3.94c-.953 0-1.728.776-1.728 1.72v3.949c0 .944.775 1.72 1.728 1.72h3.94c.945 0 1.72-.776 1.72-1.72v-3.941c0-.952-.775-1.728-1.72-1.728zm14.155-30.9h-3.94c-.945 0-1.72.775-1.72 1.72v3.94c0 .953.775 1.72 1.72 1.72h3.94c.945 0 1.72-.775 1.72-1.72v-3.94a1.716 1.716 0 0 0-1.72-1.72zm-13.661 0h-3.94c-.945 0-1.72.775-1.72 1.72v3.94c0 .953.775 1.72 1.72 1.72h3.94c.953 0 1.728-.775 1.728-1.72v-3.94a1.738 1.738 0 0 0-1.728-1.72z" fill="#E1E4E5"/></svg>