<svg width="900" height="600" viewBox="0 0 900 600" fill="none" xmlns="http://www.w3.org/2000/svg"><g clip-path="url(#a)"><path fill="transparent" d="M0 0h900v600H0z"/><ellipse cx="417.878" cy="498.791" rx="285.878" ry="15.046" fill="url(#b)"/><path fill-rule="evenodd" clip-rule="evenodd" d="M166.613 493.426v-13.832 13.832z" fill="#fff"/><path d="M166.613 493.426v-13.832" stroke="#E1E4E5" stroke-width="4"/><path fill-rule="evenodd" clip-rule="evenodd" d="M287.906 493.426v-13.832 13.832z" fill="#fff"/><path d="M287.906 493.426v-13.832" stroke="#E1E4E5" stroke-width="4"/><path fill-rule="evenodd" clip-rule="evenodd" d="M496.446 493.426v-13.832 13.832z" fill="#fff"/><path d="M496.446 493.426v-13.832" stroke="#E1E4E5" stroke-width="4"/><path fill-rule="evenodd" clip-rule="evenodd" d="M670.94 493.426v-13.832 13.832z" fill="#fff"/><path d="M670.94 493.426v-13.832" stroke="#E1E4E5" stroke-width="4"/><path fill-rule="evenodd" clip-rule="evenodd" d="M181.509 493.426v-9.576 9.576z" fill="#fff"/><path d="M181.509 493.426v-9.576" stroke="#E1E4E5" stroke-width="4"/><path fill-rule="evenodd" clip-rule="evenodd" d="M301.737 493.426v-9.576 9.576z" fill="#fff"/><path d="M301.737 493.426v-9.576" stroke="#E1E4E5" stroke-width="4"/><path fill-rule="evenodd" clip-rule="evenodd" d="M511.342 493.426v-9.576 9.576z" fill="#fff"/><path d="M511.342 493.426v-9.576" stroke="#E1E4E5" stroke-width="4"/><path fill-rule="evenodd" clip-rule="evenodd" d="M685.835 493.426v-9.576 9.576z" fill="#fff"/><path d="M685.835 493.426v-9.576" stroke="#E1E4E5" stroke-width="4"/><path fill-rule="evenodd" clip-rule="evenodd" d="M151.716 493.426v-9.576 9.576z" fill="#fff"/><path d="M151.716 493.426v-9.576" stroke="#E1E4E5" stroke-width="4"/><path fill-rule="evenodd" clip-rule="evenodd" d="M273.011 493.426v-9.576 9.576z" fill="#fff"/><path d="M273.011 493.426v-9.576" stroke="#E1E4E5" stroke-width="4"/><path fill-rule="evenodd" clip-rule="evenodd" d="M481.55 493.426v-9.576 9.576z" fill="#fff"/><path d="M481.55 493.426v-9.576" stroke="#E1E4E5" stroke-width="4"/><path fill-rule="evenodd" clip-rule="evenodd" d="M656.044 493.426v-9.576 9.576z" fill="#fff"/><path d="M656.044 493.426v-9.576" stroke="#E1E4E5" stroke-width="4"/><path d="M487.248 512.156c8.161-2.757 15.235-8.63 19.365-16.162 1.167-2.078 2.12-4.464 1.806-6.826-.08-.482-.202-1.051-.635-1.276-.389-.224-.915-.101-1.354.023-13.631 3.678-28.043 9.876-42.351 9.222-.655-.01-1.309-.063-1.88.19-.703.295-1.149.943-1.465 1.637-1.082 2.253-2.02 6.517-1.666 9.054.435 3.018 3.353 3.456 5.918 4.106 7.305 1.857 14.978 2.497 22.262.032z" fill="#F8AE9D"/><path d="M488.508 495.239c1.098-.464 2.24-.927 3.419-.953 1.179-.025 2.479.606 2.855 1.746.25.79.019 1.616-.298 2.353-.858 1.908-2.366 3.456-3.958 4.829-6.103 5.145-13.92 8.257-21.916 8.747-3.539.208-7.244-.11-10.362-1.773 1.557-1.897 1.249-4.608 1.416-7.006.5-7.021 6.483-4.354 11.285-4.369 6.026-.127 12.024-1.301 17.559-3.574z" fill="#F8AE9D"/><path d="m305.87 443.312-.274.782c-1.918 5.558-3.402 11.297-4.015 17.181-1.125 10.809.997 23.456 9.128 31.306 10.841 10.467 28.234 12.084 42.371 9.593a35.785 35.785 0 0 0 15.865-7.049c4.608 4.173 9.558 8.744 13.678 13.39a104.11 104.11 0 0 0 23.444-11.691c17.254 7.901 34.852 13.232 53.433 17.093a72.07 72.07 0 0 0 4.44-16.433c.145-.914-11.435-8.729-12.772-9.841-4.008-3.378-12.359-11.1-12.359-11.1s10.525-8.964 15.129-13.172a219.03 219.03 0 0 0 14.003-13.756c3.683-3.96 7.283-8.139 9.54-13.081 2.257-4.899 3.087-10.692 1.2-15.784-5.957-15.849-30.007-10.278-41.178-4.816-9.235 4.53-17.324 11.13-25.108 17.821-3.14 2.659-6.237 5.406-9.29 8.109-2.407-2.481-5.065-5.708-7.339-8.318-2.445-2.831-5.242-5.492-8.621-7.159-3.552-1.8-6.83-1.544-10.62-2.082-1.698-.244-3.349-.749-5.004-1.036-4.962-.905-10.215.063-14.576 2.616-4.14 2.425-7.501 5.299-12.361 6.229-5.516 1.051-11.923.43-17.456-.309-4.966-.686-10.012-1.811-14.96-.838-2.057.405-2.843 3.274-3.523 4.923-.909 2.387-1.864 4.86-2.775 7.422zm43.835-182.807s-13.357-2.124-16.944 21.455c-3.985 26.212-14.627 21.9-31.527 43.185-9.877 12.437.517 34.401 21.639 33.966 21.123-.425 40.199-6.532 52.349-3.919 12.15 2.612 12.817-28.507.829-38.109-11.988-9.601 13.572-37.173-2.003-49.451-15.576-12.278-24.343-7.127-24.343-7.127z" fill="#133835"/><path d="M269.867 364.477c-1.218-2.503-1.145-5.411-.705-8.125 1.904-11.647 10.066-21.38 19.422-28.512 9.387-7.151 20.13-12.255 30.006-18.663 2.563-1.669 5.132-3.467 8.075-4.368 2.943-.902 6.363-.805 8.793 1.092 1.715 1.332 2.707 3.39 3.284 5.45 1.264 4.509.78 9.283.008 13.856-.964 5.769-2.38 11.478-4.704 16.78-1.863 4.277-4.897 8.678-9.455 9.516-1.319 5.111-4.035 9.902-7.844 13.567-4.357 4.202-9.881 6.95-15.614 8.869-5.281 1.772-11.058 2.929-16.371 1.275-3.154-.963-5.931-2.817-8.648-4.708-2.423-1.61-4.938-3.373-6.247-6.029zm47.736-7.767 3.117-4.95c-.664.069-1.292.198-1.925.455-1.712.741-2.743 3.437-1.192 4.495z" fill="#133835"/><path d="M375.382 281.24c.161.876.191 1.793.131 2.84a58.273 58.273 0 0 1-3.894 17.838c-1.361 3.384-3.026 6.72-5.382 9.522-.979 1.163-2.086 2.238-3.533 2.652-1.49.414-3.368.473-4.847.101-1.304 5.393-.76 15.573 3.896 19.397 1.423 1.157 3.114 1.881 4.807 2.518 3.298 1.272 6.732 2.241 10.169 2.992 3.916.845 8.184 1.477 10.934 4.356.344.355.686.84.548 1.318-.092.304-.314.519-.578.69-2.166 1.757-4.843 2.72-7.52 3.64-4.695 1.587-9.517 2.911-14.419 3.797-5.121.926-10.41 1.369-15.596.81-4.009-.453-7.966-1.474-11.605-3.275-3.813-1.891-7.718-3.435-11.663-5.241-3.338-1.535-6.629-3.287-10.243-3.91 1.708-3.248 5.272-5.07 8.821-5.933 3.548-.819 7.26-.894 10.85-1.581 1.182-.244 2.365-.532 3.38-1.259 2.78-2.009 2.019-6.473 2.063-9.397l.141-9.252c-.413-4.415-2.234-8.11-3.832-12.15-2.437-6.192-2.942-13.228-.794-19.568 2.148-6.297 7.033-11.767 13.308-13.985 6.276-2.218 13.809-.969 18.628 3.644 3.054 2.971 5.546 5.628 6.23 9.436z" fill="#F8AE9D"/><path d="M356.082 261.567c6.255-.698 11.955 2.365 16.181 7.113 3.555 3.98 5.645 9.234 5.54 14.513-.015.754-.1 1.576-.525 2.253-1.13 1.623-3.587 1.026-5.425.303-2.994-1.157-5.224-2.848-7.938-4.274-2.715-1.425-6.011-1.217-8.441-3.186-2.294-1.897-10.17-5.895-10.382-8.986-.268-3.777 6.652-6.863 9.545-7.491.414-.128.895-.187 1.445-.245z" fill="#133835"/><path d="M338.062 270.118c-5.289 3.411-7.772 9.387-8.047 15.737-.241 5.331 1.459 10.724 4.877 14.749.488.575 1.073 1.158 1.83 1.414 1.902.545 3.428-1.471 4.396-3.192 1.59-2.789 2.249-5.508 3.453-8.329 1.203-2.82 3.889-4.741 4.529-7.803.579-2.92 4.157-10.995 2.369-13.525-2.18-3.097-9.493-1.115-12.132.226-.402.162-.813.42-1.275.723z" fill="#133835"/><path d="M385.109 342.108c.835-.38 1.835-.103 2.391.648 6.24 8.737 8.65 19.687 10.759 30.239 2.393 11.997 4.524 24.034 6.568 36.069.121.613.199 1.269-.072 1.833-.27.563-.886.859-1.457 1.112-3.606 1.735-7.255 3.426-10.861 5.161a119.834 119.834 0 0 1-8.354-27.671c-2.315 5.857-6.495 10.945-11.828 14.269 3.973 5.691 8.864 17.071 13.634 22.077.73.796 5.245-.445 6.254-.778.627 1.799-2.312-.123-2.296 1.711-2.713.395-6.18-1.229-8.969-1.577-3.355-.4-6.76-.408-10.126-.067-5.597.614-11.036 2.365-16.009 4.995a57.188 57.188 0 0 0-7.096 4.476c-1.943 1.455-6.753 4.874-6.753 4.874-.353.256-2.006-.118-2.397-.211a43.633 43.633 0 0 0-3.442-.445 82.07 82.07 0 0 1-8.626-1.135c-5.702-1.047-11.309-2.66-16.688-4.881-.518-.401 1.33-4.214 1.428-4.955-.097.697-10.692-.162-11.737-.352-4.177-.85-8.405-1.307-12.582-2.2 1.871-16.821 7.007-33.069 12.053-49.187 1.974-6.343 3.991-12.686 6.788-18.667 2.978-6.372 6.823-12.337 11.443-17.636.133-.129.352-.213.526-.167 2.218.558 15.741 4.037 22.469 6.54 3.429 1.318 6.903 2.506 10.42 3.694 1.39.458 2.824.916 4.265.894.961-.029 1.924-.232 2.844-.437 9.373-2.084 18.749-4.342 27.451-8.226z" fill="#009688"/><path d="M324.1 375.623c-.386 2.395-.903 4.831-1.42 7.224a127.22 127.22 0 0 1-4.826 15.991c-1 2.604-2.043 5.164-3.217 7.721a146.714 146.714 0 0 1-1.803 3.771c-.315.606-.63 1.256-.945 1.862-.27.52-.583.995-.852 1.471 1.878-.058 11.146.476 13.065.636" stroke="#fff" stroke-width="1.376" stroke-miterlimit="10" stroke-linecap="round"/><path d="M324.402 416.18a53.427 53.427 0 0 1-.711 3.656l-.841 3.654c-.278 1.043-.909 2.343-.925 3.434.003-.218 7.434-.847 8.133-.924 7.738-.755 15.515-1.205 23.249-1.698 5.025-.317 9.956-.198 14.975-.166 1.484.023 3.232-.125 4.036-1.335.671-1.038.123-2.356.662-3.308.347.093 4.392 1.115 4.349 1.027.161.919.481 2.844 1.434 3.295.348.137.696.186 1.045.191.524.008 1.049-.071 1.574-.151a.328.328 0 0 0 .219-.084c.089-.086.004-.218-.082-.35a10.408 10.408 0 0 1-1.786-5.964c-1.253-.848-2.504-1.828-3.579-2.892-.86-.886-1.497-2.031-2.446-2.787-.991-.844-1.959-.335-3.055-.046-1.27.286-2.541.616-3.769.99-2.412.749-4.827 1.673-6.858 3.17-.706.513-1.369 1.07-2.203 1.319-.789.25-1.662.237-2.491.225-5.106-.122-10.209-.374-15.264-.931-5.186-.559-8.723-.482-15.517-1.501-.001.043-.007.436-.149 1.176z" fill="#F8AE9D"/><path d="M380.626 375.138c1.22 5.276 2.101 10.604 2.696 16.041" stroke="#fff" stroke-width="1.376" stroke-miterlimit="10" stroke-linecap="round"/><path d="m483.566 366.434-14.984 66.822-113.774-1.729c.059-3.927 3.294-7.109 7.266-7.048l27.189.413 13.549-61.475c.423-2.001 2.234-3.414 4.242-3.384l72.358 1.099c2.749.086 4.762 2.605 4.154 5.302z" fill="#133835"/><path d="M334.939 529.704c.526-3.047 2.014-6.168 3.409-8.896 5.757-11.175 16.048-19.051 27.13-24.47 1.144-.55 2.287-1.1 3.472-1.519-.089.13-.179.26-.269.433v.043h-.044c.132-.086.221-.171.353-.257 4.479 4.041 9.257 8.478 13.336 12.949-2.696 2.185-6.608 3.959-8.551 5.414-4.591 3.379-9.011 6.978-13.774 10.136-6.395 4.312-13.208 7.439-20.824 8.807-2.933.523-4.469 1.067-4.435-1.202.049-.348.1-.828.197-1.438z" fill="#F8AE9D"/><path d="M342.365 520.912c2.966-5.586 7.57-9.838 12.603-13.602 3.533-2.653 7.28-5.041 10.852-7.475 1.015-.683 3.007-2.53 4.723-3.42 3.574 3.241 7.232 6.658 10.54 10.2-10.927 6.644-20.662 15.313-32.65 20.02-1.098.42-2.239.839-3.418.865-1.179.026-2.438-.473-3.121-1.444-1.069-1.5-.383-3.542.471-5.144z" fill="#F8AE9D"/><path d="M487.407 156.668c42.75-61.67 127.399-77.01 189.07-34.261 61.671 42.75 77.01 127.399 34.261 189.07-42.749 61.672-127.399 77.011-189.07 34.261-61.671-42.749-77.01-127.399-34.261-189.07z" fill="#009688"/><path d="M521.354 315.916c1.009 1.843-.282 4.102-2.382 4.168l-72.263 2.253c-2.258.071-3.676-2.413-2.467-4.322l39.42-62.226c1.148-1.812 3.819-1.727 4.85.155l32.842 59.972z" fill="#009688"/><path d="M640.968 239.626c.177 10.068 8.479 18.053 18.547 17.876 10.069-.177 18.053-8.479 17.876-18.547-.176-10.068-8.478-18.052-18.547-17.876-10.068.212-18.052 8.479-17.876 18.547zm-63.271 2.683c1.025 9.998 9.998 17.275 19.995 16.251 9.998-1.025 17.276-9.998 16.251-19.996-1.024-9.997-9.998-17.275-19.995-16.25-9.998 1.06-17.275 9.998-16.251 19.995zm-59.492 1.096c1.024 9.998 9.998 17.275 19.995 16.251 9.998-1.025 17.275-9.998 16.251-19.996-1.025-9.997-9.998-17.275-19.995-16.25-9.998 1.024-17.276 9.962-16.251 19.995z" fill="#fff"/></g><defs><linearGradient id="b" x1="430.069" y1="530.709" x2="430.02" y2="450.999" gradientUnits="userSpaceOnUse"><stop stop-color="#fff"/><stop offset="1" stop-color="#EEE"/></linearGradient><clipPath id="a"><path fill="#fff" d="M0 0h900v600H0z"/></clipPath></defs></svg>