<svg width="900" height="600" viewBox="0 0 900 600" fill="none" xmlns="http://www.w3.org/2000/svg"><path fill="transparent" d="M0 0h900v600H0z"/><path d="M740.915 373.602h-56.307c-13.797 0-25.357-9.42-25.357-21.353 0-5.966 2.983-11.304 7.458-15.072 4.475-3.768 10.814-6.28 17.899-6.28h8.204c7.084 0 13.424-2.513 17.898-6.281 4.475-3.768 7.458-9.106 7.458-15.072 0-11.619-11.187-21.353-25.356-21.353h-171.95c-4.51 0-7.411-5.538-7.411-10.049 0-11.304-10.814-20.411-24.238-20.411h-63.98a6.123 6.123 0 1 1 0-12.246h245.205c10.814 0 20.882-3.768 27.967-9.734 7.085-5.967 11.56-14.445 11.56-23.551 0-18.527-17.899-33.286-39.527-33.286H543.814c-19.888 0-39.561-15.386-59.449-15.386h-70.653c-10.405 0-18.841-8.436-18.841-18.841 0-10.406 8.436-18.841 18.841-18.841h158.283c7.458 0 14.543-2.512 19.39-6.594 4.848-4.083 7.831-9.735 7.831-16.329 0-12.56-12.306-22.923-27.221-22.923H206.934c-7.458 0-14.542 2.512-19.39 6.594-4.848 4.082-7.831 9.735-7.831 16.329 0 12.56 12.306 22.923 27.221 22.923h9.323c12.305 0 22.746 8.478 22.746 19.155 0 5.338-2.61 10.048-6.712 13.502-4.102 3.454-9.695 5.653-16.034 5.653h-45.12c-7.831 0-15.289 2.826-20.509 7.222-5.221 4.396-8.577 10.362-8.577 17.271 0 13.502 13.051 24.179 28.713 24.179h45.865c14.916 0 27.221 10.362 27.221 22.923 0 6.28-2.983 11.932-7.83 16.014-4.848 4.082-11.56 6.594-19.018 6.594h-41.018c-6.712 0-12.678 2.199-17.153 5.967-4.474 3.768-7.085 8.792-7.085 14.444 0 11.305 10.814 20.411 24.238 20.411h33.188c19.017 0 34.306 12.875 34.306 28.889 0 7.851-3.729 15.387-10.068 20.411-6.34 5.339-14.916 8.479-24.238 8.479h-46.239c-9.322 0-17.899 3.14-23.865 8.478-6.339 5.024-10.068 12.247-10.068 20.097 0 15.701 15.289 28.575 33.933 28.575h142.763c15.774 0 31.265 8.792 47.039 8.792h25.945c9.972 0 18.056 8.084 18.056 18.056 0 9.972-8.084 18.056-18.056 18.056h-63.234c-8.204 0-15.289 2.826-20.509 7.222-5.221 4.396-8.577 10.677-8.577 17.271 0 13.503 13.051 24.493 29.086 24.493h387.807c8.203 0 15.288-2.826 20.509-7.222 5.22-4.396 8.576-10.677 8.576-17.271 0-13.503-13.051-24.493-29.085-24.493h-11.56c-11.933 0-21.255-8.164-21.255-17.899 0-5.024 2.237-9.42 6.339-12.56 3.729-3.14 9.322-5.339 15.289-5.339h48.849c8.203 0 15.288-2.826 20.509-7.222 5.22-4.396 8.576-10.676 8.576-17.271 0-14.13-13.051-25.121-29.085-25.121z" fill="url(#a)"/><path d="m460.906 415.654 18.341 86.258m-40.246-86.258-18.341 86.258m-51.196 8.636h160.238" stroke="#009688" stroke-width="17.25" stroke-linecap="round" stroke-linejoin="round"/><path fill-rule="evenodd" clip-rule="evenodd" d="M609.524 458.279H289.79c-35.311 0-63.932-28.621-63.932-63.932V174.079c0-35.311 28.621-63.932 63.932-63.932h319.709c35.336 0 63.957 28.621 63.957 63.932v220.243c0 35.336-28.621 63.957-63.932 63.957z" fill="#009688"/><rect x="349.457" y="193.457" width="200.543" height="200.543" rx="100.272" fill="#fff"/><path fill-rule="evenodd" clip-rule="evenodd" d="M495.302 335.792v6.705c0 3.701-2.964 6.705-6.617 6.705h-79.399c-3.653 0-6.617-3.004-6.617-6.705v-6.812c0-20.289 22.881-33.471 46.317-33.471s46.316 13.188 46.316 33.471m-29.71-92.374c9.175 9.175 9.175 24.051 0 33.226-9.175 9.174-24.05 9.174-33.225 0-9.175-9.175-9.175-24.051 0-33.226s24.05-9.175 33.225 0z" fill="#009688"/><defs><linearGradient id="a" x1="463.167" y1="747.961" x2="454.355" y2="-385.676" gradientUnits="userSpaceOnUse"><stop stop-color="#fff"/><stop offset="1" stop-color="#EEE"/></linearGradient></defs></svg>