<svg width="900" height="600" viewBox="0 0 900 600" fill="none" xmlns="http://www.w3.org/2000/svg"><path fill="transparent" d="M0 0h900v600H0z"/><path d="M625.862 202.563c-4.767 2.592-10.029.048-17.425-5.67-5.561-4.302-10.683-8.146-14.573-15.104-2.724-4.869-4.082-9.991-4.609-14.467-.571-4.849-1.884-10.8 2.187-13.327 5.593-3.472 22.363 1.195 31.726 16.72 10.284 17.057 7.354 29.315 2.694 31.848z" fill="url(#a)"/><path d="M743.797 277.703c-14.024 6.957-32.637-1.988-32.637-1.988s4.137-20.22 18.168-27.167c14.024-6.957 32.63 1.978 32.63 1.978s-4.137 20.22-18.161 27.177z" fill="url(#b)"/><path d="M151.122 224.197c7.885 4.725 19.197.357 19.197.357s-1.48-12.028-9.369-16.748c-7.884-4.725-19.191-.363-19.191-.363s1.479 12.029 9.363 16.754z" fill="url(#c)"/><circle cx="181.232" cy="356.46" r="10.43" transform="rotate(180 181.232 356.46)" fill="#009688"/><circle cx="587.449" cy="431.464" r="20.009" transform="rotate(180 587.449 431.464)" fill="#009688"/><circle cx="349.023" cy="210.959" r="10.494" transform="rotate(180 349.023 210.959)" fill="#009688"/><circle r="11.951" transform="matrix(-1 0 0 1 255.954 398.661)" fill="#009688"/><circle r="5.577" transform="matrix(-1 0 0 1 736.459 326.576)" fill="#009688"/><circle r="7.171" transform="matrix(-1 0 0 1 696.809 469.894)" fill="#E1E4E5"/><circle r="10.358" transform="matrix(-1 0 0 1 215.052 423.273)" fill="#E1E4E5"/><circle r="7.883" transform="matrix(-1 0 0 1 862.43 364.102)" fill="#E1E4E5"/><circle r="4.581" transform="matrix(-1 0 0 1 639.249 155.808)" fill="#E1E4E5"/><circle r="7.87" transform="scale(1 -1) rotate(-75 -63.218 -256.716)" fill="#E1E4E5"/><circle r="3.276" transform="matrix(-1 0 0 1 310.415 194.585)" fill="#E1E4E5"/><ellipse rx="8.054" ry="6.443" transform="matrix(-1 0 0 1 723.291 386.891)" fill="#E1E4E5"/><circle r="5.697" transform="scale(1 -1) rotate(-75 179.895 -392.27)" fill="#E1E4E5"/><path d="M286.345 143.211h.115c.679 9.626 7.838 9.774 7.838 9.774s-7.894.154-7.894 11.277c0-11.123-7.895-11.277-7.895-11.277s7.156-.148 7.836-9.774zm-15.166 326.794h.11c.652 9.598 7.526 9.745 7.526 9.745s-7.58.154-7.58 11.244c0-11.09-7.579-11.244-7.579-11.244s6.871-.147 7.523-9.745z" fill="#E1E4E5"/><path fill-rule="evenodd" clip-rule="evenodd" d="M221.68 342.129c0-58.563 44.84-106.455 102.858-114.163 19.149-54.744 72.291-94.164 135.019-94.164 48.261 0 90.923 23.303 116.754 58.977l-.279.273-256.301 256.302a18.846 18.846 0 0 0-4.034 5.966c-53.717-11.149-94.017-57.599-94.017-113.191zm143.024 115.737h237.579c52.547 0 95.15-41.457 95.15-92.59 0-51.132-42.603-92.589-95.15-92.589 0-15.68-2.67-30.752-7.59-44.809L364.704 457.866zM105.416 310.314h69.771c6.238 0 8.925-8.216 3.821-11.86a16.884 16.884 0 0 0-.216-.155c-7.268-5.081-16.807-4.619-16.807-4.619s-1.361-27.494-27.025-27.494c-23.203 0-32.456 23.165-35.793 35.928-1.084 4.146 2.031 8.2 6.249 8.2zm100.667-96.53h69.77c6.239 0 8.926-8.215 3.822-11.859a7.843 7.843 0 0 0-.217-.155c-7.268-5.081-16.806-4.62-16.806-4.62s-1.362-27.494-27.026-27.494c-23.203 0-32.455 23.166-35.793 35.929-1.084 4.146 2.032 8.199 6.25 8.199zm447.377 11.032h105.819c9.461 0 13.537-12.323 5.795-17.789a14.972 14.972 0 0 0-.328-.233c-11.023-7.621-25.49-6.929-25.49-6.929s-2.065-41.24-40.988-41.24c-35.191 0-49.225 34.747-54.286 53.892-1.645 6.219 3.081 12.299 9.478 12.299zm121.653 96.182h72.119c6.448 0 9.226-8.349 3.95-12.053a11.277 11.277 0 0 0-.224-.157c-7.513-5.164-17.372-4.695-17.372-4.695s-1.407-27.943-27.935-27.943c-23.984 0-33.548 23.544-36.998 36.515-1.12 4.214 2.1 8.333 6.46 8.333zM187.54 452.35H42.263c-11.761 0-16.834-14.891-7.206-21.498.134-.092.271-.186.408-.278 13.706-9.212 31.694-8.376 31.694-8.376s2.57-49.829 50.967-49.829c23.928 0 43.265 39.99 43.265 39.99s32.55 0 37.937 25.126c1.629 7.612-3.831 14.865-11.788 14.865zm657.803-8.28H729.212c-9.402 0-13.457-11.845-5.761-17.101l.326-.221c10.957-7.328 25.336-6.662 25.336-6.662s2.055-39.638 40.742-39.638c19.127 0 34.585 31.811 34.585 31.811s26.02 0 30.326 19.987c1.302 6.055-3.062 11.824-9.423 11.824z" fill="#E1E4E5"/><defs><linearGradient id="a" x1="594.399" y1="219.005" x2="630.984" y2="116.514" gradientUnits="userSpaceOnUse"><stop stop-color="#fff"/><stop offset="1" stop-color="#EEE"/></linearGradient><linearGradient id="b" x1="689.944" y1="299.403" x2="805.614" y2="207.907" gradientUnits="userSpaceOnUse"><stop stop-color="#fff"/><stop offset="1" stop-color="#EEE"/></linearGradient><linearGradient id="c" x1="181.633" y1="239.408" x2="118.192" y2="180.463" gradientUnits="userSpaceOnUse"><stop stop-color="#fff"/><stop offset="1" stop-color="#EEE"/></linearGradient></defs></svg>