<svg width="900" height="600" viewBox="0 0 900 600" fill="none" xmlns="http://www.w3.org/2000/svg"><path fill="transparent" d="M0 0h900v600H0z"/><path d="M684.634 199.01c-6.733 12.016-21.478 13.667-45.1 11.383-17.765-1.72-33.966-3.051-51.733-12.738-12.436-6.776-22.279-15.942-29.464-24.845-7.786-9.645-18.652-20.653-13.325-31.589 7.321-15.022 49.657-27.674 90.767-6.984 45.16 22.735 55.441 53.03 48.855 64.773z" fill="url(#a)"/><path d="M753.862 263.171c-15.075 7.478-35.084-2.138-35.084-2.138s4.446-21.736 19.53-29.204c15.076-7.479 35.077 2.127 35.077 2.127s-4.447 21.736-19.523 29.215z" fill="url(#b)"/><path d="M149.052 357.603c16.725 10.024 40.721.758 40.721.758s-3.138-25.515-19.873-35.528c-16.725-10.024-40.71-.769-40.71-.769s3.137 25.515 19.862 35.539z" fill="url(#c)"/><circle cx="676.994" cy="238.112" r="13.704" transform="rotate(180 676.994 238.112)" fill="#009688"/><circle cx="329.481" cy="191.421" r="11.281" transform="rotate(180 329.481 191.421)" fill="#009688"/><circle r="12.848" transform="matrix(-1 0 0 1 229.433 393.2)" fill="#009688"/><circle r="5.996" transform="matrix(-1 0 0 1 717.578 310.891)" fill="#009688"/><circle r="7.709" transform="matrix(-1 0 0 1 750.48 484.646)" fill="#E1E4E5"/><circle r="11.135" transform="matrix(-1 0 0 1 185.464 419.657)" fill="#E1E4E5"/><circle r="8.474" transform="matrix(-1 0 0 1 749.233 412.973)" fill="#E1E4E5"/><circle r="9.422" transform="matrix(-1 0 0 1 682.589 145.552)" fill="#E1E4E5"/><circle r="8.461" transform="scale(1 -1) rotate(-75 -90.028 -255.08)" fill="#E1E4E5"/><circle r="3.521" transform="matrix(-1 0 0 1 355.928 108.204)" fill="#E1E4E5"/><ellipse rx="8.658" ry="6.926" transform="matrix(-1 0 0 1 696.094 371.181)" fill="#E1E4E5"/><circle r="6.125" transform="scale(1 -1) rotate(-75 180.451 -385.17)" fill="#E1E4E5"/><path d="M251.166 166.055h.124c.73 10.348 8.426 10.507 8.426 10.507s-8.487.166-8.487 12.123c0-11.957-8.486-12.123-8.486-12.123s7.693-.159 8.423-10.507zM245.8 469.894h.118c.701 10.318 8.09 10.476 8.09 10.476s-8.148.166-8.148 12.087c0-11.921-8.147-12.087-8.147-12.087s7.385-.158 8.087-10.476z" fill="#E1E4E5"/><path d="M658.557 284.385c-17.319 21.6-47.102 20.002-93.186 7.669-34.658-9.281-66.342-17.274-98.371-42.352-22.419-17.543-38.909-38.971-50.213-58.999-12.251-21.697-30.161-47.113-15.985-67.037 19.48-27.368 107.607-38.467 182.286 16.142 82.032 60.001 92.409 123.468 75.469 144.577z" fill="url(#d)"/><path d="M606.188 427.283c-8.344 47.424-122.039 121.372-226.703 59.894-48.678-28.594-37.908-54.772-69.484-99.911-18.822-26.904-49.247-51.012-51.533-84.291-1.98-28.726 9.756-56.38 28.352-71.82 41.822-34.722 113.179-48.57 161.435 32.669 48.255 81.239 179.438 41.147 157.933 163.459z" fill="url(#e)"/><path d="M468 166v187h-19.716c0-8.337-7.732-20.456-11.598-25.474C387.396 286.421 370 262.562 370 225.632c0-34.737 20.296-53.264 33.053-59.632H468zm0 0v187h19.515c0-8.337 7.653-20.456 11.479-25.474C547.781 286.421 565 262.562 565 225.632c0-34.737-20.089-53.264-32.716-59.632H468z" fill="#009688"/><path d="M468 493V307h-19.716c0 8.292-7.732 20.347-11.598 25.337C387.396 373.223 370 396.954 370 433.687c0 34.551 20.296 52.979 33.053 59.313H468zm0 0V307h19.515c0 8.292 7.653 20.347 11.479 25.337C547.781 373.223 565 396.954 565 433.687c0 34.551-20.089 52.979-32.716 59.313H468z" fill="#009688"/><path d="M566.535 509.742H370.369v-8.433c0-5.074 4.118-9.19 9.201-9.19h178.143c4.872 0 8.822 3.945 8.822 8.811v8.812z" fill="#E1E4E5"/><path d="M404.932 216.876c8.839 1.3 21.589 2.889 34.531 3.529 12.999.643 25.962.313 35.335-2.112 28.565-7.392 46.338-9.323 56.802-9.486l-126.668 8.069zm0 0c-7.726-1.136-14.513 5.005-14.513 12.835v7.818c0 3.178 1.032 6.623 2.681 10.144 1.66 3.544 4.017 7.314 6.836 11.184 5.638 7.739 13.269 16.068 21.306 24.035 16.084 15.945 34.023 30.664 41.517 36.663m-57.827-102.679 57.827 102.679m0 0c1.693 1.355 2.7 3.451 2.7 5.693v119.809c0 3.332-1.601 6.425-4.248 8.326-6.119 4.393-14.168 12.869-20.572 20.08a404.842 404.842 0 0 0-10.561 12.398l-.655.806-.171.212-.044.055-.012.014-.003.004-.001.001 1.845 1.481-1.845-1.48-3.084 3.845m36.651-171.244-36.651 171.244m0 0h4.929m-4.929 0h4.929m74.894-2.365 1.808-1.525v-.001l-.003-.004-.012-.013-.045-.053-.172-.204-.662-.778a525.393 525.393 0 0 0-10.616-12.035c-6.419-7.051-14.381-15.361-20.194-19.923l-.001-.001c-1.996-1.564-3.186-4-3.186-6.603V325.215c0-2.235.99-4.33 2.665-5.705h.001c7.346-6.036 24.902-20.818 40.639-36.813 7.864-7.993 15.329-16.345 20.844-24.098 2.758-3.878 5.062-7.653 6.685-11.198 1.612-3.523 2.618-6.962 2.618-10.127v-13.678c0-8.201-6.558-14.916-14.7-14.789l-25.669 279.627zm0 0 1.809-1.525m-1.809 1.525 1.809-1.525m-76.703 3.89h79.981m-79.981 0h79.981m0 0-3.278-3.89m3.278 3.89-3.278-3.89" fill="#fff" stroke="#fff" stroke-width="4.73"/><path d="M557.384 173.766H379.192c-4.872 0-8.823-3.946-8.823-8.812v-8.811h196.166v8.483c0 5.05-4.094 9.14-9.151 9.14z" fill="#E1E4E5"/><path fill-rule="evenodd" clip-rule="evenodd" d="M483.753 232.221v-43.66a41.266 41.266 0 0 1 20.501-35.656l41.258-24.012a41.272 41.272 0 0 1 41.506 0l41.258 24.012a41.255 41.255 0 0 1 20.509 35.656v43.66a41.267 41.267 0 0 1-20.5 35.657l-41.258 24.012a41.272 41.272 0 0 1-41.506 0l-41.258-24.012a41.257 41.257 0 0 1-20.51-35.657z" fill="#133835"/><path d="M566.269 210.391v-41.258m-.009 73.348a2.28 2.28 0 0 0-2.283 2.292 2.293 2.293 0 0 0 4.585 0 2.295 2.295 0 0 0-2.302-2.292" stroke="#fff" stroke-width="15.588" stroke-linecap="round" stroke-linejoin="round"/><defs><linearGradient id="a" x1="639.279" y1="276.881" x2="579.271" y2="7.23" gradientUnits="userSpaceOnUse"><stop stop-color="#fff"/><stop offset="1" stop-color="#EEE"/></linearGradient><linearGradient id="b" x1="695.97" y1="286.497" x2="820.315" y2="188.14" gradientUnits="userSpaceOnUse"><stop stop-color="#fff"/><stop offset="1" stop-color="#EEE"/></linearGradient><linearGradient id="c" x1="213.774" y1="389.87" x2="79.198" y2="264.831" gradientUnits="userSpaceOnUse"><stop stop-color="#fff"/><stop offset="1" stop-color="#EEE"/></linearGradient><linearGradient id="d" x1="542.897" y1="423.806" x2="513.006" y2="-130.698" gradientUnits="userSpaceOnUse"><stop stop-color="#fff"/><stop offset="1" stop-color="#EEE"/></linearGradient><linearGradient id="e" x1="431.505" y1="682.572" x2="439.831" y2="-129.955" gradientUnits="userSpaceOnUse"><stop stop-color="#fff"/><stop offset="1" stop-color="#EEE"/></linearGradient></defs></svg>