<svg width="900" height="600" viewBox="0 0 900 600" fill="none" xmlns="http://www.w3.org/2000/svg"><path fill="transparent" d="M0 0h900v600H0z"/><path fill-rule="evenodd" clip-rule="evenodd" d="M583.235 94.887c-20.326-8.508-42.109-14.036-64.776-16.012-97.963-8.518-183.877 45.994-221.795 127.59l98.532 83.08 26.887-46.6a11.68 11.68 0 0 1 7.914-5.634l115.842-22.254 37.396-120.17zm21.271 10.272L566.068 228.68a11.683 11.683 0 0 1-8.95 8.001L439.65 259.246l-31.194 54.065a11.678 11.678 0 0 1-17.648 3.093l-103.261-87.066c-9.464 28.231-13.433 59.016-10.644 91.092 9.19 105.709 95.654 192.173 201.362 201.363 138.936 12.08 253.636-102.596 241.556-241.556-6.513-74.897-51.836-140.141-115.315-175.078zm-95.064 216.717a11.68 11.68 0 0 1 12.474-8.476l133.825 14.098a11.68 11.68 0 0 1 8.495 18.096l-92.583 138.875a11.68 11.68 0 0 1-17.966 1.793l-65.675-65.47a11.68 11.68 0 0 1-3.004-11.415l24.434-87.501zm19.846 15.793-19.939 71.405 50.757 50.599 73.976-110.965-104.794-11.039z" fill="url(#a)"/><path d="M219.339 407.186h.255c1.514 21.45 17.467 21.78 17.467 21.78s-17.591.344-17.591 25.129c0-24.785-17.591-25.129-17.591-25.129s15.946-.33 17.46-21.78zm26.988-167.47h.141c.833 11.813 9.618 11.994 9.618 11.994s-9.687.19-9.687 13.838c0-13.648-9.687-13.838-9.687-13.838s8.781-.181 9.615-11.994zm513.856-105.611h.136c.802 11.368 9.256 11.543 9.256 11.543s-9.322.182-9.322 13.317c0-13.135-9.323-13.317-9.323-13.317s8.451-.175 9.253-11.543zm9.684 178.065h.139c.825 11.685 9.515 11.865 9.515 11.865s-9.583.187-9.583 13.689c0-13.502-9.583-13.689-9.583-13.689s8.687-.18 9.512-11.865zm-75.06 163.774h.136c.802 11.367 9.256 11.542 9.256 11.542s-9.322.182-9.322 13.318c0-13.136-9.323-13.318-9.323-13.318s8.451-.175 9.253-11.542zM103.615 293.495h.141c.833 11.813 9.618 11.995 9.618 11.995s-9.687.189-9.687 13.838c0-13.649-9.687-13.838-9.687-13.838s8.781-.182 9.615-11.995zm208.569 182.197h.256c1.514 21.45 17.466 21.78 17.466 21.78s-17.591.344-17.591 25.129c0-24.785-17.591-25.129-17.591-25.129s15.946-.33 17.46-21.78zm-52.621-336.6h.14c.834 11.812 9.619 11.994 9.619 11.994s-9.687.189-9.687 13.838c0-13.649-9.687-13.838-9.687-13.838s8.781-.182 9.615-11.994zm491.096 248.94h.207c1.228 17.392 14.162 17.66 14.162 17.66s-14.263.278-14.263 20.374c0-20.096-14.262-20.374-14.262-20.374s12.928-.268 14.156-17.66zm28.317-161.039h.136c.802 11.368 9.256 11.543 9.256 11.543s-9.322.182-9.322 13.317c0-13.135-9.323-13.317-9.323-13.317s8.451-.175 9.253-11.543zm18.376 223.613h.135c.802 11.368 9.257 11.543 9.257 11.543s-9.323.182-9.323 13.317c0-13.135-9.323-13.317-9.323-13.317s8.451-.175 9.254-11.543zM203.978 307.392h.14c.834 11.812 9.619 11.994 9.619 11.994s-9.687.189-9.687 13.838c0-13.649-9.687-13.838-9.687-13.838s8.781-.182 9.615-11.994z" fill="#E1E4E5"/><path fill-rule="evenodd" clip-rule="evenodd" d="M305.122 221.546h-87.381c-7.074 0-10.125-8.957-4.334-12.931l.245-.167c8.244-5.541 19.064-5.038 19.064-5.038s1.545-29.971 30.655-29.971c14.392 0 26.023 24.053 26.023 24.053s19.578 0 22.818 15.113c.98 4.578-2.304 8.941-7.09 8.941zm177.563-22.498H361.141c-9.84 0-14.084-12.458-6.029-17.986.113-.077.227-.156.342-.232 11.467-7.708 26.516-7.007 26.516-7.007s2.15-41.69 42.641-41.69c20.018 0 36.197 33.458 36.197 33.458s27.232 0 31.739 21.021c1.362 6.369-3.205 12.436-9.862 12.436zM714.369 230H557.346c-12.712 0-18.195-16.095-7.788-23.237.145-.099.293-.201.44-.3 14.815-9.957 34.257-9.053 34.257-9.053s2.778-53.858 55.088-53.858c25.862 0 46.763 43.224 46.763 43.224s35.182 0 41.005 27.157c1.76 8.228-4.141 16.067-12.742 16.067zm-142.811-70.083h-78.982c-6.394 0-9.152-8.095-3.917-11.688l.221-.151c7.452-5.008 17.231-4.553 17.231-4.553s1.397-27.091 27.709-27.091c13.009 0 23.522 21.742 23.522 21.742s17.696 0 20.625 13.66c.885 4.138-2.083 8.081-6.409 8.081z" fill="#E1E4E5"/><path d="m563.47 442.993-39.621-39.621" stroke="#009688" stroke-width="22.326" stroke-linecap="round" stroke-linejoin="round"/><circle cx="448.969" cy="312.371" r="114.255" fill="#fff" stroke="#009688" stroke-width="20.479" stroke-linecap="round" stroke-linejoin="round"/><defs><linearGradient id="a" x1="507.843" y1="771.974" x2="494.132" y2="-405.723" gradientUnits="userSpaceOnUse"><stop stop-color="#fff"/><stop offset="1" stop-color="#EEE"/></linearGradient></defs></svg>