<svg width="900" height="600" viewBox="0 0 900 600" fill="none" xmlns="http://www.w3.org/2000/svg"><path fill="transparent" d="M0 0h900v600H0z"/><path d="M677.359 371.454c-2.243 56.886-123.7 161.581-256.088 106.18-61.572-25.769-53.111-58.149-97.276-106.017-26.325-28.531-65.799-51.942-73.763-90.568-6.882-33.341 2.475-67.604 21.809-88.647 43.482-47.323 124.883-74.881 194.322 12.632 69.44 87.513 216.762 19.705 210.996 166.42z" fill="url(#a)"/><path d="M711.644 197.184c-12.089 21.576-38.565 24.54-80.982 20.44-31.901-3.089-60.991-5.48-92.894-22.874-22.33-12.166-40.006-28.626-52.907-44.612-13.98-17.319-33.493-37.085-23.927-56.722 13.145-26.974 89.166-49.693 162.985-12.54 81.09 40.823 99.552 95.221 87.725 116.308z" fill="url(#b)"/><path d="M783.616 251.73c-24.61 12.207-57.273-3.49-57.273-3.49s7.259-35.483 31.882-47.674c24.61-12.208 57.261 3.472 57.261 3.472s-7.26 35.484-31.87 47.692z" fill="url(#c)"/><path d="M118.578 335.719c26.238 15.726 63.882 1.189 63.882 1.189s-4.922-40.028-31.176-55.736c-26.239-15.726-63.867-1.207-63.867-1.207s4.922 40.028 31.161 55.754z" fill="url(#d)"/><circle r="7.559" transform="matrix(-1 0 0 1 740.431 457.158)" fill="#E1E4E5"/><circle r="10.918" transform="matrix(-1 0 0 1 161.049 402.971)" fill="#E1E4E5"/><circle r="8.31" transform="matrix(-1 0 0 1 778.923 382.427)" fill="#E1E4E5"/><circle r="9.238" transform="matrix(-1 0 0 1 690.741 125.547)" fill="#E1E4E5"/><circle r="8.296" transform="matrix(0 1 1 0 112.283 229.21)" fill="#E1E4E5"/><circle r="11.036" transform="matrix(-1 0 0 1 400.453 68.015)" fill="#E1E4E5"/><ellipse rx="8.489" ry="6.792" transform="matrix(-1 0 0 1 748.678 336.398)" fill="#E1E4E5"/><circle r="17.265" transform="scale(1 -1) rotate(-75 259.231 -410.402)" fill="#E1E4E5"/><path d="M223.857 173.201h.121c.716 10.147 8.262 10.303 8.262 10.303s-8.321.163-8.321 11.887c0-11.724-8.321-11.887-8.321-11.887s7.543-.156 8.259-10.303zm-12.642 265.606h.116c.688 10.116 7.933 10.272 7.933 10.272s-7.99.162-7.99 11.852c0-11.69-7.989-11.852-7.989-11.852s7.242-.156 7.93-10.272z" fill="#E1E4E5"/><path d="M450.243 327.359H181.569c-19.586 0-35.449-15.863-35.449-35.449V138.382c0-19.586 15.863-35.448 35.449-35.448h268.674c19.586 0 35.449 15.862 35.449 35.448V291.91c0 19.586-15.863 35.449-35.449 35.449z" fill="#fff" stroke="#E1E4E5" stroke-width="5.866"/><path d="M392.669 160.505h19.191c8.973 0 16.257 7.284 16.257 16.258v19.191c0 8.973-7.284 16.258-16.257 16.258h-19.191c-8.974 0-16.258-7.285-16.258-16.258v-19.191c0-8.974 7.284-16.258 16.258-16.258z" fill="#fff" stroke="#E1E4E5" stroke-width="5.866"/><path d="M258.333 215.146H200.76m95.954 57.574H200.76" stroke="#E1E4E5" stroke-width="5.866" stroke-linecap="round" stroke-linejoin="round"/><path fill-rule="evenodd" clip-rule="evenodd" d="M627.922 269.973c-10.551-22.888-24.622-42.399-40.524-57.779-3.367-3.24-8.448-3.945-12.693-1.988l-16.022 7.386c-13.127 6.051-26.688 1.048-31.973-10.416l-10.579-22.947c-7.043-15.278-.369-33.37 14.91-40.413l12.74-5.885c14.496-6.683 31.402-5.463 45.495 2.984 34.737 20.835 67.619 57.612 89.705 105.52 22.086 47.909 28.695 96.797 21.979 136.743-2.731 16.202-12.782 29.85-27.278 36.532l-12.736 5.871c-15.278 7.043-33.37.369-40.413-14.91l-10.579-22.946c-5.284-11.464-.276-25.04 11.183-30.311l17.679-8.138c4.245-1.957 7.023-6.273 6.732-10.943-1.382-22.087-7.088-45.477-17.626-68.36z" fill="#009688"/><path d="M364.293 246.453c73.064-34.492 160.255-3.223 194.746 69.84 34.492 73.064 3.224 160.255-69.84 194.747-73.064 34.491-160.255 3.223-194.746-69.841-34.492-73.064-3.223-160.255 69.84-194.746z" fill="#009688"/><path d="M360.104 472.695c1.563 1.636.849 4.345-1.317 4.999l-74.527 22.481c-2.329.703-4.495-1.485-3.77-3.807l23.657-75.703c.689-2.204 3.491-2.86 5.087-1.19l50.87 53.22z" fill="#009688"/><path d="M473.751 381.524c.19 10.84 9.129 19.437 19.97 19.247 10.84-.19 19.437-9.129 19.247-19.97-.19-10.841-9.129-19.437-19.97-19.247-10.841.228-19.437 9.129-19.247 19.97zm-68.126 2.889c1.103 10.764 10.765 18.6 21.529 17.497 10.765-1.103 18.601-10.765 17.498-21.529-1.103-10.765-10.765-18.601-21.53-17.498-10.764 1.141-18.6 10.765-17.497 21.53zm-64.056 1.179c1.103 10.765 10.764 18.601 21.529 17.498 10.765-1.103 18.601-10.765 17.497-21.53-1.103-10.764-10.764-18.6-21.529-17.497-10.765 1.103-18.601 10.727-17.497 21.529z" fill="#fff"/><defs><linearGradient id="a" x1="513.254" y1="698.292" x2="393.946" y2="-254.971" gradientUnits="userSpaceOnUse"><stop stop-color="#fff"/><stop offset="1" stop-color="#EEE"/></linearGradient><linearGradient id="b" x1="630.204" y1="337.013" x2="522.451" y2="-147.183" gradientUnits="userSpaceOnUse"><stop stop-color="#fff"/><stop offset="1" stop-color="#EEE"/></linearGradient><linearGradient id="c" x1="689.111" y1="289.809" x2="892.095" y2="129.248" gradientUnits="userSpaceOnUse"><stop stop-color="#fff"/><stop offset="1" stop-color="#EEE"/></linearGradient><linearGradient id="d" x1="220.113" y1="386.339" x2="8.99" y2="190.178" gradientUnits="userSpaceOnUse"><stop stop-color="#fff"/><stop offset="1" stop-color="#EEE"/></linearGradient></defs></svg>