<svg width="900" height="600" viewBox="0 0 900 600" fill="none" xmlns="http://www.w3.org/2000/svg"><path fill="transparent" d="M0 0h900v600H0z"/><path d="M619.637 456.166c-9.021 51.274-131.946 131.225-245.106 64.756-52.63-30.915-40.985-59.218-75.125-108.022-20.35-29.087-53.245-55.152-55.716-91.133-2.14-31.058 10.548-60.957 30.654-77.65 45.217-37.541 122.366-52.513 174.539 35.321 52.173 87.833 194.005 44.487 170.754 176.728z" fill="url(#a)"/><path d="M711.216 202.978c-10.028 17.896-31.99 20.355-67.174 16.954-26.461-2.562-50.592-4.545-77.055-18.973-18.522-10.092-33.184-23.745-43.885-37.006-11.596-14.366-27.782-30.761-19.848-47.049 10.905-22.375 73.963-41.22 135.195-10.403 67.263 33.863 82.576 78.986 72.767 96.477z" fill="url(#b)"/><path d="M794.245 282.662c-24.119 11.965-56.132-3.419-56.132-3.419s7.115-34.776 31.247-46.724c24.12-11.964 56.119 3.403 56.119 3.403s-7.114 34.776-31.234 46.74z" fill="url(#c)"/><path d="M107.669 368.469c25.716 15.412 62.609 1.165 62.609 1.165s-4.824-39.23-30.555-54.625c-25.715-15.412-62.593-1.182-62.593-1.182s4.824 39.23 30.539 54.642z" fill="url(#d)"/><circle cx="746.787" cy="202.489" r="13.17" transform="rotate(180 746.787 202.489)" fill="#009688"/><circle cx="575.401" cy="434.363" r="20.67" transform="rotate(180 575.401 434.363)" fill="#009688"/><circle cx="325.147" cy="209.13" r="10.841" transform="rotate(180 325.147 209.13)" fill="#009688"/><circle r="12.347" transform="matrix(-1 0 0 1 203.114 335.483)" fill="#009688"/><circle r="5.762" transform="matrix(-1 0 0 1 647.761 251.762)" fill="#009688"/><circle r="7.408" transform="matrix(-1 0 0 1 637.406 487.408)" fill="#E1E4E5"/><circle r="10.7" transform="matrix(-1 0 0 1 149.294 434.38)" fill="#E1E4E5"/><circle r="8.144" transform="matrix(-1 0 0 1 754.848 414.245)" fill="#E1E4E5"/><circle r="9.054" transform="matrix(-1 0 0 1 668.425 162.487)" fill="#E1E4E5"/><circle r="8.131" transform="scale(1 -1) rotate(-75 -85.924 -245.876)" fill="#E1E4E5"/><circle r="10.816" transform="matrix(-1 0 0 1 383.925 106.102)" fill="#E1E4E5"/><ellipse rx="8.32" ry="6.656" transform="matrix(-1 0 0 1 725.207 369.135)" fill="#E1E4E5"/><circle r="16.921" transform="scale(1 -1) rotate(-75 224.089 -416.373)" fill="#E1E4E5"/><path d="M210.85 209.192h.118c.702 9.944 8.098 10.097 8.098 10.097s-8.155.159-8.155 11.65c0-11.491-8.156-11.65-8.156-11.65s7.393-.153 8.095-10.097zm-12.39 260.309h.114c.674 9.915 7.774 10.068 7.774 10.068s-7.83.159-7.83 11.615c0-11.456-7.83-11.615-7.83-11.615s7.098-.153 7.772-10.068z" fill="#E1E4E5"/><path fill-rule="evenodd" clip-rule="evenodd" d="m555.609 127.302-79.153-34.605a43.177 43.177 0 0 0-33.045-.644l-144.159 56.528c-22.21 8.71-33.14 33.769-24.423 56l110.443 281.652c8.717 22.231 33.767 33.182 55.978 24.473l201.002-78.818c22.211-8.709 33.14-33.769 24.423-56L578.542 151.13a43.247 43.247 0 0 0-22.933-23.828z" fill="#fff" stroke="#E1E4E5" stroke-width="3.498"/><rect x="411.386" y="391.537" width="185.702" height="21.847" rx="10.924" transform="rotate(-21.411 411.386 391.537)" fill="#E1E4E5"/><rect x="395.552" y="351.156" width="185.702" height="21.847" rx="10.924" transform="rotate(-21.411 395.552 351.156)" fill="#E1E4E5"/><rect x="379.678" y="310.675" width="185.702" height="21.847" rx="10.924" transform="rotate(-21.411 379.678 310.675)" fill="#E1E4E5"/><rect x="363.805" y="270.195" width="185.702" height="21.847" rx="10.924" transform="rotate(-21.411 363.805 270.195)" fill="#E1E4E5"/><rect x="347.933" y="229.713" width="185.702" height="21.847" rx="10.924" transform="rotate(-21.411 347.933 229.713)" fill="#E1E4E5"/><rect x="427.337" y="432.216" width="185.702" height="21.847" rx="10.924" transform="rotate(-21.411 427.337 432.216)" fill="#E1E4E5"/><path fill-rule="evenodd" clip-rule="evenodd" d="m205.851 385.542 1.866 5.411c6.462 18.774 26.914 28.749 45.688 22.287s28.749-26.914 22.287-45.688l-1.867-5.411" fill="#133835"/><path fill-rule="evenodd" clip-rule="evenodd" d="m228.058 169.008-4.69-13.614c-5.175-15.009-21.534-22.993-36.559-17.817-15.01 5.176-22.993 21.534-17.833 36.544l4.69 13.614" fill="#009688"/><path fill-rule="evenodd" clip-rule="evenodd" d="M142.88 271.927c-12.783-37.109 6.948-77.558 44.056-90.34l26.882-9.254c37.109-12.782 77.558 6.948 90.34 44.056l14.273 41.469a31.359 31.359 0 0 0 15.903 17.974l12.783 6.226a31.346 31.346 0 0 1 15.903 17.974c5.333 15.48-2.901 32.356-18.381 37.689l-158.958 54.737c-15.48 5.333-32.356-2.901-37.688-18.381a31.384 31.384 0 0 1 1.458-23.966l6.227-12.782a31.313 31.313 0 0 0 1.458-23.965l-14.256-41.437z" fill="#009688"/><path d="M747.954 508.888 725 467" stroke="#009688" stroke-width="19.032" stroke-linecap="round" stroke-linejoin="round"/><circle cx="678.57" cy="375.58" r="97.397" transform="rotate(17.98 678.57 375.58)" fill="#fff" stroke="#009688" stroke-width="17.457" stroke-linecap="round" stroke-linejoin="round"/><defs><linearGradient id="a" x1="430.774" y1="732.179" x2="439.776" y2="-146.307" gradientUnits="userSpaceOnUse"><stop stop-color="#fff"/><stop offset="1" stop-color="#EEE"/></linearGradient><linearGradient id="b" x1="643.662" y1="318.964" x2="554.282" y2="-82.67" gradientUnits="userSpaceOnUse"><stop stop-color="#fff"/><stop offset="1" stop-color="#EEE"/></linearGradient><linearGradient id="c" x1="701.624" y1="319.983" x2="900.562" y2="162.623" gradientUnits="userSpaceOnUse"><stop stop-color="#fff"/><stop offset="1" stop-color="#EEE"/></linearGradient><linearGradient id="d" x1="207.18" y1="418.08" x2=".266" y2="225.83" gradientUnits="userSpaceOnUse"><stop stop-color="#fff"/><stop offset="1" stop-color="#EEE"/></linearGradient></defs></svg>