<svg width="900" height="600" viewBox="0 0 900 600" fill="none" xmlns="http://www.w3.org/2000/svg"><path fill="transparent" d="M0 0h900v600H0z"/><rect x="210.486" y="58.243" width="484.514" height="484.514" rx="242.257" fill="#009688"/><mask id="a" mask-type="alpha" maskUnits="userSpaceOnUse" x="205" y="58" width="485" height="485"><rect x="205" y="58.244" width="484.514" height="484.514" rx="242.257" fill="#009688"/></mask><g opacity=".5" stroke="#fff" stroke-width="2.917" mask="url(#a)"><path d="M-32.918 174.886c-33.04 54.239-54.666 115.415-63.066 178.389-5.197 38.96-3.374 83.643 25.266 110.52 21.464 20.147 53.103 25.16 82.502 24.077 29.4-1.083 58.633-7.271 88-5.542 29.366 1.731 60.464 13.34 75.363 38.742 14.1 24.038 10.589 53.984 8.86 81.808-1.724 27.827.351 59.415 21.322 77.75 29.7 25.965 78.092 9.921 113.102 28.074 33.207 17.218 46.691 61.144 80.906 76.25 28.6 12.629 61.518.893 90.442-10.963a9725.27 9725.27 0 0 0 90.272-37.541"/><path d="M1.588 138.996C-30.75 191.971-51.92 251.718-60.144 313.224c-5.086 38.051-3.301 81.692 24.733 107.944 21.008 19.676 51.978 24.572 80.755 23.512 28.775-1.056 57.39-7.1 86.137-5.41 28.747 1.69 59.186 13.029 73.769 37.836 13.802 23.48 10.365 52.726 8.673 79.903-1.689 27.177.341 58.026 20.87 75.935 29.072 25.36 76.44 9.69 110.709 27.42 32.503 16.816 45.702 59.717 79.195 74.473 27.991 12.33 60.214.871 88.528-10.709a9583.686 9583.686 0 0 0 88.359-36.665"/><path d="M34.301 103.105c-31.64 51.87-52.352 110.368-60.395 170.589-4.979 37.257-3.232 79.985 24.195 105.688 20.556 19.264 50.857 24.057 79.01 23.021 28.155-1.036 56.151-6.952 84.275-5.298 28.125 1.655 57.905 12.756 72.174 37.046 13.504 22.988 10.139 51.623 8.487 78.233-1.655 26.608.331 56.814 20.418 74.348 28.443 24.83 74.785 9.487 108.315 26.849 31.8 16.465 44.715 58.467 77.48 72.914 27.388 12.075 58.913.853 86.615-10.485a9373.061 9373.061 0 0 0 86.45-35.899"/><path d="M68.636 67.216C37.78 117.819 17.586 174.892 9.74 233.643c-4.854 36.348-3.15 78.034 23.594 103.11 20.046 18.795 49.592 23.472 77.045 22.461 27.455-1.011 54.755-6.784 82.18-5.168 27.426 1.613 56.466 12.443 70.379 36.141 13.17 22.429 9.89 50.364 8.277 76.324-1.613 25.962.325 55.429 19.908 72.535 27.737 24.223 72.93 9.256 105.624 26.192 31.011 16.064 43.599 57.043 75.554 71.138 26.707 11.781 57.451.833 84.461-10.229a9066.285 9066.285 0 0 0 84.301-35.024"/><path d="M101.349 29.531C71.193 79.028 51.455 134.85 43.787 192.32c-4.743 35.551-3.079 76.326 23.061 100.854 19.59 18.382 48.467 22.957 75.298 21.968 26.833-.988 53.515-6.634 80.319-5.056 26.803 1.58 55.186 12.174 68.784 35.353 12.869 21.937 9.665 49.262 8.087 74.655-1.576 25.393.319 54.216 19.459 70.949 27.108 23.692 71.275 9.052 103.231 25.617 30.306 15.714 42.611 55.796 73.842 69.582 26.101 11.523 56.146.815 82.547-10.005a8864.178 8864.178 0 0 0 82.388-34.257"/><path d="M135.682-6.359c-29.368 48.23-48.591 102.63-56.06 158.626-4.62 34.645-2.998 74.375 22.458 98.276 19.081 17.914 47.203 22.371 73.334 21.408 26.136-.962 52.119-6.465 78.224-4.926 26.103 1.539 53.748 11.861 66.99 34.449 12.534 21.375 9.411 48.004 7.877 72.747-1.535 24.743.307 52.83 18.95 69.135 26.4 23.087 69.414 8.821 100.536 24.964 29.517 15.311 41.501 54.367 71.918 67.802 25.42 11.228 54.68.795 80.393-9.749a8658.497 8658.497 0 0 0 80.24-33.383"/><path d="M170.19-42.249c-28.668 46.967-47.436 99.936-54.726 154.465-4.508 33.736-2.926 72.424 21.926 95.7 18.624 17.442 46.078 21.784 71.588 20.846 25.509-.94 50.876-6.296 76.359-4.797 25.482 1.499 52.467 11.551 65.395 33.545 12.235 20.816 9.188 46.743 7.69 70.838-1.5 24.095.299 51.445 18.499 67.322 25.772 22.482 67.761 8.59 98.142 24.31 28.815 14.909 40.514 52.941 70.204 66.023 24.816 10.934 53.379.774 78.479-9.493a8466.874 8466.874 0 0 0 78.331-32.506"/><path d="M202.901-78.138c-27.968 45.858-46.278 97.58-53.39 150.825-4.399 32.939-2.854 70.718 21.389 93.442 18.172 17.032 44.955 21.272 69.843 20.354 24.887-.913 49.634-6.147 74.498-4.681 24.861 1.462 51.186 11.277 63.799 32.754 11.938 20.324 8.965 45.64 7.502 69.168-1.461 23.526.295 50.232 18.049 65.735 25.144 21.953 66.109 8.387 95.747 23.737 28.112 14.556 39.526 51.695 68.492 64.467 24.211 10.676 52.08.756 76.568-9.269a8260.333 8260.333 0 0 0 76.418-31.741"/><path d="M237.236-114.028c-27.185 44.594-44.977 94.89-51.888 146.663-4.277 32.031-2.776 68.768 20.788 90.867 17.659 16.563 43.69 20.683 67.877 19.792 24.19-.89 48.239-5.977 72.401-4.555 24.164 1.425 49.749 10.967 62.007 31.853 11.602 19.762 8.713 44.383 7.291 67.259-1.421 22.878.286 48.848 17.542 63.922 24.434 21.348 64.249 8.156 93.053 23.082 27.32 14.158 38.415 50.268 66.566 62.689 23.529 10.382 50.613.736 74.413-9.015a7997.238 7997.238 0 0 0 74.27-30.863"/><path d="M269.947-151.713c-26.485 43.488-43.82 92.535-50.552 143.024-4.168 31.236-2.704 67.06 20.252 88.61 17.206 16.151 42.565 20.17 66.132 19.303 23.566-.868 47-5.83 70.537-4.444 23.542 1.39 48.47 10.696 60.412 31.062 11.303 19.273 8.487 43.281 7.105 65.589-1.387 22.312.275 47.635 17.089 62.334 23.807 20.819 62.595 7.955 90.66 22.51 26.619 13.806 37.426 49.021 64.854 61.135 22.924 10.123 49.312.715 72.496-8.792a7764.416 7764.416 0 0 0 72.363-30.097"/><path d="M304.281-187.603c-25.698 42.222-42.518 89.844-49.051 138.863-4.043 30.327-2.625 65.11 19.649 86.032 16.696 15.681 41.304 19.583 64.17 18.741 22.863-.844 45.602-5.66 68.444-4.313 22.84 1.348 47.029 10.385 58.616 30.158 10.967 18.713 8.235 42.021 6.892 63.682-1.343 21.661.271 46.248 16.584 60.521 23.099 20.212 60.736 7.724 87.967 21.855 25.828 13.401 36.315 47.594 62.925 59.354 22.245 9.83 47.85.696 70.346-8.535a7512.644 7512.644 0 0 0 70.211-29.223"/><path d="M338.788-223.492c-24.997 40.957-41.361 87.149-47.718 134.703-3.93 29.416-2.549 63.157 19.118 83.454 16.242 15.21 40.178 18.996 62.422 18.18 22.244-.82 44.362-5.492 66.582-4.184 22.218 1.307 45.746 10.072 57.021 29.253 10.67 18.151 8.011 40.762 6.705 61.775-1.308 21.011.263 44.861 16.132 58.707 22.47 19.604 59.083 7.492 85.574 21.2 25.124 13.002 35.325 46.168 61.213 57.576 21.639 9.534 46.546.675 68.43-8.279a7403.03 7403.03 0 0 0 68.301-28.347"/><path d="M371.501-259.382c-24.298 39.851-40.204 84.795-46.382 131.061-3.824 28.625-2.482 61.451 18.582 81.201 15.786 14.8 39.055 18.483 60.675 17.688 21.621-.798 43.12-5.342 64.72-4.073 21.598 1.274 44.467 9.8 55.426 28.463 10.37 17.662 7.787 39.661 6.518 60.105-1.271 20.444.255 43.651 15.679 57.122 21.845 19.075 57.433 7.29 83.18 20.627 24.422 12.649 34.34 44.92 59.503 56.02 21.033 9.277 45.242.655 66.515-8.055a7092.023 7092.023 0 0 0 66.39-27.582"/><path d="M405.835-295.272c-23.51 38.585-38.904 82.103-44.881 126.9-3.699 27.716-2.401 59.502 17.979 78.622 15.278 14.332 37.79 17.897 58.714 17.126 20.92-.77 41.724-5.172 62.624-3.941 20.898 1.233 43.028 9.488 53.631 27.558 10.035 17.103 7.535 38.405 6.306 58.199-1.229 19.794.247 42.264 15.172 55.306 21.137 18.471 55.572 7.06 80.487 19.973 23.632 12.248 33.227 43.495 57.577 54.242 20.35 8.982 43.778.634 64.363-7.8a6890.033 6890.033 0 0 0 64.24-26.706"/></g><circle cx="450" cy="300.01" r="157" fill="#fff"/><path d="m504.88 267.938-68.95 70.22-41.394-42.125" stroke="#009688" stroke-width="28.445" stroke-linecap="round" stroke-linejoin="round"/></svg>