<svg width="900" height="600" viewBox="0 0 900 600" fill="none" xmlns="http://www.w3.org/2000/svg"><path fill="transparent" d="M0 0h900v600H0z"/><path fill-rule="evenodd" clip-rule="evenodd" d="M667.178 191.808v-58.904c0-32.532-26.372-58.904-58.904-58.904h-294.52c-32.532 0-58.904 26.372-58.904 58.904v147.26" fill="#fff"/><path d="M667.178 191.808v-58.904c0-32.532-26.372-58.904-58.904-58.904h-294.52c-32.532 0-58.904 26.372-58.904 58.904v147.26" stroke="#E1E4E5" stroke-width="4.756"/><path fill-rule="evenodd" clip-rule="evenodd" d="M254.85 202.108h190.407a29.45 29.45 0 0 0 24.504-13.106l41.321-62.114a29.455 29.455 0 0 1 24.593-13.136h131.503c32.532 0 58.904 26.372 58.904 58.904v294.52c0 32.532-26.372 58.904-58.904 58.904H254.85c-32.532 0-58.904-26.372-58.904-58.904V261.012c0-32.532 26.372-58.904 58.904-58.904z" fill="#fff" stroke="#E1E4E5" stroke-width="4.756"/><path d="M558.979 209.418a79.408 79.408 0 0 0-91.423 79.081c.023 3.827.328 7.647.912 11.43" stroke="#fff" stroke-width="22.431" stroke-linecap="round" stroke-linejoin="round"/><path fill-rule="evenodd" clip-rule="evenodd" d="m607.471 107.209-27.62-27.497a19.585 19.585 0 0 0-13.81-5.698h-70.046c-10.792 0-19.533 8.702-19.533 19.446v136.124c0 10.744 8.741 19.447 19.533 19.447h97.666c10.792 0 19.533-8.703 19.533-19.447V120.957a19.41 19.41 0 0 0-5.723-13.748z" fill="#fff" stroke="#E1E4E5" stroke-width="4.818"/><path d="M585.69 138.177h-42.786m42.786 25.941h-42.786m42.786 25.94h-42.786m-28.148-52.962a1.126 1.126 0 1 0 .001 2.253 1.126 1.126 0 0 0-.001-2.253m0 25.896a1.126 1.126 0 1 0 0 2.252 1.126 1.126 0 0 0 0-2.252m0 25.896a1.126 1.126 0 1 0 .001 2.253 1.126 1.126 0 0 0-.001-2.253" stroke="#009688" stroke-width="17.855" stroke-linecap="round" stroke-linejoin="round"/><path fill-rule="evenodd" clip-rule="evenodd" d="m440.092 107.209-27.62-27.497a19.585 19.585 0 0 0-13.81-5.698h-70.046c-10.792 0-19.533 8.702-19.533 19.446v136.124c0 10.744 8.741 19.447 19.533 19.447h97.666c10.792 0 19.533-8.703 19.533-19.447V120.957a19.41 19.41 0 0 0-5.723-13.748z" fill="#fff" stroke="#E1E4E5" stroke-width="4.818"/><path fill-rule="evenodd" clip-rule="evenodd" d="m404.388 176.24-35.613 20.154c-8.768 4.956-19.615-1.415-19.615-11.532v-40.298c0-10.125 10.83-16.487 19.615-11.531l35.613 20.153c8.945 5.045 8.945 17.992 0 23.054z" fill="#009688"/><path fill-rule="evenodd" clip-rule="evenodd" d="m275.857 107.209-27.62-27.497a19.585 19.585 0 0 0-13.81-5.698h-70.046c-10.792 0-19.533 8.702-19.533 19.446v136.124c0 10.744 8.741 19.447 19.533 19.447h97.666c10.792 0 19.533-8.703 19.533-19.447V120.957a19.41 19.41 0 0 0-5.723-13.748z" fill="#fff" stroke="#E1E4E5" stroke-width="4.818"/><rect x="160.344" y="115.033" width="102.092" height="102.092" rx="40.456" fill="#009688" stroke="#fff" stroke-width="20.228" stroke-linecap="round" stroke-linejoin="round"/><path d="M194.965 145.669a2.84 2.84 0 1 1-3.992 0 2.848 2.848 0 0 1 4.012 0m67.452 9.692a54.191 54.191 0 0 0-61.766 61.766" stroke="#fff" stroke-width="14" stroke-linecap="round" stroke-linejoin="round"/><ellipse rx="10.364" ry="9.788" transform="matrix(-1 0 0 1 781.636 516.758)" fill="#E1E4E5"/><circle r="5.342" transform="matrix(-1 0 0 1 155.948 278.554)" fill="#E1E4E5"/><circle r="7.631" transform="matrix(-1 0 0 1 763.934 131.146)" fill="#E1E4E5"/><circle r="7.457" transform="scale(1 -1) rotate(-75 -198.197 -273.347)" fill="#E1E4E5"/><ellipse rx="7.631" ry="6.105" transform="matrix(-1 0 0 1 701.752 80.105)" fill="#E1E4E5"/><path d="M156.567 478.48h.2c1.182 16.75 13.639 17.007 13.639 17.007s-13.736.269-13.736 19.622c0-19.353-13.736-19.622-13.736-19.622s12.451-.257 13.633-17.007zm607.805-219.086h.152c.9 12.948 10.376 13.148 10.376 13.148s-10.45.207-10.45 15.169c0-14.962-10.45-15.169-10.45-15.169s9.473-.2 10.372-13.148z" fill="#E1E4E5"/><circle cx="454.03" cy="349.788" r="145.667" fill="#009688"/><path d="M423.698 325.099v-22.75 0c0-16.751 13.582-30.332 30.333-30.332v0c16.751 0 30.332 13.581 30.332 30.332v22.75" stroke="#fff" stroke-width="6.629" stroke-linecap="round" stroke-linejoin="round"/><path fill-rule="evenodd" clip-rule="evenodd" d="M491.946 408.513h-75.831c-8.38 0-15.167-6.787-15.167-15.166v-53.082c0-8.379 6.787-15.166 15.167-15.166h75.831c8.379 0 15.166 6.787 15.166 15.166v53.082c0 8.379-6.787 15.166-15.166 15.166z" fill="#fff" stroke="#fff" stroke-width="6.629" stroke-linecap="round" stroke-linejoin="round"/><path d="M453.532 385v-19.019m-.021-11.329c-3.088 0-5.594 2.506-5.572 5.594a5.596 5.596 0 0 0 5.594 5.594 5.596 5.596 0 0 0 5.594-5.594c0-3.088-2.506-5.594-5.616-5.594" stroke="#009688" stroke-width="13.833" stroke-linecap="round" stroke-linejoin="round"/></svg>