<svg width="900" height="600" viewBox="0 0 900 600" fill="none" xmlns="http://www.w3.org/2000/svg"><path fill="transparent" d="M0 0h900v600H0z"/><path d="M87 426.607c10.018-4.554 22.769-4.554 32.787 0 10.019 4.553 22.769 4.553 32.788 0 10.018-4.554 22.769-4.554 32.787 0 10.019 4.553 22.769 4.553 32.788 0 10.018-4.554 22.769-4.554 32.787 0m-131.15 29.144c10.019 4.553 22.769 4.553 32.788 0 10.018-4.554 22.769-4.554 32.787 0 10.018 4.553 22.769 4.553 32.787 0M271 426.607c10.018-4.554 22.769-4.554 32.787 0 10.019 4.553 22.769 4.553 32.788 0 10.018-4.554 22.769-4.554 32.787 0 10.019 4.553 22.769 4.553 32.788 0 10.018-4.554 22.769-4.554 32.787 0m-131.15 29.144c10.019 4.553 22.769 4.553 32.788 0 10.018-4.554 22.769-4.554 32.787 0 10.018 4.553 22.769 4.553 32.787 0M462 426.607c10.018-4.554 22.769-4.554 32.787 0 10.019 4.553 22.769 4.553 32.788 0 10.018-4.554 22.769-4.554 32.787 0 10.019 4.553 22.769 4.553 32.788 0 10.018-4.554 22.769-4.554 32.787 0m-131.15 29.144c10.019 4.553 22.769 4.553 32.788 0 10.018-4.554 22.769-4.554 32.787 0 10.018 4.553 22.769 4.553 32.788 0M653 426.607c10.018-4.554 22.769-4.554 32.787 0 10.019 4.553 22.769 4.553 32.788 0 10.018-4.554 22.769-4.554 32.787 0 10.019 4.553 22.769 4.553 32.788 0 10.018-4.554 22.769-4.554 32.787 0m-131.15 29.144c10.019 4.553 22.769 4.553 32.788 0 10.018-4.554 22.769-4.554 32.787 0 10.018 4.553 22.769 4.553 32.788 0m-73.213 60.999c-10.018 4.554-22.769 4.554-32.787 0-10.019-4.553-22.769-4.553-32.788 0-10.018 4.554-22.769 4.554-32.787 0-10.019-4.553-22.769-4.553-32.788 0-10.018 4.554-22.769 4.554-32.787 0m131.15-29.144c-10.018-4.553-22.769-4.553-32.788 0-10.018 4.554-22.769 4.554-32.787 0-10.018-4.553-22.769-4.553-32.787 0m-59.851 29.144c-10.018 4.554-22.769 4.554-32.787 0-10.019-4.553-22.769-4.553-32.788 0-10.018 4.554-22.769 4.554-32.787 0-10.019-4.553-22.769-4.553-32.788 0-10.018 4.554-22.769 4.554-32.787 0m131.15-29.144c-10.018-4.553-22.769-4.553-32.788 0-10.018 4.554-22.769 4.554-32.787 0-10.018-4.553-22.769-4.553-32.787 0m-59.851 29.144c-10.018 4.554-22.769 4.554-32.787 0-10.019-4.553-22.769-4.553-32.788 0-10.018 4.554-22.769 4.554-32.787 0-10.019-4.553-22.769-4.553-32.788 0-10.018 4.554-22.769 4.554-32.787 0m131.15-29.144c-10.018-4.553-22.769-4.553-32.787 0-10.019 4.554-22.77 4.554-32.788 0-10.018-4.553-22.769-4.553-32.787 0" stroke="#E1E4E5" stroke-width="5.5" stroke-linecap="round" stroke-linejoin="round"/><path d="M483.334 246.642c-6.981-.896-6.981-11.005 0-11.902l294.152-37.78c3.587-.461 6.764 2.334 6.764 5.951v75.561c0 3.617-3.177 6.411-6.764 5.951l-294.152-37.781z" fill="url(#a)"/><path d="M417.666 246.642c6.981-.896 6.981-11.005 0-11.902l-294.152-37.78c-3.587-.461-6.764 2.334-6.764 5.951v75.561c0 3.617 3.177 6.411 6.764 5.951l294.152-37.781z" fill="url(#b)"/><path d="M430.397 264.191h41.702l13.901 167h-70l14.397-167z" fill="#009688"/><mask id="c" mask-type="alpha" maskUnits="userSpaceOnUse" x="416" y="264" width="70" height="168"><path d="M430.397 264.191h41.702l13.901 167h-70l14.397-167z" fill="#009688"/></mask><g opacity=".5" stroke="#fff" stroke-width="1.5" mask="url(#c)"><path d="M397.169 355.732a116.677 116.677 0 0 0 17.389 44.574c5.44 8.318 13.169 16.573 23.093 16.988 7.437.313 14.323-3.953 19.773-9.016 5.451-5.063 10.026-11.077 15.935-15.596 5.908-4.519 13.78-7.433 20.829-5.03 6.67 2.274 10.944 8.588 15.209 14.201 4.266 5.613 9.88 11.318 16.924 11.365 9.975.066 16.591-10.999 26.293-13.305 9.202-2.188 19.04 3.995 28.086 1.236 7.562-2.306 11.927-9.99 15.506-17.037a2436.275 2436.275 0 0 0 11.084-22.099"/><path d="M397.848 343.161a113.812 113.812 0 0 0 16.957 43.557c5.311 8.125 12.861 16.187 22.565 16.583 7.272.298 14.011-3.88 19.346-8.836 5.335-4.955 9.816-10.839 15.6-15.264 5.783-4.424 13.484-7.281 20.374-4.939 6.521 2.216 10.693 8.383 14.858 13.866 4.165 5.483 9.65 11.055 16.538 11.093 9.756.054 16.237-10.77 25.727-13.036 9.001-2.148 18.615 3.886 27.465 1.179 7.396-2.262 11.673-9.778 15.182-16.672a2396.617 2396.617 0 0 0 10.862-21.615"/><path d="M398.184 330.886a111.456 111.456 0 0 0 16.612 42.638c5.2 7.956 12.592 15.849 22.089 16.241 7.118.293 13.711-3.794 18.931-8.642 5.22-4.849 9.603-10.606 15.261-14.935 5.659-4.328 13.194-7.121 19.939-4.827 6.382 2.171 10.468 8.21 14.546 13.578 4.078 5.368 9.448 10.823 16.19 10.863 9.547.056 15.886-10.536 25.174-12.75 8.809-2.099 18.219 3.81 26.879 1.164 7.238-2.211 11.421-9.567 14.853-16.314a2386.245 2386.245 0 0 0 10.623-21.152"/><path d="M398.83 318.343a108.775 108.775 0 0 0 16.212 41.594c5.074 7.762 12.286 15.462 21.548 15.846 6.943.288 13.373-3.697 18.462-8.425 5.09-4.728 9.364-10.343 14.882-14.563 5.518-4.221 12.867-6.944 19.445-4.704 6.227 2.119 10.213 8.009 14.192 13.247 3.979 5.237 9.217 10.559 15.792 10.6 9.312.057 15.493-10.274 24.551-12.431 8.591-2.046 17.769 3.721 26.216 1.142 7.06-2.156 11.138-9.33 14.483-15.909a2322.537 2322.537 0 0 0 10.356-20.63"/><path d="M398.869 305.724a106.45 106.45 0 0 0 15.867 40.677c4.963 7.591 12.017 15.123 21.073 15.502 6.787.284 13.072-3.61 18.046-8.231 4.975-4.621 9.151-10.109 14.544-14.234 5.393-4.124 12.578-6.784 19.01-4.592 6.087 2.075 9.987 7.836 13.879 12.959 3.892 5.122 9.016 10.328 15.444 10.371 9.104.059 15.143-10.04 23.998-12.146 8.398-1.997 17.375 3.645 25.632 1.127 6.9-2.105 10.885-9.118 14.153-15.55a2272.262 2272.262 0 0 0 10.117-20.168"/><path d="M399.516 293.181a103.773 103.773 0 0 0 15.466 39.632c4.838 7.397 11.71 14.736 20.532 15.108 6.613.279 12.733-3.513 17.578-8.013 4.845-4.501 8.911-9.847 14.164-13.864 5.252-4.017 12.25-6.606 18.517-4.468 5.93 2.022 9.731 7.637 13.524 12.628 3.793 4.991 8.784 10.064 15.047 10.107 8.868.06 14.748-9.776 23.374-11.825 8.18-1.944 16.926 3.555 24.969 1.103 6.722-2.048 10.601-8.879 13.783-15.145 3.316-6.532 6.599-13.08 9.85-19.645"/><path d="M400.195 280.609a100.906 100.906 0 0 0 15.034 38.616c4.709 7.204 11.402 14.35 20.005 14.702 6.447.264 12.421-3.44 17.151-7.833 4.729-4.393 8.701-9.608 13.828-13.53 5.127-3.922 11.954-6.455 18.062-4.379 5.781 1.965 9.48 7.433 13.173 12.294 3.693 4.861 8.555 9.801 14.662 9.835 8.648.048 14.393-9.548 22.807-11.556 7.98-1.904 16.501 3.446 24.347 1.047 6.558-2.006 10.349-8.669 13.459-14.78a2129.268 2129.268 0 0 0 9.629-19.163"/><path d="M400.53 268.334a98.593 98.593 0 0 0 14.689 37.698c4.599 7.034 11.134 14.012 19.53 14.359 6.292.26 12.121-3.352 16.735-7.639 4.614-4.285 8.488-9.375 13.491-13.201 5.002-3.826 11.663-6.295 17.626-4.266 5.642 1.92 9.255 7.258 12.861 12.005 3.606 4.746 8.353 9.569 14.313 9.605 8.44.051 14.044-9.313 22.254-11.269 7.787-1.857 16.107 3.369 23.762 1.031 6.399-1.955 10.097-8.458 13.13-14.422 3.161-6.217 6.291-12.45 9.39-18.7"/><path d="M401.177 255.791a95.869 95.869 0 0 0 14.289 36.653c4.471 6.84 10.827 13.626 18.989 13.965 6.117.255 11.781-3.256 16.265-7.421 4.485-4.166 8.25-9.112 13.111-12.831 4.862-3.718 11.337-6.117 17.134-4.143 5.486 1.868 8.999 7.059 12.505 11.674 3.507 4.616 8.123 9.306 13.917 9.342 8.205.052 13.649-9.05 21.63-10.95 7.569-1.801 15.658 3.28 23.1 1.009 6.22-1.898 9.812-8.219 12.759-14.017a2041.539 2041.539 0 0 0 9.123-18.176"/><path d="M401.216 243.173a93.538 93.538 0 0 0 13.943 35.735c4.362 6.669 10.559 13.287 18.514 13.622 5.962.25 11.481-3.169 15.851-7.228 4.369-4.058 8.036-8.879 12.772-12.501 4.737-3.623 11.047-5.958 16.698-4.031 5.347 1.824 8.773 6.886 12.193 11.385 3.42 4.501 7.921 9.076 13.568 9.113 7.997.054 13.3-8.816 21.077-10.664 7.377-1.753 15.263 3.204 22.516.994 6.061-1.848 9.56-8.008 12.429-13.658 2.991-5.89 5.952-11.795 8.884-17.715"/><path d="M401.862 230.63a90.855 90.855 0 0 0 13.544 34.69c4.235 6.475 10.251 12.901 17.972 13.228 5.787.245 11.143-3.073 15.382-7.011 4.239-3.938 7.797-8.616 12.393-12.13 4.596-3.515 10.72-5.78 16.205-3.908 5.191 1.772 8.517 6.686 11.838 11.056 3.32 4.369 7.69 8.81 13.171 8.849 7.762.054 12.906-8.553 20.454-10.345 7.159-1.7 14.814 3.115 21.852.971 5.883-1.792 9.277-7.77 12.06-13.253a1900.93 1900.93 0 0 0 8.616-17.192"/><path d="M402.541 218.058a88.004 88.004 0 0 0 13.112 33.674c4.107 6.282 9.944 12.514 17.445 12.822 5.622.23 10.831-2.999 14.955-6.829 4.124-3.831 7.587-8.379 12.058-11.799 4.47-3.419 10.423-5.627 15.75-3.817 5.041 1.713 8.266 6.482 11.487 10.721 3.22 4.239 7.46 8.546 12.785 8.576 7.541.043 12.551-8.324 19.887-10.075 6.958-1.66 14.39 3.006 21.231.914 5.718-1.748 9.023-7.559 11.735-12.888a1875.034 1875.034 0 0 0 8.396-16.709"/><path d="M402.877 205.783a85.667 85.667 0 0 0 12.766 32.756c3.996 6.113 9.675 12.176 16.97 12.479 5.467.226 10.531-2.912 14.539-6.635 4.009-3.724 7.375-8.145 11.72-11.47 4.346-3.323 10.133-5.468 15.314-3.705 4.903 1.669 8.042 6.308 11.176 10.432 3.133 4.125 7.258 8.316 12.436 8.348 7.334.044 12.201-8.09 19.334-9.789 6.766-1.612 13.995 2.929 20.646.898 5.56-1.698 8.771-7.347 11.406-12.529a1784.812 1784.812 0 0 0 8.156-16.246"/><path d="M403.523 193.24a82.981 82.981 0 0 0 12.366 31.711c3.87 5.918 9.369 11.79 16.429 12.085 5.293.221 10.192-2.815 14.071-6.419 3.878-3.602 7.135-7.881 11.34-11.098 4.205-3.216 9.806-5.29 14.821-3.581 4.746 1.617 7.786 6.108 10.82 10.102 3.034 3.993 7.028 8.051 12.04 8.083 7.098.046 11.806-7.827 18.71-9.47 6.548-1.558 13.546 2.841 19.984.876 5.38-1.641 8.487-7.109 11.035-12.124a1734.38 1734.38 0 0 0 7.889-15.724"/></g><path fill="#009688" d="M430 222.191h42v34h-42z"/><rect x="424" y="253.191" width="54" height="14" rx="7" fill="#133835"/><rect x="424" y="215.191" width="54" height="14" rx="7" fill="#133835"/><rect x="433" y="205.191" width="36" height="14" rx="7" fill="#133835"/><rect x="439" y="194.191" width="24" height="14" rx="7" fill="#133835"/><mask id="d" mask-type="alpha" maskUnits="userSpaceOnUse" x="370" y="364" width="161" height="70"><path fill="#133835" d="M370 364.191h161v69H370z"/></mask><g mask="url(#d)"><ellipse cx="450.5" cy="450.191" rx="75.5" ry="53" fill="#133835"/></g><path fill-rule="evenodd" clip-rule="evenodd" d="M657.975 168.347c8.9 0 4.736-14.113-6.539-10.742-.624-19.596-32.565-33.934-45.773-7.504-3.734-2.954-12.119 2.627-10.262 7.504-4.148.353-7.411.833-9.95 1.469-5.862 1.467-4.702 9.206 1.341 9.152l71.183.121zm-377.655-5.568c8.9 0 4.736-14.113-6.539-10.742-.625-19.595-32.565-33.933-45.773-7.503-3.734-2.955-12.119 2.626-10.262 7.503-4.148.354-7.411.834-9.95 1.469-5.862 1.468-4.702 9.207 1.341 9.153l71.183.12zM568.729 119c7.894 0 4.201-12.526-5.799-9.534-.554-17.393-28.882-30.12-40.596-6.66-3.311-2.623-10.748 2.331-9.101 6.66-3.679.313-6.573.739-8.825 1.303-5.199 1.303-4.17 8.172 1.189 8.124l63.132.107zm-61.553 62.457h47.9c4.282 0 6.127-5.587 2.623-8.065l-.148-.105c-4.99-3.455-11.539-3.142-11.539-3.142s-.934-18.697-18.553-18.697c-15.93 0-22.282 15.754-24.573 24.433-.745 2.82 1.394 5.576 4.29 5.576zm220.198-28.153h-39.123c-3.498 0-5.005-4.492-2.142-6.484.039-.028.08-.057.121-.084 4.075-2.778 9.424-2.526 9.424-2.526s.763-15.031 15.154-15.031c13.011 0 18.199 12.665 20.07 19.642.608 2.267-1.139 4.483-3.504 4.483zm-294.43-6.179h47.9c4.282 0 6.127-5.587 2.623-8.065l-.148-.105c-4.99-3.456-11.539-3.142-11.539-3.142s-.934-18.697-18.553-18.697c-15.93 0-22.282 15.754-24.573 24.433-.745 2.82 1.394 5.576 4.29 5.576zm-258.018 8.963h-32.863c-2.938 0-4.204-3.801-1.8-5.487l.102-.071c3.423-2.351 7.916-2.137 7.916-2.137s.641-12.719 12.729-12.719c10.929 0 15.288 10.716 16.86 16.621.51 1.918-.957 3.793-2.944 3.793zm73.828-51.963h32.863c2.939 0 4.205-3.8 1.8-5.486a3.158 3.158 0 0 0-.102-.072c-3.423-2.35-7.916-2.136-7.916-2.136s-.641-12.72-12.729-12.72c-10.929 0-15.287 10.717-16.859 16.621-.511 1.918.957 3.793 2.943 3.793zm86.699 32.477h-32.864c-2.938 0-4.204-3.801-1.799-5.487l.101-.071c3.424-2.351 7.917-2.137 7.917-2.137s.641-12.719 12.729-12.719c10.929 0 15.287 10.716 16.859 16.621.511 1.918-.957 3.793-2.943 3.793zM185.048 119h32.887c2.94 0 4.207-3.91 1.801-5.644a3.79 3.79 0 0 0-.102-.074c-3.426-2.418-7.922-2.198-7.922-2.198S211.07 98 198.974 98c-10.937 0-15.299 11.024-16.872 17.098-.511 1.973.958 3.902 2.946 3.902zm214.781 64.368h-64.258c-5.202 0-7.446-6.585-3.187-9.507l.18-.123c6.063-4.073 14.019-3.703 14.019-3.703S347.72 148 369.127 148c10.583 0 19.136 17.684 19.136 17.684s14.397 0 16.78 11.111c.72 3.366-1.694 6.573-5.214 6.573zm13.919-68H349.49c-5.202 0-7.446-6.585-3.187-9.507l.18-.123c6.062-4.073 14.019-3.703 14.019-3.703S361.638 80 383.045 80c10.583 0 19.137 17.684 19.137 17.684s14.397 0 16.78 11.111c.72 3.366-1.695 6.573-5.214 6.573zm192.401.82h66.569c6.249 0 5.962-5.037 3.921-6.792-2.092-1.799-6.226-1.07-6.226-1.07s-1.23-3.388-5.281-5.037c-3.583-1.459-7.337-.765-7.337-.765s0-2.325-2.294-4.251c-2.294-1.926-5.353-1.739-5.353-1.739s-2.103-12.822-16.155-12.822c-14.052 0-15.677 12.073-15.677 12.073s-3.155 0-5.449 2.06c-2.294 2.058-2.581 4.398-2.581 4.398s-7.673-1.012-9.942 5.468c-1.352 3.862 1.426 8.477 5.805 8.477z" fill="#fff" stroke="#E1E4E5" stroke-width="4"/><defs><linearGradient id="a" x1="1159.58" y1="238.495" x2="-63.482" y2="302.503" gradientUnits="userSpaceOnUse"><stop stop-color="#fff"/><stop offset="1" stop-color="#EEE"/></linearGradient><linearGradient id="b" x1="-258.585" y1="238.495" x2="964.482" y2="302.503" gradientUnits="userSpaceOnUse"><stop stop-color="#fff"/><stop offset="1" stop-color="#EEE"/></linearGradient></defs></svg>