<svg width="900" height="600" viewBox="0 0 900 600" fill="none" xmlns="http://www.w3.org/2000/svg"><path fill="transparent" d="M0 0h900v600H0z"/><path d="M629.274 461.644c-9.534 54.188-139.445 138.683-259.038 68.437-55.62-32.673-43.314-62.584-79.394-114.162-21.507-30.741-56.271-58.287-58.883-96.313-2.262-32.823 11.148-64.422 32.396-82.063 47.787-39.675 129.321-55.498 184.46 37.328 55.138 92.826 205.031 47.016 180.459 186.773z" fill="url(#a)"/><path d="M726.057 194.065c-10.597 18.914-33.807 21.513-70.991 17.919-27.965-2.709-53.467-4.804-81.435-20.052-19.575-10.665-35.07-25.095-46.379-39.109-12.256-15.183-29.361-32.509-20.976-49.724 11.524-23.647 78.167-43.563 142.879-10.994 71.086 35.788 87.27 83.475 76.902 101.96z" fill="url(#b)"/><path d="M813.806 278.279c-25.491 12.644-59.323-3.614-59.323-3.614s7.519-36.753 33.023-49.379c25.49-12.645 59.309 3.596 59.309 3.596s-7.519 36.752-33.009 49.397z" fill="url(#c)"/><path d="M88.208 368.963c27.176 16.288 66.167 1.231 66.167 1.231s-5.099-41.46-32.292-57.729c-27.177-16.289-66.15-1.25-66.15-1.25s5.098 41.46 32.275 57.748z" fill="url(#d)"/><circle cx="763.65" cy="193.549" r="13.918" transform="rotate(180 763.65 193.549)" fill="#009688"/><circle cx="582.524" cy="438.601" r="21.845" transform="rotate(180 582.524 438.601)" fill="#009688"/><circle cx="318.046" cy="200.567" r="11.458" transform="rotate(180 318.046 200.567)" fill="#009688"/><circle r="13.048" transform="matrix(-1 0 0 1 189.077 334.102)" fill="#009688"/><circle r="6.089" transform="matrix(-1 0 0 1 658.996 245.622)" fill="#009688"/><circle r="7.829" transform="matrix(-1 0 0 1 648.052 494.662)" fill="#E1E4E5"/><circle r="11.309" transform="matrix(-1 0 0 1 132.198 438.62)" fill="#E1E4E5"/><circle r="8.607" transform="matrix(-1 0 0 1 772.17 417.341)" fill="#E1E4E5"/><circle r="9.569" transform="matrix(-1 0 0 1 680.835 151.273)" fill="#E1E4E5"/><circle r="8.593" transform="scale(1 -1) rotate(-75 -90.274 -232.956)" fill="#E1E4E5"/><circle r="11.431" transform="matrix(-1 0 0 1 380.165 91.684)" fill="#E1E4E5"/><ellipse rx="8.793" ry="7.035" transform="matrix(-1 0 0 1 740.844 369.666)" fill="#E1E4E5"/><circle r="17.883" transform="scale(1 -1) rotate(-75 237.36 -413.145)" fill="#E1E4E5"/><path d="M197.253 200.632h.125c.742 10.51 8.558 10.672 8.558 10.672s-8.619.168-8.619 12.312c0-12.144-8.619-12.312-8.619-12.312s7.813-.162 8.555-10.672zm-13.094 275.105h.12c.712 10.478 8.216 10.64 8.216 10.64s-8.275.167-8.275 12.275c0-12.108-8.275-12.275-8.275-12.275s7.501-.162 8.214-10.64z" fill="#E1E4E5"/><path d="m609.381 438.949-52.489-37.792m-229.297 37.33-37.792 52.489" stroke="#133835" stroke-width="30.355" stroke-linecap="round" stroke-linejoin="round"/><path fill-rule="evenodd" clip-rule="evenodd" d="M338.965 170.935c76.034-47.049 175.793-23.554 222.841 52.48 47.049 76.033 23.535 175.795-52.482 222.821-76.034 47.048-175.796 23.534-222.821-52.483-47.046-76.014-23.555-175.792 52.462-222.818z" fill="#009688"/><path d="M338.965 170.935c76.034-47.049 175.793-23.554 222.841 52.48 47.049 76.033 23.535 175.795-52.482 222.821-76.034 47.048-175.796 23.534-222.821-52.483-47.046-76.014-23.555-175.792 52.462-222.818" stroke="#009688" stroke-width="30.355" stroke-linecap="round" stroke-linejoin="round"/><path d="M302.336 125.416c-25.014-2.899-50.792 7.141-66.544 29.019-13.558 18.856-16.393 41.994-10.16 62.651m256.17-120.887c22.802-10.684 50.414-9.335 72.292 6.417 18.859 13.578 28.887 34.622 29.528 56.189" stroke="#133835" stroke-width="30.355" stroke-linecap="round" stroke-linejoin="round"/><path d="m370.628 336.594 52.501-8.547.004.027-43.953 61.047-.024-.145 52.5-8.547m19.335-153.076 52.5-8.547.005.026-43.954 61.047-.023-.144 52.5-8.547m-175.028-51.835 52.5-8.547.005.026-43.954 61.047-.023-.144 52.5-8.547" stroke="#fff" stroke-width="18" stroke-linecap="round" stroke-linejoin="round"/><path d="M641.34 528.681s-27.246-36.66-49.196-45.908c-21.718-9.149-82.137-21.435-121.236-51.952a1.99 1.99 0 0 1-.563-2.477c1.556-3.005 6.687-8.917 22.413-3.996 20.46 6.44 36.252 10.965 36.252 10.965s-46.747-79.892-57.804-102.483c-2.185-4.459-3.443-8.29-4.039-11.626-1.854-10.403 12.249-15.522 17.712-6.473l31.981 52.943s-.298-7.035 5.33-9.842c5.33-2.643 15.692 2.377 20.228 10.965 0 0 .331-7.927 8.409-9.314 8.078-1.387 15.99 6.869 19.003 11.658 0 0-1.324-7.629 4.205-10.304 5.528-2.675 16.42 4.293 19.003 7.431 2.582 3.138 28.571 25.398 50.156 74.047l58.036 36.561s2.582 25.794-59.89 49.805z" fill="#F8AE9D"/><defs><linearGradient id="a" x1="429.676" y1="753.345" x2="439.189" y2="-175.072" gradientUnits="userSpaceOnUse"><stop stop-color="#fff"/><stop offset="1" stop-color="#EEE"/></linearGradient><linearGradient id="b" x1="654.664" y1="316.644" x2="560.205" y2="-107.818" gradientUnits="userSpaceOnUse"><stop stop-color="#fff"/><stop offset="1" stop-color="#EEE"/></linearGradient><linearGradient id="c" x1="715.92" y1="317.72" x2="926.165" y2="151.416" gradientUnits="userSpaceOnUse"><stop stop-color="#fff"/><stop offset="1" stop-color="#EEE"/></linearGradient><linearGradient id="d" x1="193.375" y1="421.393" x2="-25.3" y2="218.216" gradientUnits="userSpaceOnUse"><stop stop-color="#fff"/><stop offset="1" stop-color="#EEE"/></linearGradient></defs></svg>