<svg width="900" height="600" viewBox="0 0 900 600" fill="none" xmlns="http://www.w3.org/2000/svg"><path fill="transparent" d="M0 0h900v600H0z"/><path d="M616.136 448.928c-8.834 50.073-129.219 128.152-240.042 63.24-51.542-30.192-40.138-57.832-73.573-105.492-19.929-28.407-52.144-53.861-54.564-88.999-2.097-30.331 10.33-59.53 30.02-75.832 44.283-36.662 119.838-51.283 170.933 34.494 51.096 85.776 189.997 43.445 167.226 172.589z" fill="url(#a)"/><path d="M705.822 201.67c-9.82 17.477-31.328 19.878-65.786 16.557-25.914-2.502-49.546-4.439-75.462-18.529-18.14-9.855-32.499-23.189-42.979-36.139-11.357-14.029-27.208-30.041-19.437-45.948 10.679-21.85 72.434-40.254 132.401-10.159 65.873 33.07 80.87 77.136 71.263 94.218z" fill="url(#b)"/><path d="M787.137 279.488c-23.621 11.684-54.972-3.34-54.972-3.34s6.967-33.961 30.601-45.629c23.621-11.685 54.959 3.323 54.959 3.323s-6.967 33.961-30.588 45.646z" fill="url(#c)"/><path d="M114.746 363.285c25.184 15.051 61.315 1.137 61.315 1.137s-4.725-38.311-29.924-53.345c-25.184-15.051-61.3-1.154-61.3-1.154s4.725 38.311 29.909 53.362z" fill="url(#d)"/><ellipse cx="740.659" cy="201.192" rx="12.898" ry="12.861" transform="rotate(180 740.659 201.192)" fill="#009688"/><ellipse cx="572.814" cy="427.636" rx="20.243" ry="20.186" transform="rotate(180 572.814 427.636)" fill="#009688"/><ellipse cx="327.73" cy="207.678" rx="10.617" ry="10.588" transform="rotate(180 327.73 207.678)" fill="#009688"/><ellipse rx="12.091" ry="12.057" transform="matrix(-1 0 0 1 208.219 331.071)" fill="#009688"/><ellipse rx="5.643" ry="5.627" transform="matrix(-1 0 0 1 643.679 249.311)" fill="#009688"/><ellipse rx="7.255" ry="7.234" transform="matrix(-1 0 0 1 633.538 479.439)" fill="#E1E4E5"/><ellipse rx="10.479" ry="10.45" transform="matrix(-1 0 0 1 155.51 427.653)" fill="#E1E4E5"/><ellipse rx="7.976" ry="7.953" transform="matrix(-1 0 0 1 748.554 407.989)" fill="#E1E4E5"/><ellipse rx="8.867" ry="8.842" transform="matrix(-1 0 0 1 663.916 162.127)" fill="#E1E4E5"/><ellipse rx="7.942" ry="7.961" transform="matrix(.2595 .96574 .9661 -.25814 179.522 262.469)" fill="#E1E4E5"/><ellipse rx="10.593" ry="10.563" transform="matrix(-1 0 0 1 385.294 107.062)" fill="#E1E4E5"/><ellipse rx="8.148" ry="6.5" transform="matrix(-1 0 0 1 719.525 363.935)" fill="#E1E4E5"/><ellipse rx="16.528" ry="16.569" transform="matrix(.2595 .96574 .9661 -.25814 565.837 93.442)" fill="#E1E4E5"/><path d="M215.795 207.738h.116c.687 9.711 7.93 9.861 7.93 9.861s-7.987.155-7.987 11.377c0-11.222-7.987-11.377-7.987-11.377s7.24-.15 7.928-9.861zm-12.134 254.213h.111c.66 9.683 7.614 9.832 7.614 9.832s-7.668.155-7.668 11.343c0-11.188-7.668-11.343-7.668-11.343s6.951-.149 7.611-9.832z" fill="#E1E4E5"/><path d="m626.208 496.015-50.081-50.08m-254.39 0-50.08 50.08" stroke="#133835" stroke-width="31.125" stroke-linecap="round" stroke-linejoin="round"/><path fill-rule="evenodd" clip-rule="evenodd" d="M381.081 158.776c66.233-27.445 142.477-12.289 193.178 38.401 50.701 50.69 65.874 126.931 38.443 193.17-27.432 66.239-92.064 109.435-163.758 109.435-71.694 0-136.331-43.182-163.768-109.419-37.462-90.434 5.474-194.115 95.905-231.587z" fill="#009688"/><path d="M381.081 158.776c66.233-27.445 142.477-12.289 193.178 38.401 50.701 50.69 65.874 126.931 38.442 193.17-27.431 66.239-92.063 109.435-163.757 109.435S312.613 456.6 285.176 390.363c-37.462-90.434 5.474-194.115 95.905-231.587" stroke="#009688" stroke-width="31.125" stroke-linecap="round" stroke-linejoin="round"/><path d="M349.215 103.966a77.844 77.844 0 0 0-99.044 85.592m298.47-85.594a77.862 77.862 0 0 1 99.045 85.592" stroke="#133835" stroke-width="31.125" stroke-linecap="round" stroke-linejoin="round"/><path d="M516.193 282.214 432.18 365.49l-50.509-49.946" stroke="#fff" stroke-width="31.125" stroke-linecap="round" stroke-linejoin="round"/><defs><linearGradient id="a" x1="431.175" y1="718.477" x2="439.941" y2="-139.436" gradientUnits="userSpaceOnUse"><stop stop-color="#fff"/><stop offset="1" stop-color="#EEE"/></linearGradient><linearGradient id="b" x1="639.664" y1="314.939" x2="552.601" y2="-77.393" gradientUnits="userSpaceOnUse"><stop stop-color="#fff"/><stop offset="1" stop-color="#EEE"/></linearGradient><linearGradient id="c" x1="696.429" y1="315.934" x2="890.833" y2="161.726" gradientUnits="userSpaceOnUse"><stop stop-color="#fff"/><stop offset="1" stop-color="#EEE"/></linearGradient><linearGradient id="d" x1="212.201" y1="411.734" x2="10.091" y2="223.417" gradientUnits="userSpaceOnUse"><stop stop-color="#fff"/><stop offset="1" stop-color="#EEE"/></linearGradient></defs></svg>