<svg width="900" height="600" viewBox="0 0 900 600" fill="none" xmlns="http://www.w3.org/2000/svg"><path fill="transparent" d="M0 0h900v600H0z"/><path d="M177.15 376.307c3.12 79.164 172.144 224.862 356.379 147.764 85.686-35.86 73.912-80.922 135.373-147.537 36.635-39.704 91.569-72.284 102.652-126.037 9.577-46.399-3.444-94.08-30.351-123.364-60.511-65.856-173.791-104.207-270.425 17.579-96.634 121.786-301.653 27.423-293.628 231.595z" fill="url(#a)"/><mask id="b" mask-type="alpha" maskUnits="userSpaceOnUse" x="176" y="65" width="599" height="481"><path d="M177.15 376.307c3.12 79.164 172.144 224.862 356.379 147.764 85.686-35.86 73.912-80.922 135.373-147.537 36.635-39.704 91.569-72.284 102.652-126.037 9.577-46.399-3.444-94.08-30.351-123.364-60.511-65.856-173.791-104.207-270.425 17.579-96.634 121.786-301.653 27.423-293.628 231.595z" fill="#009688"/></mask><g mask="url(#b)" stroke="#fff" stroke-width="4.556"><path d="M2.308 223.122c-38.46 63.139-63.636 134.353-73.414 207.66-6.05 45.352-3.927 97.366 29.412 128.654 24.986 23.453 61.816 29.288 96.04 28.027 34.222-1.261 68.252-8.463 102.437-6.451 34.186 2.015 70.386 15.529 87.73 45.099 16.413 27.982 12.326 62.841 10.314 95.232-2.008 32.392.408 69.164 24.82 90.506 34.573 30.225 90.905 11.549 131.66 32.682 38.655 20.042 54.353 71.176 94.182 88.76 33.291 14.701 71.611 1.04 105.281-12.762a11290.995 11290.995 0 0 0 105.084-43.701"/><path d="M42.475 181.344c-37.642 61.667-62.287 131.218-71.86 202.815-5.92 44.295-3.843 95.096 28.791 125.656 24.455 22.905 60.507 28.605 94.005 27.37 33.497-1.229 66.808-8.265 100.271-6.298 33.464 1.968 68.897 15.167 85.873 44.045 16.067 27.333 12.066 61.377 10.097 93.013-1.967 31.636.395 67.548 24.294 88.395 33.842 29.521 88.982 11.28 128.874 31.919 37.836 19.575 53.201 69.515 92.189 86.692 32.584 14.354 70.094 1.014 103.054-12.466a11151.44 11151.44 0 0 0 102.857-42.68"/><path d="M116.327 39.33c-35.918 58.907-59.425 125.344-68.56 193.735-5.65 42.313-3.667 90.839 27.467 120.029 23.335 21.878 57.728 27.324 89.686 26.146 31.96-1.177 63.74-7.897 95.665-6.016 31.925 1.879 65.73 14.485 81.927 42.072 15.33 26.109 11.512 58.628 9.634 88.847-1.878 30.222.378 64.524 23.174 84.436 32.288 28.198 84.897 10.776 122.956 30.49 36.099 18.7 50.753 66.403 87.951 82.811 31.088 13.713 66.877.969 98.318-11.907a10557.665 10557.665 0 0 0 98.134-40.772"/><path d="M176.414-10.724c-35.104 57.618-58.081 122.599-67.007 189.498-5.521 41.384-3.584 88.849 26.845 117.402 22.804 21.399 56.419 26.724 87.652 25.572 31.237-1.149 62.297-7.722 93.498-5.885 31.201 1.84 64.242 14.172 80.07 41.154 14.982 25.537 11.252 57.345 9.415 86.904-1.835 29.56.371 63.112 22.651 82.591 31.557 27.579 82.97 10.537 120.169 29.82 35.279 18.292 49.604 64.951 85.958 81 30.384 13.413 65.36.948 96.092-11.647a10299.735 10299.735 0 0 0 95.907-39.879"/><path d="M258.041-144.594c-31.645 51.91-52.358 110.46-60.402 170.728-4.979 37.287-3.232 80.051 24.199 105.776 20.557 19.281 50.858 24.077 79.014 23.04 28.159-1.037 56.155-6.958 84.281-5.302 28.128 1.658 57.912 12.766 72.181 37.079 13.506 23.005 10.142 51.665 8.488 78.295-1.655 26.631.333 56.862 20.419 74.41 28.444 24.851 74.792 9.495 108.322 26.87 31.803 16.48 44.719 58.516 77.488 72.975 27.39 12.085 58.918.856 86.623-10.495a9304.986 9304.986 0 0 0 86.456-35.926"/><path d="M321.618-185.337c-30.83 50.624-51.01 107.718-58.846 166.492-4.852 36.36-3.148 78.063 23.575 103.15 20.029 18.8 49.548 23.479 76.983 22.47 27.432-1.012 54.711-6.788 82.111-5.174 27.404 1.617 56.423 12.45 70.324 36.158 13.158 22.435 9.88 50.383 8.271 76.352-1.614 25.972.32 55.45 19.893 72.562 27.713 24.234 72.866 9.259 105.536 26.202 30.986 16.072 43.567 57.065 75.495 71.166 26.685 11.785 57.403.834 84.391-10.233a9048.558 9048.558 0 0 0 84.236-35.036"/><path d="M372.191-235.393c-29.914 49.149-49.494 104.585-57.099 161.647-4.707 35.304-3.056 75.793 22.874 100.149 19.434 18.254 48.08 22.796 74.698 21.816 26.615-.983 53.085-6.59 79.675-5.02 26.587 1.569 54.745 12.088 68.233 35.105 12.767 21.784 9.586 48.916 8.023 74.131-1.563 25.215.315 53.837 19.305 70.452 26.89 23.528 70.702 8.991 102.401 25.441 30.066 15.6 42.273 55.403 73.25 69.093 25.895 11.442 55.701.81 81.889-9.935a8786.692 8786.692 0 0 0 81.73-34.018"/><path d="M476.513-256.474c-29.099 47.678-48.149 101.449-55.549 156.805-4.575 34.244-2.967 73.52 22.255 97.148 18.907 17.706 46.771 22.113 72.665 21.162 25.893-.953 51.641-6.392 77.507-4.87 25.863 1.521 53.252 11.725 66.376 34.053 12.421 21.13 9.326 47.45 7.806 71.911-1.523 24.458.305 52.223 18.779 68.34 26.156 22.821 68.778 8.721 99.614 24.678 29.247 15.136 41.122 53.744 71.257 67.023 25.19 11.1 54.184.786 79.659-9.637a8632.143 8632.143 0 0 0 79.508-32.998"/><path d="M514.592-298.253c-28.284 46.39-46.8 98.708-53.992 152.566-4.451 33.321-2.889 71.534 21.631 94.525 18.376 17.228 45.464 21.515 70.63 20.59 25.17-.929 50.196-6.22 75.341-4.742 25.141 1.483 51.763 11.41 64.519 33.133 12.072 20.56 9.065 46.17 7.588 69.968-1.479 23.799.296 50.813 18.251 66.494 25.43 22.206 66.857 8.486 96.828 24.012 28.43 14.725 39.975 52.29 69.267 65.212 24.485 10.799 52.666.762 77.429-9.377a8287.964 8287.964 0 0 0 77.286-32.107"/><path d="M513.052-324.18c-27.367 44.916-45.287 95.575-52.245 147.722-4.306 32.264-2.795 69.266 20.93 91.523 17.784 16.683 43.99 20.833 68.348 19.936 24.352-.896 48.569-6.02 72.899-4.588 24.327 1.435 50.088 11.045 62.43 32.08 11.682 19.91 8.772 44.707 7.341 67.748-1.431 23.042.288 49.2 17.662 64.382 24.605 21.501 64.69 8.217 93.693 23.249 27.51 14.259 38.679 50.632 67.025 63.142 23.689 10.456 50.961.739 74.923-9.079a8015.147 8015.147 0 0 0 74.782-31.089"/></g><path d="M133.268 274.75c-11.35 9.918-30.874 6.156-30.874 6.156s-1.109-19.84 10.25-29.75c11.35-9.917 30.864-6.163 30.864-6.163s1.11 19.84-10.24 29.757z" fill="url(#c)"/><path d="M788.358 356.341c-11.349 9.917-30.873 6.156-30.873 6.156s-1.11-19.84 10.249-29.75c11.35-9.918 30.865-6.164 30.865-6.164s1.109 19.841-10.241 29.758z" fill="url(#d)"/><path opacity=".76" fill-rule="evenodd" clip-rule="evenodd" d="M206.643 126.775c4.301-6.627 14.002-6.627 18.304 0l23.66 36.45c4.712 7.259-.498 16.852-9.152 16.852h-47.32c-8.655 0-13.865-9.593-9.153-16.852l23.661-36.45z" fill="url(#e)"/><path opacity=".76" fill-rule="evenodd" clip-rule="evenodd" d="M696.069 429.481c4.302-6.627 14.003-6.627 18.305 0l23.66 36.45c4.712 7.259-.498 16.852-9.152 16.852h-47.321c-8.654 0-13.864-9.593-9.152-16.852l23.66-36.45z" fill="url(#f)"/><path fill-rule="evenodd" clip-rule="evenodd" d="M291.13 282.956c0 56.127 29.753 105.539 75.409 136.688-.021 17.886.02 41.986.02 67.277l73.984-36.546a207.631 207.631 0 0 0 39.16 3.745c103.757 0 188.573-76.21 188.573-171.164S583.46 111.792 479.703 111.792 291.13 188.002 291.13 282.956z" fill="#009688"/><path d="m494.471 254.722-57.41 57.4c-6.657 6.661-6.657 17.456 0 24.117v0c6.661 6.657 17.456 6.657 24.117 0l89.551-89.552a34.102 34.102 0 0 0 0-48.233v0a34.092 34.092 0 0 0-48.222 0l-89.552 89.562a51.14 51.14 0 0 0 0 72.339v0a51.15 51.15 0 0 0 72.339 0l65.404-65.404" stroke="#fff" stroke-width="15.566" stroke-linecap="round" stroke-linejoin="round"/><defs><linearGradient id="a" x1="405.523" y1="831.146" x2="571.556" y2="-495.447" gradientUnits="userSpaceOnUse"><stop stop-color="#fff"/><stop offset="1" stop-color="#EEE"/></linearGradient><linearGradient id="c" x1="88.453" y1="308.166" x2="173.697" y2="194.603" gradientUnits="userSpaceOnUse"><stop stop-color="#fff"/><stop offset="1" stop-color="#EEE"/></linearGradient><linearGradient id="d" x1="743.544" y1="389.756" x2="828.787" y2="276.194" gradientUnits="userSpaceOnUse"><stop stop-color="#fff"/><stop offset="1" stop-color="#EEE"/></linearGradient><linearGradient id="e" x1="217.661" y1="217.866" x2="216.06" y2="39.345" gradientUnits="userSpaceOnUse"><stop stop-color="#fff"/><stop offset="1" stop-color="#EEE"/></linearGradient><linearGradient id="f" x1="707.087" y1="520.572" x2="705.486" y2="342.051" gradientUnits="userSpaceOnUse"><stop stop-color="#fff"/><stop offset="1" stop-color="#EEE"/></linearGradient></defs></svg>