<svg width="900" height="600" viewBox="0 0 900 600" fill="none" xmlns="http://www.w3.org/2000/svg"><path fill="transparent" d="M0 0h900v600H0z"/><path fill-rule="evenodd" clip-rule="evenodd" d="m184.739 365.017-25.764-25.764a23.837 23.837 0 0 1-6.975-16.85v-43.806c0-6.32 2.513-12.381 6.983-16.85l25.764-25.764a23.828 23.828 0 0 1 16.85-6.983h43.806c6.32 0 12.381 2.513 16.85 6.983l25.772 25.772a23.837 23.837 0 0 1 6.975 16.85v43.798c0 6.319-2.508 12.38-6.975 16.85l-25.764 25.772A23.833 23.833 0 0 1 245.403 372h-43.806a23.837 23.837 0 0 1-16.858-6.983z" fill="#009688"/><path fill-rule="evenodd" clip-rule="evenodd" d="M232.159 307.725c7.684-3.986 11.644-12.699 9.59-21.098-2.055-8.399-9.592-14.308-18.251-14.308s-16.196 5.909-18.25 14.308c-2.055 8.399 1.905 17.112 9.589 21.098l-5.636 16.846a3.125 3.125 0 0 0 2.975 4.114h22.619a3.125 3.125 0 0 0 2.975-4.114l-5.611-16.846z" fill="#fff"/><path fill-rule="evenodd" clip-rule="evenodd" d="m259.739 214.017-25.764-25.764a23.837 23.837 0 0 1-6.975-16.85v-43.806c0-6.32 2.513-12.381 6.983-16.85l25.764-25.764A23.829 23.829 0 0 1 276.597 78h43.806c6.32 0 12.381 2.513 16.85 6.983l25.772 25.772a23.837 23.837 0 0 1 6.975 16.85v43.798c0 6.319-2.508 12.38-6.975 16.85l-25.764 25.772A23.833 23.833 0 0 1 320.403 221h-43.806a23.837 23.837 0 0 1-16.858-6.983z" fill="#009688"/><path fill-rule="evenodd" clip-rule="evenodd" d="M307.159 156.725c7.684-3.986 11.644-12.699 9.59-21.098-2.055-8.399-9.592-14.308-18.251-14.308s-16.196 5.909-18.25 14.308c-2.055 8.399 1.905 17.112 9.589 21.098l-5.636 16.846a3.125 3.125 0 0 0 2.975 4.114h22.619a3.125 3.125 0 0 0 2.975-4.114l-5.611-16.846z" fill="#fff"/><path fill-rule="evenodd" clip-rule="evenodd" d="m259.739 516.017-25.764-25.764a23.837 23.837 0 0 1-6.975-16.85v-43.806c0-6.32 2.513-12.381 6.983-16.85l25.764-25.764a23.828 23.828 0 0 1 16.85-6.983h43.806c6.32 0 12.381 2.513 16.85 6.983l25.772 25.772a23.837 23.837 0 0 1 6.975 16.85v43.798c0 6.319-2.508 12.38-6.975 16.85l-25.764 25.772A23.833 23.833 0 0 1 320.403 523h-43.806a23.837 23.837 0 0 1-16.858-6.983z" fill="#009688"/><path fill-rule="evenodd" clip-rule="evenodd" d="M307.159 458.725c7.684-3.986 11.644-12.699 9.59-21.098-2.055-8.399-9.592-14.308-18.251-14.308s-16.196 5.909-18.25 14.308c-2.055 8.399 1.905 17.112 9.589 21.098l-5.636 16.846a3.125 3.125 0 0 0 2.975 4.114h22.619a3.125 3.125 0 0 0 2.975-4.114l-5.611-16.846z" fill="#fff"/><path fill-rule="evenodd" clip-rule="evenodd" d="m335.739 365.017-25.764-25.764a23.837 23.837 0 0 1-6.975-16.85v-43.806c0-6.32 2.513-12.381 6.983-16.85l25.764-25.764a23.828 23.828 0 0 1 16.85-6.983h43.806c6.32 0 12.381 2.513 16.85 6.983l25.772 25.772a23.837 23.837 0 0 1 6.975 16.85v43.798c0 6.319-2.508 12.38-6.975 16.85l-25.764 25.772A23.833 23.833 0 0 1 396.403 372h-43.806a23.837 23.837 0 0 1-16.858-6.983z" fill="#009688"/><path fill-rule="evenodd" clip-rule="evenodd" d="M383.159 307.725c7.684-3.986 11.644-12.699 9.59-21.098-2.055-8.399-9.592-14.308-18.251-14.308s-16.196 5.909-18.25 14.308c-2.055 8.399 1.905 17.112 9.589 21.098l-5.636 16.846a3.125 3.125 0 0 0 2.975 4.114h22.619a3.125 3.125 0 0 0 2.975-4.114l-5.611-16.846z" fill="#fff"/><path fill-rule="evenodd" clip-rule="evenodd" d="m410.739 214.017-25.764-25.764a23.837 23.837 0 0 1-6.975-16.85v-43.806c0-6.32 2.513-12.381 6.983-16.85l25.764-25.764A23.829 23.829 0 0 1 427.597 78h43.806c6.32 0 12.381 2.513 16.85 6.983l25.772 25.772a23.837 23.837 0 0 1 6.975 16.85v43.798c0 6.319-2.508 12.38-6.975 16.85l-25.764 25.772A23.833 23.833 0 0 1 471.403 221h-43.806a23.837 23.837 0 0 1-16.858-6.983z" fill="#009688"/><path fill-rule="evenodd" clip-rule="evenodd" d="M458.159 156.725c7.684-3.986 11.644-12.699 9.59-21.098-2.055-8.399-9.592-14.308-18.251-14.308s-16.196 5.909-18.25 14.308c-2.055 8.399 1.905 17.112 9.589 21.098l-5.636 16.846a3.125 3.125 0 0 0 2.975 4.114h22.619a3.125 3.125 0 0 0 2.975-4.114l-5.611-16.846z" fill="#fff"/><path fill-rule="evenodd" clip-rule="evenodd" d="m410.739 516.017-25.764-25.764a23.837 23.837 0 0 1-6.975-16.85v-43.806c0-6.32 2.513-12.381 6.983-16.85l25.764-25.764a23.828 23.828 0 0 1 16.85-6.983h43.806c6.32 0 12.381 2.513 16.85 6.983l25.772 25.772a23.837 23.837 0 0 1 6.975 16.85v43.798c0 6.319-2.508 12.38-6.975 16.85l-25.764 25.772A23.833 23.833 0 0 1 471.403 523h-43.806a23.837 23.837 0 0 1-16.858-6.983z" fill="#009688"/><path fill-rule="evenodd" clip-rule="evenodd" d="M458.159 458.725c7.684-3.986 11.644-12.699 9.59-21.098-2.055-8.399-9.592-14.308-18.251-14.308s-16.196 5.909-18.25 14.308c-2.055 8.399 1.905 17.112 9.589 21.098l-5.636 16.846a3.125 3.125 0 0 0 2.975 4.114h22.619a3.125 3.125 0 0 0 2.975-4.114l-5.611-16.846z" fill="#fff"/><path fill-rule="evenodd" clip-rule="evenodd" d="m486.739 365.017-25.764-25.764a23.837 23.837 0 0 1-6.975-16.85v-43.806c0-6.32 2.513-12.381 6.983-16.85l25.764-25.764a23.828 23.828 0 0 1 16.85-6.983h43.806c6.32 0 12.381 2.513 16.85 6.983l25.772 25.772a23.837 23.837 0 0 1 6.975 16.85v43.798c0 6.319-2.508 12.38-6.975 16.85l-25.764 25.772A23.833 23.833 0 0 1 547.403 372h-43.806a23.837 23.837 0 0 1-16.858-6.983z" fill="#009688"/><path fill-rule="evenodd" clip-rule="evenodd" d="M534.159 307.725c7.684-3.986 11.644-12.699 9.59-21.098-2.055-8.399-9.592-14.308-18.251-14.308s-16.196 5.909-18.25 14.308c-2.055 8.399 1.905 17.112 9.589 21.098l-5.636 16.846a3.125 3.125 0 0 0 2.975 4.114h22.619a3.125 3.125 0 0 0 2.975-4.114l-5.611-16.846z" fill="#fff"/><path fill-rule="evenodd" clip-rule="evenodd" d="m561.739 214.017-25.764-25.764a23.837 23.837 0 0 1-6.975-16.85v-43.806c0-6.32 2.513-12.381 6.983-16.85l25.764-25.764A23.829 23.829 0 0 1 578.597 78h43.806c6.32 0 12.381 2.513 16.85 6.983l25.772 25.772a23.837 23.837 0 0 1 6.975 16.85v43.798c0 6.319-2.508 12.38-6.975 16.85l-25.764 25.772A23.833 23.833 0 0 1 622.403 221h-43.806a23.837 23.837 0 0 1-16.858-6.983z" fill="#009688"/><path fill-rule="evenodd" clip-rule="evenodd" d="M609.159 156.725c7.684-3.986 11.644-12.699 9.59-21.098-2.055-8.399-9.592-14.308-18.251-14.308s-16.196 5.909-18.25 14.308c-2.055 8.399 1.905 17.112 9.589 21.098l-5.636 16.846a3.125 3.125 0 0 0 2.975 4.114h22.619a3.125 3.125 0 0 0 2.975-4.114l-5.611-16.846z" fill="#fff"/><path fill-rule="evenodd" clip-rule="evenodd" d="m561.739 516.017-25.764-25.764a23.837 23.837 0 0 1-6.975-16.85v-43.806c0-6.32 2.513-12.381 6.983-16.85l25.764-25.764a23.828 23.828 0 0 1 16.85-6.983h43.806c6.32 0 12.381 2.513 16.85 6.983l25.772 25.772a23.837 23.837 0 0 1 6.975 16.85v43.798c0 6.319-2.508 12.38-6.975 16.85l-25.764 25.772A23.833 23.833 0 0 1 622.403 523h-43.806a23.837 23.837 0 0 1-16.858-6.983z" fill="#009688"/><path fill-rule="evenodd" clip-rule="evenodd" d="M609.159 458.725c7.684-3.986 11.644-12.699 9.59-21.098-2.055-8.399-9.592-14.308-18.251-14.308s-16.196 5.909-18.25 14.308c-2.055 8.399 1.905 17.112 9.589 21.098l-5.636 16.846a3.125 3.125 0 0 0 2.975 4.114h22.619a3.125 3.125 0 0 0 2.975-4.114l-5.611-16.846z" fill="#fff"/><path fill-rule="evenodd" clip-rule="evenodd" d="m637.739 365.017-25.764-25.764a23.837 23.837 0 0 1-6.975-16.85v-43.806c0-6.32 2.513-12.381 6.983-16.85l25.764-25.764a23.828 23.828 0 0 1 16.85-6.983h43.806c6.32 0 12.381 2.513 16.85 6.983l25.772 25.772a23.837 23.837 0 0 1 6.975 16.85v43.798c0 6.319-2.508 12.38-6.975 16.85l-25.764 25.772A23.833 23.833 0 0 1 698.403 372h-43.806a23.837 23.837 0 0 1-16.858-6.983z" fill="#009688"/><path fill-rule="evenodd" clip-rule="evenodd" d="M685.159 307.725c7.684-3.986 11.644-12.699 9.59-21.098-2.055-8.399-9.592-14.308-18.251-14.308s-16.196 5.909-18.25 14.308c-2.055 8.399 1.905 17.112 9.589 21.098l-5.636 16.846a3.125 3.125 0 0 0 2.975 4.114h22.619a3.125 3.125 0 0 0 2.975-4.114l-5.611-16.846z" fill="#fff"/></svg>