<svg width="900" height="600" viewBox="0 0 900 600" fill="none" xmlns="http://www.w3.org/2000/svg"><path fill="transparent" d="M0 0h900v600H0z"/><path d="M731.004 388.738h-54.199c-13.28 0-24.407-8.988-24.407-20.372 0-5.692 2.871-10.784 7.179-14.379 4.307-3.595 10.408-5.992 17.228-5.992h7.897c6.819 0 12.921-2.397 17.228-5.992 4.307-3.595 7.179-8.687 7.179-14.379 0-11.085-10.768-20.372-24.407-20.372H519.11c-4.296 0-7.054-5.29-7.054-9.586 0-10.785-10.409-19.473-23.33-19.473h-61.637a5.842 5.842 0 1 1 0-11.683h236.077c10.409 0 20.1-3.595 26.92-9.287 6.819-5.692 11.126-13.781 11.126-22.469 0-17.675-17.228-31.755-38.046-31.755H541.201c-19.105 0-38.037-14.679-57.141-14.679h-68.168c-9.928 0-17.975-8.048-17.975-17.975 0-9.927 8.047-17.975 17.975-17.975h152.516c7.179 0 13.999-2.396 18.665-6.291 4.666-3.894 7.537-9.287 7.537-15.578 0-11.983-11.844-21.869-26.202-21.869H217.016c-7.178 0-13.998 2.396-18.664 6.291-4.666 3.895-7.538 9.287-7.538 15.578 0 11.983 11.845 21.869 26.202 21.869h8.974c11.844 0 21.894 8.089 21.894 18.275 0 5.092-2.512 9.586-6.46 12.881-3.949 3.296-9.333 5.393-15.434 5.393h-43.431c-7.537 0-14.716 2.696-19.741 6.89-5.025 4.194-8.255 9.886-8.255 16.477 0 12.882 12.562 23.068 27.637 23.068h44.148c14.358 0 26.202 9.886 26.202 21.869 0 5.991-2.871 11.384-7.537 15.278-4.666 3.895-11.127 6.291-18.306 6.291h-39.482c-6.461 0-12.203 2.097-16.511 5.692-4.307 3.595-6.819 8.389-6.819 13.781 0 10.785 10.409 19.473 23.33 19.473h31.945c18.305 0 33.021 12.282 33.021 27.561 0 7.489-3.589 14.679-9.691 19.472-6.102 5.093-14.357 8.089-23.33 8.089h-44.507c-8.974 0-17.229 2.996-22.972 8.089-6.102 4.793-9.691 11.683-9.691 19.173 0 14.979 14.716 27.261 32.663 27.261h137.453c15.168 0 30.074 8.388 45.242 8.388h25.128c9.513 0 17.225 7.713 17.225 17.226 0 9.514-7.712 17.226-17.225 17.226h-61.021c-7.897 0-14.716 2.696-19.741 6.89-5.025 4.194-8.256 10.186-8.256 16.477 0 12.882 12.563 23.367 27.997 23.367h373.287c7.896 0 14.716-2.696 19.741-6.89 5.025-4.194 8.255-10.186 8.255-16.477 0-12.882-12.562-23.367-27.996-23.367h-11.127c-11.486 0-20.459-7.789-20.459-17.076 0-4.793 2.153-8.987 6.102-11.983 3.589-2.996 8.973-5.093 14.716-5.093h47.02c7.896 0 14.716-2.696 19.741-6.89 5.025-4.194 8.255-10.186 8.255-16.477 0-13.481-12.562-23.966-27.996-23.966z" fill="url(#a)"/><rect x="150.664" y="263.164" width="270.048" height="270.048" rx="40" fill="#009688"/><path fill-rule="evenodd" clip-rule="evenodd" d="M249.776 431.917c32.39 32.403 73.431 53.056 97.839 28.753l5.92-5.919c7.879-7.879 6.781-20.92-2.359-27.285-5.772-4.021-11.974-8.338-18.829-13.16-7.092-4.985-16.826-4.229-22.983 1.884l-6.692 6.647c-8.294-5.252-16.5-12.003-24.126-19.614l-.03-.03c-7.612-7.611-14.363-15.831-19.615-24.124l6.647-6.692c6.113-6.157 6.885-15.904 1.87-22.996-4.823-6.84-9.14-13.027-13.132-18.784-6.35-9.169-19.407-10.281-27.301-2.388l-5.92 5.92c-24.289 24.406-3.65 65.414 28.74 97.833" fill="#fff"/><path fill-rule="evenodd" clip-rule="evenodd" d="M461.092 336.608V497.15c0 17.66 14.449 32.109 32.108 32.109h224.759c17.66 0 32.109-14.449 32.109-32.109V336.608" fill="#E1E4E5"/><path d="M461.092 336.608V497.15c0 17.66 14.449 32.109 32.108 32.109h224.759c17.66 0 32.109-14.449 32.109-32.109V336.608" stroke="#E1E4E5" stroke-width="4.532"/><path fill-rule="evenodd" clip-rule="evenodd" d="m470.53 519.819 97.835-97.834-97.835 97.834z" fill="#fff"/><path d="m470.53 519.819 97.835-97.834" stroke="#fff" stroke-width="4.532"/><path fill-rule="evenodd" clip-rule="evenodd" d="m643.469 422.659 97.161 97.16-97.161-97.16z" fill="#fff"/><path d="m643.469 422.659 97.161 97.16" stroke="#fff" stroke-width="4.532"/><path fill-rule="evenodd" clip-rule="evenodd" d="M461.093 333.398c0 9.632 4.816 17.659 12.843 24.081l96.325 65.822c22.476 14.449 49.768 14.449 72.244 0l96.326-64.217c6.421-8.027 11.238-16.054 11.238-25.686a28.778 28.778 0 0 0-28.898-28.898H489.99a28.777 28.777 0 0 0-28.897 28.898z" fill="#fff" stroke="#E1E4E5" stroke-width="4.532"/><path d="M218.806 85.106v122.751c0 10.538 7.307 19.083 16.32 19.083h167.279c3.14 0 6.222 1.065 8.877 3.06l24.614 18.652c10.854 8.228 25.196-.883 25.196-16.023V85.083c0-10.538-7.307-19.083-16.319-19.083H235.145c-9.032.023-16.339 8.567-16.339 19.106z" fill="#009688"/><path d="M409.506 154.787H270.132c-4.365 0-7.915-3.55-7.915-7.915s3.55-7.916 7.915-7.916h139.374c4.365 0 7.915 3.551 7.915 7.916s-3.55 7.915-7.915 7.915zm-77.041-34.009h-62.838c-4.365 0-7.916-3.55-7.916-7.916 0-4.365 3.551-7.915 7.916-7.915h62.838c4.365 0 7.915 3.55 7.915 7.915 0 4.366-3.55 7.916-7.915 7.916zm-62.333 53.235h139.374c4.365 0 7.915 3.55 7.915 7.915s-3.55 7.916-7.915 7.916H270.132c-4.365 0-7.915-3.551-7.915-7.916s3.55-7.915 7.915-7.915z" fill="#fff"/><path d="M741.235 115.392v122.75c0 10.539-7.307 19.084-16.319 19.084h-167.28c-3.14 0-6.222 1.065-8.877 3.059l-24.614 18.653c-10.854 8.227-25.196-.884-25.196-16.024V115.369c0-10.539 7.307-19.083 16.319-19.083h209.628c9.032.022 16.339 8.567 16.339 19.106z" fill="#009688"/><path d="M550.536 185.073h139.373c4.365 0 7.915-3.55 7.915-7.916 0-4.365-3.55-7.915-7.915-7.915H550.536c-4.365 0-7.916 3.55-7.916 7.915 0 4.366 3.551 7.916 7.916 7.916zm.468-34.01h62.838c4.365 0 7.916-3.55 7.916-7.915s-3.551-7.915-7.916-7.915h-62.838c-4.365 0-7.915 3.55-7.915 7.915s3.55 7.915 7.915 7.915zm138.905 53.235H550.536c-4.365 0-7.916 3.551-7.916 7.916s3.551 7.915 7.916 7.915h139.373c4.365 0 7.915-3.55 7.915-7.915s-3.55-7.916-7.915-7.916z" fill="#fff"/><defs><linearGradient id="a" x1="463.656" y1="745.888" x2="455.323" y2="-335.639" gradientUnits="userSpaceOnUse"><stop stop-color="#fff"/><stop offset="1" stop-color="#EEE"/></linearGradient></defs></svg>