<svg width="900" height="600" viewBox="0 0 900 600" fill="none" xmlns="http://www.w3.org/2000/svg"><path fill="transparent" d="M0 0h900v600H0z"/><path d="M518.027 235.49c-10.972 19.581-35.001 22.271-73.497 18.55-28.951-2.803-55.353-4.973-84.307-20.759-20.266-11.041-36.307-25.98-48.016-40.489-12.688-15.718-30.397-33.656-21.715-51.478 11.93-24.481 80.924-45.1 147.919-11.382 73.594 37.051 90.349 86.42 79.616 105.558z" fill="url(#a)"/><path d="M721.527 238.158c-20.67 10.253-48.103-2.931-48.103-2.931s6.097-29.801 26.777-40.04c20.67-10.253 48.092 2.916 48.092 2.916s-6.097 29.802-26.766 40.055z" fill="url(#b)"/><path d="M84.28 345.097c22.036 13.207 53.652.998 53.652.998s-4.134-33.618-26.184-46.811c-22.037-13.208-53.64-1.013-53.64-1.013s4.134 33.618 26.171 46.826z" fill="url(#c)"/><circle cx="684.752" cy="157.465" r="11.286" transform="rotate(180 684.752 157.465)" fill="#009688"/><circle cx="295.269" cy="228.123" r="9.291" transform="rotate(180 295.269 228.123)" fill="#009688"/><circle r="10.581" transform="matrix(-1 0 0 1 228.308 309.773)" fill="#009688"/><circle r="4.938" transform="matrix(-1 0 0 1 625.564 201.754)" fill="#009688"/><circle r="6.348" transform="matrix(-1 0 0 1 651.689 416.727)" fill="#E1E4E5"/><circle r="9.17" transform="matrix(-1 0 0 1 190.57 372.21)" fill="#E1E4E5"/><circle r="6.979" transform="matrix(-1 0 0 1 703.562 364.515)" fill="#E1E4E5"/><circle r="7.759" transform="matrix(-1 0 0 1 609.956 138.216)" fill="#E1E4E5"/><circle r="6.968" transform="scale(1 -1) rotate(-75 -50.052 -243.018)" fill="#E1E4E5"/><circle r="9.269" transform="matrix(-1 0 0 1 366.152 89.898)" fill="#E1E4E5"/><ellipse rx="7.13" ry="5.704" transform="matrix(-1 0 0 1 637.664 333.518)" fill="#E1E4E5"/><circle r="12.807" transform="matrix(0 1 1 0 536.124 64.807)" fill="#E1E4E5"/><path d="M217.834 178.241h.102c.601 8.522 6.939 8.653 6.939 8.653s-6.989.136-6.989 9.983c0-9.847-6.988-9.983-6.988-9.983s6.335-.131 6.936-8.653zm57.191 245.344h.098c.577 8.497 6.662 8.627 6.662 8.627s-6.71.136-6.71 9.954c0-9.818-6.71-9.954-6.71-9.954s6.083-.13 6.66-8.627z" fill="#E1E4E5"/><path fill-rule="evenodd" clip-rule="evenodd" d="M572.844 403.368v65.892a33.484 33.484 0 0 1-17.728 29.547l-85.377 45.584a33.48 33.48 0 0 1-31.506 0l-85.377-45.584a33.483 33.483 0 0 1-17.729-29.547v-65.892" fill="#fff"/><path d="M572.844 403.368v65.892a33.484 33.484 0 0 1-17.728 29.547l-85.377 45.584a33.48 33.48 0 0 1-31.506 0l-85.377-45.584a33.483 33.483 0 0 1-17.729-29.547v-65.892" stroke="#E1E4E5" stroke-width="4"/><path fill-rule="evenodd" clip-rule="evenodd" d="m406.075 250.728 201.842 104.177a16.74 16.74 0 0 1 .201 29.648l-75.333 40.177a33.48 33.48 0 0 1-31.104.218L299.889 320.737a16.74 16.74 0 0 1-.201-29.647l75.333-40.178a33.483 33.483 0 0 1 31.054-.184z" fill="#fff" stroke="#E1E4E5" stroke-width="4"/><path clip-rule="evenodd" d="M501.731 250.728 299.889 354.905a16.74 16.74 0 0 0-.201 29.648l75.333 40.177a33.48 33.48 0 0 0 31.104.218l201.792-104.211a16.74 16.74 0 0 0 .201-29.647l-75.333-40.178a33.483 33.483 0 0 0-31.054-.184z" stroke="#E1E4E5" stroke-width="4"/><path fill-rule="evenodd" clip-rule="evenodd" d="M453.904 548.327V400.239v148.088z" fill="#fff"/><path d="M453.904 548.327V400.239" stroke="#E1E4E5" stroke-width="4"/><path d="M122.768 217.696c26.779-23.025 97.454-65.47 165.926-51.054 85.591 18.019 274.792 10.511 290.559-57.812 15.767-68.322-128.386-54.808-72.077 42.796 45.048 78.082 203.466 138.647 277.795 164.424" stroke="#E1E4E5" stroke-width="2" stroke-dasharray="7 6"/><rect x="346.844" y="118.412" width="213.453" height="208.466" rx="33.551" fill="#009688"/><rect x="452.723" y="286.793" width="45.129" height="45.129" rx="11.743" transform="rotate(45 452.723 286.793)" fill="#009688"/><path fill-rule="evenodd" clip-rule="evenodd" d="M509.428 268.76v8.113c0 4.478-3.607 8.113-8.051 8.113h-96.61c-4.444 0-8.05-3.635-8.05-8.113v-8.243c0-24.549 27.839-40.499 56.355-40.499s56.356 15.958 56.356 40.499m-37.106-99.853c10.907 11.296 10.907 29.611 0 40.907-10.907 11.297-28.59 11.297-39.497 0-10.907-11.296-10.907-29.611 0-40.907 10.907-11.296 28.59-11.296 39.497 0z" fill="#fff"/><rect x="46.379" y="151.514" width="122.661" height="119.795" rx="33.551" fill="#009688"/><rect x="107.222" y="248.275" width="25.933" height="25.933" rx="11.743" transform="rotate(45 107.222 248.275)" fill="#009688"/><path fill-rule="evenodd" clip-rule="evenodd" d="M139.807 237.912v4.662c0 2.574-2.072 4.662-4.626 4.662H79.664c-2.554 0-4.626-2.088-4.626-4.662v-4.736c0-14.108 15.998-23.273 32.384-23.273 16.387 0 32.385 9.17 32.385 23.273m-21.322-57.381c6.267 6.491 6.267 17.016 0 23.507-6.268 6.492-16.43 6.492-22.697 0-6.268-6.491-6.268-17.016 0-23.507 6.267-6.492 16.429-6.492 22.697 0z" fill="#fff"/><rect x="731.339" y="238.089" width="122.661" height="119.795" rx="33.551" fill="#009688"/><rect x="792.182" y="334.85" width="25.933" height="25.933" rx="11.743" transform="rotate(45 792.182 334.85)" fill="#009688"/><path fill-rule="evenodd" clip-rule="evenodd" d="M824.768 324.487v4.662c0 2.574-2.073 4.662-4.627 4.662h-55.517c-2.554 0-4.626-2.088-4.626-4.662v-4.737c0-14.107 15.998-23.272 32.385-23.272 16.386 0 32.385 9.17 32.385 23.272m-21.323-57.381c6.267 6.492 6.267 17.017 0 23.508-6.268 6.491-16.43 6.491-22.697 0-6.268-6.491-6.268-17.016 0-23.508 6.267-6.491 16.429-6.491 22.697 0z" fill="#fff"/><defs><linearGradient id="a" x1="444.115" y1="362.393" x2="346.323" y2="-77.044" gradientUnits="userSpaceOnUse"><stop stop-color="#fff"/><stop offset="1" stop-color="#EEE"/></linearGradient><linearGradient id="b" x1="642.155" y1="270.14" x2="812.635" y2="135.289" gradientUnits="userSpaceOnUse"><stop stop-color="#fff"/><stop offset="1" stop-color="#EEE"/></linearGradient><linearGradient id="c" x1="169.556" y1="387.611" x2="-7.76" y2="222.861" gradientUnits="userSpaceOnUse"><stop stop-color="#fff"/><stop offset="1" stop-color="#EEE"/></linearGradient></defs></svg>