<svg width="900" height="600" viewBox="0 0 900 600" fill="none" xmlns="http://www.w3.org/2000/svg"><path fill="transparent" d="M0 0h900v600H0z"/><path d="M756.214 410.517h-55.101c-13.502 0-24.814-9.19-24.814-20.829 0-5.82 2.919-11.028 7.298-14.703 4.379-3.676 10.582-6.126 17.516-6.126h8.028c6.933 0 13.136-2.451 17.515-6.127 4.379-3.675 7.299-8.883 7.299-14.702 0-11.334-10.948-20.829-24.814-20.829h-168.3c-4.397 0-7.223-5.405-7.223-9.802 0-11.027-10.582-19.91-23.719-19.91h-62.63a5.973 5.973 0 0 1 0-11.946h239.977c10.582 0 20.435-3.676 27.368-9.496 6.934-5.82 11.313-14.09 11.313-22.973 0-18.072-17.516-32.469-38.681-32.469H563.301c-19.447 0-38.698-15.009-58.146-15.009h-69.2c-10.15 0-18.378-8.228-18.378-18.379 0-10.15 8.228-18.378 18.378-18.378h154.954c7.299 0 14.232-2.451 18.976-6.433 4.744-3.982 7.663-9.495 7.663-15.928 0-12.252-12.042-22.36-26.639-22.36H233.661c-7.298 0-14.231 2.45-18.975 6.432-4.744 3.982-7.663 9.496-7.663 15.928 0 12.253 12.042 22.361 26.638 22.361h9.123c12.042 0 22.26 8.27 22.26 18.685 0 5.207-2.555 9.802-6.569 13.171-4.014 3.369-9.487 5.513-15.691 5.513H198.63c-7.663 0-14.961 2.757-20.07 7.046-5.109 4.288-8.393 10.108-8.393 16.847 0 13.171 12.772 23.585 28.098 23.585h44.884c14.597 0 26.639 10.109 26.639 22.361 0 6.126-2.92 11.64-7.663 15.622-4.744 3.982-11.313 6.432-18.611 6.432h-40.14c-6.569 0-12.407 2.144-16.786 5.82-4.379 3.676-6.933 8.577-6.933 14.09 0 11.027 10.582 19.91 23.719 19.91h32.477c18.61 0 33.572 12.559 33.572 28.181 0 7.658-3.649 15.009-9.853 19.91-6.203 5.207-14.596 8.27-23.719 8.27h-45.249c-9.123 0-17.516 3.063-23.354 8.271-6.204 4.901-9.853 11.946-9.853 19.603 0 15.316 14.961 27.874 33.207 27.874h139.721c15.43 0 30.588 8.577 46.019 8.577h25.446c9.728 0 17.613 7.886 17.613 17.613s-7.885 17.613-17.613 17.613h-61.937c-8.028 0-14.962 2.756-20.071 7.045-5.108 4.288-8.392 10.414-8.392 16.847 0 13.171 12.771 23.892 28.463 23.892h379.507c8.028 0 14.961-2.757 20.07-7.045 5.109-4.289 8.393-10.415 8.393-16.847 0-13.172-12.772-23.892-28.463-23.892h-11.312c-11.677 0-20.8-7.964-20.8-17.46 0-4.901 2.189-9.189 6.203-12.252 3.65-3.063 9.123-5.208 14.962-5.208h47.803c8.028 0 14.962-2.756 20.07-7.045 5.109-4.288 8.393-10.414 8.393-16.847 0-13.784-12.772-24.504-28.463-24.504z" fill="url(#a)"/><path d="M100.892 299.677c16.299-8.085 37.932 2.311 37.932 2.311s-4.808 23.5-21.115 31.574c-16.299 8.085-37.923-2.3-37.923-2.3s4.808-23.5 21.106-31.585z" fill="url(#b)"/><path d="M802.681 235.208c-15.091-9.044-36.741-.683-36.741-.683s2.831 23.021 17.931 32.056c15.09 9.044 36.732.693 36.732.693s-2.831-23.021-17.922-32.066z" fill="url(#c)"/><circle r="9.24" transform="matrix(1 0 0 -1 283.491 83.3)" fill="#E1E4E5"/><circle r="13.347" transform="matrix(1 0 0 -1 678.765 119.634)" fill="#E1E4E5"/><circle r="10.158" transform="matrix(1 0 0 -1 109.939 128.669)" fill="#E1E4E5"/><circle r="10.141" transform="matrix(0 -1 -1 0 782.242 447.587)" fill="#E1E4E5"/><circle r="13.491" transform="matrix(1 0 0 -1 613.345 483.164)" fill="#E1E4E5"/><ellipse rx="10.378" ry="8.302" transform="matrix(1 0 0 -1 194.645 235.601)" fill="#E1E4E5"/><circle r="12.934" transform="scale(-1 1) rotate(-75 154.479 402.755)" fill="#E1E4E5"/><path d="M767.493 155.557h-.142c-.84-12.367-9.697-12.557-9.697-12.557s9.766-.198 9.766-14.488c0 14.29 9.767 14.488 9.767 14.488s-8.853.19-9.694 12.557z" fill="#E1E4E5"/><path fill-rule="evenodd" clip-rule="evenodd" d="m363.872 316.694 115.409-72.131c18.83-11.783 30.28-32.423 30.28-54.633 0-32.876-26.638-59.514-59.513-59.514s-59.514 26.638-59.514 59.514c0 19.711-15.997 35.708-35.708 35.708s-35.708-15.997-35.708-35.708c0-72.321 58.609-130.93 130.93-130.93s130.93 58.609 130.93 130.93v297.567c0 26.305-21.306 47.611-47.611 47.611H366.729c-26.305 0-47.611-21.306-47.611-47.611v-90.055c0-32.828 16.902-63.347 44.754-80.748z" fill="#009688"/><path d="m520.253 359.246-75.23 76.615-45.165-45.962" stroke="#fff" stroke-width="31.036" stroke-linecap="round" stroke-linejoin="round"/><defs><linearGradient id="a" x1="484.411" y1="775.691" x2="475.842" y2="-330.134" gradientUnits="userSpaceOnUse"><stop stop-color="#fff"/><stop offset="1" stop-color="#EEE"/></linearGradient><linearGradient id="b" x1="163.482" y1="274.457" x2="29.048" y2="380.795" gradientUnits="userSpaceOnUse"><stop stop-color="#fff"/><stop offset="1" stop-color="#EEE"/></linearGradient><linearGradient id="c" x1="744.284" y1="206.095" x2="865.709" y2="318.915" gradientUnits="userSpaceOnUse"><stop stop-color="#fff"/><stop offset="1" stop-color="#EEE"/></linearGradient></defs></svg>