<svg width="900" height="600" viewBox="0 0 900 600" fill="none" xmlns="http://www.w3.org/2000/svg"><path fill="transparent" d="M0 0h900v600H0z"/><path fill-rule="evenodd" clip-rule="evenodd" d="M343.115 441.669h-77.133c-28.411 0-51.423-23.012-51.423-51.423V107.423c0-28.411 23.012-51.423 51.423-51.423h359.957c28.411 0 51.423 23.012 51.423 51.423v282.823c0 28.411-23.012 51.423-51.423 51.423h-77.133" fill="#fff"/><path d="M343.115 441.669h-77.133c-28.411 0-51.423-23.012-51.423-51.422V107.423c0-28.411 23.012-51.423 51.423-51.423h359.957c28.411 0 51.423 23.012 51.423 51.423v282.824c0 28.41-23.012 51.422-51.423 51.422h-77.133" stroke="#E1E4E5" stroke-width="4"/><circle cx="445.961" cy="441.669" fill="#009688" r="102.845"/><path d="M317.404 215.993h257.113m-257.113-64.818h257.113M317.404 281.136h257.113" stroke="#E1E4E5" stroke-width="24" stroke-linecap="round" stroke-linejoin="round"/><path d="M445.961 477.924v-72.506m-36.251 36.251h72.505" stroke="#fff" stroke-width="17" stroke-linecap="round" stroke-linejoin="round"/><path fill-rule="evenodd" clip-rule="evenodd" d="M631.682 238.517v5.952h-6.176c-2.578 0-4.696 2.042-4.696 4.526s2.118 4.525 4.696 4.525h6.176v5.953c0 2.484 2.118 4.525 4.696 4.525 2.577 0 4.696-2.041 4.696-4.525v-5.928h6.201c2.578 0 4.696-2.041 4.696-4.526 0-2.484-2.118-4.525-4.696-4.525h-6.176v-5.977c0-2.484-2.118-4.526-4.721-4.526-2.578 0-4.696 2.042-4.696 4.526zm-20.774 124.645v5.952h-6.176c-2.578 0-4.696 2.042-4.696 4.526s2.118 4.525 4.696 4.525h6.176v5.953c0 2.484 2.118 4.525 4.696 4.525 2.577 0 4.696-2.041 4.696-4.525v-5.928h6.201c2.578 0 4.696-2.041 4.696-4.526 0-2.484-2.118-4.525-4.696-4.525h-6.176v-5.977c0-2.484-2.118-4.526-4.721-4.526-2.578 0-4.696 2.042-4.696 4.526zm-328.925 0v5.952h-6.176c-2.578 0-4.696 2.042-4.696 4.526s2.118 4.525 4.696 4.525h6.176v5.953c0 2.484 2.118 4.525 4.696 4.525s4.696-2.041 4.696-4.525v-5.928h6.202c2.577 0 4.695-2.041 4.695-4.526 0-2.484-2.118-4.525-4.695-4.525H291.4v-5.977c0-2.484-2.118-4.526-4.721-4.526-2.578 0-4.696 2.042-4.696 4.526zm-31.161-94.638v5.952h-6.176c-2.578 0-4.696 2.042-4.696 4.526s2.118 4.526 4.696 4.526h6.176v5.952c0 2.484 2.118 4.525 4.696 4.525 2.577 0 4.696-2.041 4.696-4.525v-5.928h6.201c2.578 0 4.696-2.041 4.696-4.526 0-2.484-2.118-4.525-4.696-4.525h-6.176v-5.977c0-2.484-2.118-4.526-4.721-4.526-2.578 0-4.696 2.042-4.696 4.526zm-83.205 70.511v4.579h-4.803c-2.005 0-3.653 1.57-3.653 3.481 0 1.911 1.648 3.481 3.653 3.481h4.803v4.579c0 1.911 1.648 3.481 3.653 3.481s3.652-1.57 3.652-3.481v-4.56h4.824c2.004 0 3.652-1.57 3.652-3.481 0-1.911-1.648-3.481-3.652-3.481h-4.804v-4.598c0-1.911-1.648-3.481-3.672-3.481-2.005 0-3.653 1.57-3.653 3.481zm-28.745-113.213v5.952h-6.176c-2.578 0-4.696 2.041-4.696 4.525 0 2.485 2.118 4.526 4.696 4.526h6.176v5.952c0 2.485 2.118 4.526 4.696 4.526s4.696-2.041 4.696-4.526v-5.927h6.201c2.578 0 4.696-2.042 4.696-4.526s-2.118-4.526-4.696-4.526h-6.176v-5.976c0-2.485-2.118-4.526-4.721-4.526-2.578 0-4.696 2.041-4.696 4.526zm583.745 112.014v7.554h-8.007c-3.341 0-6.087 2.592-6.087 5.745s2.746 5.744 6.087 5.744h8.007v7.554c0 3.153 2.745 5.745 6.087 5.745 3.341 0 6.087-2.592 6.087-5.745v-7.523h8.039c3.342 0 6.087-2.591 6.087-5.744 0-3.153-2.745-5.744-6.087-5.744h-8.006v-7.586c0-3.153-2.746-5.744-6.12-5.744-3.342 0-6.087 2.591-6.087 5.744zm20.828-128.392v8.7h-8.693c-3.627 0-6.609 2.983-6.609 6.614s2.982 6.615 6.609 6.615h8.693v8.699c0 3.631 2.981 6.614 6.609 6.614s6.609-2.983 6.609-6.614v-8.663h8.728c3.628 0 6.609-2.984 6.609-6.615 0-3.631-2.981-6.614-6.609-6.614h-8.692v-8.736c0-3.63-2.982-6.614-6.645-6.614-3.628 0-6.609 2.984-6.609 6.614z" fill="#E1E4E5"/></svg>