<svg width="900" height="600" viewBox="0 0 900 600" fill="none" xmlns="http://www.w3.org/2000/svg"><path fill="transparent" d="M0 0h900v600H0z"/><path fill-rule="evenodd" clip-rule="evenodd" d="M338.294 145.615c0-33.477-27.138-60.615-60.615-60.615h-52.064C192.138 85 165 112.138 165 145.615c0 33.476 27.138 60.615 60.615 60.615h17.418l25.191 20.244c2.871 2.307 7.135.264 7.135-3.419V206.23h2.32c33.477 0 60.615-27.139 60.615-60.615z" fill="#009688"/><rect x="209.92" y="123.62" width="44.796" height="7.225" rx="3.613" fill="#fff"/><rect x="209.92" y="142.406" width="68.639" height="7.225" rx="3.613" fill="#fff"/><rect x="209.92" y="161.191" width="93.928" height="7.225" rx="3.613" fill="#fff"/><path fill-rule="evenodd" clip-rule="evenodd" d="M752.628 396.436c0-30.064-24.372-54.436-54.436-54.436h-46.756C621.372 342 597 366.372 597 396.436s24.372 54.435 54.436 54.435h15.642l21.896 17.597c2.871 2.306 7.134.263 7.134-3.419v-14.178h2.084c30.064 0 54.436-24.371 54.436-54.435z" fill="#009688"/><rect x="637.341" y="376.683" width="40.23" height="6.489" rx="3.244" fill="#fff"/><rect x="637.341" y="393.553" width="61.642" height="6.489" rx="3.244" fill="#fff"/><rect x="637.341" y="410.424" width="84.353" height="6.489" rx="3.244" fill="#fff"/><path fill-rule="evenodd" clip-rule="evenodd" d="M308.692 416.61c0-27.951-22.659-50.61-50.61-50.61H214.61c-27.951 0-50.61 22.659-50.61 50.61 0 27.952 22.659 50.611 50.61 50.611h14.543l19.857 15.957c2.87 2.307 7.134.263 7.134-3.419v-12.538h1.938c27.951 0 50.61-22.659 50.61-50.611z" fill="#009688"/><rect x="201.506" y="398.246" width="37.403" height="6.033" rx="3.016" fill="#fff"/><rect x="201.506" y="413.931" width="57.311" height="6.033" rx="3.016" fill="#fff"/><rect x="201.506" y="429.616" width="78.425" height="6.033" rx="3.016" fill="#fff"/><path fill-rule="evenodd" clip-rule="evenodd" d="M527.692 459.61c0-27.951-22.659-50.61-50.611-50.61H433.61c-27.951 0-50.61 22.659-50.61 50.61 0 27.952 22.659 50.611 50.61 50.611h14.543l19.857 15.957c2.87 2.307 7.134.263 7.134-3.419v-12.538h1.937c27.952 0 50.611-22.659 50.611-50.611z" fill="#009688"/><rect x="420.506" y="441.246" width="37.403" height="6.033" rx="3.016" fill="#fff"/><rect x="420.506" y="456.931" width="57.311" height="6.033" rx="3.016" fill="#fff"/><rect x="420.506" y="472.616" width="78.425" height="6.033" rx="3.016" fill="#fff"/><mask id="a" fill="#fff"><path fill-rule="evenodd" clip-rule="evenodd" d="M553.798 196.193c57.603 41.591 57.603 109.023 0 150.614-57.602 41.591-150.994 41.591-208.596 0-57.603-41.591-57.603-109.023 0-150.614 57.602-41.591 150.994-41.591 208.596 0z"/></mask><path fill-rule="evenodd" clip-rule="evenodd" d="M553.798 196.193c57.603 41.591 57.603 109.023 0 150.614-57.602 41.591-150.994 41.591-208.596 0-57.603-41.591-57.603-109.023 0-150.614 57.602-41.591 150.994-41.591 208.596 0z" fill="#fff"/><path d="M551.457 199.436C579.413 219.622 593 245.754 593 271.5c0 25.746-13.587 51.878-41.543 72.064l4.683 6.486C585.786 328.644 601 300.265 601 271.5s-15.214-57.144-44.86-78.55l-4.683 6.486zm0 144.128C523.458 363.78 486.571 374 449.5 374s-73.958-10.22-101.957-30.436l-4.683 6.486C372.464 371.425 411.074 382 449.5 382s77.036-10.575 106.64-31.95l-4.683-6.486zm-203.914 0C319.587 323.378 306 297.246 306 271.5c0-25.746 13.587-51.878 41.543-72.064l-4.683-6.486C313.214 214.356 298 242.735 298 271.5s15.214 57.144 44.86 78.55l4.683-6.486zm0-144.128C375.542 179.22 412.429 169 449.5 169s73.958 10.22 101.957 30.436l4.683-6.486C526.536 171.575 487.926 161 449.5 161s-77.036 10.575-106.64 31.95l4.683 6.486z" fill="#E1E4E5" mask="url(#a)"/><path d="M304.274 271.661c0-6.042 2.281-12.113 6.857-17.813 24.243-30.201 78.288-49.983 138.396-49.983 60.108 0 114.153 19.782 138.396 49.983 4.575 5.7 6.857 11.771 6.857 17.813 0 6.041-2.282 12.112-6.857 17.812-24.243 30.202-78.288 49.984-138.396 49.984-60.108 0-114.153-19.782-138.396-49.984-4.576-5.7-6.857-11.771-6.857-17.812z" fill="#fff" stroke="#E1E4E5" stroke-width="4"/><mask id="b" fill="#fff"><path fill-rule="evenodd" clip-rule="evenodd" d="M499.051 222.374c27.265 27.259 27.265 71.51 0 98.816-27.266 27.258-71.528 27.258-98.84 0-27.266-27.259-27.266-71.511 0-98.816 27.312-27.305 71.551-27.305 98.84 0z"/></mask><path fill-rule="evenodd" clip-rule="evenodd" d="M499.051 222.374c27.265 27.259 27.265 71.51 0 98.816-27.266 27.258-71.528 27.258-98.84 0-27.266-27.259-27.266-71.511 0-98.816 27.312-27.305 71.551-27.305 98.84 0z" fill="#fff"/><path d="m499.051 321.19 2.828 2.828.002-.002-2.83-2.826zm-98.84 0-2.828 2.828.002.003 2.826-2.831zm0-98.816-2.828-2.829-.003.003 2.831 2.826zm96.012 2.829c25.702 25.695 25.705 67.415-.003 93.16l5.661 5.653c28.824-28.866 28.827-75.649-.002-104.471l-5.656 5.658zm0 93.158c-25.702 25.696-67.435 25.699-93.187-.003l-5.651 5.663c28.872 28.816 75.665 28.819 104.494-.003l-5.656-5.657zm-93.184 0c-25.702-25.695-25.705-67.416.002-93.161l-5.661-5.652c-28.823 28.865-28.827 75.648.003 104.47l5.656-5.657zm0-93.158c25.75-25.745 67.457-25.743 93.183-.001l5.658-5.656c-28.851-28.869-75.624-28.867-104.497-.001l5.656 5.658z" fill="#E1E4E5" mask="url(#b)"/><path fill-rule="evenodd" clip-rule="evenodd" d="M489.7 272.215a39.62 39.62 0 1 1-79.236-.002 39.62 39.62 0 0 1 79.236.002z" fill="#009688"/><circle cx="441.859" cy="258.023" r="13.313" fill="#fff"/><rect x="382.019" y="72" width="191.166" height="65.621" rx="32.81" fill="#fff" stroke="#E1E4E5" stroke-width="4"/><rect x="387.438" y="76.848" width="55.925" height="55.925" rx="27.962" fill="#009688"/><path fill-rule="evenodd" clip-rule="evenodd" d="M428.107 116.54v1.87c0 1.032-.827 1.87-1.845 1.87H404.12c-1.019 0-1.845-.838-1.845-1.87v-1.9c0-5.658 6.38-9.333 12.916-9.333 6.535 0 12.916 3.677 12.916 9.333m-8.283-25.76a6.553 6.553 0 1 1-9.268 9.266 6.553 6.553 0 0 1 9.268-9.265z" fill="#fff"/><rect x="449.64" y="85.978" width="103.86" height="6.277" rx="3.139" fill="#E1E4E5"/><rect x="449.64" y="101.386" width="103.86" height="6.277" rx="3.139" fill="#E1E4E5"/><rect x="449.64" y="116.794" width="103.86" height="6.277" rx="3.139" fill="#E1E4E5"/><rect x="621" y="204" width="191.166" height="65.621" rx="32.81" fill="#fff" stroke="#E1E4E5" stroke-width="4"/><rect x="626.419" y="208.848" width="55.925" height="55.925" rx="27.962" fill="#009688"/><path fill-rule="evenodd" clip-rule="evenodd" d="M667.088 248.54v1.87c0 1.032-.827 1.87-1.845 1.87h-22.142c-1.019 0-1.845-.838-1.845-1.87v-1.9c0-5.658 6.38-9.334 12.916-9.334 6.535 0 12.916 3.678 12.916 9.334m-8.283-25.759a6.552 6.552 0 1 1-9.267 9.265 6.552 6.552 0 0 1 9.267-9.265z" fill="#fff"/><rect x="688.621" y="217.979" width="103.86" height="6.277" rx="3.139" fill="#E1E4E5"/><rect x="688.621" y="233.386" width="103.86" height="6.277" rx="3.139" fill="#E1E4E5"/><rect x="688.621" y="248.794" width="103.86" height="6.277" rx="3.139" fill="#E1E4E5"/><rect x="87" y="257" width="191.166" height="65.621" rx="32.81" fill="#fff" stroke="#E1E4E5" stroke-width="4"/><rect x="92.419" y="261.848" width="55.925" height="55.925" rx="27.962" fill="#009688"/><path fill-rule="evenodd" clip-rule="evenodd" d="M133.088 301.54v1.87c0 1.032-.827 1.87-1.845 1.87h-22.142c-1.019 0-1.845-.838-1.845-1.87v-1.9c0-5.658 6.38-9.333 12.916-9.333 6.535 0 12.916 3.677 12.916 9.333m-8.283-25.759a6.552 6.552 0 1 1-9.267 9.265 6.552 6.552 0 0 1 9.267-9.265z" fill="#fff"/><rect x="154.621" y="270.979" width="103.86" height="6.277" rx="3.139" fill="#E1E4E5"/><rect x="154.621" y="286.386" width="103.86" height="6.277" rx="3.139" fill="#E1E4E5"/><rect x="154.621" y="301.794" width="103.86" height="6.277" rx="3.139" fill="#E1E4E5"/></svg>