<svg width="900" height="600" viewBox="0 0 900 600" fill="none" xmlns="http://www.w3.org/2000/svg"><path fill="transparent" d="M0 0h900v600H0z"/><path d="M154.581 348.994c27.392 16.417 66.691 1.241 66.691 1.241s-5.139-41.788-32.547-58.186c-27.392-16.417-66.674-1.26-66.674-1.26s5.138 41.788 32.53 58.205z" fill="url(#a)"/><circle cx="742.224" cy="208.842" r="14.028" transform="rotate(180 742.224 208.842)" fill="#009688"/><circle cx="577.337" cy="270.535" r="19.953" transform="rotate(180 577.337 270.535)" fill="#009688"/><circle cx="386.238" cy="179.266" r="11.548" transform="rotate(180 386.238 179.266)" fill="#009688"/><circle r="13.152" transform="matrix(-1 0 0 1 306.665 394.1)" fill="#009688"/><circle r="6.137" transform="matrix(-1 0 0 1 714.17 281.647)" fill="#009688"/><circle r="7.891" transform="scale(1 -1) rotate(60 572.287 101.193)" fill="#E1E4E5"/><circle r="11.398" transform="matrix(-1 0 0 1 198.92 419.202)" fill="#E1E4E5"/><circle r="8.675" transform="scale(1 -1) rotate(60 659.942 105.401)" fill="#E1E4E5"/><circle r="9.644" transform="matrix(-1 0 0 1 658.754 166.232)" fill="#E1E4E5"/><circle r="8.661" transform="scale(1 -1) rotate(-75 -43.236 -266.15)" fill="#E1E4E5"/><circle r="11.521" transform="matrix(-1 0 0 1 448.848 69.522)" fill="#E1E4E5"/><ellipse rx="8.863" ry="7.09" transform="scale(1 -1) rotate(60 685.77 156.77)" fill="#E1E4E5"/><circle r="18.024" transform="scale(1 -1) rotate(-75 216.536 -405.396)" fill="#E1E4E5"/><path d="M264.489 179.332h.126c.748 10.593 8.625 10.756 8.625 10.756s-8.686.169-8.686 12.409c0-12.24-8.687-12.409-8.687-12.409s7.874-.163 8.622-10.756zm-13.198 277.281h.121c.718 10.562 8.281 10.724 8.281 10.724s-8.34.169-8.34 12.373c0-12.204-8.34-12.373-8.34-12.373s7.56-.162 8.278-10.724z" fill="#E1E4E5"/><path d="M293.346 175.586v-34.301 0c0-25.258 20.478-45.736 45.735-45.736v0c25.257 0 45.735 20.478 45.735 45.736v34.301" stroke="#009688" stroke-width="17.873" stroke-linecap="round" stroke-linejoin="round"/><path fill-rule="evenodd" clip-rule="evenodd" d="M406.747 315.481H271.414c-14.954 0-27.066-12.112-27.066-27.066v-94.733c0-14.955 12.112-27.067 27.066-27.067h135.333c14.955 0 27.067 12.112 27.067 27.067v94.733c0 14.954-12.112 27.066-27.067 27.066z" fill="#009688" stroke="#009688" stroke-width="13.312" stroke-linecap="round" stroke-linejoin="round"/><path d="M338.192 273.519v-33.943m-.038-20.219c-5.511 0-9.984 4.473-9.944 9.984 0 5.511 4.473 9.983 9.983 9.983 5.511 0 9.984-4.472 9.984-9.983s-4.473-9.984-10.023-9.984" stroke="#fff" stroke-width="27.776" stroke-linecap="round" stroke-linejoin="round"/><path d="m423.741 236.704 34.956 87.705m-65.88-75.382 30.924-12.325m-16.757 47.869 30.923-12.325m50.548 52.562c-19.729-8.485-42.6.631-51.084 20.36-8.484 19.728.631 42.599 20.36 51.084 19.728 8.484 42.6-.632 51.084-20.36 8.484-19.729-.631-42.6-20.36-51.084" stroke="#133835" stroke-width="14.349" stroke-linecap="round" stroke-linejoin="round"/><path fill-rule="evenodd" clip-rule="evenodd" d="m681.966 446.327-19.674-30.553a113.324 113.324 0 0 0-46.54-40.955l-67.559-32.188a45.083 45.083 0 0 0-19.581-4.382l-15.146.065 4.298 14.046-59.775-14.328c-6.955-1.667-13.774 3.214-14.44 10.335a11.753 11.753 0 0 0 4.969 10.725l16.557 11.57c-10.321 5.027-11.694 19.18-2.533 26.098l8.415 6.355c-7.94 4.957-8.352 16.371-.789 21.887l12.207 8.904a17.466 17.466 0 0 0 9.683 19.105l13.038 6.164a36.1 36.1 0 0 0 6.001 2.211l60.239 16.285 67.341 44.726 43.289-76.07z" fill="#F8AE9D"/><path fill-rule="evenodd" clip-rule="evenodd" d="M793.578 532.318 647.432 393.575l-99.766 101.454 40.369 38.172 205.543-.883z" fill="#009688"/><defs><linearGradient id="a" x1="260.58" y1="401.839" x2="40.176" y2="197.055" gradientUnits="userSpaceOnUse"><stop stop-color="#fff"/><stop offset="1" stop-color="#EEE"/></linearGradient></defs></svg>