<svg width="900" height="600" viewBox="0 0 900 600" fill="none" xmlns="http://www.w3.org/2000/svg"><path fill="transparent" d="M0 0h900v600H0z"/><path d="M277.988 410.24c9.974 56.687 145.877 145.079 270.985 71.593 58.186-34.18 45.311-65.471 83.056-119.427 22.498-32.159 58.866-60.975 61.598-100.755 2.366-34.337-11.662-67.393-33.89-85.848-49.991-41.505-135.286-58.057-192.967 39.05-57.681 97.107-214.487 49.184-188.782 195.387z" fill="url(#a)"/><path fill="#133835" stroke="#133835" stroke-width="2.026" d="M404.013 337.013h246.974v194.974H404.013z"/><path fill="#133835" stroke="#133835" stroke-width="2.026" d="M518.544 376.937h170.507V532.29H518.544z"/><path fill="#133835" stroke="#133835" stroke-width="2.026" d="M583.827 415.407h149.524v116.882H583.827z"/><path fill="#133835" stroke="#133835" stroke-width="2.026" d="M623.013 453.878h149.524v78.412H623.013zm-304.98 19.818h303.405v58.594H318.033z"/><path fill="#009688" stroke="#133835" stroke-width="2.026" d="M128.013 493.514H342.82v38.776H128.013z"/><path fill="#009688" stroke="#133835" stroke-width="2.026" d="M187.467 453.878h214.807v39.942H187.467z"/><path fill="#009688" stroke="#133835" stroke-width="2.026" d="M276.065 415.407h214.807v38.776H276.065z"/><path fill="#009688" stroke="#133835" stroke-width="2.026" d="M335.519 376.937h214.807v38.776H335.519z"/><path fill="#009688" stroke="#133835" stroke-width="2.026" d="M394.973 337.301H609.78v39.942H394.973z"/><path fill-rule="evenodd" clip-rule="evenodd" d="M513.194 264.79H486.08c-29.946 0-54.226-24.28-54.226-54.227V102.11c0-7.483 6.073-13.556 13.557-13.556h108.453c7.483 0 13.556 6.073 13.556 13.556v108.453c0 29.947-24.28 54.227-54.226 54.227z" fill="#009688" stroke="#009688" stroke-width="20.335"/><path d="M499.382 251.742v54.226" stroke="#009688" stroke-width="20.335"/><path d="M458.712 305.968h81.34" stroke="#009688" stroke-width="20.335" stroke-linecap="round" stroke-linejoin="round"/><path d="M437.944 326.24H560.82" stroke="#133835" stroke-width="20.72" stroke-linecap="round" stroke-linejoin="round"/><path d="M557.922 129.223h40.67c7.483 0 13.557 6.074 13.557 13.557v27.113c0 22.464-18.207 40.67-40.67 40.67h-13.557m-117.08-81.34h-40.67c-7.483 0-13.557 6.074-13.557 13.557v27.113c0 22.464 18.207 40.67 40.67 40.67h13.557" stroke="#009688" stroke-width="20.335" stroke-linecap="round" stroke-linejoin="round"/><path fill-rule="evenodd" clip-rule="evenodd" d="m499.628 190.261 16.977 8.92c3.301 1.735 7.169-1.067 6.534-4.748l-3.241-18.898 13.735-13.372c2.675-2.607 1.202-7.152-2.496-7.685l-18.975-2.759-8.488-17.205c-1.651-3.352-6.424-3.352-8.083 0l-8.48 17.205-18.974 2.759c-3.699.533-5.171 5.078-2.497 7.685l13.736 13.372-3.242 18.898c-.634 3.681 3.233 6.483 6.534 4.748l16.977-8.92h-.017z" fill="#fff"/><path d="M628.315 88.553h.214c1.267 16.715 14.618 16.972 14.618 16.972s-14.722.268-14.722 19.58c0-19.312-14.722-19.58-14.722-19.58s13.345-.257 14.612-16.972zM369.626 227h.2c1.181 15.586 13.631 15.826 13.631 15.826s-13.729.249-13.729 18.259c0-18.01-13.728-18.259-13.728-18.259s12.445-.24 13.626-15.826zm213.291 37.528h.13c.77 10.154 8.88 10.31 8.88 10.31s-8.944.163-8.944 11.895c0-11.732-8.943-11.895-8.943-11.895s8.107-.156 8.877-10.31zM338.72 114.217h.13c.77 10.154 8.88 10.31 8.88 10.31s-8.943.163-8.943 11.895c0-11.732-8.944-11.895-8.944-11.895s8.107-.156 8.877-10.31zm-106.843 161h.13c.769 10.154 8.88 10.31 8.88 10.31s-8.944.163-8.944 11.895c0-11.732-8.943-11.895-8.943-11.895s8.107-.156 8.877-10.31zm-72 37.783h.13c.769 10.154 8.88 10.31 8.88 10.31s-8.944.162-8.944 11.895c0-11.733-8.943-11.895-8.943-11.895s8.107-.156 8.877-10.31zM400.936 66h.13c.769 10.153 8.88 10.31 8.88 10.31s-8.944.162-8.944 11.895c0-11.733-8.943-11.895-8.943-11.895s8.107-.157 8.877-10.31zm-97.844 134h.13c.77 10.154 8.881 10.31 8.881 10.31s-8.944.162-8.944 11.895c0-11.733-8.943-11.895-8.943-11.895s8.107-.156 8.876-10.31zm-54.999-30h.13c.769 10.154 8.88 10.31 8.88 10.31s-8.944.162-8.944 11.895c0-11.733-8.943-11.895-8.943-11.895s8.107-.156 8.877-10.31zm186.44 108.312h.098c.581 7.664 6.703 7.782 6.703 7.782s-6.751.123-6.751 8.979c0-8.856-6.75-8.979-6.75-8.979s6.119-.118 6.7-7.782zm193.647-67.66h.098c.581 7.665 6.703 7.783 6.703 7.783s-6.751.122-6.751 8.978c0-8.856-6.75-8.978-6.75-8.978s6.119-.118 6.7-7.783zM708.7 214h.098c.581 7.664 6.703 7.782 6.703 7.782s-6.75.123-6.75 8.979c0-8.856-6.751-8.979-6.751-8.979s6.119-.118 6.7-7.782zm-6.448 85.652h.098c.581 7.665 6.703 7.783 6.703 7.783s-6.751.122-6.751 8.978c0-8.856-6.751-8.978-6.751-8.978s6.12-.118 6.701-7.783zM584.629 66h.098c.581 7.664 6.703 7.782 6.703 7.782s-6.751.123-6.751 8.979c0-8.856-6.751-8.979-6.751-8.979s6.12-.118 6.701-7.782zm74.071 89h.098c.581 7.664 6.703 7.782 6.703 7.782s-6.75.123-6.75 8.979c0-8.856-6.751-8.979-6.751-8.979s6.119-.118 6.7-7.782z" fill="#E1E4E5"/><defs><linearGradient id="a" x1="486.791" y1="715.394" x2="476.839" y2="-255.841" gradientUnits="userSpaceOnUse"><stop stop-color="#fff"/><stop offset="1" stop-color="#EEE"/></linearGradient></defs></svg>