<svg width="900" height="600" viewBox="0 0 900 600" fill="none" xmlns="http://www.w3.org/2000/svg"><path fill="transparent" d="M0 0h900v600H0z"/><circle r="69.023" transform="matrix(-1 0 0 1 551.619 432.605)" fill="#133835"/><circle r="145.028" transform="matrix(-1 0 0 1 652.087 326.509)" fill="#133835"/><circle r="74.969" transform="matrix(-1 0 0 1 528.926 371.795)" fill="#133835"/><circle r="145.028" transform="matrix(-1 0 0 1 574.34 206.898)" fill="#133835"/><circle r="74.969" transform="matrix(-1 0 0 1 447.512 394.466)" fill="#133835"/><circle r="145.028" transform="matrix(-1 0 0 1 376.982 233.811)" fill="#133835"/><circle cx="211.028" cy="242.77" r="145.028" fill="#133835"/><circle r="69.023" transform="matrix(-1 0 0 1 355.69 430.914)" fill="#133835"/><circle r="145.028" transform="matrix(-1 0 0 1 257.77 319.949)" fill="#133835"/><path d="M550.939 469.506h-.071c-.421 6.462-4.857 6.562-4.857 6.562s4.891.103 4.891 7.57c0-7.467 4.892-7.57 4.892-7.57s-4.434-.1-4.855-6.562zm123.374-27.175h-.063c-.374 5.965-4.317 6.056-4.317 6.056s4.348.096 4.348 6.988c0-6.892 4.348-6.988 4.348-6.988s-3.942-.091-4.316-6.056zm-305.581-19.567h-.124c-.735 10.413-8.479 10.573-8.479 10.573s8.539.167 8.539 12.198c0-12.031 8.539-12.198 8.539-12.198s-7.74-.16-8.475-10.573zm377.202-103.301h-.103c-.613 8.677-7.066 8.81-7.066 8.81s7.116.139 7.116 10.165c0-10.026 7.116-10.165 7.116-10.165s-6.451-.133-7.063-8.81zm-42.695 38.243h-.103c-.613 8.677-7.066 8.811-7.066 8.811s7.116.138 7.116 10.164c0-10.026 7.116-10.164 7.116-10.164s-6.45-.134-7.063-8.811zm-67.605-12.626h-.093c-.552 7.809-6.359 7.929-6.359 7.929s6.404.125 6.404 9.149c0-9.024 6.404-9.149 6.404-9.149s-5.805-.12-6.356-7.929zm-78.296 37.002h-.051c-.307 5.206-3.533 5.286-3.533 5.286s3.558.084 3.558 6.099c0-6.015 3.558-6.099 3.558-6.099s-3.225-.08-3.532-5.286zm83.271-247.156h-.083c-.489 6.941-5.652 7.048-5.652 7.048s5.693.111 5.693 8.132c0-8.021 5.693-8.132 5.693-8.132s-5.161-.107-5.651-7.048zm-174.476-8.554h-.124c-.735 9.761-8.478 9.911-8.478 9.911s8.539.157 8.539 11.436c0-11.279 8.539-11.436 8.539-11.436s-7.741-.15-8.476-9.911zm246.352 105.803h-.093c-.552 7.809-6.359 7.93-6.359 7.93s6.404.125 6.404 9.148c0-9.023 6.404-9.148 6.404-9.148s-5.805-.121-6.356-7.93zm-68.997 28.938h-.145c-.858 13.015-9.892 13.216-9.892 13.216s9.962.208 9.962 15.247c0-15.039 9.962-15.247 9.962-15.247s-9.03-.201-9.887-13.216zm-337.28-109.584h-.166c-.979 13.883-11.304 14.097-11.304 14.097s11.385.222 11.385 16.264c0-16.042 11.385-16.264 11.385-16.264s-10.32-.214-11.3-14.097zm227.664-15.362h-.083c-.49 6.941-5.652 7.048-5.652 7.048s5.692.111 5.692 8.132c0-8.021 5.693-8.132 5.693-8.132s-5.16-.107-5.65-7.048zM265.464 253.188h-.124c-.735 9.761-8.479 9.911-8.479 9.911s8.539.157 8.539 11.436c0-11.279 8.539-11.436 8.539-11.436s-7.74-.15-8.475-9.911z" fill="#fff"/><path d="M141.865 271.202v-18.264m9.132 9.132h-18.264m108.279-61.963v-18.264m9.132 9.132H231.88m-48.501 151.133v-18.264m9.132 9.132h-18.264m498.46-121.911v-18.263m9.132 9.131h-18.264" stroke="#fff" stroke-width="4" stroke-linecap="round" stroke-linejoin="round"/><circle cx="706.64" cy="291.495" r="10.32" fill="#009688"/><circle cx="425.978" cy="349.041" r="6.807" fill="#009688"/><circle cx="210.663" cy="286.342" r="11.414" fill="#009688"/><circle cx="250.355" cy="391.56" r="9.622" fill="#E1E4E5"/><circle cx="162.498" cy="180.703" r="9.606" transform="rotate(105 162.498 180.703)" fill="#E1E4E5"/><circle cx="453.614" cy="61.87" r="10.87" fill="#E1E4E5"/><path d="M571.676 96.026h-.258c-1.532 22.126-17.664 22.467-17.664 22.467s17.789.354 17.789 25.921c0-25.567 17.79-25.921 17.79-25.921s-16.126-.341-17.657-22.467z" fill="#E1E4E5"/><path fill-rule="evenodd" clip-rule="evenodd" d="M584.261 210.852v153.085c0 16.839-13.777 30.617-30.617 30.617H339.325c-16.839 0-30.617-13.778-30.617-30.617V210.852" fill="#009688"/><path d="M584.261 210.852v153.085c0 16.839-13.777 30.617-30.617 30.617H339.325c-16.839 0-30.617-13.778-30.617-30.617V210.852" stroke="#009688" stroke-width="4.532"/><path fill-rule="evenodd" clip-rule="evenodd" d="m575.261 385.552-93.29-93.29 93.29 93.29z" fill="#fff"/><path d="m575.261 385.552-93.29-93.29" stroke="#133835" stroke-width="4.532"/><path fill-rule="evenodd" clip-rule="evenodd" d="m410.355 292.905-92.647 92.647 92.647-92.647z" fill="#fff"/><path d="m410.355 292.905-92.647 92.647" stroke="#133835" stroke-width="4.532"/><path fill-rule="evenodd" clip-rule="evenodd" d="M584.261 207.79c0 9.185-4.592 16.839-12.247 22.963l-91.851 62.764c-21.431 13.778-47.456 13.778-68.888 0l-91.851-61.234c-6.123-7.654-10.716-15.308-10.716-24.493a27.44 27.44 0 0 1 27.556-27.555h220.442a27.44 27.44 0 0 1 27.555 27.555z" fill="#133835" stroke="#009688" stroke-width="4.532"/><path d="M775.184 403.628s-57.189-13.074-86.35-3.795c-28.853 9.183-98.146 47.586-161.799 50.399a2.554 2.554 0 0 1-2.614-1.95c-.985-4.233-.897-14.287 18.574-22.6 25.366-10.778 44.572-19.532 44.572-19.532s-112.285-39.029-141.923-51.868c-5.853-2.531-10.276-5.223-13.639-7.984-10.484-8.614-.967-25.379 11.915-21.098l75.389 25.027s-6.155-6.622-2.994-14.059c3.007-7.027 17.319-10.768 28.91-6.165 0 0-6.284-8.018.455-16.111 6.739-8.094 21.355-6.631 28.292-4.467 0 0-7.654-6.346-4.48-13.571 3.173-7.225 19.628-9.505 24.767-8.595 5.139.91 49.095.97 110.745 30.475l87.199-12.707s24.025 23.037-17.019 98.601z" fill="#F8AE9D"/></svg>