<svg width="900" height="600" viewBox="0 0 900 600" fill="none" xmlns="http://www.w3.org/2000/svg"><path fill="transparent" d="M0 0h900v600H0z"/><path d="M206.279 172.22a1.689 1.689 0 0 1 .232 3.363 223.632 223.632 0 0 0-12.411 2.119 1.686 1.686 0 0 1-1.981-1.328 1.693 1.693 0 0 1 1.325-1.985 230.84 230.84 0 0 1 12.602-2.155c.078-.007.155-.014.233-.014zm-24.873 4.917a1.69 1.69 0 0 1 .409 3.328 251.826 251.826 0 0 0-12.116 3.384 1.692 1.692 0 0 1-2.107-1.116 1.692 1.692 0 0 1 1.114-2.113 250.8 250.8 0 0 1 12.284-3.433c.141-.029.282-.05.416-.05zm-24.196 7.468a1.687 1.687 0 0 1 .578 3.271 208.3 208.3 0 0 0-11.65 4.698 1.683 1.683 0 0 1-2.22-.869 1.69 1.69 0 0 1 .867-2.226 204.89 204.89 0 0 1 11.84-4.768c.191-.078.388-.106.585-.106zm-23.167 10.194c.607 0 1.199.332 1.495.912.43.826.105 1.851-.719 2.274a171.553 171.553 0 0 0-10.897 6.196 1.674 1.674 0 0 1-2.318-.551 1.687 1.687 0 0 1 .542-2.324 172.623 172.623 0 0 1 11.115-6.323c.254-.12.522-.184.782-.184zm-21.475 13.367c.515 0 1.022.233 1.353.685a1.696 1.696 0 0 1-.352 2.367 133.342 133.342 0 0 0-9.67 7.912 1.688 1.688 0 0 1-2.382-.127 1.698 1.698 0 0 1 .127-2.388 135.279 135.279 0 0 1 9.916-8.11c.31-.233.663-.339 1.008-.339zm-18.734 16.948c.402 0 .804.141 1.128.438.69.622.747 1.696.12 2.388a110.91 110.91 0 0 0-7.795 9.707 1.688 1.688 0 1 1-2.75-1.964 114.144 114.144 0 0 1 8.036-10.011 1.734 1.734 0 0 1 1.261-.558zM79.217 245.68a1.69 1.69 0 0 1 1.473 2.501 102.788 102.788 0 0 0-5.272 11.254 1.688 1.688 0 1 1-3.136-1.244 105.096 105.096 0 0 1 5.448-11.628 1.71 1.71 0 0 1 1.487-.883zm-9.304 23.441a1.687 1.687 0 0 1 1.628 2.119 112.323 112.323 0 0 0-2.495 12.187 1.679 1.679 0 0 1-1.917 1.42 1.691 1.691 0 0 1-1.423-1.922 115.5 115.5 0 0 1 2.572-12.561 1.709 1.709 0 0 1 1.635-1.243zm-3.89 24.967h.12c.93.063 1.628.869 1.564 1.801a142.42 142.42 0 0 0-.338 9.693c0 .947.007 1.893.028 2.812a1.688 1.688 0 0 1-1.65 1.724 1.687 1.687 0 0 1-1.719-1.654c-.021-.946-.028-1.921-.028-2.889 0-3.222.12-6.556.345-9.926a1.69 1.69 0 0 1 1.678-1.561zm.634 25.285c.832 0 1.558.621 1.67 1.469.557 4.232 1.368 8.336 2.41 12.194.24.904-.288 1.83-1.183 2.07a1.686 1.686 0 0 1-2.065-1.194c-1.079-4.006-1.917-8.252-2.495-12.632a1.687 1.687 0 0 1 1.663-1.907zm6.675 24.331c.64 0 1.254.374 1.536.996 1.727 3.836 3.764 7.446 6.061 10.724a1.691 1.691 0 0 1-.408 2.353 1.681 1.681 0 0 1-2.347-.41c-2.418-3.448-4.56-7.242-6.379-11.275a1.689 1.689 0 0 1 .846-2.233 1.61 1.61 0 0 1 .69-.155zm55.299 1.964c.881 0 1.628.692 1.677 1.582a1.691 1.691 0 0 1-1.579 1.795c-3.904.24-7.985 1.144-11.798 2.614a1.684 1.684 0 0 1-2.178-.975 1.69 1.69 0 0 1 .973-2.183c4.13-1.59 8.556-2.565 12.799-2.833.035.007.077 0 .106 0zm12.425 1.709c.212 0 .423.043.627.12 5.251 2.127 8.409 5.85 8.881 10.485a1.686 1.686 0 0 1-1.501 1.85 1.687 1.687 0 0 1-1.847-1.511c-.437-4.267-3.933-6.542-6.787-7.701a1.68 1.68 0 0 1 .627-3.243zm-35.677 7.242c.5 0 .994.219 1.325.643a1.695 1.695 0 0 1-.275 2.373 37.352 37.352 0 0 0-8.12 8.909 1.683 1.683 0 0 1-2.332.495 1.692 1.692 0 0 1-.493-2.339 40.492 40.492 0 0 1 8.852-9.714 1.652 1.652 0 0 1 1.043-.367zm-17.535 9.608c.408 0 .817.148 1.141.445a51.935 51.935 0 0 0 9.882 7.192 1.686 1.686 0 0 1-1.643 2.946 55.722 55.722 0 0 1-10.522-7.658 1.69 1.69 0 0 1-.099-2.388c.338-.354.79-.537 1.24-.537zm56.884 3.885a1.695 1.695 0 0 1 1.318 2.749c-2.713 3.377-6.357 6.012-10.833 7.827a1.688 1.688 0 0 1-1.261-3.129c3.933-1.597 7.118-3.886 9.465-6.811a1.672 1.672 0 0 1 1.311-.636zm-52.945 7.341c.148 0 .296.021.444.056a1.688 1.688 0 0 1 1.184 2.077c-1.022 3.752-1.571 7.821-1.628 12.088a1.69 1.69 0 0 1-1.684 1.667h-.021a1.686 1.686 0 0 1-1.664-1.709c.064-4.557.649-8.909 1.748-12.936a1.684 1.684 0 0 1 1.621-1.243zm17.952.939c.141 0 .289.022.43.057 4.031 1.06 8.098 1.547 12.038 1.441a1.686 1.686 0 0 1 1.726 1.646 1.681 1.681 0 0 1-1.642 1.731c-4.257.113-8.648-.41-12.982-1.554a1.693 1.693 0 0 1-1.205-2.063 1.7 1.7 0 0 1 1.635-1.258zM91.17 400.575c.804 0 1.516.579 1.656 1.399.677 3.857 1.692 7.92 3.017 12.06a1.695 1.695 0 0 1-1.092 2.126 1.69 1.69 0 0 1-2.122-1.095c-1.374-4.288-2.424-8.492-3.122-12.505a1.69 1.69 0 0 1 1.663-1.985zm7.563 24.112a1.69 1.69 0 0 1 1.543 1.01 157.729 157.729 0 0 0 5.477 11.269 1.7 1.7 0 0 1-.691 2.289 1.691 1.691 0 0 1-2.284-.693 164.84 164.84 0 0 1-5.589-11.508 1.69 1.69 0 0 1 1.544-2.367zm12.066 22.219c.536 0 1.057.254 1.388.728a96.904 96.904 0 0 0 7.732 9.721 1.691 1.691 0 0 1-.113 2.388 1.682 1.682 0 0 1-2.382-.113 100.185 100.185 0 0 1-8.006-10.068 1.693 1.693 0 0 1 1.381-2.656zm16.915 18.707c.388 0 .783.135 1.1.41 3.08 2.657 6.406 5.2 9.881 7.574.768.522.973 1.575.444 2.345a1.677 1.677 0 0 1-2.34.445 113.654 113.654 0 0 1-10.184-7.806 1.685 1.685 0 0 1-.176-2.381 1.67 1.67 0 0 1 1.275-.587zm280.407 13.212c.676 0 1.311.409 1.571 1.073a1.697 1.697 0 0 1-.951 2.191c-3.404 1.335-7.464 2.734-12.08 4.161a1.687 1.687 0 0 1-2.108-1.117 1.692 1.692 0 0 1 1.114-2.112c4.532-1.406 8.521-2.776 11.841-4.083.197-.078.408-.113.613-.113zm-259.566 1.052c.268 0 .55.064.804.205a141.472 141.472 0 0 0 11.234 5.461 1.684 1.684 0 0 1 .874 2.219 1.677 1.677 0 0 1-2.213.876 148.29 148.29 0 0 1-11.502-5.589 1.69 1.69 0 0 1 .803-3.172zm235.44 6.549c.747 0 1.431.502 1.628 1.258a1.68 1.68 0 0 1-1.198 2.063 400.824 400.824 0 0 1-12.327 3.059 1.686 1.686 0 0 1-2.023-1.265 1.687 1.687 0 0 1 1.262-2.027c4.208-.982 8.324-2 12.228-3.038.141-.036.289-.05.43-.05zm-212.287 3.554c.183 0 .367.028.55.092a191.133 191.133 0 0 0 11.975 3.688 1.69 1.69 0 0 1 1.184 2.07 1.683 1.683 0 0 1-2.065 1.186 192.812 192.812 0 0 1-12.194-3.751 1.69 1.69 0 0 1 .55-3.285zm187.654 2.197c.783 0 1.488.551 1.65 1.349a1.691 1.691 0 0 1-1.311 1.993c-4.088.84-8.282 1.646-12.461 2.395a1.693 1.693 0 0 1-1.96-1.364 1.696 1.696 0 0 1 1.361-1.964 533.601 533.601 0 0 0 12.383-2.381c.113-.021.226-.028.338-.028zm-24.893 4.472c.817 0 1.536.593 1.663 1.434a1.69 1.69 0 0 1-1.41 1.929c-4.172.65-8.394 1.257-12.559 1.801a1.674 1.674 0 0 1-1.889-1.455 1.687 1.687 0 0 1 1.452-1.893 546.36 546.36 0 0 0 12.482-1.788c.092-.021.176-.028.261-.028zm-138.389.007c.113 0 .233.014.346.035 3.989.841 8.147 1.604 12.348 2.275a1.69 1.69 0 0 1 1.402 1.929c-.148.925-1 1.547-1.931 1.406a246.397 246.397 0 0 1-12.517-2.303 1.692 1.692 0 0 1-1.304-2 1.706 1.706 0 0 1 1.656-1.342zm113.312 3.285c.853 0 1.579.643 1.677 1.512a1.688 1.688 0 0 1-1.494 1.858c-4.215.452-8.465.855-12.63 1.194a1.691 1.691 0 0 1-.275-3.37c4.137-.339 8.359-.742 12.546-1.187.056 0 .119-.007.176-.007zm-88.34.693c.063 0 .126 0 .19.007 4.067.459 8.281.84 12.524 1.144a1.682 1.682 0 0 1 1.558 1.809 1.68 1.68 0 0 1-1.804 1.561 328.688 328.688 0 0 1-12.659-1.159 1.687 1.687 0 0 1 .191-3.362zm63.143 1.37c.888 0 1.635.7 1.684 1.597a1.688 1.688 0 0 1-1.585 1.78c-4.25.233-8.514.417-12.68.53a1.707 1.707 0 0 1-1.734-1.646 1.687 1.687 0 0 1 1.636-1.738c4.13-.113 8.366-.29 12.587-.53a.382.382 0 0 0 .092.007zm-37.926.452h.064c4.109.149 8.345.226 12.588.233.93 0 1.684.763 1.684 1.696a1.68 1.68 0 0 1-1.684 1.681h-.007c-4.279-.007-8.55-.091-12.701-.24a1.682 1.682 0 0 1-1.621-1.745 1.681 1.681 0 0 1 1.677-1.625zm442.425-64.899a1.738 1.738 0 0 1-.239-3.461 229.285 229.285 0 0 0 12.763-2.182 1.734 1.734 0 0 1 2.037 1.367 1.744 1.744 0 0 1-1.363 2.044c-4.45.887-8.806 1.629-12.958 2.218-.08.007-.16.014-.24.014zm25.577-5.061a1.74 1.74 0 0 1-.421-3.425 260.18 260.18 0 0 0 12.459-3.483 1.739 1.739 0 0 1 1.022 3.323 258.234 258.234 0 0 1-12.633 3.534 2.209 2.209 0 0 1-.427.051zm24.881-7.687a1.737 1.737 0 0 1-.595-3.366 215.214 215.214 0 0 0 11.98-4.836 1.73 1.73 0 0 1 2.283.894 1.74 1.74 0 0 1-.891 2.291 210.22 210.22 0 0 1-12.176 4.908c-.196.08-.399.109-.601.109zm23.822-10.493a1.726 1.726 0 0 1-1.536-.938 1.736 1.736 0 0 1 .739-2.341 176.15 176.15 0 0 0 11.205-6.378 1.722 1.722 0 0 1 2.384.567 1.739 1.739 0 0 1-.558 2.393 177.614 177.614 0 0 1-11.429 6.508 1.886 1.886 0 0 1-.805.189zm22.083-13.758c-.529 0-1.051-.24-1.391-.706a1.746 1.746 0 0 1 .362-2.436 137.014 137.014 0 0 0 9.944-8.144 1.734 1.734 0 0 1 2.449.131 1.75 1.75 0 0 1-.13 2.458 139.359 139.359 0 0 1-10.197 8.348c-.319.24-.682.349-1.037.349zm19.264-17.446c-.413 0-.826-.145-1.159-.45a1.741 1.741 0 0 1-.124-2.458c2.878-3.2 5.574-6.567 8.016-9.992a1.735 1.735 0 0 1 2.421-.407c.783.56.957 1.643.406 2.429a117.303 117.303 0 0 1-8.262 10.304 1.784 1.784 0 0 1-1.298.574zm15.032-21.168a1.68 1.68 0 0 1-.827-.211 1.74 1.74 0 0 1-.688-2.363 105.93 105.93 0 0 0 5.421-11.584 1.732 1.732 0 0 1 2.254-.975 1.736 1.736 0 0 1 .971 2.254 108.13 108.13 0 0 1-5.602 11.97 1.757 1.757 0 0 1-1.529.909zm9.566-24.128a1.738 1.738 0 0 1-1.674-2.182 115.733 115.733 0 0 0 2.566-12.544 1.725 1.725 0 0 1 1.971-1.461 1.74 1.74 0 0 1 1.464 1.978 118.945 118.945 0 0 1-2.645 12.929 1.758 1.758 0 0 1-1.682 1.28zm4.001-25.699h-.123a1.733 1.733 0 0 1-1.609-1.854c.232-3.389.348-6.741.348-9.977 0-.975-.008-1.949-.029-2.895a1.735 1.735 0 0 1 1.696-1.774 1.736 1.736 0 0 1 1.768 1.702c.022.974.029 1.978.029 2.974 0 3.316-.123 6.748-.355 10.217a1.738 1.738 0 0 1-1.725 1.607zm-.652-26.026c-.856 0-1.602-.64-1.718-1.513-.573-4.356-1.406-8.581-2.479-12.551a1.74 1.74 0 0 1 1.218-2.131 1.733 1.733 0 0 1 2.123 1.229c1.109 4.123 1.972 8.494 2.566 13.002a1.735 1.735 0 0 1-1.71 1.964zm-6.864-25.045a1.74 1.74 0 0 1-1.58-1.025c-1.775-3.949-3.87-7.664-6.233-11.039a1.741 1.741 0 0 1 .421-2.421 1.727 1.727 0 0 1 2.413.422c2.486 3.548 4.689 7.453 6.559 11.606a1.737 1.737 0 0 1-.869 2.297c-.232.11-.472.16-.711.16zm-56.864-2.021a1.732 1.732 0 0 1-1.725-1.629 1.74 1.74 0 0 1 1.624-1.847c4.015-.247 8.211-1.178 12.132-2.691a1.732 1.732 0 0 1 2.24 1.004 1.741 1.741 0 0 1-1.001 2.247c-4.247 1.636-8.798 2.64-13.161 2.916-.036-.007-.08 0-.109 0zm-12.777-1.76a1.81 1.81 0 0 1-.645-.124c-5.4-2.188-8.646-6.021-9.132-10.791a1.736 1.736 0 0 1 1.544-1.905 1.735 1.735 0 0 1 1.899 1.556c.449 4.392 4.044 6.734 6.979 7.926a1.733 1.733 0 0 1 .957 2.262 1.728 1.728 0 0 1-1.602 1.076zm36.687-7.454a1.721 1.721 0 0 1-1.363-.661 1.747 1.747 0 0 1 .283-2.444 38.411 38.411 0 0 0 8.349-9.17 1.73 1.73 0 0 1 2.399-.509c.804.524 1.029 1.6.507 2.407a41.66 41.66 0 0 1-9.103 9.999 1.69 1.69 0 0 1-1.072.378zm18.032-9.889a1.73 1.73 0 0 1-1.174-.459 53.456 53.456 0 0 0-10.161-7.402 1.737 1.737 0 0 1 1.688-3.033 57.301 57.301 0 0 1 10.821 7.883c.703.647.753 1.753.101 2.458a1.766 1.766 0 0 1-1.275.553zm-58.495-4c-.384 0-.768-.124-1.087-.385a1.746 1.746 0 0 1-.268-2.444c2.79-3.476 6.537-6.188 11.139-8.057a1.728 1.728 0 0 1 2.254.96 1.737 1.737 0 0 1-.957 2.261c-4.044 1.644-7.32 4-9.733 7.011a1.718 1.718 0 0 1-1.348.654zm54.443-7.555c-.152 0-.304-.022-.456-.059a1.737 1.737 0 0 1-1.218-2.138c1.051-3.861 1.616-8.05 1.674-12.442a1.74 1.74 0 0 1 1.732-1.716h.022c.957.015 1.725.8 1.711 1.76-.066 4.69-.667 9.17-1.798 13.315a1.732 1.732 0 0 1-1.667 1.28zm-18.459-.968c-.145 0-.297-.021-.442-.058-4.146-1.091-8.328-1.592-12.379-1.483a1.736 1.736 0 0 1-1.776-1.695 1.731 1.731 0 0 1 1.689-1.781c4.378-.117 8.893.422 13.35 1.6a1.743 1.743 0 0 1 1.239 2.123 1.747 1.747 0 0 1-1.681 1.294zm19.09-24.891a1.733 1.733 0 0 1-1.703-1.44c-.696-3.971-1.74-8.152-3.102-12.413a1.745 1.745 0 0 1 1.123-2.189 1.738 1.738 0 0 1 2.182 1.127c1.413 4.414 2.493 8.741 3.21 12.871a1.74 1.74 0 0 1-1.71 2.044zm-7.777-24.819a1.737 1.737 0 0 1-1.587-1.04 162.729 162.729 0 0 0-5.631-11.599 1.749 1.749 0 0 1 .71-2.356 1.737 1.737 0 0 1 2.348.713c2.138 4.021 4.073 7.999 5.747 11.846a1.739 1.739 0 0 1-1.587 2.436zm-12.408-22.87c-.55 0-1.087-.262-1.427-.749a99.774 99.774 0 0 0-7.951-10.006 1.742 1.742 0 0 1 .116-2.458 1.727 1.727 0 0 1 2.45.116 103.13 103.13 0 0 1 8.233 10.362 1.744 1.744 0 0 1-1.421 2.735zm-17.394-19.256a1.72 1.72 0 0 1-1.13-.422 114.65 114.65 0 0 0-10.161-7.796c-.79-.538-1-1.621-.457-2.414a1.724 1.724 0 0 1 2.406-.458 116.958 116.958 0 0 1 10.473 8.035c.725.626.812 1.724.181 2.451-.34.4-.826.604-1.312.604zM481.14 121.964a1.737 1.737 0 0 1-1.616-1.105 1.746 1.746 0 0 1 .978-2.254c3.501-1.375 7.675-2.815 12.422-4.284a1.734 1.734 0 0 1 2.167 1.149 1.742 1.742 0 0 1-1.145 2.175c-4.66 1.447-8.762 2.858-12.176 4.203-.203.08-.42.116-.63.116zm266.911-1.083a1.71 1.71 0 0 1-.826-.211 145.571 145.571 0 0 0-11.552-5.621 1.734 1.734 0 0 1-.899-2.284 1.723 1.723 0 0 1 2.276-.901 152.592 152.592 0 0 1 11.828 5.752 1.74 1.74 0 0 1-.827 3.265zm-242.103-6.741a1.734 1.734 0 0 1-1.674-1.295 1.73 1.73 0 0 1 1.232-2.123 411.079 411.079 0 0 1 12.676-3.149 1.733 1.733 0 0 1 2.08 1.302 1.736 1.736 0 0 1-1.297 2.087 425.28 425.28 0 0 0-12.575 3.127 1.852 1.852 0 0 1-.442.051zm218.295-3.658c-.188 0-.376-.029-.565-.095a196.477 196.477 0 0 0-12.313-3.796 1.738 1.738 0 0 1-1.218-2.13 1.732 1.732 0 0 1 2.123-1.222 199.037 199.037 0 0 1 12.539 3.861 1.738 1.738 0 0 1-.566 3.382zm-192.965-2.262a1.736 1.736 0 0 1-1.696-1.389 1.74 1.74 0 0 1 1.348-2.05 506.653 506.653 0 0 1 12.814-2.465 1.74 1.74 0 0 1 .616 3.425 544.99 544.99 0 0 0-12.734 2.45 1.858 1.858 0 0 1-.348.029zm25.598-4.603a1.73 1.73 0 0 1-1.71-1.476 1.74 1.74 0 0 1 1.45-1.985c4.29-.67 8.631-1.295 12.915-1.855a1.723 1.723 0 0 1 1.942 1.498 1.736 1.736 0 0 1-1.493 1.949 560.57 560.57 0 0 0-12.835 1.84 1.164 1.164 0 0 1-.269.029zm142.305-.007c-.115 0-.239-.015-.355-.036a262.786 262.786 0 0 0-12.697-2.342 1.74 1.74 0 0 1-1.443-1.985 1.735 1.735 0 0 1 1.986-1.447c4.378.69 8.712 1.49 12.872 2.37a1.742 1.742 0 0 1 1.341 2.058 1.755 1.755 0 0 1-1.704 1.382zm-116.518-3.381a1.743 1.743 0 0 1-1.725-1.557 1.737 1.737 0 0 1 1.537-1.912c4.334-.466 8.704-.88 12.987-1.23a1.738 1.738 0 0 1 1.87 1.594c.08.96-.63 1.796-1.587 1.876-4.254.349-8.596.763-12.901 1.221-.058 0-.123.008-.181.008zm90.841-.713c-.066 0-.131 0-.196-.007a317.278 317.278 0 0 0-12.879-1.178 1.73 1.73 0 0 1-1.602-1.862c.066-.96.899-1.68 1.856-1.607 4.406.32 8.784.72 13.016 1.193a1.737 1.737 0 0 1-.195 3.46zm-64.931-1.41c-.913 0-1.681-.72-1.732-1.644a1.737 1.737 0 0 1 1.631-1.833c4.37-.24 8.755-.429 13.038-.545a1.756 1.756 0 0 1 1.783 1.694c.029.96-.725 1.76-1.682 1.789-4.247.116-8.603.298-12.944.545-.029-.007-.058-.007-.094-.007zm38.999-.466h-.065a377.455 377.455 0 0 0-12.944-.24 1.742 1.742 0 0 1-1.733-1.746c0-.96.776-1.73 1.733-1.73h.007c4.399.007 8.791.094 13.06.247a1.73 1.73 0 0 1 1.667 1.796 1.73 1.73 0 0 1-1.725 1.673z" fill="#E1E4E5"/><path fill-rule="evenodd" clip-rule="evenodd" d="M192.136 149.418h182.072c23.394 0 42.342 18.949 42.342 42.343v338.738l-133.209-69.293-133.548 69.293V191.761c0-23.394 18.949-42.343 42.343-42.343z" fill="#009688" stroke="#009688" stroke-width="11.75" stroke-linecap="round" stroke-linejoin="round"/><path d="M240.826 297.616h84.685m-42.343-42.343v84.685" stroke="#fff" stroke-width="20" stroke-linecap="round" stroke-linejoin="round"/><path fill-rule="evenodd" clip-rule="evenodd" d="M497.623 70h182.071c23.395 0 42.343 18.948 42.343 42.342v338.739l-133.209-69.294-133.548 69.294V112.342C455.28 88.948 474.228 70 497.623 70z" fill="#009688" stroke="#009688" stroke-width="11.75" stroke-linecap="round" stroke-linejoin="round"/><path d="M546.313 218.198h84.684m-42.342-42.344v84.685" stroke="#fff" stroke-width="20" stroke-linecap="round" stroke-linejoin="round"/><rect x="420.549" y="101.542" width="38.398" height="4.474" rx="2.237" transform="rotate(135 420.549 101.542)" fill="#E1E4E5"/><rect x="405.827" y="101.438" width="14.257" height="4.474" rx="2.237" transform="rotate(135 405.827 101.438)" fill="#E1E4E5"/><rect x="572.926" y="447.844" width="33.003" height="3.845" rx="1.922" transform="rotate(-45 572.926 447.844)" fill="#E1E4E5"/><rect x="585.58" y="447.934" width="12.254" height="3.845" rx="1.922" transform="rotate(-45 585.58 447.934)" fill="#E1E4E5"/><rect x="451.131" y="503.543" width="54.87" height="6.393" rx="3.196" transform="rotate(-45 451.131 503.543)" fill="#E1E4E5"/><rect x="472.17" y="503.692" width="20.373" height="6.393" rx="3.196" transform="rotate(-45 472.17 503.692)" fill="#E1E4E5"/></svg>