<svg width="900" height="600" viewBox="0 0 900 600" fill="none" xmlns="http://www.w3.org/2000/svg"><path fill="transparent" d="M0 0h900v600H0z"/><path d="M420.375 167.129c41.757 25.026 101.664 1.891 101.664 1.891s-7.833-63.701-49.615-88.7c-41.756-25.026-101.639-1.92-101.639-1.92s7.834 63.702 49.59 88.729z" fill="url(#a)"/><circle cx="623.362" cy="456.485" r="15.168" transform="rotate(180 623.362 456.485)" fill="#009688"/><circle cx="555.046" cy="266.001" r="21.573" transform="rotate(180 555.046 266.001)" fill="#009688"/><circle cx="382.126" cy="312.475" r="12.486" transform="rotate(180 382.126 312.475)" fill="#009688"/><circle r="14.22" transform="matrix(-1 0 0 1 295.532 445.507)" fill="#009688"/><circle r="6.636" transform="matrix(-1 0 0 1 756.653 358.144)" fill="#009688"/><circle r="8.532" transform="scale(1 -1) rotate(60 772.42 326.62)" fill="#E1E4E5"/><circle r="12.324" transform="matrix(-1 0 0 1 194.431 428.585)" fill="#E1E4E5"/><circle r="9.379" transform="scale(1 -1) rotate(60 681.862 108.414)" fill="#E1E4E5"/><circle r="10.428" transform="matrix(-1 0 0 1 699.186 244.884)" fill="#E1E4E5"/><circle r="9.364" transform="scale(1 -1) rotate(-75 30.445 -546.703)" fill="#E1E4E5"/><circle r="12.457" transform="matrix(-1 0 0 1 325.112 71.683)" fill="#E1E4E5"/><ellipse rx="9.583" ry="7.666" transform="scale(1 -1) rotate(60 709.785 163.957)" fill="#E1E4E5"/><circle r="19.488" transform="scale(1 -1) rotate(-75 265.582 -435.159)" fill="#E1E4E5"/><path d="M265.325 197.494h.137c.808 11.453 9.326 11.629 9.326 11.629s-9.393.183-9.393 13.417c0-13.234-9.392-13.417-9.392-13.417s8.514-.176 9.322-11.629zm34.911 148.315h.131c.776 11.419 8.954 11.595 8.954 11.595s-9.018.183-9.018 13.377c0-13.194-9.018-13.377-9.018-13.377s8.174-.176 8.951-11.595zm347.61 15.671h.131c.777 11.419 8.954 11.595 8.954 11.595s-9.017.183-9.017 13.377c0-13.194-9.018-13.377-9.018-13.377s8.174-.176 8.95-11.595z" fill="#E1E4E5"/><path d="M458.431 529.632h-22.174c-.705 0-1.277-14.944-1.277-33.371v-363.06c0-18.427.572-33.371 1.277-33.371h22.174c.705 0 1.277 14.944 1.277 33.371v363.06c0 18.427-.572 33.371-1.277 33.371z" fill="#fff" stroke="#E1E4E5" stroke-width="4"/><path d="M189.424 142.028v-21.717c0-.691 17.931-1.251 40.042-1.251h435.633c22.111 0 40.042.56 40.042 1.251v21.717c0 .691-17.931 1.251-40.042 1.251H229.466c-22.111 0-40.042-.56-40.042-1.251zm410.518 428.298H294.623c-4.737 0-8.957-.498-11.934-1.266-1.503-.387-2.577-.816-3.227-1.212a2.672 2.672 0 0 1-.423-.305v-48.845c.071-.066.2-.169.423-.305.65-.396 1.724-.825 3.227-1.212 2.977-.768 7.197-1.265 11.934-1.265h305.319c4.737 0 8.957.497 11.934 1.265 1.503.387 2.577.816 3.227 1.212.223.136.352.239.423.305v48.845c-.071.066-.2.169-.423.305-.65.396-1.724.825-3.227 1.212-2.977.768-7.197 1.266-11.934 1.266zm-320.98-2.867.01.015c-.008-.01-.01-.015-.01-.015zm0-48.677s.002-.005.01-.015l-.01.015zm336.641 0-.01-.015c.008.01.011.015.01.015zm0 48.677c.001 0-.002.005-.01.015l.01-.015z" fill="#fff" stroke="#E1E4E5" stroke-width="4"/><path d="M539.9 516.19H354.665c-2.743 0-5.132-.477-6.761-1.169-.818-.348-1.352-.711-1.651-1.012-.206-.207-.249-.327-.256-.359v-49.33c.007-.033.05-.152.256-.359.299-.301.833-.664 1.651-1.012 1.629-.693 4.018-1.169 6.761-1.169H539.9c2.743 0 5.132.476 6.761 1.169.818.348 1.352.711 1.651 1.012.207.207.249.326.257.359v49.33c-.008.032-.05.152-.257.359-.299.301-.833.664-1.651 1.012-1.629.692-4.018 1.169-6.761 1.169zm-193.905-2.549.001.008-.001-.008zm0-49.312.001-.009-.001.009zm202.575 0-.001-.009.001.009zm0 49.312-.001.008.001-.008z" fill="#fff" stroke="#E1E4E5" stroke-width="4"/><circle cx="446.57" cy="130.458" r="45.013" fill="#fff" stroke="#E1E4E5" stroke-width="4"/><mask id="b" fill="#fff"><path fill-rule="evenodd" clip-rule="evenodd" d="M136 298.564c3.434 28.421 27.638 50.445 56.985 50.445 29.348 0 53.552-22.024 56.986-50.445H136z"/></mask><path fill-rule="evenodd" clip-rule="evenodd" d="M136 298.564c3.434 28.421 27.638 50.445 56.985 50.445 29.348 0 53.552-22.024 56.986-50.445H136z" fill="#fff"/><path d="M136 298.564v-4h-4.512l.541 4.48 3.971-.48zm113.971 0 3.971.48.541-4.48h-4.512v4zm-56.986 46.445c-27.299 0-49.82-20.488-53.014-46.925l-7.942.96c3.674 30.406 29.561 53.965 60.956 53.965v-8zM246 298.084c-3.195 26.437-25.715 46.925-53.015 46.925v8c31.396 0 57.283-23.559 60.957-53.965l-7.942-.96zm3.971-3.52H136v8h113.971v-8z" fill="#E1E4E5" mask="url(#b)"/><path transform="matrix(-.32332 .9463 -.96127 -.2756 194.41 127.608)" stroke="#E1E4E5" stroke-width="4" d="M0-2h180.659"/><path transform="matrix(.32332 .9463 .96127 -.2756 191.561 127.608)" stroke="#E1E4E5" stroke-width="4" d="M0-2h180.659"/><circle cx="192.986" cy="131.882" r="15.096" fill="#fff" stroke="#E1E4E5" stroke-width="4"/><mask id="c" fill="#fff"><path fill-rule="evenodd" clip-rule="evenodd" d="M643.17 298.564c3.434 28.421 27.638 50.445 56.985 50.445 29.348 0 53.552-22.024 56.986-50.445H643.17z"/></mask><path fill-rule="evenodd" clip-rule="evenodd" d="M643.17 298.564c3.434 28.421 27.638 50.445 56.985 50.445 29.348 0 53.552-22.024 56.986-50.445H643.17z" fill="#fff"/><path d="M643.17 298.564v-4h-4.512l.541 4.48 3.971-.48zm113.971 0 3.971.48.541-4.48h-4.512v4zm-56.986 46.445c-27.299 0-49.82-20.488-53.014-46.925l-7.942.96c3.674 30.406 29.561 53.965 60.956 53.965v-8zm53.014-46.925c-3.194 26.437-25.714 46.925-53.014 46.925v8c31.396 0 57.283-23.559 60.957-53.965l-7.943-.96zm3.972-3.52H643.17v8h113.971v-8z" fill="#E1E4E5" mask="url(#c)"/><path transform="matrix(-.32332 .9463 -.96127 -.2756 701.58 127.608)" stroke="#E1E4E5" stroke-width="4" d="M0-2h180.659"/><path transform="matrix(.32332 .9463 .96127 -.2756 698.731 127.608)" stroke="#E1E4E5" stroke-width="4" d="M0-2h180.659"/><circle cx="700.155" cy="131.882" r="15.096" fill="#fff" stroke="#E1E4E5" stroke-width="4"/><defs><linearGradient id="a" x1="581.962" y1="247.687" x2="245.973" y2="-64.49" gradientUnits="userSpaceOnUse"><stop stop-color="#fff"/><stop offset="1" stop-color="#EEE"/></linearGradient></defs></svg>