<svg width="900" height="600" viewBox="0 0 900 600" fill="none" xmlns="http://www.w3.org/2000/svg"><path fill="transparent" d="M0 0h900v600H0z"/><path d="M730.981 222.135c-11.644 5.776-27.099-1.651-27.099-1.651s3.434-16.789 15.085-22.557c11.645-5.777 27.094 1.642 27.094 1.642s-3.435 16.79-15.08 22.566z" fill="url(#a)"/><path d="M220.375 337.958c17.935 10.749 43.666.813 43.666.813s-3.365-27.361-21.31-38.098c-17.935-10.749-43.656-.825-43.656-.825s3.365 27.361 21.3 38.11z" fill="url(#b)"/><circle r="7.012" transform="matrix(-1 0 0 1 340.047 396.428)" fill="#E1E4E5"/><circle r="10.128" transform="matrix(-1 0 0 1 186.527 393.956)" fill="#E1E4E5"/><circle r="7.708" transform="matrix(-1 0 0 1 759.691 374.898)" fill="#E1E4E5"/><circle r="8.57" transform="matrix(-1 0 0 1 645.533 149.668)" fill="#E1E4E5"/><circle r="7.696" transform="matrix(0 1 1 0 141.289 232.769)" fill="#E1E4E5"/><circle r="10.238" transform="matrix(-1 0 0 1 408.608 83.238)" fill="#E1E4E5"/><ellipse rx="7.875" ry="6.3" transform="matrix(-1 0 0 1 440.622 440.779)" fill="#E1E4E5"/><circle r="16.016" transform="scale(1 -1) rotate(-75 205.442 -406.959)" fill="#E1E4E5"/><path d="M244.79 180.812h.112c.665 9.413 7.665 9.558 7.665 9.558s-7.719.151-7.719 11.027c0-10.876-7.719-11.027-7.719-11.027s6.997-.145 7.661-9.558zm-11.727 246.386h.108c.638 9.385 7.358 9.529 7.358 9.529s-7.411.151-7.411 10.994c0-10.843-7.411-10.994-7.411-10.994s6.718-.144 7.356-9.529z" fill="#E1E4E5"/><path stroke="#E1E4E5" stroke-width="4.261" d="M75 491.679h750m-693.537 33.025H404.19m37.287 0h356.889"/><path fill-rule="evenodd" clip-rule="evenodd" d="m581.826 189.99-57.889-58.08a40.882 40.882 0 0 0-28.944-12.035H348.184c-22.619 0-40.94 18.381-40.94 41.075v287.524c0 22.693 18.321 41.074 40.94 41.074h204.698c22.619 0 40.939-18.381 40.939-41.074V219.03a41.156 41.156 0 0 0-11.995-29.04z" fill="#fff" stroke="#E1E4E5" stroke-width="3.921"/><rect x="341.335" y="202.972" width="50.212" height="50.212" rx="25.106" fill="#009688"/><rect x="355.119" y="216.755" width="22.645" height="22.645" rx="11.322" fill="#fff"/><rect x="404.761" y="206.936" width="152.838" height="7.047" rx="3.524" fill="#E1E4E5"/><rect x="404.761" y="224.113" width="152.838" height="7.047" rx="3.524" fill="#E1E4E5"/><rect x="404.761" y="241.291" width="152.838" height="7.047" rx="3.524" fill="#E1E4E5"/><rect x="341.335" y="265.968" width="50.212" height="50.212" rx="25.106" fill="#009688"/><rect x="355.119" y="279.751" width="22.645" height="22.645" rx="11.322" fill="#fff"/><rect x="404.761" y="269.932" width="152.838" height="7.047" rx="3.524" fill="#E1E4E5"/><rect x="404.761" y="287.109" width="152.838" height="7.047" rx="3.524" fill="#E1E4E5"/><rect x="404.761" y="304.287" width="152.838" height="7.047" rx="3.524" fill="#E1E4E5"/><rect x="341.335" y="328.964" width="50.212" height="50.212" rx="25.106" fill="#009688"/><rect x="355.119" y="342.748" width="22.645" height="22.645" rx="11.322" fill="#fff"/><rect x="404.761" y="332.928" width="152.838" height="7.047" rx="3.524" fill="#E1E4E5"/><rect x="404.761" y="350.106" width="152.838" height="7.047" rx="3.524" fill="#E1E4E5"/><rect x="404.761" y="367.284" width="152.838" height="7.047" rx="3.524" fill="#E1E4E5"/><rect x="341.335" y="391.96" width="50.212" height="50.212" rx="25.106" fill="#009688"/><rect x="355.119" y="405.744" width="22.645" height="22.645" rx="11.322" fill="#fff"/><rect x="404.761" y="395.924" width="152.838" height="7.047" rx="3.524" fill="#E1E4E5"/><rect x="404.761" y="413.102" width="152.838" height="7.047" rx="3.524" fill="#E1E4E5"/><rect x="404.761" y="430.28" width="152.838" height="7.047" rx="3.524" fill="#E1E4E5"/><circle cx="570.384" cy="407.517" r="82.031" fill="#009688"/><path clip-rule="evenodd" d="M550.862 434.417h-7.294a4.08 4.08 0 0 1-4.079-4.079v-28.543a4.08 4.08 0 0 1 4.079-4.079h7.294a4.08 4.08 0 0 1 4.08 4.079v28.543a4.08 4.08 0 0 1-4.08 4.079v0z" stroke="#fff" stroke-width="5.248" stroke-linecap="round" stroke-linejoin="round"/><path d="m554.942 401.858 14.097-18.355c2.623-3.419 7.746-3.504 10.485-.178v0a6.925 6.925 0 0 1 1.58 4.408v12.637h11.961a6.953 6.953 0 0 1 5.779 3.087l1.271 1.897a6.95 6.95 0 0 1 .904 5.791l-5.25 18.243a6.953 6.953 0 0 1-6.68 5.03h-24.296a6.953 6.953 0 0 1-5.092-2.218l-4.759-5.123" stroke="#fff" stroke-width="5.248" stroke-linecap="round" stroke-linejoin="round"/><defs><linearGradient id="a" x1="686.265" y1="240.153" x2="782.309" y2="164.181" gradientUnits="userSpaceOnUse"><stop stop-color="#fff"/><stop offset="1" stop-color="#EEE"/></linearGradient><linearGradient id="b" x1="289.779" y1="372.559" x2="145.467" y2="238.475" gradientUnits="userSpaceOnUse"><stop stop-color="#fff"/><stop offset="1" stop-color="#EEE"/></linearGradient></defs></svg>