<svg width="900" height="600" viewBox="0 0 900 600" fill="none" xmlns="http://www.w3.org/2000/svg"><path fill="transparent" d="M0 0h900v600H0z"/><circle cx="670.281" cy="420.422" r="13.322" transform="rotate(-180 670.281 420.422)" fill="#009688"/><circle cx="714.363" cy="250.594" r="18.948" transform="rotate(-180 714.363 250.594)" fill="#009688"/><circle cx="218.03" cy="295.164" r="10.967" transform="rotate(-180 218.03 295.164)" fill="#009688"/><circle r="12.49" transform="matrix(-1 0 0 1 311.848 508.576)" fill="#009688"/><circle r="5.829" transform="matrix(-1 0 0 1 368.756 336.888)" fill="#009688"/><circle r="7.494" transform="matrix(-1 0 0 1 603.464 512.985)" fill="#E1E4E5"/><circle r="10.824" transform="matrix(-1 0 0 1 195.799 395.459)" fill="#E1E4E5"/><circle r="8.238" transform="matrix(-1 0 0 1 733.689 395.327)" fill="#E1E4E5"/><circle r="9.159" transform="matrix(-1 0 0 1 679.337 160.289)" fill="#E1E4E5"/><circle r="8.225" transform="scale(1 -1) rotate(-75 -72.031 -230.309)" fill="#E1E4E5"/><circle r="10.942" transform="matrix(-1 0 0 1 303.775 122.414)" fill="#E1E4E5"/><circle r="12.507" transform="matrix(0 1 1 0 595.357 91.57)" fill="#E1E4E5"/><path d="M215.393 180.979h.12c.71 10.059 8.192 10.214 8.192 10.214s-8.25.161-8.25 11.785c0-11.624-8.25-11.785-8.25-11.785s7.478-.155 8.188-10.214zm8.593 269.527h.115c.681 10.03 7.864 10.185 7.864 10.185s-7.92.16-7.92 11.749c0-11.589-7.921-11.749-7.921-11.749s7.18-.155 7.862-10.185z" fill="#E1E4E5"/><path fill-rule="evenodd" clip-rule="evenodd" d="M612.453 346.824v87.021a44.222 44.222 0 0 1-23.413 39.022L476.284 533.07a44.22 44.22 0 0 1-41.609 0L321.92 472.867a44.22 44.22 0 0 1-23.413-39.022v-87.021" fill="#fff"/><path d="M612.453 346.824v87.021a44.222 44.222 0 0 1-23.413 39.022L476.284 533.07a44.22 44.22 0 0 1-41.609 0L321.92 472.867a44.22 44.22 0 0 1-23.413-39.022v-87.021" stroke="#E1E4E5" stroke-width="4"/><path fill-rule="evenodd" clip-rule="evenodd" d="M392.205 145.236 658.772 282.82a22.109 22.109 0 0 1 .266 39.155l-99.49 53.061a44.219 44.219 0 0 1-41.079.287l-266.5-137.628a22.109 22.109 0 0 1-.266-39.154l99.49-53.062a44.22 44.22 0 0 1 41.012-.243z" fill="#fff" stroke="#E1E4E5" stroke-width="4"/><ellipse rx="8.417" ry="6.733" transform="matrix(-1 0 0 1 541.596 333.317)" fill="#E1E4E5"/><path clip-rule="evenodd" d="M518.536 145.236 251.969 282.82a22.109 22.109 0 0 0-.266 39.155l99.49 53.061a44.219 44.219 0 0 0 41.079.287l266.5-137.628a22.109 22.109 0 0 0 .266-39.154l-99.49-53.062a44.22 44.22 0 0 0-41.012-.243z" stroke="#E1E4E5" stroke-width="4"/><path fill-rule="evenodd" clip-rule="evenodd" d="M455.372 538.267V342.692v195.575z" fill="#fff"/><path d="M455.372 538.267V342.692" stroke="#E1E4E5" stroke-width="4"/><path d="M241.279 471.54h20.252m-43.206-10.802h43.206m-18.902 22.278h18.902m397.262-11.476H638.54m43.206-10.802h-43.205m18.902 22.278H638.54" stroke="#E1E4E5" stroke-width="4.046" stroke-linecap="round" stroke-linejoin="round"/><path fill-rule="evenodd" clip-rule="evenodd" d="M351.718 191.9v-52.468a49.59 49.59 0 0 1 24.636-42.85l49.582-28.855a49.595 49.595 0 0 1 49.878 0l49.582 28.856a49.577 49.577 0 0 1 24.647 42.849V191.9a49.589 49.589 0 0 1-24.636 42.849l-49.582 28.857a49.598 49.598 0 0 1-49.878 0l-49.582-28.857a49.576 49.576 0 0 1-24.647-42.849z" fill="#009688"/><path d="M450.881 165.666v-49.581m-.011 88.145a2.74 2.74 0 0 0-2.744 2.754 2.756 2.756 0 0 0 5.509 0 2.758 2.758 0 0 0-2.765-2.754" stroke="#fff" stroke-width="15.588" stroke-linecap="round" stroke-linejoin="round"/></svg>