<svg width="900" height="600" viewBox="0 0 900 600" fill="none" xmlns="http://www.w3.org/2000/svg"><path fill="transparent" d="M0 0h900v600H0z"/><path fill-rule="evenodd" clip-rule="evenodd" d="M363.752 195.735c-37.103 5.089-65.778 36.71-65.778 75.376 0 42.196 34.06 76.415 76.062 76.415h167.336c33.604 0 60.849-27.372 60.849-61.132 0-33.761-27.245-61.132-60.849-61.132 0-50.649-40.861-91.699-91.274-91.699-40.116 0-74.1 26.027-86.346 62.172zm-227.8 60.541c-22.322 3.059-39.574 22.068-39.574 45.312 0 25.367 20.492 45.938 45.761 45.938h100.674c20.217 0 36.608-16.455 36.608-36.75s-16.391-36.75-36.608-36.75c0-30.448-24.583-55.125-54.913-55.125-24.135 0-44.581 15.646-51.948 37.375z" fill="#fff" stroke="#E1E4E5" stroke-width="4.21"/><path fill-rule="evenodd" clip-rule="evenodd" d="M534.196 256.276c-22.323 3.059-39.574 22.068-39.574 45.312 0 25.367 20.491 45.938 45.76 45.938h100.674c20.217 0 36.609-16.455 36.609-36.75s-16.392-36.75-36.609-36.75c0-30.448-24.582-55.125-54.913-55.125-24.134 0-44.58 15.646-51.947 37.375zm-162.097 91.25H130.207c-22.706 0-21.664-18.799-14.247-25.35 7.602-6.714 22.622-3.991 22.622-3.991s4.472-12.645 19.191-18.801c13.02-5.445 26.659-2.854 26.659-2.854s0-8.678 8.336-15.865c8.337-7.189 19.453-6.49 19.453-6.49s7.641-47.853 58.702-47.853c51.06 0 56.965 45.058 56.965 45.058s11.463 0 19.8 7.685c8.336 7.685 9.378 16.416 9.378 16.416s27.88-3.777 36.126 20.407c4.913 14.414-5.182 31.638-21.093 31.638z" fill="#fff" stroke="#E1E4E5" stroke-width="4.21"/><path fill-rule="evenodd" clip-rule="evenodd" d="M787.559 347.526H544.611c-22.805 0-21.758-18.799-14.309-25.35 7.635-6.714 22.721-3.991 22.721-3.991s4.491-12.645 19.275-18.801c13.076-5.445 26.775-2.854 26.775-2.854s0-8.678 8.373-15.865c8.373-7.189 19.537-6.49 19.537-6.49s7.675-47.853 58.958-47.853c51.284 0 57.215 45.058 57.215 45.058s11.513 0 19.886 7.685 9.419 16.416 9.419 16.416 28.002-3.777 36.283 20.407c4.935 14.414-5.204 31.638-21.185 31.638z" fill="#fff" stroke="#E1E4E5" stroke-width="4.21"/><path fill-rule="evenodd" clip-rule="evenodd" d="M504.967 283.316c30.411 30.411 30.411 79.716 0 110.127s-79.717 30.411-110.128 0c-30.41-30.411-30.41-79.716 0-110.127 30.411-30.411 79.717-30.411 110.128 0z" fill="#009688"/><path d="M504.967 283.316c30.411 30.411 30.411 79.716 0 110.127s-79.717 30.411-110.128 0c-30.41-30.411-30.41-79.716 0-110.127 30.411-30.411 79.717-30.411 110.128 0" stroke="#009688" stroke-width="14.042" stroke-linecap="round" stroke-linejoin="round"/><path d="M449.903 362.339v-30.55m-.036-18.198c-4.959 0-8.985 4.026-8.949 8.986 0 4.959 4.026 8.985 8.985 8.985 4.96 0 8.986-4.026 8.986-8.985 0-4.96-4.026-8.986-9.022-8.986" stroke="#fff" stroke-width="24.207" stroke-linecap="round" stroke-linejoin="round"/><path d="M405.206 234.726c5.019-19.612 22.81-34.12 43.991-34.12 25.075 0 45.394 20.318 45.394 45.393v28.633" stroke="#009688" stroke-width="24.207" stroke-linecap="round" stroke-linejoin="round"/><path d="M271.013 400.848h64.23m-166.595-21.55h64.23M89.18 404.889h64.23m276.539 59.264h64.23m-166.595-21.551h64.229m-143.696 25.592h64.229m382.857-32.325h64.229m-25.889-48.773h64.23M607.74 414.318h64.229M565.34 378.439h64.23m-101.298 61.47h64.23" stroke="#E1E4E5" stroke-width="4.21" stroke-linecap="round" stroke-linejoin="round"/><path d="M690.847 317.949c-19.682 4.663-40.5-12.029-40.5-12.029s11.109-24.244 30.798-28.892c19.683-4.663 40.494 12.015 40.494 12.015s-11.109 24.243-30.792 28.906z" fill="url(#a)"/><path d="M225.991 189.311c17.845 12.291 45.107 3.699 45.107 3.699s-1.688-28.517-19.545-40.796c-17.844-12.292-45.095-3.712-45.095-3.712s1.688 28.518 19.533 40.809z" fill="url(#b)"/><ellipse cx="717.541" cy="345.332" rx="14.009" ry="13.448" transform="rotate(-180 717.541 345.332)" fill="#009688"/><ellipse rx="13.448" ry="12.888" transform="matrix(-1 0 0 1 573.53 181.147)" fill="#009688"/><circle r="9.526" transform="matrix(-1 0 0 1 649.178 191.234)" fill="#E1E4E5"/><circle r="9.288" transform="scale(1 -1) rotate(-75 128.138 -397.586)" fill="#E1E4E5"/><path d="M776.295 270.244h.163c.965 13.324 11.128 13.529 11.128 13.529s-11.207.214-11.207 15.609c0-15.395-11.207-15.609-11.207-15.609s10.159-.205 11.123-13.529z" fill="#E1E4E5"/><ellipse rx="6.164" ry="6.724" transform="matrix(-1 0 0 1 226.67 308.348)" fill="#009688"/><circle r="5.759" transform="scale(1 -1) rotate(-75 -102.692 -367.929)" fill="#E1E4E5"/><ellipse rx="7.845" ry="7.285" transform="matrix(-1 0 0 1 282.145 267.442)" fill="#E1E4E5"/><path d="M340.845 134.638h.268c1.592 22.548 18.361 22.896 18.361 22.896s-18.492.361-18.492 26.415c0-26.054-18.491-26.415-18.491-26.415s16.762-.348 18.354-22.896z" fill="#E1E4E5"/><defs><linearGradient id="a" x1="616.727" y1="329.543" x2="789.03" y2="248.141" gradientUnits="userSpaceOnUse"><stop stop-color="#fff"/><stop offset="1" stop-color="#EEE"/></linearGradient><linearGradient id="b" x1="295.504" y1="229.64" x2="155.034" y2="81.518" gradientUnits="userSpaceOnUse"><stop stop-color="#fff"/><stop offset="1" stop-color="#EEE"/></linearGradient></defs></svg>