<svg width="900" height="600" viewBox="0 0 900 600" fill="none" xmlns="http://www.w3.org/2000/svg"><path fill="transparent" d="M0 0h900v600H0z"/><circle cx="755.525" cy="319.457" r="15.537" transform="rotate(180 755.525 319.457)" fill="#009688"/><circle cx="397.706" cy="516.368" r="12.791" transform="rotate(180 397.706 516.368)" fill="#009688"/><circle r="14.566" transform="matrix(-1 0 0 1 220.244 207.313)" fill="#009688"/><circle r="6.798" transform="matrix(-1 0 0 1 673.048 222.233)" fill="#009688"/><circle r="8.74" transform="matrix(-1 0 0 1 652.302 507.779)" fill="#E1E4E5"/><circle r="12.624" transform="matrix(-1 0 0 1 155.962 448.825)" fill="#E1E4E5"/><circle r="9.608" transform="matrix(-1 0 0 1 522.712 513.185)" fill="#E1E4E5"/><circle r="10.682" transform="matrix(-1 0 0 1 723.506 161.447)" fill="#E1E4E5"/><circle r="9.592" transform="scale(1 -1) rotate(-75 -129.088 -260.73)" fill="#E1E4E5"/><circle r="12.761" transform="matrix(-1 0 0 1 387.855 94.924)" fill="#E1E4E5"/><ellipse rx="9.816" ry="7.853" transform="matrix(-1 0 0 1 711.61 398.929)" fill="#E1E4E5"/><circle r="12.472" transform="scale(1 -1) rotate(-75 245.327 -434.77)" fill="#E1E4E5"/><path d="M240.185 111.069h.14c.828 11.733 9.553 11.913 9.553 11.913s-9.621.188-9.621 13.745c0-13.557-9.622-13.745-9.622-13.745s8.722-.18 9.55-11.913zM506.391 98.59h.135c.795 11.698 9.172 11.878 9.172 11.878s-9.238.188-9.238 13.704c0-13.516-9.237-13.704-9.237-13.704s8.373-.18 9.168-11.877z" fill="#E1E4E5"/><path clip-rule="evenodd" d="M124 452.33v-57.023c0-5.79 3.082-11.141 8.083-14.052l48.793-28.397a16.26 16.26 0 0 1 16.362 0l48.792 28.397a16.261 16.261 0 0 1 8.084 14.052v57.031c0 5.79-3.082 11.141-8.084 14.052l-48.792 28.397a16.26 16.26 0 0 1-16.362 0l-48.793-28.397A16.285 16.285 0 0 1 124 452.33z" stroke="#E1E4E5" stroke-width="4" stroke-linecap="round" stroke-linejoin="round"/><path d="M189.057 497.007v-73.189m0-.001 63.024-36.351m-126.048 0 63.024 36.351" stroke="#E1E4E5" stroke-width="4" stroke-linecap="round" stroke-linejoin="round"/><path clip-rule="evenodd" d="M188.532 339.004v-57.022c0-5.79 3.082-11.141 8.083-14.052l48.793-28.397a16.26 16.26 0 0 1 16.362 0l48.792 28.397a16.261 16.261 0 0 1 8.084 14.052v57.031c0 5.79-3.082 11.141-8.084 14.052l-48.792 28.397a16.26 16.26 0 0 1-16.362 0l-48.793-28.397a16.287 16.287 0 0 1-8.083-14.061z" stroke="#E1E4E5" stroke-width="4" stroke-linecap="round" stroke-linejoin="round"/><path d="M253.589 383.683v-73.189m0-.002 63.024-36.35m-126.048 0 63.024 36.35" stroke="#E1E4E5" stroke-width="4" stroke-linecap="round" stroke-linejoin="round"/><path clip-rule="evenodd" d="M254.638 452.33v-57.023c0-5.79 3.082-11.141 8.084-14.052l48.792-28.397a16.26 16.26 0 0 1 16.362 0l48.793 28.397a16.262 16.262 0 0 1 8.083 14.052v57.031c0 5.79-3.082 11.141-8.083 14.052l-48.793 28.397a16.26 16.26 0 0 1-16.362 0l-48.792-28.397a16.284 16.284 0 0 1-8.084-14.06z" stroke="#E1E4E5" stroke-width="4" stroke-linecap="round" stroke-linejoin="round"/><path d="M319.695 497.007v-73.189m0-.001 63.024-36.351m-126.048 0 63.024 36.351" stroke="#E1E4E5" stroke-width="4" stroke-linecap="round" stroke-linejoin="round"/><path clip-rule="evenodd" d="M254.638 225.68v-57.023c0-5.79 3.082-11.141 8.084-14.052l48.792-28.397a16.26 16.26 0 0 1 16.362 0l48.793 28.397a16.262 16.262 0 0 1 8.083 14.052v57.031c0 5.79-3.082 11.141-8.083 14.052l-48.793 28.397a16.26 16.26 0 0 1-16.362 0l-48.792-28.397a16.284 16.284 0 0 1-8.084-14.06z" stroke="#E1E4E5" stroke-width="4" stroke-linecap="round" stroke-linejoin="round"/><path d="M319.695 270.358v-73.189m0-.002 63.024-36.351m-126.048 0 63.024 36.351" stroke="#E1E4E5" stroke-width="4" stroke-linecap="round" stroke-linejoin="round"/><path clip-rule="evenodd" d="M319.17 339.004v-57.022c0-5.79 3.083-11.141 8.084-14.052l48.792-28.397a16.26 16.26 0 0 1 16.362 0l48.793 28.397a16.262 16.262 0 0 1 8.083 14.052v57.031c0 5.79-3.082 11.141-8.083 14.052l-48.793 28.397a16.26 16.26 0 0 1-16.362 0l-48.792-28.397a16.288 16.288 0 0 1-8.084-14.061z" stroke="#E1E4E5" stroke-width="4" stroke-linecap="round" stroke-linejoin="round"/><path d="M384.227 383.683v-73.189m0-.002 63.024-36.35m-126.048 0 63.024 36.35" stroke="#E1E4E5" stroke-width="4" stroke-linecap="round" stroke-linejoin="round"/><path clip-rule="evenodd" d="M385.277 452.33v-57.023c0-5.79 3.082-11.141 8.083-14.052l48.792-28.397a16.26 16.26 0 0 1 16.362 0l48.793 28.397a16.262 16.262 0 0 1 8.083 14.052v57.031c0 5.79-3.082 11.141-8.083 14.052l-48.793 28.397a16.26 16.26 0 0 1-16.362 0L393.36 466.39a16.285 16.285 0 0 1-8.083-14.06z" stroke="#E1E4E5" stroke-width="4" stroke-linecap="round" stroke-linejoin="round"/><path d="M450.333 497.007v-73.189m0-.001 63.024-36.351m-126.047 0 63.023 36.351" stroke="#E1E4E5" stroke-width="4" stroke-linecap="round" stroke-linejoin="round"/><path clip-rule="evenodd" d="M385.277 225.68v-57.023c0-5.79 3.082-11.141 8.083-14.052l48.792-28.397a16.26 16.26 0 0 1 16.362 0l48.793 28.397a16.262 16.262 0 0 1 8.083 14.052v57.031c0 5.79-3.082 11.141-8.083 14.052l-48.793 28.397a16.26 16.26 0 0 1-16.362 0L393.36 239.74a16.285 16.285 0 0 1-8.083-14.06z" stroke="#E1E4E5" stroke-width="4" stroke-linecap="round" stroke-linejoin="round"/><path d="M450.333 270.358v-73.189m0-.002 63.024-36.351m-126.047 0 63.023 36.351" stroke="#E1E4E5" stroke-width="4" stroke-linecap="round" stroke-linejoin="round"/><path clip-rule="evenodd" d="M449.809 339.004v-57.022c0-5.79 3.082-11.141 8.083-14.052l48.793-28.397a16.258 16.258 0 0 1 16.361 0l48.793 28.397a16.262 16.262 0 0 1 8.083 14.052v57.031c0 5.79-3.082 11.141-8.083 14.052l-48.793 28.397a16.258 16.258 0 0 1-16.361 0l-48.793-28.397a16.287 16.287 0 0 1-8.083-14.061z" stroke="#E1E4E5" stroke-width="4" stroke-linecap="round" stroke-linejoin="round"/><path d="M514.866 383.683v-73.189m0-.002 63.023-36.35m-126.047 0 63.023 36.35" stroke="#E1E4E5" stroke-width="4" stroke-linecap="round" stroke-linejoin="round"/><path clip-rule="evenodd" d="M515.915 452.33v-57.023c0-5.79 3.082-11.141 8.083-14.052l48.793-28.397a16.26 16.26 0 0 1 16.362 0l48.792 28.397a16.262 16.262 0 0 1 8.083 14.052v57.031c0 5.79-3.082 11.141-8.083 14.052l-48.792 28.397a16.26 16.26 0 0 1-16.362 0l-48.793-28.397a16.285 16.285 0 0 1-8.083-14.06z" stroke="#E1E4E5" stroke-width="4" stroke-linecap="round" stroke-linejoin="round"/><path d="M580.972 497.007v-73.189m0-.001 63.023-36.351m-126.047 0 63.024 36.351" stroke="#E1E4E5" stroke-width="4" stroke-linecap="round" stroke-linejoin="round"/><path clip-rule="evenodd" d="M515.915 225.68v-57.023c0-5.79 3.082-11.141 8.083-14.052l48.793-28.397a16.26 16.26 0 0 1 16.362 0l48.792 28.397a16.262 16.262 0 0 1 8.083 14.052v57.031c0 5.79-3.082 11.141-8.083 14.052l-48.792 28.397a16.26 16.26 0 0 1-16.362 0l-48.793-28.397a16.285 16.285 0 0 1-8.083-14.06z" stroke="#E1E4E5" stroke-width="4" stroke-linecap="round" stroke-linejoin="round"/><path d="M580.972 270.358v-73.189m0-.002 63.023-36.351m-126.047 0 63.024 36.351" stroke="#E1E4E5" stroke-width="4" stroke-linecap="round" stroke-linejoin="round"/><path clip-rule="evenodd" d="M580.447 339.004v-57.022c0-5.79 3.082-11.141 8.083-14.052l48.793-28.397a16.26 16.26 0 0 1 16.362 0l48.792 28.397a16.261 16.261 0 0 1 8.084 14.052v57.031c0 5.79-3.082 11.141-8.084 14.052l-48.792 28.397a16.26 16.26 0 0 1-16.362 0l-48.793-28.397a16.287 16.287 0 0 1-8.083-14.061z" stroke="#E1E4E5" stroke-width="4" stroke-linecap="round" stroke-linejoin="round"/><path d="M645.504 383.683v-73.189m0-.002 63.024-36.35m-126.048 0 63.024 36.35" stroke="#E1E4E5" stroke-width="4" stroke-linecap="round" stroke-linejoin="round"/><path clip-rule="evenodd" d="M646.553 452.33v-57.023c0-5.79 3.082-11.141 8.083-14.052l48.793-28.397a16.26 16.26 0 0 1 16.362 0l48.792 28.397a16.261 16.261 0 0 1 8.084 14.052v57.031c0 5.79-3.082 11.141-8.084 14.052l-48.792 28.397a16.26 16.26 0 0 1-16.362 0l-48.793-28.397a16.285 16.285 0 0 1-8.083-14.06z" stroke="#E1E4E5" stroke-width="4" stroke-linecap="round" stroke-linejoin="round"/><path d="M711.61 497.007v-73.189m0-.001 63.024-36.351m-126.048 0 63.024 36.351" stroke="#E1E4E5" stroke-width="4" stroke-linecap="round" stroke-linejoin="round"/></svg>