<svg width="900" height="600" viewBox="0 0 900 600" fill="none" xmlns="http://www.w3.org/2000/svg"><path fill="transparent" d="M0 0h900v600H0z"/><path d="M168.479 327.169c35.968 21.558 87.571 1.63 87.571 1.63s-6.747-54.872-42.737-76.404c-35.968-21.558-87.55-1.654-87.55-1.654s6.748 54.871 42.716 76.428z" fill="url(#a)"/><circle cx="604.314" cy="531.477" r="18.265" transform="rotate(180 604.314 531.477)" fill="#009688"/><circle r="17.124" transform="matrix(-1 0 0 1 324.232 532.64)" fill="#009688"/><circle r="7.991" transform="matrix(-1 0 0 1 785.534 369.426)" fill="#009688"/><circle r="10.274" transform="scale(1 -1) rotate(60 438.159 137.817)" fill="#E1E4E5"/><circle r="14.84" transform="matrix(-1 0 0 1 130.609 435.84)" fill="#E1E4E5"/><circle r="12.557" transform="matrix(-1 0 0 1 716.331 233.037)" fill="#E1E4E5"/><circle r="11.276" transform="scale(1 -1) rotate(-75 14.15 -545.552)" fill="#E1E4E5"/><circle r="15.001" transform="matrix(-1 0 0 1 250.645 66.001)" fill="#E1E4E5"/><circle r="23.468" transform="scale(1 -1) rotate(-75 244.168 -449.122)" fill="#E1E4E5"/><path d="M193.871 175.97h.164c.974 13.792 11.231 14.004 11.231 14.004s-11.311.221-11.311 16.157c0-15.936-11.31-16.157-11.31-16.157s10.252-.212 11.226-14.004zm42.039 178.603h.158c.935 13.751 10.783 13.963 10.783 13.963s-10.86.22-10.86 16.109c0-15.889-10.859-16.109-10.859-16.109s9.844-.212 10.778-13.963zm464.655 22.626h.158c.935 13.751 10.783 13.963 10.783 13.963s-10.86.22-10.86 16.109c0-15.889-10.859-16.109-10.859-16.109s9.844-.212 10.778-13.963z" fill="#E1E4E5"/><path d="m464.481 539.996-34.014-20.409a24.005 24.005 0 0 1-9.121-9.849l-2.341-4.682a24.014 24.014 0 0 1-2.534-10.736v-13.672m183.981-201.854v-19.996c0-22.095-17.897-39.992-39.993-39.992h-89.282a19.995 19.995 0 0 1-16.637-8.898l-28.115-42.172a19.99 19.99 0 0 0-16.636-8.918h-89.283c-22.096 0-39.992 17.896-39.992 39.992v257.01c0 12.678 10.258 22.936 22.935 22.936v0c10.118 0 19.057-6.639 21.956-16.337l46.531-155.11c5.079-16.937 20.656-28.515 38.313-28.515H607.03c26.695 0 45.891 25.635 38.373 51.25L610.19 450.021c-4.999 17.037-20.616 28.735-38.373 28.735H303.449" stroke="#E1E4E5" stroke-width="4" stroke-linecap="round" stroke-linejoin="round"/><path d="m520.494 523.992-16.66-46.105a32.003 32.003 0 0 0-12.344-15.752l-35.912-23.948a13.17 13.17 0 0 0-16.618 1.644v0c-5.142 5.142-5.143 13.479-.002 18.622l17.522 17.529v16.003" stroke="#E1E4E5" stroke-width="4" stroke-linecap="round" stroke-linejoin="round"/><rect x="191.716" y="271.203" width="116.57" height="116.57" rx="50" fill="#009688"/><path fill-rule="evenodd" clip-rule="evenodd" d="M276.488 353.939v3.897c0 2.152-1.723 3.898-3.847 3.898h-46.152c-2.123 0-3.846-1.746-3.846-3.898v-3.96c0-11.793 13.299-19.455 26.922-19.455 13.623 0 26.923 7.666 26.923 19.455m-17.266-53.692c5.333 5.333 5.333 13.98 0 19.313-5.333 5.333-13.98 5.333-19.313 0-5.333-5.333-5.333-13.98 0-19.313 5.333-5.333 13.98-5.333 19.313 0z" fill="#fff"/><path fill-rule="evenodd" clip-rule="evenodd" d="m546.628 117.171-23.634-23.567a16.744 16.744 0 0 0-11.817-4.883h-59.938c-9.234 0-16.714 7.458-16.714 16.666v116.667c0 9.208 7.48 16.667 16.714 16.667h83.572c9.234 0 16.714-7.459 16.714-16.667v-93.1c0-4.417-1.763-8.658-4.897-11.783z" fill="#fff" stroke="#E1E4E5" stroke-width="4"/><path fill-rule="evenodd" clip-rule="evenodd" d="m521.775 179.138-37.885 21.44c-9.327 5.272-20.867-1.505-20.867-12.268v-42.869c0-10.772 11.521-17.539 20.867-12.267l37.885 21.439c9.516 5.367 9.516 19.139 0 24.525z" fill="#009688"/><path fill-rule="evenodd" clip-rule="evenodd" d="m464.28 115.516-29.382-29.252a20.832 20.832 0 0 0-14.691-6.06h-74.515c-11.48 0-20.779 9.257-20.779 20.686V245.7c0 11.429 9.299 20.687 20.779 20.687h103.897c11.481 0 20.78-9.258 20.78-20.687V130.142a20.645 20.645 0 0 0-6.089-14.626z" fill="#fff" stroke="#E1E4E5" stroke-width="4"/><rect x="341.398" y="123.839" width="108.606" height="108.606" rx="21.963" fill="#009688" stroke="#fff" stroke-width="10.982" stroke-linecap="round" stroke-linejoin="round"/><path d="M378.227 156.43a3.018 3.018 0 0 1-2.123 5.165 3.019 3.019 0 0 1-2.124-5.165 3.03 3.03 0 0 1 4.269 0m71.756 10.311a57.65 57.65 0 0 0-66.37 57.409c.017 2.779.239 5.552.663 8.298" stroke="#fff" stroke-width="10.982" stroke-linecap="round" stroke-linejoin="round"/><path fill-rule="evenodd" clip-rule="evenodd" d="M580.767 266.926c-23.012 3.058-40.796 22.053-40.796 45.28 0 25.349 21.124 45.905 47.174 45.905h103.783c20.841 0 37.739-16.443 37.739-36.724 0-20.28-16.898-36.723-37.739-36.723 0-30.426-25.342-55.085-56.609-55.085-24.88 0-45.957 15.635-53.552 37.347z" fill="#009688"/><path fill-rule="evenodd" clip-rule="evenodd" d="M220.636 493.983h-4.065a1.775 1.775 0 0 1-1.773-1.773v-4.065c0-.982.799-1.773 1.773-1.773h4.065a1.78 1.78 0 0 1 1.773 1.773v4.065a1.769 1.769 0 0 1-1.773 1.773zm-14.091 0h-4.064a1.78 1.78 0 0 1-1.774-1.773v-4.065c0-.982.799-1.773 1.774-1.773h4.064a1.78 1.78 0 0 1 1.774 1.773v4.065c0 .974-.8 1.773-1.774 1.773zm-14.1 0h-4.064a1.78 1.78 0 0 1-1.774-1.773v-4.065c0-.982.8-1.773 1.774-1.773h4.064a1.78 1.78 0 0 1 1.774 1.773v4.065a1.769 1.769 0 0 1-1.774 1.773zm-14.091 0h-4.064a1.78 1.78 0 0 1-1.774-1.773v-4.065c0-.982.8-1.773 1.774-1.773h4.064c.983 0 1.782.799 1.782 1.773v4.065a1.792 1.792 0 0 1-1.782 1.773zm-14.091 0h-4.064a1.782 1.782 0 0 1-1.782-1.773v-4.065c0-.982.799-1.773 1.782-1.773h4.064a1.78 1.78 0 0 1 1.774 1.773v4.065c0 .974-.8 1.773-1.774 1.773zm41.765-15.364h-4.064c-.974 0-1.774-.8-1.774-1.774v-4.073c0-.974.8-1.773 1.774-1.773h4.064c.983 0 1.774.799 1.774 1.773v4.065a1.772 1.772 0 0 1-1.774 1.782zm-14.091 0h-4.064c-.974 0-1.774-.8-1.774-1.774v-4.073c0-.974.8-1.773 1.774-1.773h4.064a1.78 1.78 0 0 1 1.774 1.773v4.065a1.772 1.772 0 0 1-1.774 1.782zm-14.091 0h-4.064c-.983 0-1.782-.8-1.782-1.774v-4.073c0-.974.799-1.773 1.782-1.773h4.064a1.78 1.78 0 0 1 1.774 1.773v4.065c0 .982-.8 1.782-1.774 1.782zm14.599 31.871h-4.064a1.78 1.78 0 0 1-1.774-1.774v-4.064c0-.982.8-1.774 1.774-1.774h4.064c.975 0 1.774.8 1.774 1.774v4.064a1.77 1.77 0 0 1-1.774 1.774zm-14.091 0h-4.064a1.78 1.78 0 0 1-1.774-1.774v-4.064c0-.982.8-1.774 1.774-1.774h4.064c.983 0 1.782.8 1.782 1.774v4.064a1.792 1.792 0 0 1-1.782 1.774zm548.708-16.507h-4.064a1.775 1.775 0 0 1-1.774-1.773v-4.065c0-.982.8-1.773 1.774-1.773h4.064a1.78 1.78 0 0 1 1.774 1.773v4.065a1.77 1.77 0 0 1-1.774 1.773zm-14.091 0h-4.064a1.78 1.78 0 0 1-1.774-1.773v-4.065c0-.982.8-1.773 1.774-1.773h4.064a1.78 1.78 0 0 1 1.774 1.773v4.065a1.78 1.78 0 0 1-1.774 1.773zm-14.099 0h-4.064a1.78 1.78 0 0 1-1.774-1.773v-4.065c0-.982.8-1.773 1.774-1.773h4.064a1.78 1.78 0 0 1 1.774 1.773v4.065a1.77 1.77 0 0 1-1.774 1.773zm-14.091 0h-4.064a1.78 1.78 0 0 1-1.774-1.773v-4.065c0-.982.799-1.773 1.774-1.773h4.064c.983 0 1.782.799 1.782 1.773v4.065a1.793 1.793 0 0 1-1.782 1.773zm-14.091 0h-4.065a1.782 1.782 0 0 1-1.782-1.773v-4.065c0-.982.8-1.773 1.782-1.773h4.065a1.78 1.78 0 0 1 1.773 1.773v4.065a1.78 1.78 0 0 1-1.773 1.773zm41.765-15.364h-4.064a1.78 1.78 0 0 1-1.774-1.774v-4.073a1.78 1.78 0 0 1 1.774-1.773h4.064c.983 0 1.774.799 1.774 1.773v4.065a1.772 1.772 0 0 1-1.774 1.782zm-14.091 0H694.3a1.78 1.78 0 0 1-1.774-1.774v-4.073a1.78 1.78 0 0 1 1.774-1.773h4.064a1.78 1.78 0 0 1 1.774 1.773v4.065a1.773 1.773 0 0 1-1.774 1.782zm-14.091 0h-4.064c-.983 0-1.783-.8-1.783-1.774v-4.073c0-.974.8-1.773 1.783-1.773h4.064a1.78 1.78 0 0 1 1.774 1.773v4.065c0 .982-.8 1.782-1.774 1.782zm14.599 31.871h-4.064a1.78 1.78 0 0 1-1.774-1.774v-4.064c0-.982.8-1.774 1.774-1.774h4.064c.974 0 1.774.8 1.774 1.774v4.064a1.77 1.77 0 0 1-1.774 1.774zm-14.091 0h-4.064a1.78 1.78 0 0 1-1.774-1.774v-4.064c0-.982.799-1.774 1.774-1.774h4.064c.983 0 1.782.8 1.782 1.774v4.064a1.793 1.793 0 0 1-1.782 1.774z" fill="#E1E4E5"/><defs><linearGradient id="a" x1="307.667" y1="396.561" x2="18.253" y2="127.657" gradientUnits="userSpaceOnUse"><stop stop-color="#fff"/><stop offset="1" stop-color="#EEE"/></linearGradient></defs></svg>