<svg width="900" height="600" viewBox="0 0 900 600" fill="none" xmlns="http://www.w3.org/2000/svg"><path fill="transparent" d="M0 0h900v600H0z"/><path d="M780.369 279.465c-13.963 6.927-32.495-1.979-32.495-1.979s4.119-20.132 18.089-27.049c13.963-6.926 32.488 1.97 32.488 1.97s-4.119 20.132-18.082 27.058z" fill="url(#a)"/><path d="M168.903 253.557c14.284 8.561 34.777.647 34.777.647s-2.679-21.791-16.972-30.342c-14.284-8.561-34.768-.657-34.768-.657s2.679 21.791 16.963 30.352z" fill="url(#b)"/><circle r="7.164" transform="matrix(-1 0 0 1 697.212 467.373)" fill="#E1E4E5"/><circle r="10.348" transform="matrix(-1 0 0 1 148.083 416.017)" fill="#E1E4E5"/><circle r="7.876" transform="matrix(-1 0 0 1 765.445 431.186)" fill="#E1E4E5"/><circle r="8.756" transform="matrix(-1 0 0 1 614.416 235.754)" fill="#E1E4E5"/><circle r="7.863" transform="matrix(0 1 1 0 101.863 251.329)" fill="#E1E4E5"/><circle r="10.46" transform="matrix(-1 0 0 1 374.987 98.55)" fill="#E1E4E5"/><ellipse rx="8.046" ry="6.437" transform="matrix(-1 0 0 1 675.638 340.939)" fill="#E1E4E5"/><circle r="16.364" transform="scale(1 -1) rotate(-75 221.38 -422.134)" fill="#E1E4E5"/><path d="M177.587 141.923h.114c.679 9.617 7.831 9.765 7.831 9.765s-7.887.154-7.887 11.266c0-11.112-7.886-11.266-7.886-11.266s7.149-.148 7.828-9.765zm18.043 308.058h.11c.651 9.589 7.518 9.736 7.518 9.736s-7.572.154-7.572 11.233c0-11.079-7.572-11.233-7.572-11.233s6.864-.147 7.516-9.736z" fill="#E1E4E5"/><rect x="685.751" y="154.036" width="358.932" height="472.418" rx="32" transform="rotate(90 685.751 154.036)" fill="#fff" stroke="#E1E4E5" stroke-width="4"/><circle cx="450.215" cy="340.355" r="94.835" fill="#009688"/><rect x="442.461" y="300.394" width="15.508" height="79.924" rx="7.754" fill="#fff"/><rect x="490.177" y="332.601" width="15.508" height="79.924" rx="7.754" transform="rotate(90 490.177 332.601)" fill="#fff"/><rect x="129.061" y="490" width="642.086" height="29.709" rx="6" fill="#fff" stroke="#E1E4E5" stroke-width="4"/><path fill-rule="evenodd" clip-rule="evenodd" d="M761.492 206.459c0-33.78-27.384-61.165-61.165-61.165H647.79c-33.781 0-61.166 27.385-61.166 61.165 0 33.781 27.385 61.166 61.166 61.166h17.576l25.485 20.48c2.871 2.307 7.134.264 7.134-3.419v-17.061h2.342c33.78 0 61.165-27.385 61.165-61.166z" fill="#009688"/><rect x="631.952" y="184.264" width="45.203" height="7.291" rx="3.645" fill="#fff"/><rect x="631.952" y="203.221" width="69.263" height="7.291" rx="3.645" fill="#fff"/><rect x="631.952" y="222.177" width="94.781" height="7.291" rx="3.645" fill="#fff"/><path fill-rule="evenodd" clip-rule="evenodd" d="M335.178 220.56h-4.566a1.995 1.995 0 0 1-1.994-1.993v-4.566c0-1.105.899-1.994 1.994-1.994h4.566c1.095 0 1.993.899 1.993 1.994v4.566a1.988 1.988 0 0 1-1.993 1.993zm-15.833 0h-4.566a2 2 0 0 1-1.993-1.993v-4.566c0-1.105.898-1.994 1.993-1.994h4.566c1.095 0 1.994.899 1.994 1.994v4.566a2.001 2.001 0 0 1-1.994 1.993zm-15.842 0h-4.567a2 2 0 0 1-1.993-1.993v-4.566c0-1.105.898-1.994 1.993-1.994h4.567c1.095 0 1.993.899 1.993 1.994v4.566a1.989 1.989 0 0 1-1.993 1.993zm-15.833 0h-4.567a2 2 0 0 1-1.993-1.993v-4.566c0-1.105.898-1.994 1.993-1.994h4.567c1.104 0 2.002.899 2.002 1.994v4.566a2.014 2.014 0 0 1-2.002 1.993zm-15.834 0h-4.566a2.002 2.002 0 0 1-2.003-1.993v-4.566c0-1.105.898-1.994 2.003-1.994h4.566c1.095 0 1.993.899 1.993 1.994v4.566a2 2 0 0 1-1.993 1.993zm46.929-17.264h-4.567a2 2 0 0 1-1.993-1.993v-4.576a2 2 0 0 1 1.993-1.993h4.567c1.104 0 1.993.898 1.993 1.993v4.567a1.99 1.99 0 0 1-1.993 2.002zm-15.833 0h-4.567a2 2 0 0 1-1.993-1.993v-4.576a2 2 0 0 1 1.993-1.993h4.567a2 2 0 0 1 1.993 1.993v4.567a1.99 1.99 0 0 1-1.993 2.002zm-15.833 0h-4.567a2.002 2.002 0 0 1-2.002-1.993v-4.576c0-1.095.898-1.993 2.002-1.993h4.567c1.094 0 1.993.898 1.993 1.993v4.567a2.003 2.003 0 0 1-1.993 2.002zm16.404 35.812h-4.567a2 2 0 0 1-1.993-1.993v-4.567c0-1.104.898-1.993 1.993-1.993h4.567c1.095 0 1.993.899 1.993 1.993v4.567a1.989 1.989 0 0 1-1.993 1.993zm-15.833 0h-4.567a2 2 0 0 1-1.993-1.993v-4.567c0-1.104.898-1.993 1.993-1.993h4.567c1.104 0 2.002.899 2.002 1.993v4.567a2.014 2.014 0 0 1-2.002 1.993zM561.651 426.77h4.566c1.104 0 1.993.899 1.993 1.994v4.566a1.995 1.995 0 0 1-1.993 1.993h-4.566a2.001 2.001 0 0 1-1.994-1.993v-4.566a1.99 1.99 0 0 1 1.994-1.994zm15.832 0h4.567c1.095 0 1.993.899 1.993 1.994v4.566a1.995 1.995 0 0 1-1.993 1.993h-4.567a2.001 2.001 0 0 1-1.993-1.993v-4.566c0-1.095.899-1.994 1.993-1.994zm15.843 0h4.566c1.095 0 1.994.899 1.994 1.994v4.566a1.995 1.995 0 0 1-1.994 1.993h-4.566a2 2 0 0 1-1.993-1.993v-4.566a1.989 1.989 0 0 1 1.993-1.994zm15.833 0h4.567c1.095 0 1.993.899 1.993 1.994v4.566a1.995 1.995 0 0 1-1.993 1.993h-4.567a2.002 2.002 0 0 1-2.002-1.993v-4.566a2.015 2.015 0 0 1 2.002-1.994zm15.834.001h4.566c1.104 0 2.003.898 2.003 1.993v4.567a1.997 1.997 0 0 1-2.003 1.993h-4.566a2.002 2.002 0 0 1-1.994-1.993v-4.567c0-1.095.899-1.993 1.994-1.993zm-46.929 17.264h4.566c1.095 0 1.994.898 1.994 1.993v4.576a2.001 2.001 0 0 1-1.994 1.993h-4.566a1.995 1.995 0 0 1-1.993-1.993v-4.567a1.99 1.99 0 0 1 1.993-2.002zm15.833 0h4.567a2 2 0 0 1 1.993 1.993v4.576a2 2 0 0 1-1.993 1.993h-4.567a2 2 0 0 1-1.993-1.993v-4.567a1.99 1.99 0 0 1 1.993-2.002zm15.833 0h4.567c1.104 0 2.002.898 2.002 1.993v4.576a2.002 2.002 0 0 1-2.002 1.993h-4.567a2 2 0 0 1-1.993-1.993v-4.567c0-1.104.898-2.002 1.993-2.002zm-16.404-35.812h4.566c1.095 0 1.994.898 1.994 1.993v4.567a1.995 1.995 0 0 1-1.994 1.993h-4.566a2 2 0 0 1-1.993-1.993v-4.567a1.988 1.988 0 0 1 1.993-1.993zm15.833 0h4.567a2 2 0 0 1 1.993 1.993v4.567a1.995 1.995 0 0 1-1.993 1.993h-4.567a2.002 2.002 0 0 1-2.002-1.993v-4.567a2.014 2.014 0 0 1 2.002-1.993z" fill="#E1E4E5"/><path fill-rule="evenodd" clip-rule="evenodd" d="m294.894 305.2-33.014-32.867a23.407 23.407 0 0 0-16.507-6.811h-83.727c-12.9 0-23.349 10.402-23.349 23.245v162.711c0 12.843 10.449 23.245 23.349 23.245h116.741c12.9 0 23.348-10.402 23.348-23.245V321.634a23.2 23.2 0 0 0-6.841-16.434z" fill="#fff" stroke="#E1E4E5" stroke-width="4"/><rect x="156.82" y="314.553" width="122.033" height="122.033" rx="21.963" fill="#009688" stroke="#fff" stroke-width="10.982" stroke-linecap="round" stroke-linejoin="round"/><path d="M198.202 351.172a3.393 3.393 0 1 1-4.771 0 3.405 3.405 0 0 1 4.796 0m80.627 11.586a64.777 64.777 0 0 0-73.83 73.831" stroke="#fff" stroke-width="10.982" stroke-linecap="round" stroke-linejoin="round"/><path fill-rule="evenodd" clip-rule="evenodd" d="m675.394 411.534-16.803-16.803a15.546 15.546 0 0 1-4.549-10.989v-28.569a15.54 15.54 0 0 1 4.554-10.989l16.803-16.803a15.54 15.54 0 0 1 10.989-4.554h28.569a15.54 15.54 0 0 1 10.989 4.554l16.808 16.808a15.546 15.546 0 0 1 4.549 10.989v28.564c0 4.121-1.636 8.074-4.549 10.989l-16.803 16.808a15.54 15.54 0 0 1-10.994 4.549h-28.569a15.545 15.545 0 0 1-10.994-4.554z" fill="#009688"/><path fill-rule="evenodd" clip-rule="evenodd" d="M706.32 374.17a12.229 12.229 0 0 0 6.254-13.76 12.249 12.249 0 0 0-11.903-9.331 12.248 12.248 0 0 0-11.902 9.331 12.229 12.229 0 0 0 6.254 13.76l-3.676 10.986a2.04 2.04 0 0 0 1.94 2.683h14.752a2.04 2.04 0 0 0 1.94-2.683l-3.659-10.986z" fill="#fff"/><defs><linearGradient id="a" x1="726.75" y1="301.071" x2="841.916" y2="209.974" gradientUnits="userSpaceOnUse"><stop stop-color="#fff"/><stop offset="1" stop-color="#EEE"/></linearGradient><linearGradient id="b" x1="224.179" y1="281.114" x2="109.244" y2="174.325" gradientUnits="userSpaceOnUse"><stop stop-color="#fff"/><stop offset="1" stop-color="#EEE"/></linearGradient></defs></svg>