<svg width="900" height="600" viewBox="0 0 900 600" fill="none" xmlns="http://www.w3.org/2000/svg"><path fill="transparent" d="M0 0h900v600H0z"/><path d="M704.669 410.496c-13.234 67.197-192.103 171.977-356.43 84.867-76.426-40.517-59.433-77.61-108.941-141.57-29.511-38.121-77.263-72.28-80.77-119.435-3.037-40.703 15.478-79.888 44.742-101.765 65.815-49.2 177.991-68.821 253.619 46.29 75.627 115.111 281.89 58.304 247.78 231.613z" fill="url(#a)"/><path fill-rule="evenodd" clip-rule="evenodd" d="M675.598 170.394v-61.697c0-34.074-27.622-61.697-61.697-61.697H305.416c-34.074 0-61.697 27.623-61.697 61.697V262.94" fill="#fff"/><path d="M675.598 170.394v-61.697c0-34.074-27.622-61.697-61.697-61.697H305.416c-34.074 0-61.697 27.623-61.697 61.697V262.94" stroke="#E1E4E5" stroke-width="4.13"/><path fill-rule="evenodd" clip-rule="evenodd" d="M243.719 181.183h199.436a30.848 30.848 0 0 0 25.666-13.728l43.281-65.059a30.847 30.847 0 0 1 25.758-13.759h137.739c34.074 0 61.697 27.623 61.697 61.697V458.82c0 34.074-27.623 61.697-61.697 61.697h-431.88c-34.074 0-61.697-27.623-61.697-61.697V242.88c0-34.074 27.623-61.697 61.697-61.697z" fill="#009688" stroke="#009688" stroke-width="4.13"/><ellipse rx="12.803" ry="12.221" transform="matrix(-1 0 0 1 754.167 516.574)" fill="#E1E4E5"/><circle r="5.595" transform="matrix(-1 0 0 1 268.972 547.278)" fill="#E1E4E5"/><circle r="7.993" transform="matrix(-1 0 0 1 342.74 126.154)" fill="#E1E4E5"/><circle r="7.811" transform="scale(1 -1) rotate(-75 -208.041 -284.455)" fill="#E1E4E5"/><ellipse rx="7.993" ry="6.394" transform="matrix(-1 0 0 1 765.95 202)" fill="#E1E4E5"/><path d="M140.776 470.66h.209c1.238 17.544 14.286 17.814 14.286 17.814s-14.388.28-14.388 20.552c0-20.272-14.387-20.552-14.387-20.552s13.042-.27 14.28-17.814zm632.889-194.44h.218c1.286 18.526 14.846 18.811 14.846 18.811s-14.952.297-14.952 21.704c0-21.407-14.952-21.704-14.952-21.704s13.554-.285 14.84-18.811z" fill="#E1E4E5"/><path d="M492.821 391.298h-67.696" stroke="#fff" stroke-width="10" stroke-linecap="round" stroke-linejoin="round"/><path clip-rule="evenodd" d="M419.946 387.984c-20.038-14.159-32.054-38.88-27.823-66.094 4.581-29.413 29.098-52.893 58.67-56.356 41.046-4.818 75.876 27.134 75.876 67.21 0 22.848-11.35 43.01-28.692 55.263-3.114 2.2-5.156 5.607-5.156 9.421v31.219c0 15.581-12.625 28.207-28.207 28.207h-11.282c-15.582 0-28.207-12.626-28.207-28.207v-31.174c0-3.847-2.053-7.277-5.179-9.489z" stroke="#fff" stroke-width="10" stroke-linecap="round" stroke-linejoin="round"/><path d="m549.235 276.329 13.426-13.427m-182.666 2.144-13.426-13.427m93.283-13.156v-18.988m100.666 113.267h19.067m-241.223 0h19.068m61.698 80.6h78.613m-78.613 22.076h78.613" stroke="#fff" stroke-width="10" stroke-linecap="round" stroke-linejoin="round"/><defs><linearGradient id="a" x1="429.489" y1="772.226" x2="440.127" y2="-379.122" gradientUnits="userSpaceOnUse"><stop stop-color="#fff"/><stop offset="1" stop-color="#EEE"/></linearGradient></defs></svg>