<svg width="900" height="600" viewBox="0 0 900 600" fill="none" xmlns="http://www.w3.org/2000/svg"><path fill="transparent" d="M0 0h900v600H0z"/><path d="M637.589 380.735c-1.854 47.025-102.256 133.571-211.693 87.774-50.898-21.302-43.905-48.069-80.413-87.639-21.761-23.584-54.393-42.937-60.976-74.867-5.689-27.561 2.046-55.885 18.028-73.279 35.945-39.12 103.234-61.9 160.636 10.442 57.401 72.342 179.184 16.289 174.418 137.569z" fill="url(#a)"/><path d="M665.931 236.676c-9.993 17.835-31.88 20.286-66.944 16.897-26.37-2.554-50.418-4.53-76.79-18.909-18.459-10.057-33.071-23.663-43.735-36.878-11.557-14.317-27.687-30.656-19.78-46.889 10.867-22.298 73.709-41.078 134.731-10.367 67.033 33.747 82.294 78.715 72.518 96.146z" fill="url(#b)"/><path d="M725.426 281.766c-20.344 10.092-47.345-2.884-47.345-2.884s6.001-29.332 26.355-39.41c20.344-10.091 47.335 2.87 47.335 2.87s-6.001 29.332-26.345 39.424z" fill="url(#c)"/><path d="M175.676 351.195c21.69 13 52.808.983 52.808.983s-4.069-33.089-25.772-46.074c-21.69-12.999-52.794-.997-52.794-.997s4.068 33.089 25.758 46.088z" fill="url(#d)"/><circle r="6.248" transform="matrix(-1 0 0 1 689.727 451.582)" fill="#E1E4E5"/><circle r="9.025" transform="matrix(-1 0 0 1 210.785 406.789)" fill="#E1E4E5"/><circle r="6.869" transform="matrix(-1 0 0 1 721.546 389.806)" fill="#E1E4E5"/><circle r="7.637" transform="matrix(-1 0 0 1 648.652 177.457)" fill="#E1E4E5"/><circle r="6.858" transform="matrix(0 1 1 0 170.472 263.151)" fill="#E1E4E5"/><circle r="9.123" transform="matrix(-1 0 0 1 408.686 129.899)" fill="#E1E4E5"/><ellipse rx="7.018" ry="5.614" transform="matrix(-1 0 0 1 696.544 351.757)" fill="#E1E4E5"/><circle r="14.272" transform="scale(1 -1) rotate(-75 205.112 -426.694)" fill="#E1E4E5"/><path d="M262.704 216.851h.1c.592 8.388 6.83 8.517 6.83 8.517s-6.878.134-6.878 9.826c0-9.692-6.879-9.826-6.879-9.826s6.235-.129 6.827-8.517zm-10.45 219.561h.096c.568 8.362 6.557 8.491 6.557 8.491s-6.604.134-6.604 9.797c0-9.663-6.604-9.797-6.604-9.797s5.986-.129 6.555-8.491zm-19.987 97.355c-.007-.976.363-1.789 1.068-2.451a43.368 43.368 0 0 1 3.335-2.829c.527-.406 1.004-.847 1.41-1.389a3.529 3.529 0 0 1 5.137-.556c1.496 1.297 1.582 3.499.185 5.002a4.89 4.89 0 0 1-.627.584c-1.731 1.283-3.398 2.65-5.051 4.033-1.026.855-2.194 1.104-3.462.591-1.24-.506-1.988-1.639-1.995-2.985zm7.26 6.298c1.581.036 2.579.798 3.22 2.038.634 1.225.548 2.458-.235 3.605-.285.42-.641.791-1.026 1.118-1.361 1.147-2.708 2.302-4.068 3.449-.87.726-1.867 1.09-3.007.848-1.254-.271-2.116-1.034-2.472-2.266-.378-1.297-.043-2.465.94-3.398a47.25 47.25 0 0 1 2.373-2.067c.613-.505 1.161-1.026 1.553-1.759.577-1.098 1.61-1.553 2.722-1.568zm20.019-5.964c.007.784-.206 1.511-.698 2.131-.278.349-.57.684-.905.969-1.132.968-2.237 1.966-3.341 2.963-1.674 1.511-4.075 1.154-5.144-.719-.67-1.176-.534-2.601.378-3.741.676-.847 1.496-1.553 2.322-2.244.442-.37.827-.762 1.14-1.254.848-1.332 2.301-1.838 3.812-1.389 1.432.427 2.422 1.76 2.436 3.284zm412.604 4.646c.738.004 1.431-.452 1.701-1.117a1.868 1.868 0 0 0-.451-2.08c-.157-.145-.343-.262-.524-.379-1.084-.705-2.181-1.391-3.177-2.225a2.024 2.024 0 0 0-1.555-.476c-.774.081-1.311.5-1.577 1.214-.266.717-.1 1.382.42 1.947.096.104.209.201.326.282 1.222.854 2.431 1.729 3.713 2.495.35.21.717.339 1.124.339zm-7.667 2.04a1.998 1.998 0 0 0 .702 1.58c1.132.967 2.289 1.919 3.599 2.64 1.197.657 2.584-.08 2.753-1.419.097-.766-.221-1.386-.858-1.793-.823-.524-1.568-1.137-2.354-1.706-.25-.181-.456-.403-.673-.616a1.86 1.86 0 0 0-2.048-.383 1.842 1.842 0 0 0-1.121 1.697zm-2.071-5.297a1.817 1.817 0 0 0-.605-1.387 24.763 24.763 0 0 0-1.887-1.6 4.125 4.125 0 0 1-.798-.786 1.996 1.996 0 0 0-2.906-.314c-.846.733-.895 1.979-.105 2.829.109.117.226.234.355.331a62.598 62.598 0 0 1 2.858 2.281c.58.484 1.241.625 1.959.335.701-.286 1.125-.927 1.129-1.689zm-4.108 3.563c-.895.02-1.459.452-1.822 1.153-.359.693-.31 1.391.133 2.04.161.238.363.447.581.633.769.649 1.531 1.302 2.301 1.951.492.411 1.056.616 1.701.479.71-.153 1.197-.584 1.399-1.282.214-.733.024-1.394-.532-1.922-.431-.407-.883-.79-1.342-1.169-.347-.286-.657-.581-.879-.996-.327-.621-.911-.879-1.54-.887zm24.073 3.273a1.9 1.9 0 0 0-.415-1.165 2.55 2.55 0 0 0-.633-.58c-.653-.408-1.298-.839-1.971-1.214-1.222-.677-2.625.004-2.814 1.367-.101.713.177 1.302.742 1.741.181.141.395.246.588.375.524.343 1.072.649 1.584 1.016.605.435 1.274.463 1.931.109.661-.351.964-.936.988-1.649zm-16.055-16.43c-.823.008-1.468.435-1.75 1.125-.302.741-.165 1.407.363 1.995.117.133.258.258.411.343.597.334 1.193.661 1.802.967.343.173.718.222 1.105.161.769-.129 1.358-.673 1.523-1.415.166-.753-.105-1.531-.75-1.934-.636-.399-1.314-.738-1.979-1.089a1.368 1.368 0 0 0-.725-.153z" fill="#E1E4E5"/><circle cx="589.999" cy="291.704" r="12.284" transform="rotate(180 589.999 291.704)" fill="#009688"/><circle cx="640.238" cy="116.992" r="11.602" transform="rotate(180 640.238 116.992)" fill="#009688"/><circle r="7.058" transform="scale(1 -1) rotate(60 635.085 340.265)" fill="#E1E4E5"/><circle r="4.865" transform="matrix(-1 0 0 1 637.711 188.073)" fill="#E1E4E5"/><path d="M249.806 169.155h.216c1.282 18.152 14.781 18.432 14.781 18.432s-14.886.29-14.886 21.265c0-20.975-14.886-21.265-14.886-21.265s13.494-.28 14.775-18.432zm395.412 291.877h.118c.698 10.38 8.05 10.54 8.05 10.54s-8.107.166-8.107 12.161c0-11.995-8.108-12.161-8.108-12.161s7.349-.16 8.047-10.54z" fill="#E1E4E5"/><path d="M446.615 61.273v272.603H417.92c0-12.153-11.253-29.82-16.88-37.135-71.738-59.922-97.057-94.703-97.057-148.539 0-50.638 29.539-77.645 48.107-86.93h94.525zm0 0v272.603h28.695c0-12.153 11.253-29.82 16.879-37.135 71.738-59.922 97.057-94.703 97.057-148.539 0-50.638-29.539-77.645-48.106-86.93h-94.525z" fill="#009688"/><rect x="283.677" y="47" width="337.279" height="23.782" rx="11.891" fill="#133835"/><path d="M446.615 539.272V266.669H417.92c0 12.154-11.253 29.821-16.879 37.135-71.738 59.922-97.057 94.703-97.057 148.539 0 50.639 29.539 77.646 48.106 86.929h94.525zm0 0V266.669h28.696c0 12.154 11.253 29.821 16.879 37.135 71.738 59.922 97.057 94.703 97.057 148.539 0 50.639-29.539 77.646-48.107 86.929h-94.525z" fill="#009688"/><rect width="337.279" height="23.782" rx="11.891" transform="matrix(1 0 0 -1 283.677 554)" fill="#133835"/><ellipse cx="301.711" cy="295.699" rx="9.545" ry="10.142" transform="rotate(-180 301.711 295.699)" fill="#009688"/><circle r="14.866" transform="scale(1 -1) rotate(60 392.036 285.232)" fill="#fff"/><circle r="5.812" transform="scale(1 -1) rotate(60 408.452 369.047)" fill="#fff"/><circle r="5.812" transform="scale(1 -1) rotate(60 322.379 239.072)" fill="#fff"/><circle r="5.812" transform="scale(1 -1) rotate(60 341.184 318.05)" fill="#fff"/><circle r="8.639" transform="scale(1 -1) rotate(74.877 305.7 192.194)" fill="#fff"/><circle r="3.377" transform="scale(1 -1) rotate(74.877 355.057 258.003)" fill="#fff"/><circle r="3.377" transform="scale(1 -1) rotate(74.877 271.018 161.165)" fill="#fff"/><circle r="3.377" transform="scale(1 -1) rotate(74.877 294.764 223.574)" fill="#fff"/><ellipse rx="3.862" ry="3.089" transform="scale(1 -1) rotate(60 436.5 351.74)" fill="#fff"/><ellipse rx="3.862" ry="3.089" transform="scale(1 -1) rotate(60 458.853 312.62)" fill="#fff"/><ellipse rx="3.862" ry="3.089" transform="scale(1 -1) rotate(60 424.821 318.538)" fill="#fff"/><ellipse rx="8.826" ry="7.06" transform="scale(1 -1) rotate(74.877 350.823 232.774)" fill="#fff"/><ellipse rx="3.45" ry="2.76" transform="scale(1 -1) rotate(74.877 372.699 273.868)" fill="#fff"/><ellipse rx="3.45" ry="2.76" transform="scale(1 -1) rotate(74.877 288.66 177.03)" fill="#fff"/><ellipse rx="3.45" ry="2.76" transform="scale(1 -1) rotate(74.877 312.407 239.439)" fill="#fff"/><ellipse rx="8.826" ry="7.06" transform="scale(1 -1) rotate(74.877 324.408 152.307)" fill="#fff"/><ellipse rx="8.826" ry="7.06" transform="scale(1 -1) rotate(74.877 380.061 149.285)" fill="#fff"/><ellipse rx="3.945" ry="3.156" transform="scale(1 -1) rotate(74.877 405.923 142.943)" fill="#fff"/><ellipse rx="8.826" ry="7.06" transform="scale(1 -1) rotate(74.877 405.41 169.466)" fill="#fff"/><ellipse rx="6.077" ry="4.862" transform="scale(1 -1) rotate(74.877 431.388 125.351)" fill="#fff"/><ellipse rx="6.077" ry="4.862" transform="scale(1 -1) rotate(74.877 447.752 140.075)" fill="#fff"/><ellipse rx="6.077" ry="4.862" transform="scale(1 -1) rotate(74.877 452.849 116.016)" fill="#fff"/><ellipse rx="6.077" ry="4.862" transform="scale(1 -1) rotate(74.877 444.277 94.583)" fill="#fff"/><ellipse rx="6.077" ry="4.862" transform="scale(1 -1) rotate(74.877 475.208 129.132)" fill="#fff"/><path d="M274.493 358.12h.208c1.23 18.098 14.191 18.377 14.191 18.377s-14.292.29-14.292 21.202c0-20.912-14.292-21.202-14.292-21.202s12.955-.279 14.185-18.377z" fill="#E1E4E5"/><path fill-rule="evenodd" clip-rule="evenodd" d="M342.2 528.046c0-28.268 46.443-51.183 103.732-51.183 57.29 0 103.732 22.915 103.732 51.183 0 .686-.027 1.368-.081 2.047H342.282a25.804 25.804 0 0 1-.082-2.047z" fill="#fff"/><defs><linearGradient id="a" x1="501.933" y1="650.914" x2="403.307" y2="-137.095" gradientUnits="userSpaceOnUse"><stop stop-color="#fff"/><stop offset="1" stop-color="#EEE"/></linearGradient><linearGradient id="b" x1="598.609" y1="352.265" x2="509.536" y2="-47.993" gradientUnits="userSpaceOnUse"><stop stop-color="#fff"/><stop offset="1" stop-color="#EEE"/></linearGradient><linearGradient id="c" x1="647.304" y1="313.244" x2="815.1" y2="180.517" gradientUnits="userSpaceOnUse"><stop stop-color="#fff"/><stop offset="1" stop-color="#EEE"/></linearGradient><linearGradient id="d" x1="259.61" y1="393.04" x2="85.086" y2="230.885" gradientUnits="userSpaceOnUse"><stop stop-color="#fff"/><stop offset="1" stop-color="#EEE"/></linearGradient></defs></svg>