<svg width="900" height="600" viewBox="0 0 900 600" fill="none" xmlns="http://www.w3.org/2000/svg"><path fill="transparent" d="M0 0h900v600H0z"/><rect x="642.803" y="215" width="196.622" height="315.069" rx="16" transform="rotate(60 642.803 215)" fill="#fff" stroke="#E1E4E5" stroke-width="4"/><rect x="637.312" y="235.495" width="166.615" height="285.062" rx="16" transform="rotate(60 637.312 235.495)" fill="#fff" stroke="#E1E4E5" stroke-width="4"/><rect x="637.059" y="266.642" width="15.634" height="15.634" rx="2" transform="rotate(105 637.059 266.642)" fill="#E1E4E5"/><rect x="493.149" y="480.116" width="15.634" height="15.634" rx="2" transform="rotate(105 493.149 480.116)" fill="#E1E4E5"/><rect x="493.149" y="480.116" width="15.634" height="15.634" rx="2" transform="rotate(105 493.149 480.116)" fill="#E1E4E5"/><rect x="583.712" y="362.18" width="46.903" height="46.903" rx="2" transform="rotate(105 583.712 362.18)" fill="#E1E4E5"/><rect width="196.622" height="315.069" rx="16" transform="scale(-1 1) rotate(60 -314.851 -115.338)" fill="#fff" stroke="#E1E4E5" stroke-width="4"/><rect width="166.615" height="285.062" rx="16" transform="scale(-1 1) rotate(60 -335.346 -109.846)" fill="#fff" stroke="#E1E4E5" stroke-width="4"/><rect width="15.634" height="15.634" rx="2" transform="scale(1 -1) rotate(-75 -42.22 -304.73)" fill="#E1E4E5"/><rect width="15.634" height="15.634" rx="2" transform="scale(1 -1) rotate(-75 -109.367 -505.241)" fill="#E1E4E5"/><rect width="15.634" height="15.634" rx="2" transform="scale(1 -1) rotate(-75 -109.367 -505.241)" fill="#E1E4E5"/><rect width="46.903" height="46.903" rx="2" transform="scale(1 -1) rotate(-75 -77.8 -387.261)" fill="#E1E4E5"/><rect x="525.227" y="106.976" width="187.055" height="299.738" rx="16" transform="rotate(30 525.227 106.976)" fill="#fff" stroke="#E1E4E5" stroke-width="4"/><rect x="530.451" y="126.474" width="158.508" height="271.192" rx="16" transform="rotate(30 530.451 126.474)" fill="#fff" stroke="#E1E4E5" stroke-width="4"/><rect x="545.059" y="152.256" width="14.874" height="14.874" rx="2" transform="rotate(75 545.059 152.256)" fill="#E1E4E5"/><rect x="528.037" y="396.588" width="14.874" height="14.874" rx="2" transform="rotate(75 528.037 396.588)" fill="#E1E4E5"/><rect x="528.037" y="396.588" width="14.874" height="14.874" rx="2" transform="rotate(75 528.037 396.588)" fill="#E1E4E5"/><rect x="546.552" y="256.343" width="44.62" height="44.62" rx="2" transform="rotate(75 546.552 256.343)" fill="#E1E4E5"/><rect width="187.055" height="299.738" rx="16" transform="scale(-1 1) rotate(30 -387.064 -646.062)" fill="#fff" stroke="#E1E4E5" stroke-width="4"/><rect width="158.508" height="271.192" rx="16" transform="scale(-1 1) rotate(30 -420.835 -626.563)" fill="#fff" stroke="#E1E4E5" stroke-width="4"/><rect width="14.874" height="14.874" rx="2" transform="scale(-1 1) rotate(75 -276.74 -155.23)" fill="#E1E4E5"/><rect width="14.874" height="14.874" rx="2" transform="scale(-1 1) rotate(75 -444.46 -44.156)" fill="#E1E4E5"/><rect width="14.874" height="14.874" rx="2" transform="scale(-1 1) rotate(75 -444.46 -44.156)" fill="#E1E4E5"/><rect width="44.62" height="44.62" rx="2" transform="scale(-1 1) rotate(75 -343.817 -102.214)" fill="#E1E4E5"/><rect x="326" y="57" width="249" height="399" rx="16" fill="#fff" stroke="#E1E4E5" stroke-width="4"/><rect x="345" y="76" width="211" height="361" rx="16" fill="#fff" stroke="#E1E4E5" stroke-width="4"/><rect x="379" y="96" width="19.799" height="19.799" rx="2" transform="rotate(45 379 96)" fill="#E1E4E5"/><rect x="522" y="389" width="19.799" height="19.799" rx="2" transform="rotate(45 522 389)" fill="#E1E4E5"/><rect x="522" y="389" width="19.799" height="19.799" rx="2" transform="rotate(45 522 389)" fill="#E1E4E5"/><rect x="450" y="215" width="59.397" height="59.397" rx="2" transform="rotate(45 450 215)" fill="#E1E4E5"/><path d="M196.462 129.266c18.688 11.201 45.499.847 45.499.847s-3.505-28.509-22.205-39.697c-18.688-11.2-45.488-.86-45.488-.86s3.506 28.51 22.194 39.71z" fill="url(#a)"/><circle cx="612.479" cy="480.199" r="16.316" transform="rotate(180 612.479 480.199)" fill="#009688"/><circle cx="545.206" cy="264.206" r="23.206" transform="rotate(180 545.206 264.206)" fill="#009688"/><circle cx="370.431" cy="375.431" r="13.431" transform="rotate(180 370.431 375.431)" fill="#009688"/><circle r="15.296" transform="matrix(-1 0 0 1 259.83 468.39)" fill="#009688"/><circle r="7.138" transform="matrix(-1 0 0 1 755.862 374.412)" fill="#009688"/><circle r="9.178" transform="scale(1 -1) rotate(60 792.468 306.475)" fill="#E1E4E5"/><circle r="13.257" transform="matrix(-1 0 0 1 151.075 450.187)" fill="#E1E4E5"/><circle r="10.09" transform="scale(1 -1) rotate(60 334.73 140.202)" fill="#E1E4E5"/><circle r="11.217" transform="matrix(-1 0 0 1 694.044 252.578)" fill="#E1E4E5"/><circle r="10.073" transform="scale(1 -1) rotate(-75 243.133 -498.104)" fill="#E1E4E5"/><circle r="13.4" transform="matrix(-1 0 0 1 291.649 66.265)" fill="#E1E4E5"/><ellipse rx="10.308" ry="8.246" transform="scale(1 -1) rotate(60 636.392 478.162)" fill="#E1E4E5"/><circle r="20.964" transform="scale(1 -1) rotate(-75 263.718 -424.838)" fill="#E1E4E5"/><path d="M162.028 203h.147c.87 12.32 10.032 12.51 10.032 12.51s-10.103.197-10.103 14.433c0-14.236-10.104-14.433-10.104-14.433s9.159-.19 10.028-12.51zM264.89 361.144h.141c.835 12.283 9.632 12.472 9.632 12.472s-9.701.197-9.701 14.391c0-14.194-9.7-14.391-9.7-14.391s8.793-.189 9.628-12.472zm373.927 16.857h.141c.835 12.284 9.632 12.473 9.632 12.473s-9.7.196-9.7 14.39c0-14.194-9.701-14.39-9.701-14.39s8.794-.189 9.628-12.473z" fill="#E1E4E5"/><defs><linearGradient id="a" x1="268.779" y1="165.32" x2="118.409" y2="25.607" gradientUnits="userSpaceOnUse"><stop stop-color="#fff"/><stop offset="1" stop-color="#EEE"/></linearGradient></defs></svg>