<svg width="900" height="600" viewBox="0 0 900 600" fill="none" xmlns="http://www.w3.org/2000/svg"><path fill="transparent" d="M0 0h900v600H0z"/><circle cx="454.437" cy="300.029" r="192.414" fill="#009688"/><circle cx="454.437" cy="300.029" r="146.028" fill="#fff"/><circle cx="454.437" cy="300.029" r="92.771" fill="#009688"/><circle cx="454.437" cy="300.029" r="36.078" fill="#fff"/><path fill-rule="evenodd" clip-rule="evenodd" d="M210.623 123.756c-31.087-13.557-67.396-1.615-84.369 27.746l-2.11 3.655a78.63 78.63 0 0 1 65.459 5.005l-11.128 19.275a8.429 8.429 0 0 0 8.513 12.553l69.483-10.13a8.133 8.133 0 0 0 6.387-11.062l-25.968-65.239a8.43 8.43 0 0 0-15.128-1.097l-11.139 19.294zm499.418 329.223c27.284 20.144 35.097 57.56 18.156 86.938l-2.111 3.656a78.627 78.627 0 0 0-37.064-54.187l-11.128 19.275a8.43 8.43 0 0 1-15.128-1.097l-25.969-65.238a8.135 8.135 0 0 1 6.387-11.063l69.483-10.13a8.428 8.428 0 0 1 8.513 12.553l-11.139 19.293zm-514.78 17.055c-17.461 12.892-22.462 36.837-11.619 55.64l1.351 2.339a50.32 50.32 0 0 1 23.72-34.679l7.122 12.336a5.395 5.395 0 0 0 9.682-.702l16.62-41.753a5.201 5.201 0 0 0-4.088-7.079l-44.468-6.484a5.395 5.395 0 0 0-5.449 8.034l7.129 12.348zm480.316-323.68c17.461-12.892 22.461-36.838 11.619-55.64l-1.351-2.34a50.321 50.321 0 0 1-23.721 34.68l-7.122-12.336a5.394 5.394 0 0 0-9.682.702l-16.619 41.752a5.206 5.206 0 0 0 4.087 7.08l44.469 6.483a5.393 5.393 0 0 0 5.448-8.034l-7.128-12.347zm45.269 167.703c12.723-1.436 22.341-12.195 22.348-24.999v-1.594a29.685 29.685 0 0 1-22.348 10.721v-8.403a3.18 3.18 0 0 0-5.154-2.497l-20.806 16.429a3.068 3.068 0 0 0 0 4.822l20.806 16.429a3.18 3.18 0 0 0 5.154-2.497v-8.411zm-507.787 13.414c-12.723-1.436-22.341-12.195-22.348-24.999v-1.594a29.685 29.685 0 0 0 22.348 10.721v-8.403a3.18 3.18 0 0 1 5.154-2.497l20.806 16.429a3.068 3.068 0 0 1 0 4.822l-20.806 16.429a3.18 3.18 0 0 1-5.154-2.497v-8.411zM450.5 62.348c1.436-12.723 12.195-22.341 24.999-22.348h1.593a29.688 29.688 0 0 0-10.721 22.348h8.404a3.183 3.183 0 0 1 2.497 5.153l-16.429 20.807a3.07 3.07 0 0 1-4.823 0L439.591 67.5a3.182 3.182 0 0 1 2.498-5.153h8.411zm0 474.909c1.436 12.723 12.195 22.341 24.999 22.348h1.593a29.687 29.687 0 0 1-10.72-22.348h8.403a3.182 3.182 0 0 0 2.497-5.153l-16.429-20.807a3.072 3.072 0 0 0-4.823 0l-16.429 20.807a3.182 3.182 0 0 0 2.498 5.153h8.411z" fill="#E1E4E5"/></svg>