<svg width="900" height="600" viewBox="0 0 900 600" fill="none" xmlns="http://www.w3.org/2000/svg"><path fill="transparent" d="M0 0h900v600H0z"/><path d="M366.138 223.008c70.658-4 144.739 16.834 133.85 47.036-10.89 30.203 58.218-10.727 85.796.162 19.634 7.752 11.786 31.353 21.284 40.862 21.779 21.803 44.054-5.653 71.772 10.821 27.718 16.474-29.031 170.226-57.989 171.084l-330.279-1.957-23.702-2.078s-65.562-34.975-18.663-67.238c31.712-21.815 8.895-37.657 5.445-47.644-3.959-11.467-13.198-31.494 27.06-46.191 40.258-14.696 29.864-46.676 28.873-53.296-.989-6.624-14.104-47.561 56.553-51.561z" fill="url(#a)"/><rect x="623.524" y="251.576" width="233.477" height="308.124" rx="37.471" transform="rotate(90 623.524 251.576)" fill="#fff" stroke="#E1E4E5" stroke-width="4.684"/><rect x="260.303" y="471.964" width="419.206" height="17.533" rx="7.026" fill="#fff" stroke="#E1E4E5" stroke-width="4.684"/><path stroke="#E1E4E5" stroke-width="4.684" d="M101.052 489.496H813m-655.742 25.762H401.99m30.446 0h340.751"/><mask id="b" fill="#fff"><path fill-rule="evenodd" clip-rule="evenodd" d="M239.192 492.36c-4.021-33.28-32.363-59.07-66.728-59.07-34.366 0-62.707 25.79-66.728 59.07h133.456z"/></mask><path fill-rule="evenodd" clip-rule="evenodd" d="M239.192 492.36c-4.021-33.28-32.363-59.07-66.728-59.07-34.366 0-62.707 25.79-66.728 59.07h133.456z" fill="#fff"/><path d="M239.192 492.36v4.684h5.283l-.633-5.245-4.65.561zm-133.456 0-4.65-.561-.634 5.245h5.284v-4.684zm66.728-54.386c31.967 0 58.337 23.991 62.078 54.948l9.3-1.123c-4.302-35.605-34.615-63.192-71.378-63.192v9.367zm-62.078 54.948c3.74-30.957 30.11-54.948 62.078-54.948v-9.367c-36.764 0-67.077 27.587-71.378 63.192l9.3 1.123zm-4.65 4.122h133.456v-9.368H105.736v9.368z" fill="#E1E4E5" mask="url(#b)"/><circle cx="229.858" cy="284.577" r="25.761" fill="#fff" stroke="#E1E4E5" stroke-width="4.684"/><mask id="c" fill="#fff"><path fill-rule="evenodd" clip-rule="evenodd" d="M258.601 250.735c-17.82-13.978-43.68-12.759-60.097 3.659-16.418 16.417-17.637 42.277-3.659 60.097l63.756-63.756z"/></mask><path fill-rule="evenodd" clip-rule="evenodd" d="M258.601 250.735c-17.82-13.978-43.68-12.759-60.097 3.659-16.418 16.417-17.637 42.277-3.659 60.097l63.756-63.756z" fill="#fff"/><path d="m258.601 250.735 3.312 3.312 3.737-3.736-4.158-3.261-2.891 3.685zm-63.756 63.756-3.685 2.891 3.261 4.158 3.736-3.737-3.312-3.312zm6.971-56.785c14.721-14.722 37.916-15.819 53.894-3.285l5.782-7.371c-19.662-15.423-48.187-14.081-66.3 4.032l6.624 6.624zm-3.285 53.895c-12.534-15.979-11.437-39.174 3.285-53.895l-6.624-6.624c-18.113 18.113-19.455 46.638-4.032 66.3l7.371-5.781zm-.374 6.202 63.756-63.756-6.624-6.624-63.756 63.756 6.624 6.624z" fill="#E1E4E5" mask="url(#c)"/><path stroke="#E1E4E5" stroke-width="4.684" d="M156.396 435.623 86.138 312.671m-.879 1.956 84.31-93.678m30.499 34.807-30.445-31.616"/><path d="M228.494 325.33v6.64m45.373-47.586h6.639M260.6 311.097l4.684 5.855m505.131 148.101 11.205-3.735a16.788 16.788 0 0 0 11.478-15.925v-2.344c0-7.977-6.466-14.443-14.443-14.443h-14.443" stroke="#E1E4E5" stroke-width="4.684" stroke-linecap="round" stroke-linejoin="round"/><path fill-rule="evenodd" clip-rule="evenodd" d="M706.442 435.827v21.665c0 15.953 12.933 28.886 28.886 28.886h7.221c15.954 0 28.887-12.933 28.887-28.886v-21.665a7.222 7.222 0 0 0-7.222-7.221h-50.551a7.221 7.221 0 0 0-7.221 7.221z" fill="#fff" stroke="#E1E4E5" stroke-width="4.684" stroke-linecap="round" stroke-linejoin="round"/><path fill-rule="evenodd" clip-rule="evenodd" d="M647.894 302.7v-44.844c0-4.645 3.754-8.408 8.39-8.408h50.343c4.636 0 8.391 3.763 8.391 8.408V302.7a8.407 8.407 0 0 1-4.317 7.349l-25.172 14.012a8.366 8.366 0 0 1-8.151 0l-25.172-14.012a8.415 8.415 0 0 1-4.312-7.349z" fill="#E1E4E5"/><path d="M667.503 286.53h27.906m-27.906-13.074h27.906m-27.906 25.77h27.906" stroke="#fff" stroke-width="4.311" stroke-linecap="round" stroke-linejoin="round"/><path fill-rule="evenodd" clip-rule="evenodd" d="M410.187 385.048v-31.353a29.635 29.635 0 0 1 14.722-25.606l29.628-17.244a29.64 29.64 0 0 1 29.807 0l29.628 17.244a29.627 29.627 0 0 1 14.729 25.606v31.353a29.633 29.633 0 0 1-14.722 25.605l-29.629 17.244a29.634 29.634 0 0 1-29.806 0l-29.628-17.244a29.624 29.624 0 0 1-14.729-25.605z" fill="#009688"/><path d="M469.444 369.372v-29.629m-.006 52.673c-.909 0-1.646.737-1.64 1.646a1.647 1.647 0 1 0 1.64-1.646" stroke="#fff" stroke-width="9.315" stroke-linecap="round" stroke-linejoin="round"/><path d="m241.975 91.022-12.488 12.475-6.067-6.048m193.029-6.427-12.488 12.475-6.066-6.048m193.028-6.427-12.488 12.475-6.066-6.048M269.03 85.052h36.908m137.566 0h36.908m137.567 0h36.907m-385.568 18.309h61.034m113.44 0h61.034m113.44 0H679.3m-437.325 30.385-12.488 12.475-6.067-6.049m193.029-6.426-12.488 12.475-6.066-6.049m193.028-6.426-12.488 12.475-6.066-6.049M269.03 127.775h36.908m137.566 0h36.908m137.567 0h36.907m-385.568 18.31h61.034m113.44 0h61.034m113.44 0H679.3M330.351 188.81H269.03m235.795 0h-61.321m235.795 0h-61.32m-287.627-18.312h-61.034m235.508 0h-61.034m235.508 0h-61.034" stroke="#E1E4E5" stroke-width="6.44" stroke-linecap="round" stroke-linejoin="round"/><path clip-rule="evenodd" d="M232.697 194.914c6.742 0 12.207-5.466 12.207-12.207 0-6.742-5.465-12.207-12.207-12.207-6.741 0-12.207 5.465-12.207 12.207 0 6.741 5.466 12.207 12.207 12.207zm174.475 0c6.741 0 12.206-5.466 12.206-12.207 0-6.742-5.465-12.207-12.206-12.207-6.742 0-12.207 5.465-12.207 12.207 0 6.741 5.465 12.207 12.207 12.207zm174.474 0c6.741 0 12.207-5.466 12.207-12.207 0-6.742-5.466-12.207-12.207-12.207-6.742 0-12.207 5.465-12.207 12.207 0 6.741 5.465 12.207 12.207 12.207z" stroke="#E1E4E5" stroke-width="6.44" stroke-linecap="round" stroke-linejoin="round"/><defs><linearGradient id="a" x1="468.483" y1="644.607" x2="463.525" y2="-71.758" gradientUnits="userSpaceOnUse"><stop stop-color="#fff"/><stop offset="1" stop-color="#EEE"/></linearGradient></defs></svg>