<svg width="900" height="600" viewBox="0 0 900 600" fill="none" xmlns="http://www.w3.org/2000/svg"><path fill="transparent" d="M0 0h900v600H0z"/><path d="M356.017 259.753c69.551-3.937 142.472 16.571 131.754 46.3-10.72 29.729 57.306-10.559 84.451.159 19.327 7.631 11.602 30.862 20.951 40.222 21.438 21.461 43.364-5.564 70.648 10.652 27.284 16.215-28.577 167.559-57.08 168.404l-325.106-1.927-23.331-2.045s-64.535-34.427-18.37-66.185c31.214-21.473 8.755-37.067 5.36-46.898-3.898-11.287-12.992-31 26.635-45.467 39.628-14.466 29.397-45.945 28.421-52.461-.973-6.52-13.883-46.816 55.667-50.754z" fill="url(#a)"/><path stroke="#E1E4E5" stroke-width="4.684" d="M138 524.835h613.454"/><rect x="161.269" y="442.609" width="85.896" height="82.035" rx="4" fill="#fff" stroke="#E1E4E5" stroke-width="4"/><path stroke="#E1E4E5" stroke-width="4" d="M183 458h65m-42.267-150.508v135.117"/><path d="M249.84 388.091c-28.429-4.23-40.089 17.135-42.722 30.487-.374 1.898.871 3.691 2.755 4.132 33.417 7.821 42.501-15.494 43.055-30.943.066-1.837-1.269-3.405-3.088-3.676z" fill="#fff" stroke="#E1E4E5" stroke-width="4"/><path stroke="#E1E4E5" stroke-width="4" d="m207.462 420.669 30.884-20.267"/><path d="M236.32 347.853c-18.819-2.329-26.957 11.434-29.139 20.766-.44 1.884.815 3.692 2.707 4.095 22.249 4.74 28.789-10.456 29.49-21.222.12-1.835-1.233-3.413-3.058-3.639z" fill="#fff" stroke="#E1E4E5" stroke-width="4"/><path stroke="#E1E4E5" stroke-width="4" d="m206.9 370.566 21.876-14.356"/><path d="M227.643 311.472c-13.381-1.296-19.476 8.225-21.365 15.197-.506 1.867.746 3.688 2.647 4.05 15.907 3.023 20.954-7.61 21.723-15.651.175-1.831-1.175-3.419-3.005-3.596z" fill="#fff" stroke="#E1E4E5" stroke-width="4"/><path stroke="#E1E4E5" stroke-width="4" d="m205.612 328.527 16.728-10.978"/><path d="M163.418 388.091c28.429-4.23 40.089 17.135 42.723 30.487.374 1.898-.872 3.691-2.755 4.132-33.417 7.821-42.501-15.494-43.055-30.943-.066-1.837 1.269-3.405 3.087-3.676z" fill="#fff" stroke="#E1E4E5" stroke-width="4"/><path stroke="#E1E4E5" stroke-width="4" d="m205.796 420.669-30.883-20.267"/><path d="M176.938 347.853c18.82-2.329 26.957 11.434 29.14 20.766.44 1.884-.815 3.692-2.707 4.095-22.249 4.74-28.789-10.456-29.49-21.222-.12-1.835 1.232-3.413 3.057-3.639z" fill="#fff" stroke="#E1E4E5" stroke-width="4"/><path stroke="#E1E4E5" stroke-width="4" d="m206.36 370.566-21.877-14.356"/><path d="M183.685 311.472c13.38-1.296 19.475 8.225 21.364 15.197.506 1.867-.746 3.688-2.647 4.05-15.907 3.023-20.953-7.61-21.722-15.651-.176-1.831 1.174-3.419 3.005-3.596z" fill="#fff" stroke="#E1E4E5" stroke-width="4"/><path stroke="#E1E4E5" stroke-width="4" d="m205.716 328.528-16.728-10.978"/><rect x="295.277" y="519.989" width="139.94" height="17.419" rx="4" transform="rotate(-75 295.277 519.989)" fill="#fff" stroke="#E1E4E5" stroke-width="4"/><rect x="278.75" y="506.571" width="54.578" height="17.419" rx="4" fill="#fff" stroke="#E1E4E5" stroke-width="4"/><rect width="139.94" height="17.419" rx="4" transform="scale(-1 1) rotate(-75 27.198 666.122)" fill="#fff" stroke="#E1E4E5" stroke-width="4"/><rect width="54.578" height="17.419" rx="4" transform="matrix(-1 0 0 1 639.793 506.571)" fill="#fff" stroke="#E1E4E5" stroke-width="4"/><rect x="311.265" y="370.109" width="300.761" height="24.386" rx="4" fill="#fff" stroke="#E1E4E5" stroke-width="4"/><rect x="311.265" y="370.199" width="56.901" height="24.386" rx="4" fill="#fff" stroke="#E1E4E5" stroke-width="4"/><rect x="361.074" y="222" width="173.867" height="125.753" rx="4" fill="#fff" stroke="#E1E4E5" stroke-width="4"/><rect x="438.877" y="345.723" width="29.031" height="24.386" rx="4" fill="#fff" stroke="#E1E4E5" stroke-width="4"/><rect x="374.196" y="222" width="160.745" height="125.753" rx="4" fill="#fff" stroke="#E1E4E5" stroke-width="4"/><rect x="374.196" y="222" width="160.745" height="99.509" rx="4" fill="#fff" stroke="#E1E4E5" stroke-width="4"/><path stroke="#E1E4E5" stroke-width="4" d="M392.664 240.625h122m-122 14h122m-122 14h71m-71 14h41m-41 14h122"/><circle cx="453.974" cy="335.271" r="4.645" fill="#E1E4E5"/><rect x="145.655" y="158.481" width="212.507" height="18.58" rx="4" fill="#fff" stroke="#E1E4E5" stroke-width="4"/><rect x="173.524" y="139.901" width="24.386" height="18.58" rx="4" fill="#fff" stroke="#E1E4E5" stroke-width="4"/><rect x="173.524" y="103.902" width="24.386" height="35.998" rx="4" fill="#fff" stroke="#E1E4E5" stroke-width="4"/><rect x="197.911" y="105.064" width="22.064" height="51.095" rx="4" fill="#fff" stroke="#E1E4E5" stroke-width="4"/><rect x="219.975" y="105.064" width="22.064" height="51.095" rx="4" fill="#fff" stroke="#E1E4E5" stroke-width="4"/><rect x="332.615" y="144.546" width="13.935" height="69.674" rx="4" transform="rotate(90 332.615 144.546)" fill="#fff" stroke="#E1E4E5" stroke-width="4"/><rect x="333.776" y="131.772" width="11.612" height="60.385" rx="4" transform="rotate(90 333.776 131.772)" fill="#fff" stroke="#E1E4E5" stroke-width="4"/><rect x="173.524" y="83" width="24.386" height="20.902" rx="4" fill="#fff" stroke="#E1E4E5" stroke-width="4"/><rect x="549.156" y="158.481" width="212.507" height="18.58" rx="4" fill="#fff" stroke="#E1E4E5" stroke-width="4"/><rect x="601.412" y="105.064" width="22.064" height="51.095" rx="4" fill="#fff" stroke="#E1E4E5" stroke-width="4"/><rect x="623.476" y="105.064" width="22.064" height="51.095" rx="4" fill="#fff" stroke="#E1E4E5" stroke-width="4"/><rect x="736.116" y="144.546" width="13.935" height="69.674" rx="4" transform="rotate(90 736.116 144.546)" fill="#fff" stroke="#E1E4E5" stroke-width="4"/><rect x="737.277" y="131.772" width="11.612" height="60.385" rx="4" transform="rotate(90 737.277 131.772)" fill="#fff" stroke="#E1E4E5" stroke-width="4"/><rect x="726.545" y="120.179" width="11.612" height="60.385" rx="4" transform="rotate(90 726.545 120.179)" fill="#fff" stroke="#E1E4E5" stroke-width="4"/><circle cx="451.767" cy="142.707" r="48.772" fill="#fff" stroke="#E1E4E5" stroke-width="4"/><path stroke="#E1E4E5" stroke-width="4" d="M452.09 146.191v-27.87m20.193 51.2-20.902-25.547"/><path d="M702.167 484h-70.36a.818.818 0 0 1-.814-.828v-4.15c0-.46.362-.828.814-.828h70.37c.452 0 .813.368.813.828v4.15a.832.832 0 0 1-.823.828z" fill="#fff" stroke="#E1E4E5" stroke-width="4" stroke-linecap="round" stroke-linejoin="round"/><path d="M650.929 427.1c3.353 0 5.74 3.259 4.728 6.457l-27.776 87.944a2.836 2.836 0 0 1-5.482-1.422l17.319-84.685.476-2.326a7.463 7.463 0 0 1 7.313-5.968h3.422zm60.655 92.979a2.836 2.836 0 0 1-5.482 1.422l-28.625-90.605a2.92 2.92 0 0 1 2.784-3.796h10.245c1.195 0 2.227.838 2.471 2.008l18.607 90.971z" fill="#fff" stroke="#E1E4E5" stroke-width="4" stroke-linecap="round" stroke-linejoin="round"/><path d="M634.13 425.938h65.723c1.093 0 1.976 1.194 1.976 2.672v10.915c0 1.478-.883 2.671-1.976 2.671H634.13c-1.093 0-1.976-1.193-1.976-2.671V428.61c0-1.478.883-2.672 1.976-2.672z" fill="#fff" stroke="#E1E4E5" stroke-width="4" stroke-linecap="round" stroke-linejoin="round"/><path fill-rule="evenodd" clip-rule="evenodd" d="M610.39 493.768s5.867 11.849 1.057 15.583c-4.816 3.734-17.539 10.733-17.539 10.733l33.707-2.118-7.493-25.843-9.732 1.645z" fill="#F8AE9D"/><path fill-rule="evenodd" clip-rule="evenodd" d="M624.276 504.49c-1.06.506.684 5.267-3.048 4.932-3.731-.333-6.074-5.255-8.825-4.935-2.753.319-4.499 5.275-9.738 8.726-5.238 3.453-13.005 7.57-12.485 11.041.521 3.471 12.743 4.4 18.935 3.251 6.192-1.148 9.082-3.637 13.099-3.439 4.018.199 6.542-.293 7.802-2.872 1.258-2.58-4.516-17.289-5.74-16.704zm36.891-115.158c-10.205.456-67 13.018-77.319 15.152-10.319 2.134-19.043 13.682-11.174 27.055 8.837 15.011 31.64 57.642 37.176 67.252 2.741 4.756 16.565 2.09 13.318-5.894-6.054-14.883-8.865-52.27-24.298-65.902 0 0 51.902 9.033 74.322-1.314 16.294-7.521 12.607-37.45-12.025-36.349z" fill="#133835"/><path fill-rule="evenodd" clip-rule="evenodd" d="M589.98 325.634s.115-6.066-2.79-10.406c-2.904-4.339-3.019-8.948-5.217-8.797-2.199.151-.022 10.864-.022 10.864s-2.789-1.065-4.793-2.413c-2.003-1.348-8.079-7.992-9.498-6.815-2.408 2.006 1.47 13.323 3.581 15.585 2.119 2.263 12.575 8.587 12.575 8.587l30.794 31.022 4.604-16.469-29.234-21.158z" fill="#F8AE9D"/><path fill-rule="evenodd" clip-rule="evenodd" d="M651.573 322.895c-4.747 11.01-13.439 31.236-17.022 37.27-4.491 7.557-11.572 10.886-19.862 5.28-1.735-1.174-6.716-5.277-6.716-5.277.737-7.182 3.42-13.185 8.045-18.011l3.141 2.598s8.909-22.836 16.075-36.065c6.207-11.445 23.564-2.533 16.339 14.205zm20.515-42.736v9.742l7.154-5.76s2.199-9.334 3.988-16.267c1.121-4.347 3.854-19.06-7.146-18.371-9.012-15.885-35.255-6.053-35.464 13.353-.251 23.341-.046 32.429-.046 32.429 14.84.851 23.193-1.294 31.514-15.126z" fill="#133835"/><path fill-rule="evenodd" clip-rule="evenodd" d="M679.396 298.707s-6.655-1.562-6.886-12.467c-.231-10.904-.069-14.627-.069-14.627l-14.659-.264s-.16 12.153-.162 16.549c-.006 10.688-7.866 11.564-7.866 11.564s1.343 8.819 14.626 9.566c10.372.584 15.016-10.321 15.016-10.321z" fill="#F8AE9D"/><path fill-rule="evenodd" clip-rule="evenodd" d="M675.859 266.168c6.54-.253 5.473 9.32-1.32 9.307 0 0-3.946 13.6-17.645 13.6-11.125 0-11.849-15.851-11.95-19.013-.108-3.371-.122-14.447-.122-14.447l31.292-.015-.255 10.568z" fill="#F8AE9D"/><path fill-rule="evenodd" clip-rule="evenodd" d="M676.365 266.105c-2.71.447-2.381 2.241-3.118 2.084-3.742-.795-18.889.254-20.84-8.075-2.426 5.204-3.02 6.483-8.363 7.88v-15.249l33.798-3.242s-.524 16.444-1.477 16.602z" fill="#133835"/><path fill-rule="evenodd" clip-rule="evenodd" d="M677.91 297.592c-8.352 5.115-18.008 6.991-26.996 1.436-14.668 28.922-18.324 63.43-14.795 101.571 21.389 8.468 39.365 6.803 54.669-2.876L677.91 297.592z" fill="#009688"/><path fill-rule="evenodd" clip-rule="evenodd" d="M573.828 494.243s.177 13.947-11.315 19.161c-11.485 5.214-19.667 4.9-18.626 8.931 1.042 4.031 30.935 3.868 33.727.715 2.379-2.681 7.553-27.653 8.978-25.744l-12.764-3.063z" fill="#F8AE9D"/><path fill-rule="evenodd" clip-rule="evenodd" d="M583.125 508.809c-1.916-1.017-2.394 6.424-7.409 5.058-5.015-1.365-2.186-8.531-5.337-9.351-3.15-.82-8.009 6.566-15.44 9.215-7.43 2.648-13.45 4.901-14.809 8.119-1.17 2.767.462 3.378.462 3.378s7.867 2.671 12.554 2.855c6.808.268 26.129-1.574 27.941-4.006 1.113-1.491 2.997-14.758 2.038-15.268zM693.14 385.021s14.835 31.331-6.014 42.089c-20.162 10.405-80.522-1.901-80.522-1.901s1.079 8.684 0 16.429c-2.817 20.228-16.214 53.928-19.049 58.162-3.919 5.856-15.86 1.44-16.085-3.436-.225-4.876 9.002-67.15 10.405-79.025 1.395-11.876 5.802-13.601 18.673-16.847 2.957-.746 37.924-9.436 41.127-9.183 27.524 2.177 51.465-6.288 51.465-6.288z" fill="#133835"/><path fill-rule="evenodd" clip-rule="evenodd" d="M677.545 297.615c-13.832 45.312-22.127 109.552 21.073 98.376-22.949-42.252 8.248-61.268 1.177-83.105-2.418-7.466-22.069-15.857-22.25-15.271zm-25.898 1.095c-5.279 13.24-7.816 23.628-10.183 43.061-1.974 16.184-.986 49.583-.986 49.583l-6.523 1.283s-4.664-51.6-3.105-58.244c2.617-11.148 4.389-17.662 7.844-27.854 1.903-5.594 12.953-7.829 12.953-7.829z" fill="#133835"/><path fill-rule="evenodd" clip-rule="evenodd" d="M674.64 349.056s-8.517-8.528-11.466-9.518c-2.95-.989-19.106-2.178-18.997.058.124 2.396 10.521 2.258 11.482 3.437.961 1.178 2.298 10.352 5.932 11.256 3.627.905 11.145 3.582 11.145 3.582l33.466 17.292-3.565-17.29-27.997-8.817z" fill="#F8AE9D"/><path fill-rule="evenodd" clip-rule="evenodd" d="M700.274 312.949c10.151 14.327 18.818 36.15 22.145 44.658 3.326 8.508-.03 21.342-14.658 18.822-1.742-.299-4.575-1.402-4.575-1.402-5.379-7.373-6.322-13.704-4.315-19.34l1.892.799s-14.54-25.772-18.09-32.681c-5.93-11.537 8.659-23.48 17.601-10.856z" fill="#133835"/><path d="m567.153 362.305 4.11-1.37a6.157 6.157 0 0 0 4.21-5.841v-.86a5.298 5.298 0 0 0-5.297-5.298h-5.298" stroke="#E1E4E5" stroke-width="4" stroke-linecap="round" stroke-linejoin="round"/><path fill-rule="evenodd" clip-rule="evenodd" d="M543.689 351.585v7.946c0 5.852 4.744 10.595 10.595 10.595h2.649c5.851 0 10.595-4.743 10.595-10.595v-7.946a2.649 2.649 0 0 0-2.649-2.649h-18.541a2.649 2.649 0 0 0-2.649 2.649z" fill="#fff" stroke="#E1E4E5" stroke-width="4" stroke-linecap="round" stroke-linejoin="round"/><defs><linearGradient id="a" x1="456.759" y1="674.749" x2="451.879" y2="-30.396" gradientUnits="userSpaceOnUse"><stop stop-color="#fff"/><stop offset="1" stop-color="#EEE"/></linearGradient></defs></svg>