<svg width="900" height="600" viewBox="0 0 900 600" fill="none" xmlns="http://www.w3.org/2000/svg"><path fill="transparent" d="M0 0h900v600H0z"/><path d="M333 231.752c-83.2 3.2-111 41-114.5 59.5l5 125.5c29.667-7.666 94.3-4.6 115.5 69 26.5 92 255-26.5 367.5 22 90 38.8 34-116 34-150l-222 14c371-28.5 262-266.3 160-291.5-102-25.2-170.5 31.834-192 63.5-16.5 28-70.3 84.8-153.5 88z" fill="url(#a)" stroke="#E1E4E5"/><rect x="690" y="425.752" width="96.32" height="96.32" rx="27.025" fill="#009688" stroke="#fff" stroke-width="13.513" stroke-linecap="round" stroke-linejoin="round"/><path d="M722.662 454.655a2.678 2.678 0 1 1-3.766 0 2.688 2.688 0 0 1 3.785 0m63.638 9.145a51.128 51.128 0 0 0-58.273 58.273" stroke="#fff" stroke-width="13.513" stroke-linecap="round" stroke-linejoin="round"/><rect x="310" y="309.752" width="76" height="76" rx="38" fill="#009688"/><path d="m360.489 341.109-16.608 16.476-9.965-9.885" stroke="#fff" stroke-width="6.307" stroke-linecap="round" stroke-linejoin="round"/><path fill-rule="evenodd" clip-rule="evenodd" d="M494.58 248.571c5.657-10.075 8.92-21.684 8.92-34.069 0-38.525-31.225-69.75-69.75-69.75S364 175.977 364 214.502c0 38.526 31.225 69.75 69.75 69.75 12.384 0 23.994-3.262 34.069-8.92l35.681 8.92-8.92-35.681z" fill="#009688"/><path fill-rule="evenodd" clip-rule="evenodd" d="M416.144 239.78h-8.646a3.498 3.498 0 0 1-3.498-3.497v-27.416a3.499 3.499 0 0 1 3.498-3.498h8.646c1.931 0 3.498 1.567 3.498 3.76v27.416c0 1.669-1.567 3.235-3.498 3.235zm3.498-7.416 6.771 5.616a7.819 7.819 0 0 0 4.994 1.8h22.758a5.845 5.845 0 0 0 5.621-4.241l4.989-17.456a5.85 5.85 0 0 0-.762-4.858l-1.59-2.371a5.839 5.839 0 0 0-4.858-2.591h-11.686l.033-10.652c.023-7.912-10.372-10.853-14.496-4.101l-11.774 19.275" fill="#fff"/><path fill-rule="evenodd" clip-rule="evenodd" d="m146.625 382.795 6.217 37.321c2.016 12.12-7.328 23.148-19.61 23.148-9.719 0-18.015-7.023-19.61-16.618l-7.31-43.851m60.469 0H96.234C79.536 382.795 66 369.259 66 352.561s13.536-30.234 30.234-30.234h70.547" fill="#009688"/><path d="M166.781 382.795H96.234C79.536 382.795 66 369.259 66 352.561v0c0-16.698 13.536-30.234 30.234-30.234h70.547" stroke="#009688" stroke-width="13.438" stroke-linecap="round" stroke-linejoin="round"/><path fill-rule="evenodd" clip-rule="evenodd" d="m166.781 322.327 44.801-29.867c6.701-4.462 15.668.34 15.668 8.394v103.424c0 8.053-8.967 12.846-15.668 8.385l-44.801-29.868" fill="#009688"/><path d="m166.781 322.327 44.801-29.867c6.701-4.462 15.668.34 15.668 8.394v103.424c0 8.053-8.967 12.846-15.668 8.385l-44.801-29.868" stroke="#009688" stroke-width="13.438" stroke-linecap="round" stroke-linejoin="round"/><path fill-rule="evenodd" clip-rule="evenodd" d="M166.781 382.778v-60.469 60.469z" fill="#009688"/><path d="M166.781 382.778v-60.469" stroke="#009688" stroke-width="13.438" stroke-linecap="round" stroke-linejoin="round"/><circle cx="508" cy="372.752" r="55" fill="#009688"/><path fill-rule="evenodd" clip-rule="evenodd" d="M518.202 353.252c8.334 0 13.923 7.823 13.923 15.107 0 14.787-23.202 26.893-23.625 26.893-.423 0-23.625-12.106-23.625-26.893 0-7.284 5.589-15.107 13.923-15.107 4.764 0 7.893 2.376 9.702 4.492 1.809-2.116 4.938-4.492 9.702-4.492zM638 297.752l-36-35.991v-.009h-27c-9.945 0-18-8.055-18-18v-90c0-9.945 8.055-18 18-18h126c9.945 0 18 8.055 18 18v90c0 9.945-8.055 18-18 18h-27l-36 35.991" fill="#fff"/><path d="M674 216.752h-72m0-36h72" stroke="#E1E4E5" stroke-width="13.5" stroke-linecap="round" stroke-linejoin="round"/><path fill-rule="evenodd" clip-rule="evenodd" d="M231.78 459.101h-2.794c-.676 0-1.22.55-1.22 1.22v2.794c0 .676.55 1.22 1.22 1.22h2.794c.67 0 1.22-.55 1.22-1.22v-2.794a1.217 1.217 0 0 0-1.22-1.22zm-9.69 0h-2.794c-.67 0-1.22.55-1.22 1.22v2.794c0 .676.55 1.22 1.22 1.22h2.794c.67 0 1.22-.55 1.22-1.22v-2.794c0-.67-.55-1.22-1.22-1.22zm-9.694 0h-2.794c-.67 0-1.22.55-1.22 1.22v2.794c0 .676.55 1.22 1.22 1.22h2.794c.67 0 1.22-.55 1.22-1.22v-2.794a1.218 1.218 0 0 0-1.22-1.22zm-9.688 0h-2.794c-.67 0-1.22.55-1.22 1.22v2.794c0 .676.55 1.22 1.22 1.22h2.794c.676 0 1.226-.55 1.226-1.22v-2.794a1.234 1.234 0 0 0-1.226-1.22zm-9.688 0h-2.795c-.675 0-1.225.55-1.225 1.22v2.794c0 .676.55 1.22 1.225 1.22h2.795c.67 0 1.219-.55 1.219-1.22v-2.794c0-.67-.549-1.22-1.219-1.22zm28.717 10.565h-2.794c-.67 0-1.219.55-1.219 1.22v2.8c0 .67.549 1.219 1.219 1.219h2.794a1.22 1.22 0 0 0 1.22-1.219v-2.794a1.218 1.218 0 0 0-1.22-1.226zm-9.69 0h-2.794c-.67 0-1.22.55-1.22 1.22v2.8c0 .67.55 1.219 1.22 1.219h2.794c.67 0 1.22-.549 1.22-1.219v-2.794a1.218 1.218 0 0 0-1.22-1.226zm-9.689 0h-2.795c-.675 0-1.225.55-1.225 1.22v2.8c0 .67.55 1.219 1.225 1.219h2.795c.67 0 1.219-.549 1.219-1.219v-2.794c0-.676-.549-1.226-1.219-1.226zm10.038-21.913h-2.794c-.67 0-1.22.549-1.22 1.219v2.794c0 .676.55 1.22 1.22 1.22h2.794c.67 0 1.22-.55 1.22-1.22v-2.794a1.217 1.217 0 0 0-1.22-1.219zm-9.688 0h-2.794c-.67 0-1.22.549-1.22 1.219v2.794c0 .676.55 1.22 1.22 1.22h2.794c.676 0 1.226-.55 1.226-1.22v-2.794a1.233 1.233 0 0 0-1.226-1.219z" fill="#E1E4E5"/><circle cx="735.533" cy="354.285" r="30.533" fill="#009688"/><rect x="733.32" y="343.665" width="4.425" height="21.24" rx="2.213" fill="#fff"/><rect x="746.153" y="352.073" width="4.425" height="21.24" rx="2.213" transform="rotate(90 746.153 352.073)" fill="#fff"/><circle cx="786.533" cy="145.285" r="30.533" fill="#009688"/><rect x="784.32" y="134.665" width="4.425" height="21.24" rx="2.213" fill="#fff"/><rect x="797.153" y="143.073" width="4.425" height="21.24" rx="2.213" transform="rotate(90 797.153 143.073)" fill="#fff"/><circle cx="813.5" cy="238.252" r="20.5" fill="#009688"/><rect x="812.014" y="231.122" width="2.971" height="14.261" rx="1.486" fill="#fff"/><rect x="820.63" y="236.767" width="2.971" height="14.261" rx="1.486" transform="rotate(90 820.63 236.767)" fill="#fff"/><circle cx="607.533" cy="495.285" r="30.533" fill="#009688"/><rect x="605.32" y="484.665" width="4.425" height="21.24" rx="2.213" fill="#fff"/><rect x="618.153" y="493.073" width="4.425" height="21.24" rx="2.213" transform="rotate(90 618.153 493.073)" fill="#fff"/><rect x="401" y="444.752" width="66" height="66" rx="33" fill="#009688"/><path fill-rule="evenodd" clip-rule="evenodd" d="M449.053 491.404v2.148a2.15 2.15 0 0 1-2.151 2.148h-25.804a2.15 2.15 0 0 1-2.151-2.148v-2.182c0-6.5 7.436-10.723 15.053-10.723 7.617 0 15.053 4.225 15.053 10.723m-9.816-29.939c3.052 2.939 3.052 7.704 0 10.643-3.052 2.94-8.001 2.94-11.053 0-3.052-2.939-3.052-7.704 0-10.643 3.052-2.94 8.001-2.94 11.053 0z" fill="#fff"/><rect x="601" y="333.752" width="66" height="66" rx="33" fill="#009688"/><path fill-rule="evenodd" clip-rule="evenodd" d="M649.053 380.404v2.148a2.15 2.15 0 0 1-2.151 2.148h-25.804a2.15 2.15 0 0 1-2.151-2.148v-2.182c0-6.5 7.436-10.723 15.053-10.723 7.617 0 15.053 4.225 15.053 10.723m-9.816-29.939c3.052 2.939 3.052 7.704 0 10.643-3.052 2.94-8.001 2.94-11.053 0-3.052-2.939-3.052-7.704 0-10.643 3.052-2.94 8.001-2.94 11.053 0z" fill="#fff"/><rect x="269" y="195.752" width="66" height="66" rx="33" fill="#009688"/><path fill-rule="evenodd" clip-rule="evenodd" d="M317.053 242.404v2.148a2.15 2.15 0 0 1-2.151 2.148h-25.804a2.15 2.15 0 0 1-2.151-2.148v-2.182c0-6.5 7.436-10.723 15.053-10.723 7.617 0 15.053 4.225 15.053 10.723m-9.816-29.939c3.052 2.939 3.052 7.704 0 10.643-3.052 2.94-8.001 2.94-11.053 0-3.052-2.939-3.052-7.704 0-10.643 3.052-2.94 8.001-2.94 11.053 0z" fill="#fff"/><defs><linearGradient id="a" x1="509.346" y1="773.035" x2="498.257" y2="-413.308" gradientUnits="userSpaceOnUse"><stop stop-color="#fff"/><stop offset="1" stop-color="#EEE"/></linearGradient></defs></svg>