<svg width="900" height="600" viewBox="0 0 900 600" fill="none" xmlns="http://www.w3.org/2000/svg"><path fill="transparent" d="M0 0h900v600H0z"/><circle cx="543.444" cy="113.456" r="48.548" fill="#fff" stroke="#E1E4E5" stroke-width="4"/><circle cx="593.992" cy="113.456" r="48.548" fill="#fff" stroke="#E1E4E5" stroke-width="4"/><circle cx="641.528" cy="113.456" r="48.548" fill="#fff" stroke="#E1E4E5" stroke-width="4"/><circle cx="692.076" cy="113.456" r="48.548" fill="#fff" stroke="#E1E4E5" stroke-width="4"/><path d="M654.196 338.481c-2.539 64.426-140.095 182.998-290.029 120.254-69.733-29.184-60.152-65.856-110.17-120.069-29.814-32.312-74.52-58.826-83.54-102.572-7.794-37.76 2.803-76.564 24.7-100.396 49.245-53.595 141.435-84.806 220.078 14.306s245.492 22.317 238.961 188.477z" fill="url(#a)"/><rect x="259.429" y="181.383" width="329.874" height="223.013" rx="40" fill="#009688"/><path d="M475.765 287.113c4 2.309 4 8.083 0 10.392l-71.728 41.412c-4 2.31-9-.577-9-5.196v-82.824c0-4.619 5-7.506 9-5.196l71.728 41.412z" fill="#fff"/><path d="M568.647 514.252s-26.001-34.958-46.948-43.777c-20.725-8.724-78.384-20.439-115.696-49.54a1.897 1.897 0 0 1-.537-2.362c1.484-2.866 6.381-8.503 21.389-3.811 19.524 6.142 34.595 10.456 34.595 10.456s-44.611-76.184-55.163-97.726c-2.085-4.251-3.286-7.905-3.854-11.086-1.77-9.92 11.689-14.802 16.902-6.172l30.52 50.484s-.285-6.708 5.086-9.385c5.087-2.519 14.976 2.268 19.304 10.456 0 0 .316-7.558 8.025-8.881 7.709-1.323 15.26 6.551 18.135 11.117 0 0-1.264-7.275 4.012-9.826s15.671 4.094 18.135 7.086c2.464 2.992 27.266 24.219 47.865 70.61l55.384 34.864s2.464 24.597-57.154 47.493z" fill="#F8AE9D"/><circle cx="120.846" cy="492.311" r="63.846" fill="#fff" stroke="#E1E4E5" stroke-width="4"/><circle cx="186.692" cy="492.311" r="63.846" fill="#fff" stroke="#E1E4E5" stroke-width="4"/><circle cx="251.659" cy="492.311" r="64.346" fill="#009688" stroke="#009688" stroke-width="3"/><path d="M271.336 488.057c4 2.31 4 8.083 0 10.393l-24.686 14.252c-4 2.309-9-.577-9-5.196v-28.505c0-4.619 5-7.506 9-5.196l24.686 14.252z" fill="#fff"/><path d="M634.279 338.189c0-4.287 1.603-8.619 4.861-12.714l-1.565-1.245 1.565 1.245c17.445-21.929 56.462-36.393 99.999-36.393 43.538 0 82.555 14.464 100 36.393 3.258 4.095 4.861 8.427 4.861 12.714 0 4.287-1.603 8.62-4.861 12.715-17.445 21.929-56.462 36.393-100 36.393-43.537 0-82.554-14.464-99.999-36.393l-1.565 1.245 1.565-1.245c-3.258-4.095-4.861-8.428-4.861-12.715z" fill="#fff" stroke="#E1E4E5" stroke-width="4"/><mask id="b" fill="#fff"><path fill-rule="evenodd" clip-rule="evenodd" d="M775.289 302.062c19.944 19.939 19.944 52.308 0 72.28-19.944 19.939-52.321 19.939-72.299 0-19.944-19.938-19.944-52.307 0-72.28 19.978-19.973 52.338-19.973 72.299 0z"/></mask><path fill-rule="evenodd" clip-rule="evenodd" d="M775.289 302.062c19.944 19.939 19.944 52.308 0 72.28-19.944 19.939-52.321 19.939-72.299 0-19.944-19.938-19.944-52.307 0-72.28 19.978-19.973 52.338-19.973 72.299 0z" fill="#fff"/><path d="m775.289 374.342 2.828 2.829.002-.002-2.83-2.827zm-72.299 0-2.828 2.829.003.003 2.825-2.832zm0-72.28-2.828-2.829-.002.003 2.83 2.826zm69.471 2.829c18.38 18.375 18.383 48.212-.003 66.625l5.661 5.653c21.502-21.533 21.506-56.433-.002-77.936l-5.656 5.658zm0 66.623c-18.381 18.376-48.227 18.379-66.645-.003l-5.651 5.663c21.538 21.496 56.445 21.499 77.952-.003l-5.656-5.657zm-66.643 0c-18.38-18.376-18.383-48.213.003-66.626l-5.661-5.652c-21.502 21.533-21.506 56.433.002 77.935l5.656-5.657zm0-66.623c18.417-18.412 48.244-18.411 66.642-.001l5.658-5.656c-21.524-21.536-56.417-21.535-77.956-.001l5.656 5.658z" fill="#E1E4E5" mask="url(#b)"/><path fill-rule="evenodd" clip-rule="evenodd" d="M768.565 338.964a28.653 28.653 0 0 1-8.391 20.26 28.653 28.653 0 0 1-48.911-20.26 28.652 28.652 0 1 1 57.302 0z" fill="#009688"/><ellipse cx="732.945" cy="328.123" rx="9.292" ry="10.067" fill="#fff"/><path fill-rule="evenodd" clip-rule="evenodd" d="M213.681 359.049h-3.688a1.61 1.61 0 0 1-1.61-1.61v-3.688c0-.892.725-1.61 1.61-1.61h3.688c.884 0 1.61.726 1.61 1.61v3.688a1.606 1.606 0 0 1-1.61 1.61zm-12.788 0h-3.689a1.615 1.615 0 0 1-1.609-1.61v-3.688c0-.892.725-1.61 1.609-1.61h3.689c.884 0 1.61.726 1.61 1.61v3.688c0 .885-.726 1.61-1.61 1.61zm-12.796 0h-3.688c-.885 0-1.61-.725-1.61-1.61v-3.688c0-.892.725-1.61 1.61-1.61h3.688c.884 0 1.61.726 1.61 1.61v3.688a1.606 1.606 0 0 1-1.61 1.61zm-12.788 0h-3.689c-.884 0-1.61-.725-1.61-1.61v-3.688c0-.892.726-1.61 1.61-1.61h3.689c.892 0 1.617.726 1.617 1.61v3.688a1.627 1.627 0 0 1-1.617 1.61zm-12.789 0h-3.688a1.618 1.618 0 0 1-1.618-1.61v-3.688c0-.892.726-1.61 1.618-1.61h3.688c.884 0 1.61.726 1.61 1.61v3.688c0 .885-.726 1.61-1.61 1.61zm37.904-13.944h-3.688c-.885 0-1.61-.725-1.61-1.61v-3.696c0-.884.725-1.61 1.61-1.61h3.688c.892 0 1.61.726 1.61 1.61v3.689a1.608 1.608 0 0 1-1.61 1.617zm-12.788 0h-3.689c-.884 0-1.61-.725-1.61-1.61v-3.696c0-.884.726-1.61 1.61-1.61h3.689c.884 0 1.61.726 1.61 1.61v3.689a1.609 1.609 0 0 1-1.61 1.617zm-12.788 0h-3.689a1.617 1.617 0 0 1-1.617-1.61v-3.696c0-.884.725-1.61 1.617-1.61h3.689c.884 0 1.609.726 1.609 1.61v3.689c0 .892-.725 1.617-1.609 1.617zm13.249 28.925h-3.688c-.885 0-1.61-.726-1.61-1.61v-3.688c0-.892.725-1.61 1.61-1.61h3.688c.884 0 1.61.725 1.61 1.61v3.688a1.607 1.607 0 0 1-1.61 1.61zm-12.788 0h-3.689c-.884 0-1.61-.726-1.61-1.61v-3.688c0-.892.726-1.61 1.61-1.61h3.689c.892 0 1.617.725 1.617 1.61v3.688a1.627 1.627 0 0 1-1.617 1.61zm563.382 97.687h-3.688a1.61 1.61 0 0 1-1.61-1.609v-3.689c0-.892.725-1.61 1.61-1.61h3.688c.884 0 1.61.726 1.61 1.61v3.689a1.606 1.606 0 0 1-1.61 1.609zm-12.788 0h-3.688c-.885 0-1.61-.725-1.61-1.609v-3.689c0-.892.725-1.61 1.61-1.61h3.688c.884 0 1.61.726 1.61 1.61v3.689c0 .884-.726 1.609-1.61 1.609zm-12.796 0h-3.688c-.884 0-1.61-.725-1.61-1.609v-3.689c0-.892.726-1.61 1.61-1.61h3.688c.885 0 1.61.726 1.61 1.61v3.689a1.606 1.606 0 0 1-1.61 1.609zm-12.788 0h-3.688c-.885 0-1.61-.725-1.61-1.609v-3.689c0-.892.725-1.61 1.61-1.61h3.688c.892 0 1.617.726 1.617 1.61v3.689a1.626 1.626 0 0 1-1.617 1.609zm-12.789 0h-3.688a1.617 1.617 0 0 1-1.617-1.609v-3.689c0-.892.725-1.61 1.617-1.61h3.688c.885 0 1.61.726 1.61 1.61v3.689c0 .884-.725 1.609-1.61 1.609zm37.904-13.944h-3.688c-.884 0-1.61-.725-1.61-1.61v-3.695c0-.885.726-1.61 1.61-1.61h3.688c.892 0 1.61.725 1.61 1.61v3.688a1.607 1.607 0 0 1-1.61 1.617zm-12.788 0h-3.688c-.885 0-1.61-.725-1.61-1.61v-3.695c0-.885.725-1.61 1.61-1.61h3.688c.884 0 1.61.725 1.61 1.61v3.688a1.608 1.608 0 0 1-1.61 1.617zm-12.788 0h-3.689a1.618 1.618 0 0 1-1.617-1.61v-3.695c0-.885.726-1.61 1.617-1.61h3.689c.884 0 1.61.725 1.61 1.61v3.688c0 .892-.726 1.617-1.61 1.617zm13.249 28.925h-3.688c-.884 0-1.61-.726-1.61-1.61V481.4c0-.892.726-1.61 1.61-1.61h3.688c.885 0 1.61.726 1.61 1.61v3.688a1.606 1.606 0 0 1-1.61 1.61zm-12.788 0h-3.688c-.885 0-1.61-.726-1.61-1.61V481.4c0-.892.725-1.61 1.61-1.61h3.688c.892 0 1.617.726 1.617 1.61v3.688a1.627 1.627 0 0 1-1.617 1.61zm-276.402 31.48h-3.688a1.61 1.61 0 0 1-1.61-1.609v-3.689c0-.892.726-1.61 1.61-1.61h3.688c.885 0 1.61.726 1.61 1.61v3.689a1.606 1.606 0 0 1-1.61 1.609zm-12.788 0h-3.688c-.884 0-1.61-.725-1.61-1.609v-3.689c0-.892.726-1.61 1.61-1.61h3.688c.885 0 1.61.726 1.61 1.61v3.689c0 .884-.725 1.609-1.61 1.609zm-12.796 0h-3.688c-.884 0-1.61-.725-1.61-1.609v-3.689c0-.892.726-1.61 1.61-1.61h3.688c.885 0 1.61.726 1.61 1.61v3.689a1.606 1.606 0 0 1-1.61 1.609zm-12.788 0h-3.688c-.885 0-1.61-.725-1.61-1.609v-3.689c0-.892.725-1.61 1.61-1.61h3.688c.892 0 1.618.726 1.618 1.61v3.689a1.628 1.628 0 0 1-1.618 1.609zm-12.788 0h-3.689a1.617 1.617 0 0 1-1.617-1.609v-3.689c0-.892.725-1.61 1.617-1.61h3.689c.884 0 1.609.726 1.609 1.61v3.689c0 .884-.725 1.609-1.609 1.609zm37.903-13.944h-3.688c-.884 0-1.61-.725-1.61-1.61v-3.695c0-.885.726-1.61 1.61-1.61h3.688c.892 0 1.61.725 1.61 1.61v3.688a1.607 1.607 0 0 1-1.61 1.617zm-12.788 0h-3.688c-.885 0-1.61-.725-1.61-1.61v-3.695c0-.885.725-1.61 1.61-1.61h3.688c.884 0 1.61.725 1.61 1.61v3.688a1.608 1.608 0 0 1-1.61 1.617zm-12.788 0h-3.688a1.618 1.618 0 0 1-1.618-1.61v-3.695c0-.885.726-1.61 1.618-1.61h3.688c.884 0 1.61.725 1.61 1.61v3.688c0 .892-.726 1.617-1.61 1.617zm13.249 28.925h-3.688c-.884 0-1.61-.725-1.61-1.61v-3.688c0-.892.726-1.61 1.61-1.61h3.688c.885 0 1.61.726 1.61 1.61v3.688a1.606 1.606 0 0 1-1.61 1.61zm-12.788 0h-3.688c-.885 0-1.61-.725-1.61-1.61v-3.688c0-.892.725-1.61 1.61-1.61h3.688c.892 0 1.618.726 1.618 1.61v3.688a1.628 1.628 0 0 1-1.618 1.61z" fill="#E1E4E5"/><defs><linearGradient id="a" x1="468.341" y1="708.64" x2="333.219" y2="-370.972" gradientUnits="userSpaceOnUse"><stop stop-color="#fff"/><stop offset="1" stop-color="#EEE"/></linearGradient></defs></svg>