<svg width="900" height="600" viewBox="0 0 900 600" fill="none" xmlns="http://www.w3.org/2000/svg"><path fill="transparent" d="M0 0h900v600H0z"/><rect x="149.155" y="71.498" width="623.95" height="465.571" rx="4" fill="#fff" stroke="#E1E4E5" stroke-width="4"/><rect x="337.296" y="161.848" width="187.813" height="187.813" rx="61.151" fill="#009688"/><path fill="#009688" d="m431.648 330.969 18.453 18.453-18.453 18.452-18.453-18.452z"/><circle cx="384.472" cy="231.277" r="24.033" fill="#fff"/><rect x="419.186" y="220.596" width="81" height="7.121" rx="3.56" fill="#fff"/><rect x="360.439" y="269.552" width="139.747" height="7.121" rx="3.56" fill="#fff"/><rect x="419.186" y="240.178" width="81" height="7.121" rx="3.56" fill="#fff"/><rect x="360.439" y="289.134" width="139.747" height="7.121" rx="3.56" fill="#fff"/><rect x="560.515" y="276.647" width="187.813" height="187.813" rx="61.151" fill="#009688"/><path fill="#009688" d="m654.866 445.768 18.453 18.453-18.453 18.452-18.453-18.452z"/><circle cx="607.691" cy="346.075" r="24.033" fill="#fff"/><rect x="642.405" y="335.394" width="81" height="7.121" rx="3.56" fill="#fff"/><rect x="583.658" y="384.35" width="139.747" height="7.121" rx="3.56" fill="#fff"/><rect x="642.405" y="354.976" width="81" height="7.121" rx="3.56" fill="#fff"/><rect x="583.658" y="403.932" width="139.747" height="7.121" rx="3.56" fill="#fff"/><path fill-rule="evenodd" clip-rule="evenodd" d="M814.583 465.869v4.217h4.213a3.219 3.219 0 0 1 3.204 3.206 3.219 3.219 0 0 1-3.204 3.206h-4.213v4.217a3.219 3.219 0 0 1-3.204 3.206 3.218 3.218 0 0 1-3.203-3.206v-4.199h-4.231a3.22 3.22 0 0 1-3.204-3.207 3.219 3.219 0 0 1 3.204-3.206h4.213v-4.234c0-1.76 1.445-3.207 3.221-3.207a3.22 3.22 0 0 1 3.204 3.207zm-35.226-29.543v5.903h6.109c2.55 0 4.646 2.025 4.646 4.489s-2.096 4.489-4.646 4.489h-6.109v5.904c0 2.464-2.096 4.488-4.646 4.488-2.549 0-4.645-2.024-4.645-4.488v-5.88h-6.135c-2.549 0-4.645-2.024-4.645-4.488 0-2.464 2.096-4.489 4.645-4.489h6.11v-5.928c0-2.464 2.095-4.489 4.67-4.489 2.55 0 4.646 2.025 4.646 4.489z" fill="#E1E4E5"/><rect x="149.155" y="71.498" width="161.568" height="465.571" rx="4" fill="#fff" stroke="#E1E4E5" stroke-width="4"/><rect x="337.296" y="95.946" width="139.246" height="19.133" rx="4" fill="#fff" stroke="#E1E4E5" stroke-width="4"/><rect x="337.296" y="124.645" width="43.581" height="19.133" rx="4" fill="#fff" stroke="#E1E4E5" stroke-width="4"/><rect x="390.443" y="124.645" width="86.099" height="19.133" rx="4" fill="#fff" stroke="#E1E4E5" stroke-width="4"/><rect x="662.558" y="124.645" width="86.099" height="19.133" rx="4" fill="#fff" stroke="#E1E4E5" stroke-width="4"/><rect x="337.296" y="496.677" width="411.361" height="19.133" rx="4" fill="#fff" stroke="#E1E4E5" stroke-width="4"/><rect x="167.225" y="197.989" width="125.428" height="19.133" rx="4" fill="#fff" stroke="#E1E4E5" stroke-width="4"/><rect x="167.225" y="95.946" width="125.428" height="47.833" rx="4" fill="#fff" stroke="#E1E4E5" stroke-width="4"/><rect x="167.225" y="326.605" width="125.428" height="19.133" rx="4" fill="#fff" stroke="#E1E4E5" stroke-width="4"/><rect x="167.225" y="226.688" width="25.511" height="19.133" rx="4" fill="#fff" stroke="#E1E4E5" stroke-width="4"/><rect x="167.225" y="355.305" width="25.511" height="19.133" rx="4" fill="#fff" stroke="#E1E4E5" stroke-width="4"/><rect x="167.225" y="255.388" width="25.511" height="19.133" rx="4" fill="#fff" stroke="#E1E4E5" stroke-width="4"/><rect x="167.225" y="384.004" width="25.511" height="19.133" rx="4" fill="#fff" stroke="#E1E4E5" stroke-width="4"/><rect x="167.225" y="284.087" width="25.511" height="19.133" rx="4" fill="#fff" stroke="#E1E4E5" stroke-width="4"/><rect x="167.225" y="412.704" width="25.511" height="19.133" rx="4" fill="#fff" stroke="#E1E4E5" stroke-width="4"/><rect x="204.428" y="226.688" width="88.225" height="19.133" rx="4" fill="#fff" stroke="#E1E4E5" stroke-width="4"/><rect x="204.428" y="355.305" width="88.225" height="19.133" rx="4" fill="#fff" stroke="#E1E4E5" stroke-width="4"/><rect x="204.428" y="226.688" width="88.225" height="19.133" rx="4" fill="#fff" stroke="#E1E4E5" stroke-width="4"/><rect x="204.428" y="355.305" width="88.225" height="19.133" rx="4" fill="#fff" stroke="#E1E4E5" stroke-width="4"/><rect x="204.428" y="255.388" width="88.225" height="19.133" rx="4" fill="#fff" stroke="#E1E4E5" stroke-width="4"/><rect x="204.428" y="384.004" width="88.225" height="19.133" rx="4" fill="#fff" stroke="#E1E4E5" stroke-width="4"/><rect x="204.428" y="284.087" width="88.225" height="19.133" rx="4" fill="#fff" stroke="#E1E4E5" stroke-width="4"/><rect x="204.428" y="412.704" width="88.225" height="19.133" rx="4" fill="#fff" stroke="#E1E4E5" stroke-width="4"/><path fill-rule="evenodd" clip-rule="evenodd" d="M331.535 467.785c6.013-10.709 9.481-23.05 9.481-36.214 0-40.95-33.19-74.14-74.14-74.14s-74.141 33.19-74.141 74.14 33.191 74.141 74.141 74.141c13.164 0 25.504-3.468 36.213-9.482l37.927 9.482-9.481-37.927z" fill="#009688"/><path fill-rule="evenodd" clip-rule="evenodd" d="M248.161 458.44h-9.19a3.719 3.719 0 0 1-3.718-3.718v-29.141a3.719 3.719 0 0 1 3.718-3.718h9.19c2.053 0 3.718 1.665 3.718 3.996v29.142c0 1.774-1.665 3.439-3.718 3.439zm3.718-7.883 7.198 5.97a8.314 8.314 0 0 0 5.308 1.913h24.191a6.213 6.213 0 0 0 5.975-4.508l5.303-18.555a6.223 6.223 0 0 0-.81-5.164l-1.69-2.52a6.208 6.208 0 0 0-5.164-2.754h-12.421l.034-11.322c.025-8.41-11.024-11.537-15.408-4.359l-12.516 20.488" fill="#fff"/><circle r="20.049" transform="matrix(-1 0 0 1 179.416 155.419)" fill="#E1E4E5"/><circle r="13.895" transform="matrix(-1 0 0 1 640.219 114.623)" fill="#E1E4E5"/><circle r="25.628" transform="scale(1 -1) rotate(-75 -248.474 -347.979)" fill="#E1E4E5"/><circle r="17.52" transform="scale(1 -1) rotate(-75 -22.452 -591.75)" fill="#E1E4E5"/><path d="M468.236 454.065h.201c1.19 17.516 13.734 17.786 13.734 17.786s-13.832.28-13.832 20.519c0-20.239-13.833-20.519-13.833-20.519s12.539-.27 13.73-17.786zm228.247-256.076h.201c1.191 17.516 13.735 17.785 13.735 17.785s-13.833.281-13.833 20.52c0-20.239-13.832-20.52-13.832-20.52s12.539-.269 13.729-17.785zM92.73 61.931h.2c1.19 17.516 13.735 17.786 13.735 17.786s-13.833.28-13.833 20.52c0-20.24-13.832-20.52-13.832-20.52s12.539-.27 13.73-17.786z" fill="#E1E4E5"/></svg>