<svg width="900" height="600" viewBox="0 0 900 600" fill="none" xmlns="http://www.w3.org/2000/svg"><path fill="transparent" d="M0 0h900v600H0z"/><path d="M425.419 46.472a53.597 53.597 0 0 1 53.597 0l169.452 97.833a53.597 53.597 0 0 1 26.798 46.417v195.665a53.597 53.597 0 0 1-26.798 46.417l-169.452 97.833a53.598 53.598 0 0 1-53.597 0l-169.451-97.833a53.595 53.595 0 0 1-26.799-46.417V190.722a53.595 53.595 0 0 1 26.799-46.417l169.451-97.833z" fill="#009688"/><path d="M558.113 334.367v98.574H418.452V418.15c0-13.762-12.991-18.717-43.699-16.638-24.566 1.664-32.282-8.021-33.07-13.072v-63.284l-22.145-7.427c1.673-42.387 17.657-133.519 68.207-158.951 63.187-31.791 120.848-17.382 158.853 39.515 28.033 41.968 18.208 104.482 11.515 136.074z" fill="#fff"/><circle cx="389.78" cy="263.189" r="11.707" fill="#009688"/><path fill-rule="evenodd" clip-rule="evenodd" d="M170.547 307.627h-4.673c-1.13 0-2.04-.92-2.04-2.04v-4.674a2.04 2.04 0 0 1 2.04-2.039h4.673c1.12 0 2.04.919 2.04 2.039v4.674a2.036 2.036 0 0 1-2.04 2.04zm-16.203 0h-4.673c-1.121 0-2.04-.92-2.04-2.04v-4.674a2.04 2.04 0 0 1 2.04-2.039h4.673c1.12 0 2.04.919 2.04 2.039v4.674c0 1.12-.92 2.04-2.04 2.04zm-16.213 0h-4.674c-1.12 0-2.04-.92-2.04-2.04v-4.674c0-1.13.92-2.039 2.04-2.039h4.674c1.12 0 2.04.919 2.04 2.039v4.674a2.036 2.036 0 0 1-2.04 2.04zm-16.204 0h-4.674c-1.12 0-2.039-.92-2.039-2.04v-4.674a2.04 2.04 0 0 1 2.039-2.039h4.674c1.13 0 2.049.919 2.049 2.039v4.674a2.062 2.062 0 0 1-2.049 2.04zm-16.204 0h-4.674a2.05 2.05 0 0 1-2.049-2.04v-4.674c0-1.13.92-2.039 2.049-2.039h4.674c1.12 0 2.04.919 2.04 2.039v4.674c0 1.12-.92 2.04-2.04 2.04zm48.027-17.669h-4.674c-1.12 0-2.04-.919-2.04-2.039v-4.683c0-1.121.92-2.04 2.04-2.04h4.674c1.13 0 2.04.919 2.04 2.04v4.673a2.038 2.038 0 0 1-2.04 2.049zm-16.204 0h-4.673a2.047 2.047 0 0 1-2.04-2.039v-4.683c0-1.121.919-2.04 2.04-2.04h4.673c1.121 0 2.04.919 2.04 2.04v4.673a2.037 2.037 0 0 1-2.04 2.049zm-16.204 0h-4.673a2.049 2.049 0 0 1-2.049-2.039v-4.683a2.05 2.05 0 0 1 2.049-2.04h4.673c1.121 0 2.04.919 2.04 2.04v4.673a2.05 2.05 0 0 1-2.04 2.049zm16.789 36.65h-4.674c-1.12 0-2.04-.919-2.04-2.04v-4.673c0-1.13.92-2.04 2.04-2.04h4.674c1.12 0 2.04.92 2.04 2.04v4.673a2.036 2.036 0 0 1-2.04 2.04zm-16.204 0h-4.674a2.047 2.047 0 0 1-2.039-2.04v-4.673c0-1.13.919-2.04 2.039-2.04h4.674c1.13 0 2.049.92 2.049 2.04v4.673a2.062 2.062 0 0 1-2.049 2.04zm195.794 223.856h-4.673c-1.13 0-2.04-.92-2.04-2.04v-4.673a2.04 2.04 0 0 1 2.04-2.04h4.673c1.121 0 2.04.919 2.04 2.04v4.673c.01 1.12-.91 2.04-2.04 2.04zm-16.203 0h-4.673c-1.121 0-2.04-.92-2.04-2.04v-4.673a2.04 2.04 0 0 1 2.04-2.04h4.673c1.12 0 2.04.919 2.04 2.04v4.673c0 1.12-.92 2.04-2.04 2.04zm-16.213 0h-4.674c-1.12 0-2.039-.92-2.039-2.04v-4.673a2.04 2.04 0 0 1 2.039-2.04h4.674c1.12 0 2.04.919 2.04 2.04v4.673a2.036 2.036 0 0 1-2.04 2.04zm-16.204 0h-4.673c-1.121 0-2.04-.92-2.04-2.04v-4.673a2.04 2.04 0 0 1 2.04-2.04h4.673a2.05 2.05 0 0 1 2.049 2.04v4.673a2.062 2.062 0 0 1-2.049 2.04zm-16.204 0h-4.674a2.05 2.05 0 0 1-2.049-2.04v-4.673c0-1.131.919-2.04 2.049-2.04h4.674c1.12 0 2.04.919 2.04 2.04v4.673c0 1.12-.92 2.04-2.04 2.04zm48.027-17.668h-4.674c-1.12 0-2.04-.92-2.04-2.04v-4.683c0-1.121.92-2.04 2.04-2.04h4.674a2.04 2.04 0 0 1 2.039 2.04v4.673a2.037 2.037 0 0 1-2.039 2.05zm-16.204 0h-4.673c-1.121 0-2.04-.92-2.04-2.04v-4.683c0-1.121.919-2.04 2.04-2.04h4.673c1.121 0 2.04.919 2.04 2.04v4.673a2.039 2.039 0 0 1-2.04 2.05zm-16.203 0h-4.674a2.05 2.05 0 0 1-2.049-2.04v-4.683a2.05 2.05 0 0 1 2.049-2.04h4.674c1.12 0 2.04.919 2.04 2.04v4.673c0 1.13-.92 2.05-2.04 2.05zm16.788 36.649h-4.674a2.047 2.047 0 0 1-2.039-2.039v-4.674c0-1.13.919-2.04 2.039-2.04h4.674c1.12 0 2.04.92 2.04 2.04v4.674a2.036 2.036 0 0 1-2.04 2.039zm-16.204 0h-4.673a2.047 2.047 0 0 1-2.04-2.039v-4.674c0-1.13.919-2.04 2.04-2.04h4.673c1.13 0 2.049.92 2.049 2.04v4.674a2.061 2.061 0 0 1-2.049 2.039zm367.988-18.981h-4.674c-1.13 0-2.04-.92-2.04-2.04v-4.673c0-1.131.92-2.04 2.04-2.04h4.674c1.12 0 2.04.919 2.04 2.04v4.673a2.036 2.036 0 0 1-2.04 2.04zm-16.203 0h-4.674c-1.12 0-2.04-.92-2.04-2.04v-4.673c0-1.131.92-2.04 2.04-2.04h4.674c1.12 0 2.039.919 2.039 2.04v4.673c0 1.12-.919 2.04-2.039 2.04zm-16.214 0h-4.673c-1.12 0-2.04-.92-2.04-2.04v-4.673c0-1.131.92-2.04 2.04-2.04h4.673c1.121 0 2.04.919 2.04 2.04v4.673c.01 1.12-.91 2.04-2.04 2.04zm-16.203 0h-4.674c-1.12 0-2.04-.92-2.04-2.04v-4.673c0-1.131.92-2.04 2.04-2.04h4.674a2.05 2.05 0 0 1 2.049 2.04v4.673a2.063 2.063 0 0 1-2.049 2.04zm-16.204 0h-4.674a2.05 2.05 0 0 1-2.049-2.04v-4.673c0-1.131.919-2.04 2.049-2.04h4.674c1.12 0 2.039.919 2.039 2.04v4.673c0 1.12-.919 2.04-2.039 2.04zm48.026-17.668h-4.673c-1.121 0-2.04-.92-2.04-2.04v-4.683c0-1.121.919-2.04 2.04-2.04h4.673c1.13 0 2.04.919 2.04 2.04v4.673c.01 1.13-.91 2.05-2.04 2.05zm-16.203 0h-4.674c-1.12 0-2.039-.92-2.039-2.04v-4.683c0-1.121.919-2.04 2.039-2.04h4.674c1.12 0 2.04.919 2.04 2.04v4.673a2.039 2.039 0 0 1-2.04 2.05zm-16.204 0h-4.673a2.05 2.05 0 0 1-2.05-2.04v-4.683c0-1.121.92-2.04 2.05-2.04h4.673c1.121 0 2.04.919 2.04 2.04v4.673a2.05 2.05 0 0 1-2.04 2.05zm16.788 36.649h-4.673c-1.12 0-2.04-.919-2.04-2.039v-4.674c0-1.13.92-2.04 2.04-2.04h4.673c1.121 0 2.04.92 2.04 2.04v4.674a2.035 2.035 0 0 1-2.04 2.039zm-16.203 0h-4.674c-1.12 0-2.04-.919-2.04-2.039v-4.674c0-1.13.92-2.04 2.04-2.04h4.674c1.13 0 2.049.92 2.049 2.04v4.674a2.062 2.062 0 0 1-2.049 2.039zM798.98 307.627h-4.673c-1.13 0-2.04-.92-2.04-2.04v-4.674a2.04 2.04 0 0 1 2.04-2.039h4.673c1.121 0 2.04.919 2.04 2.039v4.674a2.036 2.036 0 0 1-2.04 2.04zm-16.203 0h-4.673c-1.121 0-2.04-.92-2.04-2.04v-4.674a2.04 2.04 0 0 1 2.04-2.039h4.673c1.12 0 2.04.919 2.04 2.039v4.674c0 1.12-.92 2.04-2.04 2.04zm-16.213 0h-4.674c-1.12 0-2.039-.92-2.039-2.04v-4.674a2.04 2.04 0 0 1 2.039-2.039h4.674c1.12 0 2.04.919 2.04 2.039v4.674a2.036 2.036 0 0 1-2.04 2.04zm-16.204 0h-4.674c-1.12 0-2.04-.92-2.04-2.04v-4.674c0-1.13.92-2.039 2.04-2.039h4.674c1.13 0 2.049.919 2.049 2.039v4.674a2.062 2.062 0 0 1-2.049 2.04zm-16.204 0h-4.673a2.05 2.05 0 0 1-2.05-2.04v-4.674c0-1.13.919-2.039 2.05-2.039h4.673c1.12 0 2.04.919 2.04 2.039v4.674c0 1.12-.92 2.04-2.04 2.04zm48.027-17.669h-4.674c-1.12 0-2.04-.919-2.04-2.039v-4.683c0-1.121.92-2.04 2.04-2.04h4.674c1.13 0 2.04.919 2.04 2.04v4.673a2.038 2.038 0 0 1-2.04 2.049zm-16.204 0h-4.673a2.047 2.047 0 0 1-2.04-2.039v-4.683c0-1.121.919-2.04 2.04-2.04h4.673c1.121 0 2.04.919 2.04 2.04v4.673a2.038 2.038 0 0 1-2.04 2.049zm-16.203 0h-4.674a2.049 2.049 0 0 1-2.049-2.039v-4.683a2.05 2.05 0 0 1 2.049-2.04h4.674c1.12 0 2.039.919 2.039 2.04v4.673c0 1.13-.919 2.049-2.039 2.049zm16.788 36.65h-4.674a2.047 2.047 0 0 1-2.039-2.04v-4.673c0-1.13.919-2.04 2.039-2.04h4.674c1.12 0 2.04.92 2.04 2.04v4.673a2.036 2.036 0 0 1-2.04 2.04zm-16.204 0h-4.674c-1.12 0-2.04-.919-2.04-2.04v-4.673c0-1.13.92-2.04 2.04-2.04h4.674c1.13 0 2.049.92 2.049 2.04v4.673a2.062 2.062 0 0 1-2.049 2.04z" fill="#E1E4E5"/></svg>