<svg width="900" height="600" viewBox="0 0 900 600" fill="none" xmlns="http://www.w3.org/2000/svg"><path fill="transparent" d="M0 0h900v600H0z"/><ellipse cx="397.676" cy="346.406" rx="200.239" ry="200.8" fill="url(#a)"/><path d="M739.793 235.575c-14.165 25.28-45.187 28.753-94.887 23.949-37.377-3.619-71.463-6.42-108.843-26.801-26.164-14.254-46.875-33.541-61.991-52.272-16.38-20.293-39.243-43.452-28.035-66.46 15.403-31.606 104.476-58.225 190.969-14.694 95.012 47.833 116.643 111.571 102.787 136.278z" fill="url(#b)"/><path d="M835.545 288.427c-26.684 13.237-62.102-3.783-62.102-3.783s7.872-38.475 34.57-51.693c26.685-13.237 62.088 3.765 62.088 3.765s-7.871 38.474-34.556 51.711z" fill="url(#c)"/><path d="M77.565 385.17c34.867 20.897 84.889 1.579 84.889 1.579s-6.54-53.19-41.428-74.064c-34.867-20.896-84.868-1.603-84.868-1.603s6.54 53.191 41.407 74.088z" fill="url(#d)"/><circle cx="783.04" cy="199.727" r="14.57" transform="rotate(180 783.04 199.727)" fill="#009688"/><circle cx="234.256" cy="282.259" r="16.392" transform="rotate(180 234.256 282.259)" fill="#009688"/><circle r="13.66" transform="matrix(-1 0 0 1 124.441 185.914)" fill="#009688"/><circle r="6.375" transform="matrix(-1 0 0 1 658.081 256.945)" fill="#009688"/><circle r="8.196" transform="matrix(-1 0 0 1 694.87 541.383)" fill="#E1E4E5"/><circle r="11.838" transform="matrix(-1 0 0 1 121.998 456.282)" fill="#E1E4E5"/><circle r="9.01" transform="matrix(-1 0 0 1 258.903 153.799)" fill="#E1E4E5"/><circle r="10.017" transform="matrix(-1 0 0 1 696.344 155.47)" fill="#E1E4E5"/><circle r="8.995" transform="scale(1 -1) rotate(-75 -100.818 -231.745)" fill="#E1E4E5"/><circle r="11.967" transform="matrix(-1 0 0 1 377.544 78.21)" fill="#E1E4E5"/><ellipse rx="9.205" ry="7.364" transform="matrix(-1 0 0 1 759.165 384.097)" fill="#E1E4E5"/><circle r="18.721" transform="scale(1 -1) rotate(-75 242.168 -420.376)" fill="#E1E4E5"/><path d="M828.972 333.237h.24c1.426 20.204 16.452 20.515 16.452 20.515s-16.569.324-16.569 23.67c0-23.346-16.569-23.67-16.569-23.67s15.019-.311 16.446-20.515zM608.02 448.488h.214c1.265 18.287 14.598 18.568 14.598 18.568s-14.702.293-14.702 21.422c0-21.129-14.703-21.422-14.703-21.422s13.328-.281 14.593-18.568z" fill="#E1E4E5"/><rect x="306.25" y="41.28" width="255.767" height="522.752" rx="4" fill="#fff" stroke="#E1E4E5" stroke-width="4"/><rect x="355.609" y="92.882" width="156.204" height="21.463" rx="4" fill="#fff" stroke="#E1E4E5" stroke-width="4"/><rect x="333.173" y="72.69" width="200.8" height="140.223" rx="4" stroke="#E1E4E5" stroke-width="4"/><rect x="355.609" y="125.077" width="48.888" height="21.463" rx="4" fill="#fff" stroke="#E1E4E5" stroke-width="4"/><rect x="415.229" y="125.077" width="96.584" height="21.463" rx="4" fill="#fff" stroke="#E1E4E5" stroke-width="4"/><rect x="490.223" y="172.529" width="21.314" height="21.314" rx="10.657" fill="#fff" stroke="#E1E4E5" stroke-width="4"/><rect x="355.609" y="253.297" width="156.204" height="21.463" rx="4" fill="#fff" stroke="#E1E4E5" stroke-width="4"/><rect x="333.173" y="233.105" width="200.8" height="140.223" rx="4" stroke="#E1E4E5" stroke-width="4"/><rect x="355.609" y="285.492" width="48.888" height="21.463" rx="4" fill="#fff" stroke="#E1E4E5" stroke-width="4"/><rect x="415.229" y="285.492" width="96.584" height="21.463" rx="4" fill="#fff" stroke="#E1E4E5" stroke-width="4"/><rect x="490.223" y="332.944" width="21.314" height="21.314" rx="10.657" fill="#fff" stroke="#E1E4E5" stroke-width="4"/><rect x="355.609" y="413.713" width="156.204" height="21.463" rx="4" fill="#fff" stroke="#E1E4E5" stroke-width="4"/><rect x="333.173" y="393.521" width="200.8" height="140.223" rx="4" stroke="#E1E4E5" stroke-width="4"/><rect x="355.609" y="445.908" width="48.888" height="21.463" rx="4" fill="#fff" stroke="#E1E4E5" stroke-width="4"/><rect x="415.229" y="445.908" width="96.584" height="21.463" rx="4" fill="#fff" stroke="#E1E4E5" stroke-width="4"/><rect x="490.223" y="493.36" width="21.314" height="21.314" rx="10.657" fill="#fff" stroke="#E1E4E5" stroke-width="4"/><path d="M745.103 310.443v100.676H602.464v-15.106c0-14.056-13.268-19.117-44.631-16.993-25.09 1.699-32.971-8.193-33.775-13.351v-64.633l-22.617-7.586c1.709-43.291 18.033-136.366 69.661-162.34 64.534-32.468 123.425-17.752 162.24 40.357 28.631 42.864 18.596 106.71 11.761 138.976z" fill="#009688"/><circle cx="573.18" cy="237.748" r="11.957" fill="#fff"/><path d="M167.427 446.179v100.676h142.639v-15.106c0-14.056 13.269-19.117 44.631-16.993 25.09 1.7 32.971-8.193 33.775-13.351v-64.633l22.617-7.586c-1.709-43.29-18.033-136.365-69.661-162.34-64.534-32.468-123.425-17.752-162.24 40.358-28.631 42.863-18.596 106.709-11.761 138.975z" fill="#009688"/><circle r="11.957" transform="matrix(-1 0 0 1 339.35 373.484)" fill="#fff"/><defs><linearGradient id="a" x1="406.215" y1="772.365" x2="393.797" y2="-291.265" gradientUnits="userSpaceOnUse"><stop stop-color="#fff"/><stop offset="1" stop-color="#EEE"/></linearGradient><linearGradient id="b" x1="644.37" y1="399.411" x2="518.117" y2="-167.917" gradientUnits="userSpaceOnUse"><stop stop-color="#fff"/><stop offset="1" stop-color="#EEE"/></linearGradient><linearGradient id="c" x1="733.073" y1="329.717" x2="953.169" y2="155.62" gradientUnits="userSpaceOnUse"><stop stop-color="#fff"/><stop offset="1" stop-color="#EEE"/></linearGradient><linearGradient id="d" x1="212.49" y1="452.436" x2="-68.06" y2="191.769" gradientUnits="userSpaceOnUse"><stop stop-color="#fff"/><stop offset="1" stop-color="#EEE"/></linearGradient></defs></svg>