<svg width="900" height="600" viewBox="0 0 900 600" fill="none" xmlns="http://www.w3.org/2000/svg"><path fill="transparent" d="M0 0h900v600H0z"/><path d="M215.095 214.229c10.636 18.983 33.93 21.591 71.249 17.984 28.066-2.718 53.66-4.821 81.729-20.125 19.646-10.704 35.197-25.185 46.547-39.25 12.3-15.238 29.468-32.627 21.052-49.904-11.566-23.733-78.45-43.72-143.396-11.034-71.344 35.917-87.586 83.777-77.181 102.329z" fill="url(#a)"/><path d="M143.196 253.915c20.037 9.94 46.631-2.84 46.631-2.84s-5.91-28.89-25.958-38.816c-20.037-9.939-46.621 2.827-46.621 2.827s5.911 28.89 25.948 38.829z" fill="url(#b)"/><path d="M712.352 326.558c-26.18 15.691-63.742 1.186-63.742 1.186s4.912-39.94 31.108-55.613c26.181-15.692 63.726-1.204 63.726-1.204s-4.911 39.94-31.092 55.631z" fill="url(#c)"/><circle r="10.941" transform="matrix(1 0 0 -1 182.621 187.312)" fill="#009688"/><circle r="12.308" transform="matrix(1 0 0 -1 594.695 249.284)" fill="#009688"/><circle cx="677.154" cy="176.94" r="10.257" fill="#009688"/><circle cx="276.451" cy="230.276" r="4.787" fill="#009688"/><circle cx="248.827" cy="443.857" r="6.154" fill="#E1E4E5"/><circle cx="678.988" cy="379.955" r="8.889" fill="#E1E4E5"/><circle cx="538.266" cy="303.693" r="6.766" fill="#E1E4E5"/><circle cx="247.72" cy="154.08" r="7.522" fill="#E1E4E5"/><circle cx="658.62" cy="239.438" r="6.754" transform="rotate(105 658.62 239.438)" fill="#E1E4E5"/><circle cx="487.103" cy="96.067" r="8.986" fill="#E1E4E5"/><ellipse cx="200.549" cy="325.752" rx="6.912" ry="5.53" fill="#E1E4E5"/><circle cx="397.934" cy="496.51" r="14.057" transform="rotate(105 397.934 496.51)" fill="#E1E4E5"/><path d="M148.132 287.562h-.181c-1.071 15.172-12.354 15.405-12.354 15.405s12.442.243 12.442 17.773c0-17.53 12.442-17.773 12.442-17.773s-11.278-.233-12.349-15.405zm165.909 86.541h-.16c-.95 13.731-10.962 13.942-10.962 13.942s11.04.22 11.04 16.086c0-15.866 11.04-16.086 11.04-16.086s-10.008-.211-10.958-13.942z" fill="#E1E4E5"/><path d="M656.776 299.78c0 112.696-91.103 204.051-203.48 204.051-112.378 0-203.481-91.355-203.481-204.051 0-112.696 91.103-204.052 203.481-204.052 112.377 0 203.48 91.356 203.48 204.052z" stroke="#E1E4E5" stroke-width="1.048"/><path d="M434.962 257.704a30 30 0 0 1 30 0l23.792 13.736a30 30 0 0 1 15 25.981v27.472a30 30 0 0 1-15 25.981l-23.792 13.736a30 30 0 0 1-30 0l-23.792-13.736a30 30 0 0 1-15-25.981v-27.472a30 30 0 0 1 15-25.981l23.792-13.736z" fill="#009688"/><path d="m469.174 299.553-22.672 22.492-13.604-13.495" stroke="#fff" stroke-width="8.45" stroke-linecap="round" stroke-linejoin="round"/><path d="M304.484 31.588a26.27 26.27 0 0 0-1.687-.543c-.189-.054-.375-.111-.563-.16a51.556 51.556 0 0 0-1.216-.29c-.194-.044-.388-.08-.586-.118a34.465 34.465 0 0 0-1.226-.206c-.24-.034-.478-.063-.721-.091-.174-.02-.348-.04-.526-.057a25.954 25.954 0 0 0-.829-.063c-.146-.009-.291-.023-.437-.029-.426-.02-.855-.031-1.287-.031H97.663a25.942 25.942 0 0 0-4.06.308c-.44.069-.88.146-1.312.235-11.284 2.31-19.97 11.77-21.154 23.45-.091.9-.137 1.811-.137 2.734v405.132c0 11.568 7.33 21.417 17.592 25.139.045.017.091.031.137.045.509.18 1.026.346 1.547.495.188.054.374.111.566.16a44.122 44.122 0 0 0 1.215.291c.194.043.389.08.586.117.22.043.44.083.66.117.19.032.375.06.564.089.237.034.477.062.72.091.174.02.349.04.526.057.275.026.552.046.83.063.145.009.29.023.437.029.426.02.855.031 1.286.031h197.746c.921 0 1.83-.046 2.727-.137 12.549-1.277 22.527-11.28 23.802-23.859.091-.9.137-1.811.137-2.734V56.727c-.006-11.568-7.336-21.417-17.594-25.139z" fill="#009688"/><rect x="170.917" y="52.959" width="52.52" height="5.124" rx="2.562" fill="#fff"/><circle cx="180.599" cy="164.623" r="6.276" fill="#fff"/><path d="M244.141 176.137a45.527 45.527 0 0 0-6.523-.53c-13.167-.095-25.712 5.678-34.32 15.793-8.608 10.115-12.413 23.554-10.408 36.766" stroke="#fff" stroke-width="10.395" stroke-linecap="round" stroke-linejoin="round"/><path clip-rule="evenodd" d="M246.495 179.135v0a50.6 50.6 0 0 1-14.819 35.78 50.6 50.6 0 0 1-35.78 14.819v0c-13.42 0-26.29-5.33-35.78-14.819a50.6 50.6 0 0 1-14.819-35.78v0a50.6 50.6 0 0 1 14.819-35.779 50.602 50.602 0 0 1 35.78-14.819v0a50.6 50.6 0 0 1 35.78 14.819 50.6 50.6 0 0 1 14.819 35.779z" stroke="#fff" stroke-width="10.395" stroke-linecap="round" stroke-linejoin="round"/><rect x="158.617" y="329.529" width="76.41" height="22.414" rx="11.207" fill="#fff"/><rect x="121.94" y="382.507" width="65.204" height="22.414" rx="11.207" fill="#fff"/><rect x="205.482" y="382.507" width="65.204" height="22.414" rx="11.207" fill="#fff"/><rect x="121.94" y="298.965" width="148.746" height="10.188" rx="5.094" fill="#fff"/><rect x="121.94" y="268.164" width="148.594" height="10.248" rx="5.124" fill="#fff"/><path d="M811.849 113.093a25.954 25.954 0 0 0-1.686-.543c-.189-.054-.375-.111-.564-.16-.2-.051-.4-.1-.6-.149-.203-.048-.409-.097-.615-.142-.194-.043-.389-.08-.586-.118a33.43 33.43 0 0 0-1.226-.205 33.783 33.783 0 0 0-1.247-.149 31.97 31.97 0 0 0-.829-.063c-.146-.008-.292-.022-.438-.028-.426-.02-.854-.032-1.286-.032H605.029c-.46 0-.918.012-1.372.035-.909.045-1.807.137-2.688.274-.44.069-.88.146-1.312.234-11.285 2.311-19.97 11.771-21.154 23.451a26.86 26.86 0 0 0-.137 2.733v405.132c0 11.569 7.33 21.417 17.591 25.139.046.017.092.032.138.046.509.18 1.026.345 1.546.494.189.054.375.111.566.16.201.051.401.1.601.149.203.048.409.097.615.142.194.043.388.08.586.117.22.043.44.083.66.118.189.031.375.06.563.088a31.488 31.488 0 0 0 1.247.149c.274.025.552.045.829.062.146.009.292.023.437.029.426.02.855.031 1.287.031h197.746c.92 0 1.829-.045 2.727-.137 12.548-1.276 22.527-11.279 23.802-23.859.091-.9.137-1.811.137-2.733V138.231c-.006-11.568-7.336-21.417-17.595-25.138z" fill="#009688"/><rect x="678.283" y="134.463" width="52.52" height="5.124" rx="2.562" fill="#fff"/><circle cx="687.964" cy="246.127" r="6.276" fill="#fff"/><path d="M751.507 257.641a45.527 45.527 0 0 0-6.523-.53c-13.167-.094-25.712 5.679-34.32 15.794-8.609 10.115-12.413 23.554-10.408 36.765" stroke="#fff" stroke-width="10.395" stroke-linecap="round" stroke-linejoin="round"/><path clip-rule="evenodd" d="M753.861 260.64v0c0 13.42-5.33 26.29-14.819 35.78a50.602 50.602 0 0 1-35.78 14.819v0c-13.42 0-26.29-5.33-35.78-14.819a50.602 50.602 0 0 1-14.819-35.78v0c0-13.42 5.33-26.29 14.819-35.78a50.602 50.602 0 0 1 35.78-14.819v0c13.42 0 26.29 5.33 35.78 14.819a50.602 50.602 0 0 1 14.819 35.78z" stroke="#fff" stroke-width="10.395" stroke-linecap="round" stroke-linejoin="round"/><rect x="665.983" y="411.034" width="76.41" height="22.414" rx="11.207" fill="#fff"/><rect x="629.306" y="464.011" width="65.204" height="22.414" rx="11.207" fill="#fff"/><rect x="712.848" y="464.011" width="65.204" height="22.414" rx="11.207" fill="#fff"/><rect x="629.306" y="380.469" width="148.746" height="10.188" rx="5.094" fill="#fff"/><rect x="629.306" y="349.668" width="148.594" height="10.248" rx="5.124" fill="#fff"/><rect x="355.247" y="153.276" width="189.498" height="12.226" rx="6.113" fill="#009688"/><rect x="355.247" y="404.921" width="189.498" height="12.226" rx="6.113" fill="#009688"/><rect x="355.247" y="184.859" width="189.498" height="12.226" rx="6.113" fill="#009688"/><rect x="355.247" y="436.504" width="100.862" height="12.226" rx="6.113" fill="#009688"/><rect x="355.247" y="216.442" width="189.498" height="12.226" rx="6.113" fill="#009688"/><defs><linearGradient id="a" x1="286.746" y1="337.252" x2="381.548" y2="-88.747" gradientUnits="userSpaceOnUse"><stop stop-color="#fff"/><stop offset="1" stop-color="#EEE"/></linearGradient><linearGradient id="b" x1="220.141" y1="284.919" x2="54.874" y2="154.193" gradientUnits="userSpaceOnUse"><stop stop-color="#fff"/><stop offset="1" stop-color="#EEE"/></linearGradient><linearGradient id="c" x1="611.04" y1="377.067" x2="821.7" y2="181.336" gradientUnits="userSpaceOnUse"><stop stop-color="#fff"/><stop offset="1" stop-color="#EEE"/></linearGradient></defs></svg>