<svg width="900" height="600" viewBox="0 0 900 600" fill="none" xmlns="http://www.w3.org/2000/svg"><path fill="transparent" d="M0 0h900v600H0z"/><path d="M663.603 299.734c0 141.502-114.466 256.21-255.664 256.21-141.198 0-255.663-114.708-255.663-256.21 0-141.502 114.465-256.21 255.663-256.21s255.664 114.708 255.664 256.21z" stroke="url(#a)" stroke-width="1.048"/><path d="M633.359 170.811c-8.255 14.732-26.333 16.756-55.296 13.957-21.782-2.11-41.645-3.742-63.429-15.619-15.247-8.307-27.316-19.546-36.125-30.462-9.546-11.825-22.87-25.321-16.338-38.73 8.976-18.418 60.884-33.93 111.288-8.563 55.369 27.875 67.975 65.019 59.9 79.417z" fill="url(#b)"/><path d="M781.933 285.877c-25.988 12.891-60.48-3.685-60.48-3.685s7.665-37.469 33.667-50.342c25.988-12.892 60.466 3.666 60.466 3.666s-7.666 37.47-33.653 50.361z" fill="url(#c)"/><path d="M149.677 494.735c20.819 12.478 50.687.943 50.687.943s-3.906-31.759-24.737-44.223c-20.818-12.477-50.674-.957-50.674-.957s3.906 31.76 24.724 44.237z" fill="url(#d)"/><circle cx="730.799" cy="199.494" r="14.19" transform="rotate(180 730.799 199.494)" fill="#009688"/><circle cx="190.657" cy="379.062" r="15.964" transform="rotate(180 190.657 379.062)" fill="#009688"/><circle r="13.303" transform="matrix(-1 0 0 1 85.303 200.511)" fill="#009688"/><circle r="6.208" transform="matrix(-1 0 0 1 609.156 254.595)" fill="#009688"/><circle r="7.982" transform="matrix(-1 0 0 1 544.288 512.011)" fill="#E1E4E5"/><circle r="11.529" transform="matrix(-1 0 0 1 109.749 400.847)" fill="#E1E4E5"/><circle r="8.775" transform="matrix(-1 0 0 1 220.352 154.765)" fill="#E1E4E5"/><circle r="9.756" transform="matrix(-1 0 0 1 645.478 213.351)" fill="#E1E4E5"/><circle r="8.76" transform="scale(1 -1) rotate(-75 -83.131 -201.463)" fill="#E1E4E5"/><circle r="11.654" transform="matrix(-1 0 0 1 335.893 81.15)" fill="#E1E4E5"/><ellipse rx="8.965" ry="7.172" transform="matrix(-1 0 0 1 707.547 379.048)" fill="#E1E4E5"/><circle r="18.232" transform="scale(1 -1) rotate(-75 216.701 -391.174)" fill="#E1E4E5"/><path d="M775.531 329.516h.234c1.389 19.677 16.022 19.98 16.022 19.98s-16.136.315-16.136 23.051c0-22.736-16.137-23.051-16.137-23.051s14.628-.303 16.017-19.98zM263.194 492.012h.208c1.233 17.808 14.217 18.083 14.217 18.083s-14.318.285-14.318 20.862c0-20.577-14.318-20.862-14.318-20.862s12.979-.275 14.211-18.083z" fill="#E1E4E5"/><path d="M304.904 277.202c0-20.656-.002-67.598-.001-81.117.001-25.477 16.094-54.078 64.378-54.078h37.02" stroke="#009688" stroke-width="20.625"/><path d="m349.969 232.137-45.065 45.065-45.065-45.065m247.858 90.13c0 20.656.002 67.597.001 81.117-.001 25.477-16.094 54.078-64.378 54.078h-37.019" stroke="#009688" stroke-width="20.625"/><path d="m462.632 367.332 45.065-45.065 45.065 45.065" stroke="#009688" stroke-width="20.625"/><circle cx="304.904" cy="401.13" r="56.331" fill="#fff" stroke="#009688" stroke-width="20.625"/><circle cx="507.697" cy="198.338" r="56.331" fill="#fff" stroke="#009688" stroke-width="20.625"/><rect x="74.185" y="116.197" width="152.124" height="20.903" rx="4" fill="#fff" stroke="#E1E4E5" stroke-width="4"/><rect x="74.185" y="273.514" width="152.124" height="20.903" rx="4" fill="#fff" stroke="#E1E4E5" stroke-width="4"/><rect x="597.486" y="273.514" width="152.124" height="20.903" rx="4" fill="#fff" stroke="#E1E4E5" stroke-width="4"/><rect x="597.486" y="430.832" width="152.124" height="20.903" rx="4" fill="#fff" stroke="#E1E4E5" stroke-width="4"/><rect x="74.185" y="147.55" width="47.611" height="20.903" rx="4" fill="#fff" stroke="#E1E4E5" stroke-width="4"/><rect x="74.185" y="304.868" width="47.611" height="20.903" rx="4" fill="#fff" stroke="#E1E4E5" stroke-width="4"/><rect x="597.486" y="304.868" width="47.611" height="20.903" rx="4" fill="#fff" stroke="#E1E4E5" stroke-width="4"/><rect x="597.486" y="462.186" width="47.611" height="20.903" rx="4" fill="#fff" stroke="#E1E4E5" stroke-width="4"/><rect x="132.248" y="147.55" width="94.062" height="20.903" rx="4" fill="#fff" stroke="#E1E4E5" stroke-width="4"/><rect x="132.248" y="304.868" width="94.062" height="20.903" rx="4" fill="#fff" stroke="#E1E4E5" stroke-width="4"/><rect x="655.548" y="304.868" width="94.062" height="20.903" rx="4" fill="#fff" stroke="#E1E4E5" stroke-width="4"/><rect x="655.548" y="462.186" width="94.062" height="20.903" rx="4" fill="#fff" stroke="#E1E4E5" stroke-width="4"/><defs><linearGradient id="a" x1="418.864" y1="844.348" x2="402.998" y2="-515.565" gradientUnits="userSpaceOnUse"><stop stop-color="#fff"/><stop offset="1" stop-color="#EEE"/></linearGradient><linearGradient id="b" x1="577.751" y1="266.288" x2="504.176" y2="-64.326" gradientUnits="userSpaceOnUse"><stop stop-color="#fff"/><stop offset="1" stop-color="#EEE"/></linearGradient><linearGradient id="c" x1="682.137" y1="326.088" x2="896.484" y2="156.539" gradientUnits="userSpaceOnUse"><stop stop-color="#fff"/><stop offset="1" stop-color="#EEE"/></linearGradient><linearGradient id="d" x1="230.239" y1="534.899" x2="62.726" y2="379.257" gradientUnits="userSpaceOnUse"><stop stop-color="#fff"/><stop offset="1" stop-color="#EEE"/></linearGradient></defs></svg>