<svg width="900" height="600" viewBox="0 0 900 600" fill="none" xmlns="http://www.w3.org/2000/svg"><path fill="transparent" d="M0 0h900v600H0z"/><path d="M212.397 361.548c8.81-6.033 9.681-20.092 9.681-20.092s-13.415-4.268-22.222 1.773c-8.809 6.033-9.683 20.084-9.683 20.084s13.415 4.268 22.224-1.765z" fill="#E1E4E5"/><circle cx="404.236" cy="296.752" r="8.247" transform="rotate(180 404.236 296.752)" fill="#009688"/><circle r="14.045" transform="matrix(-1 0 0 1 611.42 88.505)" fill="#009688"/><circle r="11.246" transform="matrix(-1 0 0 1 778.831 323.705)" fill="#E1E4E5"/><circle r="9.611" transform="matrix(-1 0 0 1 136.577 271.845)" fill="#E1E4E5"/><circle r="14.669" transform="matrix(-1 0 0 1 735.178 153.573)" fill="#E1E4E5"/><circle r="12.764" transform="matrix(-1 0 0 1 160.184 160.874)" fill="#E1E4E5"/><ellipse rx="9.819" ry="7.855" transform="matrix(-1 0 0 1 679.493 412.468)" fill="#E1E4E5"/><ellipse rx="15.981" ry="12.617" transform="scale(-1 1) rotate(26.006 -990.131 -166.065)" fill="#E1E4E5"/><circle r="18.582" transform="scale(1 -1) rotate(-75 90.457 -236.631)" fill="#E1E4E5"/><path d="M660.949 323.029h.257c1.521 21.551 17.549 21.883 17.549 21.883s-17.674.345-17.674 25.247c0-24.902-17.674-25.247-17.674-25.247s16.021-.332 17.542-21.883z" fill="#E1E4E5"/><path d="M458.555 359.206c65.19 0 118.037-52.847 118.037-118.037S561.837 101 561.837 101H355.272s-14.754 74.979-14.754 140.169c0 65.19 52.847 118.037 118.037 118.037z" fill="#009688" stroke="#009688" stroke-width="29.509" stroke-linejoin="round"/><path d="M347.895 145.264H251.99c0 103.282 44.264 154.924 104.758 154.924m212.468-154.924h95.905c0 103.282-44.264 154.924-104.758 154.924" stroke="#009688" stroke-width="29.509" stroke-linejoin="round"/><path d="M577 485.01c-91.341-6.643-143.008-6.69-236 0m117.555-125.804v118.037" stroke="#009688" stroke-width="29.509"/><rect x="369" y="140.01" width="180" height="180" rx="90" fill="#fff"/><path d="m496 210.01-46.875 44L421 227.61" stroke="#009688" stroke-width="20" stroke-linecap="round" stroke-linejoin="round"/><rect x="651.312" y="446.173" width="75.952" height="75.952" rx="37.976" fill="#009688"/><path fill-rule="evenodd" clip-rule="evenodd" d="M706.61 499.858v2.472a2.474 2.474 0 0 1-2.475 2.472H674.44a2.474 2.474 0 0 1-2.475-2.472v-2.511c0-7.48 8.557-12.339 17.322-12.339 8.765 0 17.323 4.862 17.323 12.339m-11.296-34.453c3.513 3.382 3.513 8.866 0 12.248-3.512 3.383-9.207 3.383-12.72 0-3.512-3.382-3.512-8.866 0-12.248 3.513-3.383 9.208-3.383 12.72 0z" fill="#fff"/><rect x="779.048" y="392.086" width="75.952" height="75.952" rx="37.976" fill="#009688"/><path fill-rule="evenodd" clip-rule="evenodd" d="M834.347 445.772v2.471a2.474 2.474 0 0 1-2.475 2.472h-29.695a2.474 2.474 0 0 1-2.475-2.472v-2.511c0-7.48 8.557-12.339 17.322-12.339 8.765 0 17.323 4.862 17.323 12.339m-11.296-34.453c3.512 3.382 3.512 8.866 0 12.249-3.513 3.382-9.207 3.382-12.72 0-3.512-3.383-3.512-8.867 0-12.249 3.513-3.383 9.207-3.383 12.72 0z" fill="#fff"/><rect x="560.4" y="380.578" width="75.952" height="75.952" rx="37.976" fill="#009688"/><path fill-rule="evenodd" clip-rule="evenodd" d="M615.698 434.264v2.472a2.474 2.474 0 0 1-2.475 2.471h-29.695a2.474 2.474 0 0 1-2.475-2.471v-2.512c0-7.479 8.557-12.339 17.323-12.339 8.765 0 17.322 4.862 17.322 12.339m-11.296-34.453c3.513 3.382 3.513 8.866 0 12.249-3.512 3.382-9.207 3.382-12.719 0-3.513-3.383-3.513-8.867 0-12.249 3.512-3.382 9.207-3.382 12.719 0z" fill="#fff"/><rect width="75.952" height="75.952" rx="37.976" transform="matrix(-1 0 0 1 249.688 446.173)" fill="#009688"/><path fill-rule="evenodd" clip-rule="evenodd" d="M194.39 499.858v2.472a2.474 2.474 0 0 0 2.475 2.472h29.695a2.474 2.474 0 0 0 2.475-2.472v-2.511c0-7.48-8.557-12.339-17.322-12.339-8.765 0-17.323 4.862-17.323 12.339m11.296-34.453c-3.513 3.382-3.513 8.866 0 12.248 3.512 3.383 9.207 3.383 12.72 0 3.512-3.382 3.512-8.866 0-12.248-3.513-3.383-9.208-3.383-12.72 0z" fill="#fff"/><rect width="75.952" height="75.952" rx="37.976" transform="matrix(-1 0 0 1 121.952 392.086)" fill="#009688"/><path fill-rule="evenodd" clip-rule="evenodd" d="M66.653 445.772v2.471a2.474 2.474 0 0 0 2.475 2.472h29.695a2.474 2.474 0 0 0 2.475-2.472v-2.511c0-7.48-8.557-12.339-17.322-12.339-8.765 0-17.323 4.862-17.323 12.339m11.296-34.453c-3.512 3.382-3.512 8.866 0 12.249 3.513 3.382 9.207 3.382 12.72 0 3.512-3.383 3.512-8.867 0-12.249-3.513-3.383-9.207-3.383-12.72 0z" fill="#fff"/><rect width="75.952" height="75.952" rx="37.976" transform="matrix(-1 0 0 1 340.6 380.578)" fill="#009688"/><path fill-rule="evenodd" clip-rule="evenodd" d="M285.302 434.264v2.472a2.474 2.474 0 0 0 2.475 2.471h29.695a2.474 2.474 0 0 0 2.475-2.471v-2.512c0-7.479-8.557-12.339-17.323-12.339-8.765 0-17.322 4.862-17.322 12.339m11.296-34.453c-3.513 3.382-3.513 8.866 0 12.249 3.512 3.382 9.207 3.382 12.719 0 3.513-3.383 3.513-8.867 0-12.249-3.512-3.382-9.207-3.382-12.719 0z" fill="#fff"/></svg>