<svg width="900" height="600" viewBox="0 0 900 600" fill="none" xmlns="http://www.w3.org/2000/svg"><path fill="transparent" d="M0 0h900v600H0z"/><path d="M240.174 376.842c2.346 59.515 129.416 169.048 267.921 111.087 64.417-26.959 55.566-60.836 101.771-110.916 27.541-29.849 68.84-54.342 77.172-94.753 7.2-34.881-2.59-70.728-22.817-92.742-45.492-49.51-130.654-78.342-203.302 13.215s-226.777 20.616-220.745 174.109z" fill="url(#a)"/><path d="M235.202 210.584c10.351 18.475 33.023 21.014 69.345 17.503 27.316-2.645 52.226-4.692 79.545-19.587 19.121-10.417 34.256-24.512 45.303-38.201 11.972-14.831 28.68-31.756 20.489-48.571-11.256-23.098-76.353-42.552-139.564-10.739-69.437 34.958-85.245 81.539-75.118 99.595z" fill="url(#b)"/><path d="M150.98 266.006c26.836 13.312 62.454-3.805 62.454-3.805s-7.916-38.693-34.766-51.986c-26.836-13.312-62.44 3.786-62.44 3.786s7.916 38.693 34.752 52.005z" fill="url(#c)"/><path d="M752.281 307.479c-14.58 8.739-35.498.661-35.498.661s2.735-22.244 17.324-30.972c14.581-8.739 35.49-.671 35.49-.671s-2.735 22.243-17.316 30.982z" fill="url(#d)"/><circle cx="217.525" cy="447.994" r="8.242" fill="#E1E4E5"/><circle cx="754.34" cy="386.912" r="11.906" fill="#E1E4E5"/><circle cx="175.551" cy="366.503" r="9.061" fill="#E1E4E5"/><circle cx="226.281" cy="126.429" r="10.074" fill="#E1E4E5"/><circle cx="786.954" cy="190.052" r="9.046" transform="rotate(90 786.954 190.052)" fill="#E1E4E5"/><circle cx="521.763" cy="102.937" r="12.035" fill="#E1E4E5"/><ellipse cx="208.532" cy="316.311" rx="9.257" ry="7.406" fill="#E1E4E5"/><path d="M685.851 136.358h-.132c-.781 11.065-9.01 11.235-9.01 11.235s9.074.177 9.074 12.962c0-12.785 9.074-12.962 9.074-12.962s-8.225-.17-9.006-11.235zm13.786 289.63h-.127c-.75 11.032-8.65 11.202-8.65 11.202s8.712.176 8.712 12.923c0-12.747 8.712-12.923 8.712-12.923s-7.898-.17-8.647-11.202z" fill="#E1E4E5"/><path d="M146.745 469.696v-38.067L52 317.427l87.457-91.362" stroke="#E1E4E5" stroke-width="4" stroke-linejoin="round"/><path d="M214.417 468.004H65.532" stroke="#E1E4E5" stroke-width="4"/><path d="M282.099 211.068 162.475 330.692l-13.292-93.041-23.26-29.906 33.229-33.229 29.906 23.261 93.041 13.291z" fill="#009688" stroke="#009688" stroke-width="13.078" stroke-linejoin="round"/><path fill-rule="evenodd" clip-rule="evenodd" d="m753.691 330.415-41.915-41.904v-.011H680.34c-11.579 0-20.958-9.378-20.958-20.957V162.755c0-11.579 9.379-20.957 20.958-20.957h146.703c11.579 0 20.957 9.378 20.957 20.957v104.788c0 11.579-9.378 20.957-20.957 20.957h-31.437l-41.915 41.905" fill="#fff"/><path d="m753.691 330.415-41.915-41.904v-.011H680.34c-11.579 0-20.958-9.378-20.958-20.957V162.755c0-11.579 9.379-20.957 20.958-20.957h146.703c11.579 0 20.957 9.378 20.957 20.957v104.788c0 11.579-9.378 20.957-20.957 20.957h-31.437l-41.915 41.905" stroke="#E1E4E5" stroke-width="4" stroke-linecap="round" stroke-linejoin="round"/><path d="M795.606 236.106h-83.83m0-41.915h83.83" stroke="#E1E4E5" stroke-width="13.5" stroke-linecap="round" stroke-linejoin="round"/><path fill-rule="evenodd" clip-rule="evenodd" d="m377.038 300.143-26.132-26.125v-.007h-19.599c-7.219 0-13.066-5.847-13.066-13.066v-65.331c0-7.219 5.847-13.066 13.066-13.066h91.463c7.219 0 13.066 5.847 13.066 13.066v65.331c0 7.219-5.847 13.066-13.066 13.066h-19.6l-26.132 26.126" fill="#fff"/><path d="m377.038 300.143-26.132-26.125v-.007h-19.599c-7.219 0-13.066-5.847-13.066-13.066v-65.331c0-7.219 5.847-13.066 13.066-13.066h91.463c7.219 0 13.066 5.847 13.066 13.066v65.331c0 7.219-5.847 13.066-13.066 13.066h-19.6l-26.132 26.126" stroke="#E1E4E5" stroke-width="4" stroke-linecap="round" stroke-linejoin="round"/><path d="M403.17 241.346h-52.264m0-26.132h52.264" stroke="#E1E4E5" stroke-width="13.5" stroke-linecap="round" stroke-linejoin="round"/><path fill-rule="evenodd" clip-rule="evenodd" d="m479.497 465.475-26.132-26.126v-.006h-19.599c-7.219 0-13.066-5.848-13.066-13.067v-65.33c0-7.219 5.847-13.066 13.066-13.066h91.463c7.219 0 13.066 5.847 13.066 13.066v65.33c0 7.219-5.847 13.067-13.066 13.067h-19.6l-26.132 26.125" fill="#fff"/><path d="m479.497 465.475-26.132-26.126v-.006h-19.599c-7.219 0-13.066-5.848-13.066-13.067v-65.33c0-7.219 5.847-13.066 13.066-13.066h91.463c7.219 0 13.066 5.847 13.066 13.066v65.33c0 7.219-5.847 13.067-13.066 13.067h-19.6l-26.132 26.125" stroke="#E1E4E5" stroke-width="4" stroke-linecap="round" stroke-linejoin="round"/><path d="M505.629 406.677h-52.264m0-26.132h52.264" stroke="#E1E4E5" stroke-width="13.5" stroke-linecap="round" stroke-linejoin="round"/><path fill-rule="evenodd" clip-rule="evenodd" d="m652.979 439.86-26.132-26.126v-.006h-19.6c-7.219 0-13.066-5.847-13.066-13.066v-65.331c0-7.219 5.847-13.066 13.066-13.066h91.463c7.219 0 13.066 5.847 13.066 13.066v65.331c0 7.219-5.847 13.066-13.066 13.066h-19.599l-26.132 26.125" fill="#fff"/><path d="m652.979 439.86-26.132-26.126v-.006h-19.6c-7.219 0-13.066-5.847-13.066-13.066v-65.331c0-7.219 5.847-13.066 13.066-13.066h91.463c7.219 0 13.066 5.847 13.066 13.066v65.331c0 7.219-5.847 13.066-13.066 13.066h-19.599l-26.132 26.125" stroke="#E1E4E5" stroke-width="4" stroke-linecap="round" stroke-linejoin="round"/><path d="M679.111 381.063h-52.264m0-26.133h52.264" stroke="#E1E4E5" stroke-width="13.5" stroke-linecap="round" stroke-linejoin="round"/><path fill-rule="evenodd" clip-rule="evenodd" d="m556.341 311.786-26.132-26.125v-.007H510.61c-7.219 0-13.066-5.847-13.066-13.066v-65.33c0-7.22 5.847-13.067 13.066-13.067h91.463c7.219 0 13.066 5.847 13.066 13.067v65.33c0 7.219-5.847 13.066-13.066 13.066h-19.599l-26.133 26.126" fill="#fff"/><path d="m556.341 311.786-26.132-26.125v-.007H510.61c-7.219 0-13.066-5.847-13.066-13.066v-65.33c0-7.22 5.847-13.067 13.066-13.067h91.463c7.219 0 13.066 5.847 13.066 13.067v65.33c0 7.219-5.847 13.066-13.066 13.066h-19.599l-26.133 26.126" stroke="#E1E4E5" stroke-width="4" stroke-linecap="round" stroke-linejoin="round"/><path d="M582.474 252.989h-52.265m0-26.132h52.265" stroke="#E1E4E5" stroke-width="13.5" stroke-linecap="round" stroke-linejoin="round"/><path fill-rule="evenodd" clip-rule="evenodd" d="m281.565 437.531-26.132-26.125v-.007h-19.599c-7.219 0-13.066-5.847-13.066-13.066v-65.33c0-7.219 5.847-13.067 13.066-13.067h91.463c7.219 0 13.066 5.848 13.066 13.067v65.33c0 7.219-5.847 13.066-13.066 13.066h-19.6l-26.132 26.126" fill="#fff"/><path d="m281.565 437.531-26.132-26.125v-.007h-19.599c-7.219 0-13.066-5.847-13.066-13.066v-65.33c0-7.219 5.847-13.067 13.066-13.067h91.463c7.219 0 13.066 5.848 13.066 13.067v65.33c0 7.219-5.847 13.066-13.066 13.066h-19.6l-26.132 26.126" stroke="#E1E4E5" stroke-width="4" stroke-linecap="round" stroke-linejoin="round"/><path d="M307.697 378.734h-52.264m0-26.132h52.264" stroke="#E1E4E5" stroke-width="13.5" stroke-linecap="round" stroke-linejoin="round"/><defs><linearGradient id="a" x1="411.862" y1="718.783" x2="536.683" y2="-278.528" gradientUnits="userSpaceOnUse"><stop stop-color="#fff"/><stop offset="1" stop-color="#EEE"/></linearGradient><linearGradient id="b" x1="304.939" y1="330.319" x2="397.207" y2="-84.296" gradientUnits="userSpaceOnUse"><stop stop-color="#fff"/><stop offset="1" stop-color="#EEE"/></linearGradient><linearGradient id="c" x1="254.033" y1="307.53" x2="32.688" y2="132.445" gradientUnits="userSpaceOnUse"><stop stop-color="#fff"/><stop offset="1" stop-color="#EEE"/></linearGradient><linearGradient id="d" x1="695.859" y1="335.608" x2="813.178" y2="226.603" gradientUnits="userSpaceOnUse"><stop stop-color="#fff"/><stop offset="1" stop-color="#EEE"/></linearGradient></defs></svg>