<svg width="900" height="600" viewBox="0 0 900 600" fill="none" xmlns="http://www.w3.org/2000/svg"><path fill="transparent" d="M0 0h900v600H0z"/><path d="M611.924 380.186c-8.248 15.091-114.815 38.622-211.598 19.059-45.013-9.099-34.722-17.429-63.651-31.793-17.243-8.561-45.313-16.233-47.102-26.823-1.55-9.141 9.654-17.941 27.119-22.854 39.276-11.049 105.827-15.455 149.911 10.396 44.083 25.851 166.58 13.094 145.321 52.015z" fill="url(#a)"/><path d="M407.62 255.928v-14.812c0-5.454 4.421-9.874 9.875-9.874h4.937c5.453 0 9.874 4.42 9.874 9.874v11.849m39.498 0v-11.652c0-5.453 4.421-9.874 9.874-9.874h5.431c5.454 0 9.875 4.421 9.875 9.874v15.108" stroke="#009688" stroke-width="4" stroke-linejoin="round"/><path d="M397.743 273.694c.004-.055.007-.068.017-.122 2.579-15.475 7.515-22.542 19.735-22.983 19.353-.699 49.996-.693 69.121 0 12.208.442 17.155 7.535 19.735 22.983.009.054.012.067.017.122.142 1.742 4.934 60.273 4.934 74.61 0 14.555-9.087 21.659-20.977 22.381-19.827 1.205-56.575 1.123-76.383-.068-11.953-.718-21.133-8.055-21.133-22.461 0-14.192 4.791-72.726 4.934-74.462z" fill="#009688"/><path d="M393.611 269.776c0 10.361 10.541 24.677 21.844 26.26 6.8.952 66.4.952 73.189-.003 11.656-1.64 21.855-15.703 21.855-26.257m-84.521 71.201c13.734-13.861 38.42-13.861 52.143-.003m-26.066-31.139v-24.686" stroke="#fff" stroke-width="4" stroke-linejoin="round"/><path d="m255.37 390.476 33.464 21.603 33.041-21.603-33.041-83.45-33.464 83.45z" fill="#fff" stroke="#E1E4E5" stroke-width="4"/><path stroke="#E1E4E5" stroke-width="4" d="M288.716 368.872v57.61m-20.323-44.835 20.762 14.831"/><path d="m46 395.499 17.45 11.266 17.23-11.266-17.23-43.517L46 395.499z" fill="#fff" stroke="#E1E4E5" stroke-width="4"/><path stroke="#E1E4E5" stroke-width="4" d="M64.346 384.233v30.042m-10.999-24.159 10.827 7.734"/><path d="m308.033 250.729 23.268 15.022 22.973-15.022-22.973-58.022-23.268 58.022z" fill="#fff" stroke="#E1E4E5" stroke-width="4"/><path stroke="#E1E4E5" stroke-width="4" d="M331.828 235.709v40.056m-14.385-31.67 14.435 10.312"/><path d="m147.474 403.582 23.267 15.021 22.974-15.021-22.974-58.022-23.267 58.022z" fill="#fff" stroke="#E1E4E5" stroke-width="4"/><path stroke="#E1E4E5" stroke-width="4" d="M171.269 388.561v40.056m-14.386-31.669 14.436 10.312"/><path d="m193.715 276.419 23.268 15.021 22.973-15.021-22.973-58.022-23.268 58.022z" fill="#fff" stroke="#E1E4E5" stroke-width="4"/><path stroke="#E1E4E5" stroke-width="4" d="M217.51 261.398v40.056m-14.386-31.669 14.436 10.312"/><path fill-rule="evenodd" clip-rule="evenodd" d="M233.534 333.578v-14.129 14.129z" fill="#fff"/><path d="M233.534 333.578v-14.129" stroke="#E1E4E5" stroke-width="4"/><path fill-rule="evenodd" clip-rule="evenodd" d="M359.412 426.061v-10.276 10.276z" fill="#fff"/><path d="M359.412 426.061v-10.276" stroke="#E1E4E5" stroke-width="4"/><path fill-rule="evenodd" clip-rule="evenodd" d="M218.12 333.578v-10.275 10.275z" fill="#fff"/><path d="M218.12 333.578v-10.275" stroke="#E1E4E5" stroke-width="4"/><path fill-rule="evenodd" clip-rule="evenodd" d="M323.447 426.061v-6.423 6.423z" fill="#fff"/><path d="M323.447 426.061v-6.423" stroke="#E1E4E5" stroke-width="4"/><path fill-rule="evenodd" clip-rule="evenodd" d="M182.154 333.578v-6.422 6.422z" fill="#fff"/><path d="M182.154 333.578v-6.422" stroke="#E1E4E5" stroke-width="4"/><path fill-rule="evenodd" clip-rule="evenodd" d="M248.947 333.578v-10.275 10.275z" fill="#fff"/><path d="M248.947 333.578v-10.275" stroke="#E1E4E5" stroke-width="4"/><path d="M661.264 390.476 627.8 412.079l-33.042-21.603 33.042-83.45 33.464 83.45z" fill="#fff" stroke="#E1E4E5" stroke-width="4"/><path stroke="#E1E4E5" stroke-width="4" d="M627.918 368.872v57.61m20.322-44.835-20.761 14.83"/><path d="m527.679 441.74-17.451 11.266-17.23-11.266 17.23-43.517 17.451 43.517z" fill="#fff" stroke="#E1E4E5" stroke-width="4"/><path stroke="#E1E4E5" stroke-width="4" d="M509.332 430.474v30.042m10.999-24.158-10.826 7.733"/><path d="m608.601 250.729-23.268 15.022-22.973-15.022 22.973-58.022 23.268 58.022z" fill="#fff" stroke="#E1E4E5" stroke-width="4"/><path stroke="#E1E4E5" stroke-width="4" d="M584.805 235.709v40.056m14.386-31.669-14.436 10.312"/><path d="m769.16 403.582-23.268 15.021-22.973-15.021 22.973-58.022 23.268 58.022z" fill="#fff" stroke="#E1E4E5" stroke-width="4"/><path stroke="#E1E4E5" stroke-width="4" d="M745.365 388.561v40.056m14.385-31.669-14.436 10.312"/><path d="m853.936 356.057-23.268 15.021-22.973-15.021 22.973-58.023 23.268 58.023z" fill="#fff" stroke="#E1E4E5" stroke-width="4"/><path stroke="#E1E4E5" stroke-width="4" d="M830.14 341.036v40.056m14.386-31.669-14.436 10.312"/><path d="m722.919 276.419-23.268 15.021-22.973-15.021 22.973-58.022 23.268 58.022z" fill="#fff" stroke="#E1E4E5" stroke-width="4"/><path stroke="#E1E4E5" stroke-width="4" d="M699.124 261.398v40.056m14.386-31.669-14.437 10.312"/><path fill-rule="evenodd" clip-rule="evenodd" d="M683.1 333.578v-14.129 14.129z" fill="#fff"/><path d="M683.1 333.578v-14.129" stroke="#E1E4E5" stroke-width="4"/><path fill-rule="evenodd" clip-rule="evenodd" d="M94.81 467.585v-14.129 14.129z" fill="#fff"/><path d="M94.81 467.585v-14.129" stroke="#E1E4E5" stroke-width="4"/><path fill-rule="evenodd" clip-rule="evenodd" d="M388.955 481.714v-14.129 14.129z" fill="#fff"/><path d="M388.955 481.714v-14.129" stroke="#E1E4E5" stroke-width="4"/><path fill-rule="evenodd" clip-rule="evenodd" d="M684.385 474.007v-14.129 14.129z" fill="#fff"/><path d="M684.385 474.007v-14.129" stroke="#E1E4E5" stroke-width="4"/><path fill-rule="evenodd" clip-rule="evenodd" d="M236.103 462.447v-14.129 14.129z" fill="#fff"/><path d="M236.103 462.447v-14.129" stroke="#E1E4E5" stroke-width="4"/><path fill-rule="evenodd" clip-rule="evenodd" d="M557.222 426.061v-10.276 10.276z" fill="#fff"/><path d="M557.222 426.061v-10.276" stroke="#E1E4E5" stroke-width="4"/><path fill-rule="evenodd" clip-rule="evenodd" d="M698.514 333.578v-10.275 10.275z" fill="#fff"/><path d="M698.514 333.578v-10.275" stroke="#E1E4E5" stroke-width="4"/><path fill-rule="evenodd" clip-rule="evenodd" d="M110.224 467.585v-10.276 10.276z" fill="#fff"/><path d="M110.224 467.585v-10.276" stroke="#E1E4E5" stroke-width="4"/><path fill-rule="evenodd" clip-rule="evenodd" d="M404.369 481.714v-10.275 10.275z" fill="#fff"/><path d="M404.369 481.714v-10.275" stroke="#E1E4E5" stroke-width="4"/><path fill-rule="evenodd" clip-rule="evenodd" d="M699.799 474.008v-10.276 10.276z" fill="#fff"/><path d="M699.799 474.008v-10.276" stroke="#E1E4E5" stroke-width="4"/><path fill-rule="evenodd" clip-rule="evenodd" d="M251.516 462.447v-10.276 10.276z" fill="#fff"/><path d="M251.516 462.447v-10.276" stroke="#E1E4E5" stroke-width="4"/><path fill-rule="evenodd" clip-rule="evenodd" d="M593.187 426.061v-6.423 6.423z" fill="#fff"/><path d="M593.187 426.061v-6.423" stroke="#E1E4E5" stroke-width="4"/><path fill-rule="evenodd" clip-rule="evenodd" d="M734.479 333.578v-6.422 6.422z" fill="#fff"/><path d="M734.479 333.578v-6.422" stroke="#E1E4E5" stroke-width="4"/><path fill-rule="evenodd" clip-rule="evenodd" d="M146.189 467.585v-6.422 6.422z" fill="#fff"/><path d="M146.189 467.585v-6.422" stroke="#E1E4E5" stroke-width="4"/><path fill-rule="evenodd" clip-rule="evenodd" d="M440.334 481.714v-6.422 6.422z" fill="#fff"/><path d="M440.334 481.714v-6.422" stroke="#E1E4E5" stroke-width="4"/><path fill-rule="evenodd" clip-rule="evenodd" d="M735.764 474.007v-6.422 6.422z" fill="#fff"/><path d="M735.764 474.007v-6.422" stroke="#E1E4E5" stroke-width="4"/><path fill-rule="evenodd" clip-rule="evenodd" d="M287.482 462.447v-6.422 6.422z" fill="#fff"/><path d="M287.482 462.447v-6.422" stroke="#E1E4E5" stroke-width="4"/><path fill-rule="evenodd" clip-rule="evenodd" d="M667.687 333.578v-10.275 10.275z" fill="#fff"/><path d="M667.687 333.578v-10.275" stroke="#E1E4E5" stroke-width="4"/><path fill-rule="evenodd" clip-rule="evenodd" d="M79.396 467.585v-10.276 10.276z" fill="#fff"/><path d="M79.396 467.585v-10.276" stroke="#E1E4E5" stroke-width="4"/><path fill-rule="evenodd" clip-rule="evenodd" d="M373.542 481.714v-10.275 10.275z" fill="#fff"/><path d="M373.542 481.714v-10.275" stroke="#E1E4E5" stroke-width="4"/><path fill-rule="evenodd" clip-rule="evenodd" d="M194.092 528.784v-14.129 14.129z" fill="#fff"/><path d="M194.092 528.784v-14.129" stroke="#E1E4E5" stroke-width="4"/><path fill-rule="evenodd" clip-rule="evenodd" d="M209.506 528.784v-10.276 10.276z" fill="#fff"/><path d="M209.506 528.784v-10.276" stroke="#E1E4E5" stroke-width="4"/><path fill-rule="evenodd" clip-rule="evenodd" d="M245.471 528.784v-6.422 6.422z" fill="#fff"/><path d="M245.471 528.784v-6.422" stroke="#E1E4E5" stroke-width="4"/><path fill-rule="evenodd" clip-rule="evenodd" d="M178.678 528.784v-10.276 10.276z" fill="#fff"/><path d="M178.678 528.784v-10.276" stroke="#E1E4E5" stroke-width="4"/><path fill-rule="evenodd" clip-rule="evenodd" d="M557.609 533.099v-14.13 14.13z" fill="#fff"/><path d="M557.609 533.099v-14.13" stroke="#E1E4E5" stroke-width="4"/><path fill-rule="evenodd" clip-rule="evenodd" d="M573.023 533.099v-10.276 10.276z" fill="#fff"/><path d="M573.023 533.099v-10.276" stroke="#E1E4E5" stroke-width="4"/><path fill-rule="evenodd" clip-rule="evenodd" d="M608.988 533.099v-6.423 6.423z" fill="#fff"/><path d="M608.988 533.099v-6.423" stroke="#E1E4E5" stroke-width="4"/><path fill-rule="evenodd" clip-rule="evenodd" d="M542.195 533.099v-10.276 10.276z" fill="#fff"/><path d="M542.195 533.099v-10.276" stroke="#E1E4E5" stroke-width="4"/><path fill-rule="evenodd" clip-rule="evenodd" d="M668.971 474.008v-10.276 10.276z" fill="#fff"/><path d="M668.971 474.008v-10.276" stroke="#E1E4E5" stroke-width="4"/><path fill-rule="evenodd" clip-rule="evenodd" d="M220.689 462.447v-10.276 10.276z" fill="#fff"/><path d="M220.689 462.447v-10.276" stroke="#E1E4E5" stroke-width="4"/><path fill-rule="evenodd" clip-rule="evenodd" d="M71.888 248.877c0 28.283 30.288 58.771 41.337 68.953 2.289 2.11 5.654 2.11 7.943 0 11.042-10.182 41.33-40.67 41.33-68.953 0-24.789-20.284-44.884-45.305-44.884-25.02 0-45.305 20.095-45.305 44.884z" fill="#009688"/><path d="M117.092 238.668v23.215m11.608-11.607h-23.216" stroke="#fff" stroke-width="6.622" stroke-linecap="round" stroke-linejoin="round"/><path fill-rule="evenodd" clip-rule="evenodd" d="M723.415 230.539c0 28.283 30.287 58.772 41.336 68.954 2.289 2.109 5.654 2.109 7.943 0 11.043-10.182 41.33-40.671 41.33-68.954 0-24.789-20.284-44.884-45.305-44.884-25.02 0-45.304 20.095-45.304 44.884z" fill="#009688"/><path d="M768.618 220.33v23.216m11.608-11.608H757.01" stroke="#fff" stroke-width="6.622" stroke-linecap="round" stroke-linejoin="round"/><path fill-rule="evenodd" clip-rule="evenodd" d="M261.004 156.293c9.6 0 5.108-15.223-7.054-11.587-.674-21.138-35.127-36.604-49.374-8.094-4.028-3.187-13.073 2.833-11.07 8.094-4.475.381-7.995.899-10.733 1.584-6.324 1.583-5.072 9.931 1.446 9.873l76.785.13zm311.103-47.224c8.514 0 4.53-13.512-6.256-10.285-.598-18.762-31.154-32.49-43.79-7.184-3.572-2.829-11.594 2.515-9.818 7.184-3.968.339-7.09.798-9.519 1.406-5.608 1.405-4.498 8.815 1.283 8.764l68.1.115zm171.127 37.003h-42.201c-3.773 0-5.398-4.845-2.311-6.994l.131-.091c4.396-2.997 10.165-2.725 10.165-2.725s.824-16.214 16.347-16.214c14.034 0 19.631 13.662 21.649 21.188.656 2.446-1.228 4.836-3.78 4.836zm-317.597-6.665h51.669c4.619 0 6.609-6.027 2.829-8.7a6.49 6.49 0 0 0-.16-.113c-5.382-3.728-12.446-3.389-12.446-3.389s-1.008-20.169-20.013-20.169c-17.183 0-24.035 16.994-26.507 26.356-.803 3.041 1.505 6.015 4.628 6.015zM226.954 93.024h35.449c3.17 0 4.535-4.1 1.942-5.918l-.11-.078c-3.693-2.535-8.539-2.305-8.539-2.305s-.692-13.72-13.731-13.72c-11.789 0-16.49 11.56-18.186 17.929-.551 2.069 1.032 4.092 3.175 4.092zm93.52 35.032h-35.449c-3.169 0-4.535-4.1-1.941-5.919l.11-.077c3.693-2.535 8.539-2.305 8.539-2.305s.692-13.72 13.731-13.72c11.789 0 16.49 11.56 18.186 17.929.55 2.069-1.033 4.092-3.176 4.092zm-162.239-18.987h35.475c3.172 0 4.538-4.218 1.943-6.088a4.415 4.415 0 0 0-.11-.08c-3.696-2.608-8.546-2.371-8.546-2.371s-.692-14.114-13.741-14.114c-11.797 0-16.501 11.892-18.198 18.443-.552 2.129 1.033 4.21 3.177 4.21zm246.695-3.918h-69.314c-5.611 0-8.032-7.103-3.438-10.255l.195-.132c6.539-4.394 15.121-3.995 15.121-3.995S348.721 67 371.812 67c11.416 0 20.642 19.076 20.642 19.076s15.53 0 18.1 11.985c.777 3.63-1.827 7.09-5.624 7.09zm207.541.885h71.807c6.74 0 6.431-5.434 4.229-7.327-2.256-1.94-6.715-1.154-6.715-1.154s-1.328-3.655-5.697-5.434c-3.865-1.574-7.914-.825-7.914-.825s0-2.508-2.475-4.586c-2.475-2.077-5.774-1.875-5.774-1.875s-2.269-13.831-17.426-13.831c-15.158 0-16.911 13.023-16.911 13.023s-3.403 0-5.878 2.221-2.784 4.745-2.784 4.745-8.276-1.092-10.724 5.898c-1.459 4.166 1.538 9.145 6.262 9.145z" fill="#fff" stroke="#E1E4E5" stroke-width="4"/><defs><linearGradient id="a" x1="446.751" y1="461.422" x2="447.657" y2="202.813" gradientUnits="userSpaceOnUse"><stop stop-color="#fff"/><stop offset="1" stop-color="#EEE"/></linearGradient></defs></svg>