<svg width="900" height="600" viewBox="0 0 900 600" fill="none" xmlns="http://www.w3.org/2000/svg"><path fill="transparent" d="M0 0h900v600H0z"/><path d="M724.156 235.989c-13.417 23.946-42.802 27.236-89.878 22.686-35.405-3.429-67.692-6.082-103.1-25.387-24.782-13.502-44.4-31.771-58.718-49.513-15.516-19.222-37.173-41.159-26.556-62.953 14.59-29.938 98.962-55.152 180.89-13.918 89.998 45.308 110.488 105.682 97.362 129.085z" fill="url(#a)"/><path d="M815.194 286.538c-25.277 12.538-58.825-3.584-58.825-3.584s7.456-36.444 32.746-48.965c25.276-12.538 58.811 3.566 58.811 3.566s-7.456 36.444-32.732 48.983z" fill="url(#b)"/><path d="M97.217 378.175c33.026 19.794 80.409 1.496 80.409 1.496s-6.196-50.383-39.242-70.155c-33.027-19.794-80.389-1.519-80.389-1.519s6.196 50.384 39.222 70.178z" fill="url(#c)"/><circle cx="765.46" cy="202.519" r="13.801" transform="rotate(180 765.46 202.519)" fill="#009688"/><circle cx="245.638" cy="280.695" r="15.527" transform="rotate(180 245.638 280.695)" fill="#009688"/><circle r="12.939" transform="matrix(-1 0 0 1 141.619 189.435)" fill="#009688"/><circle r="6.038" transform="matrix(-1 0 0 1 647.096 256.717)" fill="#009688"/><circle r="7.763" transform="matrix(-1 0 0 1 681.943 526.144)" fill="#E1E4E5"/><circle r="11.214" transform="matrix(-1 0 0 1 139.305 445.534)" fill="#E1E4E5"/><circle r="8.535" transform="matrix(-1 0 0 1 268.985 159.015)" fill="#E1E4E5"/><circle r="9.488" transform="matrix(-1 0 0 1 683.339 160.598)" fill="#E1E4E5"/><circle r="8.521" transform="scale(1 -1) rotate(-75 -92.312 -241.653)" fill="#E1E4E5"/><circle r="11.335" transform="matrix(-1 0 0 1 381.364 87.415)" fill="#E1E4E5"/><ellipse rx="8.719" ry="6.975" transform="matrix(-1 0 0 1 742.844 377.158)" fill="#E1E4E5"/><circle r="17.733" transform="scale(1 -1) rotate(-75 232.572 -420.33)" fill="#E1E4E5"/><path d="M808.967 328.983h.228c1.351 19.138 15.584 19.432 15.584 19.432s-15.695.307-15.695 22.42c0-22.113-15.695-22.42-15.695-22.42s14.227-.294 15.578-19.432zM235.675 515.038h.202c1.199 17.322 13.828 17.588 13.828 17.588s-13.926.278-13.926 20.292c0-20.014-13.927-20.292-13.927-20.292s12.624-.266 13.823-17.588z" fill="#E1E4E5"/><path d="M537.402 427.422c8.546.256 17.175-2.878 23.698-9.401 12.553-12.554 12.553-32.908 0-45.462-12.554-12.553-32.908-12.553-45.462 0a32.02 32.02 0 0 0-9.319 20.239c-.521 6.734-1.947 13.758-6.722 18.534a9.463 9.463 0 0 1-13.38 0l-27.406-27.407c-6.277-6.277-16.454-6.277-22.731 0l-25.672 25.672c-5.197 5.197-4.225 10.333 3.124 10.375 8.166.046 16.318 3.184 22.548 9.415 12.554 12.553 12.554 32.907 0 45.461-12.554 12.554-32.908 12.554-45.462 0a32.025 32.025 0 0 1-9.352-20.718c-.073-1.159.074-2.378.27-3.598 1.062-6.574-5.393-6.67-10.102-1.961l-14.912 14.912c-6.277 6.277-6.277 16.454 0 22.731l90.923 90.923c6.277 6.277 16.454 6.277 22.731-.001l13.592-13.595 65.964-65.964c6.277-6.277 6.277-16.454 0-22.731l-24.958-24.957c-5.046-5.046-5.046-13.228 0-18.274 3.262-3.261 8.018-4.331 12.628-4.193zM361.759 172.073c-8.546-.255-17.174 2.879-23.697 9.401-12.554 12.554-12.554 32.908 0 45.462 12.554 12.554 32.908 12.554 45.462 0a32.022 32.022 0 0 0 9.319-20.239c.52-6.734 1.946-13.757 6.722-18.533 3.695-3.695 9.685-3.695 13.379 0l27.407 27.407c6.277 6.277 16.454 6.277 22.731 0l25.671-25.672c5.197-5.197 4.226-10.334-3.124-10.375-8.166-.046-16.317-3.185-22.547-9.415-12.554-12.554-12.554-32.908 0-45.462 12.554-12.554 32.907-12.554 45.461 0a32.024 32.024 0 0 1 9.353 20.718c.072 1.159-.074 2.379-.271 3.598-1.061 6.574 5.393 6.671 10.102 1.962l14.912-14.912c6.277-6.277 6.277-16.454.001-22.731l-90.923-90.923c-6.278-6.277-16.455-6.277-22.732 0l-13.591 13.595-65.965 65.965c-6.276 6.277-6.276 16.453.001 22.73l24.957 24.958c5.046 5.046 5.046 13.227 0 18.273-3.261 3.261-8.017 4.331-12.628 4.193zm208.063 48.773c.256-8.546-2.878-17.175-9.4-23.697-12.554-12.554-32.908-12.554-45.462 0-12.554 12.553-12.554 32.907 0 45.461a32.017 32.017 0 0 0 20.239 9.319c6.734.521 13.757 1.947 18.533 6.723 3.695 3.694 3.695 9.684 0 13.379l-27.407 27.406c-6.277 6.277-6.277 16.454 0 22.731l25.672 25.672c5.197 5.197 10.333 4.225 10.375-3.124.046-8.166 3.185-16.318 9.415-22.548 12.554-12.554 32.908-12.554 45.462 0 12.553 12.554 12.553 32.908 0 45.462a32.023 32.023 0 0 1-20.719 9.352c-1.158.073-2.378-.074-3.597-.27-6.575-1.062-6.671 5.393-1.962 10.102l14.912 14.912c6.277 6.277 16.454 6.277 22.731 0l90.923-90.923c6.277-6.277 6.277-16.454 0-22.731l-13.595-13.592-65.965-65.964c-6.277-6.277-16.454-6.277-22.73 0l-24.958 24.958c-5.046 5.046-13.227 5.046-18.273 0-3.262-3.262-4.331-8.018-4.194-12.628zM329.339 378.65c-.255 8.546 2.878 17.174 9.401 23.697 12.554 12.554 32.908 12.554 45.462 0 12.554-12.554 12.554-32.908 0-45.462a32.022 32.022 0 0 0-20.239-9.319c-6.734-.52-13.758-1.946-18.533-6.722-3.695-3.695-3.695-9.685 0-13.379l27.406-27.407c6.277-6.277 6.277-16.454 0-22.731l-25.671-25.671c-5.197-5.197-10.334-4.226-10.375 3.124-.047 8.166-3.185 16.317-9.415 22.547-12.554 12.554-32.908 12.554-45.462 0-12.554-12.553-12.554-32.907 0-45.461a32.022 32.022 0 0 1 20.718-9.353c1.159-.072 2.379.074 3.598.271 6.574 1.061 6.671-5.393 1.962-10.102l-14.913-14.912c-6.277-6.277-16.453-6.277-22.73 0l-90.923 90.923c-6.277 6.277-6.277 16.454 0 22.731l13.595 13.591 65.965 65.965c6.277 6.276 16.453 6.276 22.73-.001l24.958-24.957c5.046-5.046 13.227-5.046 18.273 0 3.261 3.261 4.331 8.018 4.193 12.628z" fill="#009688"/><path fill-rule="evenodd" clip-rule="evenodd" d="M483.995 303.271h-4.522a1.974 1.974 0 0 1-1.973-1.973v-4.521c0-1.094.889-1.974 1.973-1.974h4.522c1.083 0 1.973.89 1.973 1.974v4.521a1.969 1.969 0 0 1-1.973 1.973zm-15.676 0h-4.521a1.981 1.981 0 0 1-1.974-1.973v-4.521c0-1.094.89-1.974 1.974-1.974h4.521c1.084 0 1.973.89 1.973 1.974v4.521a1.98 1.98 0 0 1-1.973 1.973zm-15.685 0h-4.521a1.98 1.98 0 0 1-1.973-1.973v-4.521c0-1.094.889-1.974 1.973-1.974h4.521c1.084 0 1.974.89 1.974 1.974v4.521a1.97 1.97 0 0 1-1.974 1.973zm-15.676 0h-4.521a1.98 1.98 0 0 1-1.973-1.973v-4.521c0-1.094.889-1.974 1.973-1.974h4.521c1.093 0 1.983.89 1.983 1.974v4.521a1.995 1.995 0 0 1-1.983 1.973zm-15.676 0h-4.521a1.983 1.983 0 0 1-1.983-1.973v-4.521c0-1.094.89-1.974 1.983-1.974h4.521c1.084 0 1.973.89 1.973 1.974v4.521a1.98 1.98 0 0 1-1.973 1.973zm46.462-17.092h-4.521a1.981 1.981 0 0 1-1.973-1.974v-4.53a1.98 1.98 0 0 1 1.973-1.973h4.521c1.093 0 1.974.889 1.974 1.973v4.521a1.972 1.972 0 0 1-1.974 1.983zm-15.676 0h-4.521a1.981 1.981 0 0 1-1.973-1.974v-4.53a1.98 1.98 0 0 1 1.973-1.973h4.521c1.084 0 1.974.889 1.974 1.973v4.521a1.972 1.972 0 0 1-1.974 1.983zm-15.675 0h-4.521a1.984 1.984 0 0 1-1.983-1.974v-4.53c0-1.084.89-1.973 1.983-1.973h4.521a1.98 1.98 0 0 1 1.973 1.973v4.521a1.983 1.983 0 0 1-1.973 1.983zm16.241 35.455h-4.521a1.98 1.98 0 0 1-1.973-1.973v-4.521c0-1.093.889-1.973 1.973-1.973h4.521c1.084 0 1.974.889 1.974 1.973v4.521a1.97 1.97 0 0 1-1.974 1.973zm15.392 0h-4.521a1.98 1.98 0 0 1-1.973-1.973v-4.521c0-1.093.889-1.973 1.973-1.973h4.521c1.084 0 1.974.889 1.974 1.973v4.521a1.969 1.969 0 0 1-1.974 1.973zm-31.068 0h-4.521a1.98 1.98 0 0 1-1.973-1.973v-4.521c0-1.093.889-1.973 1.973-1.973h4.521c1.093 0 1.983.889 1.983 1.973v4.521a1.995 1.995 0 0 1-1.983 1.973z" fill="#E1E4E5"/><defs><linearGradient id="a" x1="633.77" y1="391.179" x2="514.18" y2="-146.208" gradientUnits="userSpaceOnUse"><stop stop-color="#fff"/><stop offset="1" stop-color="#EEE"/></linearGradient><linearGradient id="b" x1="718.13" y1="325.649" x2="926.61" y2="160.74" gradientUnits="userSpaceOnUse"><stop stop-color="#fff"/><stop offset="1" stop-color="#EEE"/></linearGradient><linearGradient id="c" x1="225.02" y1="441.891" x2="-40.722" y2="194.981" gradientUnits="userSpaceOnUse"><stop stop-color="#fff"/><stop offset="1" stop-color="#EEE"/></linearGradient></defs></svg>