<svg width="900" height="600" viewBox="0 0 900 600" fill="none" xmlns="http://www.w3.org/2000/svg"><path fill="transparent" d="M0 0h900v600H0z"/><path d="M721.739 389.759c-8.411-34.218-87.899-84.19-130.376-54.062-13.038-65.188-25.234-105.839-67.832-137.952-42.598-32.113-113.674 9.862-125.089 97.781-11.416-36.142-69.454-84.852-116.077-43.779-43.139 38.006-47.465 101.69-42.958 137.952h482.332v.06z" fill="url(#a)"/><path d="M664.045 329.246a97.21 97.21 0 0 1-1.438-13.548c-.306-9.018.715-19.734 5.636-27.582 5.119-8.152 11.423-14.366 17.392-17.861 6.063-3.551 11.251-4.037 14.665-1.892l.002.001c3.414 2.139 5.234 7.023 4.674 14.029-.551 6.897-3.402 15.278-8.514 23.431-4.977 7.936-13.525 13.995-21.013 18.105a97.556 97.556 0 0 1-9.584 4.59c-.683.282-1.294.524-1.82.727zm-49.37-32.387.001-.001c3.754-1.458 8.759-.001 14.044 4.629 5.204 4.557 10.224 11.845 13.711 20.811 3.394 8.73 3.151 19.201 1.977 27.661a97.31 97.31 0 0 1-2.04 10.426 88.229 88.229 0 0 1-.503 1.894 91.1 91.1 0 0 1-2.057-1.056 97.17 97.17 0 0 1-9.67-5.872c-7.416-5.135-15.402-12.349-18.758-20.987-3.486-8.974-4.706-17.74-3.946-24.614.771-6.982 3.481-11.433 7.241-12.891zm5.347 122.756.002-.008a93.106 93.106 0 0 0 1.664-11.07l.001-.005c.72-7.957.409-17.158-2.77-24.915-3.655-8.9-8.811-16.092-14.099-20.55-5.372-4.528-10.403-5.888-14.128-4.357l-.003.001c-3.723 1.525-6.349 6.029-6.991 13.029-.633 6.89.749 15.633 4.403 24.533l31.921 23.342zm0 0a87.593 87.593 0 0 1-.925 3.993m.925-3.993-.925 3.993m0 0-.351-.166c-3.349-1.611-9.6-4.888-15.743-9.562-6.176-4.7-12.052-10.669-14.902-17.607l30.996 27.335zm27.043-59.058c.42-.499.927-1.088 1.514-1.748a97.363 97.363 0 0 1 8-8.006c6.75-5.99 15.653-12.04 24.836-13.253 9.539-1.26 18.342-.368 24.842 1.998 6.601 2.404 10.289 6.09 10.821 10.084.53 3.999-2.07 8.519-7.821 12.557-5.661 3.975-13.932 7.123-23.471 8.384-9.288 1.226-19.407-1.49-27.351-4.631a97.346 97.346 0 0 1-11.37-5.385zm14.697 65.809c-9.107 2.188-19.451.54-27.677-1.758a97.46 97.46 0 0 1-10.058-3.422 86.8 86.8 0 0 1-1.808-.752c.366-.54.809-1.178 1.324-1.896a97.336 97.336 0 0 1 7.124-8.795c6.089-6.66 14.314-13.605 23.318-15.768 9.353-2.248 18.204-2.279 24.915-.602 6.818 1.703 10.869 4.987 11.81 8.908.942 3.922-1.175 8.688-6.473 13.302-5.216 4.543-13.114 8.536-22.475 10.783z" fill="#fff" stroke="#E1E4E5" stroke-width="4"/><path d="M626.328 411.774a818.716 818.716 0 0 0-4.475 12.764l-.962-.118-.024-.011-.511-.232c1.765-5.175 3.5-10.1 5.206-14.795l.001-.002c19.797-54.687 34.899-78.142 39.17-84.192l1.215.973c-4.349 6.23-19.802 30.552-39.62 85.613zM276.817 304.628c.349-1.09.803-2.565 1.306-4.355a143.876 143.876 0 0 0 3.58-16.339c2.064-13.138 2.527-29.169-3.365-41.745-6.055-12.903-14.218-23.214-22.434-29.483-8.303-6.336-16.165-8.219-22-5.48l-.002.001c-5.833 2.73-9.415 9.981-9.856 20.419-.437 10.329 2.265 23.201 8.31 36.103 5.937 12.671 17.466 23.141 27.689 30.502a143.956 143.956 0 0 0 13.235 8.455c1.419.801 2.619 1.444 3.537 1.922zm79.961-34.557-.001-.001c-5.673-3.044-13.628-1.588-22.264 4.287-8.545 5.814-17.256 15.662-23.995 28.212-6.619 12.325-8.134 27.82-7.934 40.413.099 6.267.622 11.749 1.119 15.662.205 1.617.406 2.964.571 3.985 1.082-.369 2.536-.885 4.272-1.55a143.286 143.286 0 0 0 15.243-6.874c11.769-6.183 24.905-15.379 31.474-27.621 6.74-12.56 10.137-25.264 10.259-35.597.124-10.441-3.062-17.872-8.744-20.916zm-31.095 178.833.001.009c.254 3.049.56 5.507.789 7.144.472-.152 1.013-.328 1.619-.53 5.199-1.76 14.96-5.442 24.823-11.202 9.9-5.78 19.696-13.534 25.207-23.347 6.974-12.421 10.604-25.062 10.918-35.396.318-10.443-2.728-17.937-8.34-21.082l-.002-.001c-5.613-3.154-13.593-1.851-22.338 3.859-8.652 5.65-17.548 15.333-24.522 27.756-6.125 10.925-8.232 24.453-8.606 36.242v.005c-.216 6.316.059 12.067.451 16.543zm-25.896-84.547a122.948 122.948 0 0 0-2.52-3.784 143.513 143.513 0 0 0-10.297-13.184c-8.8-9.973-20.85-20.557-34.293-24.037-13.792-3.57-26.936-3.859-37.005-1.531-10.175 2.353-16.646 7.206-18.266 13.439-1.62 6.242 1.679 13.629 9.433 20.627 7.673 6.924 19.309 13.051 33.101 16.621 13.545 3.507 28.964 1.31 41.156-1.863a144.5 144.5 0 0 0 14.956-4.792 123.469 123.469 0 0 0 3.735-1.496zm-33.822 93.652c13.104 4.9 28.663 4.319 41.116 2.43a143.96 143.96 0 0 0 15.37-3.211c1.574-.42 2.881-.8 3.871-1.1a126.03 126.03 0 0 0-2.113-4.026 143.5 143.5 0 0 0-8.869-14.184c-7.714-10.834-18.595-22.616-31.599-27.478-13.342-4.989-26.387-6.647-36.646-5.38-10.367 1.281-17.308 5.436-19.564 11.475-2.256 6.039.255 13.729 7.238 21.495 6.91 7.685 17.844 14.99 31.196 19.979z" fill="#fff" stroke="#E1E4E5" stroke-width="4"/><path d="M272.455 303.415c.239.358 21.247 35.584 43.51 133.517a1225.087 1225.087 0 0 1 4.898 22.542l.478-.1 3.505-.737v-.02h.02l.139-.02c.438-.139 1.753-.537 3.724-1.194a1177.97 1177.97 0 0 0-5.496-25.131c-22.303-97.275-42.933-131.606-43.849-133.139l-6.929 4.282z" fill="#E1E4E5"/><path fill-rule="evenodd" clip-rule="evenodd" d="M601.104 287.536c0 69.585-56.407 125.992-125.991 125.992-69.585 0-125.992-56.407-125.992-125.992 0-69.585 56.407-125.992 125.992-125.992 69.584 0 125.991 56.407 125.991 125.992z" fill="#fff" stroke="#009688" stroke-width="28.062" stroke-linecap="round" stroke-linejoin="round"/><path d="m628.594 441.017-53.833-53.833" stroke="#009688" stroke-width="28.062" stroke-linecap="round" stroke-linejoin="round"/><path d="M286.722 190.521a7.34 7.34 0 0 1-7.347 7.338c-4.059 0-7.33-3.299-7.33-7.338a7.34 7.34 0 0 1 7.347-7.338 7.326 7.326 0 0 1 7.33 7.338z" stroke="#E1E4E5" stroke-width="6.319" stroke-miterlimit="10"/><circle r="10.346" transform="scale(-1 1) rotate(54.927 -375.76 -432.201)" fill="#E1E4E5"/><path d="m604.101 165.926.468-.557v-16.867c0-17.393 14.098-31.502 31.503-31.502h13.126c17.393 0 31.502 14.109 31.502 31.502 0 17.394-14.109 31.503-31.502 31.503h-56.909l11.812-14.079z" fill="#fff" stroke="#E1E4E5" stroke-width="4"/><path d="M626.386 148.445a3.958 3.958 0 0 1-3.956 3.956 3.959 3.959 0 0 1-3.956-3.956 3.959 3.959 0 0 1 3.956-3.956 3.958 3.958 0 0 1 3.956 3.956zm20.239 0a3.958 3.958 0 0 1-3.956 3.956 3.958 3.958 0 0 1-3.956-3.956 3.958 3.958 0 0 1 3.956-3.956 3.958 3.958 0 0 1 3.956 3.956zm20.239 0a3.958 3.958 0 0 1-3.956 3.956 3.958 3.958 0 0 1-3.956-3.956 3.958 3.958 0 0 1 3.956-3.956 3.958 3.958 0 0 1 3.956 3.956z" fill="#E1E4E5" stroke="#E1E4E5" stroke-width="4"/><path d="M396.082 454.761h93.921m29.779 0h40.089m-163.789 24.837h27.036m24.506.362h112.247" stroke="#E1E4E5" stroke-width="4" stroke-miterlimit="10" stroke-linecap="round" stroke-linejoin="round"/><path d="M205.829 171.621c-43.616 11.307-53.121 69.568-28.061 97.044" stroke="#E1E4E5" stroke-width="1.145" stroke-miterlimit="10" stroke-dasharray="4.76 4.76"/><path d="M179.017 269.966a39.498 39.498 0 0 0 2.589 2.422" stroke="#E1E4E5" stroke-width="1.145" stroke-miterlimit="10"/><path d="M181.856 262.361c5.533.268 9.813 4.955 9.544 10.488-.252 5.525-4.955 9.813-10.487 9.544-5.533-.268-9.813-4.955-9.545-10.488.261-5.548 4.955-9.813 10.488-9.544z" fill="#E1E4E5"/><path d="M322.609 174.774c3.28-44.939 58.882-64.765 90.417-45.054" stroke="#E1E4E5" stroke-width="1.145" stroke-miterlimit="10" stroke-dasharray="4.76 4.76"/><path d="M713.205 152.136a40.036 40.036 0 0 1 2.112-2.848" stroke="#E1E4E5" stroke-width="1.145" stroke-miterlimit="10"/><path d="M407.559 134.875c1.259 5.395 6.639 8.762 12.033 7.503 5.39-1.242 8.762-6.638 7.503-12.033-1.259-5.394-6.638-8.762-12.033-7.503-5.411 1.255-8.762 6.639-7.503 12.033z" fill="#E1E4E5"/><path d="M478.16 103.937c28.258-25.803 74.128-5.572 82.071 24.995" stroke="#E1E4E5" stroke-width="1.145" stroke-miterlimit="10" stroke-dasharray="4.76 4.76"/><path d="M553.85 128.921c-2.373 4.062-1.021 9.28 3.041 11.653 4.05 2.38 9.281 1.02 11.653-3.042 2.373-4.062 1.021-9.28-3.042-11.653a8.501 8.501 0 0 0-11.652 3.042z" fill="#E1E4E5"/><path d="M195.774 408.54c.127.398.01.834-.298 1.116l-10.564 9.635a1.071 1.071 0 0 1-1.743-.467l-4.331-13.626a1.073 1.073 0 0 1 .3-1.116l10.562-9.631a1.072 1.072 0 0 1 1.743.467l4.331 13.622z" stroke="#E1E4E5" stroke-width="3.436" stroke-miterlimit="10"/><path d="M650.378 232.766a1.07 1.07 0 0 1-.934.68l-17.105 1.019a1.071 1.071 0 0 1-1.062-1.459l6.232-15.961c.152-.39.517-.655.935-.68l17.1-1.016a1.072 1.072 0 0 1 1.062 1.459l-6.228 15.958z" stroke="#E1E4E5" stroke-width="4.148" stroke-miterlimit="10"/><path d="M358.538 182.304c-6.424-3.125-9.346-10.742-6.542-16.999 2.803-6.257 10.296-8.782 16.735-5.643" fill="#E1E4E5"/><defs><linearGradient id="a" x1="490.184" y1="503.437" x2="487.563" y2="-33.627" gradientUnits="userSpaceOnUse"><stop stop-color="#fff"/><stop offset="1" stop-color="#EEE"/></linearGradient></defs></svg>