<svg width="900" height="600" viewBox="0 0 900 600" fill="none" xmlns="http://www.w3.org/2000/svg"><path fill="transparent" d="M0 0h900v600H0z"/><circle cx="456.603" cy="300.263" r="277.743" stroke="url(#a)" stroke-width="3.171"/><path d="M444.658 376.081c-17.926-3.924-25.746-22.079-31.993-53.076-4.694-23.313-9.278-44.48-3.817-70.883 3.815-18.479 11.684-34.58 20.248-47.19 9.276-13.663 19.095-31.783 35.1-29.231 21.988 3.508 54.528 52.57 44.09 112.995-11.474 66.378-46.105 91.228-63.628 87.385z" fill="url(#b)"/><path d="M762.065 348.625c-25.349 12.575-58.994-3.594-58.994-3.594s7.478-36.548 32.84-49.105c25.349-12.575 58.98 3.576 58.98 3.576s-7.477 36.549-32.826 49.123z" fill="url(#c)"/><path d="M151.534 432.357c33.121 19.851 80.64 1.501 80.64 1.501s-6.213-50.529-39.355-70.357c-33.121-19.851-80.62-1.523-80.62-1.523s6.213 50.528 39.335 70.379z" fill="url(#d)"/><circle cx="749.207" cy="159.451" r="13.841" transform="rotate(180 749.207 159.451)" fill="#009688"/><circle cx="337.644" cy="550.16" r="15.571" transform="rotate(180 337.644 550.16)" fill="#009688"/><circle r="12.976" transform="matrix(-1 0 0 1 145.991 189.364)" fill="#009688"/><circle r="6.056" transform="matrix(-1 0 0 1 660.028 328.186)" fill="#009688"/><circle r="7.786" transform="matrix(-1 0 0 1 508.501 503.265)" fill="#E1E4E5"/><circle r="11.246" transform="matrix(-1 0 0 1 143.67 446.2)" fill="#E1E4E5"/><circle r="8.559" transform="matrix(-1 0 0 1 254.518 106.604)" fill="#E1E4E5"/><circle r="9.516" transform="matrix(-1 0 0 1 361.773 374.791)" fill="#E1E4E5"/><circle r="8.545" transform="scale(1 -1) rotate(-75 -90.194 -244.623)" fill="#E1E4E5"/><circle r="11.368" transform="matrix(-1 0 0 1 386.426 87.051)" fill="#E1E4E5"/><ellipse rx="8.744" ry="6.996" transform="matrix(-1 0 0 1 580.279 415.8)" fill="#E1E4E5"/><circle r="17.784" transform="scale(1 -1) rotate(-75 254.848 -404.609)" fill="#E1E4E5"/><path d="M700.257 414.089h.228c1.355 19.194 15.629 19.489 15.629 19.489s-15.74.307-15.74 22.485c0-22.178-15.74-22.485-15.74-22.485s14.268-.295 15.623-19.489zm-459.94 101.816h.203c1.202 17.371 13.868 17.638 13.868 17.638s-13.966.278-13.966 20.35c0-20.072-13.967-20.35-13.967-20.35s12.66-.267 13.862-17.638z" fill="#E1E4E5"/><circle cx="544.744" cy="206.206" r="108.756" fill="#009688"/><path d="M588.454 213.457h-43.502v-72.504" stroke="#fff" stroke-width="21.14" stroke-linejoin="round"/><path d="M242.142 213.991c-6.077-22.877 12.154-44.037 35.825-44.037h51.069c9.196 0 17.064 6.492 19.249 15.424 5.848 23.906 13.86 46.525 24.814 67.849 4.731 9.209 2.237 20.689-6.377 26.432l-14.17 9.447c-4.311 2.873-5.596 8.649-2.819 13.022 27.37 43.118 55.972 71.719 99.089 99.09 4.374 2.776 10.149 1.491 13.023-2.819l9.447-14.171c5.742-8.614 17.223-11.108 26.431-6.377 21.324 10.955 43.942 18.966 67.849 24.814 8.932 2.185 15.424 10.054 15.424 19.249v51.069c0 23.671-21.159 41.903-44.037 35.825-143.597-38.147-256.669-151.22-294.817-294.817z" fill="#009688" stroke="#009688" stroke-width="16"/><defs><linearGradient id="a" x1="468.515" y1="892.806" x2="451.289" y2="-586.787" gradientUnits="userSpaceOnUse"><stop stop-color="#fff"/><stop offset="1" stop-color="#EEE"/></linearGradient><linearGradient id="b" x1="327.813" y1="348.455" x2="648.277" y2="167.428" gradientUnits="userSpaceOnUse"><stop stop-color="#fff"/><stop offset="1" stop-color="#EEE"/></linearGradient><linearGradient id="c" x1="664.722" y1="387.849" x2="873.802" y2="222.466" gradientUnits="userSpaceOnUse"><stop stop-color="#fff"/><stop offset="1" stop-color="#EEE"/></linearGradient><linearGradient id="d" x1="279.705" y1="496.257" x2="13.198" y2="248.636" gradientUnits="userSpaceOnUse"><stop stop-color="#fff"/><stop offset="1" stop-color="#EEE"/></linearGradient></defs></svg>