<svg width="900" height="600" viewBox="0 0 900 600" fill="none" xmlns="http://www.w3.org/2000/svg"><path fill="transparent" d="M0 0h900v600H0z"/><path d="M590.525 180.405c-91.422-13.925-193.004-13.212-280.026.001v240.023c89.099 12.426 190.927 12.585 280.026-.001V180.405z" fill="#009688"/><path d="M445.679 270.413c3.192-17.958 3.028-37.911 0-55.005h-50.523c-2.847 17.502-2.884 37.504 0 55.005h50.523zm-20.169 52.55c-19.59-3.482-41.358-3.303-60.006 0v55.116c19.093 3.107 40.913 3.146 60.006 0v-55.116zm115.01-39.156c-16.325-4.642-34.465-4.404-50.004 0v73.488c15.91 4.143 34.094 4.195 50.004 0v-73.488z" fill="#fff"/><path d="M748.96 267.114h72.171M748.96 382.589h72.171M748.96 223.811H850M748.96 339.286H850M718.583 222.001c-.83-3.549-3.276-6.343-6.381-7.292-5.628-1.724-28.197-1.724-28.197-1.724s-22.569 0-28.197 1.724c-3.105.949-5.551 3.743-6.381 7.292-1.508 6.432-1.508 19.853-1.508 19.853s0 13.42 1.508 19.853c.83 3.549 3.276 6.343 6.381 7.292 5.628 1.724 28.197 1.724 28.197 1.724s22.569 0 28.197-1.724c3.105-.949 5.551-3.743 6.381-7.292 1.508-6.433 1.508-19.853 1.508-19.853s0-13.421-1.508-19.853zm0 115.475c-.83-3.549-3.276-6.344-6.381-7.292-5.628-1.724-28.197-1.724-28.197-1.724s-22.569 0-28.197 1.724c-3.105.948-5.551 3.743-6.381 7.292-1.508 6.432-1.508 19.853-1.508 19.853s0 13.42 1.508 19.853c.83 3.548 3.276 6.343 6.381 7.292 5.628 1.723 28.197 1.723 28.197 1.723s22.569 0 28.197-1.723c3.105-.949 5.551-3.744 6.381-7.292 1.508-6.433 1.508-19.853 1.508-19.853s0-13.421-1.508-19.853zm-566.792-70.362h72.171m-72.171 115.475h72.171m-72.171-158.778h101.04m-101.04 115.475h101.04M121.413 222.001c-.829-3.549-3.275-6.343-6.38-7.292-5.628-1.724-28.197-1.724-28.197-1.724s-22.569 0-28.197 1.724c-3.105.949-5.551 3.743-6.38 7.292-1.509 6.432-1.509 19.853-1.509 19.853s0 13.42 1.508 19.853c.83 3.549 3.276 6.343 6.38 7.292 5.63 1.724 28.198 1.724 28.198 1.724s22.569 0 28.197-1.724c3.105-.949 5.551-3.743 6.38-7.292 1.509-6.433 1.509-19.853 1.509-19.853s0-13.421-1.509-19.853zm0 115.475c-.829-3.549-3.275-6.344-6.38-7.292-5.628-1.724-28.197-1.724-28.197-1.724s-22.569 0-28.197 1.724c-3.105.948-5.551 3.743-6.38 7.292-1.509 6.432-1.509 19.853-1.509 19.853s0 13.42 1.508 19.853c.83 3.548 3.276 6.343 6.38 7.292 5.63 1.723 28.198 1.723 28.198 1.723s22.569 0 28.197-1.723c3.105-.949 5.551-3.744 6.38-7.292 1.509-6.433 1.509-19.853 1.509-19.853s0-13.421-1.509-19.853z" stroke="#009688" stroke-width="14.434"/></svg>