<svg width="900" height="600" viewBox="0 0 900 600" fill="none" xmlns="http://www.w3.org/2000/svg"><path fill="transparent" d="M0 0h900v600H0z"/><path fill-rule="evenodd" clip-rule="evenodd" d="M307.706 550.643h383.505c35.999 0 34.347-29.886 22.589-40.3-12.053-10.673-35.866-6.344-35.866-6.344s-7.091-20.102-30.427-29.889c-20.642-8.657-42.267-4.538-42.267-4.538s0-13.796-13.216-25.222c-13.218-11.427-30.841-10.315-30.841-10.315s-12.114-76.076-93.068-76.076-90.316 71.632-90.316 71.632-18.173 0-31.391 12.217c-13.217 12.217-14.869 26.097-14.869 26.097s-44.201-6.005-57.274 32.442c-7.79 22.914 8.215 50.296 33.441 50.296z" fill="url(#a)"/><path fill-rule="evenodd" clip-rule="evenodd" d="M472.391 550.643h383.505c35.999 0 34.347-29.886 22.588-40.3-12.052-10.673-35.866-6.344-35.866-6.344s-7.09-20.102-30.426-29.889c-20.642-8.657-42.267-4.538-42.267-4.538s0-13.796-13.216-25.222c-13.218-11.427-30.841-10.315-30.841-10.315s-12.114-76.076-93.068-76.076-90.316 71.632-90.316 71.632-18.173 0-31.391 12.217c-13.217 12.217-14.869 26.097-14.869 26.097s-44.202-6.005-57.275 32.442c-7.79 22.914 8.216 50.296 33.442 50.296z" fill="url(#b)"/><path d="M711.701 244.38c-11.334 20.227-36.155 23.006-75.921 19.162-29.906-2.896-57.179-5.137-87.088-21.444-20.934-11.405-37.505-26.836-49.599-41.824-13.106-16.236-31.4-34.766-22.432-53.176 12.324-25.288 83.593-46.587 152.798-11.757 76.021 38.273 93.329 89.27 82.242 109.039z" fill="url(#c)"/><path d="M806.762 291.243c-22.645 11.233-52.699-3.211-52.699-3.211s6.679-32.648 29.336-43.865c22.644-11.233 52.686 3.194 52.686 3.194s-6.679 32.649-29.323 43.882z" fill="url(#d)"/><circle cx="737.364" cy="165.364" r="12.364" transform="rotate(180 737.364 165.364)" fill="#009688"/><circle cx="308.696" cy="260.696" r="11.696" transform="rotate(180 308.696 260.696)" fill="#009688"/><circle r="11.591" transform="matrix(-1 0 0 1 203.33 204.252)" fill="#009688"/><circle r="5.409" transform="matrix(-1 0 0 1 656.169 264.527)" fill="#009688"/><circle r="6.955" transform="matrix(-1 0 0 1 687.387 505.898)" fill="#E1E4E5"/><circle r="10.046" transform="matrix(-1 0 0 1 201.257 433.682)" fill="#E1E4E5"/><circle r="7.646" transform="matrix(-1 0 0 1 317.433 176.999)" fill="#E1E4E5"/><circle r="8.5" transform="matrix(-1 0 0 1 688.638 178.418)" fill="#E1E4E5"/><circle r="7.633" transform="scale(1 -1) rotate(-75 -66.98 -283.581)" fill="#E1E4E5"/><circle r="10.155" transform="matrix(-1 0 0 1 418.109 112.856)" fill="#E1E4E5"/><ellipse rx="7.811" ry="6.249" transform="matrix(-1 0 0 1 741.947 372.426)" fill="#E1E4E5"/><circle r="15.886" transform="scale(1 -1) rotate(-75 224.073 -443.651)" fill="#E1E4E5"/><path d="M801.183 329.267h.205c1.21 17.146 13.961 17.41 13.961 17.41s-14.061.274-14.061 20.085c0-19.811-14.06-20.085-14.06-20.085s12.745-.264 13.955-17.41zM287.592 495.948h.181c1.074 15.518 12.388 15.757 12.388 15.757s-12.476.248-12.476 18.179c0-17.931-12.477-18.179-12.477-18.179s11.31-.239 12.384-15.757z" fill="#E1E4E5"/><path d="M572.467 200.332c-.51-3.427-3.243-6.161-6.67-6.671-102.13-15.199-160.877 57.195-176.613 145.938l37.346 37.345c88.743-15.735 161.136-74.484 145.937-176.612z" fill="#009688" stroke="#009688" stroke-width="12.4"/><circle cx="507.227" cy="258.9" transform="rotate(45 507.227 258.9)" fill="#fff" stroke="#fff" stroke-width="12.4" r="24.8"/><path d="m496.12 353.012 12.939 37.968-31.061 37.438-32.15-55.532m-32.732-102.881-37.968-12.94-37.438 31.061 55.531 32.15" stroke="#009688" stroke-width="12.4" stroke-linejoin="round"/><path d="m380.334 357.693-40.94 41.728m-40.94 41.727 27.293-27.818m76.631-20.995-40.94 41.727m-40.94 41.728 27.294-27.819" stroke="#009688" stroke-width="12.4" stroke-linecap="round"/><path fill-rule="evenodd" clip-rule="evenodd" d="M295.926 207.663a80.716 80.716 0 0 1-11.452.813c-41.318 0-74.812-31.261-74.812-69.824 0-16.005 5.77-30.753 15.474-42.53-30.719 7.329-53.56 34.957-53.56 67.92 0 38.563 31.261 69.825 69.824 69.825 22.06 0 41.73-10.23 54.526-26.204z" fill="#E1E4E5"/><path d="m295.926 207.663 3.716 2.977a4.762 4.762 0 0 0-4.392-7.689l.676 4.712zm-70.79-111.54 3.674 3.027a4.76 4.76 0 0 0-4.779-7.658l1.105 4.63zM295.25 202.95c-3.51.503-7.109.764-10.776.764v9.522c4.12 0 8.171-.294 12.128-.861l-1.352-9.425zm-10.776.764c-39.003 0-70.051-29.434-70.051-65.063h-9.522c0 41.496 35.941 74.585 79.573 74.585v-9.522zm-70.051-65.063c0-14.831 5.339-28.522 14.387-39.502l-7.348-6.055c-10.361 12.573-16.561 28.377-16.561 45.557h9.522zm-38.086 25.39c0-30.709 21.28-56.46 49.904-63.289l-2.21-9.261c-32.813 7.828-57.216 37.334-57.216 72.55h9.522zm65.063 65.064c-35.933 0-65.063-29.13-65.063-65.064h-9.522c0 41.193 33.393 74.586 74.585 74.586v-9.522zm50.81-24.419c-11.931 14.895-30.256 24.419-50.81 24.419v9.522c23.566 0 44.581-10.935 58.242-27.988l-7.432-5.953z" fill="#E1E4E5"/><path d="M287.225 107.155c.764-2.065 3.683-2.065 4.447 0l3.162 8.543a2.37 2.37 0 0 0 1.401 1.401l8.543 3.162c2.065.763 2.065 3.683 0 4.447l-8.543 3.161a2.373 2.373 0 0 0-1.401 1.401l-3.162 8.544c-.764 2.064-3.683 2.064-4.447 0l-3.162-8.544a2.372 2.372 0 0 0-1.4-1.401l-8.544-3.161c-2.064-.764-2.064-3.684 0-4.447l8.544-3.162a2.37 2.37 0 0 0 1.4-1.401l3.162-8.543zm71.547 42.465c.764-2.064 3.683-2.064 4.447 0l3.162 8.544c.24.649.751 1.16 1.4 1.401l8.544 3.161c2.064.764 2.064 3.684 0 4.447l-8.544 3.162a2.37 2.37 0 0 0-1.4 1.401l-3.162 8.543c-.764 2.065-3.683 2.065-4.447 0l-3.162-8.543a2.372 2.372 0 0 0-1.4-1.401l-8.544-3.162c-2.065-.763-2.065-3.683 0-4.447l8.544-3.161a2.374 2.374 0 0 0 1.4-1.401l3.162-8.544zm33.067-81.88c.764-2.064 3.683-2.064 4.447 0l3.161 8.544c.241.649.752 1.16 1.401 1.4l8.544 3.162c2.064.764 2.064 3.683 0 4.447l-8.544 3.162c-.649.24-1.16.752-1.401 1.4l-3.161 8.544c-.764 2.065-3.683 2.065-4.447 0l-3.162-8.543a2.371 2.371 0 0 0-1.401-1.401l-8.543-3.162c-2.065-.764-2.065-3.683 0-4.447l8.543-3.161a2.371 2.371 0 0 0 1.401-1.401l3.162-8.544zm223.595 266.11c.764-2.064 3.684-2.064 4.447 0l3.162 8.544a2.37 2.37 0 0 0 1.401 1.401l8.543 3.161c2.065.764 2.065 3.684 0 4.447l-8.543 3.162a2.37 2.37 0 0 0-1.401 1.401l-3.162 8.544c-.763 2.064-3.683 2.064-4.447 0l-3.161-8.544a2.373 2.373 0 0 0-1.401-1.401l-8.544-3.162c-2.064-.763-2.064-3.683 0-4.447l8.544-3.161a2.373 2.373 0 0 0 1.401-1.401l3.161-8.544zm62.984-105.499c.764-2.065 3.684-2.065 4.448 0l3.161 8.543a2.37 2.37 0 0 0 1.401 1.401l8.544 3.162c2.064.764 2.064 3.683 0 4.447l-8.544 3.162a2.37 2.37 0 0 0-1.401 1.4l-3.161 8.544c-.764 2.064-3.684 2.064-4.448 0l-3.161-8.544a2.37 2.37 0 0 0-1.401-1.4l-8.544-3.162c-2.064-.764-2.064-3.683 0-4.447l8.544-3.162a2.37 2.37 0 0 0 1.401-1.401l3.161-8.543zM467.42 107.105c.764-2.064 3.684-2.064 4.447 0l3.162 8.544a2.37 2.37 0 0 0 1.401 1.401l8.544 3.161c2.064.764 2.064 3.684 0 4.448l-8.544 3.161a2.37 2.37 0 0 0-1.401 1.401l-3.162 8.544c-.763 2.064-3.683 2.064-4.447 0l-3.161-8.544a2.37 2.37 0 0 0-1.401-1.401l-8.544-3.161c-2.064-.764-2.064-3.684 0-4.448l8.544-3.161a2.37 2.37 0 0 0 1.401-1.401l3.161-8.544zM628.031 50.42c.764-2.065 3.683-2.065 4.447 0l3.162 8.543a2.37 2.37 0 0 0 1.401 1.4l8.543 3.162c2.065.764 2.065 3.684 0 4.447l-8.543 3.162a2.371 2.371 0 0 0-1.401 1.4l-3.162 8.545c-.764 2.064-3.683 2.064-4.447 0l-3.162-8.544a2.37 2.37 0 0 0-1.4-1.401l-8.544-3.162c-2.064-.763-2.064-3.683 0-4.447l8.544-3.161a2.37 2.37 0 0 0 1.4-1.401l3.162-8.544zm141.715 23.618c.764-2.064 3.684-2.064 4.447 0l3.162 8.544a2.37 2.37 0 0 0 1.401 1.401l8.544 3.161c2.064.764 2.064 3.684 0 4.448l-8.544 3.161a2.37 2.37 0 0 0-1.401 1.401l-3.162 8.544c-.763 2.064-3.683 2.064-4.447 0l-3.161-8.544a2.37 2.37 0 0 0-1.401-1.4l-8.544-3.162c-2.064-.764-2.064-3.684 0-4.448l8.544-3.161a2.37 2.37 0 0 0 1.401-1.4l3.161-8.545zm-121.245 50.388c.764-2.064 3.683-2.064 4.447 0l3.162 8.544a2.37 2.37 0 0 0 1.401 1.401l8.543 3.161c2.065.764 2.065 3.684 0 4.447l-8.543 3.162a2.37 2.37 0 0 0-1.401 1.401l-3.162 8.544c-.764 2.064-3.683 2.064-4.447 0l-3.162-8.544a2.37 2.37 0 0 0-1.4-1.401l-8.544-3.162c-2.064-.763-2.064-3.683 0-4.447l8.544-3.161a2.37 2.37 0 0 0 1.4-1.401l3.162-8.544zM231.252 435.333c.764-2.064 3.684-2.064 4.447 0l3.162 8.544a2.37 2.37 0 0 0 1.401 1.401l8.543 3.162c2.065.763 2.065 3.683 0 4.447l-8.543 3.161a2.37 2.37 0 0 0-1.401 1.401l-3.162 8.544c-.763 2.064-3.683 2.064-4.447 0l-3.161-8.544a2.373 2.373 0 0 0-1.401-1.401l-8.544-3.161c-2.064-.764-2.064-3.684 0-4.447l8.544-3.162a2.373 2.373 0 0 0 1.401-1.401l3.161-8.544zm480.233-132.975c.764-2.064 3.684-2.064 4.448 0l3.161 8.544a2.37 2.37 0 0 0 1.401 1.4l8.544 3.162c2.064.764 2.064 3.683 0 4.447l-8.544 3.162a2.37 2.37 0 0 0-1.401 1.4l-3.161 8.544c-.764 2.064-3.684 2.064-4.448 0l-3.161-8.544a2.37 2.37 0 0 0-1.401-1.4l-8.544-3.162c-2.064-.764-2.064-3.683 0-4.447l8.544-3.162a2.37 2.37 0 0 0 1.401-1.4l3.161-8.544zM599.688 418.879c.764-2.064 3.683-2.064 4.447 0l3.161 8.544a2.373 2.373 0 0 0 1.401 1.401l8.544 3.161c2.064.764 2.064 3.684 0 4.448l-8.544 3.161c-.649.24-1.16.752-1.401 1.401l-3.161 8.544c-.764 2.064-3.683 2.064-4.447 0l-3.162-8.544a2.37 2.37 0 0 0-1.401-1.401l-8.543-3.161c-2.065-.764-2.065-3.684 0-4.448l8.543-3.161a2.37 2.37 0 0 0 1.401-1.401l3.162-8.544zm-138.566 45.664c.764-2.064 3.683-2.064 4.447 0l3.162 8.544a2.37 2.37 0 0 0 1.401 1.401l8.543 3.161c2.065.764 2.065 3.684 0 4.447l-8.543 3.162a2.37 2.37 0 0 0-1.401 1.401l-3.162 8.544c-.764 2.064-3.683 2.064-4.447 0l-3.162-8.544a2.37 2.37 0 0 0-1.4-1.401l-8.544-3.162c-2.064-.763-2.064-3.683 0-4.447l8.544-3.161a2.37 2.37 0 0 0 1.4-1.401l3.162-8.544zm184.23 33.067c.763-2.064 3.683-2.064 4.447 0l3.161 8.544c.24.649.752 1.16 1.401 1.401l8.544 3.161c2.064.764 2.064 3.683 0 4.447l-8.544 3.162a2.37 2.37 0 0 0-1.401 1.401l-3.161 8.543c-.764 2.065-3.684 2.065-4.447 0l-3.162-8.543a2.37 2.37 0 0 0-1.401-1.401l-8.544-3.162c-2.064-.764-2.064-3.683 0-4.447l8.544-3.161a2.373 2.373 0 0 0 1.401-1.401l3.162-8.544zm66.133-88.179c.764-2.064 3.684-2.064 4.448 0l3.161 8.544a2.37 2.37 0 0 0 1.401 1.401l8.544 3.162c2.064.763 2.064 3.683 0 4.447l-8.544 3.161a2.37 2.37 0 0 0-1.401 1.401l-3.161 8.544c-.764 2.064-3.684 2.064-4.448 0l-3.161-8.544a2.37 2.37 0 0 0-1.401-1.401l-8.544-3.161c-2.064-.764-2.064-3.684 0-4.447l8.544-3.162a2.37 2.37 0 0 0 1.401-1.401l3.161-8.544zM270.35 302.638c.764-2.064 3.683-2.064 4.447 0l3.162 8.544a2.37 2.37 0 0 0 1.401 1.4l8.543 3.162c2.065.764 2.065 3.683 0 4.447l-8.543 3.162a2.37 2.37 0 0 0-1.401 1.4l-3.162 8.544c-.764 2.064-3.683 2.064-4.447 0l-3.162-8.544a2.368 2.368 0 0 0-1.4-1.4l-8.544-3.162c-2.064-.764-2.064-3.683 0-4.447l8.544-3.162a2.368 2.368 0 0 0 1.4-1.4l3.162-8.544zm-84.786-31.773c.764-2.064 3.683-2.064 4.447 0l3.162 8.544a2.37 2.37 0 0 0 1.401 1.401l8.543 3.161c2.065.764 2.065 3.684 0 4.448l-8.543 3.161a2.37 2.37 0 0 0-1.401 1.401l-3.162 8.544c-.764 2.064-3.683 2.064-4.447 0l-3.162-8.544a2.37 2.37 0 0 0-1.4-1.401l-8.544-3.161c-2.064-.764-2.064-3.684 0-4.448l8.544-3.161a2.37 2.37 0 0 0 1.4-1.401l3.162-8.544z" stroke="#E1E4E5" stroke-width="4.219"/><path d="M311.577 363.906c.447-1.208 2.155-1.208 2.602 0l1.851 5c.14.38.44.68.819.82l5.001 1.851c1.208.447 1.208 2.155 0 2.602l-5.001 1.851c-.379.14-.679.44-.819.819l-1.851 5.001c-.447 1.208-2.155 1.208-2.602 0l-1.851-5.001a1.385 1.385 0 0 0-.82-.819l-5-1.851c-1.208-.447-1.208-2.155 0-2.602l5-1.851c.38-.14.68-.44.82-.82l1.851-5z" stroke="#E1E4E5" stroke-width="2.469"/><path fill-rule="evenodd" clip-rule="evenodd" d="M49.424 550.643h383.504c36 0 34.348-29.886 22.589-40.3-12.052-10.673-35.866-6.344-35.866-6.344s-7.09-20.102-30.426-29.889c-20.642-8.657-42.267-4.538-42.267-4.538s0-13.796-13.217-25.222c-13.218-11.427-30.84-10.315-30.84-10.315s-12.115-76.076-93.069-76.076c-80.954 0-90.315 71.632-90.315 71.632s-18.174 0-31.392 12.217c-13.216 12.217-14.868 26.097-14.868 26.097s-44.202-6.005-57.275 32.442c-7.79 22.914 8.216 50.296 33.442 50.296z" fill="url(#e)"/><defs><linearGradient id="a" x1="506.373" y1="658.673" x2="503.823" y2="148.295" gradientUnits="userSpaceOnUse"><stop stop-color="#fff"/><stop offset="1" stop-color="#EEE"/></linearGradient><linearGradient id="b" x1="671.058" y1="658.673" x2="668.508" y2="148.295" gradientUnits="userSpaceOnUse"><stop stop-color="#fff"/><stop offset="1" stop-color="#EEE"/></linearGradient><linearGradient id="c" x1="635.351" y1="375.469" x2="534.333" y2="-78.462" gradientUnits="userSpaceOnUse"><stop stop-color="#fff"/><stop offset="1" stop-color="#EEE"/></linearGradient><linearGradient id="d" x1="719.806" y1="326.281" x2="906.576" y2="178.545" gradientUnits="userSpaceOnUse"><stop stop-color="#fff"/><stop offset="1" stop-color="#EEE"/></linearGradient><linearGradient id="e" x1="248.091" y1="658.673" x2="245.541" y2="148.295" gradientUnits="userSpaceOnUse"><stop stop-color="#fff"/><stop offset="1" stop-color="#EEE"/></linearGradient></defs></svg>