<svg width="900" height="600" viewBox="0 0 900 600" fill="none" xmlns="http://www.w3.org/2000/svg"><path fill="transparent" d="M0 0h900v600H0z"/><path d="M777.874 340.396c-16.133 8.003-37.546-2.287-37.546-2.287s4.759-23.261 20.9-31.253c16.134-8.003 37.538 2.276 37.538 2.276s-4.759 23.261-20.892 31.264z" fill="url(#a)"/><circle cx="442.669" cy="388.419" r="14.878" transform="rotate(180 442.669 388.419)" fill="#009688"/><circle cx="220.716" cy="265.876" r="16.738" transform="rotate(180 220.716 265.876)" fill="#009688"/><circle r="13.948" transform="matrix(-1 0 0 1 165.008 168.05)" fill="#009688"/><circle r="8.369" transform="matrix(-1 0 0 1 498.247 504.911)" fill="#E1E4E5"/><circle r="12.088" transform="matrix(-1 0 0 1 106.088 443.572)" fill="#E1E4E5"/><circle r="9.2" transform="matrix(-1 0 0 1 245.884 134.704)" fill="#E1E4E5"/><circle r="9.185" transform="scale(1 -1) rotate(-75 -97.63 -213.42)" fill="#E1E4E5"/><circle r="12.219" transform="matrix(-1 0 0 1 344.884 98.22)" fill="#E1E4E5"/><ellipse rx="9.399" ry="7.52" transform="matrix(-1 0 0 1 575.402 410.894)" fill="#E1E4E5"/><circle r="19.116" transform="scale(1 -1) rotate(-75 201.065 -450.489)" fill="#E1E4E5"/><path d="M704.367 409.056h.246c1.456 20.631 16.799 20.948 16.799 20.948s-16.919.33-16.919 24.169c0-23.839-16.919-24.169-16.919-24.169s15.337-.317 16.793-20.948zm-289.781 9.886h.218c1.292 18.673 14.907 18.96 14.907 18.96s-15.013.299-15.013 21.874c0-21.575-15.013-21.874-15.013-21.874s13.609-.287 14.901-18.96z" fill="#E1E4E5"/><path d="M274.832 182.207c0 33.763-16.62 33.763-16.62 58.171" stroke="#E1E4E5" stroke-width="15.375" stroke-linejoin="round"/><path d="M341.312 182.207c0 33.763-16.62 33.763-16.62 58.171" stroke="#E1E4E5" stroke-width="12" stroke-linejoin="round"/><path d="M374.553 427.353c-65.694 5.018-100.058 5.236-166.201 0" stroke="#E1E4E5" stroke-width="12"/><path d="M208.352 273.618h166.201v66.48c0 27.537-22.591 46.031-49.861 49.86-22.834 3.207-41.096 3.171-66.48 0-27.325-3.413-49.86-22.323-49.86-49.86v-66.48zm166.201 0h16.62c18.358 0 33.24 14.882 33.24 33.24 0 18.358-14.882 33.24-33.24 33.24h-16.62" stroke="#E1E4E5" stroke-width="12" stroke-linejoin="round"/><path d="M561.292 227.609c0 33.762-16.62 33.762-16.62 58.17m83.1-58.17c0 33.762-16.62 33.762-16.62 58.17m49.861 186.976c-65.694 5.018-100.058 5.235-166.201 0m0-153.736h166.201v66.48c0 27.537-22.591 46.031-49.861 49.861-22.834 3.206-41.096 3.171-66.48 0-27.325-3.414-49.86-22.324-49.86-49.861v-66.48zm166.201 0h16.62c18.358 0 33.24 14.882 33.24 33.24 0 18.358-14.882 33.24-33.24 33.24h-16.62" stroke="#E1E4E5" stroke-width="12"/><circle cx="467.787" cy="182.207" r="59.454" fill="#009688"/><path fill-rule="evenodd" clip-rule="evenodd" d="M478.815 161.128c9.01 0 15.051 8.456 15.051 16.331 0 15.984-25.081 29.071-25.538 29.071-.457 0-25.538-13.087-25.538-29.071 0-7.875 6.041-16.331 15.05-16.331 5.15 0 8.533 2.568 10.488 4.855 1.955-2.287 5.337-4.855 10.487-4.855zM178.946 349.322l-28.248-28.242v-.007h-21.186c-7.804 0-14.125-6.32-14.125-14.124v-70.621c0-7.804 6.321-14.124 14.125-14.124h98.869c7.804 0 14.124 6.32 14.124 14.124v70.621c0 7.804-6.32 14.124-14.124 14.124h-21.186l-28.249 28.242" fill="#fff"/><path d="m178.946 349.322-28.248-28.242v-.007h-21.186c-7.804 0-14.125-6.32-14.125-14.124v-70.621c0-7.804 6.321-14.124 14.125-14.124h98.869c7.804 0 14.124 6.32 14.124 14.124v70.621c0 7.804-6.32 14.124-14.124 14.124h-21.186l-28.249 28.242" stroke="#E1E4E5" stroke-width="6" stroke-linecap="round" stroke-linejoin="round"/><path d="M207.195 285.763h-56.497m0-28.249h56.497" stroke="#E1E4E5" stroke-width="13.5" stroke-linecap="round" stroke-linejoin="round"/><path fill-rule="evenodd" clip-rule="evenodd" d="m706.144 298.953-21.86-21.854v-.005h-16.395c-6.039 0-10.93-4.892-10.93-10.93v-54.65c0-6.039 4.891-10.93 10.93-10.93h76.509c6.039 0 10.93 4.891 10.93 10.93v54.65c0 6.038-4.891 10.93-10.93 10.93h-16.395l-21.859 21.854" fill="#fff"/><path d="m706.144 298.953-21.86-21.854v-.005h-16.395c-6.039 0-10.93-4.892-10.93-10.93v-54.65c0-6.039 4.891-10.93 10.93-10.93h76.509c6.039 0 10.93 4.891 10.93 10.93v54.65c0 6.038-4.891 10.93-10.93 10.93h-16.395l-21.859 21.854" stroke="#E1E4E5" stroke-width="6" stroke-linecap="round" stroke-linejoin="round"/><path d="M728.003 249.769h-43.719m0-21.86h43.719" stroke="#E1E4E5" stroke-width="13.5" stroke-linecap="round" stroke-linejoin="round"/><defs><linearGradient id="a" x1="715.921" y1="365.359" x2="848.988" y2="260.103" gradientUnits="userSpaceOnUse"><stop stop-color="#fff"/><stop offset="1" stop-color="#EEE"/></linearGradient></defs></svg>