<svg width="900" height="600" viewBox="0 0 900 600" fill="none" xmlns="http://www.w3.org/2000/svg"><path fill="transparent" d="M0 0h900v600H0z"/><path d="M707.461 239.538c-27.422 13.603-63.819-3.888-63.819-3.888s8.089-39.538 35.526-53.122c27.423-13.603 63.805 3.868 63.805 3.868s-8.089 39.539-35.512 53.142z" fill="url(#a)"/><path d="M179.235 266.504c20.86 12.502 50.788.945 50.788.945s-3.913-31.823-24.786-44.312c-20.86-12.502-50.775-.959-50.775-.959s3.913 31.823 24.773 44.326z" fill="url(#b)"/><circle cx="791.793" cy="195.006" r="14.973" transform="rotate(180 791.793 195.006)" fill="#009688"/><circle cx="227.836" cy="279.82" r="16.845" transform="rotate(180 227.836 279.82)" fill="#009688"/><circle r="14.037" transform="matrix(-1 0 0 1 155.037 187.037)" fill="#009688"/><circle r="6.551" transform="matrix(-1 0 0 1 663.379 253.806)" fill="#009688"/><circle r="8.422" transform="matrix(-1 0 0 1 565.422 428.422)" fill="#E1E4E5"/><circle r="12.166" transform="matrix(-1 0 0 1 112.474 458.655)" fill="#E1E4E5"/><circle r="9.259" transform="matrix(-1 0 0 1 222.259 139.259)" fill="#E1E4E5"/><circle r="10.294" transform="matrix(-1 0 0 1 702.699 149.526)" fill="#E1E4E5"/><circle r="9.244" transform="scale(1 -1) rotate(-75 -108.455 -240.916)" fill="#E1E4E5"/><circle r="12.298" transform="matrix(-1 0 0 1 421.298 112.298)" fill="#E1E4E5"/><ellipse rx="9.46" ry="7.568" transform="matrix(-1 0 0 1 666.46 438.568)" fill="#E1E4E5"/><path d="M751.81 257h.144c.851 12.053 9.814 12.238 9.814 12.238s-9.884.193-9.884 14.12c0-13.927-9.884-14.12-9.884-14.12s8.96-.185 9.81-12.238zM636.332 360.997h.154C637.397 374.167 647 374.37 647 374.37s-10.589.211-10.589 15.429c0-15.218-10.589-15.429-10.589-15.429s9.599-.203 10.51-13.373z" fill="#E1E4E5"/><circle cx="449.557" cy="316.722" r="58.04" transform="rotate(45 449.557 316.722)" stroke="#E1E4E5" stroke-width="12.575"/><path d="m490.598 275.681 41.041-41.041M367.476 398.803l41.041-41.041m82.081.001 41.041 41.041M367.476 234.641l41.041 41.04" stroke="#E1E4E5" stroke-width="12.575"/><path d="M298.652 374.761V258.68m0 150.905v36.759c0 8.548 6.929 15.478 15.477 15.478h270.855c8.548 0 15.478-6.93 15.478-15.478V175.489c0-8.548-6.93-15.477-15.478-15.477H314.129c-8.548 0-15.477 6.929-15.477 15.477v48.367m63.844 278.594v-40.628m174.121 40.628v-40.628" stroke="#E1E4E5" stroke-width="12.575" stroke-linejoin="round"/><circle cx="132.396" cy="364.883" r="14.735" stroke="#E1E4E5" stroke-width="9.823"/><path d="M193.793 325.589v78.588s-31.945 14.425-61.397 0c-29.451-14.426-61.396 0-61.396 0v-78.588s31.945-14.631 61.396 0c29.452 14.631 61.397 0 61.397 0z" stroke="#E1E4E5" stroke-width="9.823" stroke-linejoin="round"/><path d="M213.439 345.236v75.839c0 1.772-.693 3.468-2.078 4.573-16.973 13.532-55.163 14.603-78.93 3.426-24.795-11.66-46.696-5.251-46.696-5.251" stroke="#E1E4E5" stroke-width="9.823" stroke-linejoin="round"/><path d="M97.643 381.38c-5.163 0-8.335.663-14.259 2.458m96.003-37.983c-5.079 1.725-9.096 2.458-15.119 2.458" stroke="#E1E4E5" stroke-width="6.549" stroke-linejoin="round"/><circle cx="747.551" cy="364.883" r="14.735" stroke="#E1E4E5" stroke-width="9.823"/><path d="M808.947 325.589v78.588s-31.945 14.425-61.396 0c-29.452-14.426-61.397 0-61.397 0v-78.588s31.945-14.631 61.397 0c29.451 14.631 61.396 0 61.396 0z" stroke="#E1E4E5" stroke-width="9.823" stroke-linejoin="round"/><path d="M828.594 345.236v75.839c0 1.772-.693 3.468-2.079 4.573-16.972 13.532-55.162 14.603-78.93 3.426-24.795-11.66-46.695-5.251-46.695-5.251" stroke="#E1E4E5" stroke-width="9.823" stroke-linejoin="round"/><path d="M712.798 381.38c-5.163 0-8.336.663-14.259 2.458m96.002-37.983c-5.079 1.725-9.096 2.458-15.119 2.458" stroke="#E1E4E5" stroke-width="6.549" stroke-linejoin="round"/><circle r="56.783" transform="matrix(-1 0 0 1 298.134 177.401)" fill="#009688"/><path fill-rule="evenodd" clip-rule="evenodd" d="M291.019 194.281v-3.92h4.891l4.152-4.162 5.732 2.44a5.52 5.52 0 0 0 6.075-1.184l8.141-8.159a5.556 5.556 0 0 0 1.181-6.088l-4.155-9.803a5.532 5.532 0 0 0-2.929-2.936l-9.782-4.165a5.523 5.523 0 0 0-6.075 1.184l-8.141 8.159a5.555 5.555 0 0 0-1.178 6.089l2.37 5.597-16.664 16.701v8.822h8.803l3.668-3.676v-4.902h3.911v.003z" fill="#fff"/><path fill-rule="evenodd" clip-rule="evenodd" d="M304.972 168.267c-2.34.01-4.239 1.909-4.229 4.249a4.234 4.234 0 0 0 4.249 4.229 4.24 4.24 0 0 0 4.239-4.239 4.24 4.24 0 0 0-4.239-4.239" fill="#009688"/><defs><linearGradient id="a" x1="602.156" y1="281.969" x2="828.338" y2="103.059" gradientUnits="userSpaceOnUse"><stop stop-color="#fff"/><stop offset="1" stop-color="#EEE"/></linearGradient><linearGradient id="b" x1="259.958" y1="306.748" x2="92.11" y2="150.795" gradientUnits="userSpaceOnUse"><stop stop-color="#fff"/><stop offset="1" stop-color="#EEE"/></linearGradient></defs></svg>