<svg width="900" height="600" viewBox="0 0 900 600" fill="none" xmlns="http://www.w3.org/2000/svg"><path fill="transparent" d="M0 0h900v600H0z"/><path d="M713.776 399.561h-59.097c-14.481 0-26.613-9.855-26.613-22.339 0-6.242 3.131-11.827 7.827-15.77 4.697-3.942 11.35-6.57 18.786-6.57h8.61c7.436 0 14.089-2.629 18.786-6.571 4.696-3.942 7.827-9.527 7.827-15.769 0-12.156-11.741-22.34-26.613-22.34H482.788c-4.717 0-7.748-5.797-7.748-10.513 0-11.827-11.349-21.355-25.439-21.355H382.43a6.406 6.406 0 1 1 0-12.812h257.377c11.35 0 21.917-3.942 29.352-10.185 7.437-6.242 12.133-15.112 12.133-24.639 0-19.383-18.786-34.824-41.485-34.824H506.876c-20.858 0-41.504-16.098-62.362-16.098h-74.217c-10.887 0-19.712-8.825-19.712-19.712 0-10.886 8.825-19.712 19.712-19.712h166.188c7.828 0 15.264-2.628 20.352-6.899 5.087-4.27 8.218-10.184 8.218-17.083 0-13.141-12.915-23.983-28.57-23.983h-383.15c-7.827 0-15.263 2.629-20.351 6.9-5.088 4.27-8.219 10.184-8.219 17.083 0 13.141 12.915 23.982 28.57 23.982h9.784c12.915 0 23.874 8.871 23.874 20.041 0 5.585-2.74 10.513-7.045 14.126-4.305 3.614-10.175 5.914-16.829 5.914h-47.355c-8.219 0-16.046 2.957-21.526 7.556-5.479 4.6-9.001 10.842-9.001 18.069 0 14.127 13.698 25.297 30.135 25.297h48.139c15.654 0 28.57 10.841 28.57 23.982 0 6.571-3.131 12.485-8.219 16.755-5.088 4.271-12.133 6.9-19.96 6.9h-43.051c-7.044 0-13.306 2.299-18.003 6.242-4.696 3.942-7.436 9.198-7.436 15.112 0 11.827 11.35 21.354 25.439 21.354h34.832c19.96 0 36.006 13.47 36.006 30.225 0 8.213-3.913 16.098-10.567 21.354-6.653 5.585-15.654 8.871-25.439 8.871h-48.529c-9.785 0-18.786 3.285-25.048 8.87-6.653 5.256-10.567 12.812-10.567 21.026 0 16.426 16.046 29.896 35.615 29.896h149.851c16.549 0 32.806 9.199 49.355 9.199h27.292c10.432 0 18.89 8.457 18.89 18.89s-8.458 18.89-18.89 18.89h-66.429c-8.61 0-16.046 2.957-21.525 7.556-5.479 4.6-9.001 11.17-9.001 18.069 0 14.127 13.698 25.626 30.526 25.626h407.024c8.61 0 16.046-2.957 21.526-7.556 5.479-4.6 9.001-11.17 9.001-18.07 0-14.126-13.698-25.625-30.527-25.625h-12.132c-12.524 0-22.308-8.541-22.308-18.726 0-5.256 2.348-9.856 6.653-13.141 3.914-3.285 9.784-5.585 16.046-5.585h51.27c8.61 0 16.046-2.957 21.525-7.556 5.479-4.6 9.001-11.17 9.001-18.069 0-14.784-13.698-26.283-30.526-26.283z" fill="url(#a)"/><path d="M848.641 353.156c-11.626 5.767-27.057-1.649-27.057-1.649s3.43-16.763 15.062-22.522c11.626-5.767 27.051 1.641 27.051 1.641s-3.43 16.762-15.056 22.53z" fill="url(#b)"/><path d="M61.017 363.366c16.976 10.175 41.333.769 41.333.769s-3.185-25.899-20.172-36.062c-16.977-10.175-41.323-.781-41.323-.781s3.185 25.899 20.162 36.074z" fill="url(#c)"/><circle cx="833.81" cy="198.236" r="7.895" transform="rotate(180 833.81 198.236)" fill="#009688"/><circle cx="668.265" cy="472.42" r="14.849" transform="rotate(180 668.265 472.42)" fill="#009688"/><circle r="11.787" transform="matrix(-1 0 0 1 159.406 515.006)" fill="#009688"/><circle r="7.892" transform="matrix(-1 0 0 1 799.63 281.078)" fill="#009688"/><circle r="14.656" transform="matrix(-1 0 0 1 629.622 532.004)" fill="#E1E4E5"/><circle r="11.155" transform="matrix(-1 0 0 1 807.626 506.765)" fill="#E1E4E5"/><circle r="14.021" transform="matrix(-1 0 0 1 723.015 115.255)" fill="#E1E4E5"/><circle r="11.136" transform="scale(1 -1) rotate(-75 -80.863 -229.271)" fill="#E1E4E5"/><circle r="14.815" transform="matrix(-1 0 0 1 288.039 109.203)" fill="#E1E4E5"/><ellipse rx="11.396" ry="9.117" transform="matrix(-1 0 0 1 779.862 384.44)" fill="#E1E4E5"/><circle r="23.177" transform="scale(1 -1) rotate(-75 344.505 -554.725)" fill="#E1E4E5"/><path d="M100.016 141.296h.162c.961 13.621 11.091 13.83 11.091 13.83s-11.17.218-11.17 15.957c0-15.739-11.17-15.957-11.17-15.957s10.125-.209 11.087-13.83zm204.973 370.618h.156c.923 13.58 10.648 13.789 10.648 13.789s-10.724.217-10.724 15.909c0-15.692-10.725-15.909-10.725-15.909s9.722-.209 10.645-13.789z" fill="#E1E4E5"/><path d="M183.485 54.347h180.263c80.117 0 100.146 59.083 100.146 59.083v437.025s-40.059-59.083-100.146-59.083H183.485V54.347z" fill="#009688"/><path fill-rule="evenodd" clip-rule="evenodd" d="M571.492 54.428V189.73l56.105-35.435 56.106 35.435V54.43h60.599v437.024H564.04c-60.088 0-100.146 59.083-100.146 59.083V113.511s20.029-59.083 100.146-59.083h7.452z" fill="#009688"/><path d="M422.593 236.913H235.654m186.939 42.388H235.654m186.939 42.387H235.654m186.939 42.387H235.654m186.939 42.388H235.654m0-211.937h186.939m274.975 42.387h-186.94m186.94 42.388H510.629m186.939 42.387H510.629m186.939 42.387H510.629m186.939 42.388H510.629" stroke="#fff" stroke-width="13.5" stroke-linecap="round" stroke-linejoin="round"/><defs><linearGradient id="a" x1="422.265" y1="791.225" x2="413.075" y2="-394.815" gradientUnits="userSpaceOnUse"><stop stop-color="#fff"/><stop offset="1" stop-color="#EEE"/></linearGradient><linearGradient id="b" x1="803.995" y1="371.145" x2="899.888" y2="295.294" gradientUnits="userSpaceOnUse"><stop stop-color="#fff"/><stop offset="1" stop-color="#EEE"/></linearGradient><linearGradient id="c" x1="126.712" y1="396.119" x2="-9.889" y2="269.198" gradientUnits="userSpaceOnUse"><stop stop-color="#fff"/><stop offset="1" stop-color="#EEE"/></linearGradient></defs></svg>