<svg width="900" height="600" viewBox="0 0 900 600" fill="none" xmlns="http://www.w3.org/2000/svg"><path fill="transparent" d="M0 0h900v600H0z"/><path d="M297.172 324.828c8.163 49.415 119.397 126.468 221.796 62.409 47.624-29.795 37.087-57.072 67.98-104.106 18.414-28.034 48.181-53.154 50.417-87.83 1.937-29.933-9.545-58.748-27.739-74.836-40.916-36.18-110.728-50.61-157.94 34.041-47.211 84.65-175.553 42.875-154.514 170.322z" fill="url(#a)"/><path d="M190.271 255.174c6.603 12.55 21.063 14.274 44.229 11.889 17.422-1.797 33.31-3.187 50.734-13.305 12.195-7.076 21.849-16.651 28.895-25.95 7.635-10.074 18.292-21.57 13.068-32.993-7.18-15.69-48.699-28.905-89.015-7.294-44.287 23.746-54.37 55.387-47.911 67.653z" fill="url(#b)"/><path d="M70.13 386.669c35.048 18.517 81.567-5.292 81.567-5.292s-10.339-53.821-45.406-72.312c-35.05-18.517-81.549 5.266-81.549 5.266s10.339 53.821 45.387 72.338z" fill="url(#c)"/><path d="M858.882 415.13c-19.042 12.155-46.362.919-46.362.919s3.572-30.94 22.626-43.081c19.043-12.156 46.351-.933 46.351-.933s-3.572 30.94-22.615 43.095z" fill="url(#d)"/><ellipse cx="100.581" cy="475.076" rx="10.765" ry="11.465" fill="#E1E4E5"/><ellipse cx="818.533" cy="292.025" rx="15.549" ry="16.56" fill="#E1E4E5"/><ellipse cx="32.062" cy="443.177" rx="11.834" ry="12.604" fill="#E1E4E5"/><ellipse cx="143.924" cy="216.907" rx="13.157" ry="14.013" fill="#E1E4E5"/><ellipse cx="666.299" cy="279.462" rx="12.583" ry="11.815" transform="rotate(90 666.299 279.462)" fill="#E1E4E5"/><path d="M766.988 200.113h-.172c-1.02 15.39-11.767 15.627-11.767 15.627s11.851.246 11.851 18.03c0-17.784 11.85-18.03 11.85-18.03s-10.742-.237-11.762-15.627zm81.125 270.139h-.165c-.979 15.345-11.297 15.581-11.297 15.581s11.378.246 11.378 17.976c0-17.73 11.377-17.976 11.377-17.976s-10.313-.236-11.293-15.581z" fill="#E1E4E5"/><path fill-rule="evenodd" clip-rule="evenodd" d="M568.546 319.312c17.589-24.145 27.966-53.879 27.966-86.037C596.512 152.49 531.022 87 450.236 87c-80.785 0-146.275 65.49-146.275 146.275 0 32.241 10.431 62.046 28.102 86.224 90.09-14.982 144.414-15.044 236.483-.187zm-7.529 9.487c-85.465-13.429-137.837-13.369-221.424.159 26.822 30.988 66.443 50.593 110.643 50.593 44.276 0 83.958-19.672 110.781-50.752z" fill="#009688"/><ellipse cx="259.094" cy="320.301" rx="12.09" ry="10.301" fill="#E1E4E5"/><path d="M367.394 292.189c65.003-8.721 101.084-9.132 165.539 0" stroke="#fff" stroke-width="10.554"/><path d="M539.831 195.625c-69.916-5.833-109.375-6.341-179.334 0l89.667-51.731 89.667 51.731z" stroke="#fff" stroke-width="10.554" stroke-linejoin="round"/><path d="M394.984 212.869v75.872m55.18-75.872v72.423m55.18-72.423v75.872" stroke="#fff" stroke-width="10.554"/><ellipse cx="619.105" cy="143.108" rx="15.718" ry="16.74" fill="#E1E4E5"/><circle r="56.501" transform="matrix(-1 0 0 1 178.175 455.671)" fill="#009688"/><path fill-rule="evenodd" clip-rule="evenodd" d="M197.658 475.439v2.78a2.783 2.783 0 0 1-2.784 2.78h-33.399a2.782 2.782 0 0 1-2.783-2.78v-2.825c0-8.412 9.624-13.878 19.483-13.878 9.858 0 19.483 5.469 19.483 13.878m-12.595-38.302c3.804 3.805 3.804 9.973 0 13.777-3.805 3.804-9.973 3.804-13.777 0-3.804-3.804-3.804-9.972 0-13.777 3.804-3.804 9.972-3.804 13.777 0z" fill="#fff"/><circle r="56.501" transform="matrix(-1 0 0 1 314.29 455.671)" fill="#009688"/><path fill-rule="evenodd" clip-rule="evenodd" d="M333.773 475.439v2.78a2.782 2.782 0 0 1-2.783 2.78h-33.4a2.782 2.782 0 0 1-2.783-2.78v-2.825c0-8.412 9.625-13.878 19.483-13.878 9.859 0 19.483 5.469 19.483 13.878m-12.595-38.302c3.804 3.805 3.804 9.973 0 13.777-3.804 3.804-9.972 3.804-13.776 0-3.805-3.804-3.805-9.972 0-13.777 3.804-3.804 9.972-3.804 13.776 0z" fill="#fff"/><circle r="56.501" transform="matrix(-1 0 0 1 450.405 455.671)" fill="#009688"/><path fill-rule="evenodd" clip-rule="evenodd" d="M469.889 475.439v2.78a2.783 2.783 0 0 1-2.784 2.78h-33.399a2.782 2.782 0 0 1-2.783-2.78v-2.825c0-8.412 9.624-13.878 19.483-13.878 9.858 0 19.483 5.469 19.483 13.878m-12.595-38.302c3.804 3.805 3.804 9.973 0 13.777-3.805 3.804-9.973 3.804-13.777 0-3.804-3.804-3.804-9.972 0-13.777 3.804-3.804 9.972-3.804 13.777 0z" fill="#fff"/><circle r="56.501" transform="matrix(-1 0 0 1 586.521 455.671)" fill="#009688"/><path fill-rule="evenodd" clip-rule="evenodd" d="M606.004 475.439v2.78a2.782 2.782 0 0 1-2.783 2.78h-33.4a2.782 2.782 0 0 1-2.783-2.78v-2.825c0-8.412 9.625-13.878 19.483-13.878 9.859 0 19.483 5.469 19.483 13.878m-12.595-38.302c3.805 3.805 3.805 9.973 0 13.777-3.804 3.804-9.972 3.804-13.776 0-3.805-3.804-3.805-9.972 0-13.777 3.804-3.804 9.972-3.804 13.776 0z" fill="#fff"/><circle r="56.501" transform="matrix(-1 0 0 1 722.636 455.671)" fill="#009688"/><path fill-rule="evenodd" clip-rule="evenodd" d="M742.12 475.439v2.78a2.783 2.783 0 0 1-2.784 2.78h-33.399a2.782 2.782 0 0 1-2.783-2.78v-2.825c0-8.412 9.624-13.878 19.483-13.878 9.858 0 19.483 5.469 19.483 13.878m-12.595-38.302c3.804 3.805 3.804 9.973 0 13.777-3.804 3.804-9.972 3.804-13.777 0-3.804-3.804-3.804-9.972 0-13.777 3.805-3.804 9.973-3.804 13.777 0z" fill="#fff"/><defs><linearGradient id="a" x1="468.073" y1="590.836" x2="458.834" y2="-255.795" gradientUnits="userSpaceOnUse"><stop stop-color="#fff"/><stop offset="1" stop-color="#EEE"/></linearGradient><linearGradient id="b" x1="234.75" y1="336.508" x2="301.083" y2="56.639" gradientUnits="userSpaceOnUse"><stop stop-color="#fff"/><stop offset="1" stop-color="#EEE"/></linearGradient><linearGradient id="c" x1="204.72" y1="444.428" x2="-98.166" y2="219.475" gradientUnits="userSpaceOnUse"><stop stop-color="#fff"/><stop offset="1" stop-color="#EEE"/></linearGradient><linearGradient id="d" x1="785.193" y1="454.257" x2="947.31" y2="312.828" gradientUnits="userSpaceOnUse"><stop stop-color="#fff"/><stop offset="1" stop-color="#EEE"/></linearGradient></defs></svg>