<svg width="900" height="600" viewBox="0 0 900 600" fill="none" xmlns="http://www.w3.org/2000/svg"><path fill="transparent" d="M0 0h900v600H0z"/><path d="M325.896 148.656c94.27-5.339 193.107 22.471 178.58 62.784-14.53 40.313 77.673-14.319 114.467.216 26.196 10.347 15.725 41.848 28.397 54.541 29.056 29.102 58.775-7.545 95.757 14.444C780.078 302.63 704.363 507.854 665.729 509l-440.652-2.613-31.622-2.774s-87.472-46.683-24.9-89.747c42.309-29.118 11.867-50.264 7.265-63.594-5.283-15.306-17.61-42.038 36.102-61.654 53.712-19.617 39.844-62.302 38.523-71.139-1.32-8.842-18.818-63.483 75.451-68.823z" fill="url(#a)"/><path d="M614.491 509.008H282.489l-99.883-248.359h331.513l100.372 248.359z" fill="#009688"/><path d="M278.593 499.338h438.433v9.67H282.489l-3.896-9.67z" fill="#009688"/><path d="M355.669 384.202c-4.259-14.955 4.328-27.08 19.148-27.08s30.264 12.125 34.523 27.08c4.259 14.956-4.329 27.081-19.149 27.081s-30.263-12.125-34.522-27.081z" fill="#fff"/><circle cx="364" cy="151" r="8" transform="rotate(-180 364 151)" fill="#E1E4E5"/><circle cx="204.5" cy="213.5" r="5.5" transform="rotate(-180 204.5 213.5)" fill="#E1E4E5"/><path d="M763 463.5c0 6.908-5.598 12.5-12.514 12.5-6.915 0-12.486-5.62-12.486-12.5 0-6.908 5.598-12.5 12.514-12.5 6.915 0 12.486 5.592 12.486 12.5zM173 381c0 7.737-6.494 14-14.516 14S144 388.706 144 381c0-7.737 6.494-14 14.516-14S173 373.263 173 381z" stroke="#E1E4E5" stroke-width="5" stroke-miterlimit="10"/><rect x="620.207" y="419.428" width="69.668" height="8.117" rx="4.058" transform="rotate(-45 620.207 419.428)" fill="#E1E4E5"/><rect x="646.919" y="419.618" width="25.868" height="8.117" rx="4.058" transform="rotate(-45 646.919 419.618)" fill="#E1E4E5"/><rect x="299.716" y="219.275" width="58.682" height="6.837" rx="3.418" transform="rotate(-45 299.716 219.275)" fill="#E1E4E5"/><rect x="322.216" y="219.435" width="21.789" height="6.837" rx="3.418" transform="rotate(-45 322.216 219.435)" fill="#E1E4E5"/><rect x="643.477" y="206.201" width="40.193" height="4.683" rx="2.341" transform="rotate(-45 643.477 206.201)" fill="#E1E4E5"/><rect x="658.888" y="206.311" width="14.924" height="4.683" rx="2.341" transform="rotate(-45 658.888 206.311)" fill="#E1E4E5"/><rect x="721.749" y="338.353" width="52.07" height="6.066" rx="3.033" transform="rotate(-45 721.749 338.353)" fill="#E1E4E5"/><rect x="741.713" y="338.495" width="19.334" height="6.066" rx="3.033" transform="rotate(-45 741.713 338.495)" fill="#E1E4E5"/><rect x="182.801" y="493.917" width="58.682" height="6.837" rx="3.418" transform="rotate(-45 182.801 493.917)" fill="#E1E4E5"/><rect x="205.301" y="494.077" width="21.789" height="6.837" rx="3.418" transform="rotate(-45 205.301 494.077)" fill="#E1E4E5"/><path d="M597.309 293.601v22.673L576.84 340.67h85.979c25.989 0 47.069-21.081 47.069-47.069 0-25.989-21.08-47.069-47.069-47.069h-18.441c-26.005 0-47.069 21.08-47.069 47.069z" fill="#E1E4E5"/><path d="M633.581 293.52a8.372 8.372 0 0 1-8.368 8.368 8.371 8.371 0 0 1-8.368-8.368c0-4.618 3.749-8.367 8.368-8.367 4.618 0 8.368 3.749 8.368 8.367zm28.434 0a8.372 8.372 0 0 1-8.368 8.368 8.372 8.372 0 0 1-8.368-8.368c0-4.618 3.75-8.367 8.368-8.367s8.368 3.749 8.368 8.367zm28.434 0c0 4.619-3.749 8.368-8.367 8.368a8.371 8.371 0 0 1-8.368-8.368c0-4.618 3.749-8.367 8.368-8.367a8.37 8.37 0 0 1 8.367 8.367z" fill="#fff"/><path d="M159.142 235h-.277C157.23 257.864 140 258.216 140 258.216s19 .366 19 26.784c0-26.418 19-26.784 19-26.784s-17.223-.352-18.858-23.216zm387-32h-.277C544.23 225.864 527 226.216 527 226.216s19 .366 19 26.784c0-26.418 19-26.784 19-26.784s-17.223-.352-18.858-23.216zm43.44-86.683 16.398 39.979a5.349 5.349 0 0 1-2.915 6.98l-69.431 28.475a5.346 5.346 0 0 1-6.012-1.386 5.294 5.294 0 0 1-.963-1.535l-16.39-39.962a5.341 5.341 0 0 1 2.909-6.974l69.432-28.48a5.35 5.35 0 0 1 6.972 2.903z" fill="#E1E4E5"/><path d="m604.958 159.254-43.976-4.842-31.5 35.823a4.029 4.029 0 0 0 3.656.305l69.424-28.48 2.396-2.806zm0 0a4.038 4.038 0 0 1-2.395 2.806l2.395-2.806z" fill="#E1E4E5" stroke="#fff" stroke-width="2.619"/><path d="M511.48 148.37v-.001a4.03 4.03 0 0 1 2.195-5.263l69.431-28.481h.001a4.04 4.04 0 0 1 4.97 1.618l-26.809 42.061-49.222-8.556-.566-1.378z" fill="#E1E4E5" stroke="#fff" stroke-width="2.619"/><defs><linearGradient id="a" x1="462.442" y1="711.397" x2="455.822" y2="-244.79" gradientUnits="userSpaceOnUse"><stop stop-color="#fff"/><stop offset="1" stop-color="#EEE"/></linearGradient></defs></svg>