<svg width="900" height="600" viewBox="0 0 900 600" fill="none" xmlns="http://www.w3.org/2000/svg"><path fill="transparent" d="M0 0h900v600H0z"/><path d="M786.557 401.712h-64.864c-15.894 0-29.21-10.817-29.21-24.519 0-6.851 3.436-12.981 8.591-17.308 5.155-4.327 12.457-7.211 20.619-7.211h9.45c8.162 0 15.464-2.885 20.619-7.212 5.155-4.327 8.591-10.457 8.591-17.308 0-13.341-12.886-24.519-29.21-24.519H533.028c-5.177 0-8.503-6.362-8.503-11.538 0-12.981-12.458-23.438-27.922-23.438h-73.726a7.031 7.031 0 0 1 0-14.062H705.37c12.457 0 24.055-4.327 32.217-11.178 8.161-6.851 13.316-16.587 13.316-27.043 0-21.274-20.619-38.221-45.533-38.221H559.466c-22.893 0-45.554-17.669-68.447-17.669h-81.46c-11.948 0-21.634-9.686-21.634-21.634 0-11.949 9.686-21.635 21.634-21.635h182.407c8.591 0 16.753-2.884 22.337-7.572 5.584-4.687 9.021-11.178 9.021-18.75 0-14.423-14.176-26.322-31.358-26.322h-420.54c-8.591 0-16.753 2.885-22.337 7.572-5.584 4.688-9.021 11.178-9.021 18.75 0 14.423 14.176 26.322 31.358 26.322h10.739c14.176 0 26.203 9.736 26.203 21.995 0 6.13-3.007 11.539-7.732 15.505-4.725 3.967-11.168 6.491-18.471 6.491h-51.977c-9.02 0-17.612 3.245-23.626 8.293-6.013 5.048-9.88 11.899-9.88 19.832 0 15.504 15.035 27.764 33.077 27.764h52.836c17.182 0 31.358 11.899 31.358 26.322 0 7.212-3.437 13.702-9.021 18.389-5.584 4.688-13.317 7.572-21.908 7.572h-47.251c-7.733 0-14.605 2.525-19.76 6.851-5.155 4.327-8.162 10.097-8.162 16.587 0 12.981 12.457 23.437 27.922 23.437h38.23c21.908 0 39.52 14.784 39.52 33.173 0 9.015-4.296 17.669-11.598 23.438-7.303 6.13-17.183 9.735-27.922 9.735h-53.265c-10.739 0-20.619 3.606-27.492 9.736-7.302 5.769-11.598 14.062-11.598 23.077 0 18.029 17.612 32.812 39.09 32.812h164.474c18.165 0 36.008 10.096 54.172 10.096h29.955c11.451 0 20.733 9.283 20.733 20.733 0 11.451-9.282 20.734-20.733 20.734h-72.911c-9.45 0-17.612 3.245-23.626 8.293-6.014 5.048-9.88 12.259-9.88 19.832 0 15.504 15.035 28.124 33.506 28.124h446.743c9.45 0 17.612-3.245 23.626-8.293 6.014-5.048 9.88-12.259 9.88-19.831 0-15.505-15.035-28.125-33.506-28.125h-13.316c-13.746 0-24.485-9.375-24.485-20.553 0-5.769 2.577-10.818 7.302-14.423 4.296-3.606 10.739-6.13 17.612-6.13h56.273c9.45 0 17.612-3.245 23.625-8.293 6.014-5.048 9.88-12.26 9.88-19.832 0-16.226-15.034-28.846-33.505-28.846z" fill="url(#a)"/><path d="M837.423 362.992c-10.939 5.426-25.458-1.551-25.458-1.551s3.226-15.772 14.172-21.191c10.939-5.427 25.452 1.543 25.452 1.543s-3.227 15.772-14.166 21.199z" fill="url(#b)"/><path d="M71.747 357.381c15.974 9.574 38.891.724 38.891.724s-2.996-24.369-18.98-33.932c-15.974-9.574-38.881-.734-38.881-.734s2.996 24.368 18.97 33.942z" fill="url(#c)"/><circle cx="798.887" cy="202.007" r="7.429" transform="rotate(180 798.887 202.007)" fill="#009688"/><circle cx="643.121" cy="459.993" r="13.972" transform="rotate(180 643.121 459.993)" fill="#009688"/><circle r="11.091" transform="matrix(-1 0 0 1 184.039 491.641)" fill="#009688"/><circle r="7.425" transform="matrix(-1 0 0 1 766.726 279.955)" fill="#009688"/><circle r="13.79" transform="matrix(-1 0 0 1 62.79 497.753)" fill="#E1E4E5"/><circle r="10.495" transform="matrix(-1 0 0 1 809.951 503.372)" fill="#E1E4E5"/><circle r="13.193" transform="matrix(-1 0 0 1 694.637 123.928)" fill="#E1E4E5"/><circle r="10.478" transform="scale(1 -1) rotate(-75 -79.007 -232.809)" fill="#E1E4E5"/><circle r="13.94" transform="matrix(-1 0 0 1 285.358 118.233)" fill="#E1E4E5"/><ellipse rx="10.723" ry="8.578" transform="matrix(-1 0 0 1 748.126 377.211)" fill="#E1E4E5"/><circle r="21.807" transform="scale(1 -1) rotate(-75 264.426 -421.117)" fill="#E1E4E5"/><path d="M184.597 131.416h.153c.904 12.815 10.436 13.013 10.436 13.013s-10.511.205-10.511 15.014c0-14.809-10.51-15.014-10.51-15.014s9.528-.198 10.432-13.013zm9.315 411.176h.147c.868 12.778 10.019 12.975 10.019 12.975s-10.09.204-10.09 14.969c0-14.765-10.091-14.969-10.091-14.969s9.147-.197 10.015-12.975z" fill="#E1E4E5"/><circle r="92.618" transform="matrix(-1 0 0 1 448.856 448.256)" fill="#009688"/><path fill-rule="evenodd" clip-rule="evenodd" d="M480.793 480.66v4.557a4.561 4.561 0 0 1-4.563 4.557h-54.749a4.561 4.561 0 0 1-4.563-4.557v-4.63c0-13.79 15.777-22.75 31.938-22.75 16.16 0 31.937 8.964 31.937 22.75m-20.646-62.786c6.236 6.236 6.236 16.347 0 22.583-6.236 6.236-16.347 6.236-22.583 0-6.236-6.236-6.236-16.347 0-22.583 6.236-6.236 16.347-6.236 22.583 0z" fill="#fff"/><circle r="68.361" transform="matrix(-1 0 0 1 624.168 371.625)" fill="#009688"/><path fill-rule="evenodd" clip-rule="evenodd" d="M647.741 395.542v3.364a3.366 3.366 0 0 1-3.368 3.363h-40.41a3.366 3.366 0 0 1-3.368-3.363v-3.418c0-10.178 11.645-16.791 23.573-16.791s23.573 6.616 23.573 16.791m-15.239-46.342c4.603 4.603 4.603 12.066 0 16.669-4.602 4.603-12.065 4.603-16.668 0s-4.603-12.066 0-16.669c4.603-4.602 12.066-4.602 16.668 0z" fill="#fff"/><circle r="64.502" transform="matrix(-1 0 0 1 407.508 132.913)" fill="#009688"/><path fill-rule="evenodd" clip-rule="evenodd" d="M429.751 155.48v3.174a3.177 3.177 0 0 1-3.178 3.174h-38.129a3.177 3.177 0 0 1-3.177-3.174v-3.224c0-9.604 10.987-15.844 22.242-15.844 11.254 0 22.242 6.243 22.242 15.844m-14.379-43.726c4.343 4.343 4.343 11.384 0 15.727s-11.385 4.343-15.728 0-4.343-11.384 0-15.727 11.385-4.343 15.728 0z" fill="#fff"/><path d="M664.894 207.096v-43.663l-15.719-25.499-104.092-4.191-42.265 13.622-2.795 53.094 2.795 46.807 19.91 12.575 6.637 33.882 50.649-30.04 50.998-3.842 33.882-18.164v-34.581z" fill="#009688"/><path fill-rule="evenodd" clip-rule="evenodd" d="M536.368 252.322v28.906l47.297-27.948 4.944-.081c19.657-.322 37.348-2.302 50.575-4.314 8.348-1.27 14.149-7.097 15.409-14.412 1.748-10.147 3.237-23.003 3.237-37.288 0-14.285-1.489-27.141-3.237-37.288-1.26-7.316-7.061-13.142-15.409-14.412-14.467-2.202-34.252-4.36-56.1-4.36s-41.633 2.158-56.1 4.36c-8.348 1.27-14.149 7.096-15.409 14.412-1.748 10.147-3.237 23.003-3.237 37.288 0 14.285 1.489 27.141 3.237 37.288 1.094 6.353 5.532 11.444 12.003 13.596l12.79 4.253zm-43.208-95.597c2.711-15.741 15.222-27.312 31.013-29.714 15.13-2.302 35.886-4.572 58.911-4.572 23.026 0 43.781 2.27 58.911 4.572 15.791 2.402 28.302 13.973 31.013 29.714 1.89 10.97 3.508 24.906 3.508 40.46 0 15.554-1.618 29.49-3.508 40.46-2.711 15.74-15.222 27.311-31.013 29.714-13.841 2.106-32.391 4.185-53.08 4.523l-57.137 33.763c-6.228 3.681-14.096-.809-14.096-8.044v-31.8c-12.646-4.205-22.195-14.644-24.522-28.156-1.89-10.97-3.508-24.906-3.508-40.46 0-15.554 1.618-29.49 3.508-40.46z" fill="#009688"/><path fill-rule="evenodd" clip-rule="evenodd" d="M536.368 169.363a9.343 9.343 0 1 0 0 18.686H629.8c5.16 0 9.344-4.183 9.344-9.343s-4.184-9.343-9.344-9.343h-93.432zm0 37.372c-5.16 0-9.343 4.184-9.343 9.344a9.343 9.343 0 0 0 9.343 9.343h37.373a9.343 9.343 0 0 0 9.343-9.343c0-5.16-4.183-9.344-9.343-9.344h-37.373z" fill="#fff"/><path d="M204.676 285.38v-43.663l15.719-25.499 104.092-4.192 42.265 13.623 2.795 53.094-2.795 46.807-19.91 12.575-6.636 33.882-50.649-30.04-50.998-3.842-33.883-18.164V285.38z" fill="#009688"/><path fill-rule="evenodd" clip-rule="evenodd" d="M333.202 330.606v28.906l-47.297-27.948-4.944-.081c-19.657-.322-37.347-2.301-50.575-4.314-8.348-1.27-14.149-7.096-15.409-14.412-1.748-10.147-3.236-23.003-3.236-37.288 0-14.285 1.488-27.141 3.236-37.288 1.26-7.316 7.061-13.142 15.409-14.412 14.468-2.202 34.253-4.36 56.1-4.36 21.848 0 41.633 2.158 56.1 4.36 8.348 1.27 14.149 7.096 15.409 14.412 1.748 10.147 3.237 23.003 3.237 37.288 0 14.285-1.489 27.141-3.237 37.288-1.094 6.353-5.532 11.445-12.003 13.596l-12.79 4.253zm43.208-95.597c-2.711-15.741-15.222-27.311-31.013-29.714-15.129-2.302-35.885-4.572-58.911-4.572-23.025 0-43.781 2.27-58.911 4.572-15.79 2.403-28.302 13.973-31.013 29.714-1.89 10.97-3.508 24.906-3.508 40.46 0 15.554 1.618 29.49 3.508 40.46 2.711 15.74 15.223 27.311 31.013 29.714 13.842 2.106 32.392 4.185 53.08 4.524l57.137 33.762c6.229 3.681 14.097-.809 14.097-8.043v-31.801c12.645-4.205 22.194-14.644 24.521-28.156 1.89-10.97 3.508-24.906 3.508-40.46 0-15.554-1.618-29.49-3.508-40.46z" fill="#009688"/><path fill-rule="evenodd" clip-rule="evenodd" d="M333.202 247.647a9.343 9.343 0 1 1 0 18.686H239.77a9.343 9.343 0 1 1 0-18.686h93.432zm0 37.372c5.16 0 9.343 4.184 9.343 9.344a9.343 9.343 0 0 1-9.343 9.343h-37.373a9.343 9.343 0 0 1-9.343-9.343c0-5.16 4.183-9.344 9.343-9.344h37.373z" fill="#fff"/><defs><linearGradient id="a" x1="466.6" y1="831.582" x2="456.513" y2="-470.156" gradientUnits="userSpaceOnUse"><stop stop-color="#fff"/><stop offset="1" stop-color="#EEE"/></linearGradient><linearGradient id="b" x1="795.415" y1="379.919" x2="885.643" y2="308.548" gradientUnits="userSpaceOnUse"><stop stop-color="#fff"/><stop offset="1" stop-color="#EEE"/></linearGradient><linearGradient id="c" x1="133.562" y1="388.199" x2="5.03" y2="268.776" gradientUnits="userSpaceOnUse"><stop stop-color="#fff"/><stop offset="1" stop-color="#EEE"/></linearGradient></defs></svg>