<svg width="900" height="600" viewBox="0 0 900 600" fill="none" xmlns="http://www.w3.org/2000/svg"><path fill="transparent" d="M0 0h900v600H0z"/><path d="M544.807 248.402c-2.729 4.87-8.705 5.539-18.279 4.613-7.201-.697-13.767-1.236-20.968-5.162-5.04-2.747-9.03-6.462-11.942-10.07-3.155-3.909-7.56-8.371-5.401-12.803 2.968-6.089 20.127-11.217 36.789-2.831 18.303 9.215 22.47 21.493 19.801 26.253z" fill="url(#a)"/><path d="M626.094 263.977c-13.939 6.915-32.441-1.976-32.441-1.976s4.112-20.099 18.059-27.004c13.94-6.915 32.434 1.967 32.434 1.967s-4.112 20.098-18.052 27.013z" fill="url(#b)"/><path d="M264.204 228.598c11.055 6.626 26.916.501 26.916.501s-2.074-16.866-13.136-23.484c-11.055-6.626-26.909-.508-26.909-.508s2.073 16.865 13.129 23.491z" fill="url(#c)"/><circle cx="715.17" cy="185.583" r="11.276" transform="rotate(180 715.17 185.583)" fill="#009688"/><circle cx="252.815" cy="301.898" r="12.685" transform="rotate(180 252.815 301.898)" fill="#009688"/><circle r="4.933" transform="matrix(-1 0 0 1 585.365 202.994)" fill="#009688"/><circle r="6.343" transform="matrix(-1 0 0 1 533.82 407.542)" fill="#E1E4E5"/><circle r="9.161" transform="matrix(-1 0 0 1 207.381 340.564)" fill="#E1E4E5"/><circle r="6.973" transform="matrix(-1 0 0 1 276.412 123.666)" fill="#E1E4E5"/><circle r="7.752" transform="matrix(-1 0 0 1 614.227 170.22)" fill="#E1E4E5"/><circle r="6.961" transform="scale(1 -1) rotate(-75 -15.848 -226.45)" fill="#E1E4E5"/><circle r="9.261" transform="matrix(-1 0 0 1 368.224 65.17)" fill="#E1E4E5"/><ellipse rx="7.124" ry="5.699" transform="matrix(-1 0 0 1 630.123 303.462)" fill="#E1E4E5"/><circle r="14.488" transform="scale(1 -1) rotate(-75 222.406 -377.197)" fill="#E1E4E5"/><path d="M634.68 357.149h.186c1.104 15.636 12.732 15.876 12.732 15.876s-12.823.251-12.823 18.317c0-18.066-12.822-18.317-12.822-18.317s11.623-.24 12.727-15.876zm-324.225 34.502h.165c.98 14.151 11.297 14.369 11.297 14.369s-11.377.226-11.377 16.578c0-16.352-11.378-16.578-11.378-16.578s10.314-.218 11.293-14.369z" fill="#E1E4E5"/><path d="M349.718 246.131c77.468-4.385 158.688 18.457 146.75 51.57-11.94 33.113 63.829-11.761 94.064.178 21.527 8.499 12.922 34.373 23.336 44.799 23.877 23.904 48.299-6.197 78.689 11.864 30.389 18.062-31.83 186.631-63.578 187.573l-362.109-2.147-25.987-2.278s-71.88-38.345-20.461-73.718c34.768-23.917 9.752-41.286 5.97-52.235-4.341-12.573-14.471-34.53 29.667-50.643 44.138-16.112 32.743-51.174 31.656-58.433-1.084-7.262-15.463-52.144 62.003-56.53z" fill="url(#d)"/><rect x="410.687" y="379.003" width="74.898" height="71.532" rx="4" fill="#fff" stroke="#E1E4E5" stroke-width="7"/><path stroke="#E1E4E5" stroke-width="7" d="M429.636 390.668h56.678m-35.099-129.482v117.817"/><path d="M487.514 331.408c-24.199-3.386-34.319 14.619-36.761 26.219-.399 1.893.843 3.693 2.73 4.121 28.517 6.467 36.491-13.277 37.112-26.681.085-1.836-1.26-3.405-3.081-3.659z" fill="#fff" stroke="#E1E4E5" stroke-width="7"/><path stroke="#E1E4E5" stroke-width="7" d="m450.003 358.405 26.93-17.673"/><path d="M475.733 296.333c-15.851-1.759-22.882 9.679-24.91 17.735-.472 1.876.783 3.694 2.68 4.077 18.791 3.798 24.523-8.904 25.264-18.193.146-1.833-1.207-3.416-3.034-3.619z" fill="#fff" stroke="#E1E4E5" stroke-width="7"/><path stroke="#E1E4E5" stroke-width="7" d="m449.512 314.716 19.076-12.518"/><path d="M468.161 264.621c-11.128-.883-16.358 6.909-18.11 12.872-.545 1.856.697 3.687 2.602 4.021 13.288 2.331 17.698-6.435 18.488-13.322.21-1.827-1.146-3.426-2.98-3.571z" fill="#fff" stroke="#E1E4E5" stroke-width="7"/><path stroke="#E1E4E5" stroke-width="7" d="m448.389 278.06 14.587-9.573"/><path d="M412.966 331.408c24.2-3.386 34.319 14.619 36.762 26.219.398 1.893-.844 3.693-2.731 4.121-28.516 6.467-36.491-13.277-37.111-26.681-.085-1.836 1.259-3.405 3.08-3.659z" fill="#fff" stroke="#E1E4E5" stroke-width="7"/><path stroke="#E1E4E5" stroke-width="7" d="m450.477 358.405-26.93-17.673"/><path d="M424.748 296.333c15.851-1.759 22.881 9.679 24.909 17.735.473 1.876-.783 3.694-2.679 4.077-18.792 3.798-24.524-8.904-25.265-18.193-.146-1.833 1.207-3.416 3.035-3.619z" fill="#fff" stroke="#E1E4E5" stroke-width="7"/><path stroke="#E1E4E5" stroke-width="7" d="m450.968 314.717-19.075-12.518"/><path d="M430.635 264.621c11.128-.883 16.358 6.909 18.11 12.872.545 1.856-.697 3.687-2.602 4.021-13.288 2.331-17.698-6.435-18.488-13.322-.21-1.827 1.146-3.426 2.98-3.571z" fill="#fff" stroke="#E1E4E5" stroke-width="7"/><path stroke="#E1E4E5" stroke-width="7" d="m450.407 278.06-14.587-9.573M124.223 401.785l-1.647-27.998c-.754-12.83 7.189-24.645 19.827-26.986 38.576-7.145 94.277-7.226 129.748-.243 12.005 2.364 19.214 13.721 18.495 25.935l-1.723 29.292m-139.201 56.851c0-15.699 12.727-28.426 28.426-28.426h56.85c15.699 0 28.426 12.727 28.426 28.426v14.212H149.722v-14.212z"/><path d="M108.028 416.884c-.511-8.182 5.987-15.099 14.185-15.099h13.297c7.849 0 14.213 6.363 14.213 14.212v99.489h-22.18c-7.505 0-13.717-5.835-14.185-13.326l-5.33-85.276zm197.09 0c.512-8.182-5.987-15.099-14.185-15.099h-13.296c-7.85 0-14.213 6.363-14.213 14.212v99.489h22.179c7.506 0 13.717-5.835 14.185-13.326l5.33-85.276zm-155.396 98.602v21.319m113.702-21.319v21.319m0-21.319H149.722m216.685 0v21.319m168.186-21.319v21.319m-184.894-42.831c0-23.375 22.565-42.325 50.401-42.325h100.8c27.836 0 50.401 18.95 50.401 42.325v21.163H349.699v-21.163zm262.378-92.189-1.647-27.998c-.754-12.83 7.189-24.645 19.827-26.986 38.576-7.145 94.277-7.226 129.748-.243 12.005 2.364 19.214 13.721 18.495 25.935l-1.723 29.292m-139.201 56.851c0-15.699 12.726-28.426 28.425-28.426h56.851c15.699 0 28.426 12.727 28.426 28.426v14.212H637.576v-14.212zM595.882 416.884c-.511-8.182 5.987-15.099 14.185-15.099h13.297c7.849 0 14.212 6.363 14.212 14.212v99.489h-22.179c-7.505 0-13.717-5.835-14.185-13.326l-5.33-85.276zm197.09 0c.511-8.182-5.987-15.099-14.185-15.099H765.49c-7.849 0-14.212 6.363-14.212 14.212v99.489h22.179c7.505 0 13.717-5.835 14.185-13.326l5.33-85.276zm-155.396 98.602v21.319m113.702-21.319v21.319m0-21.319H637.576" stroke="#E1E4E5" stroke-width="7"/><rect x="227.179" y="150.024" width="276.242" height="24.152" rx="4" fill="#fff" stroke="#E1E4E5" stroke-width="7"/><rect x="263.407" y="125.871" width="31.7" height="24.152" rx="4" fill="#fff" stroke="#E1E4E5" stroke-width="7"/><rect x="263.407" y="79.076" width="31.7" height="46.795" rx="4" fill="#fff" stroke="#E1E4E5" stroke-width="7"/><rect x="295.107" y="80.586" width="28.681" height="66.419" rx="4" fill="#fff" stroke="#E1E4E5" stroke-width="7"/><rect x="323.788" y="80.586" width="28.681" height="66.419" rx="4" fill="#fff" stroke="#E1E4E5" stroke-width="7"/><rect x="470.211" y="131.909" width="18.114" height="90.571" rx="4" transform="rotate(90 470.211 131.909)" fill="#fff" stroke="#E1E4E5" stroke-width="7"/><rect x="471.721" y="115.304" width="15.095" height="78.495" rx="4" transform="rotate(90 471.721 115.304)" fill="#fff" stroke="#E1E4E5" stroke-width="7"/><rect x="263.407" y="51.905" width="31.7" height="27.171" rx="4" fill="#fff" stroke="#E1E4E5" stroke-width="7"/><circle cx="617.204" cy="129.519" r="55.504" fill="#fff" stroke="#E1E4E5" stroke-width="7"/><path stroke="#E1E4E5" stroke-width="7" d="M616.346 133.484v-31.716m23.257 59.041-23.787-29.073"/><path fill-rule="evenodd" clip-rule="evenodd" d="M642.289 514.897s5.902 11.921 1.063 15.678c-4.845 3.757-17.645 10.798-17.645 10.798l33.911-2.131-7.538-25.999-9.791 1.654z" fill="#F8AE9D"/><path fill-rule="evenodd" clip-rule="evenodd" d="M656.259 525.685c-1.067.509.688 5.299-3.067 4.962-3.753-.336-6.11-5.287-8.878-4.965-2.769.321-4.527 5.306-9.797 8.779-5.27 3.474-13.084 7.616-12.56 11.107.523 3.492 12.819 4.427 19.049 3.271 6.229-1.155 9.137-3.659 13.179-3.459 4.041.199 6.581-.295 7.848-2.891 1.266-2.595-4.542-17.392-5.774-16.804zm37.114-115.855c-10.267.458-67.406 13.096-77.787 15.243-10.382 2.147-19.158 13.766-11.242 27.219 8.891 15.102 31.832 57.991 37.402 67.659 2.757 4.785 16.665 2.102 13.398-5.93-6.09-14.973-8.919-52.586-24.445-66.3 0 0 52.216 9.087 74.771-1.322 16.393-7.567 12.685-37.677-12.097-36.569z" fill="#133835"/><path fill-rule="evenodd" clip-rule="evenodd" d="M621.754 345.746s.116-6.103-2.806-10.468c-2.922-4.366-3.038-9.003-5.249-8.851-2.212.152-.022 10.93-.022 10.93s-2.806-1.072-4.822-2.428c-2.015-1.356-8.127-8.04-9.556-6.856-2.422 2.019 1.479 13.403 3.604 15.679 2.131 2.277 12.651 8.639 12.651 8.639l30.979 31.21 4.633-16.568-29.412-21.287z" fill="#F8AE9D"/><path fill-rule="evenodd" clip-rule="evenodd" d="M683.72 342.991c-4.775 11.077-13.52 31.425-17.125 37.496-4.517 7.602-11.641 10.952-19.982 5.311-1.745-1.18-6.757-5.308-6.757-5.308.742-7.226 3.442-13.265 8.095-18.121l3.16 2.615s8.963-22.975 16.172-36.284c6.244-11.515 23.707-2.548 16.437 14.291zm20.64-42.995v9.801l7.198-5.795s2.212-9.391 4.011-16.365c1.129-4.374 3.878-19.176-7.189-18.482-9.066-15.981-35.468-6.09-35.678 13.434-.253 23.482-.047 32.624-.047 32.624 14.93.857 23.334-1.301 31.705-15.217z" fill="#133835"/><path fill-rule="evenodd" clip-rule="evenodd" d="M711.713 318.657s-6.696-1.572-6.928-12.543c-.232-10.971-.069-14.715-.069-14.715l-14.748-.267s-.161 12.227-.163 16.65c-.007 10.753-7.914 11.634-7.914 11.634s1.351 8.872 14.715 9.624c10.434.587 15.107-10.383 15.107-10.383z" fill="#F8AE9D"/><path fill-rule="evenodd" clip-rule="evenodd" d="M708.154 285.92c6.579-.254 5.506 9.377-1.328 9.364 0 0-3.97 13.682-17.752 13.682-11.192 0-11.92-15.947-12.022-19.128-.109-3.392-.123-14.535-.123-14.535l31.481-.014-.256 10.631z" fill="#F8AE9D"/><path fill-rule="evenodd" clip-rule="evenodd" d="M708.663 285.857c-2.726.45-2.396 2.255-3.137 2.097-3.765-.8-19.003.255-20.966-8.124-2.441 5.235-3.038 6.522-8.414 7.927v-15.341l34.003-3.261s-.528 16.543-1.486 16.702z" fill="#133835"/><path fill-rule="evenodd" clip-rule="evenodd" d="M710.217 317.535c-8.403 5.146-18.117 7.033-27.159 1.444-14.757 29.098-18.434 63.815-14.885 102.186 21.518 8.519 39.604 6.844 55.001-2.893l-12.957-100.737z" fill="#009688"/><path fill-rule="evenodd" clip-rule="evenodd" d="M605.505 515.376s.178 14.031-11.384 19.277c-11.554 5.245-19.786 4.929-18.738 8.985 1.048 4.055 31.122 3.891 33.931.72 2.393-2.698 7.599-27.821 9.032-25.9l-12.841-3.082z" fill="#F8AE9D"/><path fill-rule="evenodd" clip-rule="evenodd" d="M614.859 530.03c-1.928-1.023-2.409 6.463-7.454 5.089-5.046-1.374-2.2-8.583-5.37-9.408-3.169-.825-8.057 6.606-15.533 9.271-7.476 2.664-13.532 4.93-14.898 8.168-1.178 2.784.464 3.398.464 3.398s7.915 2.688 12.63 2.873c6.849.269 26.287-1.584 28.11-4.03 1.12-1.501 3.015-14.848 2.051-15.361zm110.68-124.537s14.925 31.52-6.05 42.344c-20.284 10.467-81.009-1.913-81.009-1.913s1.085 8.737 0 16.528c-2.834 20.35-16.313 54.255-19.164 58.515-3.944 5.891-15.957 1.448-16.183-3.457-.226-4.906 9.056-67.556 10.467-79.503 1.405-11.948 5.838-13.684 18.787-16.95 2.975-.75 38.154-9.492 41.376-9.238 27.691 2.19 51.776-6.326 51.776-6.326z" fill="#133835"/><path fill-rule="evenodd" clip-rule="evenodd" d="M709.85 317.558c-13.916 45.586-22.261 110.215 21.2 98.971-23.087-42.507 8.299-61.639 1.185-83.607-2.432-7.511-22.203-15.953-22.385-15.364zm-26.055 1.102c-5.31 13.319-7.863 23.77-10.245 43.321-1.986 16.283-.992 49.884-.992 49.884l-6.562 1.29s-4.692-51.912-3.123-58.596c2.632-11.216 4.415-17.77 7.891-28.023 1.915-5.628 13.031-7.876 13.031-7.876z" fill="#133835"/><path fill-rule="evenodd" clip-rule="evenodd" d="M706.928 369.31s-8.569-8.579-11.536-9.575c-2.967-.996-19.222-2.192-19.112.058.125 2.41 10.584 2.272 11.551 3.458.968 1.185 2.313 10.414 5.969 11.324 3.649.91 11.212 3.604 11.212 3.604l33.669 17.396-3.587-17.395-28.166-8.87z" fill="#F8AE9D"/><path fill-rule="evenodd" clip-rule="evenodd" d="M732.716 332.984c10.213 14.414 18.932 36.369 22.279 44.929 3.347 8.56-.029 21.471-14.746 18.936-1.753-.301-4.603-1.411-4.603-1.411-5.411-7.418-6.361-13.786-4.341-19.457l1.903.804s-14.627-25.928-18.199-32.878c-5.966-11.608 8.711-23.622 17.707-10.923z" fill="#133835"/><path d="M317.403 467.355c7.06-2.385 13.179-7.466 16.752-13.982 1.009-1.797 1.833-3.861 1.562-5.905-.069-.416-.175-.909-.55-1.103-.337-.194-.791-.088-1.171.02-11.792 3.181-24.259 8.543-36.636 7.977-.567-.008-1.132-.055-1.627.165-.608.255-.994.815-1.267 1.415-.936 1.95-1.747 5.638-1.441 7.833.376 2.611 2.9 2.989 5.12 3.552 6.319 1.606 12.957 2.16 19.258.028z" fill="#F8AE9D"/><path d="M318.492 452.72c.95-.401 1.938-.802 2.958-.824 1.02-.022 2.144.524 2.469 1.51.216.683.017 1.398-.257 2.036-.743 1.65-2.047 2.989-3.425 4.177-5.278 4.451-12.041 7.143-18.958 7.566-3.061.18-6.267-.095-8.964-1.533 1.347-1.641 1.08-3.986 1.225-6.061.432-6.073 5.608-3.767 9.762-3.779 5.213-.11 10.402-1.126 15.19-3.092z" fill="#F8AE9D"/><path d="M160.499 407.8a517 517 0 0 0-.237.676c-1.659 4.808-2.943 9.773-3.473 14.863-.973 9.35.862 20.291 7.896 27.082 9.378 9.054 24.424 10.453 36.654 8.298a30.965 30.965 0 0 0 13.724-6.098c3.986 3.61 8.269 7.564 11.833 11.584a90.071 90.071 0 0 0 20.28-10.115c14.926 6.835 30.149 11.447 46.223 14.788a62.396 62.396 0 0 0 3.841-14.216c.125-.791-9.892-7.551-11.048-8.513-3.468-2.923-10.692-9.603-10.692-9.603s9.105-7.754 13.088-11.394a189.47 189.47 0 0 0 12.113-11.9c3.186-3.425 6.3-7.041 8.253-11.316 1.952-4.238 2.67-9.249 1.038-13.654-5.154-13.71-25.958-8.891-35.622-4.166-7.989 3.919-14.986 9.628-21.72 15.416-2.716 2.3-5.396 4.676-8.037 7.015-2.082-2.146-4.381-4.938-6.348-7.195-2.115-2.449-4.534-4.752-7.458-6.193-3.073-1.558-5.908-1.336-9.186-1.801-1.47-.212-2.898-.649-4.329-.897-4.293-.783-8.837.055-12.609 2.263-3.582 2.098-6.49 4.584-10.693 5.389-4.772.909-10.315.372-15.101-.268-4.296-.594-8.661-1.566-12.941-.725-1.78.351-2.46 2.833-3.048 4.259-.787 2.065-1.612 4.205-2.401 6.421zm37.919-158.14s-11.554-1.837-14.657 18.56c-3.447 22.675-12.653 18.945-27.273 37.358-8.544 10.759.448 29.759 18.72 29.382 18.272-.367 34.774-5.65 45.284-3.39 10.511 2.26 11.088-24.66.718-32.966-10.371-8.306 11.74-32.157-1.733-42.779-13.474-10.621-21.059-6.165-21.059-6.165z" fill="#133835"/><path d="M129.354 339.603c-1.054-2.166-.99-4.681-.61-7.029 1.647-10.075 8.708-18.495 16.802-24.665 8.12-6.186 17.414-10.602 25.957-16.145 2.217-1.444 4.44-2.998 6.985-3.778 2.546-.781 5.504-.697 7.606.945 1.484 1.152 2.342 2.933 2.841 4.714 1.094 3.9.675 8.03.008 11.987-.835 4.99-2.059 9.928-4.07 14.515-1.612 3.7-4.236 7.507-8.179 8.232-1.141 4.421-3.491 8.566-6.786 11.736-3.769 3.636-8.547 6.013-13.506 7.673-4.569 1.533-9.567 2.534-14.163 1.103-2.728-.833-5.13-2.437-7.48-4.073-2.097-1.393-4.272-2.918-5.405-5.215zm41.295-6.719 2.697-4.282a5.956 5.956 0 0 0-1.666.393c-1.481.641-2.373 2.974-1.031 3.889z" fill="#133835"/><path d="M220.631 267.598c.14.757.165 1.551.114 2.456a50.446 50.446 0 0 1-3.369 15.431c-1.177 2.928-2.618 5.813-4.656 8.237-.846 1.007-1.805 1.936-3.056 2.295-1.29.358-2.914.409-4.193.087-1.128 4.666-.658 13.471 3.37 16.78 1.231 1 2.694 1.627 4.159 2.178 2.853 1.1 5.823 1.938 8.797 2.588 3.387.731 7.079 1.278 9.458 3.769.298.306.593.726.474 1.14-.08.263-.271.449-.5.596-1.873 1.52-4.19 2.353-6.505 3.149-4.062 1.373-8.233 2.518-12.474 3.285-4.43.801-9.005 1.184-13.491.701-3.468-.393-6.891-1.275-10.04-2.834-3.298-1.636-6.676-2.971-10.089-4.533-2.887-1.328-5.734-2.844-8.86-3.382 1.478-2.81 4.56-4.387 7.63-5.133 3.07-.709 6.28-.773 9.386-1.368 1.023-.211 2.046-.46 2.924-1.089 2.406-1.738 1.747-5.6 1.785-8.129l.122-8.004c-.358-3.819-1.933-7.015-3.315-10.51-2.109-5.357-2.545-11.443-.687-16.928 1.858-5.447 6.084-10.179 11.513-12.098 5.429-1.918 11.945-.838 16.114 3.153 2.642 2.57 4.797 4.869 5.389 8.163z" fill="#F8AE9D"/><path d="M203.935 250.579c5.411-.604 10.342 2.046 13.998 6.153 3.075 3.443 4.883 7.988 4.792 12.555-.013.652-.087 1.363-.454 1.949-.978 1.404-3.103.887-4.693.262-2.59-1.001-4.519-2.463-6.867-3.697-2.349-1.233-5.2-1.053-7.302-2.756-1.984-1.642-8.798-5.1-8.981-7.774-.232-3.268 5.754-5.936 8.257-6.48.358-.111.775-.162 1.25-.212z" fill="#133835"/><path d="M188.347 257.976c-4.576 2.951-6.723 8.12-6.961 13.614-.209 4.612 1.262 9.277 4.218 12.759.423.497.928 1.001 1.584 1.223 1.645.471 2.965-1.273 3.802-2.762 1.376-2.412 1.946-4.764 2.987-7.204 1.041-2.44 3.365-4.102 3.918-6.751.501-2.526 3.596-9.511 2.05-11.7-1.886-2.679-8.212-.965-10.495.196-.348.139-.703.363-1.103.625z" fill="#133835"/><path d="M229.045 320.252c.723-.329 1.588-.089 2.069.56 5.398 7.559 7.482 17.031 9.307 26.159 2.07 10.379 3.914 20.791 5.681 31.202.105.531.172 1.098-.062 1.586-.234.487-.766.743-1.26.962-3.12 1.501-6.276 2.964-9.395 4.464a103.668 103.668 0 0 1-7.227-23.937c-2.003 5.067-5.619 9.468-10.232 12.344 3.437 4.923 7.668 14.768 11.794 19.097.631.69 4.537-.384 5.41-.673.543 1.557-2-.105-1.986 1.481-2.347.342-5.346-1.063-7.758-1.364a40.024 40.024 0 0 0-8.76-.058c-4.842.531-9.547 2.045-13.849 4.321a49.289 49.289 0 0 0-6.138 3.872c-1.681 1.258-5.842 4.216-5.842 4.216-.306.222-1.736-.102-2.074-.183a38.328 38.328 0 0 0-2.977-.385 70.673 70.673 0 0 1-7.462-.981c-4.933-.906-9.784-2.301-14.437-4.223-.448-.346 1.151-3.645 1.236-4.286-.085.603-9.25-.14-10.153-.305-3.614-.734-7.271-1.13-10.885-1.902 1.619-14.552 6.061-28.607 10.427-42.55 1.707-5.488 3.452-10.974 5.872-16.149 2.576-5.512 5.902-10.672 9.899-15.256.115-.112.305-.184.455-.144 1.918.482 13.617 3.492 19.437 5.657 2.966 1.14 5.971 2.168 9.014 3.196 1.202.396 2.443.792 3.689.773.831-.025 1.665-.201 2.46-.378 8.109-1.802 16.219-3.756 23.747-7.116z" fill="#009688"/><path d="M176.269 349.244c-.334 2.072-.781 4.18-1.228 6.25a110.136 110.136 0 0 1-4.175 13.833c-.865 2.252-1.767 4.467-2.782 6.679-.508 1.088-1.015 2.175-1.561 3.262-.272.524-.545 1.087-.817 1.611-.233.45-.504.861-.737 1.273 1.625-.051 9.642.412 11.302.55" stroke="#fff" stroke-width="1.376" stroke-miterlimit="10" stroke-linecap="round"/><path d="M176.53 384.329a46.902 46.902 0 0 1-.615 3.163l-.728 3.16c-.24.903-.786 2.028-.8 2.971.003-.188 6.431-.733 7.036-.799 6.694-.653 13.421-1.042 20.111-1.469 4.347-.274 8.613-.172 12.955-.143 1.283.019 2.796-.109 3.491-1.156.581-.897.107-2.037.573-2.861.3.08 3.799.964 3.762.888.139.795.416 2.461 1.241 2.851.3.118.602.16.904.165.453.007.907-.062 1.361-.131a.283.283 0 0 0 .19-.072c.077-.075.003-.189-.071-.303a9.002 9.002 0 0 1-1.545-5.159c-1.084-.734-2.167-1.582-3.097-2.502-.743-.767-1.295-1.757-2.115-2.411-.858-.731-1.695-.29-2.643-.04a45.858 45.858 0 0 0-3.261.856c-2.086.649-4.175 1.448-5.932 2.743-.611.443-1.185.926-1.906 1.141-.683.216-1.438.205-2.155.194-4.416-.105-8.831-.323-13.204-.805-4.487-.483-7.546-.416-13.424-1.299 0 .038-.005.378-.128 1.018z" fill="#F8AE9D"/><path d="M225.168 348.825A119.12 119.12 0 0 1 227.5 362.7" stroke="#fff" stroke-width="1.376" stroke-miterlimit="10" stroke-linecap="round"/><path d="M314.217 341.295 301.255 399.1l-98.422-1.495c.052-3.398 2.85-6.15 6.286-6.097l23.52.357 11.721-53.179a3.714 3.714 0 0 1 3.67-2.928l62.594.951c2.378.074 4.12 2.253 3.593 4.586z" fill="#133835"/><path d="M185.645 482.535c.456-2.636 1.743-5.336 2.949-7.696 4.981-9.667 13.883-16.48 23.47-21.168.989-.476 1.978-.952 3.003-1.314-.077.112-.155.225-.232.374l-.001.038h-.038c.115-.074.191-.149.306-.222 3.874 3.495 8.007 7.334 11.536 11.201-2.332 1.891-5.717 3.425-7.397 4.684-3.972 2.923-7.795 6.036-11.915 8.768-5.532 3.73-11.426 6.435-18.015 7.619-2.537.452-3.866.923-3.836-1.04.043-.302.087-.716.17-1.244z" fill="#F8AE9D"/><path d="M192.07 474.929c2.565-4.832 6.548-8.51 10.903-11.767 3.056-2.295 6.297-4.36 9.387-6.466.878-.591 2.601-2.188 4.086-2.959 3.091 2.804 6.256 5.759 9.117 8.824-9.452 5.747-17.873 13.247-28.244 17.319-.95.363-1.937.726-2.957.748-1.02.022-2.108-.41-2.7-1.249-.924-1.298-.331-3.064.408-4.45z" fill="#F8AE9D"/><defs><linearGradient id="a" x1="526.424" y1="279.963" x2="502.103" y2="170.673" gradientUnits="userSpaceOnUse"><stop stop-color="#fff"/><stop offset="1" stop-color="#EEE"/></linearGradient><linearGradient id="b" x1="572.565" y1="285.546" x2="687.539" y2="194.601" gradientUnits="userSpaceOnUse"><stop stop-color="#fff"/><stop offset="1" stop-color="#EEE"/></linearGradient><linearGradient id="c" x1="306.985" y1="249.926" x2="218.03" y2="167.276" gradientUnits="userSpaceOnUse"><stop stop-color="#fff"/><stop offset="1" stop-color="#EEE"/></linearGradient><linearGradient id="d" x1="461.927" y1="708.362" x2="456.491" y2="-77.043" gradientUnits="userSpaceOnUse"><stop stop-color="#fff"/><stop offset="1" stop-color="#EEE"/></linearGradient></defs></svg>