<svg width="900" height="600" viewBox="0 0 900 600" fill="none" xmlns="http://www.w3.org/2000/svg"><path fill="transparent" d="M0 0h900v600H0z"/><path clip-rule="evenodd" d="M170.219 151.986h-28.862c-5.311 0-9.621-4.31-9.621-9.621v-28.862c0-5.311 4.31-9.621 9.621-9.621h28.862c5.311 0 9.621 4.31 9.621 9.621v28.862c0 5.311-4.31 9.621-9.621 9.621z" stroke="#E1E4E5" stroke-width="14.431" stroke-linecap="round" stroke-linejoin="round"/><path d="M218.323 103.882h67.346m-67.346 48.104h67.346M131.736 200.09h153.933m-153.933 48.104h153.933" stroke="#E1E4E5" stroke-width="14.431" stroke-linecap="round" stroke-linejoin="round"/><path clip-rule="evenodd" d="M170.219 399.91h-28.862c-5.311 0-9.621-4.31-9.621-9.621v-28.862c0-5.311 4.31-9.621 9.621-9.621h28.862c5.311 0 9.621 4.31 9.621 9.621v28.862c0 5.311-4.31 9.621-9.621 9.621z" stroke="#E1E4E5" stroke-width="14.431" stroke-linecap="round" stroke-linejoin="round"/><path d="M218.323 351.806h67.346m-67.346 48.104h67.346m-153.933 48.104h153.933m-153.933 48.104h153.933" stroke="#E1E4E5" stroke-width="14.431" stroke-linecap="round" stroke-linejoin="round"/><path clip-rule="evenodd" d="M418.143 151.986h-28.862c-5.311 0-9.621-4.31-9.621-9.621v-28.862c0-5.311 4.31-9.621 9.621-9.621h28.862c5.311 0 9.621 4.31 9.621 9.621v28.862c0 5.311-4.31 9.621-9.621 9.621z" stroke="#E1E4E5" stroke-width="14.431" stroke-linecap="round" stroke-linejoin="round"/><path d="M466.247 103.882h67.346m-67.346 48.104h67.346M379.66 200.09h153.933M379.66 248.194h153.933" stroke="#E1E4E5" stroke-width="14.431" stroke-linecap="round" stroke-linejoin="round"/><path clip-rule="evenodd" d="M418.143 399.91h-28.862c-5.311 0-9.621-4.31-9.621-9.621v-28.862c0-5.311 4.31-9.621 9.621-9.621h28.862c5.311 0 9.621 4.31 9.621 9.621v28.862c0 5.311-4.31 9.621-9.621 9.621z" stroke="#E1E4E5" stroke-width="14.431" stroke-linecap="round" stroke-linejoin="round"/><path d="M466.247 351.806h67.346m-67.346 48.104h67.346M379.66 448.014h153.933M379.66 496.118h153.933" stroke="#E1E4E5" stroke-width="14.431" stroke-linecap="round" stroke-linejoin="round"/><path clip-rule="evenodd" d="M666.067 151.986h-28.862c-5.311 0-9.621-4.31-9.621-9.621v-28.862c0-5.311 4.31-9.621 9.621-9.621h28.862c5.311 0 9.621 4.31 9.621 9.621v28.862c0 5.311-4.31 9.621-9.621 9.621z" stroke="#E1E4E5" stroke-width="14.431" stroke-linecap="round" stroke-linejoin="round"/><path d="M714.171 103.882h67.346m-67.346 48.104h67.346M627.584 200.09h153.933m-153.933 48.104h153.933" stroke="#E1E4E5" stroke-width="14.431" stroke-linecap="round" stroke-linejoin="round"/><path clip-rule="evenodd" d="M666.067 399.91h-28.862c-5.311 0-9.621-4.31-9.621-9.621v-28.862c0-5.311 4.31-9.621 9.621-9.621h28.862c5.311 0 9.621 4.31 9.621 9.621v28.862c0 5.311-4.31 9.621-9.621 9.621z" stroke="#E1E4E5" stroke-width="14.431" stroke-linecap="round" stroke-linejoin="round"/><path d="M714.171 351.806h67.346m-67.346 48.104h67.346m-153.933 48.104h153.933m-153.933 48.104h153.933" stroke="#E1E4E5" stroke-width="14.431" stroke-linecap="round" stroke-linejoin="round"/><path fill-rule="evenodd" clip-rule="evenodd" d="M172.524 177.368h-73.42c-10.137 0-18.354-8.217-18.354-18.355v-73.42c0-10.138 8.217-18.354 18.355-18.354h73.419c10.138 0 18.355 8.216 18.355 18.355v73.419c0 10.138-8.217 18.355-18.355 18.355z" fill="#009688"/><path fill-rule="evenodd" clip-rule="evenodd" d="M143.463 122.303h15.295a3.061 3.061 0 0 1 3.06 3.059v12.237a3.06 3.06 0 0 1-3.06 3.059h-12.236a3.06 3.06 0 0 1-3.059-3.059v-15.296z" fill="#fff"/><path d="M143.463 122.303h15.295a3.061 3.061 0 0 1 3.06 3.059v12.237a3.06 3.06 0 0 1-3.06 3.059h-12.236a3.06 3.06 0 0 1-3.059-3.059v-15.296m0 0c0-12.236 2.294-14.274 9.177-18.355" stroke="#fff" stroke-width="9.177" stroke-linecap="round" stroke-linejoin="round"/><path fill-rule="evenodd" clip-rule="evenodd" d="M109.812 122.303h15.296a3.06 3.06 0 0 1 3.059 3.059v12.237a3.06 3.06 0 0 1-3.059 3.059h-12.237a3.06 3.06 0 0 1-3.059-3.059v-15.296z" fill="#fff"/><path d="M109.812 122.303h15.296a3.06 3.06 0 0 1 3.059 3.059v12.237a3.06 3.06 0 0 1-3.059 3.059h-12.237a3.06 3.06 0 0 1-3.059-3.059v-15.296m0 0c0-12.236 2.294-14.274 9.177-18.355" stroke="#fff" stroke-width="9.177" stroke-linecap="round" stroke-linejoin="round"/></svg>