<svg width="900" height="600" viewBox="0 0 900 600" fill="none" xmlns="http://www.w3.org/2000/svg"><path fill="transparent" d="M0 0h900v600H0z"/><path d="M724.308 236.989c-13.417 23.946-42.802 27.236-89.879 22.686-35.405-3.429-67.691-6.082-103.099-25.387-24.783-13.502-44.4-31.771-58.718-49.513-15.516-19.222-37.173-41.159-26.556-62.953 14.59-29.938 98.962-55.152 180.89-13.918 89.998 45.308 110.488 105.682 97.362 129.085z" fill="url(#a)"/><path d="M815.346 287.538c-25.277 12.538-58.825-3.584-58.825-3.584s7.456-36.444 32.746-48.965c25.276-12.538 58.811 3.566 58.811 3.566s-7.456 36.444-32.732 48.983z" fill="url(#b)"/><path d="M97.369 379.175c33.026 19.794 80.409 1.496 80.409 1.496s-6.196-50.383-39.242-70.155c-33.027-19.794-80.39-1.519-80.39-1.519s6.196 50.384 39.223 70.178z" fill="url(#c)"/><circle cx="765.612" cy="203.519" r="13.801" transform="rotate(180 765.612 203.519)" fill="#009688"/><circle cx="695.527" cy="435.527" r="15.527" transform="rotate(180 695.527 435.527)" fill="#009688"/><circle r="12.939" transform="matrix(-1 0 0 1 141.771 190.435)" fill="#009688"/><circle r="6.038" transform="matrix(-1 0 0 1 647.248 257.717)" fill="#009688"/><circle r="7.763" transform="matrix(-1 0 0 1 682.095 527.144)" fill="#E1E4E5"/><circle r="11.214" transform="matrix(-1 0 0 1 139.457 446.534)" fill="#E1E4E5"/><circle r="8.535" transform="matrix(-1 0 0 1 269.137 160.015)" fill="#E1E4E5"/><circle r="9.488" transform="matrix(-1 0 0 1 683.491 161.598)" fill="#E1E4E5"/><circle r="8.521" transform="scale(1 -1) rotate(-75 -92.887 -242.252)" fill="#E1E4E5"/><circle r="11.335" transform="matrix(-1 0 0 1 381.515 88.415)" fill="#E1E4E5"/><ellipse rx="8.719" ry="6.975" transform="matrix(-1 0 0 1 742.996 378.158)" fill="#E1E4E5"/><circle r="17.733" transform="scale(1 -1) rotate(-75 231.997 -420.928)" fill="#E1E4E5"/><path d="M809.119 329.982h.228c1.351 19.139 15.584 19.433 15.584 19.433s-15.695.307-15.695 22.42c0-22.113-15.695-22.42-15.695-22.42s14.227-.294 15.578-19.433zM235.827 516.038h.202c1.199 17.322 13.828 17.588 13.828 17.588s-13.926.278-13.926 20.292c0-20.014-13.927-20.292-13.927-20.292s12.624-.266 13.823-17.588z" fill="#E1E4E5"/><path fill-rule="evenodd" clip-rule="evenodd" d="M259.216 472.57h-4.521a1.975 1.975 0 0 1-1.973-1.974v-4.521c0-1.093.889-1.973 1.973-1.973h4.521c1.084 0 1.974.889 1.974 1.973v4.521a1.97 1.97 0 0 1-1.974 1.974zm-15.675 0h-4.521a1.982 1.982 0 0 1-1.974-1.974v-4.521c0-1.093.89-1.973 1.974-1.973h4.521a1.98 1.98 0 0 1 1.973 1.973v4.521a1.981 1.981 0 0 1-1.973 1.974zm-15.685 0h-4.521a1.982 1.982 0 0 1-1.974-1.974v-4.521c0-1.093.89-1.973 1.974-1.973h4.521a1.98 1.98 0 0 1 1.973 1.973v4.521a1.97 1.97 0 0 1-1.973 1.974zm-15.676 0h-4.521a1.982 1.982 0 0 1-1.974-1.974v-4.521c0-1.093.89-1.973 1.974-1.973h4.521c1.093 0 1.982.889 1.982 1.973v4.521a1.995 1.995 0 0 1-1.982 1.974zm-15.676 0h-4.521a1.983 1.983 0 0 1-1.983-1.974v-4.521c0-1.093.889-1.973 1.983-1.973h4.521a1.98 1.98 0 0 1 1.973 1.973v4.521a1.981 1.981 0 0 1-1.973 1.974zm46.462-17.093h-4.521a1.981 1.981 0 0 1-1.974-1.973v-4.531c0-1.084.89-1.973 1.974-1.973h4.521c1.093 0 1.973.889 1.973 1.973v4.522a1.97 1.97 0 0 1-1.973 1.982zm-15.676 0h-4.521a1.98 1.98 0 0 1-1.973-1.973v-4.531a1.98 1.98 0 0 1 1.973-1.973h4.521c1.084 0 1.974.889 1.974 1.973v4.522a1.972 1.972 0 0 1-1.974 1.982zm-15.675 0h-4.522a1.982 1.982 0 0 1-1.982-1.973v-4.531c0-1.084.889-1.973 1.982-1.973h4.522a1.98 1.98 0 0 1 1.973 1.973v4.522a1.982 1.982 0 0 1-1.973 1.982zm16.241 35.456h-4.521a1.981 1.981 0 0 1-1.974-1.973v-4.522c0-1.093.89-1.973 1.974-1.973h4.521a1.98 1.98 0 0 1 1.973 1.973v4.522a1.969 1.969 0 0 1-1.973 1.973zm15.392 0h-4.521a1.98 1.98 0 0 1-1.973-1.973v-4.522c0-1.093.889-1.973 1.973-1.973h4.521c1.084 0 1.974.889 1.974 1.973v4.522a1.97 1.97 0 0 1-1.974 1.973zm-31.068 0h-4.521a1.981 1.981 0 0 1-1.974-1.973v-4.522c0-1.093.89-1.973 1.974-1.973h4.521c1.093 0 1.982.889 1.982 1.973v4.522a1.994 1.994 0 0 1-1.982 1.973z" fill="#E1E4E5"/><path fill-rule="evenodd" clip-rule="evenodd" d="M449.999 431.836c90.418 0 154.716-56.817 192.37-104.135 13.06-16.412 13.06-38.321 0-54.732-37.654-47.318-101.952-104.135-192.37-104.135s-154.716 56.817-192.37 104.135c-13.06 16.411-13.06 38.32 0 54.732 37.654 47.318 101.952 104.135 192.37 104.135zm226.669-76.84c25.773-32.388 25.773-76.934 0-109.322C635.721 194.219 560.165 125 449.999 125c-110.166 0-185.722 69.219-226.669 120.674-25.773 32.388-25.773 76.934 0 109.322 40.947 51.455 116.503 120.674 226.669 120.674 110.166 0 185.722-69.219 226.669-120.674z" fill="#009688"/><path fill-rule="evenodd" clip-rule="evenodd" d="M493.831 300.335c0 24.209-19.625 43.834-43.834 43.834-24.208 0-43.833-19.625-43.833-43.834 0-.622.013-1.241.038-1.857a32.82 32.82 0 0 0 10.92 1.857c18.157 0 32.875-14.719 32.875-32.875a32.82 32.82 0 0 0-1.857-10.92 44.031 44.031 0 0 1 1.857-.039c24.209 0 43.834 19.625 43.834 43.834zm43.834 0c0 48.417-39.25 87.668-87.668 87.668-48.417 0-87.667-39.251-87.667-87.668 0-48.417 39.25-87.667 87.667-87.667 48.418 0 87.668 39.25 87.668 87.667z" fill="#009688"/><defs><linearGradient id="a" x1="633.921" y1="392.179" x2="514.331" y2="-145.208" gradientUnits="userSpaceOnUse"><stop stop-color="#fff"/><stop offset="1" stop-color="#EEE"/></linearGradient><linearGradient id="b" x1="718.282" y1="326.649" x2="926.762" y2="161.74" gradientUnits="userSpaceOnUse"><stop stop-color="#fff"/><stop offset="1" stop-color="#EEE"/></linearGradient><linearGradient id="c" x1="225.172" y1="442.891" x2="-40.57" y2="195.981" gradientUnits="userSpaceOnUse"><stop stop-color="#fff"/><stop offset="1" stop-color="#EEE"/></linearGradient></defs></svg>