<svg width="900" height="600" viewBox="0 0 900 600" fill="none" xmlns="http://www.w3.org/2000/svg"><path fill="transparent" d="M0 0h900v600H0z"/><path fill-rule="evenodd" clip-rule="evenodd" d="M138.301 555.237h620.347c58.232 0 55.56-48.282 36.539-65.106-19.495-17.244-58.016-10.25-58.016-10.25s-11.469-32.476-49.217-48.287c-33.389-13.985-68.369-7.331-68.369-7.331s0-22.288-21.379-40.747c-21.381-18.461-49.887-16.666-49.887-16.666s-19.596-122.903-150.545-122.903c-130.949 0-146.093 115.724-146.093 115.724s-29.397 0-50.778 19.738c-21.378 19.736-24.051 42.161-24.051 42.161s-71.499-9.701-92.646 52.411c-12.6 37.02 13.29 81.256 54.095 81.256z" fill="url(#a)"/><path d="M390.374 359.802c53.997 0 97.771-42.557 97.771-95.055v-57.033H292.603v57.033c0 52.498 43.774 95.055 97.771 95.055z" fill="#009688" stroke="#009688" stroke-width="23"/><path d="M216.561 555.343c0-142.213 173.815-35.553 173.815-195.542m65.179-152.087V77.353M325.193 207.714V77.353" stroke="#009688" stroke-width="23"/><path d="m587.538 506.333 46.974-93.667H522L568.974 319m-401.005-86.603 38.31-76.467h-91.76l38.31-76.468" stroke="#009688" stroke-width="23" stroke-linecap="round" stroke-linejoin="round"/><path d="M558.938 229.608c34.547 49.417 98.684 68.003 154.123 44.663 55.439-23.34 87.221-82.309 76.373-141.702" stroke="#009688" stroke-width="23"/><path clip-rule="evenodd" d="M643.124 175.888c11.109 11.351 29.116 11.349 40.223-.006 11.106-11.354 11.106-29.762 0-41.116-11.107-11.355-29.114-11.357-40.223-.006-5.337 5.453-8.335 12.85-8.335 20.564 0 7.713 2.998 15.111 8.335 20.564z" stroke="#009688" stroke-width="23" stroke-linecap="round" stroke-linejoin="round"/><path d="M663.232 91.167v-6.953m0 139.215v-6.953m-43.049-104.833-4.922-4.923m91.02 92.285 4.923 4.923m-4.923-92.285 4.923-4.923m-91.021 92.285-4.922 4.923m112.76-48.604h6.953m-136.53 0h-6.953M258.372 391.369c-27.787 39.945-79.376 54.969-123.968 36.102-44.592-18.866-70.156-66.532-61.43-114.542" stroke="#009688" stroke-width="23" stroke-linecap="round" stroke-linejoin="round"/><path clip-rule="evenodd" d="M191.024 347.8c-8.887 9.131-23.293 9.129-32.178-.004-8.885-9.133-8.885-23.939 0-33.072 8.885-9.133 23.291-9.135 32.178-.005 4.27 4.386 6.668 10.336 6.668 16.541 0 6.204-2.398 12.154-6.668 16.54z" stroke="#009688" stroke-width="23" stroke-linecap="round" stroke-linejoin="round"/><path d="M174.306 280.061v-5.057m0 112.581v-5.057m34.647-85.915 4.027-4.028m-73.322 74.586-4.027 4.028m4.027-74.586-4.027-4.028m73.322 74.586 4.027 4.028m-90.19-39.307h-5.688m109.667 0h5.056" stroke="#009688" stroke-width="23" stroke-linecap="round" stroke-linejoin="round"/><path d="M834.939 265.108c-22.034 10.93-51.279-3.124-51.279-3.124s6.5-31.769 28.545-42.684c22.034-10.93 51.267 3.109 51.267 3.109s-6.499 31.769-28.533 42.699z" fill="url(#b)"/><path d="M240.748 138.005c13.772 8.254 33.53.623 33.53.623s-2.584-21.009-16.364-29.253c-13.771-8.254-33.521-.633-33.521-.633s2.584 21.009 16.355 29.263z" fill="url(#c)"/><circle cx="676.958" cy="353.428" r="20.029" transform="rotate(180 676.958 353.428)" fill="#009688"/><circle cx="372.597" cy="106.587" r="16.488" transform="rotate(180 372.597 106.587)" fill="#009688"/><circle r="18.777" transform="matrix(-1 0 0 1 376.778 515.778)" fill="#009688"/><circle r="8.763" transform="matrix(-1 0 0 1 781.907 334.853)" fill="#009688"/><circle r="11.267" transform="matrix(-1 0 0 1 500.027 555.77)" fill="#E1E4E5"/><circle r="16.274" transform="matrix(-1 0 0 1 48.525 489.147)" fill="#E1E4E5"/><circle r="12.386" transform="matrix(-1 0 0 1 794.546 522.301)" fill="#E1E4E5"/><circle r="12.366" transform="scale(1 -1) rotate(-75 -113.008 -169.631)" fill="#E1E4E5"/><circle r="5.147" transform="matrix(-1 0 0 1 253.338 38.617)" fill="#E1E4E5"/><ellipse rx="12.654" ry="10.123" transform="matrix(-1 0 0 1 750.507 422.97)" fill="#E1E4E5"/><circle r="8.952" transform="scale(1 -1) rotate(-75 208.19 -329.285)" fill="#E1E4E5"/><path d="M38.31 142.569h.18c1.068 15.124 12.316 15.357 12.316 15.357s-12.403.242-12.403 17.718c0-17.476-12.403-17.718-12.403-17.718s11.243-.233 12.31-15.357zM461.819 407h.173c1.025 15.079 11.824 15.311 11.824 15.311s-11.908.242-11.908 17.666c0-17.424-11.908-17.666-11.908-17.666s10.795-.232 11.819-15.311z" fill="#E1E4E5"/><defs><linearGradient id="a" x1="459.659" y1="729.765" x2="455.545" y2="-94.775" gradientUnits="userSpaceOnUse"><stop stop-color="#fff"/><stop offset="1" stop-color="#EEE"/></linearGradient><linearGradient id="b" x1="750.326" y1="299.201" x2="932.062" y2="155.448" gradientUnits="userSpaceOnUse"><stop stop-color="#fff"/><stop offset="1" stop-color="#EEE"/></linearGradient><linearGradient id="c" x1="294.041" y1="164.573" x2="183.229" y2="61.615" gradientUnits="userSpaceOnUse"><stop stop-color="#fff"/><stop offset="1" stop-color="#EEE"/></linearGradient></defs></svg>