<svg width="900" height="600" viewBox="0 0 900 600" fill="none" xmlns="http://www.w3.org/2000/svg"><path fill="transparent" d="M0 0h900v600H0z"/><path d="M724.555 253.169c-29.708 14.737-69.138-4.212-69.138-4.212s8.763-42.834 38.487-57.55c29.708-14.737 69.123 4.191 69.123 4.191s-8.763 42.834-38.472 57.571z" fill="url(#a)"/><path d="M152.3 282.382c22.599 13.545 55.021 1.024 55.021 1.024s-4.239-34.476-26.852-48.005c-22.599-13.544-55.007-1.039-55.007-1.039s4.239 34.476 26.838 48.02z" fill="url(#b)"/><circle cx="816.033" cy="154.674" r="16.221" transform="rotate(180 816.033 154.674)" fill="#009688"/><circle cx="184.243" cy="387.601" r="18.249" transform="rotate(180 184.243 387.601)" fill="#009688"/><circle r="15.207" transform="matrix(-1 0 0 1 103.851 144.424)" fill="#009688"/><circle r="7.097" transform="matrix(-1 0 0 1 656.824 319.878)" fill="#009688"/><circle r="9.124" transform="matrix(-1 0 0 1 584.964 433.892)" fill="#E1E4E5"/><circle r="13.18" transform="matrix(-1 0 0 1 391.601 448.338)" fill="#E1E4E5"/><circle r="10.031" transform="matrix(-1 0 0 1 198.91 144.531)" fill="#E1E4E5"/><circle r="11.152" transform="matrix(-1 0 0 1 719.396 155.654)" fill="#E1E4E5"/><circle r="10.014" transform="scale(1 -1) rotate(-75 -134.305 -230.542)" fill="#E1E4E5"/><circle r="15" transform="matrix(-1 0 0 1 429 117)" fill="#E1E4E5"/><ellipse rx="10.248" ry="8.199" transform="matrix(-1 0 0 1 680.136 468.788)" fill="#E1E4E5"/><path d="M772.601 272.086h.156c.921 13.058 10.632 13.259 10.632 13.259s-10.708.209-10.708 15.296c0-15.087-10.708-15.296-10.708-15.296s9.706-.201 10.628-13.259zm-101.097 97.266h.167c.987 14.268 11.39 14.488 11.39 14.488s-11.471.228-11.471 16.715c0-16.487-11.472-16.715-11.472-16.715s10.399-.22 11.386-14.488z" fill="#E1E4E5"/><path fill-rule="evenodd" clip-rule="evenodd" d="M540.472 392.897H359.528c-49.958 0-90.471-40.513-90.471-90.471 0-49.959 40.513-90.472 90.471-90.472h180.944c49.958 0 90.471 40.513 90.471 90.472 0 49.958-40.513 90.471-90.471 90.471z" fill="#E1E4E5"/><path d="M562.981 302.408a4.382 4.382 0 0 0-4.415-4.397 4.409 4.409 0 0 0-4.415 4.415 4.41 4.41 0 0 0 4.415 4.415 4.414 4.414 0 0 0 4.415-4.433m-72.377 0a4.383 4.383 0 0 0-4.415-4.397 4.409 4.409 0 0 0-4.415 4.415 4.41 4.41 0 0 0 4.415 4.415 4.426 4.426 0 0 0 4.415-4.433m-72.378 0a4.382 4.382 0 0 0-4.415-4.397 4.41 4.41 0 0 0-4.415 4.415 4.41 4.41 0 0 0 4.415 4.415 4.425 4.425 0 0 0 4.415-4.433m-72.377 0a4.382 4.382 0 0 0-4.415-4.397 4.409 4.409 0 0 0-4.415 4.415 4.41 4.41 0 0 0 4.415 4.415 4.425 4.425 0 0 0 4.415-4.433" stroke="#fff" stroke-width="29.403" stroke-linecap="round" stroke-linejoin="round"/><path fill-rule="evenodd" clip-rule="evenodd" d="M730.139 498.232h-73.023c-20.162 0-36.512-16.35-36.512-36.512s16.35-36.512 36.512-36.512h73.023c20.162 0 36.512 16.35 36.512 36.512s-16.35 36.512-36.512 36.512z" fill="#E1E4E5"/><path d="M739.223 461.713a1.77 1.77 0 0 0-1.781-1.775 1.78 1.78 0 0 0-1.782 1.782 1.781 1.781 0 1 0 3.563-.007m-29.209 0a1.77 1.77 0 0 0-1.782-1.775 1.78 1.78 0 0 0-1.782 1.782 1.78 1.78 0 0 0 1.782 1.782c.979 0 1.782-.796 1.782-1.789m-29.21 0a1.77 1.77 0 0 0-1.781-1.775 1.78 1.78 0 0 0-1.782 1.782 1.78 1.78 0 0 0 1.782 1.782c.978 0 1.781-.796 1.781-1.789m-29.209 0a1.77 1.77 0 0 0-1.782-1.775 1.78 1.78 0 0 0-1.782 1.782 1.78 1.78 0 0 0 1.782 1.782c.979 0 1.782-.796 1.782-1.789" stroke="#fff" stroke-width="11.866" stroke-linecap="round" stroke-linejoin="round"/><path fill-rule="evenodd" clip-rule="evenodd" d="M242.884 178.996h-73.023c-20.162 0-36.512-16.35-36.512-36.511 0-20.162 16.35-36.512 36.512-36.512h73.023c20.162 0 36.512 16.35 36.512 36.512 0 20.161-16.35 36.511-36.512 36.511z" fill="#E1E4E5"/><path d="M251.969 142.477c0-.986-.796-1.781-1.782-1.774a1.78 1.78 0 0 0-1.782 1.782 1.781 1.781 0 1 0 3.564-.008m-29.21 0c0-.986-.796-1.781-1.782-1.774-.986 0-1.781.796-1.781 1.782 0 .985.795 1.781 1.781 1.781.979 0 1.782-.796 1.782-1.789m-29.209 0c0-.986-.796-1.781-1.782-1.774a1.78 1.78 0 0 0-1.782 1.782 1.78 1.78 0 0 0 1.782 1.781c.978 0 1.782-.796 1.782-1.789m-29.21 0c0-.986-.796-1.781-1.781-1.774a1.78 1.78 0 0 0-1.782 1.782 1.78 1.78 0 0 0 1.782 1.781c.978 0 1.781-.796 1.781-1.789" stroke="#fff" stroke-width="11.866" stroke-linecap="round" stroke-linejoin="round"/><circle r="78.193" transform="matrix(-1 0 0 1 117.193 282.393)" fill="#009688"/><path fill-rule="evenodd" clip-rule="evenodd" d="M144.157 309.75v3.847a3.852 3.852 0 0 1-3.852 3.848H94.082a3.851 3.851 0 0 1-3.851-3.848v-3.909c0-11.642 13.319-19.206 26.963-19.206 13.643 0 26.963 7.568 26.963 19.206m-17.43-53.007c5.265 5.265 5.265 13.801 0 19.066-5.265 5.265-13.801 5.265-19.066 0-5.265-5.265-5.265-13.801 0-19.066 5.265-5.264 13.801-5.264 19.066 0z" fill="#fff"/><circle r="78.193" transform="matrix(-1 0 0 1 782.807 282.393)" fill="#009688"/><path fill-rule="evenodd" clip-rule="evenodd" d="M809.77 309.75v3.847a3.851 3.851 0 0 1-3.852 3.848h-46.222a3.851 3.851 0 0 1-3.852-3.848v-3.909c0-11.642 13.32-19.206 26.963-19.206s26.963 7.568 26.963 19.206m-17.43-53.007c5.265 5.265 5.265 13.801 0 19.066-5.265 5.265-13.801 5.265-19.066 0-5.265-5.265-5.265-13.801 0-19.066 5.265-5.264 13.801-5.264 19.066 0z" fill="#fff"/><path d="M285.358 341.586a11.8 11.8 0 0 1 11.798 0l34.693 20.03a11.8 11.8 0 0 1 5.9 10.218v40.06c0 4.216-2.249 8.111-5.9 10.218l-34.693 20.03a11.796 11.796 0 0 1-11.798 0l-34.693-20.03a11.797 11.797 0 0 1-5.9-10.218v-40.06a11.8 11.8 0 0 1 5.9-10.218l34.693-20.03z" fill="#009688"/><path d="m307.862 381.836-19.596 19.439-11.757-11.664" stroke="#fff" stroke-width="7.441" stroke-linecap="round" stroke-linejoin="round"/><path d="M593.608 162.64a11.796 11.796 0 0 1 11.798 0l34.693 20.03a11.797 11.797 0 0 1 5.9 10.218v40.06a11.8 11.8 0 0 1-5.9 10.218l-34.693 20.03a11.8 11.8 0 0 1-11.798 0l-34.693-20.03a11.8 11.8 0 0 1-5.9-10.218v-40.06c0-4.216 2.249-8.111 5.9-10.218l34.693-20.03z" fill="#009688"/><path d="m616.112 202.889-19.596 19.439-11.757-11.664" stroke="#fff" stroke-width="7.441" stroke-linecap="round" stroke-linejoin="round"/><circle cx="362.836" cy="178.283" r="54.839" fill="#009688"/><path fill-rule="evenodd" clip-rule="evenodd" d="M373.008 158.84c8.31 0 13.882 7.8 13.882 15.063 0 14.743-23.134 26.814-23.556 26.814-.421 0-23.555-12.071-23.555-26.814 0-7.263 5.572-15.063 13.882-15.063 4.75 0 7.87 2.369 9.673 4.478 1.803-2.109 4.923-4.478 9.674-4.478z" fill="#fff"/><defs><linearGradient id="a" x1="610.473" y1="299.137" x2="855.507" y2="105.314" gradientUnits="userSpaceOnUse"><stop stop-color="#fff"/><stop offset="1" stop-color="#EEE"/></linearGradient><linearGradient id="b" x1="239.751" y1="325.981" x2="57.913" y2="157.029" gradientUnits="userSpaceOnUse"><stop stop-color="#fff"/><stop offset="1" stop-color="#EEE"/></linearGradient></defs></svg>