<svg width="900" height="600" viewBox="0 0 900 600" fill="none" xmlns="http://www.w3.org/2000/svg"><path fill="transparent" d="M0 0h900v600H0z"/><path d="M746.372 374.101h-57.16c-14.007 0-25.742-9.533-25.742-21.608 0-6.037 3.029-11.439 7.571-15.252 4.543-3.813 10.978-6.355 18.171-6.355h8.328c7.192 0 13.627-2.542 18.17-6.355 4.542-3.813 7.571-9.215 7.571-15.252 0-11.757-11.357-21.608-25.741-21.608H522.952c-4.562 0-7.493-5.606-7.493-10.168 0-11.439-10.978-20.654-24.606-20.654h-64.97a6.196 6.196 0 1 1 0-12.392h248.944c10.978 0 21.198-3.813 28.391-9.851 7.192-6.037 11.735-14.616 11.735-23.831 0-18.748-18.17-33.682-40.126-33.682H546.251c-20.175 0-40.145-15.57-60.319-15.57h-71.786c-10.529 0-19.065-8.536-19.065-19.066 0-10.529 8.536-19.065 19.065-19.065H574.89c7.571 0 14.764-2.542 19.685-6.673 4.921-4.13 7.949-9.85 7.949-16.523 0-12.71-12.492-23.196-27.634-23.196H204.293c-7.571 0-14.763 2.542-19.684 6.673-4.921 4.13-7.95 9.85-7.95 16.523 0 12.71 12.492 23.196 27.634 23.196h9.464c12.492 0 23.091 8.58 23.091 19.383 0 5.402-2.65 10.168-6.814 13.664-4.164 3.495-9.842 5.719-16.277 5.719h-45.804c-7.95 0-15.521 2.86-20.82 7.309-5.3 4.448-8.707 10.486-8.707 17.476 0 13.664 13.249 24.467 29.148 24.467h46.561c15.142 0 27.634 10.486 27.634 23.196 0 6.356-3.028 12.075-7.949 16.206-4.921 4.131-11.735 6.673-19.306 6.673h-41.64c-6.814 0-12.871 2.224-17.413 6.037-4.543 3.813-7.193 8.897-7.193 14.617 0 11.439 10.978 20.654 24.606 20.654h33.69c19.306 0 34.827 13.028 34.827 29.233 0 7.944-3.786 15.57-10.221 20.654-6.435 5.402-15.142 8.58-24.606 8.58h-46.939c-9.464 0-18.171 3.177-24.227 8.579-6.436 5.084-10.221 12.393-10.221 20.337 0 15.887 15.52 28.915 34.448 28.915h144.941c16.008 0 31.732 8.897 47.739 8.897h26.398c10.09 0 18.27 8.18 18.27 18.271 0 10.091-8.18 18.271-18.27 18.271H314.45c-8.328 0-15.52 2.86-20.82 7.308-5.299 4.449-8.706 10.804-8.706 17.477 0 13.663 13.249 24.785 29.526 24.785h393.689c8.328 0 15.52-2.86 20.82-7.308 5.3-4.449 8.707-10.804 8.707-17.477 0-13.663-13.25-24.785-29.527-24.785h-11.735c-12.114 0-21.577-8.262-21.577-18.112 0-5.084 2.271-9.533 6.435-12.71 3.786-3.178 9.464-5.402 15.521-5.402h49.589c8.328 0 15.521-2.86 20.82-7.308 5.3-4.449 8.707-10.804 8.707-17.477 0-14.299-13.249-25.42-29.527-25.42z" fill="url(#a)"/><path d="M791.199 339.979c-9.641 4.782-22.435-1.367-22.435-1.367s2.843-13.899 12.488-18.675c9.641-4.782 22.43 1.36 22.43 1.36s-2.843 13.9-12.483 18.682z" fill="url(#b)"/><path d="M116.452 335.034c14.077 8.437 34.273.638 34.273.638s-2.641-21.475-16.726-29.902c-14.077-8.437-34.264-.647-34.264-.647s2.641 21.474 16.717 29.911z" fill="url(#c)"/><circle cx="757.238" cy="198.112" r="6.547" transform="rotate(180 757.238 198.112)" fill="#009688"/><circle r="9.774" transform="matrix(-1 0 0 1 215.409 453.35)" fill="#009688"/><circle r="6.544" transform="matrix(-1 0 0 1 728.897 266.803)" fill="#009688"/><circle r="9.249" transform="matrix(-1 0 0 1 766.988 463.688)" fill="#E1E4E5"/><circle r="11.626" transform="matrix(-1 0 0 1 662.766 124.68)" fill="#E1E4E5"/><circle r="9.234" transform="scale(1 -1) rotate(-75 -56.105 -249.891)" fill="#E1E4E5"/><circle r="12.284" transform="matrix(-1 0 0 1 304.695 124.287)" fill="#E1E4E5"/><ellipse rx="9.449" ry="7.559" transform="matrix(-1 0 0 1 712.506 352.509)" fill="#E1E4E5"/><circle r="15.082" transform="matrix(0 1 1 0 591.61 113.752)" fill="#E1E4E5"/><path d="M120.964 225.615h.135c.797 11.294 9.196 11.468 9.196 11.468s-9.262.181-9.262 13.231c0-13.05-9.262-13.231-9.262-13.231s8.396-.174 9.193-11.468zM224.109 498.25h.13c.765 11.26 8.829 11.434 8.829 11.434s-8.892.18-8.892 13.191c0-13.011-8.893-13.191-8.893-13.191s8.061-.174 8.826-11.434z" fill="#E1E4E5"/><path fill-rule="evenodd" clip-rule="evenodd" d="M401.7 444.038c0 23.055-18.818 41.745-42.031 41.745-23.213 0-42.031-18.69-42.031-41.745 0-23.056 18.818-41.746 42.031-41.746 23.213 0 42.031 18.69 42.031 41.746zm-28.02 0c0 7.685-6.273 13.915-14.011 13.915-7.737 0-14.01-6.23-14.01-13.915 0-7.685 6.273-13.915 14.01-13.915 7.738 0 14.011 6.23 14.011 13.915zm168.124 0c0 23.055-18.818 41.745-42.031 41.745-23.213 0-42.031-18.69-42.031-41.745 0-23.056 18.818-41.746 42.031-41.746 23.213 0 42.031 18.69 42.031 41.746zm-28.02 0c0 7.685-6.273 13.915-14.011 13.915-7.738 0-14.01-6.23-14.01-13.915 0-7.685 6.272-13.915 14.01-13.915 7.738 0 14.011 6.23 14.011 13.915z" fill="#009688"/><path d="m308.235 312.945-5.386-102.325c31.031 2.565 93.862 7.694 96.94 7.694 3.077 0 136.69-7.694 203.111-11.541l7.694 61.549-42.315 94.632-27.697 4.616H399.789c-4.924 0-50.778-6.155-73.09-9.232l-18.464-45.393z" fill="#009688"/><path fill-rule="evenodd" clip-rule="evenodd" d="M233.396 125.582c4.895-9.742 16.802-13.691 26.594-8.82l19.892 9.895c18.42 9.164 30.764 27.157 32.628 47.562l.948 10.379c.465 5.079 4.745 8.968 9.871 8.968h261.515c34.6 0 58.549 34.383 46.4 66.615l-34.755 92.209c-8.704 23.092-30.892 38.39-55.681 38.39H346.796c-30.756 0-56.438-23.334-59.223-53.808L273.028 177.79c-.621-6.802-4.736-12.799-10.876-15.854l-19.892-9.895c-9.791-4.871-13.76-16.717-8.864-26.459zm95.339 107.427c-5.828 0-10.398 4.978-9.87 10.753l8.19 89.639c.928 10.158 9.489 17.936 19.741 17.936h194.012c8.263 0 15.659-5.099 18.561-12.797l34.755-92.208c2.43-6.447-2.36-13.323-9.28-13.323H328.735z" fill="#009688"/><path d="m501.101 262.047-78.564 78.563c-7.67 7.67-20.106 7.67-27.776 0-7.67-7.67-7.67-20.106 0-27.776l78.563-78.563c7.671-7.67 20.106-7.67 27.777 0 7.67 7.67 7.67 20.106 0 27.776zm-72.811-13.888c0 10.847-8.793 19.641-19.641 19.641-10.847 0-19.64-8.794-19.64-19.641 0-10.847 8.793-19.641 19.64-19.641 10.848 0 19.641 8.794 19.641 19.641zm39.282 78.563c0 10.847 8.793 19.641 19.64 19.641 10.848 0 19.641-8.794 19.641-19.641 0-10.847-8.793-19.641-19.641-19.641-10.847 0-19.64 8.794-19.64 19.641z" fill="#fff"/><defs><linearGradient id="a" x1="464.412" y1="752.921" x2="455.523" y2="-394.226" gradientUnits="userSpaceOnUse"><stop stop-color="#fff"/><stop offset="1" stop-color="#EEE"/></linearGradient><linearGradient id="b" x1="754.179" y1="354.895" x2="833.692" y2="292.001" gradientUnits="userSpaceOnUse"><stop stop-color="#fff"/><stop offset="1" stop-color="#EEE"/></linearGradient><linearGradient id="c" x1="170.926" y1="362.192" x2="57.659" y2="256.952" gradientUnits="userSpaceOnUse"><stop stop-color="#fff"/><stop offset="1" stop-color="#EEE"/></linearGradient></defs></svg>