<svg width="900" height="600" viewBox="0 0 900 600" fill="none" xmlns="http://www.w3.org/2000/svg"><path fill="transparent" d="M0 0h900v600H0z"/><path d="M779.938 399.394h-63.587c-15.581 0-28.635-10.604-28.635-24.036 0-6.716 3.369-12.726 8.422-16.967 5.053-4.242 12.212-7.07 20.213-7.07h9.264c8.001 0 15.16-2.828 20.213-7.069 5.054-4.242 8.422-10.251 8.422-16.967 0-13.079-12.633-24.037-28.635-24.037H531.4c-5.074 0-8.335-6.237-8.335-11.311 0-12.725-12.212-22.976-27.372-22.976h-72.275a6.893 6.893 0 1 1 0-13.786h276.931c12.212 0 23.582-4.241 31.583-10.958 8.001-6.716 13.054-16.26 13.054-26.51 0-20.856-20.213-37.469-44.637-37.469H557.318c-22.442 0-44.657-17.32-67.1-17.32h-79.856c-11.713 0-21.208-9.496-21.208-21.209s9.495-21.209 21.208-21.209h178.816c8.422 0 16.423-2.828 21.897-7.423 5.475-4.595 8.843-10.958 8.843-18.38 0-14.14-13.896-25.804-30.74-25.804H176.917c-8.422 0-16.423 2.827-21.897 7.423-5.475 4.595-8.843 10.957-8.843 18.38 0 14.14 13.896 25.804 30.74 25.804h10.528c13.896 0 25.687 9.544 25.687 21.562 0 6.01-2.948 11.312-7.58 15.2s-10.948 6.363-18.107 6.363h-50.954c-8.843 0-17.265 3.181-23.16 8.13-5.896 4.948-9.686 11.664-9.686 19.441 0 15.199 14.739 27.218 32.425 27.218h51.796c16.844 0 30.74 11.664 30.74 25.803 0 7.07-3.368 13.433-8.843 18.028-5.474 4.595-13.054 7.423-21.476 7.423h-46.321c-7.58 0-14.318 2.474-19.371 6.716-5.053 4.242-8.001 9.897-8.001 16.26 0 12.725 12.212 22.976 27.372 22.976h37.478c21.476 0 38.741 14.493 38.741 32.52 0 8.837-4.211 17.32-11.369 22.976-7.159 6.009-16.845 9.544-27.372 9.544h-52.217c-10.528 0-20.213 3.535-26.951 9.544-7.158 5.655-11.37 13.785-11.37 22.622 0 17.674 17.266 32.167 38.321 32.167h161.236c17.807 0 35.299 9.897 53.106 9.897h29.365c11.225 0 20.325 9.1 20.325 20.325s-9.1 20.325-20.325 20.325h-71.476c-9.264 0-17.265 3.181-23.16 8.13-5.896 4.949-9.686 12.018-9.686 19.441 0 15.2 14.739 27.572 32.846 27.572h437.948c9.265 0 17.266-3.182 23.161-8.13 5.896-4.949 9.686-12.019 9.686-19.442 0-15.199-14.739-27.571-32.847-27.571h-13.054c-13.475 0-24.003-9.19-24.003-20.148 0-5.656 2.527-10.605 7.159-14.139 4.211-3.535 10.528-6.009 17.265-6.009h55.165c9.264 0 17.265-3.182 23.161-8.13 5.895-4.949 9.685-12.019 9.685-19.442 0-15.906-14.739-28.278-32.846-28.278z" fill="url(#a)"/><path d="M829.804 361.436c-10.724 5.32-24.957-1.52-24.957-1.52s3.163-15.462 13.893-20.774c10.723-5.32 24.951 1.513 24.951 1.513s-3.163 15.462-13.887 20.781z" fill="url(#b)"/><path d="M79.201 355.936c15.66 9.386 38.126.71 38.126.71s-2.938-23.89-18.607-33.264c-15.659-9.386-38.116-.72-38.116-.72s2.938 23.889 18.597 33.274z" fill="url(#c)"/><circle cx="792.026" cy="203.62" r="7.283" transform="rotate(180 792.026 203.62)" fill="#009688"/><circle cx="449.697" cy="446.697" r="13.697" transform="rotate(180 449.697 446.697)" fill="#009688"/><circle r="10.873" transform="matrix(-1 0 0 1 189.283 487.553)" fill="#009688"/><circle r="7.279" transform="matrix(-1 0 0 1 760.498 280.034)" fill="#009688"/><circle r="13.519" transform="matrix(-1 0 0 1 70.42 493.544)" fill="#E1E4E5"/><circle r="10.289" transform="matrix(-1 0 0 1 802.872 499.053)" fill="#E1E4E5"/><circle r="12.933" transform="matrix(-1 0 0 1 686.933 121.933)" fill="#E1E4E5"/><circle r="10.272" transform="scale(1 -1) rotate(-75 -76.66 -236.798)" fill="#E1E4E5"/><circle r="13.665" transform="matrix(-1 0 0 1 288.607 121.496)" fill="#E1E4E5"/><ellipse rx="10.512" ry="8.409" transform="matrix(-1 0 0 1 742.265 375.375)" fill="#E1E4E5"/><circle r="16.777" transform="matrix(0 1 1 0 607.777 109.777)" fill="#E1E4E5"/><path d="M189.829 134.419h.15c.887 12.563 10.23 12.757 10.23 12.757s-10.303.201-10.303 14.718c0-14.517-10.303-14.718-10.303-14.718s9.34-.194 10.226-12.757zm9.132 403.081h.144c.851 12.527 9.822 12.72 9.822 12.72s-9.892.2-9.892 14.674c0-14.474-9.892-14.674-9.892-14.674s8.967-.193 9.818-12.72z" fill="#E1E4E5"/><path d="M451.131 366.558c-111.537 0-111.537 113.604-158.726 87.361-35.735-19.874-44.597-91.842-36.464-189.437 8.133-97.595 41.825-125.48 125.479-125.48h144.784c83.653 0 111.753 41.827 120.117 125.48 8.364 83.652-.001 156.348-36.464 189.437s-47.189-87.361-158.726-87.361z" fill="#009688"/><path d="M367.477 208.713V320.25m-55.769-55.768h111.538" stroke="#fff" stroke-width="20.913" stroke-linejoin="round"/><circle cx="506.898" cy="292.366" r="27.884" fill="#fff"/><circle cx="562.667" cy="236.597" r="27.884" fill="#fff"/><defs><linearGradient id="a" x1="466.28" y1="820.802" x2="456.391" y2="-455.309" gradientUnits="userSpaceOnUse"><stop stop-color="#fff"/><stop offset="1" stop-color="#EEE"/></linearGradient><linearGradient id="b" x1="788.623" y1="378.03" x2="877.074" y2="308.064" gradientUnits="userSpaceOnUse"><stop stop-color="#fff"/><stop offset="1" stop-color="#EEE"/></linearGradient><linearGradient id="c" x1="139.799" y1="386.147" x2="13.798" y2="269.075" gradientUnits="userSpaceOnUse"><stop stop-color="#fff"/><stop offset="1" stop-color="#EEE"/></linearGradient></defs></svg>