<svg width="900" height="600" viewBox="0 0 900 600" fill="none" xmlns="http://www.w3.org/2000/svg"><path fill="transparent" d="M0 0h900v600H0z"/><path d="M565.549 57.7a27.956 27.956 0 0 0-1.797-.578c-.201-.058-.399-.12-.6-.17a45.962 45.962 0 0 0-1.294-.311 21.245 21.245 0 0 0-.625-.125 36.227 36.227 0 0 0-1.307-.22 31.479 31.479 0 0 0-.767-.096 24.681 24.681 0 0 0-.561-.061 28.106 28.106 0 0 0-.883-.067c-.155-.01-.311-.025-.466-.03a29.244 29.244 0 0 0-1.371-.034H345.206a27.613 27.613 0 0 0-4.325.329c-.469.073-.938.155-1.398.249-12.023 2.462-21.276 12.54-22.537 24.984-.098.959-.147 1.93-.147 2.912v431.622c0 12.324 7.81 22.817 18.742 26.782.049.018.098.034.146.049.543.192 1.094.368 1.648.526.201.058.399.119.603.171.214.055.427.106.64.158.216.052.436.103.655.152.207.046.414.085.624.125.235.046.469.088.704.125a25.953 25.953 0 0 0 1.368.191 23.987 23.987 0 0 0 1.443.128c.156.009.311.025.466.031.454.021.911.033 1.371.033h210.675c.981 0 1.95-.049 2.906-.146 13.369-1.36 23.999-12.017 25.358-25.419a28.91 28.91 0 0 0 .146-2.912V84.483c-.006-12.325-7.816-22.818-18.745-26.783z" fill="#009688"/><rect x="423.249" y="80.468" width="55.954" height="5.459" rx="2.729" fill="#fff"/><circle cx="433.564" cy="199.433" r="6.686" fill="#fff"/><path d="M501.261 211.7a48.416 48.416 0 0 0-6.949-.565c-14.028-.101-27.394 6.05-36.565 16.826-9.171 10.777-13.224 25.094-11.088 39.17" stroke="#fff" stroke-width="11.075" stroke-linecap="round" stroke-linejoin="round"/><path clip-rule="evenodd" d="M503.769 214.894v0a53.908 53.908 0 0 1-53.907 53.908v0a53.908 53.908 0 0 1-53.907-53.908v0a53.907 53.907 0 0 1 53.907-53.907v0a53.907 53.907 0 0 1 53.907 53.907z" stroke="#fff" stroke-width="11.075" stroke-linecap="round" stroke-linejoin="round"/><rect x="410.145" y="375.122" width="81.406" height="23.879" rx="11.94" fill="#fff"/><rect x="371.07" y="431.563" width="69.467" height="23.879" rx="11.94" fill="#fff"/><rect x="460.075" y="431.563" width="69.467" height="23.879" rx="11.94" fill="#fff"/><rect x="371.07" y="342.559" width="158.471" height="10.854" rx="5.427" fill="#fff"/><rect x="371.07" y="309.744" width="158.31" height="10.918" rx="5.459" fill="#fff"/><rect x="612.976" y="173.2" width="231.024" height="231.024" rx="65.149" fill="#009688"/><path fill="#009688" d="m729.036 381.231 22.698 22.698-22.698 22.698-22.698-22.698z"/><circle cx="671.006" cy="258.602" r="29.562" fill="#fff"/><rect x="713.707" y="245.464" width="99.636" height="8.759" rx="4.38" fill="#fff"/><rect x="641.444" y="305.683" width="171.899" height="8.759" rx="4.38" fill="#fff"/><rect x="713.707" y="269.551" width="99.636" height="8.759" rx="4.38" fill="#fff"/><rect x="641.444" y="329.771" width="171.899" height="8.759" rx="4.38" fill="#fff"/><rect x="56.846" y="173.2" width="231.024" height="231.024" rx="65.149" fill="#009688"/><path fill="#009688" d="m172.905 381.231 22.698 22.698-22.698 22.698-22.698-22.698z"/><circle cx="114.875" cy="258.602" r="29.562" fill="#fff"/><rect x="157.576" y="245.464" width="99.636" height="8.759" rx="4.38" fill="#fff"/><rect x="85.313" y="305.683" width="171.899" height="8.759" rx="4.38" fill="#fff"/><rect x="157.576" y="269.551" width="99.636" height="8.759" rx="4.38" fill="#fff"/><rect x="85.313" y="329.771" width="171.899" height="8.759" rx="4.38" fill="#fff"/></svg>