<svg width="900" height="600" viewBox="0 0 900 600" fill="none" xmlns="http://www.w3.org/2000/svg"><path fill="transparent" d="M0 0h900v600H0z"/><path d="M680.303 206.612c4.889-8.718 3.585-24.527-7.642-42.575-11.207-18.017-32.253-38.166-66.603-55.459-31.229-15.717-62.919-18.767-88.183-15.04-12.632 1.863-23.647 5.42-32.187 9.925-8.552 4.51-14.575 9.945-17.301 15.538-3.957 8.124-1.928 16.299 2.644 24.349 3.59 6.321 8.701 12.486 13.613 18.411 1.358 1.638 2.7 3.257 3.991 4.856l-.391.308.391-.308c10.916 13.528 25.87 27.451 44.754 37.74 26.223 14.297 50.193 16.61 76.394 19.137l2.262.219c17.993 1.739 32.546 1.972 43.867-.493 11.297-2.46 19.344-7.6 24.391-16.608z" stroke="url(#a)" stroke-width="1.002"/><path d="M810.74 277.674c-24.968 12.386-58.107-3.54-58.107-3.54s7.365-35.999 32.346-48.368c24.968-12.385 58.094 3.523 58.094 3.523s-7.365 35.999-32.333 48.385z" fill="url(#b)"/><path d="M101.517 368.194c32.624 19.553 79.429 1.478 79.429 1.478s-6.12-49.769-38.764-69.3c-32.623-19.553-79.408-1.5-79.408-1.5s6.12 49.769 38.743 69.322z" fill="url(#c)"/><circle cx="761.612" cy="194.68" r="13.633" transform="rotate(180 761.612 194.68)" fill="#009688"/><circle cx="248.129" cy="271.902" r="15.337" transform="rotate(180 248.129 271.902)" fill="#009688"/><circle r="12.781" transform="matrix(-1 0 0 1 145.378 181.755)" fill="#009688"/><circle r="5.965" transform="matrix(-1 0 0 1 644.691 248.216)" fill="#009688"/><circle r="7.669" transform="matrix(-1 0 0 1 679.114 514.358)" fill="#E1E4E5"/><circle r="11.077" transform="matrix(-1 0 0 1 143.092 434.731)" fill="#E1E4E5"/><circle r="8.431" transform="matrix(-1 0 0 1 271.191 151.706)" fill="#E1E4E5"/><circle r="9.373" transform="matrix(-1 0 0 1 680.492 153.269)" fill="#E1E4E5"/><circle r="8.417" transform="scale(1 -1) rotate(-75 -84.944 -239.596)" fill="#E1E4E5"/><circle r="11.197" transform="matrix(-1 0 0 1 382.2 80.98)" fill="#E1E4E5"/><ellipse rx="8.613" ry="6.89" transform="matrix(-1 0 0 1 739.272 367.189)" fill="#E1E4E5"/><circle r="17.517" transform="scale(1 -1) rotate(-75 235.979 -416.094)" fill="#E1E4E5"/><path d="M804.589 319.601h.225c1.335 18.905 15.394 19.196 15.394 19.196s-15.503.302-15.503 22.146c0-21.844-15.504-22.146-15.504-22.146s14.054-.291 15.388-19.196zM238.287 503.388h.2c1.184 17.11 13.659 17.374 13.659 17.374s-13.756.274-13.756 20.044c0-19.77-13.757-20.044-13.757-20.044s12.47-.264 13.654-17.374z" fill="#E1E4E5"/><path d="m213.302 216.944 25.755-84.622 30.047-22.076 141.651 7.972 60.707 65h131.84c4.415 0 48.443 8.176 69.906 12.264l22.075 88.915-14.104 94.434-7.971 67.453-34.953 38.632-166.793 9.811c-51.305-1.022-157.471-2.452-171.698 0-14.226 2.453-56.21-31.273-75.424-48.443-1.227-27.799-5.151-84.5-11.038-88.915-5.887-4.415-2.453-95.456 0-140.425z" fill="#009688"/><path fill-rule="evenodd" clip-rule="evenodd" d="m446.871 205.182-27.707-46.178c-7.031-11.718-17.652-18.419-28.27-19.773-20.453-2.607-45.953-4.958-70.894-4.958-17.332 0-35.015 1.137-51.181 2.728-14.882 1.465-25.867 12.52-27.053 27.981-2.374 30.949-4.493 75.244-4.493 134.745 0 41.898 1.526 79.219 3.464 109.711 1.809 28.463 23.393 49.947 52.076 51.601 38.922 2.244 91.317 4.143 157.187 4.143 65.87 0 118.265-1.899 157.187-4.143 28.683-1.654 50.267-23.138 52.076-51.601a1738.39 1738.39 0 0 0 3.464-109.711c0-22.836-1.323-44.514-3.075-63.158-1.445-15.387-12.924-26.867-28.312-28.312-18.644-1.752-40.322-3.075-63.158-3.075H446.871zm26.765-47.273L459.7 134.682c-13.705-22.842-36.404-38.975-62.828-42.344C375.279 89.586 347.64 87 320 87c-19.289 0-38.578 1.26-55.812 2.956-37.984 3.739-66.637 33.354-69.556 71.411-2.473 32.235-4.632 77.74-4.632 138.36 0 43.031 1.567 81.362 3.559 112.71 3.332 52.42 44.095 92.773 96.533 95.796 39.826 2.296 93.129 4.221 159.908 4.221 66.779 0 120.082-1.925 159.908-4.221 52.438-3.023 93.201-43.376 96.533-95.796A1786.007 1786.007 0 0 0 710 299.727c0-24.608-1.423-47.794-3.282-67.58-3.57-38-32.956-67.386-70.956-70.956-19.786-1.859-42.972-3.282-67.58-3.282h-94.546z" fill="#009688"/><path d="M335.841 309.744c-9.675 9.739-9.675 25.528 0 35.267l49.547 49.874c9.675 9.738 25.361 9.738 35.035 0 9.675-9.739 9.675-25.528 0-35.267l-32.029-32.241 32.029-32.241c9.675-9.738 9.675-25.528 0-35.266-9.674-9.739-25.36-9.739-35.035 0l-49.547 49.874zm183.677-49.874 49.547 49.874c9.675 9.739 9.675 25.528 0 35.267l-49.547 49.874c-9.675 9.738-25.361 9.738-35.036 0-9.674-9.739-9.674-25.528 0-35.267l32.03-32.241-32.03-32.241c-9.674-9.738-9.674-25.528 0-35.266 9.675-9.739 25.361-9.739 35.036 0z" fill="#fff"/><defs><linearGradient id="a" x1="611.615" y1="325.549" x2="520.152" y2="-85.447" gradientUnits="userSpaceOnUse"><stop stop-color="#fff"/><stop offset="1" stop-color="#EEE"/></linearGradient><linearGradient id="b" x1="714.859" y1="316.308" x2="920.798" y2="153.41" gradientUnits="userSpaceOnUse"><stop stop-color="#fff"/><stop offset="1" stop-color="#EEE"/></linearGradient><linearGradient id="c" x1="227.763" y1="431.133" x2="-34.74" y2="187.234" gradientUnits="userSpaceOnUse"><stop stop-color="#fff"/><stop offset="1" stop-color="#EEE"/></linearGradient></defs></svg>