<svg width="900" height="600" viewBox="0 0 900 600" fill="none" xmlns="http://www.w3.org/2000/svg"><path fill="transparent" d="M0 0h900v600H0z"/><path fill-rule="evenodd" clip-rule="evenodd" d="M235.128 235c10.853 0 5.775-17.278-7.975-13.151-.761-23.99-39.712-41.544-55.818-9.186-4.554-3.618-14.779 3.215-12.515 9.186-5.058.433-9.038 1.02-12.134 1.798-7.149 1.797-5.733 11.272 1.635 11.206l86.807.147zm351.652-69c9.648 0 5.134-15.55-7.088-11.836-.677-21.591-35.3-37.389-49.617-8.267-4.047-3.256-13.137 2.894-11.124 8.267-4.496.39-8.033.918-10.785 1.619-6.355 1.616-5.097 10.144 1.453 10.085l77.161.132zm192.765 42H731.48c-4.298 0-6.149-5.585-2.633-8.063.049-.035.099-.071.149-.105 5.007-3.454 11.578-3.141 11.578-3.141S741.512 178 759.192 178c15.985 0 22.359 15.749 24.658 24.425.747 2.819-1.399 5.575-4.305 5.575zm-251 17H480.48c-4.298 0-6.149-5.585-2.633-8.063.049-.035.099-.071.149-.105 5.007-3.454 11.578-3.141 11.578-3.141S490.512 195 508.192 195c15.985 0 22.359 15.749 24.658 24.425.747 2.819-1.399 5.575-4.305 5.575zm-197.074 6h59.028c5.277 0 7.551-6.889 3.232-9.944l-.182-.13c-6.149-4.26-14.219-3.873-14.219-3.873S378.178 194 356.465 194c-19.63 0-27.458 19.423-30.281 30.125-.917 3.476 1.718 6.875 5.287 6.875zm254-16h59.028c5.277 0 7.551-6.889 3.232-9.944l-.182-.13c-6.149-4.26-14.219-3.873-14.219-3.873S632.178 178 610.465 178c-19.63 0-27.458 19.423-30.281 30.125-.917 3.476 1.718 6.875 5.287 6.875zm-388.798-51h39.633c3.544 0 5.07-4.654 2.171-6.719l-.123-.088c-4.129-2.878-9.547-2.617-9.547-2.617S228.034 139 213.455 139c-13.18 0-18.436 13.124-20.332 20.355-.615 2.348 1.154 4.645 3.55 4.645zm105.576 39h-40.477c-3.619 0-5.178-4.654-2.216-6.719l.125-.088c4.216-2.878 9.75-2.617 9.75-2.617S270.221 178 285.109 178c13.461 0 18.829 13.124 20.765 20.355.629 2.348-1.178 4.645-3.625 4.645zm-183.498-21h40.477c3.619 0 5.178-4.841 2.216-6.988l-.125-.091c-4.216-2.994-9.75-2.722-9.75-2.722S150.779 156 135.891 156c-13.461 0-18.829 13.649-20.765 21.169-.629 2.443 1.178 4.831 3.625 4.831zm240.77-23h-77.942c-6.31 0-9.032-8.006-3.866-11.558l.219-.15c7.353-4.952 17.004-4.502 17.004-4.502S296.315 116 322.28 116c12.837 0 23.212 21.5 23.212 21.5s17.463 0 20.353 13.508c.874 4.093-2.055 7.992-6.324 7.992zm271.973 3h81.137c7.616 0 7.267-6.049 4.779-8.157-2.55-2.16-7.588-1.284-7.588-1.284s-1.5-4.069-6.437-6.05c-4.367-1.752-8.942-.918-8.942-.918s0-2.792-2.797-5.105c-2.796-2.313-6.524-2.088-6.524-2.088S682.559 123 665.431 123c-17.127 0-19.107 14.498-19.107 14.498s-3.845 0-6.642 2.473c-2.796 2.473-3.145 5.283-3.145 5.283s-9.352-1.216-12.118 6.566c-1.648 4.638 1.738 10.18 7.075 10.18z" fill="#fff" stroke="#E1E4E5" stroke-width="4"/><path d="M494.46 429.471c0 31.474 25.515 56.988 56.989 56.988 31.474 0 56.988-25.514 56.988-56.988s-25.514-56.989-56.988-56.989a56.075 56.075 0 0 0-28.21 7.551" stroke="#E1E4E5" stroke-width="4" stroke-linecap="round" stroke-linejoin="round"/><circle transform="matrix(-1 0 0 1 351.988 429.471)" stroke="#E1E4E5" stroke-width="4" stroke-linecap="round" stroke-linejoin="round" r="56.989"/><path d="M348.429 336.866a17.807 17.807 0 0 1-17.809-17.809v0a17.81 17.81 0 0 1 17.809-17.809h46.303l-42.741 128.224" stroke="#E1E4E5" stroke-width="4" stroke-linecap="round" stroke-linejoin="round"/><path clip-rule="evenodd" d="M551.448 429.474h-85.483l-71.235-99.73h99.73l56.988 99.73z" stroke="#E1E4E5" stroke-width="4" stroke-linecap="round" stroke-linejoin="round"/><path d="M522.955 294.124h-42.741m-14.248 135.351 42.741-135.348" stroke="#E1E4E5" stroke-width="4" stroke-linecap="round" stroke-linejoin="round"/><path d="m91 398.682 41.764 26.962L174 398.682l-41.236-104.146L91 398.682z" fill="#fff" stroke="#E1E4E5" stroke-width="4"/><path stroke="#E1E4E5" stroke-width="4" d="M132.121 371.72v71.898m-25.156-55.55 25.911 18.51"/><path d="m639 398.682 41.764 26.962L722 398.682l-41.236-104.146L639 398.682z" fill="#fff" stroke="#E1E4E5" stroke-width="4"/><path stroke="#E1E4E5" stroke-width="4" d="M680.121 371.72v71.898m-25.156-55.55 25.911 18.51"/><path d="m205 363.338 27.675 17.867L260 363.338l-27.325-69.012L205 363.338z" fill="#fff" stroke="#E1E4E5" stroke-width="4"/><path stroke="#E1E4E5" stroke-width="4" d="M232.923 345.472v47.643m-16.952-37.359 17.17 12.265"/><path d="m753 363.338 27.675 17.867L808 363.338l-27.325-69.012L753 363.338z" fill="#fff" stroke="#E1E4E5" stroke-width="4"/><path stroke="#E1E4E5" stroke-width="4" d="M780.923 345.472v47.643m-16.952-37.359 17.17 12.265"/><path fill-rule="evenodd" clip-rule="evenodd" d="M186.414 462.455v-14.129 14.129z" fill="#fff"/><path d="M186.414 462.455v-14.129" stroke="#E1E4E5" stroke-width="4"/><path fill-rule="evenodd" clip-rule="evenodd" d="M111.414 500.455v-14.129 14.129z" fill="#fff"/><path d="M111.414 500.455v-14.129" stroke="#E1E4E5" stroke-width="4"/><path fill-rule="evenodd" clip-rule="evenodd" d="M627.414 500.455v-14.129 14.129z" fill="#fff"/><path d="M627.414 500.455v-14.129" stroke="#E1E4E5" stroke-width="4"/><path fill-rule="evenodd" clip-rule="evenodd" d="M746.414 462.455v-14.129 14.129z" fill="#fff"/><path d="M746.414 462.455v-14.129" stroke="#E1E4E5" stroke-width="4"/><path fill-rule="evenodd" clip-rule="evenodd" d="M433.414 504.455v-14.129 14.129z" fill="#fff"/><path d="M433.414 504.455v-14.129" stroke="#E1E4E5" stroke-width="4"/><path fill-rule="evenodd" clip-rule="evenodd" d="M201.827 462.455v-10.276 10.276z" fill="#fff"/><path d="M201.827 462.455v-10.276" stroke="#E1E4E5" stroke-width="4"/><path fill-rule="evenodd" clip-rule="evenodd" d="M126.827 500.455v-10.276 10.276z" fill="#fff"/><path d="M126.827 500.455v-10.276" stroke="#E1E4E5" stroke-width="4"/><path fill-rule="evenodd" clip-rule="evenodd" d="M642.827 500.455v-10.276 10.276z" fill="#fff"/><path d="M642.827 500.455v-10.276" stroke="#E1E4E5" stroke-width="4"/><path fill-rule="evenodd" clip-rule="evenodd" d="M761.827 462.455v-10.276 10.276z" fill="#fff"/><path d="M761.827 462.455v-10.276" stroke="#E1E4E5" stroke-width="4"/><path fill-rule="evenodd" clip-rule="evenodd" d="M448.827 504.455v-10.276 10.276z" fill="#fff"/><path d="M448.827 504.455v-10.276" stroke="#E1E4E5" stroke-width="4"/><path fill-rule="evenodd" clip-rule="evenodd" d="M237.792 462.455v-6.423 6.423z" fill="#fff"/><path d="M237.792 462.455v-6.423" stroke="#E1E4E5" stroke-width="4"/><path fill-rule="evenodd" clip-rule="evenodd" d="M162.792 500.455v-6.423 6.423z" fill="#fff"/><path d="M162.792 500.455v-6.423" stroke="#E1E4E5" stroke-width="4"/><path fill-rule="evenodd" clip-rule="evenodd" d="M678.792 500.455v-6.423 6.423z" fill="#fff"/><path d="M678.792 500.455v-6.423" stroke="#E1E4E5" stroke-width="4"/><path fill-rule="evenodd" clip-rule="evenodd" d="M797.792 462.455v-6.423 6.423z" fill="#fff"/><path d="M797.792 462.455v-6.423" stroke="#E1E4E5" stroke-width="4"/><path fill-rule="evenodd" clip-rule="evenodd" d="M484.792 504.455v-6.423 6.423z" fill="#fff"/><path d="M484.792 504.455v-6.423" stroke="#E1E4E5" stroke-width="4"/><path fill-rule="evenodd" clip-rule="evenodd" d="M171 462.455v-10.276 10.276z" fill="#fff"/><path d="M171 462.455v-10.276" stroke="#E1E4E5" stroke-width="4"/><path fill-rule="evenodd" clip-rule="evenodd" d="M96 500.455v-10.276 10.276z" fill="#fff"/><path d="M96 500.455v-10.276" stroke="#E1E4E5" stroke-width="4"/><path fill-rule="evenodd" clip-rule="evenodd" d="M612 500.455v-10.276 10.276z" fill="#fff"/><path d="M612 500.455v-10.276" stroke="#E1E4E5" stroke-width="4"/><path fill-rule="evenodd" clip-rule="evenodd" d="M731 462.455v-10.276 10.276z" fill="#fff"/><path d="M731 462.455v-10.276" stroke="#E1E4E5" stroke-width="4"/><path fill-rule="evenodd" clip-rule="evenodd" d="M418 504.455v-10.276 10.276z" fill="#fff"/><path d="M418 504.455v-10.276" stroke="#E1E4E5" stroke-width="4"/><circle cx="438.942" cy="138.942" r="43.942" fill="#009688"/></svg>