<svg width="900" height="600" viewBox="0 0 900 600" fill="none" xmlns="http://www.w3.org/2000/svg"><path fill="transparent" d="M0 0h900v600H0z"/><circle cx="483.251" cy="300.398" r="255.1" stroke="url(#a)" stroke-width="2.797"/><path d="M447.936 271.877v-65.062l-23.422-37.997-155.109-6.246-62.98 20.3-4.164 79.115 4.164 69.747 29.669 18.738 9.889 50.488 75.472-44.763 75.993-5.725 50.488-27.066v-51.529z" fill="#009688"/><path d="M768.248 335.315c-19.04 9.445-44.311-2.699-44.311-2.699s5.616-27.453 24.667-36.885c19.04-9.445 44.301 2.687 44.301 2.687s-5.617 27.452-24.657 36.897z" fill="url(#b)"/><path d="M377.666 450.678c23.67 14.187 57.629 1.072 57.629 1.072s-4.441-36.109-28.125-50.28c-23.67-14.186-57.615-1.088-57.615-1.088s4.441 36.11 28.111 50.296z" fill="url(#c)"/><circle cx="707.362" cy="485.499" r="12.71" transform="rotate(180 707.362 485.499)" fill="#009688"/><circle cx="309.209" cy="114.412" r="14.299" transform="rotate(180 309.209 114.412)" fill="#009688"/><circle r="11.916" transform="matrix(-1 0 0 1 109.036 222.823)" fill="#009688"/><circle r="5.561" transform="matrix(-1 0 0 1 663.512 260.523)" fill="#009688"/><circle r="7.149" transform="matrix(-1 0 0 1 516.504 469.617)" fill="#E1E4E5"/><circle r="10.327" transform="matrix(-1 0 0 1 544.665 522.762)" fill="#E1E4E5"/><circle r="7.86" transform="matrix(-1 0 0 1 612.374 143.277)" fill="#E1E4E5"/><circle r="8.738" transform="matrix(-1 0 0 1 146.458 351.491)" fill="#E1E4E5"/><circle r="7.847" transform="scale(1 -1) rotate(-75 123.279 -268.087)" fill="#E1E4E5"/><circle r="10.439" transform="matrix(-1 0 0 1 426.104 100.142)" fill="#E1E4E5"/><ellipse rx="8.03" ry="6.424" transform="matrix(-1 0 0 1 302.94 431.416)" fill="#E1E4E5"/><circle r="16.331" transform="scale(1 -1) rotate(-75 249.917 -425.55)" fill="#E1E4E5"/><path d="M155.189 245.852h.21c1.244 17.625 14.351 17.896 14.351 17.896s-14.454.282-14.454 20.647c0-20.365-14.453-20.647-14.453-20.647s13.102-.271 14.346-17.896zm609.447 138.452h.186c1.104 15.952 12.734 16.197 12.734 16.197s-12.825.256-12.825 18.687c0-18.431-12.825-18.687-12.825-18.687s11.626-.245 12.73-16.197z" fill="#E1E4E5"/><path fill-rule="evenodd" clip-rule="evenodd" d="M256.258 338.504v43.073l70.479-41.647 7.366-.12c29.291-.48 55.652-3.429 75.363-6.428 12.439-1.893 21.083-10.574 22.96-21.475 2.605-15.121 4.823-34.278 4.823-55.564s-2.218-40.443-4.823-55.563c-1.877-10.901-10.521-19.583-22.96-21.475-21.559-3.281-51.04-6.496-83.596-6.496-32.555 0-62.037 3.215-83.595 6.496-12.439 1.892-21.083 10.574-22.961 21.475-2.604 15.12-4.823 34.277-4.823 55.563s2.219 40.443 4.823 55.564c1.631 9.466 8.244 17.053 17.886 20.259l19.058 6.338zm-64.384-142.451c4.04-23.455 22.683-40.696 46.213-44.276 22.545-3.431 53.473-6.813 87.783-6.813 34.311 0 65.239 3.382 87.784 6.813 23.53 3.58 42.173 20.821 46.213 44.276 2.816 16.347 5.227 37.113 5.227 60.29s-2.411 43.943-5.227 60.29c-4.04 23.455-22.683 40.697-46.213 44.277-20.625 3.138-48.266 6.236-79.095 6.741l-85.14 50.31c-9.281 5.484-21.005-1.206-21.005-11.986v-47.386c-18.843-6.266-33.072-21.822-36.54-41.956-2.816-16.347-5.228-37.113-5.228-60.29s2.412-43.943 5.228-60.29z" fill="#009688"/><path fill-rule="evenodd" clip-rule="evenodd" d="M256.258 214.885c-7.689 0-13.922 6.234-13.922 13.923s6.233 13.922 13.922 13.922h139.224c7.689 0 13.923-6.233 13.923-13.922 0-7.689-6.234-13.923-13.923-13.923H256.258zm0 55.69c-7.689 0-13.922 6.233-13.922 13.922 0 7.69 6.233 13.923 13.922 13.923h55.69c7.689 0 13.922-6.233 13.922-13.923 0-7.689-6.233-13.922-13.922-13.922h-55.69z" fill="#fff"/><path d="M454.318 349.148v-65.062l23.423-37.997 155.108-6.245 62.98 20.299 4.164 79.115-4.164 69.747-29.668 18.738-9.89 50.488-75.472-44.763-75.992-5.725-50.489-27.066v-51.529z" fill="#009688"/><path fill-rule="evenodd" clip-rule="evenodd" d="M645.836 416.54v43.072l-70.478-41.646-7.367-.12c-29.291-.48-55.652-3.429-75.362-6.428-12.44-1.893-21.083-10.575-22.961-21.476-2.605-15.12-4.823-34.277-4.823-55.563s2.218-40.443 4.823-55.563c1.878-10.901 10.521-19.583 22.961-21.475 21.558-3.281 51.04-6.496 83.595-6.496s62.037 3.215 83.595 6.496c12.44 1.892 21.083 10.574 22.961 21.475 2.604 15.12 4.823 34.277 4.823 55.563s-2.219 40.443-4.823 55.563c-1.631 9.467-8.244 17.054-17.886 20.26l-19.058 6.338zm64.384-142.451c-4.04-23.455-22.683-40.696-46.212-44.276-22.545-3.431-53.474-6.813-87.784-6.813-34.311 0-65.239 3.382-87.784 6.813-23.529 3.58-42.173 20.821-46.213 44.276-2.815 16.347-5.227 37.113-5.227 60.29s2.412 43.943 5.227 60.29c4.04 23.455 22.684 40.696 46.213 44.277 20.625 3.138 48.267 6.236 79.095 6.741l85.141 50.31c9.28 5.484 21.005-1.206 21.005-11.986v-47.387c18.843-6.265 33.071-21.821 36.539-41.955 2.816-16.347 5.228-37.113 5.228-60.29s-2.412-43.943-5.228-60.29z" fill="#009688"/><path fill-rule="evenodd" clip-rule="evenodd" d="M506.612 292.921c-7.689 0-13.922 6.234-13.922 13.923s6.233 13.922 13.922 13.922h139.224c7.689 0 13.922-6.233 13.922-13.922 0-7.689-6.233-13.923-13.922-13.923H506.612zm0 55.69c-7.689 0-13.922 6.233-13.922 13.922 0 7.689 6.233 13.923 13.922 13.923h55.69c7.689 0 13.922-6.234 13.922-13.923s-6.233-13.922-13.922-13.922h-55.69z" fill="#fff"/><path d="M504.167 89.986a11.799 11.799 0 0 1 11.799 0l36.599 21.13a11.798 11.798 0 0 1 5.899 10.218v42.261c0 4.215-2.248 8.11-5.899 10.218l-36.599 21.13a11.797 11.797 0 0 1-11.799 0l-36.599-21.13a11.8 11.8 0 0 1-5.899-10.218v-42.261a11.8 11.8 0 0 1 5.899-10.218l36.599-21.13z" fill="#009688"/><path d="m527.352 132.024-20.399 20.236-12.239-12.141" stroke="#fff" stroke-width="7.441" stroke-linecap="round" stroke-linejoin="round"/><defs><linearGradient id="a" x1="494.189" y1="844.513" x2="478.371" y2="-514.155" gradientUnits="userSpaceOnUse"><stop stop-color="#fff"/><stop offset="1" stop-color="#EEE"/></linearGradient><linearGradient id="b" x1="695.132" y1="364.777" x2="852.176" y2="240.554" gradientUnits="userSpaceOnUse"><stop stop-color="#fff"/><stop offset="1" stop-color="#EEE"/></linearGradient><linearGradient id="c" x1="469.262" y1="496.344" x2="278.805" y2="319.384" gradientUnits="userSpaceOnUse"><stop stop-color="#fff"/><stop offset="1" stop-color="#EEE"/></linearGradient></defs></svg>