<svg width="900" height="600" viewBox="0 0 900 600" fill="none" xmlns="http://www.w3.org/2000/svg"><path fill="transparent" d="M0 0h900v600H0z"/><path d="M215.958 385.882c2.624 66.56 144.738 189.062 299.641 124.239 72.044-30.152 62.145-68.039 113.821-124.049 30.802-33.382 76.99-60.775 86.308-105.971 8.053-39.011-2.895-79.101-25.518-103.723-50.877-55.371-146.122-87.616-227.372 14.78-81.249 102.397-253.627 23.057-246.88 194.724z" fill="url(#a)"/><path d="M210.397 199.939c11.577 20.663 36.933 23.502 77.555 19.575 30.55-2.958 58.41-5.248 88.963-21.905 21.385-11.652 38.312-27.415 50.667-42.725 13.389-16.586 32.076-35.515 22.915-54.321-12.589-25.833-85.393-47.59-156.088-12.01-77.658 39.096-95.338 91.192-84.012 111.386z" fill="url(#b)"/><path d="M116.204 261.922c30.013 14.889 69.848-4.255 69.848-4.255s-8.853-43.274-38.882-58.141c-30.014-14.888-69.833 4.234-69.833 4.234s8.853 43.274 38.867 58.162z" fill="url(#c)"/><path d="M788.697 308.306c-16.307 9.773-39.702.739-39.702.739s3.059-24.877 19.376-34.639c16.306-9.773 39.691-.75 39.691-.75s-3.059 24.877-19.365 34.65z" fill="url(#d)"/><circle cx="190.627" cy="465.457" r="9.218" fill="#E1E4E5"/><circle cx="790.999" cy="397.143" r="13.315" fill="#E1E4E5"/><circle cx="143.684" cy="374.318" r="10.134" fill="#E1E4E5"/><circle cx="200.42" cy="105.82" r="11.267" fill="#E1E4E5"/><circle cx="827.474" cy="176.976" r="10.117" transform="rotate(90 827.474 176.976)" fill="#E1E4E5"/><circle cx="530.886" cy="79.547" r="13.46" fill="#E1E4E5"/><ellipse cx="180.57" cy="318.184" rx="10.353" ry="8.283" fill="#E1E4E5"/><path d="M714.401 116.925h-.147c-.874 12.375-10.077 12.565-10.077 12.565s10.149.198 10.149 14.497c0-14.299 10.148-14.497 10.148-14.497s-9.199-.19-10.073-12.565zm15.418 323.921h-.142c-.838 12.338-9.674 12.528-9.674 12.528s9.743.197 9.743 14.454c0-14.257 9.744-14.454 9.744-14.454s-8.832-.19-9.671-12.528z" fill="#E1E4E5"/><path d="m90.091 204.782 23.5-16.5 104.5-4v46l29.5 11h26.5l5 116-5 48-16.5 6-35 4.5-109-4.5-16-19-10-130.5 2.5-57zm267 0 23.5-16.5 104.5-4v46l29.5 11h26.5l5 116-5 48-16.5 6-35 4.5-109-4.5-16-19-10-130.5 2.5-57z" fill="#009688"/><path d="m90.091 204.782 23.5-16.5 104.5-4v46l29.5 11h26.5l5 116-5 48-16.5 6-35 4.5-109-4.5-16-19-10-130.5 2.5-57zm537 0 23.5-16.5 104.5-4v46l29.5 11h26.5l5 116-5 48-16.5 6-35 4.5-109-4.5-16-19-10-130.5 2.5-57z" fill="#009688"/><path fill-rule="evenodd" clip-rule="evenodd" d="M612.495 218.616c0-25.774 20.893-46.667 46.666-46.667h97.337a46.667 46.667 0 0 1 32.998 13.668l19.33 19.33a46.668 46.668 0 0 1 13.669 32.999v144.003c0 25.773-20.894 46.667-46.667 46.667H659.161c-25.773 0-46.666-20.894-46.666-46.667V218.616zm186.666 35v128.333c0 12.887-10.446 23.333-23.333 23.333H659.161c-12.886 0-23.333-10.446-23.333-23.333V218.616c0-12.887 10.447-23.334 23.333-23.334h81.667v23.334c0 19.33 15.67 35 35 35h23.333zm-1.294-23.334a23.338 23.338 0 0 0-5.54-8.836l-19.33-19.33a23.32 23.32 0 0 0-8.836-5.539v22.039c0 6.443 5.224 11.666 11.667 11.666h22.039z" fill="#009688"/><path d="M662.578 315.365c-4.556 4.557-4.556 11.943 0 16.5l23.334 23.333c4.556 4.556 11.943 4.556 16.499 0 4.556-4.556 4.556-11.943 0-16.499l-15.084-15.084 15.084-15.084c4.556-4.556 4.556-11.943 0-16.499-4.556-4.556-11.943-4.556-16.499 0l-23.334 23.333zm86.5-23.333 23.333 23.333c4.556 4.557 4.556 11.943 0 16.5l-23.333 23.333c-4.557 4.556-11.943 4.556-16.5 0-4.556-4.556-4.556-11.943 0-16.499l15.084-15.084-15.084-15.084c-4.556-4.556-4.556-11.943 0-16.499 4.557-4.556 11.944-4.556 16.5 0z" fill="#009688"/><path d="M666.009 304.032c-4.557 4.557-4.557 11.943 0 16.5l23.333 23.333c4.556 4.556 11.943 4.556 16.499 0 4.556-4.556 4.556-11.943 0-16.499l-15.084-15.084 15.084-15.084c4.556-4.556 4.556-11.943 0-16.499-4.556-4.556-11.943-4.556-16.499 0l-23.333 23.333zm86.499-23.333 23.333 23.333c4.556 4.557 4.556 11.943 0 16.5l-23.333 23.333c-4.556 4.556-11.943 4.556-16.499 0-4.557-4.556-4.557-11.943 0-16.499l15.083-15.084-15.083-15.084c-4.557-4.556-4.557-11.943 0-16.499 4.556-4.556 11.943-4.556 16.499 0z" fill="#fff"/><path fill-rule="evenodd" clip-rule="evenodd" d="M346.043 218.616c0-25.774 20.893-46.667 46.667-46.667h97.336a46.671 46.671 0 0 1 32.999 13.668l19.33 19.33a46.671 46.671 0 0 1 13.668 32.999v144.003c0 25.773-20.893 46.667-46.667 46.667H392.71c-25.774 0-46.667-20.894-46.667-46.667V218.616zm186.667 35v128.333c0 12.887-10.447 23.333-23.334 23.333H392.71c-12.887 0-23.334-10.446-23.334-23.333V218.616c0-12.887 10.447-23.334 23.334-23.334h81.666v23.334c0 19.33 15.67 35 35 35h23.334zm-1.295-23.334a23.335 23.335 0 0 0-5.539-8.836l-19.33-19.33a23.335 23.335 0 0 0-8.836-5.539v22.039c0 6.443 5.223 11.666 11.666 11.666h22.039z" fill="#009688"/><path d="M495.007 305.949c-12.886 0-23.333-10.447-23.333-23.334 0-12.886 10.447-23.333 23.333-23.333 12.887 0 23.334 10.447 23.334 23.333 0 12.887-10.447 23.334-23.334 23.334zm-67.444 11.388-22.393 27.991c-6.111 7.639-.673 18.955 9.11 18.955h44.785c9.783 0 15.222-11.316 9.111-18.955l-22.393-27.991c-4.671-5.838-13.55-5.838-18.22 0z" fill="#fff"/><path fill-rule="evenodd" clip-rule="evenodd" d="M79.591 218.616c0-25.774 20.894-46.667 46.667-46.667h97.337a46.669 46.669 0 0 1 32.998 13.668l19.33 19.33a46.667 46.667 0 0 1 13.668 32.999v144.003c0 25.773-20.893 46.667-46.666 46.667H126.258c-25.773 0-46.667-20.894-46.667-46.667V218.616zm186.667 35v128.333c0 12.887-10.447 23.333-23.333 23.333H126.258c-12.887 0-23.333-10.446-23.333-23.333V218.616c0-12.887 10.446-23.334 23.333-23.334h81.667v23.334c0 19.33 15.67 35 35 35h23.333zm-1.294-23.334a23.35 23.35 0 0 0-5.54-8.836l-19.33-19.33a23.32 23.32 0 0 0-8.836-5.539v22.039c0 6.443 5.223 11.666 11.667 11.666h22.039z" fill="#009688"/><path d="m177.046 270.836 46.485 26.563c7.838 4.479 7.838 15.781 0 20.259l-46.485 26.563c-7.777 4.445-17.455-1.171-17.455-10.129v-53.126c0-8.958 9.678-14.574 17.455-10.13z" fill="#fff"/><defs><linearGradient id="a" x1="407.973" y1="768.307" x2="547.572" y2="-347.082" gradientUnits="userSpaceOnUse"><stop stop-color="#fff"/><stop offset="1" stop-color="#EEE"/></linearGradient><linearGradient id="b" x1="288.39" y1="333.85" x2="391.583" y2="-129.854" gradientUnits="userSpaceOnUse"><stop stop-color="#fff"/><stop offset="1" stop-color="#EEE"/></linearGradient><linearGradient id="c" x1="231.458" y1="308.363" x2="-16.093" y2="112.549" gradientUnits="userSpaceOnUse"><stop stop-color="#fff"/><stop offset="1" stop-color="#EEE"/></linearGradient><linearGradient id="d" x1="725.594" y1="339.766" x2="856.804" y2="217.855" gradientUnits="userSpaceOnUse"><stop stop-color="#fff"/><stop offset="1" stop-color="#EEE"/></linearGradient></defs></svg>