<svg width="900" height="600" viewBox="0 0 900 600" fill="none" xmlns="http://www.w3.org/2000/svg"><path fill="transparent" d="M0 0h900v600H0z"/><path fill="#009688" d="M358.39 85.276h180.69v146.735H358.39z"/><path fill-rule="evenodd" clip-rule="evenodd" d="M523.719 96.594H374.963a9.297 9.297 0 0 0-9.297 9.298v111.567a9.296 9.296 0 0 0 9.297 9.297h148.756a9.297 9.297 0 0 0 9.298-9.297V105.892a9.298 9.298 0 0 0-9.298-9.297zM374.963 78c-15.404 0-27.892 12.488-27.892 27.892v111.567c0 15.404 12.488 27.892 27.892 27.892h148.756c15.404 0 27.892-12.488 27.892-27.892V105.892c0-15.404-12.488-27.892-27.892-27.892H374.963z" fill="#009688"/><path fill-rule="evenodd" clip-rule="evenodd" d="M386.415 118.535a9.297 9.297 0 0 1 13.094-1.191l43.88 36.567a9.298 9.298 0 0 0 11.904 0l43.88-36.567a9.298 9.298 0 0 1 11.904 14.285l-43.88 36.567c-10.344 8.619-25.368 8.619-35.712 0l-43.88-36.567a9.298 9.298 0 0 1-1.19-13.094z" fill="#fff"/><path fill="#009688" d="M616.547 94.024h135.782v135.782H616.547z"/><path fill-rule="evenodd" clip-rule="evenodd" d="M684.198 94.735c-16.335 0-31.393 1.347-43.48 2.944-10.878 1.436-19.08 9.639-20.517 20.516-1.596 12.087-2.943 27.145-2.943 43.48 0 16.336 1.347 31.394 2.943 43.481 1.437 10.877 9.639 19.08 20.517 20.516 12.087 1.597 27.145 2.944 43.48 2.944 16.336 0 31.394-1.347 43.481-2.944 10.877-1.436 19.08-9.639 20.516-20.516 1.596-12.087 2.944-27.145 2.944-43.481 0-16.335-1.348-31.393-2.944-43.48-1.436-10.877-9.639-19.08-20.516-20.516-12.087-1.597-27.145-2.944-43.481-2.944zm-45.671-13.647c-18.382 2.427-32.489 16.534-34.917 34.916-1.669 12.637-3.087 28.445-3.087 45.671 0 17.227 1.418 33.035 3.087 45.672 2.428 18.382 16.535 32.489 34.917 34.916 12.637 1.669 28.445 3.088 45.671 3.088 17.227 0 33.035-1.419 45.672-3.088 18.381-2.427 32.488-16.534 34.916-34.916 1.669-12.637 3.088-28.445 3.088-45.672 0-17.226-1.419-33.034-3.088-45.671-2.428-18.382-16.535-32.489-34.916-34.916C717.233 79.418 701.425 78 684.198 78c-17.226 0-33.034 1.419-45.671 3.088z" fill="#009688"/><path d="M659.097 153.308c9.242 0 16.735-7.493 16.735-16.735 0-9.243-7.493-16.735-16.735-16.735-9.243 0-16.735 7.492-16.735 16.735 0 9.242 7.492 16.735 16.735 16.735zm76.323 14.286 15.014 15.014a347.995 347.995 0 0 1-2.109 21.558l-24.739-24.739a8.366 8.366 0 0 0-11.833 0l-18.171 18.171c-9.803 9.803-25.697 9.803-35.5 0l-1.436-1.436a8.37 8.37 0 0 0-11.834 0l-20.158 20.158c-2.335-3.166-3.897-6.966-4.452-11.164-.302-2.29-.596-4.686-.873-7.178l13.65-13.649c9.803-9.803 25.697-9.803 35.5 0l1.436 1.435a8.368 8.368 0 0 0 11.834 0l18.17-18.17c9.803-9.804 25.698-9.803 35.501 0z" fill="#fff"/><path d="M611.064 431.273v-39.6l14.256-23.127 94.406-3.801 38.333 12.355 2.535 48.154-2.535 42.451-18.058 11.405-6.019 30.729-45.936-27.245-46.253-3.484-30.729-16.474v-31.363z" fill="#009688"/><path fill-rule="evenodd" clip-rule="evenodd" d="M727.631 472.291v26.216l-42.897-25.348-4.483-.073c-17.828-.292-33.873-2.087-45.87-3.913-7.571-1.152-12.832-6.436-13.975-13.071-1.585-9.203-2.935-20.862-2.935-33.818s1.35-24.616 2.935-33.819c1.143-6.635 6.404-11.919 13.975-13.071 13.122-1.996 31.066-3.953 50.88-3.953 19.815 0 37.759 1.957 50.881 3.953 7.571 1.152 12.832 6.436 13.975 13.071 1.585 9.203 2.935 20.863 2.935 33.819 0 12.956-1.35 24.615-2.935 33.818-.993 5.762-5.018 10.38-10.886 12.332l-11.6 3.857zm39.187-86.703c-2.459-14.276-13.806-24.77-28.127-26.949-13.722-2.087-32.546-4.146-53.43-4.146-20.883 0-39.707 2.059-53.429 4.146-14.321 2.179-25.669 12.673-28.128 26.949-1.713 9.95-3.181 22.589-3.181 36.696s1.468 26.746 3.181 36.695c2.459 14.276 13.807 24.77 28.128 26.949 12.553 1.91 29.377 3.796 48.141 4.103l51.821 30.621c5.648 3.338 12.784-.734 12.784-7.295v-28.842c11.469-3.813 20.13-13.281 22.24-25.536 1.714-9.949 3.182-22.588 3.182-36.695s-1.468-26.746-3.182-36.696z" fill="#009688"/><path fill-rule="evenodd" clip-rule="evenodd" d="M642.892 397.05a8.474 8.474 0 0 0 0 16.948h84.739a8.474 8.474 0 0 0 0-16.948h-84.739zm0 33.896a8.474 8.474 0 0 0 0 16.947h33.896a8.472 8.472 0 0 0 8.473-8.473 8.473 8.473 0 0 0-8.473-8.474h-33.896z" fill="#fff"/><path fill-rule="evenodd" clip-rule="evenodd" d="M650.902 274.456a8.473 8.473 0 1 0 0 16.947h84.739a8.474 8.474 0 0 0 0-16.947h-84.739zm0 33.895a8.474 8.474 0 0 0 0 16.948h33.896a8.474 8.474 0 0 0 0-16.948h-33.896zm-170.809-33.895a8.473 8.473 0 1 0 0 16.947h84.738a8.474 8.474 0 0 0 0-16.947h-84.738zm0 33.895a8.474 8.474 0 0 0 0 16.948h33.895a8.474 8.474 0 0 0 0-16.948h-33.895zm-170.81-33.895a8.472 8.472 0 0 0-8.473 8.473 8.473 8.473 0 0 0 8.473 8.474h84.739a8.474 8.474 0 0 0 0-16.947h-84.739zm0 33.895a8.473 8.473 0 0 0-8.473 8.474 8.473 8.473 0 0 0 8.473 8.474h33.896a8.474 8.474 0 0 0 0-16.948h-33.896zm-170.809-33.895a8.473 8.473 0 1 0 0 16.947h84.738a8.474 8.474 0 0 0 0-16.947h-84.738zm0 33.895a8.474 8.474 0 0 0 0 16.948h33.895a8.474 8.474 0 0 0 0-16.948h-33.895z" fill="#009688"/><circle r="84.888" transform="matrix(-1 0 0 1 214.888 162.888)" fill="#009688"/><path fill-rule="evenodd" clip-rule="evenodd" d="M244.16 192.587v4.177a4.18 4.18 0 0 1-4.181 4.177h-50.18a4.18 4.18 0 0 1-4.182-4.177v-4.243c0-12.64 14.46-20.852 29.272-20.852 14.811 0 29.271 8.216 29.271 20.852m-18.922-57.546c5.715 5.716 5.715 14.983 0 20.698-5.716 5.716-14.983 5.716-20.699 0-5.715-5.715-5.715-14.982 0-20.698 5.716-5.715 14.983-5.715 20.699 0z" fill="#fff"/><circle cx="213.069" cy="438.775" r="83.069" fill="#009688"/><path fill-rule="evenodd" clip-rule="evenodd" d="M228.478 409.323c12.587 0 21.028 11.814 21.028 22.816 0 22.333-35.043 40.618-35.682 40.618-.638 0-35.682-18.285-35.682-40.618 0-11.002 8.441-22.816 21.029-22.816 7.196 0 11.922 3.588 14.653 6.783 2.732-3.195 7.458-6.783 14.654-6.783z" fill="#fff"/><circle r="83.069" transform="matrix(-1 0 0 1 448.331 438.775)" fill="#009688"/><path fill-rule="evenodd" clip-rule="evenodd" d="M437.922 463.468v-5.735h7.155l6.074-6.088 8.385 3.569a8.073 8.073 0 0 0 8.887-1.732l11.91-11.936a8.128 8.128 0 0 0 1.728-8.906l-6.078-14.342a8.105 8.105 0 0 0-4.286-4.295l-14.309-6.092a8.078 8.078 0 0 0-8.887 1.732l-11.91 11.937a8.124 8.124 0 0 0-1.724 8.906l3.468 8.189-24.378 24.432v12.905h12.877l5.366-5.378v-7.17h5.722v.004z" fill="#fff"/><path fill-rule="evenodd" clip-rule="evenodd" d="M458.334 425.412c-3.423.014-6.201 2.793-6.187 6.216a6.195 6.195 0 0 0 6.216 6.187 6.204 6.204 0 0 0 6.201-6.202 6.203 6.203 0 0 0-6.201-6.201" fill="#009688"/></svg>