<svg width="900" height="600" viewBox="0 0 900 600" fill="none" xmlns="http://www.w3.org/2000/svg"><path fill="transparent" d="M0 0h900v600H0z"/><path d="M764.223 379.266h-60.729c-14.881 0-27.348-10.128-27.348-22.956 0-6.414 3.217-12.153 8.043-16.204 4.827-4.051 11.664-6.752 19.305-6.752h8.848c7.641 0 14.478-2.701 19.304-6.752 4.827-4.051 8.044-9.79 8.044-16.204 0-12.491-12.065-22.957-27.348-22.957H526.855c-4.846 0-7.961-5.956-7.961-10.802 0-12.154-11.663-21.944-26.141-21.944h-69.027a6.583 6.583 0 0 1 0-13.166h264.485c11.663 0 22.522-4.051 30.164-10.465 7.641-6.414 12.467-15.529 12.467-25.32 0-19.917-19.304-35.784-42.631-35.784H551.609c-21.434 0-42.651-16.542-64.084-16.542h-76.268c-11.186 0-20.255-9.069-20.255-20.256 0-11.186 9.069-20.255 20.255-20.255h170.779c8.044 0 15.685-2.701 20.914-7.089 5.228-4.389 8.445-10.466 8.445-17.555 0-13.504-13.272-24.644-29.359-24.644H188.304c-8.043 0-15.685 2.7-20.913 7.09-5.228 4.388-8.446 10.464-8.446 17.554 0 13.503 13.272 24.644 29.359 24.644h10.055c13.272 0 24.532 9.115 24.532 20.593 0 5.739-2.815 10.803-7.239 14.516-4.424 3.714-10.456 6.077-17.293 6.077h-48.664c-8.446 0-16.489 3.038-22.12 7.765-5.63 4.726-9.25 11.14-9.25 18.567 0 14.517 14.076 25.995 30.968 25.995h49.468c16.087 0 29.359 11.14 29.359 24.644 0 6.752-3.218 12.828-8.446 17.217-5.228 4.389-12.467 7.089-20.511 7.089h-44.24c-7.239 0-13.674 2.363-18.5 6.415-4.826 4.051-7.641 9.452-7.641 15.529 0 12.153 11.663 21.943 26.141 21.943h35.794c20.511 0 37.001 13.841 37.001 31.059 0 8.439-4.022 16.541-10.859 21.943-6.837 5.739-16.087 9.115-26.142 9.115h-49.87c-10.054 0-19.304 3.376-25.739 9.115-6.837 5.401-10.859 13.166-10.859 21.606 0 16.879 16.489 30.72 36.598 30.72h153.99c17.006 0 33.712 9.453 50.719 9.453h28.045c10.721 0 19.412 8.691 19.412 19.411 0 10.721-8.691 19.412-19.412 19.412h-68.263c-8.848 0-16.489 3.038-22.12 7.765-5.63 4.726-9.25 11.478-9.25 18.567 0 14.516 14.076 26.332 31.37 26.332h418.265c8.848 0 16.489-3.038 22.12-7.764 5.63-4.727 9.25-11.479 9.25-18.568 0-14.516-14.076-26.332-31.37-26.332h-12.468c-12.869 0-22.924-8.777-22.924-19.243 0-5.401 2.413-10.127 6.837-13.503 4.022-3.376 10.055-5.739 16.49-5.739h52.685c8.848 0 16.489-3.039 22.12-7.765 5.63-4.726 9.25-11.478 9.25-18.568 0-15.191-14.076-27.007-31.37-27.007z" fill="url(#a)"/><path d="M811.847 343.014c-10.242 5.081-23.836-1.452-23.836-1.452s3.021-14.767 13.268-19.84c10.242-5.081 23.831 1.445 23.831 1.445s-3.021 14.767-13.263 19.847z" fill="url(#b)"/><path d="M94.979 337.762c14.955 8.963 36.412.677 36.412.677s-2.806-22.815-17.77-31.769c-14.956-8.963-36.403-.687-36.403-.687s2.805 22.815 17.76 31.779z" fill="url(#c)"/><circle cx="775.766" cy="192.292" r="6.955" transform="rotate(180 775.766 192.292)" fill="#009688"/><circle cx="623.496" cy="465.915" r="13.081" transform="rotate(180 623.496 465.915)" fill="#009688"/><circle r="10.384" transform="matrix(-1 0 0 1 200.113 463.463)" fill="#009688"/><circle r="6.952" transform="matrix(-1 0 0 1 265.333 189.078)" fill="#009688"/><circle r="12.911" transform="matrix(-1 0 0 1 86.593 469.185)" fill="#E1E4E5"/><circle r="9.826" transform="matrix(-1 0 0 1 786.125 474.446)" fill="#E1E4E5"/><circle r="12.352" transform="matrix(-1 0 0 1 787.748 130.577)" fill="#E1E4E5"/><circle r="9.81" transform="scale(1 -1) rotate(-75 -62.128 -237.667)" fill="#E1E4E5"/><circle r="13.051" transform="matrix(-1 0 0 1 294.973 113.858)" fill="#E1E4E5"/><ellipse rx="10.039" ry="8.031" transform="matrix(-1 0 0 1 728.242 356.327)" fill="#E1E4E5"/><circle r="16.023" transform="matrix(0 1 1 0 546.273 109.85)" fill="#E1E4E5"/><path d="M200.635 126.2h.143c.847 11.999 9.77 12.184 9.77 12.184s-9.84.192-9.84 14.057c0-13.865-9.84-14.057-9.84-14.057s8.92-.185 9.767-12.184zm8.722 384.966h.137c.813 11.963 9.381 12.147 9.381 12.147s-9.448.192-9.448 14.015c0-13.823-9.448-14.015-9.448-14.015s8.564-.184 9.378-12.147z" fill="#E1E4E5"/><path fill-rule="evenodd" clip-rule="evenodd" d="M305.435 435.121c0-11.417-10.34-20.046-21.573-18.004l-42.697 7.763a18.298 18.298 0 0 0-15.025 18.004v84.363h12.199v-58.956l54.897-9.981v56.738h12.199v-79.927zm-19.39-6.002c3.744-.68 7.191 2.196 7.191 6.002v10.79l-54.897 9.981v-13.008a6.099 6.099 0 0 1 5.008-6.001l42.698-7.764z" fill="#009688"/><path fill-rule="evenodd" clip-rule="evenodd" d="M305.435 515.048c0 11.791-9.558 21.349-21.349 21.349s-21.349-9.558-21.349-21.349 9.558-21.349 21.349-21.349 21.349 9.558 21.349 21.349zm-12.199 0a9.15 9.15 0 1 1-18.3-.001 9.15 9.15 0 0 1 18.3.001zm-54.897 12.199c0 11.791-9.558 21.349-21.349 21.349-11.79 0-21.349-9.558-21.349-21.349 0-11.79 9.559-21.349 21.349-21.349 11.791 0 21.349 9.559 21.349 21.349zm-12.199 0a9.15 9.15 0 1 1-18.301-.001 9.15 9.15 0 0 1 18.301.001zm538.22-293.124c0-11.417-10.34-20.046-21.573-18.004l-42.697 7.763a18.3 18.3 0 0 0-15.026 18.004v84.363h12.2v-58.955l54.896-9.981v56.737h12.2v-79.927zm-19.39-6.001c3.744-.681 7.19 2.195 7.19 6.001v10.79l-54.896 9.981v-13.008a6.099 6.099 0 0 1 5.008-6.001l42.698-7.763z" fill="#009688"/><path fill-rule="evenodd" clip-rule="evenodd" d="M764.36 314.05c0 11.791-9.558 21.349-21.349 21.349s-21.349-9.558-21.349-21.349c0-11.79 9.558-21.348 21.349-21.348s21.349 9.558 21.349 21.348zm-12.2 0a9.15 9.15 0 1 1-18.3 0 9.15 9.15 0 0 1 18.3 0zm-54.896 12.2c0 11.79-9.558 21.348-21.349 21.348s-21.349-9.558-21.349-21.348c0-11.791 9.558-21.349 21.349-21.349s21.349 9.558 21.349 21.349zm-12.2 0a9.149 9.149 0 0 1-9.149 9.149 9.15 9.15 0 1 1 9.149-9.149zm-440.045-54.948c0-11.417-10.339-20.046-21.572-18.004l-42.697 7.763a18.3 18.3 0 0 0-15.026 18.004v84.363h12.199v-58.955l54.897-9.982v56.738h12.199v-79.927zm-19.39-6.002c3.745-.68 7.191 2.196 7.191 6.002v10.79l-54.897 9.981v-13.008a6.1 6.1 0 0 1 5.009-6.001l42.697-7.764z" fill="#009688"/><path fill-rule="evenodd" clip-rule="evenodd" d="M245.019 351.229c0 11.791-9.558 21.349-21.348 21.349-11.791 0-21.349-9.558-21.349-21.349 0-11.79 9.558-21.349 21.349-21.349 11.79 0 21.348 9.559 21.348 21.349zm-12.199 0a9.15 9.15 0 1 1-18.3 0 9.15 9.15 0 0 1 18.3 0zm-54.897 12.199c0 11.791-9.558 21.349-21.348 21.349-11.791 0-21.349-9.558-21.349-21.349 0-11.79 9.558-21.348 21.349-21.348 11.79 0 21.348 9.558 21.348 21.348zm-12.199 0a9.15 9.15 0 1 1-18.3 0 9.15 9.15 0 0 1 18.3 0zm538.22-293.124c0-11.417-10.34-20.046-21.572-18.004l-42.698 7.764a18.298 18.298 0 0 0-15.025 18.003v84.364h12.199v-58.956l54.897-9.981v56.737h12.199V70.304zm-19.39-6.001c3.744-.68 7.191 2.196 7.191 6.001v10.79l-54.897 9.982V78.067a6.1 6.1 0 0 1 5.009-6l42.697-7.764z" fill="#009688"/><path fill-rule="evenodd" clip-rule="evenodd" d="M703.944 150.232c0 11.79-9.558 21.348-21.349 21.348-11.79 0-21.348-9.558-21.348-21.348 0-11.791 9.558-21.349 21.348-21.349 11.791 0 21.349 9.558 21.349 21.349zm-12.199 0a9.149 9.149 0 0 1-9.15 9.149 9.149 9.149 0 0 1-9.149-9.149 9.149 9.149 0 0 1 9.149-9.15 9.15 9.15 0 0 1 9.15 9.15zm-54.897 12.199c0 11.79-9.558 21.349-21.349 21.349-11.79 0-21.348-9.559-21.348-21.349 0-11.791 9.558-21.349 21.348-21.349 11.791 0 21.349 9.558 21.349 21.349zm-12.199 0a9.149 9.149 0 0 1-9.15 9.149 9.15 9.15 0 1 1 9.15-9.149z" fill="#009688"/><path fill="#009688" d="M333.9 204.2h262.575v209.13H333.9z"/><path fill-rule="evenodd" clip-rule="evenodd" d="M464.606 210.96c-35.714 0-66.286 2.552-89.484 5.452-18.75 2.344-33.002 16.377-35.644 35.141-2.575 18.29-4.628 39.483-4.628 60.329 0 20.845 2.053 42.038 4.628 60.328 2.642 18.765 16.894 32.797 35.644 35.141 23.198 2.9 53.77 5.452 89.484 5.452 35.714 0 66.285-2.552 89.484-5.452 18.749-2.344 33.001-16.376 35.643-35.141 2.576-18.29 4.629-39.483 4.629-60.328 0-20.846-2.053-42.039-4.629-60.329-2.642-18.764-16.894-32.797-35.643-35.141-23.199-2.9-53.77-5.452-89.484-5.452zm-93.06-23.16c-31.7 3.963-56.166 28.097-60.621 59.732-2.694 19.134-4.91 41.742-4.91 64.35 0 22.608 2.216 45.216 4.91 64.349 4.455 31.635 28.921 55.77 60.621 59.732 24.211 3.026 55.987 5.674 93.06 5.674 37.072 0 68.849-2.648 93.06-5.674 31.7-3.962 56.166-28.097 60.62-59.732 2.695-19.133 4.91-41.741 4.91-64.349 0-22.608-2.215-45.216-4.91-64.35-4.454-31.635-28.92-55.769-60.62-59.732-24.211-3.026-55.988-5.674-93.06-5.674-37.073 0-68.849 2.648-93.06 5.674z" fill="#009688"/><path d="m447.08 260.902 64.464 40.29c7.901 4.938 7.901 16.444 0 21.382l-64.464 40.29c-8.397 5.248-19.289-.789-19.289-10.691v-80.58c0-9.903 10.892-15.94 19.289-10.691z" fill="#fff"/><defs><linearGradient id="a" x1="464.662" y1="781.734" x2="455.218" y2="-437.024" gradientUnits="userSpaceOnUse"><stop stop-color="#fff"/><stop offset="1" stop-color="#EEE"/></linearGradient><linearGradient id="b" x1="772.516" y1="358.862" x2="856.992" y2="292.041" gradientUnits="userSpaceOnUse"><stop stop-color="#fff"/><stop offset="1" stop-color="#EEE"/></linearGradient><linearGradient id="c" x1="152.853" y1="366.615" x2="32.515" y2="254.805" gradientUnits="userSpaceOnUse"><stop stop-color="#fff"/><stop offset="1" stop-color="#EEE"/></linearGradient></defs></svg>