<svg width="900" height="600" viewBox="0 0 900 600" fill="none" xmlns="http://www.w3.org/2000/svg"><path fill="transparent" d="M0 0h900v600H0z"/><path d="M199.674 335.211c16.211 9.716 39.469.734 39.469.734s-3.041-24.731-19.262-34.436c-16.211-9.716-39.459-.745-39.459-.745s3.041 24.731 19.252 34.447z" fill="url(#a)"/><circle r="11.256" transform="matrix(-1 0 0 1 266.88 480.503)" fill="#009688"/><circle r="7.536" transform="matrix(-1 0 0 1 657.148 113.477)" fill="#009688"/><circle r="13.995" transform="matrix(-1 0 0 1 143.83 486.705)" fill="#E1E4E5"/><circle r="13.389" transform="matrix(-1 0 0 1 727.495 92.69)" fill="#E1E4E5"/><circle r="13.389" transform="matrix(-1 0 0 1 628.797 283.397)" fill="#E1E4E5"/><circle r="13.389" transform="matrix(-1 0 0 1 523.174 472.01)" fill="#E1E4E5"/><circle r="10.634" transform="scale(1 -1) rotate(-75 -36.67 -258.376)" fill="#E1E4E5"/><circle r="14.147" transform="matrix(-1 0 0 1 321.659 279.921)" fill="#E1E4E5"/><circle r="22.131" transform="scale(1 -1) rotate(-75 258.362 -425.411)" fill="#E1E4E5"/><path d="M291.975 150.807h.224c1.328 18.592 15.314 18.878 15.314 18.878s-15.423.298-15.423 21.781c0-21.483-15.422-21.781-15.422-21.781s13.98-.286 15.307-18.878zM276.9 532.21h.149c.881 12.968 10.168 13.168 10.168 13.168s-10.241.207-10.241 15.191c0-14.984-10.241-15.191-10.241-15.191s9.283-.2 10.165-13.168z" fill="#E1E4E5"/><path d="M260.544 425.608h46.268v46.267h46.267v-46.267h46.268v46.267h23.133c12.777 0 23.134 10.358 23.134 23.134 0 12.777-10.357 23.134-23.134 23.134H237.41c-12.776 0-23.133-10.357-23.133-23.134 0-12.776 10.357-23.134 23.133-23.134h23.134v-46.267zM130.043 93.969h393.573v292.979H130.043z" fill="#009688"/><circle cx="219.949" cy="185.133" r="55.955" fill="#fff"/><rect x="301.053" y="160.613" width="188.613" height="16.346" rx="8.173" fill="#fff"/><rect x="163.994" y="275.039" width="325.672" height="16.346" rx="8.173" fill="#fff"/><rect x="301.053" y="205.88" width="188.613" height="17.604" rx="8.802" fill="#fff"/><rect x="163.994" y="320.306" width="325.672" height="16.346" rx="8.173" fill="#fff"/><path fill-rule="evenodd" clip-rule="evenodd" d="M144.875 148.003v185.07c0 25.553 20.715 46.267 46.268 46.267h277.605c25.553 0 46.268-20.714 46.268-46.267v-185.07c0-25.553-20.715-46.268-46.268-46.268H191.143c-25.553 0-46.268 20.715-46.268 46.268zm-46.267 185.07c0 51.106 41.429 92.535 92.535 92.535h277.605c51.106 0 92.535-41.429 92.535-92.535v-185.07c0-51.106-41.429-92.535-92.535-92.535H191.143c-51.106 0-92.535 41.43-92.535 92.535v185.07z" fill="#009688"/><path d="m741.89 400.039 44.526 24.934 3.116 10.687-5.788 12.912c-8.46 2.82-26.982 8.371-33.394 8.015-6.412-.357-14.842 5.788-18.256 8.905-1.187 6.827-3.651 21.283-4.007 24.489-.356 3.206-6.679 19.443-9.796 27.161h-21.817l-8.015-17.811-38.737-92.168-8.46-32.949 5.788-8.905 28.497 12.467 66.343 22.263z" fill="#009688"/><path fill-rule="evenodd" clip-rule="evenodd" d="M659.92 357.277c-18.226-7.594-36.51 10.69-28.916 28.916l52.393 125.742c10.246 24.592 46.287 20.435 50.667-5.843l6.536-39.219 39.219-6.536c26.278-4.38 30.434-40.421 5.843-50.667L659.92 357.277zm-12.587 22.112c-1.519-3.645 2.138-7.302 5.783-5.783l125.743 52.393c8.197 3.415 6.811 15.429-1.948 16.889l-39.219 6.536a17.69 17.69 0 0 0-14.541 14.541l-6.536 39.219c-1.46 8.759-13.474 10.145-16.889 1.948l-52.393-125.743z" fill="#009688"/><defs><linearGradient id="a" x1="262.407" y1="366.486" x2="131.966" y2="245.29" gradientUnits="userSpaceOnUse"><stop stop-color="#fff"/><stop offset="1" stop-color="#EEE"/></linearGradient></defs></svg>