<svg width="900" height="600" viewBox="0 0 900 600" fill="none" xmlns="http://www.w3.org/2000/svg"><g clip-path="url(#a)"><path fill="transparent" d="M0 0h900v600H0z"/><path fill-rule="evenodd" clip-rule="evenodd" d="M559.241 41.97h2.918a1.28 1.28 0 0 1 1.273 1.274v2.918c0 .706-.574 1.274-1.273 1.274h-2.918c-.7 0-1.274-.574-1.274-1.274v-2.918a1.27 1.27 0 0 1 1.274-1.273zm10.117 0h2.918a1.28 1.28 0 0 1 1.273 1.274v2.918c0 .706-.574 1.274-1.273 1.274h-2.918a1.28 1.28 0 0 1-1.28-1.274v-2.918c.006-.7.58-1.273 1.28-1.273z" fill="#E1E4E5"/><path d="M156.398 355.955c-4.197 77.347 147.022 234.623 333.411 176.41 86.687-27.077 79.344-72.017 145.261-131.247 39.29-35.301 95.743-61.995 111.444-113.308 13.564-44.29 5.246-91.896-18.269-122.861-52.886-69.638-159.652-117.323-264.851-7.603-105.198 109.72-296.148-.874-306.996 198.609z" fill="url(#b)"/><path fill-rule="evenodd" clip-rule="evenodd" d="M465.743 507.094c107.727 0 195.058-87.071 195.058-194.477 0-107.407-87.331-194.478-195.058-194.478-107.728 0-195.058 87.071-195.058 194.478 0 107.406 87.33 194.477 195.058 194.477z" fill="#009688"/><path d="m473.789 393.772 40.718-81.274h-97.529l40.718-81.274" stroke="#fff" stroke-width="27.865" stroke-linecap="round" stroke-linejoin="round"/><circle r="10.45" transform="matrix(1 0 0 -1 197.538 368.928)" fill="#009688"/><circle r="14.632" transform="scale(-1 1) rotate(30 -793.511 -1220.721)" fill="#009688"/><circle cx="215.534" cy="241.792" r="11.03" transform="rotate(-180 215.534 241.792)" fill="#E1E4E5"/><circle r="14.213" transform="scale(-1 1) rotate(30 -396.126 -864.174)" fill="#E1E4E5"/><circle cx="307.258" cy="115.698" r="14.513" fill="#009688"/><circle cx="612.448" cy="517.492" r="15.178" transform="rotate(-150 612.448 517.492)" fill="#009688"/><circle r="11.03" transform="matrix(-1 0 0 1 229.467 478.648)" fill="#E1E4E5"/><circle r="8.266" transform="scale(1 -1) rotate(-30 -194.95 -1613.655)" fill="#E1E4E5"/><circle cx="725.696" cy="391.326" r="19.458" transform="rotate(-150 725.696 391.326)" fill="#E1E4E5"/><rect x="650.835" y="159.406" width="41.628" height="4.85" rx="2.425" transform="rotate(-45 650.835 159.406)" fill="#E1E4E5"/><rect x="666.795" y="159.52" width="15.457" height="4.85" rx="2.425" transform="rotate(-45 666.795 159.52)" fill="#E1E4E5"/><rect x="147.228" y="272.656" width="41.628" height="4.85" rx="2.425" transform="rotate(135 147.228 272.656)" fill="#E1E4E5"/><rect x="131.267" y="272.542" width="15.457" height="4.85" rx="2.425" transform="rotate(135 131.267 272.542)" fill="#E1E4E5"/><rect x="291.057" y="533.716" width="41.628" height="4.85" rx="2.425" transform="rotate(-45 291.057 533.716)" fill="#E1E4E5"/><rect x="307.017" y="533.83" width="15.457" height="4.85" rx="2.425" transform="rotate(-45 307.017 533.83)" fill="#E1E4E5"/><rect x="396.434" y="69.896" width="41.628" height="4.85" rx="2.425" transform="rotate(135 396.434 69.896)" fill="#E1E4E5"/><rect x="380.473" y="69.782" width="15.457" height="4.85" rx="2.425" transform="rotate(135 380.473 69.782)" fill="#E1E4E5"/><path fill-rule="evenodd" clip-rule="evenodd" d="M539.001 53.822h2.918c.706 0 1.274.574 1.274 1.273v2.918c0 .706-.574 1.274-1.274 1.274h-2.918a1.278 1.278 0 0 1-1.273-1.274v-2.918a1.27 1.27 0 0 1 1.273-1.273zm10.117 0h2.918c.7 0 1.274.574 1.274 1.273v2.918c0 .706-.574 1.274-1.274 1.274h-2.918a1.278 1.278 0 0 1-1.273-1.274v-2.918c0-.7.574-1.273 1.273-1.273zm10.123 0h2.918c.699 0 1.273.574 1.273 1.273v2.918c0 .706-.574 1.274-1.273 1.274h-2.918c-.7 0-1.274-.574-1.274-1.274v-2.918a1.27 1.27 0 0 1 1.274-1.273zm10.116 0h2.918c.7 0 1.274.574 1.274 1.273v2.918c0 .706-.574 1.274-1.274 1.274h-2.918a1.28 1.28 0 0 1-1.279-1.274v-2.918c.006-.7.58-1.273 1.279-1.273zm10.118 0h2.917c.706 0 1.28.574 1.28 1.273v2.918c0 .706-.574 1.274-1.28 1.274h-2.917c-.7 0-1.274-.574-1.274-1.274v-2.918c0-.7.574-1.273 1.274-1.273zm-29.986 11.031h2.918c.699 0 1.273.574 1.273 1.274v2.924c0 .7-.574 1.273-1.273 1.273h-2.918a1.275 1.275 0 0 1-1.274-1.273v-2.918a1.272 1.272 0 0 1 1.274-1.28zm10.116 0h2.918c.7 0 1.274.574 1.274 1.274v2.924c0 .7-.574 1.273-1.274 1.273h-2.918a1.278 1.278 0 0 1-1.273-1.273v-2.918a1.272 1.272 0 0 1 1.273-1.28zm10.118 0h2.917c.706 0 1.28.574 1.28 1.274v2.924c0 .7-.574 1.273-1.28 1.273h-2.917c-.7 0-1.274-.574-1.274-1.273v-2.918c0-.706.574-1.28 1.274-1.28zm125.298 391.864h-2.918a1.275 1.275 0 0 1-1.273-1.274v-2.918c0-.705.574-1.273 1.273-1.273h2.918c.7 0 1.274.574 1.274 1.273v2.918a1.27 1.27 0 0 1-1.274 1.274zm-10.117 0h-2.918a1.278 1.278 0 0 1-1.273-1.274v-2.918c0-.705.574-1.273 1.273-1.273h2.918c.7 0 1.274.574 1.274 1.273v2.918c0 .7-.574 1.274-1.274 1.274zm-10.123 0h-2.917c-.7 0-1.274-.574-1.274-1.274v-2.918c0-.705.574-1.273 1.274-1.273h2.917c.7 0 1.274.574 1.274 1.273v2.918a1.27 1.27 0 0 1-1.274 1.274zm-10.116 0h-2.918c-.7 0-1.274-.574-1.274-1.274v-2.918c0-.705.574-1.273 1.274-1.273h2.918a1.28 1.28 0 0 1 1.279 1.273v2.918c-.006.7-.58 1.274-1.279 1.274zm-10.117 0h-2.918a1.28 1.28 0 0 1-1.279-1.274v-2.918c0-.705.574-1.273 1.279-1.273h2.918c.7 0 1.274.574 1.274 1.273v2.918c0 .7-.574 1.274-1.274 1.274zm29.985-11.032h-2.917c-.7 0-1.274-.574-1.274-1.273v-2.924c0-.7.574-1.274 1.274-1.274h2.917c.706 0 1.274.574 1.274 1.274v2.918a1.272 1.272 0 0 1-1.274 1.279zm-10.116 0h-2.918c-.7 0-1.274-.574-1.274-1.273v-2.924c0-.7.574-1.274 1.274-1.274h2.918c.699 0 1.273.574 1.273 1.274v2.918a1.272 1.272 0 0 1-1.273 1.279zm-10.117 0h-2.918a1.28 1.28 0 0 1-1.279-1.273v-2.924c0-.7.574-1.274 1.279-1.274h2.918c.699 0 1.273.574 1.273 1.274v2.918a1.28 1.28 0 0 1-1.273 1.279zm10.481 22.882h-2.917c-.7 0-1.274-.574-1.274-1.273v-2.918c0-.706.574-1.274 1.274-1.274h2.917c.7 0 1.274.574 1.274 1.274v2.918a1.27 1.27 0 0 1-1.274 1.273zm-10.116 0h-2.918c-.7 0-1.274-.574-1.274-1.273v-2.918c0-.706.574-1.274 1.274-1.274h2.918a1.28 1.28 0 0 1 1.279 1.274v2.918a1.287 1.287 0 0 1-1.279 1.273zM231.321 174.572h2.918c.705 0 1.273.574 1.273 1.273v2.918c0 .706-.574 1.274-1.273 1.274h-2.918c-.7 0-1.274-.574-1.274-1.274v-2.918a1.27 1.27 0 0 1 1.274-1.273zm10.117 0h2.917c.7 0 1.274.574 1.274 1.273v2.918c0 .706-.574 1.274-1.274 1.274h-2.917c-.7 0-1.274-.574-1.274-1.274v-2.918c0-.699.574-1.273 1.274-1.273zm10.122 0h2.918c.7 0 1.274.574 1.274 1.273v2.918c0 .706-.574 1.274-1.274 1.274h-2.918a1.278 1.278 0 0 1-1.273-1.274v-2.918a1.27 1.27 0 0 1 1.273-1.273zm10.117 0h2.918c.699 0 1.273.574 1.273 1.273v2.918c0 .706-.574 1.274-1.273 1.274h-2.918a1.28 1.28 0 0 1-1.28-1.274v-2.918a1.288 1.288 0 0 1 1.28-1.273zm10.117 0h2.918a1.28 1.28 0 0 1 1.279 1.273v2.918c0 .706-.574 1.274-1.279 1.274h-2.918c-.7 0-1.274-.574-1.274-1.274v-2.918c0-.699.574-1.273 1.274-1.273zm-29.986 11.031h2.918c.7 0 1.274.574 1.274 1.274v2.924c0 .699-.574 1.273-1.274 1.273h-2.918a1.274 1.274 0 0 1-1.273-1.273v-2.918a1.272 1.272 0 0 1 1.273-1.28zm10.117 0h2.918c.699 0 1.273.574 1.273 1.274v2.924c0 .699-.574 1.273-1.273 1.273h-2.918a1.278 1.278 0 0 1-1.273-1.273v-2.918a1.272 1.272 0 0 1 1.273-1.28zm10.117 0h2.918a1.28 1.28 0 0 1 1.279 1.274v2.924a1.28 1.28 0 0 1-1.279 1.273h-2.918c-.7 0-1.274-.574-1.274-1.273v-2.918c0-.706.574-1.28 1.274-1.28zm-10.482-22.882h2.918c.7 0 1.274.574 1.274 1.274v2.917c0 .706-.574 1.274-1.274 1.274h-2.918a1.278 1.278 0 0 1-1.273-1.274v-2.917a1.27 1.27 0 0 1 1.273-1.274zm10.117 0h2.918c.699 0 1.273.574 1.273 1.274v2.917c0 .706-.574 1.274-1.273 1.274h-2.918a1.28 1.28 0 0 1-1.28-1.274v-2.917c.006-.7.58-1.274 1.28-1.274z" fill="#E1E4E5"/></g><defs><linearGradient id="b" x1="337.138" y1="819.586" x2="620.002" y2="-456.601" gradientUnits="userSpaceOnUse"><stop stop-color="#fff"/><stop offset="1" stop-color="#EEE"/></linearGradient><clipPath id="a"><path fill="#fff" d="M0 0h900v600H0z"/></clipPath></defs></svg>