<svg width="900" height="600" viewBox="0 0 900 600" fill="none" xmlns="http://www.w3.org/2000/svg"><path fill="transparent" d="M0 0h900v600H0z"/><path d="m445.556 147.182-36.353 33.61-72.707 15.09-4.116 53.501-15.776 19.206-19.891 46.642c12.346 8.459 37.588 25.79 39.783 27.436 2.195 1.646-7.317 16.234-12.347 23.321v30.181c10.289 6.173 31.69 18.656 34.982 19.205 4.116.686 26.751-2.744 29.494-5.487 2.744-2.744 34.296 29.494 40.469 33.61 6.173 4.115 26.751 10.288 30.18 9.602 2.744-.548 15.776-14.404 21.95-21.263l31.552-12.346 52.815-9.603 5.487-55.559 24.693-42.527 2.744-24.693-38.411-49.386-8.231-52.129-70.649-11.66-35.668-26.751z" fill="#009688"/><path fill-rule="evenodd" clip-rule="evenodd" d="m476.499 188.496-13.344-17.599c-6.77-8.929-20.193-8.929-26.963 0l-13.344 17.599a35.53 35.53 0 0 1-33.152 13.731l-21.88-3.008c-11.101-1.526-20.592 7.965-19.066 19.066l3.009 21.88a35.529 35.529 0 0 1-13.732 33.151l-17.599 13.344c-8.928 6.771-8.928 20.194 0 26.964l17.599 13.344a35.53 35.53 0 0 1 13.732 33.151l-3.009 21.88c-1.526 11.101 7.965 20.593 19.066 19.066l21.88-3.008a35.531 35.531 0 0 1 33.152 13.732l13.344 17.598c6.77 8.929 20.193 8.929 26.963 0l13.344-17.598a35.531 35.531 0 0 1 33.152-13.732l21.879 3.008c11.101 1.527 20.593-7.965 19.067-19.066l-3.009-21.88a35.53 35.53 0 0 1 13.732-33.151l17.599-13.344c8.928-6.77 8.928-20.193 0-26.964l-17.599-13.344a35.529 35.529 0 0 1-13.732-33.151l3.009-21.88c1.526-11.101-7.966-20.592-19.067-19.066l-21.879 3.008a35.53 35.53 0 0 1-33.152-13.731zm13.62-38.044c-20.311-26.787-60.58-26.787-80.891 0l-13.344 17.598a1.689 1.689 0 0 1-1.579.654l-21.879-3.008c-33.303-4.579-61.778 23.895-57.199 57.198l3.009 21.88a1.694 1.694 0 0 1-.654 1.579l-17.599 13.344c-26.786 20.311-26.786 60.58 0 80.89l17.599 13.345c.487.369.737.973.654 1.578l-3.009 21.88c-4.579 33.303 23.896 61.777 57.199 57.198l21.879-3.008a1.693 1.693 0 0 1 1.579.654l13.344 17.598c20.311 26.787 60.58 26.787 80.891 0l13.344-17.598a1.692 1.692 0 0 1 1.578-.654l21.88 3.008c33.303 4.579 61.778-23.895 57.199-57.198l-3.009-21.88a1.692 1.692 0 0 1 .654-1.578l17.599-13.345c26.786-20.31 26.786-60.579 0-80.89l-17.599-13.344a1.694 1.694 0 0 1-.654-1.579l3.009-21.88c4.579-33.303-23.896-61.777-57.199-57.198l-21.88 3.008a1.688 1.688 0 0 1-1.578-.654l-13.344-17.598z" fill="#009688"/><path d="m507.853 272.354-85.968 85.968c-8.393 8.393-22.001 8.393-30.394 0-8.393-8.393-8.393-22.001 0-30.394l85.968-85.968c8.393-8.393 22.001-8.393 30.394 0 8.393 8.393 8.393 22.001 0 30.394zm-79.673-15.197c0 11.869-9.623 21.492-21.492 21.492-11.87 0-21.492-9.623-21.492-21.492 0-11.87 9.622-21.492 21.492-21.492 11.869 0 21.492 9.622 21.492 21.492zm42.984 85.968c0 11.869 9.622 21.492 21.492 21.492 11.869 0 21.492-9.623 21.492-21.492 0-11.87-9.623-21.492-21.492-21.492-11.87 0-21.492 9.622-21.492 21.492z" fill="#fff"/><circle r="101.515" transform="matrix(-1 0 0 1 171.519 181.119)" fill="#009688"/><path fill-rule="evenodd" clip-rule="evenodd" d="M206.525 216.636v4.995a5 5 0 0 1-5.001 4.995h-60.009a5 5 0 0 1-5.001-4.995v-5.075c0-15.115 17.293-24.935 35.005-24.935 17.713 0 35.006 9.825 35.006 24.935m-22.63-68.817c6.836 6.836 6.836 17.918 0 24.753-6.835 6.835-17.917 6.835-24.752 0-6.835-6.835-6.835-17.917 0-24.753 6.835-6.835 17.917-6.835 24.752 0z" fill="#fff"/><circle r="101.515" transform="matrix(-1 0 0 1 728.484 417.242)" fill="#009688"/><path fill-rule="evenodd" clip-rule="evenodd" d="M763.491 452.759v4.995a5 5 0 0 1-5.001 4.995h-60.009a5 5 0 0 1-5.001-4.995v-5.075c0-15.115 17.293-24.935 35.005-24.935 17.713 0 35.006 9.825 35.006 24.935m-22.63-68.817c6.835 6.835 6.835 17.917 0 24.753-6.835 6.835-17.917 6.835-24.752 0-6.835-6.836-6.835-17.918 0-24.753 6.835-6.835 17.917-6.835 24.752 0z" fill="#fff"/><circle r="101.515" transform="matrix(-1 0 0 1 728.481 181.119)" fill="#009688"/><path fill-rule="evenodd" clip-rule="evenodd" d="M715.762 211.296v-7.008h8.744l7.423-7.44 10.247 4.362a9.868 9.868 0 0 0 10.86-2.117l14.554-14.586a9.934 9.934 0 0 0 2.112-10.885l-7.428-17.526a9.894 9.894 0 0 0-5.237-5.248l-17.487-7.445a9.87 9.87 0 0 0-10.861 2.117l-14.554 14.586a9.929 9.929 0 0 0-2.107 10.884l4.238 10.007-29.791 29.858v15.771h15.737l6.557-6.572v-8.763h6.993v.005z" fill="#fff"/><path fill-rule="evenodd" clip-rule="evenodd" d="M740.706 164.789c-4.183.018-7.579 3.413-7.561 7.596 0 4.183 3.413 7.579 7.596 7.561a7.58 7.58 0 0 0 7.578-7.578 7.582 7.582 0 0 0-7.578-7.579M260.412 468.317c8.25-14.691 13.008-31.62 13.008-49.679 0-56.176-45.532-101.708-101.708-101.708-56.177 0-101.708 45.532-101.708 101.708 0 56.177 45.531 101.709 101.708 101.709 18.059 0 34.987-4.758 49.678-13.008l52.03 13.008-13.008-52.03z" fill="#009688"/><path fill-rule="evenodd" clip-rule="evenodd" d="M176.403 462.297h-8.686a4.342 4.342 0 1 0 0 8.686h8.686a4.343 4.343 0 0 0 0-8.686zm-8.686-8.686c-7.195 0-13.029 5.833-13.029 13.029 0 7.195 5.834 13.028 13.029 13.028h8.686c7.195 0 13.028-5.833 13.028-13.028 0-7.196-5.833-13.029-13.028-13.029h-8.686zm22.334-27.142h-35.983c-2.484 0-4.498 1.944-4.498 4.343 0 2.398 2.014 4.342 4.498 4.342h35.983c2.484 0 4.498-1.944 4.498-4.342 0-2.399-2.014-4.343-4.498-4.343zm-35.983-8.686c-7.452 0-13.494 5.833-13.494 13.029 0 7.195 6.042 13.028 13.494 13.028h35.983c7.453 0 13.494-5.833 13.494-13.028 0-7.196-6.041-13.029-13.494-13.029h-35.983zm49.151-26.78H140.9c-2.458 0-4.451 2.025-4.451 4.523 0 2.499 1.993 4.524 4.451 4.524h62.319c2.459 0 4.452-2.025 4.452-4.524 0-2.498-1.993-4.523-4.452-4.523zm-62.319-9.048c-7.375 0-13.354 6.076-13.354 13.571 0 7.496 5.979 13.572 13.354 13.572h62.319c7.376 0 13.355-6.076 13.355-13.572 0-7.495-5.979-13.571-13.355-13.571H140.9z" fill="#fff"/><path fill="#fff" d="M134.06 388.469h74.913v15.2H134.06zm14.114 35.828h48.857v15.2h-48.857zm13.029 34.743h20.628v15.2h-20.628z"/></svg>