<svg width="900" height="600" viewBox="0 0 900 600" fill="none" xmlns="http://www.w3.org/2000/svg"><path fill="transparent" d="M0 0h900v600H0z"/><path fill="#009688" d="M602.07 127.024h135.782v135.782H602.07z"/><path fill-rule="evenodd" clip-rule="evenodd" d="M669.721 127.735c-16.335 0-31.394 1.347-43.48 2.944-10.878 1.436-19.08 9.639-20.517 20.516-1.596 12.087-2.943 27.145-2.943 43.48 0 16.336 1.347 31.394 2.943 43.481 1.437 10.877 9.639 19.08 20.517 20.516 12.086 1.597 27.145 2.944 43.48 2.944 16.335 0 31.394-1.347 43.48-2.944 10.878-1.436 19.08-9.639 20.517-20.516 1.596-12.087 2.943-27.145 2.943-43.481 0-16.335-1.347-31.393-2.943-43.48-1.437-10.877-9.639-19.08-20.517-20.516-12.086-1.597-27.145-2.944-43.48-2.944zm-45.671-13.647c-18.382 2.427-32.489 16.534-34.917 34.916-1.669 12.637-3.087 28.445-3.087 45.671 0 17.227 1.418 33.035 3.087 45.672 2.428 18.382 16.535 32.489 34.917 34.916 12.637 1.669 28.445 3.088 45.671 3.088 17.227 0 33.034-1.419 45.672-3.088 18.381-2.427 32.488-16.534 34.916-34.916 1.669-12.637 3.088-28.445 3.088-45.672 0-17.226-1.419-33.034-3.088-45.671-2.428-18.382-16.535-32.489-34.916-34.916-12.638-1.669-28.445-3.088-45.672-3.088-17.226 0-33.034 1.419-45.671 3.088z" fill="#009688"/><path d="M644.62 186.308c9.242 0 16.735-7.493 16.735-16.735 0-9.243-7.493-16.735-16.735-16.735-9.243 0-16.736 7.492-16.736 16.735 0 9.242 7.493 16.735 16.736 16.735zm76.323 14.286 15.014 15.014a347.995 347.995 0 0 1-2.109 21.558l-24.739-24.739a8.366 8.366 0 0 0-11.833 0l-18.171 18.171c-9.803 9.803-25.697 9.803-35.501 0l-1.435-1.436a8.37 8.37 0 0 0-11.834 0l-20.158 20.158c-2.335-3.166-3.897-6.966-4.452-11.164-.302-2.29-.596-4.686-.873-7.178l13.65-13.649c9.803-9.803 25.697-9.803 35.5 0l1.436 1.435a8.366 8.366 0 0 0 11.833 0l18.171-18.17c9.803-9.804 25.697-9.803 35.501 0z" fill="#fff"/><path fill="#009688" d="M382.547 127.024h135.782v135.782H382.547z"/><path fill-rule="evenodd" clip-rule="evenodd" d="M450.198 127.735c-16.335 0-31.393 1.347-43.48 2.944-10.878 1.436-19.08 9.639-20.517 20.516-1.596 12.087-2.943 27.145-2.943 43.48 0 16.336 1.347 31.394 2.943 43.481 1.437 10.877 9.639 19.08 20.517 20.516 12.087 1.597 27.145 2.944 43.48 2.944 16.336 0 31.394-1.347 43.481-2.944 10.877-1.436 19.08-9.639 20.516-20.516 1.596-12.087 2.944-27.145 2.944-43.481 0-16.335-1.348-31.393-2.944-43.48-1.436-10.877-9.639-19.08-20.516-20.516-12.087-1.597-27.145-2.944-43.481-2.944zm-45.671-13.647c-18.382 2.427-32.489 16.534-34.917 34.916-1.669 12.637-3.087 28.445-3.087 45.671 0 17.227 1.418 33.035 3.087 45.672 2.428 18.382 16.535 32.489 34.917 34.916 12.637 1.669 28.445 3.088 45.671 3.088 17.227 0 33.035-1.419 45.672-3.088 18.381-2.427 32.488-16.534 34.916-34.916 1.669-12.637 3.088-28.445 3.088-45.672 0-17.226-1.419-33.034-3.088-45.671-2.428-18.382-16.535-32.489-34.916-34.916-12.637-1.669-28.445-3.088-45.672-3.088-17.226 0-33.034 1.419-45.671 3.088z" fill="#009688"/><path d="M425.097 186.308c9.242 0 16.735-7.493 16.735-16.735 0-9.243-7.493-16.735-16.735-16.735-9.243 0-16.735 7.492-16.735 16.735 0 9.242 7.492 16.735 16.735 16.735zm76.323 14.286 15.014 15.014a347.995 347.995 0 0 1-2.109 21.558l-24.739-24.739a8.366 8.366 0 0 0-11.833 0l-18.171 18.171c-9.803 9.803-25.697 9.803-35.5 0l-1.436-1.436a8.37 8.37 0 0 0-11.834 0l-20.158 20.158c-2.335-3.166-3.897-6.966-4.452-11.164-.302-2.29-.596-4.686-.873-7.178l13.65-13.649c9.803-9.803 25.697-9.803 35.5 0l1.436 1.435a8.368 8.368 0 0 0 11.834 0l18.17-18.17c9.803-9.804 25.698-9.803 35.501 0z" fill="#fff"/><path fill="#009688" d="M163.024 127.024h135.782v135.782H163.024z"/><path fill-rule="evenodd" clip-rule="evenodd" d="M230.675 127.735c-16.335 0-31.393 1.347-43.48 2.944-10.877 1.436-19.08 9.639-20.516 20.516-1.597 12.087-2.944 27.145-2.944 43.48 0 16.336 1.347 31.394 2.944 43.481 1.436 10.877 9.639 19.08 20.516 20.516 12.087 1.597 27.145 2.944 43.48 2.944 16.336 0 31.394-1.347 43.481-2.944 10.877-1.436 19.08-9.639 20.516-20.516 1.597-12.087 2.944-27.145 2.944-43.481 0-16.335-1.347-31.393-2.944-43.48-1.436-10.877-9.639-19.08-20.516-20.516-12.087-1.597-27.145-2.944-43.481-2.944zm-45.671-13.647c-18.382 2.427-32.489 16.534-34.916 34.916-1.669 12.637-3.088 28.445-3.088 45.671 0 17.227 1.419 33.035 3.088 45.672 2.427 18.382 16.534 32.489 34.916 34.916 12.637 1.669 28.445 3.088 45.671 3.088 17.227 0 33.035-1.419 45.672-3.088 18.382-2.427 32.489-16.534 34.916-34.916 1.669-12.637 3.088-28.445 3.088-45.672 0-17.226-1.419-33.034-3.088-45.671-2.427-18.382-16.534-32.489-34.916-34.916-12.637-1.669-28.445-3.088-45.672-3.088-17.226 0-33.034 1.419-45.671 3.088z" fill="#009688"/><path d="M205.574 186.308c9.242 0 16.735-7.493 16.735-16.735 0-9.243-7.493-16.735-16.735-16.735-9.243 0-16.735 7.492-16.735 16.735 0 9.242 7.492 16.735 16.735 16.735zm76.323 14.286 15.014 15.014a347.995 347.995 0 0 1-2.109 21.558l-24.739-24.739a8.366 8.366 0 0 0-11.833 0l-18.171 18.171c-9.803 9.803-25.697 9.803-35.5 0l-1.436-1.436a8.368 8.368 0 0 0-11.833 0l-20.158 20.158c-2.336-3.166-3.898-6.966-4.453-11.164-.302-2.29-.595-4.686-.872-7.178l13.649-13.649c9.803-9.803 25.697-9.803 35.501 0l1.435 1.435a8.368 8.368 0 0 0 11.834 0l18.17-18.17c9.804-9.804 25.698-9.803 35.501 0z" fill="#fff"/><path fill="#009688" d="M602.07 338.024h135.782v135.782H602.07z"/><path fill-rule="evenodd" clip-rule="evenodd" d="M669.721 338.735c-16.335 0-31.394 1.347-43.48 2.944-10.878 1.436-19.08 9.639-20.517 20.516-1.596 12.087-2.943 27.145-2.943 43.48 0 16.336 1.347 31.394 2.943 43.481 1.437 10.877 9.639 19.08 20.517 20.516 12.086 1.597 27.145 2.944 43.48 2.944 16.335 0 31.394-1.347 43.48-2.944 10.878-1.436 19.08-9.639 20.517-20.516 1.596-12.087 2.943-27.145 2.943-43.481 0-16.335-1.347-31.393-2.943-43.48-1.437-10.877-9.639-19.08-20.517-20.516-12.086-1.597-27.145-2.944-43.48-2.944zm-45.671-13.647c-18.382 2.427-32.489 16.534-34.917 34.916-1.669 12.637-3.087 28.445-3.087 45.671 0 17.227 1.418 33.035 3.087 45.672 2.428 18.382 16.535 32.489 34.917 34.916 12.637 1.669 28.445 3.088 45.671 3.088 17.227 0 33.034-1.419 45.672-3.088 18.381-2.427 32.488-16.534 34.916-34.916 1.669-12.637 3.088-28.445 3.088-45.672 0-17.226-1.419-33.034-3.088-45.671-2.428-18.382-16.535-32.489-34.916-34.916-12.638-1.669-28.445-3.088-45.672-3.088-17.226 0-33.034 1.419-45.671 3.088z" fill="#009688"/><path d="M644.62 397.308c9.242 0 16.735-7.493 16.735-16.735 0-9.243-7.493-16.735-16.735-16.735-9.243 0-16.736 7.492-16.736 16.735 0 9.242 7.493 16.735 16.736 16.735zm76.323 14.286 15.014 15.014a347.995 347.995 0 0 1-2.109 21.558l-24.739-24.739a8.366 8.366 0 0 0-11.833 0l-18.171 18.171c-9.803 9.803-25.697 9.803-35.501 0l-1.435-1.436a8.37 8.37 0 0 0-11.834 0l-20.158 20.158c-2.335-3.166-3.897-6.966-4.452-11.164-.302-2.29-.596-4.686-.873-7.178l13.65-13.649c9.803-9.803 25.697-9.803 35.5 0l1.436 1.435a8.366 8.366 0 0 0 11.833 0l18.171-18.17c9.803-9.804 25.697-9.803 35.501 0z" fill="#fff"/><path fill="#009688" d="M382.547 338.024h135.782v135.782H382.547z"/><path fill-rule="evenodd" clip-rule="evenodd" d="M450.198 338.735c-16.335 0-31.393 1.347-43.48 2.944-10.878 1.436-19.08 9.639-20.517 20.516-1.596 12.087-2.943 27.145-2.943 43.48 0 16.336 1.347 31.394 2.943 43.481 1.437 10.877 9.639 19.08 20.517 20.516 12.087 1.597 27.145 2.944 43.48 2.944 16.336 0 31.394-1.347 43.481-2.944 10.877-1.436 19.08-9.639 20.516-20.516 1.596-12.087 2.944-27.145 2.944-43.481 0-16.335-1.348-31.393-2.944-43.48-1.436-10.877-9.639-19.08-20.516-20.516-12.087-1.597-27.145-2.944-43.481-2.944zm-45.671-13.647c-18.382 2.427-32.489 16.534-34.917 34.916-1.669 12.637-3.087 28.445-3.087 45.671 0 17.227 1.418 33.035 3.087 45.672 2.428 18.382 16.535 32.489 34.917 34.916 12.637 1.669 28.445 3.088 45.671 3.088 17.227 0 33.035-1.419 45.672-3.088 18.381-2.427 32.488-16.534 34.916-34.916 1.669-12.637 3.088-28.445 3.088-45.672 0-17.226-1.419-33.034-3.088-45.671-2.428-18.382-16.535-32.489-34.916-34.916-12.637-1.669-28.445-3.088-45.672-3.088-17.226 0-33.034 1.419-45.671 3.088z" fill="#009688"/><path d="M425.097 397.308c9.242 0 16.735-7.493 16.735-16.735 0-9.243-7.493-16.735-16.735-16.735-9.243 0-16.735 7.492-16.735 16.735 0 9.242 7.492 16.735 16.735 16.735zm76.323 14.286 15.014 15.014a347.995 347.995 0 0 1-2.109 21.558l-24.739-24.739a8.366 8.366 0 0 0-11.833 0l-18.171 18.171c-9.803 9.803-25.697 9.803-35.5 0l-1.436-1.436a8.37 8.37 0 0 0-11.834 0l-20.158 20.158c-2.335-3.166-3.897-6.966-4.452-11.164-.302-2.29-.596-4.686-.873-7.178l13.65-13.649c9.803-9.803 25.697-9.803 35.5 0l1.436 1.435a8.368 8.368 0 0 0 11.834 0l18.17-18.17c9.803-9.804 25.698-9.803 35.501 0z" fill="#fff"/><path fill="#009688" d="M163.024 338.024h135.782v135.782H163.024z"/><path fill-rule="evenodd" clip-rule="evenodd" d="M230.675 338.735c-16.335 0-31.393 1.347-43.48 2.944-10.877 1.436-19.08 9.639-20.516 20.516-1.597 12.087-2.944 27.145-2.944 43.48 0 16.336 1.347 31.394 2.944 43.481 1.436 10.877 9.639 19.08 20.516 20.516 12.087 1.597 27.145 2.944 43.48 2.944 16.336 0 31.394-1.347 43.481-2.944 10.877-1.436 19.08-9.639 20.516-20.516 1.597-12.087 2.944-27.145 2.944-43.481 0-16.335-1.347-31.393-2.944-43.48-1.436-10.877-9.639-19.08-20.516-20.516-12.087-1.597-27.145-2.944-43.481-2.944zm-45.671-13.647c-18.382 2.427-32.489 16.534-34.916 34.916-1.669 12.637-3.088 28.445-3.088 45.671 0 17.227 1.419 33.035 3.088 45.672 2.427 18.382 16.534 32.489 34.916 34.916 12.637 1.669 28.445 3.088 45.671 3.088 17.227 0 33.035-1.419 45.672-3.088 18.382-2.427 32.489-16.534 34.916-34.916 1.669-12.637 3.088-28.445 3.088-45.672 0-17.226-1.419-33.034-3.088-45.671-2.427-18.382-16.534-32.489-34.916-34.916-12.637-1.669-28.445-3.088-45.672-3.088-17.226 0-33.034 1.419-45.671 3.088z" fill="#009688"/><path d="M205.574 397.308c9.242 0 16.735-7.493 16.735-16.735 0-9.243-7.493-16.735-16.735-16.735-9.243 0-16.735 7.492-16.735 16.735 0 9.242 7.492 16.735 16.735 16.735zm76.323 14.286 15.014 15.014a347.995 347.995 0 0 1-2.109 21.558l-24.739-24.739a8.366 8.366 0 0 0-11.833 0l-18.171 18.171c-9.803 9.803-25.697 9.803-35.5 0l-1.436-1.436a8.368 8.368 0 0 0-11.833 0l-20.158 20.158c-2.336-3.166-3.898-6.966-4.453-11.164-.302-2.29-.595-4.686-.872-7.178l13.649-13.649c9.803-9.803 25.697-9.803 35.501 0l1.435 1.435a8.368 8.368 0 0 0 11.834 0l18.17-18.17c9.804-9.804 25.698-9.803 35.501 0z" fill="#fff"/></svg>