<svg width="900" height="600" viewBox="0 0 900 600" fill="none" xmlns="http://www.w3.org/2000/svg"><path fill="transparent" d="M0 0h900v600H0z"/><path d="M664.171 181.553c-17.378-56.719-167.577-129.924-286.239-38.921-55.188 42.328-38.058 72.704-69.834 132.671-18.941 35.742-52.491 69.821-50.25 110.855 1.927 35.422 20.461 67.457 45.534 83.52 56.387 36.123 145.726 42.255 192.431-64.373 46.705-106.628 213.16-77.463 168.358-223.752z" fill="url(#a)"/><path d="M748.101 325.924c-18.602-17.544-45.638-12.277-86.215 4.891-30.514 12.918-58.473 24.276-84.565 51.306-18.264 18.911-30.609 40.617-38.39 60.38-8.433 21.411-21.568 46.947-6.056 63.36 21.314 22.543 103.339 21.436 164.668-38.055 67.366-65.362 68.749-124.738 50.558-141.882z" fill="url(#b)"/><path d="M297.052 184.309c-20.628 55.003-41.275 113.12-79.041 149.14-38.952 37.165-51.486 24.05-61.192.462-9.707-23.589-11.14-85.256 42.311-134.883 53.464-49.642 117.22-66.196 97.922-14.719z" fill="url(#c)"/><path d="M372.728 76.728c-13.507 13.913-9.992 39.25-9.992 39.25s25.415 2.763 38.914-11.162c13.507-13.913 10-39.238 10-39.238s-25.415-2.763-38.922 11.15z" fill="url(#d)"/><path d="M282.909 320.402v79.34l-71.696 85.365h301.155c91.028 0 164.865-73.765 164.865-164.705 0-90.939-73.837-164.704-164.865-164.704h-64.594c-91.084 0-164.865 73.765-164.865 164.704z" fill="#009688"/><rect x="686.567" y="160.095" width="25.778" height="3.003" rx="1.502" transform="rotate(135 686.567 160.095)" fill="#E1E4E5"/><rect x="676.683" y="160.025" width="9.572" height="3.003" rx="1.502" transform="rotate(135 676.683 160.025)" fill="#E1E4E5"/><path fill-rule="evenodd" clip-rule="evenodd" d="M534.272 227.308c41.391 0 69.147 38.577 69.147 74.499 0 72.919-115.233 132.621-117.331 132.621-2.099 0-117.332-59.702-117.332-132.621 0-35.922 27.756-74.499 69.148-74.499 23.661 0 39.201 11.716 48.184 22.149 8.982-10.433 24.522-22.149 48.184-22.149z" fill="#fff"/><path fill-rule="evenodd" clip-rule="evenodd" d="M181.872 282.734c-4.859 0-8.116 4.514-8.116 8.718 0 8.533 13.525 15.519 13.771 15.519.246 0 13.771-6.986 13.771-15.519 0-4.204-3.257-8.718-8.116-8.718-2.777 0-4.601 1.371-5.655 2.592-1.054-1.221-2.878-2.592-5.655-2.592zm436.156-176.272c-8.745 0-14.609 7.592-14.609 14.662 0 14.351 24.345 26.101 24.788 26.101.444 0 24.789-11.75 24.789-26.101 0-7.07-5.864-14.662-14.609-14.662-4.999 0-8.282 2.305-10.18 4.359-1.897-2.054-5.18-4.359-10.179-4.359z" fill="#E1E4E5"/><rect x="629.99" y="464.868" width="41.075" height="4.785" rx="2.393" transform="rotate(-45 629.99 464.868)" fill="#E1E4E5"/><rect x="645.739" y="464.98" width="15.251" height="4.785" rx="2.393" transform="rotate(-45 645.739 464.98)" fill="#E1E4E5"/><rect x="264.804" y="207.607" width="27.412" height="3.194" rx="1.597" transform="rotate(135 264.804 207.607)" fill="#E1E4E5"/><rect x="254.294" y="207.533" width="10.178" height="3.194" rx="1.597" transform="rotate(135 254.294 207.533)" fill="#E1E4E5"/><rect x="217.74" y="438.577" width="45.091" height="5.253" rx="2.627" transform="rotate(135 217.74 438.577)" fill="#E1E4E5"/><rect x="200.451" y="438.455" width="16.742" height="5.253" rx="2.627" transform="rotate(135 200.451 438.455)" fill="#E1E4E5"/><rect x="498.078" y="79.777" width="41.075" height="4.785" rx="2.393" transform="rotate(135 498.078 79.777)" fill="#E1E4E5"/><rect x="482.329" y="79.665" width="15.251" height="4.785" rx="2.393" transform="rotate(135 482.329 79.665)" fill="#E1E4E5"/><circle cx="704.599" cy="386.769" r="12.004" transform="rotate(-150 704.599 386.769)" fill="#E1E4E5"/><path d="M721.014 282.944c0 5.562-4.742 10.18-10.73 10.18-5.987 0-10.73-4.618-10.73-10.18 0-5.561 4.743-10.179 10.73-10.179 5.988 0 10.73 4.618 10.73 10.179z" stroke="#E1E4E5" stroke-width="2.777"/><path clip-rule="evenodd" d="m224.268 365.556-7.716 13.364-13.363-7.716 7.715-13.364 13.364 7.716z" stroke="#E1E4E5" stroke-width="5.604" stroke-linecap="round" stroke-linejoin="round"/><path d="M220.073 288.559c-37.239-75.836 33.977-160.567 103.676-158.524" stroke="#E1E4E5" stroke-width="2.014" stroke-miterlimit="10" stroke-dasharray="8.37 8.37"/><path d="M332.061 136.565c2.302 2.457 6.157 2.595 8.614.293a6.091 6.091 0 0 0 .292-8.614c-2.302-2.457-6.157-2.594-8.613-.292a6.082 6.082 0 0 0-.293 8.613zm370.477 93.226c-5.433 7.909-1.614 19.977-1.614 19.977s12.628-.763 18.056-8.677c5.434-7.909 1.62-19.972 1.62-19.972s-12.628.763-18.062 8.672z" fill="#E1E4E5"/><defs><linearGradient id="a" x1="411.964" y1="-104.137" x2="545.106" y2="888.028" gradientUnits="userSpaceOnUse"><stop stop-color="#fff"/><stop offset="1" stop-color="#EEE"/></linearGradient><linearGradient id="b" x1="624.497" y1="213.178" x2="668.002" y2="724.183" gradientUnits="userSpaceOnUse"><stop stop-color="#fff"/><stop offset="1" stop-color="#EEE"/></linearGradient><linearGradient id="c" x1="219.603" y1="42.642" x2="245.49" y2="572.293" gradientUnits="userSpaceOnUse"><stop stop-color="#fff"/><stop offset="1" stop-color="#EEE"/></linearGradient><linearGradient id="d" x1="326.775" y1="132.05" x2="478.424" y2="30.192" gradientUnits="userSpaceOnUse"><stop stop-color="#fff"/><stop offset="1" stop-color="#EEE"/></linearGradient></defs></svg>