<svg width="900" height="600" viewBox="0 0 900 600" fill="none" xmlns="http://www.w3.org/2000/svg"><path fill="transparent" d="M0 0h900v600H0z"/><path d="M680.455 206.603c4.889-8.718 3.585-24.527-7.642-42.576-11.207-18.016-32.253-38.165-66.603-55.458-31.229-15.717-62.919-18.768-88.183-15.04-12.632 1.863-23.647 5.42-32.187 9.924-8.552 4.511-14.575 9.946-17.301 15.539-3.957 8.123-1.928 16.299 2.644 24.349 3.59 6.32 8.701 12.486 13.613 18.411a476.55 476.55 0 0 1 3.991 4.856l-.391.308.391-.308c10.916 13.527 25.87 27.451 44.754 37.74 26.223 14.297 50.193 16.609 76.394 19.137l2.262.218c17.993 1.74 32.546 1.973 43.867-.493 11.296-2.46 19.344-7.6 24.391-16.607z" stroke="url(#a)" stroke-width="1.002"/><path d="M810.892 277.665c-24.969 12.385-58.108-3.54-58.108-3.54s7.365-36 32.347-48.368c24.968-12.386 58.094 3.522 58.094 3.522s-7.365 36-32.333 48.386z" fill="url(#b)"/><path d="M101.669 368.184c32.624 19.553 79.429 1.478 79.429 1.478s-6.12-49.769-38.764-69.299c-32.623-19.553-79.408-1.5-79.408-1.5s6.12 49.769 38.743 69.321z" fill="url(#c)"/><circle cx="761.764" cy="194.67" r="13.633" transform="rotate(180 761.764 194.67)" fill="#009688"/><circle cx="248.281" cy="271.893" r="15.337" transform="rotate(180 248.281 271.893)" fill="#009688"/><circle r="12.781" transform="matrix(-1 0 0 1 145.53 181.745)" fill="#009688"/><circle r="5.965" transform="matrix(-1 0 0 1 644.843 248.207)" fill="#009688"/><circle r="7.669" transform="matrix(-1 0 0 1 679.265 514.349)" fill="#E1E4E5"/><circle r="11.077" transform="matrix(-1 0 0 1 143.244 434.722)" fill="#E1E4E5"/><circle r="8.431" transform="matrix(-1 0 0 1 271.343 151.696)" fill="#E1E4E5"/><circle r="9.373" transform="matrix(-1 0 0 1 680.644 153.26)" fill="#E1E4E5"/><circle r="8.417" transform="scale(1 -1) rotate(-75 -84.862 -239.69)" fill="#E1E4E5"/><circle r="11.197" transform="matrix(-1 0 0 1 382.351 80.97)" fill="#E1E4E5"/><ellipse rx="8.613" ry="6.89" transform="matrix(-1 0 0 1 739.424 367.18)" fill="#E1E4E5"/><circle r="17.517" transform="scale(1 -1) rotate(-75 236.06 -416.188)" fill="#E1E4E5"/><path d="M804.741 319.592h.225c1.334 18.904 15.394 19.195 15.394 19.195s-15.504.303-15.504 22.147c0-21.844-15.503-22.147-15.503-22.147s14.054-.291 15.388-19.195zM238.439 503.379h.2c1.184 17.11 13.659 17.373 13.659 17.373s-13.756.274-13.756 20.044c0-19.77-13.757-20.044-13.757-20.044s12.47-.263 13.654-17.373z" fill="#E1E4E5"/><path d="m213.454 216.935 25.754-84.623 30.048-22.075 141.651 7.972 60.707 65h131.84c4.415 0 48.443 8.176 69.905 12.264l22.076 88.915-14.104 94.434-7.972 67.453-34.952 38.632-166.793 9.811c-51.305-1.022-157.471-2.453-171.698 0-14.226 2.453-56.211-31.274-75.424-48.443-1.227-27.799-5.151-84.5-11.038-88.916-5.887-4.415-2.453-95.456 0-140.424z" fill="#009688"/><path d="M396.725 360.293c24.79 24.789 64.921 24.789 89.711 0 24.789-24.789 24.789-64.921 0-89.71-24.79-24.79-64.921-24.79-89.711 0-24.764 24.789-24.764 64.97 0 89.71m129.427 39.734-39.713-39.737" stroke="#fff" stroke-width="36.999" stroke-linecap="round" stroke-linejoin="round"/><path fill-rule="evenodd" clip-rule="evenodd" d="m447.023 205.173-27.707-46.179c-7.031-11.718-17.652-18.418-28.27-19.772-20.453-2.607-45.953-4.959-70.894-4.959-17.332 0-35.015 1.137-51.181 2.729-14.882 1.465-25.867 12.52-27.053 27.981-2.374 30.948-4.493 75.244-4.493 134.745 0 41.897 1.526 79.219 3.464 109.711 1.809 28.463 23.393 49.947 52.076 51.6 38.922 2.245 91.317 4.144 157.187 4.144 65.87 0 118.265-1.899 157.187-4.144 28.683-1.653 50.267-23.137 52.076-51.6a1738.417 1738.417 0 0 0 3.464-109.711c0-22.836-1.323-44.514-3.075-63.158-1.445-15.388-12.925-26.867-28.312-28.312-18.644-1.752-40.322-3.075-63.158-3.075H447.023zm26.765-47.273-13.936-23.227c-13.705-22.842-36.404-38.976-62.828-42.344-21.593-2.753-49.232-5.338-76.872-5.338-19.289 0-38.578 1.259-55.812 2.956-37.985 3.739-66.637 33.354-69.556 71.41-2.473 32.236-4.632 77.741-4.632 138.361 0 43.031 1.567 81.362 3.559 112.71 3.332 52.419 44.095 92.772 96.533 95.796 39.826 2.296 93.129 4.221 159.908 4.221 66.779 0 120.081-1.925 159.908-4.221 52.438-3.024 93.2-43.377 96.532-95.796a1785.175 1785.175 0 0 0 3.56-112.71c0-24.609-1.424-47.794-3.282-67.58-3.57-38.001-32.956-67.386-70.956-70.956-19.786-1.859-42.972-3.282-67.58-3.282h-94.546z" fill="#009688"/><defs><linearGradient id="a" x1="611.767" y1="325.54" x2="520.304" y2="-85.457" gradientUnits="userSpaceOnUse"><stop stop-color="#fff"/><stop offset="1" stop-color="#EEE"/></linearGradient><linearGradient id="b" x1="715.011" y1="316.298" x2="920.949" y2="153.401" gradientUnits="userSpaceOnUse"><stop stop-color="#fff"/><stop offset="1" stop-color="#EEE"/></linearGradient><linearGradient id="c" x1="227.915" y1="431.124" x2="-34.588" y2="187.224" gradientUnits="userSpaceOnUse"><stop stop-color="#fff"/><stop offset="1" stop-color="#EEE"/></linearGradient></defs></svg>