<svg width="900" height="600" viewBox="0 0 900 600" fill="none" xmlns="http://www.w3.org/2000/svg"><path fill="transparent" d="M0 0h900v600H0z"/><circle cx="456.549" cy="299.754" r="278.254" stroke="url(#a)" stroke-width="3"/><path d="M444.573 375.687c-17.954-3.93-25.786-22.113-32.043-53.157-4.701-23.348-9.291-44.548-3.823-70.991 3.822-18.507 11.703-34.633 20.28-47.262 9.29-13.684 19.124-31.831 35.153-29.276 22.021 3.514 54.611 52.651 44.158 113.168-11.492 66.48-46.176 91.367-63.725 87.518z" fill="url(#b)"/><path d="M572.373 488.857c-53.275 26.427-123.983-7.553-123.983-7.553s15.715-76.812 69.017-103.202c53.275-26.427 123.954 7.516 123.954 7.516s-15.714 76.812-68.988 103.239z" fill="url(#c)"/><circle cx="697.469" cy="158.186" r="13.862" transform="rotate(180 697.469 158.186)" fill="#009688"/><circle cx="230.172" cy="295.109" r="12.925" transform="rotate(180 230.172 295.109)" fill="#009688"/><circle r="12.996" transform="matrix(-1 0 0 1 145.449 188.686)" fill="#009688"/><circle r="6.065" transform="matrix(-1 0 0 1 653.154 256.264)" fill="#009688"/><circle r="7.798" transform="matrix(-1 0 0 1 407.066 516.161)" fill="#E1E4E5"/><circle r="11.263" transform="matrix(-1 0 0 1 169.274 433.463)" fill="#E1E4E5"/><circle r="8.572" transform="matrix(-1 0 0 1 273.378 158.132)" fill="#E1E4E5"/><circle r="9.53" transform="matrix(-1 0 0 1 361.561 374.395)" fill="#E1E4E5"/><circle r="8.558" transform="scale(1 -1) rotate(-75 -159.203 -431.515)" fill="#E1E4E5"/><circle r="11.385" transform="matrix(-1 0 0 1 386.252 86.217)" fill="#E1E4E5"/><circle r="17.811" transform="scale(1 -1) rotate(-75 255.485 -404.244)" fill="#E1E4E5"/><path d="M672.328 411.43h.229c1.357 19.222 15.652 19.518 15.652 19.518s-15.764.308-15.764 22.519c0-22.211-15.764-22.519-15.764-22.519s14.29-.296 15.647-19.518zm-92.235 115.243h.203c1.204 17.397 13.889 17.665 13.889 17.665s-13.988.279-13.988 20.381c0-20.102-13.987-20.381-13.987-20.381s12.679-.268 13.883-17.665z" fill="#E1E4E5"/><ellipse cx="450" cy="299.5" rx="190" ry="190.5" fill="#009688"/><path d="M565.455 350.853h-25.553l-17.044 25.553-22.704-51.107-17.044 25.554H339.62" stroke="#fff" stroke-width="14" stroke-linecap="round" stroke-linejoin="round"/><path d="M487.639 277.506a.639.639 0 1 1 0 .002v-.002m38.33 0a.639.639 0 1 1 0 .002v-.002m38.329 0a.64.64 0 0 1 1.278.001.639.639 0 0 1-1.278.001v-.002" stroke="#fff" stroke-width="22" stroke-linecap="round" stroke-linejoin="round"/><path fill-rule="evenodd" clip-rule="evenodd" d="m388.555 233.286 3.553 3.611 3.553-3.611a34.345 34.345 0 0 1 49.12 0c13.565 13.871 13.565 36.048 0 49.919l-33.231 33.771a27.19 27.19 0 0 1-19.442 8.184 27.193 27.193 0 0 1-19.443-8.184l-33.231-33.77c-13.565-13.871-13.565-36.049 0-49.919a34.346 34.346 0 0 1 49.121-.001z" fill="#fff"/><path d="M687.544 228.751c0 78.802 94.562 78.802 94.562 157.604" stroke="#E1E4E5" stroke-width="10.25" stroke-linecap="round" stroke-linejoin="round"/><path d="M782.106 228.751c0 78.802-94.562 78.802-94.562 157.604m.348-149.724h93.862m-84.23 31.521h74.599m9.631 110.323h-93.862m83.706-31.521h-74.074M117.789 228.751c0 78.802 94.562 78.802 94.562 157.604" stroke="#E1E4E5" stroke-width="10.25" stroke-linecap="round" stroke-linejoin="round"/><path d="M212.351 228.751c0 78.802-94.562 78.802-94.562 157.604m.348-149.725h93.862m-84.23 31.522h74.599m9.631 110.323h-93.862m83.706-31.521h-74.074" stroke="#E1E4E5" stroke-width="10.25" stroke-linecap="round" stroke-linejoin="round"/><defs><linearGradient id="a" x1="468.479" y1="893.201" x2="451.227" y2="-588.65" gradientUnits="userSpaceOnUse"><stop stop-color="#fff"/><stop offset="1" stop-color="#EEE"/></linearGradient><linearGradient id="b" x1="327.549" y1="348.019" x2="648.502" y2="166.716" gradientUnits="userSpaceOnUse"><stop stop-color="#fff"/><stop offset="1" stop-color="#EEE"/></linearGradient><linearGradient id="c" x1="367.794" y1="571.29" x2="807.201" y2="223.717" gradientUnits="userSpaceOnUse"><stop stop-color="#fff"/><stop offset="1" stop-color="#EEE"/></linearGradient></defs></svg>