<svg width="900" height="600" viewBox="0 0 900 600" fill="none" xmlns="http://www.w3.org/2000/svg"><path fill="transparent" d="M0 0h900v600H0z"/><path d="M708.01 301.044c0 142.246-115.548 257.564-258.091 257.564-142.542 0-258.09-115.318-258.09-257.564 0-142.246 115.548-257.565 258.09-257.565 142.543 0 258.091 115.319 258.091 257.565z" stroke="url(#a)" stroke-width="2.797"/><path d="M214.951 399.439c2.618 66.42 144.432 188.663 299.008 123.977 71.892-30.088 62.014-67.895 113.581-123.787 30.737-33.312 76.827-60.647 86.126-105.747 8.036-38.929-2.89-78.935-25.464-103.504-50.771-55.255-145.814-87.432-226.892 14.749-81.078 102.18-253.092 23.008-246.359 194.312z" fill="url(#b)"/><path d="M197.164 195.71c12.187 21.752 38.879 24.74 81.642 20.607 32.16-3.115 61.488-5.524 93.651-23.06 22.511-12.265 40.331-28.859 53.337-44.976 14.094-17.46 33.766-37.387 24.122-57.184C436.664 63.903 360.024 41 285.603 78.456c-81.75 41.156-100.362 95.997-88.439 117.255z" fill="url(#c)"/><path d="M98.007 260.96c31.595 15.673 73.529-4.48 73.529-4.48s-9.319-45.554-40.931-61.205c-31.595-15.673-73.513 4.458-73.513 4.458s9.32 45.554 40.915 61.227z" fill="url(#d)"/><path d="M805.937 309.788c-17.166 10.288-41.793.777-41.793.777s3.22-26.187 20.396-36.464c17.166-10.288 41.783-.789 41.783-.789s-3.22 26.187-20.386 36.476z" fill="url(#e)"/><circle cx="176.353" cy="475.22" r="9.704" fill="#E1E4E5"/><circle cx="808.361" cy="403.306" r="14.017" fill="#E1E4E5"/><circle cx="126.936" cy="379.278" r="10.668" fill="#E1E4E5"/><circle cx="186.661" cy="96.631" r="11.86" fill="#E1E4E5"/><circle cx="846.758" cy="171.537" r="10.65" transform="rotate(90 846.758 171.537)" fill="#E1E4E5"/><circle cx="548.83" cy="63.618" r="14.169" fill="#E1E4E5"/><ellipse cx="165.765" cy="320.186" rx="10.899" ry="8.719" fill="#E1E4E5"/><path d="M709.644 85.241h-.155c-.919 13.027-10.607 13.227-10.607 13.227s10.683.209 10.683 15.261c0-15.052 10.683-15.26 10.683-15.26s-9.684-.201-10.604-13.228zm34.313 364.071h-.149c-.883 12.988-10.184 13.188-10.184 13.188s10.257.208 10.257 15.215c0-15.007 10.256-15.215 10.256-15.215s-9.297-.2-10.18-13.188z" fill="#E1E4E5"/><rect x="415.408" y="126" width="353" height="408" rx="61.151" fill="#009688"/><circle cx="517.371" cy="277.063" r="52.189" fill="#fff"/><rect x="596.408" y="254" width="137" height="15" rx="7.5" fill="#fff"/><rect x="465.408" y="360" width="268" height="16" rx="8" fill="#fff"/><rect x="596.408" y="296" width="137" height="16" rx="8" fill="#fff"/><rect x="465.408" y="403" width="268" height="15" rx="7.5" fill="#fff"/><rect x="465.408" y="445" width="268" height="16" rx="8" fill="#fff"/><path fill="#009688" d="M107.358 330.336h237.69v179.775h-237.69z"/><path fill-rule="evenodd" clip-rule="evenodd" d="M226.806 335.262c-29.764 0-56.276 1.084-77.938 2.461-20.547 1.306-36.346 16.983-37.82 37.385-1.049 14.513-1.78 29.805-1.78 44.11s.731 29.597 1.78 44.11c1.474 20.402 17.273 36.078 37.82 37.384a1234.752 1234.752 0 0 0 77.938 2.461c29.764 0 56.277-1.084 77.938-2.461 20.547-1.306 36.346-16.982 37.82-37.384 1.049-14.513 1.78-29.805 1.78-44.11s-.731-29.597-1.78-44.11c-1.474-20.402-17.273-36.079-37.82-37.385a1234.726 1234.726 0 0 0-77.938-2.461zm-80.068-31.053c-37.239 2.367-66.495 31.261-69.185 68.478-1.086 15.021-1.867 31.166-1.867 46.531 0 15.365.781 31.51 1.867 46.531 2.69 37.217 31.946 66.111 69.185 68.478a1268.009 1268.009 0 0 0 80.068 2.529c30.569 0 57.799-1.113 80.068-2.529 37.239-2.367 66.495-31.261 69.185-68.478 1.086-15.021 1.867-31.166 1.867-46.531 0-15.365-.781-31.51-1.867-46.531-2.69-37.217-31.946-66.111-69.185-68.478a1268.009 1268.009 0 0 0-80.068-2.529c-30.569 0-57.799 1.113-80.068 2.529z" fill="#009688"/><path fill-rule="evenodd" clip-rule="evenodd" d="M243.597 431.516c10.038-5.806 16.791-16.659 16.791-29.089 0-18.547-15.035-33.582-33.582-33.582s-33.582 15.035-33.582 33.582c0 12.43 6.753 23.283 16.791 29.089V452.8c0 9.274 7.518 16.791 16.791 16.791 9.274 0 16.791-7.517 16.791-16.791v-21.284z" fill="#fff"/><path fill-rule="evenodd" clip-rule="evenodd" d="M142.85 251.307c0-46.368 37.589-83.956 83.956-83.956 46.367 0 83.955 37.588 83.955 83.956v67.164c0 9.274-7.517 16.791-16.791 16.791-9.273 0-16.791-7.517-16.791-16.791v-67.164c0-27.821-22.553-50.373-50.373-50.373-27.821 0-50.373 22.552-50.373 50.373v67.164c0 9.274-7.518 16.791-16.792 16.791-9.273 0-16.791-7.517-16.791-16.791v-67.164z" fill="#009688"/><defs><linearGradient id="a" x1="460.985" y1="850.386" x2="445.047" y2="-521.335" gradientUnits="userSpaceOnUse"><stop stop-color="#fff"/><stop offset="1" stop-color="#EEE"/></linearGradient><linearGradient id="b" x1="406.56" y1="781.057" x2="545.865" y2="-331.978" gradientUnits="userSpaceOnUse"><stop stop-color="#fff"/><stop offset="1" stop-color="#EEE"/></linearGradient><linearGradient id="c" x1="279.267" y1="336.678" x2="387.898" y2="-151.461" gradientUnits="userSpaceOnUse"><stop stop-color="#fff"/><stop offset="1" stop-color="#EEE"/></linearGradient><linearGradient id="d" x1="219.335" y1="309.847" x2="-41.261" y2="103.715" gradientUnits="userSpaceOnUse"><stop stop-color="#fff"/><stop offset="1" stop-color="#EEE"/></linearGradient><linearGradient id="e" x1="739.51" y1="342.905" x2="877.633" y2="214.57" gradientUnits="userSpaceOnUse"><stop stop-color="#fff"/><stop offset="1" stop-color="#EEE"/></linearGradient></defs></svg>