<svg width="900" height="600" viewBox="0 0 900 600" fill="none" xmlns="http://www.w3.org/2000/svg"><path fill="transparent" d="M0 0h900v600H0z"/><path d="M757.326 383.394h-59.381c-14.55 0-26.741-9.895-26.741-22.429 0-6.267 3.146-11.874 7.865-15.832s11.405-6.597 18.876-6.597h8.652c7.472 0 14.157-2.638 18.876-6.596 4.719-3.958 7.865-9.565 7.865-15.832 0-12.204-11.798-22.429-26.741-22.429H525.219c-4.734 0-7.776-5.82-7.776-10.555 0-11.873-11.405-21.439-25.562-21.439h-67.499a6.432 6.432 0 1 1 0-12.863h258.62c11.404 0 22.022-3.958 29.494-10.225 7.471-6.267 12.19-15.172 12.19-24.737 0-19.461-18.876-34.963-41.684-34.963H549.423c-20.955 0-41.7-16.161-62.654-16.161h-74.59c-10.93 0-19.79-8.861-19.79-19.79 0-10.93 8.86-19.79 19.79-19.79h167.004c7.865 0 15.337-2.639 20.449-6.927 5.113-4.288 8.259-10.225 8.259-17.151 0-13.194-12.978-24.078-28.708-24.078H194.19c-7.865 0-15.337 2.639-20.449 6.927-5.113 4.287-8.259 10.224-8.259 17.15 0 13.194 12.978 24.079 28.708 24.079h9.831c12.977 0 23.988 8.905 23.988 20.119 0 5.608-2.752 10.555-7.078 14.183-4.326 3.628-10.225 5.937-16.91 5.937h-47.584c-8.258 0-16.123 2.969-21.628 7.586-5.506 4.618-9.045 10.885-9.045 18.141 0 14.183 13.764 25.397 30.28 25.397h48.37c15.73 0 28.708 10.885 28.708 24.078 0 6.597-3.146 12.534-8.259 16.822-5.112 4.287-12.191 6.926-20.056 6.926H161.55c-7.079 0-13.371 2.309-18.09 6.267-4.719 3.958-7.472 9.235-7.472 15.172 0 11.874 11.405 21.439 25.562 21.439h34.999c20.056 0 36.179 13.523 36.179 30.345 0 8.246-3.932 16.162-10.617 21.439-6.686 5.607-15.731 8.906-25.562 8.906h-48.763c-9.831 0-18.876 3.298-25.168 8.905-6.685 5.277-10.618 12.863-10.618 21.109 0 16.492 16.123 30.015 35.786 30.015h150.576c16.627 0 32.962 9.235 49.589 9.235h27.438c10.475 0 18.966 8.492 18.966 18.966s-8.491 18.965-18.966 18.965h-66.763c-8.652 0-16.123 2.969-21.629 7.586-5.505 4.618-9.045 11.215-9.045 18.141 0 14.183 13.764 25.727 30.674 25.727h408.982c8.651 0 16.123-2.968 21.629-7.586 5.505-4.618 9.045-11.214 9.045-18.141 0-14.183-13.764-25.727-30.674-25.727h-12.191c-12.584 0-22.415-8.575-22.415-18.8 0-5.278 2.359-9.895 6.685-13.194 3.933-3.298 9.831-5.607 16.123-5.607h51.516c8.652 0 16.124-2.968 21.629-7.586 5.506-4.618 9.045-11.214 9.045-18.141 0-14.842-13.764-26.386-30.674-26.386z" fill="url(#a)"/><path fill-rule="evenodd" clip-rule="evenodd" d="M294.515 222.144c-66.813 8.88-118.45 64.056-118.45 131.525 0 73.629 61.334 133.338 136.968 133.338h301.328c60.512 0 109.574-47.762 109.574-106.671 0-58.909-49.062-106.67-109.574-106.67 0-88.377-73.579-160.006-164.361-160.006-72.237 0-133.434 45.415-155.485 108.484z" fill="#009688"/><path fill-rule="evenodd" clip-rule="evenodd" d="M195.032 490.6h-4.509a1.97 1.97 0 0 1-1.968-1.968v-4.51a1.97 1.97 0 0 1 1.968-1.968h4.509c1.081 0 1.968.887 1.968 1.968v4.51a1.964 1.964 0 0 1-1.968 1.968zm-15.634 0h-4.509a1.976 1.976 0 0 1-1.968-1.968v-4.51a1.97 1.97 0 0 1 1.968-1.968h4.509c1.081 0 1.968.887 1.968 1.968v4.51a1.976 1.976 0 0 1-1.968 1.968zm-15.643 0h-4.509a1.976 1.976 0 0 1-1.968-1.968v-4.51a1.97 1.97 0 0 1 1.968-1.968h4.509c1.081 0 1.968.887 1.968 1.968v4.51a1.964 1.964 0 0 1-1.968 1.968zm-15.634 0h-4.509a1.976 1.976 0 0 1-1.968-1.968v-4.51a1.97 1.97 0 0 1 1.968-1.968h4.509c1.09 0 1.977.887 1.977 1.968v4.51a1.99 1.99 0 0 1-1.977 1.968zm-15.635 0h-4.509a1.978 1.978 0 0 1-1.977-1.968v-4.51c0-1.09.887-1.968 1.977-1.968h4.509c1.082 0 1.969.887 1.969 1.968v4.51a1.976 1.976 0 0 1-1.969 1.968zm46.339-17.047h-4.509a1.976 1.976 0 0 1-1.968-1.968v-4.519c0-1.081.887-1.968 1.968-1.968h4.509a1.97 1.97 0 0 1 1.968 1.968v4.509a1.966 1.966 0 0 1-1.968 1.978zm-15.634 0h-4.509a1.976 1.976 0 0 1-1.968-1.968v-4.519c0-1.081.887-1.968 1.968-1.968h4.509c1.081 0 1.968.887 1.968 1.968v4.509a1.966 1.966 0 0 1-1.968 1.978zm-15.634 0h-4.509a1.978 1.978 0 0 1-1.977-1.968v-4.519c0-1.081.887-1.968 1.977-1.968h4.509c1.081 0 1.968.887 1.968 1.968v4.509a1.978 1.978 0 0 1-1.968 1.978zm16.198 35.361h-4.509a1.976 1.976 0 0 1-1.968-1.969v-4.509a1.97 1.97 0 0 1 1.968-1.968h4.509c1.081 0 1.968.887 1.968 1.968v4.509a1.964 1.964 0 0 1-1.968 1.969zm-15.634 0h-4.509a1.976 1.976 0 0 1-1.968-1.969v-4.509a1.97 1.97 0 0 1 1.968-1.968h4.509c1.09 0 1.977.887 1.977 1.968v4.509a1.99 1.99 0 0 1-1.977 1.969z" fill="#E1E4E5"/><path d="M403 360s17.806 11 47.5 11 47.5-11 47.5-11" stroke="#fff" stroke-width="22.048" stroke-linecap="round" stroke-linejoin="round"/><ellipse cx="390.503" cy="292.676" rx="24.301" ry="23.748" fill="#fff"/><ellipse cx="509.392" cy="292.676" rx="24.301" ry="23.748" fill="#fff"/><defs><linearGradient id="a" x1="464.414" y1="776.613" x2="455.194" y2="-414.137" gradientUnits="userSpaceOnUse"><stop stop-color="#fff"/><stop offset="1" stop-color="#EEE"/></linearGradient></defs></svg>