<svg width="900" height="600" viewBox="0 0 900 600" fill="none" xmlns="http://www.w3.org/2000/svg"><path fill="transparent" d="M0 0h900v600H0z"/><circle cx="450.048" cy="299.952" r="244.048" fill="url(#a)"/><path d="M834.18 334.149c-11.181 5.547-26.021-1.585-26.021-1.585s3.298-16.121 14.485-21.66c11.181-5.546 26.015 1.578 26.015 1.578s-3.298 16.121-14.479 21.667z" fill="url(#b)"/><circle cx="794.791" cy="169.606" r="7.593" transform="rotate(180 794.791 169.606)" fill="#009688"/><circle r="11.336" transform="matrix(-1 0 0 1 166.356 465.642)" fill="#009688"/><circle r="7.59" transform="matrix(-1 0 0 1 761.92 249.277)" fill="#009688"/><circle r="10.727" transform="matrix(-1 0 0 1 806.1 477.632)" fill="#E1E4E5"/><circle r="13.484" transform="matrix(-1 0 0 1 685.219 84.437)" fill="#E1E4E5"/><circle r="10.71" transform="scale(1 -1) rotate(-75 -28.618 -182.5)" fill="#E1E4E5"/><circle r="14.248" transform="matrix(-1 0 0 1 269.913 83.981)" fill="#E1E4E5"/><ellipse rx="10.96" ry="8.768" transform="matrix(-1 0 0 1 742.909 348.682)" fill="#E1E4E5"/><circle r="17.492" transform="matrix(0 1 1 0 602.689 71.763)" fill="#E1E4E5"/><path d="M56.815 201.506h.156c.925 13.1 10.667 13.301 10.667 13.301s-10.743.21-10.743 15.346c0-15.136-10.742-15.346-10.742-15.346s9.737-.201 10.662-13.301zm119.632 316.213h.15c.888 13.06 10.241 13.261 10.241 13.261s-10.314.209-10.314 15.3c0-15.091-10.314-15.3-10.314-15.3s9.349-.201 10.237-13.261z" fill="#E1E4E5"/><rect x="181" y="87.841" width="425.613" height="276.073" rx="24.649" fill="#009688"/><rect x="217.974" y="278.463" width="73.948" height="29.579" rx="8.216" fill="#fff"/><rect x="308.355" y="278.463" width="73.948" height="29.579" rx="8.216" fill="#fff"/><rect x="398.736" y="278.463" width="73.948" height="29.579" rx="8.216" fill="#fff"/><rect x="489.117" y="278.463" width="73.948" height="29.579" rx="8.216" fill="#fff"/><path fill-rule="evenodd" clip-rule="evenodd" d="M509.659 200.869a34.76 34.76 0 0 1-18.487 5.29c-19.286 0-34.92-15.635-34.92-34.92 0-19.286 15.634-34.92 34.92-34.92a34.76 34.76 0 0 1 18.487 5.289 34.754 34.754 0 0 1 18.487-5.289c19.285 0 34.92 15.634 34.92 34.92 0 19.285-15.635 34.92-34.92 34.92a34.757 34.757 0 0 1-18.487-5.29zM259.22 221.132v-9.87h12.313l10.454-10.478 14.432 6.143a13.895 13.895 0 0 0 15.294-2.981l20.498-20.542a13.994 13.994 0 0 0 2.974-15.329l-10.461-24.682a13.936 13.936 0 0 0-7.376-7.392l-24.628-10.484a13.898 13.898 0 0 0-15.294 2.98l-20.498 20.543a13.983 13.983 0 0 0-2.967 15.329l5.969 14.093-41.956 42.049v22.211h22.162l9.235-9.256v-12.341h9.849v.007z" fill="#fff"/><path fill-rule="evenodd" clip-rule="evenodd" d="M294.35 155.635c-5.892.025-10.674 4.807-10.649 10.698 0 5.892 4.807 10.674 10.698 10.649 5.891 0 10.673-4.782 10.673-10.673 0-5.892-4.782-10.674-10.673-10.674" fill="#009688"/><rect x="294.387" y="235.738" width="425.613" height="276.073" rx="24.649" fill="#009688"/><rect x="331.361" y="426.36" width="73.948" height="29.579" rx="8.216" fill="#fff"/><rect x="421.742" y="426.36" width="73.948" height="29.579" rx="8.216" fill="#fff"/><rect x="512.123" y="426.36" width="73.948" height="29.579" rx="8.216" fill="#fff"/><rect x="602.505" y="426.36" width="73.948" height="29.579" rx="8.216" fill="#fff"/><path fill-rule="evenodd" clip-rule="evenodd" d="M623.046 348.765a34.76 34.76 0 0 1-18.487 5.29c-19.286 0-34.92-15.634-34.92-34.92s15.634-34.92 34.92-34.92a34.76 34.76 0 0 1 18.487 5.289 34.757 34.757 0 0 1 18.487-5.289c19.286 0 34.92 15.634 34.92 34.92s-15.634 34.92-34.92 34.92a34.757 34.757 0 0 1-18.487-5.29zm-250.439 20.263v-9.87h12.314l10.454-10.477 14.431 6.142a13.894 13.894 0 0 0 15.294-2.98l20.498-20.543a13.988 13.988 0 0 0 2.974-15.328l-10.461-24.683a13.94 13.94 0 0 0-7.376-7.392l-24.628-10.484a13.897 13.897 0 0 0-15.294 2.981l-20.498 20.542a13.987 13.987 0 0 0-2.967 15.329l5.969 14.093-41.956 42.049v22.211h22.162l9.236-9.256v-12.341h9.848v.007z" fill="#fff"/><path fill-rule="evenodd" clip-rule="evenodd" d="M407.737 303.532c-5.891.025-10.673 4.807-10.649 10.698 0 5.891 4.807 10.673 10.698 10.648 5.891 0 10.673-4.782 10.673-10.673s-4.782-10.673-10.673-10.673" fill="#009688"/><defs><linearGradient id="a" x1="460.455" y1="817.655" x2="445.405" y2="-475.06" gradientUnits="userSpaceOnUse"><stop stop-color="#fff"/><stop offset="1" stop-color="#EEE"/></linearGradient><linearGradient id="b" x1="791.243" y1="351.45" x2="883.465" y2="278.502" gradientUnits="userSpaceOnUse"><stop stop-color="#fff"/><stop offset="1" stop-color="#EEE"/></linearGradient></defs></svg>