<svg width="900" height="600" viewBox="0 0 900 600" fill="none" xmlns="http://www.w3.org/2000/svg"><path fill="transparent" d="M0 0h900v600H0z"/><path d="M253.247 409.801c2.069 52.482 114.123 149.073 236.262 97.961 56.805-23.774 48.999-53.648 89.745-97.81 24.287-26.322 60.705-47.921 68.052-83.556 6.35-30.76-2.283-62.371-20.12-81.784-40.116-43.659-115.215-69.084-179.278 11.654-64.064 80.738-199.981 18.18-194.661 153.535z" fill="url(#a)"/><path d="M252.881 206.048c11.069 19.755 35.312 22.47 74.151 18.716 29.209-2.829 55.846-5.018 85.058-20.944 20.446-11.14 36.63-26.212 48.443-40.85 12.801-15.858 30.668-33.956 21.909-51.936-12.037-24.7-81.645-45.501-149.236-11.483-74.25 37.38-91.154 87.189-80.325 106.497z" fill="url(#b)"/><path d="M130.277 260.889c28.696 14.235 66.782-4.068 66.782-4.068s-8.464-41.375-37.175-55.59c-28.696-14.234-66.768 4.049-66.768 4.049s8.465 41.374 37.161 55.609z" fill="url(#c)"/><path d="M773.251 305.237c-15.59 9.344-37.959.706-37.959.706s2.925-23.785 18.526-33.118c15.59-9.344 37.949-.717 37.949-.717s-2.925 23.785-18.516 33.129z" fill="url(#d)"/><circle cx="201.434" cy="455.49" r="8.814" fill="#E1E4E5"/><circle cx="775.453" cy="390.175" r="12.731" fill="#E1E4E5"/><circle cx="156.551" cy="368.351" r="9.689" fill="#E1E4E5"/><circle cx="210.796" cy="111.639" r="10.772" fill="#E1E4E5"/><circle cx="810.327" cy="179.672" r="9.673" transform="rotate(90 810.327 179.672)" fill="#E1E4E5"/><circle cx="500.381" cy="80.338" r="8.628" fill="#E1E4E5"/><ellipse cx="191.817" cy="314.681" rx="9.899" ry="7.919" fill="#E1E4E5"/><path d="M685.794 101.294h-.141c-.835 11.831-9.634 12.013-9.634 12.013s9.702.19 9.702 13.861c0-13.671 9.703-13.861 9.703-13.861s-8.795-.182-9.63-12.013zm31.164 330.665h-.135c-.802 11.797-9.25 11.978-9.25 11.978s9.316.189 9.316 13.82c0-13.631 9.315-13.82 9.315-13.82s-8.444-.181-9.246-11.978z" fill="#E1E4E5"/><path d="M530.265 121.347h66.007c19.002 0 34.43 15.427 34.43 34.43v66.007M369.628 482.918h-66.007c-19.003 0-34.43-15.427-34.43-34.429v-66.007" stroke="#009688" stroke-width="29.89" stroke-linecap="round" stroke-linejoin="round"/><path fill-rule="evenodd" clip-rule="evenodd" d="m305.563 76.998 8.033 13.388h54.494c14.184 0 27.547.82 38.951 1.891 21.903 2.058 38.84 18.995 40.898 40.898 1.071 11.404 1.892 24.768 1.892 38.952 0 24.802-.903 46.895-2.052 64.963-1.92 30.214-25.415 53.472-55.639 55.215-22.955 1.323-53.678 2.433-92.168 2.433-38.49 0-69.212-1.11-92.167-2.433-30.225-1.743-53.719-25.001-55.64-55.215a1029.526 1029.526 0 0 1-2.051-64.963c0-34.941 1.244-61.169 2.67-79.749 1.682-21.934 18.197-39.004 40.09-41.16 9.933-.977 21.051-1.703 32.169-1.703 15.931 0 31.862 1.49 44.307 3.077 15.23 1.941 28.314 11.24 36.213 24.406zm299.863 229.477 8.033 13.388h54.494c14.184 0 27.547.82 38.952 1.891 21.902 2.058 38.839 18.995 40.897 40.898 1.072 11.404 1.892 24.768 1.892 38.952 0 24.802-.903 46.895-2.052 64.963-1.92 30.214-25.415 53.472-55.639 55.215-22.955 1.323-53.678 2.433-92.168 2.433-38.489 0-69.212-1.11-92.167-2.433-30.224-1.743-53.719-25.001-55.639-55.215a1028.694 1028.694 0 0 1-2.052-64.963c0-34.941 1.245-61.169 2.67-79.748 1.682-21.935 18.197-39.005 40.09-41.16 9.934-.978 21.051-1.704 32.169-1.704 15.931 0 31.862 1.491 44.308 3.077 15.23 1.941 28.313 11.241 36.212 24.406z" fill="#009688"/><path fill-rule="evenodd" clip-rule="evenodd" d="M619.246 436.828c9.116-5.274 15.25-15.131 15.25-26.421 0-16.845-13.656-30.501-30.501-30.501s-30.501 13.656-30.501 30.501c0 11.29 6.134 21.147 15.251 26.421v19.331c0 8.422 6.828 15.25 15.25 15.25 8.423 0 15.251-6.828 15.251-15.25v-19.331zM314.983 202.5c9.117-5.274 15.251-15.131 15.251-26.42 0-16.846-13.656-30.501-30.501-30.501s-30.501 13.655-30.501 30.501c0 11.289 6.134 21.146 15.25 26.42v19.331c0 8.422 6.828 15.25 15.251 15.25 8.422 0 15.25-6.828 15.25-15.25V202.5z" fill="#fff"/><defs><linearGradient id="a" x1="404.647" y1="711.336" x2="514.718" y2="-168.127" gradientUnits="userSpaceOnUse"><stop stop-color="#fff"/><stop offset="1" stop-color="#EEE"/></linearGradient><linearGradient id="b" x1="327.451" y1="334.081" x2="426.114" y2="-109.269" gradientUnits="userSpaceOnUse"><stop stop-color="#fff"/><stop offset="1" stop-color="#EEE"/></linearGradient><linearGradient id="c" x1="240.472" y1="305.291" x2="3.787" y2="118.072" gradientUnits="userSpaceOnUse"><stop stop-color="#fff"/><stop offset="1" stop-color="#EEE"/></linearGradient><linearGradient id="d" x1="712.919" y1="335.316" x2="838.369" y2="218.756" gradientUnits="userSpaceOnUse"><stop stop-color="#fff"/><stop offset="1" stop-color="#EEE"/></linearGradient></defs></svg>