<svg width="900" height="600" viewBox="0 0 900 600" fill="none" xmlns="http://www.w3.org/2000/svg"><path fill="transparent" d="M0 0h900v600H0z"/><path d="M771.665 381.148H709.5c-15.232 0-27.995-10.367-27.995-23.499 0-6.566 3.294-12.44 8.234-16.587 4.941-4.147 11.939-6.912 19.761-6.912h9.057c7.823 0 14.821-2.764 19.761-6.911 4.941-4.147 8.234-10.022 8.234-16.588 0-12.786-12.35-23.499-27.995-23.499H528.684c-4.96 0-8.149-6.097-8.149-11.058 0-12.441-11.939-22.462-26.759-22.462h-70.659a6.739 6.739 0 1 1 0-13.478h270.739c11.939 0 23.055-4.147 30.877-10.713 7.822-6.566 12.762-15.896 12.762-25.918 0-20.389-19.761-36.631-43.639-36.631H554.023c-21.941 0-43.659-16.933-65.599-16.933h-78.071c-11.451 0-20.735-9.283-20.735-20.734 0-11.451 9.284-20.735 20.735-20.735H585.17c8.234 0 16.056-2.764 21.408-7.257 5.352-4.492 8.646-10.712 8.646-17.97 0-13.822-13.586-25.226-30.054-25.226H182.128c-8.234 0-16.056 2.764-21.408 7.257-5.352 4.492-8.646 10.713-8.646 17.97 0 13.823 13.586 25.226 30.054 25.226h10.292c13.586 0 25.113 9.331 25.113 21.08 0 5.875-2.882 11.059-7.411 14.86-4.528 3.801-10.704 6.22-17.702 6.22h-49.815c-8.645 0-16.879 3.111-22.642 7.949-5.764 4.838-9.469 11.404-9.469 19.006 0 14.86 14.409 26.609 31.7 26.609h50.637c16.468 0 30.054 11.404 30.054 25.227 0 6.912-3.294 13.132-8.646 17.625-5.352 4.492-12.762 7.257-20.996 7.257h-45.286c-7.41 0-13.997 2.419-18.937 6.566-4.94 4.147-7.822 9.676-7.822 15.896 0 12.441 11.939 22.462 26.759 22.462h36.641c20.996 0 37.875 14.169 37.875 31.793 0 8.64-4.117 16.933-11.116 22.463-6.998 5.874-16.467 9.33-26.759 9.33h-51.05c-10.292 0-19.761 3.456-26.348 9.331-6.998 5.529-11.115 13.477-11.115 22.116 0 17.279 16.879 31.447 37.463 31.447H291.18c17.408 0 34.509 9.677 51.918 9.677h28.708c10.975 0 19.871 8.896 19.871 19.87s-8.896 19.871-19.871 19.871h-69.877c-9.057 0-16.879 3.11-22.643 7.948-5.764 4.838-9.469 11.749-9.469 19.006 0 14.86 14.409 26.955 32.112 26.955h428.156c9.057 0 16.879-3.11 22.643-7.948 5.763-4.838 9.468-11.75 9.468-19.007 0-14.859-14.409-26.954-32.111-26.954h-12.763c-13.174 0-23.466-8.985-23.466-19.698 0-5.529 2.47-10.367 6.999-13.823 4.117-3.456 10.292-5.875 16.879-5.875h53.931c9.057 0 16.879-3.11 22.643-7.948 5.764-4.838 9.469-11.75 9.469-19.007 0-15.551-14.409-27.646-32.112-27.646z" fill="url(#a)"/><path d="M820.415 344.039c-10.484 5.201-24.399-1.486-24.399-1.486s3.092-15.117 13.582-20.31c10.484-5.201 24.394 1.479 24.394 1.479s-3.093 15.116-13.577 20.317z" fill="url(#b)"/><path d="M86.595 338.663c15.309 9.175 37.273.693 37.273.693s-2.871-23.355-18.19-32.52c-15.31-9.175-37.264-.704-37.264-.704s2.872 23.355 18.181 32.531z" fill="url(#c)"/><circle cx="783.482" cy="189.752" r="7.12" transform="rotate(180 783.482 189.752)" fill="#009688"/><circle cx="695.77" cy="480.253" r="13.391" transform="rotate(180 695.77 480.253)" fill="#009688"/><circle r="10.629" transform="matrix(-1 0 0 1 194.215 467.336)" fill="#009688"/><circle r="7.117" transform="matrix(-1 0 0 1 260.977 186.462)" fill="#009688"/><circle r="13.216" transform="matrix(-1 0 0 1 78.01 473.193)" fill="#E1E4E5"/><circle r="10.059" transform="matrix(-1 0 0 1 794.085 478.579)" fill="#E1E4E5"/><circle r="12.644" transform="matrix(-1 0 0 1 669.432 122.253)" fill="#E1E4E5"/><circle r="10.042" transform="scale(1 -1) rotate(-75 -64.294 -232.817)" fill="#E1E4E5"/><circle r="13.36" transform="matrix(-1 0 0 1 291.319 109.464)" fill="#E1E4E5"/><ellipse rx="10.277" ry="8.221" transform="matrix(-1 0 0 1 734.833 357.667)" fill="#E1E4E5"/><circle r="16.402" transform="matrix(0 1 1 0 548.561 105.361)" fill="#E1E4E5"/><path d="M194.75 122.098h.146c.867 12.282 10.002 12.471 10.002 12.471s-10.073.197-10.073 14.39c0-14.193-10.073-14.39-10.073-14.39s9.131-.189 9.998-12.471zm8.928 394.069h.14c.833 12.246 9.603 12.435 9.603 12.435s-9.671.196-9.671 14.346c0-14.15-9.671-14.346-9.671-14.346s8.766-.189 9.599-12.435z" fill="#E1E4E5"/><path fill-rule="evenodd" clip-rule="evenodd" d="m552.089 157.509 28.319-56.639c18.027-36.053-19.42-74.694-56.013-57.804l-74.41 34.347-74.409-34.347c-36.594-16.89-74.04 21.723-56.014 57.804l28.32 56.639m-18.736 85.306-48.82 78.106c-34.716 55.558-31.162 126.868 8.929 178.702 29.627 38.328 75.347 60.733 123.798 60.733h73.897c48.422 0 94.143-22.433 123.77-60.733 40.119-51.834 43.673-123.144 8.956-178.731-15.496-24.822-32.499-52.004-48.819-78.134" fill="#009688"/><path d="M525.957 372.049c22.942 22.943 22.942 60.14 0 83.082-22.943 22.943-60.14 22.943-83.082 0-22.943-22.942-22.943-60.139 0-83.082 22.942-22.942 60.139-22.942 83.082 0" stroke="#fff" stroke-width="33.988" stroke-linecap="round" stroke-linejoin="round"/><path d="M473.424 355.894c-1.925-11.696-7.265-22.937-16.291-31.962-22.936-22.936-60.135-22.936-83.071 0s-22.936 60.135 0 83.071c14.283 14.283 34.073 19.645 52.517 16.147" stroke="#fff" stroke-width="33.988" stroke-linecap="round" stroke-linejoin="round"/><path fill-rule="evenodd" clip-rule="evenodd" d="M539.623 170.285H360.351c-10.996 0-19.919 8.923-19.919 19.919v19.919c0 10.995 8.923 19.919 19.919 19.919h179.272c10.995 0 19.919-8.924 19.919-19.919v-19.919c0-10.996-8.924-19.919-19.919-19.919z" fill="#009688"/><defs><linearGradient id="a" x1="465.02" y1="793.134" x2="455.353" y2="-454.444" gradientUnits="userSpaceOnUse"><stop stop-color="#fff"/><stop offset="1" stop-color="#EEE"/></linearGradient><linearGradient id="b" x1="780.155" y1="360.261" x2="866.629" y2="291.86" gradientUnits="userSpaceOnUse"><stop stop-color="#fff"/><stop offset="1" stop-color="#EEE"/></linearGradient><linearGradient id="c" x1="145.838" y1="368.198" x2="22.654" y2="253.744" gradientUnits="userSpaceOnUse"><stop stop-color="#fff"/><stop offset="1" stop-color="#EEE"/></linearGradient></defs></svg>