<svg width="900" height="600" viewBox="0 0 900 600" fill="none" xmlns="http://www.w3.org/2000/svg"><path fill="transparent" d="M0 0h900v600H0z"/><rect x="113" y="408" width="311.622" height="119.506" rx="24.834" fill="#fff" stroke="#E1E4E5" stroke-width="4.967"/><rect x="217.505" y="445.196" width="175.355" height="14.17" rx="7.085" fill="#E1E4E5"/><rect x="217.505" y="475.308" width="113.361" height="14.17" rx="7.085" fill="#E1E4E5"/><path fill-rule="evenodd" clip-rule="evenodd" d="M162.387 497.877c-16.518 0-29.91-13.581-29.91-30.331 0-16.751 13.392-30.332 29.91-30.332s29.91 13.581 29.91 30.332c0 16.75-13.392 30.331-29.91 30.331z" fill="#009688"/><path d="m172.919 462.491-12.635 13.481-7.586-8.087" stroke="#fff" stroke-width="4.431" stroke-linecap="round" stroke-linejoin="round"/><rect x="475" y="408" width="311.622" height="119.506" rx="24.834" fill="#fff" stroke="#E1E4E5" stroke-width="4.967"/><rect x="579.505" y="445.196" width="175.355" height="14.17" rx="7.085" fill="#E1E4E5"/><rect x="579.505" y="475.308" width="113.361" height="14.17" rx="7.085" fill="#E1E4E5"/><path fill-rule="evenodd" clip-rule="evenodd" d="M524.387 497.877c-16.518 0-29.91-13.581-29.91-30.331 0-16.751 13.392-30.332 29.91-30.332s29.91 13.581 29.91 30.332c0 16.75-13.392 30.331-29.91 30.331z" fill="#009688"/><path d="m534.919 462.491-12.635 13.481-7.586-8.087" stroke="#fff" stroke-width="4.431" stroke-linecap="round" stroke-linejoin="round"/><rect x="475" y="256" width="311.622" height="119.506" rx="24.834" fill="#fff" stroke="#E1E4E5" stroke-width="4.967"/><rect x="579.505" y="293.196" width="175.355" height="14.17" rx="7.085" fill="#E1E4E5"/><rect x="579.505" y="323.308" width="113.361" height="14.17" rx="7.085" fill="#E1E4E5"/><path fill-rule="evenodd" clip-rule="evenodd" d="M524.387 345.877c-16.518 0-29.91-13.581-29.91-30.331 0-16.751 13.392-30.332 29.91-30.332s29.91 13.581 29.91 30.332c0 16.75-13.392 30.331-29.91 30.331z" fill="#009688"/><path d="m534.919 310.491-12.635 13.481-7.586-8.087" stroke="#fff" stroke-width="4.431" stroke-linecap="round" stroke-linejoin="round"/><rect x="113" y="256" width="311.622" height="119.506" rx="24.834" fill="#fff" stroke="#E1E4E5" stroke-width="4.967"/><rect x="217.505" y="293.196" width="175.355" height="14.17" rx="7.085" fill="#E1E4E5"/><rect x="217.505" y="323.308" width="113.361" height="14.17" rx="7.085" fill="#E1E4E5"/><path fill-rule="evenodd" clip-rule="evenodd" d="M162.387 345.877c-16.518 0-29.91-13.581-29.91-30.331 0-16.751 13.392-30.332 29.91-30.332s29.91 13.581 29.91 30.332c0 16.75-13.392 30.331-29.91 30.331z" fill="#009688"/><path d="m172.919 310.491-12.635 13.481-7.586-8.087" stroke="#fff" stroke-width="4.431" stroke-linecap="round" stroke-linejoin="round"/><rect x="475" y="104" width="311.622" height="119.506" rx="24.834" fill="#fff" stroke="#E1E4E5" stroke-width="4.967"/><rect x="579.505" y="141.196" width="175.355" height="14.17" rx="7.085" fill="#E1E4E5"/><rect x="579.505" y="171.308" width="113.361" height="14.17" rx="7.085" fill="#E1E4E5"/><path fill-rule="evenodd" clip-rule="evenodd" d="M524.387 193.877c-16.518 0-29.91-13.581-29.91-30.331 0-16.751 13.392-30.332 29.91-30.332s29.91 13.581 29.91 30.332c0 16.75-13.392 30.331-29.91 30.331z" fill="#009688"/><path d="m534.919 158.491-12.635 13.481-7.586-8.087" stroke="#fff" stroke-width="4.431" stroke-linecap="round" stroke-linejoin="round"/><rect x="113" y="104" width="311.622" height="119.506" rx="24.834" fill="#fff" stroke="#E1E4E5" stroke-width="4.967"/><rect x="217.505" y="141.196" width="175.355" height="14.17" rx="7.085" fill="#E1E4E5"/><rect x="217.505" y="171.308" width="113.361" height="14.17" rx="7.085" fill="#E1E4E5"/><path fill-rule="evenodd" clip-rule="evenodd" d="M162.387 193.877c-16.518 0-29.91-13.581-29.91-30.331 0-16.751 13.392-30.332 29.91-30.332s29.91 13.581 29.91 30.332c0 16.75-13.392 30.331-29.91 30.331z" fill="#009688"/><path d="m172.919 158.491-12.635 13.481-7.586-8.087" stroke="#fff" stroke-width="4.431" stroke-linecap="round" stroke-linejoin="round"/><path fill-rule="evenodd" clip-rule="evenodd" d="M572.714 392H326.286C299.066 392 277 369.959 277 342.769V121.231C277 94.041 299.066 72 326.286 72h246.428C599.934 72 622 94.041 622 121.231v221.538c0 27.19-22.066 49.231-49.286 49.231z" fill="#009688"/><path d="m417.216 275.235-43.351-43.352 43.351-43.351m65.03 0 43.351 43.351-43.351 43.352" stroke="#fff" stroke-width="31" stroke-linecap="round" stroke-linejoin="round"/></svg>