<svg width="900" height="600" viewBox="0 0 900 600" fill="none" xmlns="http://www.w3.org/2000/svg"><path fill="transparent" d="M0 0h900v600H0z"/><path d="M575.051 200.174c-15.304-49.951-147.578-114.42-252.08-34.276-48.602 37.276-33.516 64.027-61.5 116.838-16.68 31.476-46.227 61.488-44.252 97.626 1.697 31.194 18.019 59.406 40.099 73.552 49.658 31.813 128.336 37.213 169.467-56.691 41.131-93.903 187.722-68.218 148.266-197.049z" fill="url(#a)"/><path d="M678.971 322.185c-21.201-21.753-53.555-16.854-102.574 1.494-36.864 13.806-70.616 25.89-102.936 56.667-22.624 21.532-38.362 46.679-48.585 69.746-11.08 24.991-27.947 54.643-10.356 74.899 24.171 27.823 121.582 30.61 197.349-36.933 83.226-74.21 87.835-144.615 67.102-165.873z" fill="url(#b)"/><path fill-rule="evenodd" clip-rule="evenodd" d="M374.5 280.906c-45.561 0-82.5-36.94-82.5-82.5 0-45.561 36.939-82.5 82.5-82.5s82.5 36.939 82.5 82.5c0 45.56-36.939 82.5-82.5 82.5zm0 218c-45.561 0-82.5-36.716-82.5-82 0-45.285 36.939-82 82.5-82s82.5 36.715 82.5 82c0 45.284-36.939 82-82.5 82zm233-218c-45.561 0-82.5-36.94-82.5-82.5 0-45.561 36.939-82.5 82.5-82.5s82.5 36.939 82.5 82.5c0 45.56-36.939 82.5-82.5 82.5z" fill="#009688"/><path d="m402 185.906-34.367 35L347 199.909m55 203.997-34.367 34L347 417.509m288-231.603-34.367 35L580 199.909" stroke="#fff" stroke-width="15" stroke-linecap="round" stroke-linejoin="round"/><path fill-rule="evenodd" clip-rule="evenodd" d="M528.37 477.361 476.999 313.17c-5.433-17.325 12.297-32.828 28.753-25.154l153.201 71.534c18.146 8.48 15.104 35.195-4.498 39.357l-63.069 13.345-23.397 65.837c-6.733 18.911-33.614 18.417-39.619-.728z" fill="#009688"/><path d="M170.139 454.28c17.743 18.059 50.922 14.252 50.922 14.252s4.391-33.088-13.369-51.135c-17.743-18.059-50.906-14.263-50.906-14.263s-4.39 33.087 13.353 51.146z" fill="url(#c)"/><path d="M609.244 96.273c-16.816 9.592-40.435-.119-40.435-.119s3.66-25.258 20.486-34.838c16.815-9.592 40.424.107 40.424.107s-3.66 25.258-20.475 34.85z" fill="url(#d)"/><path d="M307.646 133.783c-17.284 17.591-49.604 13.882-49.604 13.882s-4.277-32.23 13.023-49.81c17.284-17.592 49.588-13.894 49.588-13.894s4.276 32.231-13.007 49.822z" fill="url(#e)"/><ellipse rx="15" ry="15.5" transform="matrix(1 0 0 -1 186 313.406)" fill="#E1E4E5"/><circle r="23.5" transform="matrix(1 0 0 -1 628.5 452.5)" fill="#009688"/><circle cx="248" cy="229" r="12" fill="#009688"/><circle r="5.5" transform="matrix(-1 0 0 1 311.5 318.406)" fill="#E1E4E5"/><ellipse cx="724.5" cy="359" rx="17.5" ry="17" fill="#E1E4E5"/><circle cx="487.5" cy="499.5" r="11.5" fill="#E1E4E5"/><ellipse cx="400.5" cy="103.906" rx="5.5" ry="6" fill="#E1E4E5"/><ellipse cx="665" cy="286.406" rx="5.5" ry="6" transform="rotate(90 665 286.406)" fill="#E1E4E5"/><ellipse cx="707" cy="207.406" rx="5" ry="4.5" fill="#E1E4E5"/><ellipse cx="211.5" cy="258.406" rx="5.5" ry="4.5" fill="#E1E4E5"/><circle cx="529.28" cy="116.588" r="11.358" transform="rotate(105 529.28 116.588)" fill="#E1E4E5"/><path d="M231.578 167h-.152C230.522 178.889 221 179.072 221 179.072s10.5.19 10.5 13.928c0-13.738 10.5-13.928 10.5-13.928s-9.518-.183-10.422-12.072zm470.549-42h-.247c-1.463 21.492-16.88 21.823-16.88 21.823s17 .344 17 25.177c0-24.833 17-25.177 17-25.177s-15.41-.331-16.873-21.823z" fill="#E1E4E5"/><defs><linearGradient id="a" x1="352.942" y1="-51.422" x2="470.195" y2="822.339" gradientUnits="userSpaceOnUse"><stop stop-color="#fff"/><stop offset="1" stop-color="#EEE"/></linearGradient><linearGradient id="b" x1="537.902" y1="182.185" x2="563.987" y2="790.876" gradientUnits="userSpaceOnUse"><stop stop-color="#fff"/><stop offset="1" stop-color="#EEE"/></linearGradient><linearGradient id="c" x1="240.931" y1="515.966" x2="112.658" y2="314.886" gradientUnits="userSpaceOnUse"><stop stop-color="#fff"/><stop offset="1" stop-color="#EEE"/></linearGradient><linearGradient id="d" x1="544.312" y1="126.916" x2="680.564" y2="5.684" gradientUnits="userSpaceOnUse"><stop stop-color="#fff"/><stop offset="1" stop-color="#EEE"/></linearGradient><linearGradient id="e" x1="238.687" y1="193.871" x2="363.638" y2="-2.001" gradientUnits="userSpaceOnUse"><stop stop-color="#fff"/><stop offset="1" stop-color="#EEE"/></linearGradient></defs></svg>