<svg width="900" height="600" viewBox="0 0 900 600" fill="none" xmlns="http://www.w3.org/2000/svg"><path fill="transparent" d="M0 0h900v600H0z"/><path d="M812.538 276.782c-25.082 12.442-58.372-3.557-58.372-3.557s7.398-36.163 32.494-48.588c25.082-12.442 58.359 3.539 58.359 3.539s-7.399 36.163-32.481 48.606z" fill="url(#a)"/><path d="M100.08 367.715c32.772 19.642 79.791 1.484 79.791 1.484s-6.148-49.996-38.941-69.616c-32.772-19.642-79.77-1.507-79.77-1.507s6.147 49.997 38.92 69.639z" fill="url(#b)"/><circle cx="763.187" cy="193.409" r="13.695" transform="rotate(180 763.187 193.409)" fill="#009688"/><circle cx="726.407" cy="280.407" r="15.407" transform="rotate(180 726.407 280.407)" fill="#009688"/><circle r="12.839" transform="matrix(-1 0 0 1 144.141 180.425)" fill="#009688"/><circle r="5.992" transform="matrix(-1 0 0 1 645.732 247.189)" fill="#009688"/><circle r="7.704" transform="matrix(-1 0 0 1 680.311 514.546)" fill="#E1E4E5"/><circle r="11.127" transform="matrix(-1 0 0 1 141.844 434.555)" fill="#E1E4E5"/><circle r="8.469" transform="matrix(-1 0 0 1 270.527 150.239)" fill="#E1E4E5"/><circle r="9.416" transform="matrix(-1 0 0 1 681.696 151.81)" fill="#E1E4E5"/><circle r="8.455" transform="scale(1 -1) rotate(-75 -84.875 -238.371)" fill="#E1E4E5"/><circle r="11.248" transform="matrix(-1 0 0 1 382.042 79.19)" fill="#E1E4E5"/><ellipse rx="8.652" ry="6.922" transform="matrix(-1 0 0 1 740.744 366.706)" fill="#E1E4E5"/><circle r="17.597" transform="matrix(0 1 1 0 174.551 100.552)" fill="#E1E4E5"/><path d="M806.36 318.9h.226c1.34 18.991 15.464 19.283 15.464 19.283s-15.574.304-15.574 22.248c0-21.944-15.575-22.248-15.575-22.248s14.118-.292 15.459-19.283zM237.473 503.525h.201c1.189 17.188 13.722 17.453 13.722 17.453s-13.82.275-13.82 20.135c0-19.86-13.819-20.135-13.819-20.135s12.527-.265 13.716-17.453z" fill="#E1E4E5"/><path d="M607.661 76.5H286.94c-30.805 0-55.777 24.972-55.777 55.777v278.888m251.003-222.607H314.834m167.332 68.886H314.834m167.332 69H314.834" stroke="#009688" stroke-width="31" stroke-linecap="round" stroke-linejoin="round"/><path fill-rule="evenodd" clip-rule="evenodd" d="M607.664 61c31.664 0 57.333 25.669 57.333 57.333v69.722c0 23.963-19.426 43.389-43.389 43.389h-40.277v30.133a131.029 131.029 0 0 0-31 15.48V118.333C550.331 86.669 576 61 607.664 61zm-60.237 431.918c-4.369 8.493-13.221 14.301-23.429 14.301-14.544 0-26.333-11.789-26.333-26.333v-41.833c0-23.963-19.426-43.388-43.389-43.388H175.389c-23.963 0-43.389 19.425-43.389 43.388v27.889c0 39.365 31.912 71.277 71.277 71.277h320.721c21.897 0 40.927-12.275 50.584-30.321a131.198 131.198 0 0 1-27.155-14.98zm33.904-374.585v82.111h40.277c6.842 0 12.389-5.547 12.389-12.389v-69.722c0-14.543-11.79-26.333-26.333-26.333-14.544 0-26.333 11.79-26.333 26.333zM203.277 507.219h269.779c-4.084-7.885-6.391-16.839-6.391-26.333v-41.833c0-6.842-5.547-12.388-12.389-12.388H175.389c-6.842 0-12.389 5.546-12.389 12.388v27.889c0 22.245 18.033 40.277 40.277 40.277z" fill="#009688"/><circle r="91.475" transform="matrix(-1 0 0 1 629.975 386.975)" stroke="#009688" stroke-width="31" stroke-linecap="round" stroke-linejoin="round"/><path d="m712.193 447.954 48.948 44.418a20.585 20.585 0 0 1-9.492 34.913 20.586 20.586 0 0 1-20.08-6.31l-41.9-49.504" stroke="#009688" stroke-width="31" stroke-linecap="round" stroke-linejoin="round"/><defs><linearGradient id="a" x1="716.22" y1="315.592" x2="923.098" y2="151.951" gradientUnits="userSpaceOnUse"><stop stop-color="#fff"/><stop offset="1" stop-color="#EEE"/></linearGradient><linearGradient id="b" x1="226.901" y1="430.941" x2="-36.799" y2="185.929" gradientUnits="userSpaceOnUse"><stop stop-color="#fff"/><stop offset="1" stop-color="#EEE"/></linearGradient></defs></svg>