<svg width="900" height="600" viewBox="0 0 900 600" fill="none" xmlns="http://www.w3.org/2000/svg"><path fill="transparent" d="M0 0h900v600H0z"/><path d="M772.663 385.148h-62.165c-15.232 0-27.995-10.367-27.995-23.499 0-6.566 3.294-12.44 8.234-16.587 4.94-4.147 11.939-6.912 19.761-6.912h9.057c7.822 0 14.821-2.764 19.761-6.911 4.941-4.147 8.234-10.022 8.234-16.588 0-12.786-12.351-23.499-27.995-23.499H529.682c-4.961 0-8.149-6.097-8.149-11.058 0-12.441-11.939-22.462-26.76-22.462h-70.658a6.739 6.739 0 1 1 0-13.478h270.739c11.939 0 23.055-4.147 30.877-10.713 7.822-6.566 12.762-15.896 12.762-25.918 0-20.389-19.761-36.631-43.639-36.631H555.021c-21.941 0-43.659-16.933-65.599-16.933h-78.071c-11.452 0-20.735-9.283-20.735-20.734 0-11.451 9.283-20.735 20.735-20.735h174.817c8.234 0 16.056-2.764 21.408-7.257 5.352-4.492 8.645-10.712 8.645-17.97 0-13.822-13.585-25.226-30.053-25.226H183.125c-8.233 0-16.055 2.764-21.407 7.257-5.352 4.492-8.646 10.713-8.646 17.97 0 13.822 13.586 25.226 30.053 25.226h10.293c13.585 0 25.113 9.331 25.113 21.08 0 5.875-2.882 11.059-7.411 14.86-4.528 3.801-10.704 6.22-17.702 6.22h-49.815c-8.645 0-16.879 3.111-22.643 7.949-5.763 4.838-9.468 11.404-9.468 19.006 0 14.86 14.409 26.609 31.7 26.609h50.637c16.468 0 30.054 11.404 30.054 25.227 0 6.912-3.294 13.132-8.646 17.625-5.352 4.492-12.762 7.257-20.996 7.257h-45.286c-7.41 0-13.997 2.419-18.937 6.566-4.941 4.147-7.822 9.676-7.822 15.896 0 12.441 11.938 22.462 26.759 22.462h36.641c20.996 0 37.875 14.169 37.875 31.793 0 8.64-4.117 16.933-11.116 22.463-6.998 5.874-16.467 9.33-26.759 9.33h-51.05c-10.292 0-19.761 3.456-26.348 9.331-6.999 5.529-11.115 13.477-11.115 22.116 0 17.279 16.879 31.447 37.463 31.447h157.631c17.409 0 34.51 9.677 51.919 9.677h28.708c10.974 0 19.871 8.896 19.871 19.87s-8.897 19.871-19.871 19.871h-69.877c-9.057 0-16.88 3.11-22.643 7.948-5.764 4.838-9.469 11.749-9.469 19.006 0 14.86 14.409 26.955 32.112 26.955h428.156c9.057 0 16.879-3.11 22.642-7.948 5.764-4.838 9.469-11.75 9.469-19.007 0-14.859-14.409-26.954-32.111-26.954H718.32c-13.174 0-23.466-8.985-23.466-19.698 0-5.529 2.47-10.367 6.999-13.823 4.117-3.456 10.292-5.875 16.879-5.875h53.931c9.057 0 16.879-3.11 22.643-7.948 5.764-4.838 9.469-11.75 9.469-19.007 0-15.551-14.409-27.646-32.112-27.646z" fill="url(#a)"/><path d="M821.413 348.039c-10.484 5.201-24.399-1.486-24.399-1.486s3.092-15.117 13.582-20.31c10.484-5.201 24.394 1.479 24.394 1.479s-3.093 15.116-13.577 20.317z" fill="url(#b)"/><path d="M87.593 342.663c15.309 9.175 37.273.693 37.273.693s-2.872-23.355-18.19-32.52c-15.31-9.175-37.264-.704-37.264-.704s2.872 23.355 18.181 32.531z" fill="url(#c)"/><circle cx="784.479" cy="193.752" r="7.12" transform="rotate(180 784.479 193.752)" fill="#009688"/><circle cx="696.768" cy="484.253" r="13.391" transform="rotate(180 696.768 484.253)" fill="#009688"/><circle r="10.629" transform="matrix(-1 0 0 1 195.213 471.336)" fill="#009688"/><circle r="7.117" transform="matrix(-1 0 0 1 261.975 190.462)" fill="#009688"/><circle r="13.216" transform="matrix(-1 0 0 1 79.008 477.193)" fill="#E1E4E5"/><circle r="10.059" transform="matrix(-1 0 0 1 795.083 482.579)" fill="#E1E4E5"/><circle r="12.644" transform="matrix(-1 0 0 1 670.43 126.253)" fill="#E1E4E5"/><circle r="10.042" transform="scale(1 -1) rotate(-75 -66.401 -235.468)" fill="#E1E4E5"/><circle r="13.36" transform="matrix(-1 0 0 1 269.357 62.36)" fill="#E1E4E5"/><ellipse rx="10.277" ry="8.221" transform="matrix(-1 0 0 1 735.831 361.667)" fill="#E1E4E5"/><circle r="16.402" transform="matrix(0 1 1 0 549.559 109.361)" fill="#E1E4E5"/><path d="M195.748 126.098h.146c.867 12.282 10.002 12.471 10.002 12.471s-10.073.197-10.073 14.39c0-14.193-10.073-14.39-10.073-14.39s9.131-.189 9.998-12.471zm8.928 394.069h.14c.832 12.246 9.603 12.435 9.603 12.435s-9.671.196-9.671 14.346c0-14.15-9.671-14.346-9.671-14.346s8.766-.189 9.599-12.435z" fill="#E1E4E5"/><path fill-rule="evenodd" clip-rule="evenodd" d="M450.998 551c136.414 0 247-110.586 247-247s-110.586-247-247-247c-136.415 0-247 110.586-247 247s110.585 247 247 247z" fill="#009688"/><path clip-rule="evenodd" d="M508.897 294.691h-115.82c-30.849 0-55.851 25.003-55.851 55.852v0c.022 30.826 25.025 55.828 55.874 55.828h115.82c30.826 0 55.828-25.002 55.828-55.851v0c.023-30.826-25.002-55.829-55.851-55.829z" stroke="#fff" stroke-width="31" stroke-linecap="round" stroke-linejoin="round"/><path d="M394.283 349.728c.455.455.455 1.16 0 1.615a1.126 1.126 0 0 1-1.615 0 1.126 1.126 0 0 1 0-1.615c.432-.432 1.16-.432 1.615 0m170.284-3.709-7.94-102.398c-1.842-23.705-21.612-41.996-45.386-41.996H390.734c-23.773 0-43.52 18.291-45.363 41.974l-7.94 102.398" stroke="#fff" stroke-width="31" stroke-linecap="round" stroke-linejoin="round"/><defs><linearGradient id="a" x1="466.018" y1="797.134" x2="456.351" y2="-450.444" gradientUnits="userSpaceOnUse"><stop stop-color="#fff"/><stop offset="1" stop-color="#EEE"/></linearGradient><linearGradient id="b" x1="781.153" y1="364.261" x2="867.626" y2="295.86" gradientUnits="userSpaceOnUse"><stop stop-color="#fff"/><stop offset="1" stop-color="#EEE"/></linearGradient><linearGradient id="c" x1="146.836" y1="372.198" x2="23.652" y2="257.744" gradientUnits="userSpaceOnUse"><stop stop-color="#fff"/><stop offset="1" stop-color="#EEE"/></linearGradient></defs></svg>