<svg width="900" height="600" viewBox="0 0 900 600" fill="none" xmlns="http://www.w3.org/2000/svg"><path fill="transparent" d="M0 0h900v600H0z"/><path d="M837.083 393.482h-71.402c-17.496 0-32.155-11.908-32.155-26.991 0-7.542 3.783-14.289 9.457-19.053 5.674-4.763 13.713-7.938 22.698-7.938h10.403c8.984 0 17.023-3.175 22.697-7.939 5.675-4.763 9.457-11.51 9.457-19.052 0-14.686-14.186-26.991-32.154-26.991H557.995c-5.698 0-9.36-7.004-9.36-12.702 0-14.289-13.713-25.8-30.736-25.8H436.74a7.74 7.74 0 0 1 0-15.48h310.972c13.713 0 26.48-4.763 35.465-12.305 8.984-7.541 14.658-18.259 14.658-29.769 0-23.419-22.697-42.075-50.123-42.075H587.099c-25.201 0-50.146-19.449-75.347-19.449H422.08c-13.153 0-23.816-10.663-23.816-23.816 0-13.153 10.663-23.815 23.816-23.815h200.795c9.457 0 18.442-3.176 24.589-8.336 6.147-5.16 9.93-12.304 9.93-20.64 0-15.877-15.604-28.976-34.519-28.976H159.94c-9.458 0-18.442 3.176-24.589 8.336-6.148 5.16-9.93 12.305-9.93 20.64 0 15.877 15.604 28.976 34.519 28.976h11.821c15.605 0 28.845 10.717 28.845 24.212 0 6.748-3.31 12.702-8.511 17.068-5.202 4.366-12.295 7.145-20.334 7.145h-57.216c-9.931 0-19.388 3.572-26.008 9.129-6.62 5.557-10.876 13.099-10.876 21.831 0 17.068 16.55 30.563 36.411 30.563h58.162c18.915 0 34.519 13.099 34.519 28.976 0 7.939-3.782 15.083-9.93 20.243-6.147 5.16-14.659 8.336-24.116 8.336h-52.015c-8.512 0-16.078 2.778-21.752 7.541-5.674 4.764-8.984 11.114-8.984 18.259 0 14.289 13.713 25.8 30.736 25.8h42.085c24.116 0 43.504 16.274 43.504 36.518 0 9.923-4.729 19.449-12.768 25.8-8.039 6.748-18.914 10.717-30.736 10.717h-58.635c-11.822 0-22.698 3.969-30.264 10.717-8.038 6.351-12.767 15.48-12.767 25.403 0 19.847 19.387 36.121 43.031 36.121h181.055c19.996 0 39.638 11.113 59.633 11.113h32.975c12.605 0 22.823 10.219 22.823 22.824 0 12.605-10.218 22.823-22.823 22.823h-80.261c-10.403 0-19.388 3.572-26.008 9.129-6.62 5.557-10.876 13.496-10.876 21.831 0 17.068 16.55 30.961 36.884 30.961h491.78c10.403 0 19.387-3.573 26.007-9.13 6.621-5.557 10.876-13.495 10.876-21.831 0-17.068-16.55-30.96-36.883-30.96h-14.659c-15.132 0-26.953-10.32-26.953-22.625 0-6.351 2.837-11.908 8.038-15.877 4.729-3.969 11.822-6.748 19.388-6.748h61.945c10.403 0 19.388-3.572 26.008-9.129 6.62-5.557 10.876-13.495 10.876-21.831 0-17.862-16.55-31.754-36.884-31.754z" fill="url(#a)"/><path d="M858.653 342.29c-12.042 5.974-28.025-1.707-28.025-1.707s3.552-17.363 15.6-23.328c12.043-5.973 28.019 1.699 28.019 1.699s-3.552 17.363-15.594 23.336z" fill="url(#b)"/><path d="M50.212 344.683c17.584 10.539 42.812.796 42.812.796s-3.299-26.825-20.894-37.352c-17.584-10.539-42.801-.809-42.801-.809s3.299 26.826 20.883 37.365z" fill="url(#c)"/><circle cx="850.657" cy="173.644" r="8.178" transform="rotate(180 850.657 173.644)" fill="#009688"/><circle cx="608.051" cy="507.387" r="15.38" transform="rotate(180 608.051 507.387)" fill="#009688"/><circle r="12.209" transform="matrix(-1 0 0 1 173.825 492.478)" fill="#009688"/><circle r="8.174" transform="matrix(-1 0 0 1 815.254 259.45)" fill="#009688"/><circle r="15.18" transform="matrix(-1 0 0 1 102.633 499.01)" fill="#E1E4E5"/><circle r="11.554" transform="matrix(-1 0 0 1 862.836 505.39)" fill="#E1E4E5"/><circle r="14.523" transform="matrix(-1 0 0 1 735.898 87.694)" fill="#E1E4E5"/><circle r="11.535" transform="scale(1 -1) rotate(-75 -69.604 -213.17)" fill="#E1E4E5"/><circle r="15.345" transform="matrix(-1 0 0 1 285.358 81.425)" fill="#E1E4E5"/><ellipse rx="11.804" ry="9.443" transform="matrix(-1 0 0 1 794.779 366.511)" fill="#E1E4E5"/><path d="M127.694 87.386h.168c.996 14.108 11.488 14.325 11.488 14.325s-11.57.226-11.57 16.527c0-16.301-11.57-16.527-11.57-16.527s10.488-.217 11.484-14.325zm56.999 461.178h.162c.956 14.067 11.029 14.283 11.029 14.283s-11.108.225-11.108 16.478c0-16.253-11.108-16.478-11.108-16.478s10.069-.216 11.025-14.283z" fill="#E1E4E5"/><path fill-rule="evenodd" clip-rule="evenodd" d="M489.619 319.015c-32.405 0-58.674 26.27-58.674 58.675v29.337c0 32.405 26.269 58.674 58.674 58.674h25.446v43.976a14.667 14.667 0 0 0 23.931 11.374l59.88-48.762a29.335 29.335 0 0 1 18.525-6.589h77.577c32.405 0 58.674-26.269 58.674-58.674v-29.337c0-32.405-26.269-58.674-58.674-58.674H489.619zM239.315 41.882c-32.405 0-58.674 26.27-58.674 58.674v29.337c0 32.405 26.269 58.674 58.674 58.674h77.577a29.337 29.337 0 0 1 18.525 6.589l59.88 48.762a14.667 14.667 0 0 0 23.931-11.374v-43.977h25.446c32.405 0 58.674-26.269 58.674-58.674v-29.337c0-32.404-26.269-58.674-58.674-58.674H239.315zM191.89 515.374v-11.911c.097-33.888 27.544-61.335 61.432-61.432h82.495c33.888.097 61.335 27.544 61.432 61.432v11.911c0 8.101-6.567 14.668-14.669 14.668H206.558c-8.101 0-14.668-6.567-14.668-14.668z" fill="#009688"/><circle cx="294.565" cy="347.474" r="58.674" fill="#009688"/><path fill-rule="evenodd" clip-rule="evenodd" d="M537.053 258.241V246.33c.096-33.888 27.544-61.335 61.431-61.432h82.496c33.888.097 61.335 27.544 61.432 61.432v11.911c0 8.101-6.568 14.668-14.669 14.668H551.721c-8.101 0-14.668-6.567-14.668-14.668z" fill="#009688"/><circle cx="639.727" cy="90.328" r="58.674" fill="#009688"/><defs><linearGradient id="a" x1="484.87" y1="866.689" x2="473.767" y2="-566.281" gradientUnits="userSpaceOnUse"><stop stop-color="#fff"/><stop offset="1" stop-color="#EEE"/></linearGradient><linearGradient id="b" x1="812.41" y1="360.923" x2="911.734" y2="282.358" gradientUnits="userSpaceOnUse"><stop stop-color="#fff"/><stop offset="1" stop-color="#EEE"/></linearGradient><linearGradient id="c" x1="118.258" y1="378.607" x2="-23.231" y2="247.145" gradientUnits="userSpaceOnUse"><stop stop-color="#fff"/><stop offset="1" stop-color="#EEE"/></linearGradient></defs></svg>