<svg width="900" height="600" viewBox="0 0 900 600" fill="none" xmlns="http://www.w3.org/2000/svg"><path fill="transparent" d="M0 0h900v600H0z"/><path d="M819.503 403.652h-68.441c-16.771 0-30.822-11.414-30.822-25.872 0-7.229 3.626-13.697 9.065-18.262 5.439-4.566 13.145-7.61 21.757-7.61h9.971c8.612 0 16.317-3.043 21.756-7.609 5.439-4.565 9.065-11.033 9.065-18.262 0-14.077-13.597-25.872-30.821-25.872H551.99c-5.462 0-8.972-6.713-8.972-12.175 0-13.696-13.144-24.73-29.461-24.73h-77.793a7.419 7.419 0 1 1 0-14.838h298.074c13.144 0 25.382-4.565 33.994-11.794 8.612-7.229 14.051-17.502 14.051-28.535 0-22.447-21.756-40.329-48.045-40.329H579.887c-24.156 0-48.067-18.643-72.223-18.643h-85.953c-12.607 0-22.827-10.22-22.827-22.828 0-12.607 10.22-22.828 22.827-22.828h192.468c9.065 0 17.677-3.043 23.569-7.99 5.892-4.945 9.518-11.794 9.518-19.784 0-15.218-14.957-27.774-33.087-27.774H170.444c-9.065 0-17.677 3.044-23.569 7.99-5.893 4.946-9.519 11.795-9.519 19.784 0 15.219 14.958 27.774 33.088 27.774h11.331c14.957 0 27.649 10.273 27.649 23.209 0 6.467-3.173 12.174-8.159 16.36-4.986 4.185-11.785 6.848-19.49 6.848h-54.844c-9.518 0-18.583 3.424-24.929 8.751-6.345 5.326-10.424 12.555-10.424 20.925 0 16.36 15.863 29.296 34.9 29.296h55.75c18.13 0 33.088 12.555 33.088 27.774 0 7.609-3.626 14.457-9.518 19.403-5.893 4.946-14.051 7.99-23.116 7.99h-49.858c-8.159 0-15.411 2.663-20.85 7.229-5.439 4.566-8.612 10.653-8.612 17.501 0 13.697 13.145 24.731 29.462 24.731h40.339c23.116 0 41.7 15.599 41.7 35.002 0 9.512-4.533 18.643-12.238 24.73-7.706 6.468-18.13 10.273-29.462 10.273H116.96c-11.332 0-21.756 3.805-29.008 10.272-7.706 6.088-12.238 14.839-12.238 24.35 0 19.023 18.583 34.622 41.246 34.622h173.546c19.166 0 37.994 10.653 57.16 10.653h31.607c12.082 0 21.877 9.795 21.877 21.877 0 12.082-9.795 21.877-21.877 21.877h-76.932c-9.972 0-18.584 3.424-24.929 8.75-6.346 5.327-10.425 12.936-10.425 20.926 0 16.36 15.864 29.676 35.354 29.676h471.383c9.972 0 18.584-3.424 24.929-8.75 6.346-5.327 10.425-12.936 10.425-20.926 0-16.36-15.864-29.676-35.354-29.676h-14.051c-14.504 0-25.835-9.892-25.835-21.687 0-6.087 2.719-11.414 7.705-15.218 4.533-3.805 11.332-6.468 18.584-6.468h59.376c9.971 0 18.583-3.424 24.929-8.751 6.345-5.326 10.425-12.936 10.425-20.925 0-17.121-15.864-30.437-35.354-30.437z" fill="url(#a)"/><path d="M844.539 358.628c-11.543 5.726-26.863-1.637-26.863-1.637s3.405-16.642 14.954-22.36c11.542-5.726 26.856 1.629 26.856 1.629s-3.405 16.642-14.947 22.368z" fill="url(#b)"/><path d="M65.266 356.876c16.855 10.102 41.037.764 41.037.764s-3.162-25.713-20.027-35.804c-16.855-10.102-41.027-.775-41.027-.775s3.162 25.713 20.017 35.815z" fill="url(#c)"/><circle cx="771.563" cy="123.975" r="7.839" transform="rotate(180 771.563 123.975)" fill="#009688"/><circle cx="790.578" cy="269.601" r="14.742" transform="rotate(180 790.578 269.601)" fill="#009688"/><circle r="11.703" transform="matrix(-1 0 0 1 137.703 428.703)" fill="#009688"/><circle r="7.835" transform="matrix(-1 0 0 1 257.254 189.309)" fill="#009688"/><circle r="14.551" transform="matrix(-1 0 0 1 163.938 348.678)" fill="#E1E4E5"/><circle r="11.074" transform="matrix(-1 0 0 1 573.323 479.519)" fill="#E1E4E5"/><circle r="13.92" transform="matrix(-1 0 0 1 674.154 131.158)" fill="#E1E4E5"/><circle r="11.056" transform="scale(1 -1) rotate(-75 -80.998 -219.43)" fill="#E1E4E5"/><circle r="14.708" transform="matrix(-1 0 0 1 265.382 48.273)" fill="#E1E4E5"/><ellipse rx="11.314" ry="9.051" transform="matrix(-1 0 0 1 778.952 377.799)" fill="#E1E4E5"/><circle r="18.058" transform="matrix(0 1 1 0 498.835 344.479)" fill="#E1E4E5"/><path d="M184.34 118.446h.161c.955 13.523 11.012 13.731 11.012 13.731s-11.09.217-11.09 15.842c0-15.625-11.09-15.842-11.09-15.842s10.053-.208 11.007-13.731zm-35.394 362.109h.154c.917 13.483 10.572 13.69 10.572 13.69s-10.647.216-10.647 15.795c0-15.579-10.647-15.795-10.647-15.795s9.651-.207 10.568-13.69z" fill="#E1E4E5"/><path fill-rule="evenodd" clip-rule="evenodd" d="M405.056 55.584H257.037c-32.564 0-59.207 26.643-59.207 59.207v148.018c0 32.565 26.643 59.208 59.207 59.208h148.019c32.564 0 59.207-26.643 59.207-59.208V114.791c0-32.564-26.643-59.207-59.207-59.207z" fill="#009688" stroke="#009688" stroke-width="31" stroke-linecap="round" stroke-linejoin="round"/><path d="M730.696 300.009H553.074m177.622-102.604H553.074M730.696 94.802H553.074m177.622 410.414H197.83m532.866-102.604H197.83" stroke="#009688" stroke-width="31" stroke-linecap="round" stroke-linejoin="round"/><path d="m310.325 144.401 47.366 44.405-47.366 44.406" stroke="#fff" stroke-width="31" stroke-linecap="round" stroke-linejoin="round"/><defs><linearGradient id="a" x1="481.898" y1="857.232" x2="471.255" y2="-516.305" gradientUnits="userSpaceOnUse"><stop stop-color="#fff"/><stop offset="1" stop-color="#EEE"/></linearGradient><linearGradient id="b" x1="800.214" y1="376.488" x2="895.418" y2="301.181" gradientUnits="userSpaceOnUse"><stop stop-color="#fff"/><stop offset="1" stop-color="#EEE"/></linearGradient><linearGradient id="c" x1="130.49" y1="389.394" x2="-5.131" y2="263.384" gradientUnits="userSpaceOnUse"><stop stop-color="#fff"/><stop offset="1" stop-color="#EEE"/></linearGradient></defs></svg>