<svg width="900" height="600" viewBox="0 0 900 600" fill="none" xmlns="http://www.w3.org/2000/svg"><path fill="transparent" d="M0 0h900v600H0z"/><path d="M834.942 275.116c-26.633 13.211-61.981-3.776-61.981-3.776s7.856-38.399 34.503-51.592c26.632-13.211 61.966 3.758 61.966 3.758s-7.856 38.399-34.488 51.61z" fill="url(#a)"/><path d="M78.447 371.67c34.798 20.856 84.722 1.576 84.722 1.576s-6.527-53.087-41.347-73.919c-34.798-20.856-84.702-1.6-84.702-1.6s6.528 53.086 41.327 73.943z" fill="url(#b)"/><circle cx="782.54" cy="186.589" r="14.542" transform="rotate(180 782.54 186.589)" fill="#009688"/><circle r="13.633" transform="matrix(-1 0 0 1 125.231 172.803)" fill="#009688"/><circle r="6.362" transform="matrix(-1 0 0 1 583.514 534.258)" fill="#009688"/><circle r="8.18" transform="matrix(-1 0 0 1 694.542 527.576)" fill="#E1E4E5"/><circle r="11.815" transform="matrix(-1 0 0 1 122.793 442.641)" fill="#E1E4E5"/><circle r="9.998" transform="matrix(-1 0 0 1 719.149 138.894)" fill="#E1E4E5"/><circle r="8.978" transform="scale(1 -1) rotate(-75 -91.798 -225.59)" fill="#E1E4E5"/><ellipse rx="9.187" ry="7.35" transform="matrix(-1 0 0 1 758.711 370.598)" fill="#E1E4E5"/><circle r="18.684" transform="scale(1 -1) rotate(-75 285.737 -462.62)" fill="#E1E4E5"/><path d="M828.381 319.837h.241c1.423 20.165 16.42 20.476 16.42 20.476s-16.537.323-16.537 23.623c0-23.3-16.537-23.623-16.537-23.623s14.99-.311 16.413-20.476zM224.332 515.875h.214c1.263 18.25 14.569 18.531 14.569 18.531s-14.673.292-14.673 21.38c0-21.088-14.674-21.38-14.674-21.38s13.302-.281 14.564-18.531z" fill="#E1E4E5"/><path fill-rule="evenodd" clip-rule="evenodd" d="M532.377 469.413c-48.602 35.221-89.824 56.342-91.624 56.342-4.501 0-253.601-129.905-253.601-288.552 0-78.333 60.032-162.307 149.346-162.307 51.272 0 84.814 25.651 104.255 48.182 19.441-22.531 52.982-48.182 104.254-48.182 89.314 0 149.346 83.974 149.346 162.307 0 16.501-3.21 32.581-8.07 48.332" fill="#009688"/><path d="M532.377 469.413c-48.602 35.221-89.824 56.342-91.624 56.342-4.501 0-253.601-129.905-253.601-288.552 0-78.333 60.032-162.307 149.346-162.307 51.272 0 84.814 25.651 104.255 48.182 19.441-22.531 52.982-48.182 104.254-48.182 89.314 0 149.346 83.974 149.346 162.307 0 16.501-3.21 32.581-8.07 48.332" stroke="#009688" stroke-width="31" stroke-linecap="round" stroke-linejoin="round"/><path fill-rule="evenodd" clip-rule="evenodd" d="M692.013 290.905c46.862 46.862 46.862 122.856 0 169.718-46.862 46.862-122.855 46.862-169.717 0-46.862-46.862-46.862-122.856 0-169.718 46.892-46.892 122.855-46.892 169.717 0z" fill="#009688"/><path d="M692.013 290.905c46.862 46.862 46.862 122.856 0 169.718-46.862 46.862-122.855 46.862-169.717 0-46.862-46.862-46.862-122.856 0-169.718 46.892-46.892 122.855-46.892 169.717 0" stroke="#fff" stroke-width="31" stroke-linecap="round" stroke-linejoin="round"/><circle cx="729.36" cy="304.36" r="16.36" transform="rotate(-180 729.36 304.36)" fill="#009688"/><path d="M647.072 375.625h-79.803m39.901 39.902v-79.803" stroke="#fff" stroke-width="31" stroke-linecap="round" stroke-linejoin="round"/><circle r="7.241" transform="matrix(-1 0 0 1 180.393 502.565)" fill="#E1E4E5"/><defs><linearGradient id="a" x1="732.67" y1="316.325" x2="952.335" y2="142.569" gradientUnits="userSpaceOnUse"><stop stop-color="#fff"/><stop offset="1" stop-color="#EEE"/></linearGradient><linearGradient id="b" x1="213.107" y1="438.804" x2="-66.893" y2="178.647" gradientUnits="userSpaceOnUse"><stop stop-color="#fff"/><stop offset="1" stop-color="#EEE"/></linearGradient></defs></svg>