<svg width="900" height="600" viewBox="0 0 900 600" fill="none" xmlns="http://www.w3.org/2000/svg"><path fill="transparent" d="M0 0h900v600H0z"/><path d="M719.09 254.716c16.478-54.327-71.008-88.851-71.008-88.851s-104.085 48.007-120.783 40.258c-16.698-7.749 80.982-58.427 80.982-58.427-28.191-21.667-127.661-32.723-127.661-32.723s-54.49 97.878-68.767 86.256c-14.278-11.621 52.671-84.209 52.671-84.209-34.483-9.449-82.777 7.479-82.777 7.479-68.385 33.976-21.226 120.039-21.226 120.039s-19.614 33.515-63.553 58.543c0 0-8.943 4.102-21.017 13.033l7.913 4.952a88.553 88.553 0 0 1 5.99-4.796.09.09 0 0 1 .042-.028c.034-.021.055-.042.09-.063a476.24 476.24 0 0 1 5.474-3.646l.007-.007.007-.007c5.38-3.228 9.206-5.696 11.811-7.574l.02-.021c16.546-10.332 39.095-23.165 48.596-22.868 0 0-.107-1.78.573-4.691-.179 1.496-.38 3.055-.573 4.691-4.613 37.51 60.116 84.729 102.708 100.595 42.591 15.866 32.799-5.071 23.278-35.064-9.521-29.994-54.955-52.077-63.295-66.721-8.341-14.643 14.28-9.917 38.243 7.76 23.949 17.676 20.8 50.714 59.026 80.012 38.227 29.299 117.032-27.795 117.032-27.795-33.52-8.842-74.163-55.82-70.048-66.705 4.122-10.892 78.046 36.695 91.471 41.053 13.446 4.366 48.296-6.148 64.774-60.475z" fill="url(#a)"/><path d="M248.409 206.096c0-20.767 16.835-37.602 37.603-37.602h296.641c20.767 0 37.602 16.835 37.602 37.602v230.837c0 20.768-16.835 37.603-37.602 37.603H286.012c-20.768 0-37.603-16.835-37.603-37.603V206.096z" fill="#009688"/><circle cx="291.756" cy="199.307" r="7.834" fill="#fff"/><circle cx="318.914" cy="199.307" r="7.834" fill="#fff"/><circle cx="346.071" cy="199.307" r="7.834" fill="#fff"/><rect x="283.923" y="376.352" width="253.816" height="16.712" rx="8.356" fill="#fff"/><rect x="283.923" y="327.26" width="236.06" height="17.757" rx="8.878" fill="#fff"/><rect x="283.923" y="277.123" width="265.306" height="16.712" rx="8.356" fill="#fff"/><path d="M184.149 528.778c-.823-2.231 13.535-59.574 15.453-61.506 1.923-1.923 63.874-3.116 63.874-3.116s27.915-26.31 50.997-39.046c9.103-5.031 21.248-8.048 22.792-3.437.959 2.857-3.259 8.384-8.622 13.954-.012.018-.031.034-.049.05-7.466 7.747-17.106 15.542-18.013 16.274-.051.035-.07.051-.07.051s50.928.738 58.464 1.37c7.54.619 17.48 1.053 17.677 6.278.185 4.801-13.353 6.737-14.158 6.851.84-.007 18.56-.115 19.353 6.72.588 5.084-18.813 9.205-19.386 9.318.457.004 9.163.052 8.993 4.127-.282 6.7-19.942 9.239-20.745 9.346.427.01 7.419.229 6.944 3.893-1.178 9.074-68.596 17.036-89.04 18.881-20.463 1.833-93.634 12.226-94.464 9.992z" fill="#F8AE9D"/><path fill="url(#b)" d="M653.68 405.598h69.982v68.938H653.68z"/><rect x="671.437" y="387.841" width="69.982" height="68.938" rx="10.445" fill="#009688"/><rect x="706.266" y="182.419" width="34.352" height="34.352" rx="10.445" transform="rotate(45 706.266 182.419)" fill="#009688"/><circle r="7.834" transform="matrix(1 0 0 -1 661.514 238.998)" fill="#E1E4E5"/><path d="M207.56 423.953s13.687-63.444-4.948-110.475c-2.475-6.249-11.454-5.881-13.51.534-.034.106-.07.216-.103.328-3.327 11.01 15.771 68.807 18.561 109.613zm-6.766 18.747s-4.847-86.811-46.261-138.644c-2.524-3.16-7.156-3.91-10.411-1.489-2.117 1.579-3.857 4.579-4.002 10.145-.38 14.85 43.221 80.184 60.674 129.988z" fill="#009688"/><path clip-rule="evenodd" d="m176.86 285.479-13.056-12.534 13.056-12.534 13.057 12.534-13.057 12.534zm491.965 81.472-13.056-13.056 13.056-13.057 13.057 13.057-13.057 13.056z" stroke="#E1E4E5" stroke-width="5.313" stroke-linecap="round" stroke-linejoin="round"/><path d="M319.869 131.248c-4.348 6.329-1.292 15.985-1.292 15.985s10.104-.61 14.448-6.943c4.348-6.328 1.296-15.981 1.296-15.981s-10.104.611-14.452 6.939z" fill="#E1E4E5"/><path d="M769.147 340.327c-20.625 20.993-59.193 16.567-59.193 16.567s-5.104-38.462 15.54-59.441c20.625-20.992 59.175-16.579 59.175-16.579s5.104 38.461-15.522 59.453z" fill="url(#c)"/><path d="M654.247 138.617c-6.255 6.367-17.953 5.024-17.953 5.024s-1.548-11.665 4.713-18.029c6.256-6.367 17.948-5.028 17.948-5.028s1.548 11.666-4.708 18.033z" fill="url(#d)"/><path d="M224.827 218.317c9.18 16.217 4.824 40.791 4.824 40.791s-26.27-7.227-35.451-23.445c-9.18-16.217-9.767-33.24-1.316-38.034 8.464-4.798 22.763 4.471 31.943 20.688z" fill="url(#e)"/><path d="M696.108 272.945h-.251c-1.483 21.016-17.109 21.339-17.109 21.339s17.231.337 17.231 24.62c0-24.283 17.232-24.62 17.232-24.62s-15.62-.323-17.103-21.339z" fill="#E1E4E5"/><defs><linearGradient id="a" x1="199.058" y1="541.055" x2="919.128" y2="-168.449" gradientUnits="userSpaceOnUse"><stop stop-color="#fff"/><stop offset="1" stop-color="#EEE"/></linearGradient><linearGradient id="b" x1="690.163" y1="513.186" x2="688.069" y2="330.605" gradientUnits="userSpaceOnUse"><stop stop-color="#fff"/><stop offset="1" stop-color="#EEE"/></linearGradient><linearGradient id="c" x1="686.857" y1="412.032" x2="835.965" y2="178.292" gradientUnits="userSpaceOnUse"><stop stop-color="#fff"/><stop offset="1" stop-color="#EEE"/></linearGradient><linearGradient id="d" x1="629.288" y1="160.365" x2="674.514" y2="89.47" gradientUnits="userSpaceOnUse"><stop stop-color="#fff"/><stop offset="1" stop-color="#EEE"/></linearGradient><linearGradient id="e" x1="247.335" y1="217.02" x2="152.186" y2="243.155" gradientUnits="userSpaceOnUse"><stop stop-color="#fff"/><stop offset="1" stop-color="#EEE"/></linearGradient></defs></svg>