<svg width="900" height="600" viewBox="0 0 900 600" fill="none" xmlns="http://www.w3.org/2000/svg"><path fill="transparent" d="M0 0h900v600H0z"/><path d="M726.385 149.78c20.461 35.44 11.972 84.685-21.192 136.737-33 51.797-89.655 104.95-162.273 146.876s-146.978 64.415-208.335 67.095c-61.66 2.694-108.552-14.576-129.014-50.016-20.461-35.44-11.971-84.685 21.192-136.738 33-51.796 89.655-104.949 162.273-146.875 72.619-41.926 146.978-64.415 208.335-67.095 61.661-2.694 108.552 14.576 129.014 50.016z" stroke="#E1E4E5" stroke-width="11"/><circle cx="480.5" cy="307.336" r="227" fill="#fff" stroke="#E1E4E5" stroke-width="11"/><circle cx="735.5" cy="429.5" r="21.5" fill="#009688"/><circle cx="143.5" cy="310.5" r="21.5" fill="#009688"/><path fill-rule="evenodd" clip-rule="evenodd" d="M705.093 498.307h4.793c1.16 0 2.093.943 2.093 2.092v4.794a2.094 2.094 0 0 1-2.093 2.092h-4.793a2.1 2.1 0 0 1-2.093-2.092v-4.794a2.088 2.088 0 0 1 2.093-2.092zm16.62 0h4.794a2.1 2.1 0 0 1 2.092 2.092v4.794a2.094 2.094 0 0 1-2.092 2.092h-4.794a2.1 2.1 0 0 1-2.093-2.092v-4.794a2.1 2.1 0 0 1 2.093-2.092zm16.631 0h4.794a2.1 2.1 0 0 1 2.092 2.092v4.794a2.094 2.094 0 0 1-2.092 2.092h-4.794a2.1 2.1 0 0 1-2.092-2.092v-4.794a2.087 2.087 0 0 1 2.092-2.092zm16.62 0h4.794a2.1 2.1 0 0 1 2.092 2.092v4.794a2.094 2.094 0 0 1-2.092 2.092h-4.794a2.102 2.102 0 0 1-2.102-2.092v-4.794a2.115 2.115 0 0 1 2.102-2.092zm16.622 0h4.794c1.159 0 2.102.943 2.102 2.092v4.794a2.096 2.096 0 0 1-2.102 2.092h-4.794a2.1 2.1 0 0 1-2.092-2.092v-4.794a2.1 2.1 0 0 1 2.092-2.092zm-49.263 18.124h4.793a2.1 2.1 0 0 1 2.093 2.092v4.803a2.1 2.1 0 0 1-2.093 2.093h-4.793a2.094 2.094 0 0 1-2.093-2.093v-4.793a2.09 2.09 0 0 1 2.093-2.102zm16.62 0h4.793a2.1 2.1 0 0 1 2.093 2.092v4.803a2.1 2.1 0 0 1-2.093 2.093h-4.793a2.1 2.1 0 0 1-2.093-2.093v-4.793a2.091 2.091 0 0 1 2.093-2.102zm16.621 0h4.794c1.159 0 2.102.943 2.102 2.092v4.803c0 1.15-.943 2.093-2.102 2.093h-4.794a2.1 2.1 0 0 1-2.092-2.093v-4.793c0-1.159.943-2.102 2.092-2.102zm-17.22-37.594h4.794a2.1 2.1 0 0 1 2.092 2.092v4.794a2.094 2.094 0 0 1-2.092 2.092h-4.794a2.1 2.1 0 0 1-2.092-2.092v-4.794a2.087 2.087 0 0 1 2.092-2.092zm16.62 0h4.794a2.1 2.1 0 0 1 2.092 2.092v4.794a2.094 2.094 0 0 1-2.092 2.092h-4.794a2.102 2.102 0 0 1-2.102-2.092v-4.794a2.115 2.115 0 0 1 2.102-2.092zM541.092 408.47h4.794c1.159 0 2.093.943 2.093 2.092v4.794a2.095 2.095 0 0 1-2.093 2.093h-4.794a2.101 2.101 0 0 1-2.092-2.093v-4.794a2.087 2.087 0 0 1 2.092-2.092zm16.62 0h4.794a2.1 2.1 0 0 1 2.093 2.092v4.794a2.095 2.095 0 0 1-2.093 2.093h-4.794a2.101 2.101 0 0 1-2.092-2.093v-4.794a2.1 2.1 0 0 1 2.092-2.092zm16.632 0h4.794a2.1 2.1 0 0 1 2.092 2.092v4.794a2.095 2.095 0 0 1-2.092 2.093h-4.794a2.101 2.101 0 0 1-2.092-2.093v-4.794a2.087 2.087 0 0 1 2.092-2.092zm16.62 0h4.794a2.1 2.1 0 0 1 2.092 2.092v4.794a2.095 2.095 0 0 1-2.092 2.093h-4.794a2.103 2.103 0 0 1-2.102-2.093v-4.794a2.115 2.115 0 0 1 2.102-2.092zm16.622 0h4.794c1.159 0 2.102.943 2.102 2.092v4.794a2.097 2.097 0 0 1-2.102 2.093h-4.794a2.102 2.102 0 0 1-2.093-2.093v-4.794c0-1.149.944-2.092 2.093-2.092zm-49.264 18.124h4.794a2.1 2.1 0 0 1 2.093 2.092v4.804a2.1 2.1 0 0 1-2.093 2.092h-4.794a2.094 2.094 0 0 1-2.092-2.092v-4.794a2.09 2.09 0 0 1 2.092-2.102zm16.621 0h4.793a2.1 2.1 0 0 1 2.093 2.092v4.804a2.1 2.1 0 0 1-2.093 2.092h-4.793a2.1 2.1 0 0 1-2.093-2.092v-4.794a2.09 2.09 0 0 1 2.093-2.102zm16.621 0h4.794c1.159 0 2.102.943 2.102 2.092v4.804a2.102 2.102 0 0 1-2.102 2.092h-4.794a2.1 2.1 0 0 1-2.092-2.092v-4.794c0-1.159.943-2.102 2.092-2.102zM574.344 389h4.794a2.1 2.1 0 0 1 2.092 2.092v4.794a2.095 2.095 0 0 1-2.092 2.093l-4.794-.001a2.1 2.1 0 0 1-2.092-2.092v-4.794a2.087 2.087 0 0 1 2.092-2.092zm16.62 0h4.794a2.1 2.1 0 0 1 2.092 2.092v4.794a2.095 2.095 0 0 1-2.092 2.093l-4.794-.001a2.102 2.102 0 0 1-2.102-2.092v-4.794a2.115 2.115 0 0 1 2.102-2.092zM115.092 498.307h4.794c1.159 0 2.093.943 2.093 2.092v4.794a2.095 2.095 0 0 1-2.093 2.092h-4.794a2.1 2.1 0 0 1-2.092-2.092v-4.794a2.087 2.087 0 0 1 2.092-2.092zm16.62 0h4.794a2.1 2.1 0 0 1 2.093 2.092v4.794a2.094 2.094 0 0 1-2.093 2.092h-4.794a2.1 2.1 0 0 1-2.092-2.092v-4.794a2.1 2.1 0 0 1 2.092-2.092zm16.632 0h4.794a2.1 2.1 0 0 1 2.092 2.092v4.794a2.094 2.094 0 0 1-2.092 2.092h-4.794a2.1 2.1 0 0 1-2.092-2.092v-4.794a2.087 2.087 0 0 1 2.092-2.092zm16.62 0h4.794a2.1 2.1 0 0 1 2.092 2.092v4.794a2.094 2.094 0 0 1-2.092 2.092h-4.794a2.102 2.102 0 0 1-2.102-2.092v-4.794a2.115 2.115 0 0 1 2.102-2.092zm16.622 0h4.794c1.159 0 2.102.943 2.102 2.092v4.794a2.096 2.096 0 0 1-2.102 2.092h-4.794a2.101 2.101 0 0 1-2.093-2.092v-4.794c0-1.149.944-2.092 2.093-2.092zm-49.264 18.124h4.794a2.1 2.1 0 0 1 2.093 2.092v4.803a2.1 2.1 0 0 1-2.093 2.093h-4.794a2.094 2.094 0 0 1-2.092-2.093v-4.793a2.09 2.09 0 0 1 2.092-2.102zm16.621 0h4.793a2.1 2.1 0 0 1 2.093 2.092v4.803a2.1 2.1 0 0 1-2.093 2.093h-4.793a2.1 2.1 0 0 1-2.093-2.093v-4.793a2.09 2.09 0 0 1 2.093-2.102zm16.621 0h4.794c1.159 0 2.102.943 2.102 2.092v4.803c0 1.15-.943 2.093-2.102 2.093h-4.794a2.1 2.1 0 0 1-2.092-2.093v-4.793c0-1.159.943-2.102 2.092-2.102zm-17.22-37.594h4.794a2.1 2.1 0 0 1 2.092 2.092v4.794a2.094 2.094 0 0 1-2.092 2.092h-4.794a2.1 2.1 0 0 1-2.092-2.092v-4.794a2.087 2.087 0 0 1 2.092-2.092zm16.62 0h4.794a2.1 2.1 0 0 1 2.092 2.092v4.794a2.094 2.094 0 0 1-2.092 2.092h-4.794a2.102 2.102 0 0 1-2.102-2.092v-4.794a2.115 2.115 0 0 1 2.102-2.092z" fill="#E1E4E5"/><path fill-rule="evenodd" clip-rule="evenodd" d="M707 333.821V214.545c0-5.658-1.876-11.092-5.2-15.085l-25.147-30.204c-3.333-4.003-7.858-6.256-12.569-6.256h-99.306c-9.823 0-17.778 9.555-17.778 21.353v149.468c0 11.798 7.955 21.353 17.778 21.353h124.444c9.822 0 17.778-9.555 17.778-21.353z" fill="#009688" stroke="#009688" stroke-width="15.96" stroke-linecap="round" stroke-linejoin="round"/><path fill-rule="evenodd" clip-rule="evenodd" d="M654.634 307.904c0-8.84 7.271-16.014 16.23-16.014s16.23 7.174 16.23 16.014c0 8.839-7.271 16.013-16.23 16.013s-16.23-7.174-16.23-16.013z" fill="#fff"/><path d="M577.161 232.784h99.979m-99.979 37.492h99.979m-99.979 37.411h57.564m-57.564-106.471h47.176" stroke="#fff" stroke-width="18.746" stroke-linecap="round" stroke-linejoin="round"/><path fill-rule="evenodd" clip-rule="evenodd" d="M300.355 172h-74.539C209.417 172 196 185.417 196 201.816v74.539c0 16.398 13.417 29.815 29.816 29.815h74.539c16.398 0 29.815-13.417 29.815-29.815v-74.539c0-16.399-13.417-29.816-29.815-29.816z" fill="#009688" stroke="#009688" stroke-width="15.611" stroke-linecap="round" stroke-linejoin="round"/><path d="m252.65 216.727 23.853 22.361-23.853 22.362" stroke="#fff" stroke-width="15.611" stroke-linecap="round" stroke-linejoin="round"/><circle cx="421.844" cy="380.844" r="69.844" stroke="#009688" stroke-width="31" stroke-linecap="round" stroke-linejoin="round"/><path d="m471.228 430.229 37.918 37.917" stroke="#009688" stroke-width="31" stroke-linecap="round" stroke-linejoin="round"/><path d="M391 201h77m-77 32h77m-77 37h77" stroke="#009688" stroke-width="18" stroke-linecap="round" stroke-linejoin="round"/><circle r="18.158" transform="matrix(-1 0 0 1 184.158 139.408)" fill="#009688"/><circle r="8.474" transform="matrix(-1 0 0 1 773.446 256.825)" fill="#009688"/><circle r="10.895" transform="matrix(-1 0 0 1 236.895 408.895)" fill="#E1E4E5"/><circle r="7.5" transform="matrix(-1 0 0 1 352.5 530.5)" fill="#E1E4E5"/><circle r="11.977" transform="matrix(-1 0 0 1 264.977 95.977)" fill="#E1E4E5"/><circle r="13.316" transform="matrix(-1 0 0 1 768.316 149.316)" fill="#E1E4E5"/><circle r="11.957" transform="scale(1 -1) rotate(-75 -99.62 -182.707)" fill="#E1E4E5"/><ellipse rx="12.236" ry="9.789" transform="matrix(-1 0 0 1 755.236 313.789)" fill="#E1E4E5"/><circle r="12.436" transform="scale(1 -1) rotate(-75 256.28 -410.49)" fill="#E1E4E5"/><path d="M789.862 330h.32c1.895 26.858 21.87 27.271 21.87 27.271s-22.026.43-22.026 31.464c0-31.034-22.026-31.464-22.026-31.464s19.966-.413 21.862-27.271zM500.398 139h.284c1.682 24.308 19.406 24.682 19.406 24.682s-19.544.39-19.544 28.477c0-28.087-19.544-28.477-19.544-28.477s17.716-.374 19.398-24.682z" fill="#E1E4E5"/></svg>