<svg width="900" height="600" viewBox="0 0 900 600" fill="none" xmlns="http://www.w3.org/2000/svg"><path fill="transparent" d="M0 0h900v600H0z"/><path d="M433.318 378.941c-18.216-3.987-26.162-22.436-32.51-53.933-4.77-23.689-9.427-45.198-3.879-72.027 3.877-18.777 11.873-35.138 20.575-47.951 9.426-13.884 19.403-32.296 35.667-29.704 22.342 3.566 55.407 53.419 44.801 114.819-11.659 67.45-46.849 92.701-64.654 88.796z" fill="url(#a)"/><path d="M672.92 245.058c-19.006 9.428-44.231-2.695-44.231-2.695s5.607-27.402 24.622-36.817c19.006-9.427 44.221 2.682 44.221 2.682s-5.606 27.402-24.612 36.83z" fill="url(#b)"/><path d="M135.462 436.125c33.656 20.172 81.942 1.525 81.942 1.525s-6.314-51.344-39.99-71.492c-33.656-20.172-81.921-1.548-81.921-1.548s6.313 51.344 39.969 71.515z" fill="url(#c)"/><circle cx="742.781" cy="158.815" r="14.065" transform="rotate(180 742.781 158.815)" fill="#009688"/><circle cx="324.576" cy="555.829" r="15.823" transform="rotate(180 324.576 555.829)" fill="#009688"/><circle r="13.185" transform="matrix(-1 0 0 1 129.83 189.211)" fill="#009688"/><circle r="6.153" transform="matrix(-1 0 0 1 652.163 330.272)" fill="#009688"/><circle r="7.911" transform="matrix(-1 0 0 1 498.19 508.177)" fill="#E1E4E5"/><circle r="11.427" transform="matrix(-1 0 0 1 127.472 450.192)" fill="#E1E4E5"/><circle r="8.697" transform="matrix(-1 0 0 1 240.108 105.114)" fill="#E1E4E5"/><circle r="9.669" transform="matrix(-1 0 0 1 349.095 377.63)" fill="#E1E4E5"/><circle r="8.683" transform="scale(1 -1) rotate(-75 -98.817 -234.901)" fill="#E1E4E5"/><circle r="11.551" transform="matrix(-1 0 0 1 374.146 85.246)" fill="#E1E4E5"/><ellipse rx="8.886" ry="7.108" transform="matrix(-1 0 0 1 571.127 419.301)" fill="#E1E4E5"/><circle r="18.071" transform="scale(1 -1) rotate(-75 251.794 -397.468)" fill="#E1E4E5"/><path d="M693.041 417.563h.232c1.377 19.503 15.881 19.803 15.881 19.803s-15.994.312-15.994 22.847c0-22.535-15.994-22.847-15.994-22.847s14.498-.3 15.875-19.803zM225.679 521.021h.206c1.221 17.651 14.091 17.923 14.091 17.923s-14.192.283-14.192 20.679c0-20.396-14.192-20.679-14.192-20.679s12.865-.272 14.087-17.923z" fill="#E1E4E5"/><path d="M366.724 15.835a25.29 25.29 0 0 0-1.697-.084c-.188-.003-.374-.01-.561-.008a36.55 36.55 0 0 0-1.197.032c-.191.008-.38.022-.572.037a31.658 31.658 0 0 0-1.186.114 28.307 28.307 0 0 0-1.191.171c-.261.044-.523.095-.784.148-.137.028-.275.05-.412.082-.399.087-.799.183-1.199.29L174.848 65.672a24.859 24.859 0 0 0-3.682 1.293c-.391.172-.779.353-1.157.542-9.874 4.94-15.569 15.852-13.767 26.96.138.855.322 1.71.551 2.564l81.833 305.408 18.671 69.678c2.869 10.71 12.099 18.01 22.523 18.91.046.005.092.006.138.008.516.041 1.036.066 1.555.074.188.004.374.01.564.008a38.703 38.703 0 0 0 1.197-.032c.191-.008.38-.022.572-.037.214-.015.428-.032.64-.055.183-.018.362-.038.544-.058a30.492 30.492 0 0 0 1.19-.172c.261-.044.523-.094.784-.147.137-.029.275-.051.412-.082.399-.088.799-.183 1.199-.29l183.08-49.057a25.85 25.85 0 0 0 2.491-.803c11.301-4.295 18.057-16.032 16.117-27.994a25.682 25.682 0 0 0-.551-2.565L407.92 104.423l-18.67-69.678c-2.875-10.71-12.106-18.009-22.526-18.91z" fill="#009688"/><rect x="248.19" y="68.803" width="50.34" height="4.911" rx="2.456" transform="rotate(-15 248.19 68.803)" fill="#fff"/><path d="M299.078 279.33s12.899 3.872 31.356-1.074c18.457-4.945 27.692-14.748 27.692-14.748" stroke="#fff" stroke-width="13.962" stroke-linecap="round" stroke-linejoin="round"/><ellipse cx="280.098" cy="239.566" rx="15.637" ry="15.282" transform="rotate(-15 280.098 239.566)" fill="#fff"/><ellipse cx="353.994" cy="219.765" rx="15.637" ry="15.282" transform="rotate(-15 353.994 219.765)" fill="#fff"/><path d="M704.795 532.373s-46.286-36.659-76.786-40.862c-30.178-4.157-109.729.717-168.759-24.306a2.575 2.575 0 0 1-1.531-2.905c.937-4.273 5.367-13.371 26.648-12.488 27.701 1.196 48.933 1.562 48.933 1.562s-85.098-84.115-106.462-108.622c-4.22-4.837-7.073-9.199-8.933-13.165-5.795-12.37 10.102-23.48 19.95-14.009l57.644 55.406s-2.725-8.684 3.363-14.073c5.771-5.082 20.389-2.281 28.926 6.924 0 0-2.239-10.008 7.383-14.443 9.622-4.434 22.264 3.228 27.628 8.199 0 0-4.206-9.083 1.803-14.273 6.008-5.19 21.939-.132 26.214 2.921 4.274 3.054 44.171 22.154 87.399 75.676l84.696 26.233s11.855 31.343-58.116 82.225z" fill="#F8AE9D"/><path d="M738.634 326.401h-20.005a11.998 11.998 0 0 0-12.002 12.002v0a12 12 0 0 0 12.002 12.001h8.575c6.313 0 11.43-5.117 11.43-11.43v-22.861c0-6.313-5.117-11.43-11.43-11.43h-7.547c-3.03 0-5.936 1.203-8.081 3.343l-1.523 1.513" stroke="#E1E4E5" stroke-width="11" stroke-linecap="round" stroke-linejoin="round"/><path d="M746.634 368.697h-36.581c-15.151 0-27.434-12.283-27.434-27.434v-27.439c0-15.152 12.283-27.434 27.434-27.434h27.439c15.152 0 27.434 12.282 27.434 27.434v22.866a13.713 13.713 0 0 1-13.719 13.714v0c-6.944 0-12.573-5.629-12.573-12.572v-12.573M412.806 525.381h-14.325a8.587 8.587 0 0 0-8.593 8.594v0a8.589 8.589 0 0 0 8.593 8.593h6.141a8.184 8.184 0 0 0 8.184-8.185v-16.369a8.185 8.185 0 0 0-8.184-8.185h-5.404a8.2 8.2 0 0 0-5.787 2.394l-1.09 1.083" stroke="#E1E4E5" stroke-width="11" stroke-linecap="round" stroke-linejoin="round"/><path d="M418.534 555.667h-26.193c-10.849 0-19.644-8.795-19.644-19.644v-19.648c0-10.849 8.795-19.644 19.644-19.644h19.648c10.849 0 19.644 8.795 19.644 19.644v16.373a9.818 9.818 0 0 1-9.824 9.82v0a9.002 9.002 0 0 1-9.003-9.002v-9.003" stroke="#E1E4E5" stroke-width="11" stroke-linecap="round" stroke-linejoin="round"/><circle r="57.92" transform="matrix(-1 0 0 1 539.344 239.647)" fill="#009688"/><path fill-rule="evenodd" clip-rule="evenodd" d="M559.316 259.912v2.85a2.852 2.852 0 0 1-2.853 2.849h-34.238a2.852 2.852 0 0 1-2.853-2.849v-2.896c0-8.624 9.866-14.227 19.972-14.227 10.106 0 19.972 5.606 19.972 14.227m-12.911-39.264c3.9 3.9 3.9 10.223 0 14.123-3.9 3.9-10.223 3.9-14.123 0-3.9-3.9-3.9-10.223 0-14.123 3.9-3.9 10.223-3.9 14.123 0z" fill="#fff"/><circle r="57.92" transform="matrix(-1 0 0 1 157.275 489.618)" fill="#009688"/><path fill-rule="evenodd" clip-rule="evenodd" d="M177.248 509.882v2.85a2.853 2.853 0 0 1-2.853 2.85h-34.239a2.853 2.853 0 0 1-2.853-2.85v-2.896c0-8.624 9.867-14.227 19.973-14.227 10.106 0 19.972 5.606 19.972 14.227m-12.911-39.264c3.9 3.9 3.9 10.223 0 14.123-3.9 3.9-10.223 3.9-14.123 0-3.9-3.9-3.9-10.223 0-14.123 3.9-3.899 10.223-3.899 14.123 0z" fill="#fff"/><path d="M764.229 240.179a30 30 0 0 1 30 0l7.907 4.564a30 30 0 0 1 15 25.981v9.13a30 30 0 0 1-15 25.981l-7.907 4.565a30 30 0 0 1-30 0l-7.907-4.565a30 30 0 0 1-15-25.981v-9.13a30 30 0 0 1 15-25.981l7.907-4.564z" fill="#009688"/><path d="m792.768 267.112-15.978 15.85-9.586-9.51" stroke="#fff" stroke-width="8.45" stroke-linecap="round" stroke-linejoin="round"/><path d="M118.981 283.873a30 30 0 0 1 30 0l7.907 4.564a30 30 0 0 1 15 25.981v9.13a30 30 0 0 1-15 25.981l-7.907 4.565a30 30 0 0 1-30 0l-7.907-4.565a30 30 0 0 1-15-25.981v-9.13a30 30 0 0 1 15-25.981l7.907-4.564z" fill="#009688"/><path d="m147.519 310.806-15.977 15.85-9.586-9.51" stroke="#fff" stroke-width="8.45" stroke-linecap="round" stroke-linejoin="round"/><path d="M626.034 96.903a30 30 0 0 1 30 0l7.907 4.565a30 30 0 0 1 15 25.981v9.13a30 30 0 0 1-15 25.98l-7.907 4.565a30 30 0 0 1-30 0l-7.907-4.565a30 30 0 0 1-15-25.98v-9.13a30 30 0 0 1 15-25.981l7.907-4.565z" fill="#009688"/><path d="m654.572 123.837-15.977 15.849-9.586-9.51" stroke="#fff" stroke-width="8.45" stroke-linecap="round" stroke-linejoin="round"/><defs><linearGradient id="a" x1="314.586" y1="350.869" x2="640.223" y2="166.921" gradientUnits="userSpaceOnUse"><stop stop-color="#fff"/><stop offset="1" stop-color="#EEE"/></linearGradient><linearGradient id="b" x1="599.937" y1="274.466" x2="756.695" y2="150.47" gradientUnits="userSpaceOnUse"><stop stop-color="#fff"/><stop offset="1" stop-color="#EEE"/></linearGradient><linearGradient id="c" x1="265.702" y1="501.056" x2="-5.106" y2="249.439" gradientUnits="userSpaceOnUse"><stop stop-color="#fff"/><stop offset="1" stop-color="#EEE"/></linearGradient></defs></svg>