<svg width="900" height="600" viewBox="0 0 900 600" fill="none" xmlns="http://www.w3.org/2000/svg"><path fill="transparent" d="M0 0h900v600H0z"/><rect x="347.966" y="201.099" width="158.341" height="312.5" rx="79.171" fill="#fff" stroke="#E1E4E5" stroke-width="11"/><rect x="112.056" y="355.258" width="158.341" height="158.341" rx="79.171" fill="#fff" stroke="#E1E4E5" stroke-width="11"/><rect x="112.056" y="295.696" width="39.218" height="39.218" rx="19.609" fill="#fff" stroke="#E1E4E5" stroke-width="11"/><rect x="583.876" y="127.523" width="158.341" height="386.076" rx="79.171" fill="#fff" stroke="#E1E4E5" stroke-width="11"/><path stroke="#E1E4E5" stroke-width="11" stroke-linecap="round" d="M81.764 513.599h690.697M112.056 219.295h205.056m-205.056 37.372h205.056"/><path d="m390.644 378.418 36.493-63.207 36.492 63.207h-72.985zm389.149-118.291L843 296.619l-63.207 36.493v-72.985z" fill="#fff" stroke="#E1E4E5" stroke-width="11"/><rect x="643.444" y="236.305" width="39.218" height="39.218" rx="19.609" fill="#fff" stroke="#E1E4E5" stroke-width="11"/><rect x="643.444" y="295.866" width="39.218" height="39.218" rx="19.609" fill="#fff" stroke="#E1E4E5" stroke-width="11"/><rect x="643.444" y="355.428" width="39.218" height="39.218" rx="19.609" fill="#fff" stroke="#E1E4E5" stroke-width="11"/><circle cx="480.275" cy="98.665" r="8.175" transform="rotate(90 480.275 98.665)" fill="#E1E4E5"/><circle cx="480.275" cy="131.366" r="8.175" transform="rotate(90 480.275 131.366)" fill="#E1E4E5"/><circle cx="480.275" cy="164.066" r="8.175" transform="rotate(90 480.275 164.066)" fill="#E1E4E5"/><circle cx="453.414" cy="98.665" r="8.175" transform="rotate(90 453.414 98.665)" fill="#E1E4E5"/><circle cx="453.414" cy="131.366" r="8.175" transform="rotate(90 453.414 131.366)" fill="#E1E4E5"/><circle cx="453.414" cy="164.066" r="8.175" transform="rotate(90 453.414 164.066)" fill="#E1E4E5"/><circle cx="426.552" cy="98.665" r="8.175" transform="rotate(90 426.552 98.665)" fill="#E1E4E5"/><circle cx="426.553" cy="131.366" r="8.175" transform="rotate(90 426.553 131.366)" fill="#E1E4E5"/><circle cx="426.553" cy="164.066" r="8.175" transform="rotate(90 426.553 164.066)" fill="#E1E4E5"/><circle cx="399.691" cy="98.665" r="8.175" transform="rotate(90 399.691 98.665)" fill="#E1E4E5"/><circle cx="399.692" cy="131.366" r="8.175" transform="rotate(90 399.692 131.366)" fill="#E1E4E5"/><circle cx="399.692" cy="164.066" r="8.175" transform="rotate(90 399.692 164.066)" fill="#E1E4E5"/><circle cx="372.83" cy="98.665" r="8.175" transform="rotate(90 372.83 98.665)" fill="#E1E4E5"/><circle cx="372.831" cy="131.366" r="8.175" transform="rotate(90 372.831 131.366)" fill="#E1E4E5"/><circle cx="372.831" cy="164.066" r="8.175" transform="rotate(90 372.831 164.066)" fill="#E1E4E5"/><path d="M200.168 94.479a30 30 0 0 1 30 0l37.764 21.803a30 30 0 0 1 15 25.981v43.606a30 30 0 0 1-15 25.981l-37.764 21.803a30 30 0 0 1-30 0l-37.764-21.803a30 30 0 0 1-15-25.981v-43.606a30 30 0 0 1 15-25.981l37.764-21.803z" fill="#009688"/><path d="m239.369 149.448-28.561 28.334-17.138-17" stroke="#fff" stroke-width="8.45" stroke-linecap="round" stroke-linejoin="round"/><circle cx="542.397" cy="396.984" r="11.679" transform="rotate(180 542.397 396.984)" fill="#009688"/><circle r="15.736" transform="matrix(-1 0 0 1 293.975 330.457)" fill="#009688"/><circle r="10.535" transform="matrix(-1 0 0 1 541.479 230.003)" fill="#009688"/><circle r="19.566" transform="matrix(-1 0 0 1 66.566 414.87)" fill="#E1E4E5"/><circle r="7.215" transform="matrix(-1 0 0 1 772.578 435.904)" fill="#E1E4E5"/><circle r="14.598" transform="matrix(-1 0 0 1 784.512 183.336)" fill="#E1E4E5"/><circle r="14.867" transform="scale(1 -1) rotate(-75 -21.022 -105.75)" fill="#E1E4E5"/><circle r="13.431" transform="matrix(-1 0 0 1 542.776 319.102)" fill="#E1E4E5"/></svg>