<svg width="900" height="600" viewBox="0 0 900 600" fill="none" xmlns="http://www.w3.org/2000/svg"><path fill="transparent" d="M0 0h900v600H0z"/><path d="M828.409 351.049c-14.334 7.11-33.358-2.033-33.358-2.033s4.228-20.666 18.569-27.766c14.334-7.11 33.35 2.022 33.35 2.022s-4.228 20.666-18.561 27.777z" fill="url(#a)"/><path d="M100.947 147.78c21.577 12.932 52.534.978 52.534.978s-4.048-32.918-25.638-45.835c-21.577-12.932-52.521-.992-52.521-.992s4.048 32.917 25.625 45.849z" fill="url(#b)"/><circle cx="116.772" cy="225.859" r="16.752" transform="rotate(180 116.772 225.859)" fill="#009688"/><circle r="19.078" transform="matrix(-1 0 0 1 200.186 508.874)" fill="#009688"/><circle r="8.903" transform="matrix(-1 0 0 1 689.014 280.385)" fill="#009688"/><circle r="11.447" transform="matrix(-1 0 0 1 165.319 47.462)" fill="#E1E4E5"/><circle r="16.534" transform="matrix(-1 0 0 1 63.534 334.798)" fill="#E1E4E5"/><circle r="8.414" transform="matrix(-1 0 0 1 728.19 151.33)" fill="#E1E4E5"/><circle r="12.563" transform="matrix(0 1 1 0 779.457 188.014)" fill="#E1E4E5"/><circle r="8.414" transform="matrix(-1 0 0 1 288.424 39.145)" fill="#E1E4E5"/><ellipse rx="12.856" ry="10.285" transform="matrix(-1 0 0 1 821.595 467.321)" fill="#E1E4E5"/><path d="M218.111 307.348h.337c1.991 28.219 22.977 28.653 22.977 28.653s-23.141.452-23.141 33.058c0-32.606-23.142-33.058-23.142-33.058s20.978-.434 22.969-28.653zm-68.658 95.123h.176c1.041 15.32 12.013 15.556 12.013 15.556s-12.099.245-12.099 17.948c0-17.703-12.098-17.948-12.098-17.948s10.967-.236 12.008-15.556z" fill="#E1E4E5"/><path d="M777.046 385.875h-60.704c-14.874 0-27.337-10.099-27.337-22.892 0-6.396 3.216-12.119 8.041-16.158 4.824-4.04 11.658-6.733 19.296-6.733h8.845c7.638 0 14.472-2.693 19.296-6.733 4.824-4.04 8.041-9.762 8.041-16.159 0-12.455-12.061-22.891-27.337-22.891H539.751c-4.83 0-7.933-5.942-7.933-10.772 0-12.119-11.658-21.882-26.131-21.882h-69.014a6.564 6.564 0 0 1 0-13.129h264.393c11.658 0 22.513-4.039 30.151-10.436 7.638-6.396 12.462-15.485 12.462-25.247 0-19.862-19.296-35.684-42.613-35.684H564.494c-21.413 0-42.62-16.495-64.033-16.495h-76.285c-11.155 0-20.198-9.043-20.198-20.199 0-11.155 9.043-20.198 20.198-20.198h170.758c8.04 0 15.679-2.693 20.905-7.069 5.226-4.377 8.442-10.436 8.442-17.506 0-13.465-13.266-24.574-29.347-24.574H201.363c-8.041 0-15.679 2.693-20.905 7.07-5.226 4.376-8.442 10.435-8.442 17.504 0 13.466 13.266 24.575 29.347 24.575h10.05c13.266 0 24.523 9.089 24.523 20.535 0 5.723-2.814 10.772-7.236 14.475-4.423 3.703-10.453 6.06-17.287 6.06h-48.644c-8.442 0-16.482 3.03-22.11 7.743-5.629 4.713-9.247 11.109-9.247 18.515 0 14.475 14.071 25.921 30.955 25.921h49.448c16.081 0 29.347 11.109 29.347 24.574 0 6.733-3.216 12.793-8.442 17.169-5.226 4.376-12.463 7.069-20.503 7.069h-44.221c-7.237 0-13.669 2.357-18.493 6.397-4.824 4.039-7.638 9.425-7.638 15.485 0 12.119 11.658 21.881 26.131 21.881h35.779c20.502 0 36.985 13.803 36.985 30.971 0 8.416-4.02 16.495-10.854 21.882-6.835 5.722-16.081 9.089-26.131 9.089h-49.85c-10.05 0-19.297 3.366-25.729 9.089-6.834 5.386-10.854 13.129-10.854 21.545 0 16.832 16.482 30.634 36.583 30.634h153.938c16.995 0 33.692 9.426 50.687 9.426h28.081c10.69 0 19.357 8.666 19.357 19.357 0 10.69-8.667 19.356-19.357 19.356h-68.282c-8.845 0-16.483 3.03-22.111 7.743-5.628 4.713-9.246 11.446-9.246 18.515 0 14.476 14.07 26.258 31.357 26.258h418.094c8.844 0 16.483-3.03 22.111-7.743 5.628-4.713 9.246-11.446 9.246-18.515 0-14.475-14.07-26.258-31.357-26.258h-12.462c-12.865 0-22.915-8.752-22.915-19.188 0-5.386 2.412-10.099 6.834-13.466 4.02-3.366 10.05-5.722 16.483-5.722h52.663c8.845 0 16.483-3.03 22.111-7.743 5.628-4.713 9.246-11.446 9.246-18.515 0-15.149-14.07-26.931-31.357-26.931z" fill="url(#c)"/><mask id="d" fill="#fff"><path d="M738.848 299.976A275.981 275.981 0 0 0 624.805 76.502a275.978 275.978 0 0 0-434.317 267.851 275.975 275.975 0 0 0 49.938 118.964l53.119-39.005a210.075 210.075 0 1 1 379.402-124.336h65.901z"/></mask><path d="M738.848 299.976A275.981 275.981 0 0 0 624.805 76.502a275.978 275.978 0 0 0-434.317 267.851 275.975 275.975 0 0 0 49.938 118.964l53.119-39.005a210.075 210.075 0 1 1 379.402-124.336h65.901z" fill="#fff" stroke="#E1E4E5" stroke-width="22" mask="url(#d)"/><circle cx="462.872" cy="299.976" r="217.848" fill="#fff" stroke="#E1E4E5" stroke-width="11"/><mask id="e" fill="#fff"><path d="M239.524 299.976a223.35 223.35 0 0 1 381.279-157.931L462.872 299.976H239.524z"/></mask><path d="M239.524 299.976a223.35 223.35 0 0 1 381.279-157.931L462.872 299.976H239.524z" fill="#fff" stroke="#E1E4E5" stroke-width="22" mask="url(#e)"/><mask id="f" fill="#fff"><path d="M586.904 485.719a223.36 223.36 0 0 1-167.669 33.301 223.355 223.355 0 0 1-142.106-95.013l185.743-124.031 124.032 185.743z"/></mask><path d="M586.904 485.719a223.36 223.36 0 0 1-167.669 33.301 223.355 223.355 0 0 1-142.106-95.013l185.743-124.031 124.032 185.743z" fill="#fff" stroke="#E1E4E5" stroke-width="22" mask="url(#f)"/><circle r="11.232" transform="matrix(-1 0 0 1 588.533 389.737)" fill="#E1E4E5"/><circle cx="732.803" cy="490.56" r="5.744" transform="rotate(90 732.803 490.56)" fill="#E1E4E5"/><circle cx="732.804" cy="513.537" r="5.744" transform="rotate(90 732.804 513.537)" fill="#E1E4E5"/><circle cx="732.804" cy="536.514" r="5.744" transform="rotate(90 732.804 536.514)" fill="#E1E4E5"/><circle cx="713.931" cy="490.56" r="5.744" transform="rotate(90 713.931 490.56)" fill="#E1E4E5"/><circle cx="713.931" cy="513.537" r="5.744" transform="rotate(90 713.931 513.537)" fill="#E1E4E5"/><circle cx="713.931" cy="536.514" r="5.744" transform="rotate(90 713.931 536.514)" fill="#E1E4E5"/><circle cx="695.055" cy="490.56" r="5.744" transform="rotate(90 695.055 490.56)" fill="#E1E4E5"/><circle cx="695.056" cy="513.537" r="5.744" transform="rotate(90 695.056 513.537)" fill="#E1E4E5"/><circle cx="695.056" cy="536.514" r="5.744" transform="rotate(90 695.056 536.514)" fill="#E1E4E5"/><circle cx="676.182" cy="490.56" r="5.744" transform="rotate(90 676.182 490.56)" fill="#E1E4E5"/><circle cx="676.182" cy="513.537" r="5.744" transform="rotate(90 676.182 513.537)" fill="#E1E4E5"/><circle cx="676.182" cy="536.514" r="5.744" transform="rotate(90 676.182 536.514)" fill="#E1E4E5"/><circle cx="657.307" cy="490.56" r="5.744" transform="rotate(90 657.307 490.56)" fill="#E1E4E5"/><circle cx="657.307" cy="513.537" r="5.744" transform="rotate(90 657.307 513.537)" fill="#E1E4E5"/><circle cx="657.307" cy="536.514" r="5.744" transform="rotate(90 657.307 536.514)" fill="#E1E4E5"/><path d="M448.088 208.282a30 30 0 0 1 30 0l56.983 32.899a30 30 0 0 1 15 25.981v65.798a29.999 29.999 0 0 1-15 25.98l-56.983 32.899a30 30 0 0 1-30 0l-56.983-32.899a29.999 29.999 0 0 1-15-25.98v-65.798a30 30 0 0 1 15-25.981l56.983-32.899z" fill="#009688"/><path d="m494.153 281.297-36.662 36.369-21.997-21.821" stroke="#fff" stroke-width="11" stroke-linecap="round" stroke-linejoin="round"/><path fill-rule="evenodd" clip-rule="evenodd" d="M766.895 353.879v-99.521c0-4.721-1.565-9.256-4.339-12.587l-20.982-25.201c-2.781-3.341-6.556-5.22-10.487-5.22h-82.859c-8.196 0-14.833 7.972-14.833 17.816v124.713c0 9.844 6.637 17.816 14.833 17.816h103.834c8.195 0 14.833-7.972 14.833-17.816z" fill="#009688" stroke="#009688" stroke-width="11.87" stroke-linecap="round" stroke-linejoin="round"/><path fill-rule="evenodd" clip-rule="evenodd" d="M723.202 332.254c0-7.376 6.067-13.362 13.542-13.362 7.476 0 13.543 5.986 13.543 13.362s-6.067 13.362-13.543 13.362c-7.475 0-13.542-5.986-13.542-13.362z" fill="#fff"/><path d="M659 274.214h83.42m-83.42 31h83.42M659 336.236h48.03m-48.03-93h39.363" stroke="#fff" stroke-width="11" stroke-linecap="round" stroke-linejoin="round"/><path fill-rule="evenodd" clip-rule="evenodd" d="M295.342 248.371h-48.613c-10.695 0-19.446 8.75-19.446 19.445v48.614c0 10.695 8.751 19.445 19.446 19.445h48.613c10.695 0 19.446-8.75 19.446-19.445v-48.614c0-10.695-8.751-19.445-19.446-19.445z" fill="#009688" stroke="#009688" stroke-width="9.075" stroke-linecap="round" stroke-linejoin="round"/><path d="m264.23 277.541 15.556 14.584-15.556 14.584" stroke="#fff" stroke-width="11" stroke-linecap="round" stroke-linejoin="round"/><defs><linearGradient id="a" x1="773.367" y1="373.227" x2="891.59" y2="279.712" gradientUnits="userSpaceOnUse"><stop stop-color="#fff"/><stop offset="1" stop-color="#EEE"/></linearGradient><linearGradient id="b" x1="184.446" y1="189.408" x2="10.827" y2="28.093" gradientUnits="userSpaceOnUse"><stop stop-color="#fff"/><stop offset="1" stop-color="#EEE"/></linearGradient><linearGradient id="c" x1="477.607" y1="787.207" x2="468.213" y2="-428.112" gradientUnits="userSpaceOnUse"><stop stop-color="#fff"/><stop offset="1" stop-color="#EEE"/></linearGradient></defs></svg>