<svg width="900" height="600" viewBox="0 0 900 600" fill="none" xmlns="http://www.w3.org/2000/svg"><path fill="transparent" d="M0 0h900v600H0z"/><path d="M785.21 277.933c-30.087 14.925-70.018-4.265-70.018-4.265s8.874-43.379 38.976-58.282c30.087-14.925 70.002 4.244 70.002 4.244s-8.874 43.379-38.96 58.303z" fill="url(#a)"/><path d="M157.881 325.988c19.504 11.69 47.488.883 47.488.883s-3.659-29.755-23.176-41.432c-19.505-11.69-47.476-.897-47.476-.897s3.659 29.755 23.164 41.446z" fill="url(#b)"/><circle cx="713.428" cy="153.427" r="16.428" transform="rotate(180 713.428 153.427)" fill="#009688"/><circle cx="343.243" cy="153.195" r="7.035" transform="rotate(180 343.243 153.195)" fill="#009688"/><circle cx="642.463" cy="392.656" r="13.523" transform="rotate(180 642.463 392.656)" fill="#009688"/><circle r="7.187" transform="matrix(-1 0 0 1 723.26 321.004)" fill="#009688"/><circle r="9.241" transform="matrix(-1 0 0 1 687.796 497.748)" fill="#E1E4E5"/><circle r="9.5" transform="matrix(-1 0 0 1 143.5 495.499)" fill="#E1E4E5"/><circle r="5" transform="matrix(-1 0 0 1 735 473.999)" fill="#E1E4E5"/><circle r="11.294" transform="matrix(-1 0 0 1 644.957 98.401)" fill="#E1E4E5"/><circle r="10.142" transform="scale(1 -1) rotate(-75 -58.773 -195.943)" fill="#E1E4E5"/><circle r="13.492" transform="matrix(-1 0 0 1 385.492 96.492)" fill="#E1E4E5"/><ellipse rx="10.379" ry="8.303" transform="matrix(-1 0 0 1 758.349 395.924)" fill="#E1E4E5"/><circle r="9.196" transform="scale(1 -1) rotate(-75 218.09 -385.764)" fill="#E1E4E5"/><path d="M191.906 132.092h.148c.875 12.404 10.1 12.595 10.1 12.595s-10.172.199-10.172 14.532c0-14.333-10.173-14.532-10.173-14.532s9.221-.191 10.097-12.595zm64.893 385.726h.142c.841 12.368 9.698 12.558 9.698 12.558s-9.767.198-9.767 14.489c0-14.291-9.767-14.489-9.767-14.489s8.853-.19 9.694-12.558z" fill="#E1E4E5"/><path d="M596.824 138.643c24.169 24.169 28.679 64.016 15.673 109.458-12.985 45.367-43.327 95.827-88.031 140.53-44.703 44.704-95.163 75.046-140.53 88.031-45.442 13.006-85.289 8.496-109.458-15.672-24.168-24.169-28.678-64.017-15.672-109.458 12.984-45.367 43.327-95.827 88.03-140.53 44.704-44.704 95.164-75.047 140.531-88.031 45.441-13.006 85.289-8.496 109.457 15.672z" stroke="url(#c)" stroke-width="4"/><path d="M227.243 273.194c-9.379 35 7.608 73.949 43.588 108.729 35.924 34.726 90.454 64.926 155.097 82.247 64.644 17.322 126.969 18.432 175.443 6.321 48.549-12.13 82.735-37.368 92.113-72.368 9.378-35-7.609-73.95-43.588-108.73-35.924-34.725-90.455-64.926-155.098-82.247-64.643-17.321-126.968-18.432-175.442-6.321-48.549 12.131-82.735 37.369-92.113 72.369z" stroke="url(#d)" stroke-width="4"/><circle r="10.735" transform="matrix(-1 0 0 1 420.735 463.735)" fill="#009688"/><path d="M213 345.867c-13.6 5.2-98.167 20.466-152 28.632v11.5c80.5-6.333 216.1-20.132 214.5-26.132-1.6-6 11.333-13.834 18-17 8.667-4.667 22.4-15.5 8-21.5-18-7.5-71.5 18-88.5 24.5zm466.771 0c13.6 5.2 98.167 20.466 152 28.632v11.5c-80.5-6.333-216.1-20.132-214.5-26.132 1.6-6-11.333-13.834-18-17-8.667-4.667-22.4-15.5-8-21.5 18-7.5 71.5 18 88.5 24.5z" fill="#fff" stroke="#E1E4E5" stroke-width="4"/><path fill-rule="evenodd" clip-rule="evenodd" d="M454 351.053V207.176c0-6.826-2.262-13.381-6.272-18.197l-30.334-36.433c-4.02-4.829-9.478-7.547-15.161-7.547H282.444c-11.848 0-21.444 11.527-21.444 25.757v180.297c0 14.23 9.596 25.756 21.444 25.756h150.112c11.848 0 21.444-11.526 21.444-25.756z" fill="#009688" stroke="#009688" stroke-width="17.16" stroke-linecap="round" stroke-linejoin="round"/><path fill-rule="evenodd" clip-rule="evenodd" d="M390.833 319.789c0-10.663 8.771-19.316 19.578-19.316 10.807 0 19.578 8.653 19.578 19.316 0 10.663-8.771 19.317-19.578 19.317-10.807 0-19.578-8.654-19.578-19.317z" fill="#fff"/><path d="M298.018 235.881h120.599m-120.599 44.817h120.599m-120.599 44.849h69.435m-69.435-134.449h56.906" stroke="#fff" stroke-width="11" stroke-linecap="round" stroke-linejoin="round"/><path d="M175.5 452.367c-54-7.2-78.333-8.534-114.5-4.368v-73.632c49.5-5.167 150.2-15.1 157-13.5 6.8 1.6 53.5-6.667 76-11 15.667-2.5 47.7-5.3 50.5 3.5 2.8 8.8-3.5 14-7 15.5l-69.5 14c18.667-3.667 53-9.868 60-10.368 3.99-.285 7 0 8 5 .8 4-7.333 10.201-11 12.368l-53 23.5c15.833-6.667 48.6-20.2 53-21 5.5-1 8 0 9 5.5.8 4.4-7 8.299-11 10.632l-48 22.368c10.5-3 33.3-14.7 42.5-17.5 9.2-2.8 7 5.132 5.5 8.132-32.5 30-80 39.868-147.5 30.868z" fill="#fff" stroke="#E1E4E5" stroke-width="4"/><path d="M662.432 198.771c3.489 44.51 3.361 91.127-.009 134.244-1.285 16.44-15.228 28.784-31.718 28.784h-68.557c-16.607 0-30.603-12.516-31.79-29.08-3.124-43.612-3.158-90.071-.019-133.681 1.19-16.547 15.179-29.039 31.769-29.039h68.609c16.485 0 30.427 12.337 31.715 28.772z" fill="#009688" stroke="#009688" stroke-width="24.378" stroke-linejoin="round"/><path d="M602 282v-73m-28 17h28m-17 28h17" stroke="#fff" stroke-width="11" stroke-linejoin="round"/><circle r="17" transform="matrix(0 -1 -1 0 602 299)" stroke="#fff" stroke-width="11"/><path d="M717.698 451.991c54-7.2 78.333-8.534 114.5-4.367v-73.633c-49.5-5.167-150.2-15.1-157-13.5-6.8 1.6-53.5-6.667-76-11-15.667-2.5-47.7-5.3-50.5 3.5-2.8 8.8 3.5 14 7 15.5l69.5 14c-18.667-3.667-53-9.867-60-10.367-3.99-.285-7 0-8 5-.8 4 7.333 10.2 11 12.367l53 23.5c-15.834-6.667-48.6-20.2-53-21-5.5-1-8 0-9 5.5-.8 4.4 7 8.299 11 10.633l48 22.367c-10.5-3-33.3-14.7-42.5-17.5-9.2-2.8-7 5.133-5.5 8.133 32.5 30 80 39.867 147.5 30.867z" fill="#fff" stroke="#E1E4E5" stroke-width="4"/><defs><linearGradient id="a" x1="669.676" y1="324.487" x2="917.827" y2="128.198" gradientUnits="userSpaceOnUse"><stop stop-color="#fff"/><stop offset="1" stop-color="#EEE"/></linearGradient><linearGradient id="b" x1="233.359" y1="363.617" x2="76.416" y2="217.797" gradientUnits="userSpaceOnUse"><stop stop-color="#fff"/><stop offset="1" stop-color="#EEE"/></linearGradient><linearGradient id="c" x1="633.989" y1="484.287" x2="152.915" y2="9.39" gradientUnits="userSpaceOnUse"><stop stop-color="#fff"/><stop offset="1" stop-color="#EEE"/></linearGradient><linearGradient id="d" x1="376.195" y1="609.686" x2="565.819" y2="-80.142" gradientUnits="userSpaceOnUse"><stop stop-color="#fff"/><stop offset="1" stop-color="#EEE"/></linearGradient></defs></svg>