<svg width="900" height="600" viewBox="0 0 900 600" fill="none" xmlns="http://www.w3.org/2000/svg"><path fill="transparent" d="M0 0h900v600H0z"/><path d="M539.633 560.592H388.148c-44.183 0-76.444-18.468-88.834-50.261-12.857-33.196-.935-74.34 29.923-102.159l108.471-98.886L329.237 210.4c-30.858-27.819-42.78-68.963-29.923-102.159 12.39-32.027 44.651-50.261 88.834-50.261h151.485c44.183 0 76.444 18.468 88.834 50.261 12.858 33.196.935 74.34-29.923 102.159l-108.471 98.886 108.705 98.886c30.624 27.819 42.78 68.963 29.923 102.159-12.624 31.793-44.885 50.261-89.068 50.261zm-75.742-227.695-111.043 100.99c-19.637 18.001-28.286 44.183-20.806 63.586 7.014 18.001 26.884 28.053 56.106 28.053h151.485c29.222 0 49.093-9.818 56.106-28.053 7.48-19.403-.935-45.585-20.806-63.586l-111.042-100.99zM388.148 93.046c-29.222 0-49.092 9.818-56.106 28.052-7.48 19.404.936 45.586 20.806 63.587l111.043 100.99 111.042-100.99c19.637-18.001 28.286-44.183 20.806-63.587-7.013-18-26.884-28.052-56.106-28.052H388.148z" fill="#E1E4E5"/><path fill-rule="evenodd" clip-rule="evenodd" d="M405.282 179.814V95.223a34.527 34.527 0 0 0-22.823-32.49l-52.654-18.956a82.867 82.867 0 0 0-56.142 0l-52.723 18.99a34.528 34.528 0 0 0-22.823 32.456v84.591c0 43.954 61.493 76.479 89.771 89.15a33.558 33.558 0 0 0 27.622 0c28.278-12.671 89.772-45.265 89.772-89.15z" fill="#009688"/><path d="M270.77 170.495a36.685 36.685 0 1 0 0-51.881c-14.327 14.326-14.327 37.554 0 51.881" stroke="#fff" stroke-width="11" stroke-linecap="round" stroke-linejoin="round"/><path clip-rule="evenodd" d="m343.295 191.137-20.644-20.645 20.644 20.645z" stroke="#fff" stroke-width="11" stroke-linecap="round" stroke-linejoin="round"/><path fill-rule="evenodd" clip-rule="evenodd" d="M186.668 331.785h5.54a2.42 2.42 0 0 1 2.418 2.418v5.54a2.42 2.42 0 0 1-2.418 2.418h-5.54a2.428 2.428 0 0 1-2.418-2.418v-5.54c-.011-1.328 1.079-2.418 2.418-2.418zm19.206 0h5.54a2.428 2.428 0 0 1 2.418 2.418v5.54a2.42 2.42 0 0 1-2.418 2.418h-5.54a2.428 2.428 0 0 1-2.418-2.418v-5.54a2.428 2.428 0 0 1 2.418-2.418zm19.219 0h5.54a2.428 2.428 0 0 1 2.418 2.418v5.54a2.42 2.42 0 0 1-2.418 2.418h-5.54a2.427 2.427 0 0 1-2.417-2.418v-5.54c-.012-1.328 1.078-2.418 2.417-2.418zm19.206 0h5.54a2.428 2.428 0 0 1 2.418 2.418v5.54a2.42 2.42 0 0 1-2.418 2.418h-5.54a2.43 2.43 0 0 1-2.429-2.418v-5.54a2.445 2.445 0 0 1 2.429-2.418zm19.208 0h5.54a2.43 2.43 0 0 1 2.429 2.418v5.54a2.423 2.423 0 0 1-2.429 2.418h-5.54a2.428 2.428 0 0 1-2.418-2.418v-5.54a2.428 2.428 0 0 1 2.418-2.418zm-56.928 20.944h5.54a2.428 2.428 0 0 1 2.418 2.418v5.551a2.428 2.428 0 0 1-2.418 2.418h-5.54a2.42 2.42 0 0 1-2.418-2.418v-5.54a2.416 2.416 0 0 1 2.418-2.429zm19.206 0h5.54a2.428 2.428 0 0 1 2.418 2.418v5.551a2.428 2.428 0 0 1-2.418 2.418h-5.54a2.428 2.428 0 0 1-2.418-2.418v-5.54a2.416 2.416 0 0 1 2.418-2.429zm19.208 0h5.539a2.43 2.43 0 0 1 2.43 2.418v5.551a2.43 2.43 0 0 1-2.43 2.418h-5.539a2.428 2.428 0 0 1-2.418-2.418v-5.54a2.43 2.43 0 0 1 2.418-2.429zm-19.9-43.443h5.54a2.428 2.428 0 0 1 2.418 2.418v5.54a2.42 2.42 0 0 1-2.418 2.417h-5.54a2.426 2.426 0 0 1-2.417-2.417v-5.54c-.012-1.328 1.078-2.418 2.417-2.418zm19.206 0h5.54a2.428 2.428 0 0 1 2.418 2.418v5.54a2.42 2.42 0 0 1-2.418 2.417h-5.54a2.429 2.429 0 0 1-2.429-2.417v-5.54a2.445 2.445 0 0 1 2.429-2.418zm391.894 22.499h5.539a2.42 2.42 0 0 1 2.418 2.418v5.54a2.42 2.42 0 0 1-2.418 2.418h-5.539a2.428 2.428 0 0 1-2.418-2.418v-5.54c-.012-1.328 1.078-2.418 2.418-2.418zm19.206 0h5.539a2.428 2.428 0 0 1 2.418 2.418v5.54a2.42 2.42 0 0 1-2.418 2.418h-5.539a2.428 2.428 0 0 1-2.418-2.418v-5.54a2.428 2.428 0 0 1 2.418-2.418zm19.219 0h5.54a2.427 2.427 0 0 1 2.417 2.418v5.54a2.42 2.42 0 0 1-2.417 2.418h-5.54a2.428 2.428 0 0 1-2.418-2.418v-5.54c-.011-1.328 1.078-2.418 2.418-2.418zm19.206 0h5.54a2.427 2.427 0 0 1 2.417 2.418v5.54a2.42 2.42 0 0 1-2.417 2.418h-5.54a2.43 2.43 0 0 1-2.429-2.418v-5.54a2.444 2.444 0 0 1 2.429-2.418zm19.208 0h5.539a2.43 2.43 0 0 1 2.43 2.418v5.54a2.423 2.423 0 0 1-2.43 2.418h-5.539a2.428 2.428 0 0 1-2.418-2.418v-5.54a2.428 2.428 0 0 1 2.418-2.418zm-56.928 20.944h5.539a2.428 2.428 0 0 1 2.418 2.418v5.551a2.428 2.428 0 0 1-2.418 2.418h-5.539a2.42 2.42 0 0 1-2.418-2.418v-5.54a2.415 2.415 0 0 1 2.418-2.429zm19.206 0h5.539a2.428 2.428 0 0 1 2.418 2.418v5.551a2.428 2.428 0 0 1-2.418 2.418h-5.539a2.427 2.427 0 0 1-2.418-2.418v-5.54a2.415 2.415 0 0 1 2.418-2.429zm19.207 0h5.54a2.43 2.43 0 0 1 2.429 2.418v5.551a2.43 2.43 0 0 1-2.429 2.418h-5.54a2.428 2.428 0 0 1-2.418-2.418v-5.54a2.43 2.43 0 0 1 2.418-2.429zm-19.899-43.443h5.54a2.427 2.427 0 0 1 2.417 2.418v5.54a2.419 2.419 0 0 1-2.417 2.417h-5.54a2.427 2.427 0 0 1-2.418-2.417v-5.54c-.011-1.328 1.078-2.418 2.418-2.418zm19.206 0h5.54a2.427 2.427 0 0 1 2.417 2.418v5.54a2.419 2.419 0 0 1-2.417 2.417h-5.54a2.428 2.428 0 0 1-2.429-2.417v-5.54a2.444 2.444 0 0 1 2.429-2.418z" fill="#E1E4E5"/><circle r="9.666" transform="matrix(1 0 0 -1 181.204 269.261)" fill="#009688"/><circle r="18.179" transform="matrix(1 0 0 -1 690.088 121.77)" fill="#009688"/><circle cx="680.415" cy="424.106" r="9.661" fill="#009688"/><circle cx="241.818" cy="521.703" r="13.656" fill="#E1E4E5"/><circle cx="269.186" cy="401.155" r="8.667" fill="#E1E4E5"/><circle cx="673.584" cy="224.291" r="13.633" transform="rotate(105 673.584 224.291)" fill="#E1E4E5"/><ellipse cx="357.673" cy="313.514" rx="13.951" ry="11.161" fill="#E1E4E5"/><circle cx="705.733" cy="508.359" r="22.267" transform="rotate(90 705.733 508.359)" fill="#E1E4E5"/><path d="M652.174 58.523h-.199c-1.177 16.675-13.578 16.932-13.578 16.932s13.675.267 13.675 19.534c0-19.267 13.675-19.534 13.675-19.534s-12.396-.257-13.573-16.932zm-75.663 213.784h-.191c-1.13 16.626-13.036 16.882-13.036 16.882s13.129.266 13.129 19.476c0-19.21 13.129-19.476 13.129-19.476s-11.901-.256-13.031-16.882z" fill="#E1E4E5"/></svg>