<svg width="900" height="600" viewBox="0 0 900 600" fill="none" xmlns="http://www.w3.org/2000/svg"><path fill="transparent" d="M0 0h900v600H0z"/><path stroke="#E1E4E5" stroke-width="4.242" stroke-linecap="round" stroke-linejoin="bevel" stroke-dasharray="10.6 26.51" d="M168.922 69.575h617.355v439.981H168.922z"/><rect x="295.618" y="130.62" width="537.382" height="400.707" rx="4" fill="#fff" stroke="#E1E4E5" stroke-width="4"/><rect x="295.618" y="130.62" width="537.382" height="46.594" rx="4" fill="#fff" stroke="#E1E4E5" stroke-width="4"/><rect x="314.256" y="146.151" width="15.531" height="15.531" rx="7.766" fill="#fff" stroke="#E1E4E5" stroke-width="4"/><rect x="342.212" y="146.151" width="15.531" height="15.531" rx="7.766" fill="#fff" stroke="#E1E4E5" stroke-width="4"/><rect x="370.168" y="146.151" width="15.531" height="15.531" rx="7.766" fill="#fff" stroke="#E1E4E5" stroke-width="4"/><rect x="336" y="203.617" width="116.484" height="46.594" rx="4" fill="#fff" stroke="#E1E4E5" stroke-width="4"/><rect x="485.1" y="203.617" width="301.306" height="46.594" rx="4" fill="#fff" stroke="#E1E4E5" stroke-width="4"/><rect x="336" y="433.479" width="116.484" height="46.594" rx="4" fill="#fff" stroke="#E1E4E5" stroke-width="4"/><rect x="485.1" y="433.479" width="40.381" height="46.594" rx="4" fill="#fff" stroke="#E1E4E5" stroke-width="4"/><rect x="550.331" y="433.479" width="40.381" height="46.594" rx="4" fill="#fff" stroke="#E1E4E5" stroke-width="4"/><rect x="615.562" y="433.479" width="40.381" height="46.594" rx="4" fill="#fff" stroke="#E1E4E5" stroke-width="4"/><rect x="680.794" y="433.479" width="40.381" height="46.594" rx="4" fill="#fff" stroke="#E1E4E5" stroke-width="4"/><rect x="746.025" y="433.479" width="40.381" height="46.594" rx="4" fill="#fff" stroke="#E1E4E5" stroke-width="4"/><rect x="336" y="276.614" width="116.484" height="130.463" rx="4" fill="#fff" stroke="#E1E4E5" stroke-width="4"/><rect x="485.1" y="276.614" width="301.306" height="130.463" rx="4" fill="#fff" stroke="#E1E4E5" stroke-width="4"/><path d="M650.493 340.993h-16.499a9.892 9.892 0 0 0-9.898 9.898" stroke="#E1E4E5" stroke-width="4"/><path d="M657.091 375.876h-30.169c-12.496 0-22.626-10.13-22.626-22.626v-22.63c0-12.496 10.13-22.626 22.626-22.626h22.63c12.495 0 22.625 10.13 22.625 22.626v18.858a11.313 11.313 0 0 1-11.315 11.311" stroke="#E1E4E5" stroke-width="4"/><path fill-rule="evenodd" clip-rule="evenodd" d="M256.141 457.012h-3.365a1.47 1.47 0 0 1-1.469-1.469v-3.365a1.47 1.47 0 0 1 1.469-1.468h3.365c.807 0 1.468.662 1.468 1.468v3.365a1.465 1.465 0 0 1-1.468 1.469zm-11.707.264h-3.365a1.474 1.474 0 0 1-1.469-1.468v-3.365a1.47 1.47 0 0 1 1.469-1.469h3.365c.806 0 1.468.662 1.468 1.469v3.365c0 .806-.662 1.468-1.468 1.468zm-11.633-.264h-3.365a1.474 1.474 0 0 1-1.468-1.469v-3.365a1.47 1.47 0 0 1 1.468-1.468h3.365c.807 0 1.469.662 1.469 1.468v3.365a1.466 1.466 0 0 1-1.469 1.469zm-11.667 0h-3.364a1.475 1.475 0 0 1-1.469-1.469v-3.365a1.47 1.47 0 0 1 1.469-1.468h3.364c.814 0 1.476.662 1.476 1.468v3.365a1.485 1.485 0 0 1-1.476 1.469zm-11.666 0h-3.365a1.476 1.476 0 0 1-1.475-1.469v-3.365c0-.813.662-1.468 1.475-1.468h3.365c.807 0 1.469.662 1.469 1.468v3.365c0 .807-.662 1.469-1.469 1.469zm34.579-12.721h-3.365a1.474 1.474 0 0 1-1.469-1.468v-3.372c0-.807.662-1.469 1.469-1.469h3.365a1.47 1.47 0 0 1 1.468 1.469v3.365a1.467 1.467 0 0 1-1.468 1.475zm-11.667 0h-3.364a1.474 1.474 0 0 1-1.469-1.468v-3.372c0-.807.662-1.469 1.469-1.469h3.364c.807 0 1.469.662 1.469 1.469v3.365a1.467 1.467 0 0 1-1.469 1.475zm-11.666 0h-3.365a1.476 1.476 0 0 1-1.475-1.468v-3.372c0-.807.662-1.469 1.475-1.469h3.365c.807 0 1.469.662 1.469 1.469v3.365c0 .813-.662 1.475-1.469 1.475zm12.087 26.388h-3.365a1.474 1.474 0 0 1-1.468-1.469v-3.365a1.47 1.47 0 0 1 1.468-1.468h3.365c.807 0 1.469.662 1.469 1.468v3.365a1.466 1.466 0 0 1-1.469 1.469zm11.456 0h-3.365a1.475 1.475 0 0 1-1.469-1.469v-3.365a1.47 1.47 0 0 1 1.469-1.468h3.365c.807 0 1.468.662 1.468 1.468v3.365a1.465 1.465 0 0 1-1.468 1.469zm-23.123 0h-3.364a1.475 1.475 0 0 1-1.469-1.469v-3.365a1.47 1.47 0 0 1 1.469-1.468h3.364c.814 0 1.476.662 1.476 1.468v3.365a1.485 1.485 0 0 1-1.476 1.469z" fill="#E1E4E5"/><path d="M246.399 273.135v73.111H141.711v-10.97c0-10.208-9.739-13.883-32.757-12.34-18.414 1.234-24.199-5.95-24.789-9.696v-46.937l-16.6-5.509c1.255-31.437 13.236-99.029 51.127-117.891 47.365-23.579 90.588-12.892 119.076 29.307 21.013 31.128 13.648 77.493 8.631 100.925z" fill="#009688"/><circle cx="121.472" cy="220.882" r="8.775" fill="#fff"/></svg>