<svg width="900" height="600" viewBox="0 0 900 600" fill="none" xmlns="http://www.w3.org/2000/svg"><path fill="transparent" d="M0 0h900v600H0z"/><path d="M801.016 395.911H733.29c-16.595 0-30.499-11.291-30.499-25.593 0-7.151 3.588-13.55 8.97-18.066 5.382-4.517 13.007-7.528 21.529-7.528h9.867c8.522 0 16.147-3.011 21.529-7.527 5.382-4.517 8.97-10.915 8.97-18.066 0-13.926-13.455-25.594-30.499-25.594H536.295c-5.402 0-8.874-6.641-8.874-12.044 0-13.549-13.007-24.464-29.154-24.464h-76.982a7.34 7.34 0 0 1 0-14.679h294.961c13.007 0 25.117-4.517 33.639-11.668 8.522-7.151 13.904-17.313 13.904-28.228 0-22.206-21.529-39.896-47.543-39.896H563.901c-23.902 0-47.563-18.442-71.465-18.442h-85.061c-12.472 0-22.583-10.111-22.583-22.583 0-12.472 10.111-22.582 22.583-22.582h190.463c8.97 0 17.492-3.011 23.323-7.904 5.83-4.893 9.418-11.668 9.418-19.572C630.579 56.42 615.778 44 597.838 44H158.74c-8.97 0-17.492 3.011-23.323 7.904-5.831 4.893-9.419 11.667-9.419 19.571 0 15.055 14.801 27.476 32.742 27.476h11.213c14.801 0 27.359 10.162 27.359 22.959 0 6.398-3.139 12.044-8.073 16.184-4.934 4.14-11.661 6.775-19.286 6.775h-54.271c-9.418 0-18.389 3.387-24.668 8.656-6.28 5.27-10.316 12.421-10.316 20.701 0 16.184 15.698 28.981 34.536 28.981h55.167c17.941 0 32.742 12.42 32.742 27.475 0 7.528-3.588 14.303-9.419 19.195-5.83 4.893-13.904 7.904-22.874 7.904h-49.337c-8.073 0-15.249 2.635-20.632 7.151-5.382 4.517-8.522 10.539-8.522 17.314 0 13.549 13.007 24.464 29.154 24.464h39.918c22.874 0 41.264 15.432 41.264 34.627 0 9.409-4.486 18.442-12.11 24.464-7.625 6.399-17.941 10.162-29.154 10.162h-55.616c-11.213 0-21.529 3.764-28.705 10.162C69.485 392.147 65 400.804 65 410.214c0 18.818 18.39 34.25 40.815 34.25h171.734c18.965 0 37.596 10.538 56.561 10.538h31.283c11.953 0 21.642 9.689 21.642 21.642 0 11.952-9.689 21.641-21.642 21.641h-76.135c-9.867 0-18.389 3.388-24.668 8.657s-10.316 12.797-10.316 20.701c0 16.184 15.698 29.357 34.984 29.357h466.458c9.867 0 18.389-3.387 24.668-8.657 6.279-5.269 10.316-12.796 10.316-20.7 0-16.184-15.698-29.358-34.984-29.358h-13.904c-14.353 0-25.566-9.785-25.566-21.453 0-6.022 2.691-11.291 7.625-15.055 4.485-3.764 11.213-6.398 18.389-6.398h58.756c9.867 0 18.389-3.388 24.668-8.657S836 433.925 836 426.021c0-16.937-15.698-30.11-34.984-30.11z" fill="url(#a)"/><rect x="230" y="78" width="537.382" height="400.707" rx="4" fill="#fff" stroke="#E1E4E5" stroke-width="4"/><rect x="230" y="78" width="537.382" height="46.594" rx="4" fill="#fff" stroke="#E1E4E5" stroke-width="4"/><rect x="248.637" y="93.531" width="15.531" height="15.531" rx="7.766" fill="#fff" stroke="#E1E4E5" stroke-width="4"/><rect x="276.594" y="93.531" width="15.531" height="15.531" rx="7.766" fill="#fff" stroke="#E1E4E5" stroke-width="4"/><rect x="304.55" y="93.531" width="15.531" height="15.531" rx="7.766" fill="#fff" stroke="#E1E4E5" stroke-width="4"/><rect x="367" y="158" width="378.186" height="282" rx="4" fill="#fff" stroke="#E1E4E5" stroke-width="4"/><rect x="367" y="158" width="378.186" height="32.791" rx="4" fill="#fff" stroke="#E1E4E5" stroke-width="4"/><rect x="380.116" y="168.93" width="10.93" height="10.93" rx="5.465" fill="#fff" stroke="#E1E4E5" stroke-width="4"/><rect x="399.791" y="168.93" width="10.93" height="10.93" rx="5.465" fill="#fff" stroke="#E1E4E5" stroke-width="4"/><rect x="419.465" y="168.93" width="10.93" height="10.93" rx="5.465" fill="#fff" stroke="#E1E4E5" stroke-width="4"/><path stroke="#E1E4E5" stroke-width="4" d="m718.414 168.586 12 12m.172-12-12 12"/><rect x="396" y="341" width="51" height="62" rx="4" fill="#009688"/><rect x="463" y="307" width="51" height="96" rx="4" fill="#fff" stroke="#E1E4E5" stroke-width="4"/><rect x="530" y="279" width="51" height="124" rx="4" fill="#009688"/><rect x="597" y="252" width="51" height="151" rx="4" fill="#fff" stroke="#E1E4E5" stroke-width="4"/><rect x="664" y="220" width="51" height="183" rx="4" fill="#009688"/><rect x="133" y="145" width="194" height="174" rx="10" fill="#009688"/><rect x="161" y="230" width="38" height="46" rx="19" fill="#fff"/><rect x="211" y="205" width="38" height="71" rx="19" fill="#fff"/><rect x="260" y="184" width="38" height="92" rx="19" fill="#fff"/><circle cx="382.5" cy="478.5" r="8.5" fill="#fff" stroke="#E1E4E5" stroke-width="4"/><circle cx="454.5" cy="478.5" r="8.5" fill="#fff" stroke="#E1E4E5" stroke-width="4"/><circle cx="518.5" cy="478.5" r="8.5" fill="#fff" stroke="#E1E4E5" stroke-width="4"/><circle cx="582.5" cy="478.5" r="8.5" fill="#fff" stroke="#E1E4E5" stroke-width="4"/><circle cx="646.5" cy="478.5" r="8.5" fill="#fff" stroke="#E1E4E5" stroke-width="4"/><circle cx="710.5" cy="478.5" r="8.5" fill="#fff" stroke="#E1E4E5" stroke-width="4"/><circle cx="234" cy="437" r="86" fill="#fff" stroke="#E1E4E5" stroke-width="4"/><circle cx="234" cy="437" r="64" fill="#009688"/><circle cx="234" cy="437" r="40" fill="#fff"/><circle cx="234" cy="437" r="22" fill="#009688"/><rect x="456.411" y="226.858" width="124.589" height="10.068" rx="5.034" fill="#E1E4E5"/><rect x="456.411" y="248.252" width="80.542" height="10.068" rx="5.034" fill="#E1E4E5"/><path fill-rule="evenodd" clip-rule="evenodd" d="M417.251 264.288c-11.736 0-21.251-9.649-21.251-21.551 0-11.901 9.515-21.55 21.251-21.55s21.251 9.649 21.251 21.55c0 11.902-9.515 21.551-21.251 21.551z" fill="#009688"/><path d="m424.734 239.146-8.978 9.578-5.389-5.745" stroke="#fff" stroke-width="3.148" stroke-linecap="round" stroke-linejoin="round"/><defs><linearGradient id="a" x1="466.939" y1="844.617" x2="456.413" y2="-514.159" gradientUnits="userSpaceOnUse"><stop stop-color="#fff"/><stop offset="1" stop-color="#EEE"/></linearGradient></defs></svg>