<svg width="900" height="600" viewBox="0 0 900 600" fill="none" xmlns="http://www.w3.org/2000/svg"><path fill="transparent" d="M0 0h900v600H0z"/><path d="M801.815 129.707c-25.76 12.779-59.951-3.652-59.951-3.652s7.599-37.142 33.373-49.902c25.76-12.779 59.937 3.634 59.937 3.634s-7.598 37.142-33.359 49.92z" fill="url(#a)"/><path d="M201.369 420.321c21.154 12.678 51.504.958 51.504.958s-3.968-32.272-25.136-44.936c-21.154-12.679-51.491-.973-51.491-.973s3.969 32.272 25.123 44.951z" fill="url(#b)"/><circle cx="431.066" cy="386.066" r="14.066" transform="rotate(180 431.066 386.066)" fill="#009688"/><circle cx="293.206" cy="346.297" r="15.824" transform="rotate(180 293.206 346.297)" fill="#009688"/><circle r="13.187" transform="matrix(-1 0 0 1 358.909 143.195)" fill="#009688"/><circle r="6.154" transform="matrix(-1 0 0 1 634.46 207.907)" fill="#009688"/><circle r="7.912" transform="matrix(-1 0 0 1 669.975 482.494)" fill="#E1E4E5"/><circle r="11.428" transform="matrix(-1 0 0 1 116.947 400.34)" fill="#E1E4E5"/><circle r="8.698" transform="matrix(-1 0 0 1 249.11 108.334)" fill="#E1E4E5"/><circle r="9.67" transform="matrix(-1 0 0 1 671.398 109.948)" fill="#E1E4E5"/><circle r="8.684" transform="scale(1 -1) rotate(-75 -71.585 -203.11)" fill="#E1E4E5"/><circle r="11.552" transform="matrix(-1 0 0 1 365.25 59.552)" fill="#E1E4E5"/><ellipse rx="8.886" ry="7.109" transform="matrix(-1 0 0 1 732.042 330.655)" fill="#E1E4E5"/><circle r="18.073" transform="scale(1 -1) rotate(-75 199.922 -388.977)" fill="#E1E4E5"/><path d="M799.431 281.557h.233c1.376 19.505 15.882 19.805 15.882 19.805s-15.995.312-15.995 22.849c0-22.537-15.996-22.849-15.996-22.849s14.5-.3 15.876-19.805zM215.162 471.175h.206c1.222 17.653 14.093 17.925 14.093 17.925s-14.193.282-14.193 20.68c0-20.398-14.193-20.68-14.193-20.68s12.866-.272 14.087-17.925z" fill="#E1E4E5"/><path fill-rule="evenodd" clip-rule="evenodd" d="m121.322 256.378 32.805 17.245c6.389 3.361 13.856-2.064 12.633-9.189l-6.262-36.555 26.544-25.868c5.166-5.042 2.318-13.829-4.82-14.87l-36.675-5.334-16.393-33.267c-3.195-6.485-12.414-6.485-15.609 0l-16.393 33.267-36.694 5.352c-7.137 1.042-9.985 9.829-4.819 14.871l26.544 25.868-6.262 36.554c-1.223 7.125 6.243 12.551 12.633 9.189l32.805-17.245h-.037v-.018zm156.044 0 32.805 17.245c6.389 3.361 13.856-2.064 12.633-9.189l-6.262-36.555 26.543-25.868c5.167-5.042 2.319-13.829-4.819-14.87l-36.675-5.334-16.393-33.267c-3.195-6.485-12.414-6.485-15.609 0l-16.393 33.267-36.694 5.352c-7.137 1.042-9.985 9.829-4.819 14.871l26.543 25.868-6.261 36.554c-1.223 7.125 6.243 12.551 12.633 9.189l32.805-17.245h-.037v-.018zm156.043 0 32.805 17.245c6.39 3.361 13.856-2.064 12.633-9.189l-6.261-36.555 26.543-25.868c5.166-5.042 2.318-13.829-4.819-14.87l-36.676-5.334-16.393-33.267c-3.195-6.485-12.414-6.485-15.608 0l-16.394 33.267-36.693 5.352c-7.138 1.042-9.986 9.829-4.82 14.871l26.544 25.868-6.262 36.554c-1.223 7.125 6.244 12.551 12.633 9.189l32.805-17.245h-.037v-.018zm156.044 0 32.805 17.245c6.39 3.361 13.856-2.064 12.633-9.189l-6.261-36.555 26.543-25.868c5.166-5.042 2.318-13.829-4.82-14.87l-36.675-5.334-16.393-33.267c-3.195-6.485-12.414-6.485-15.608 0l-16.394 33.267-36.693 5.352c-7.138 1.042-9.986 9.829-4.82 14.871l26.544 25.868-6.262 36.554c-1.223 7.125 6.244 12.551 12.633 9.189l32.805-17.245h-.037v-.018zm156.044 0 32.805 17.245c6.389 3.361 13.856-2.064 12.633-9.189l-6.262-36.555 26.543-25.868c5.167-5.042 2.319-13.829-4.819-14.87l-36.675-5.334-16.394-33.267c-3.194-6.485-12.413-6.485-15.608 0l-16.393 33.267-36.694 5.352c-7.138 1.042-9.985 9.829-4.819 14.871l26.543 25.868-6.261 36.554c-1.223 7.125 6.243 12.551 12.632 9.189l32.805-17.245h-.036v-.018z" fill="#009688"/><path d="M505.201 552.138s40.116-53.976 72.434-67.592c31.976-13.469 120.934-31.559 178.502-76.491a2.93 2.93 0 0 0 .828-3.647c-2.291-4.425-9.846-13.129-33-5.884-30.124 9.483-53.375 16.145-53.375 16.145s68.827-117.63 85.108-150.891c3.217-6.565 5.069-12.205 5.947-17.117 2.729-15.317-18.036-22.855-26.079-9.531l-47.087 77.95s.439-10.358-7.847-14.491c-7.848-3.89-23.105 3.501-29.783 16.144 0 0-.488-11.67-12.381-13.713-11.894-2.042-23.544 10.115-27.98 17.166 0 0 1.95-11.233-6.19-15.172s-24.177 6.322-27.979 10.941c-3.802 4.62-42.067 37.395-73.848 109.023l-85.449 53.83s-3.802 37.978 88.179 73.33z" fill="#F8AE9D"/><defs><linearGradient id="a" x1="702.892" y1="169.567" x2="915.365" y2="1.501" gradientUnits="userSpaceOnUse"><stop stop-color="#fff"/><stop offset="1" stop-color="#EEE"/></linearGradient><linearGradient id="b" x1="283.231" y1="461.133" x2="113.015" y2="302.98" gradientUnits="userSpaceOnUse"><stop stop-color="#fff"/><stop offset="1" stop-color="#EEE"/></linearGradient></defs></svg>