<svg width="900" height="600" viewBox="0 0 900 600" fill="none" xmlns="http://www.w3.org/2000/svg"><path fill="transparent" d="M0 0h900v600H0z"/><rect x="148" y="49.421" width="672.618" height="501.548" rx="4" fill="#fff" stroke="#E1E4E5" stroke-width="4"/><path d="M692.247 167.66a30 30 0 0 1 30 0l37.765 21.803a30 30 0 0 1 15 25.981v43.607a29.999 29.999 0 0 1-15 25.98l-37.765 21.804a30 30 0 0 1-30 0l-37.764-21.804a29.999 29.999 0 0 1-15-25.98v-43.607a30 30 0 0 1 15-25.981l37.764-21.803z" fill="#009688"/><path d="m731.449 222.63-28.562 28.333-17.137-17" stroke="#fff" stroke-width="8.45" stroke-linecap="round" stroke-linejoin="round"/><rect x="469" y="458.421" width="51" height="62" rx="4" fill="#009688"/><rect x="536" y="424.421" width="51" height="96" rx="4" fill="#fff" stroke="#E1E4E5" stroke-width="4"/><rect x="603" y="396.421" width="51" height="124" rx="4" fill="#009688"/><rect x="670" y="369.421" width="51" height="151" rx="4" fill="#fff" stroke="#E1E4E5" stroke-width="4"/><rect x="737" y="337.421" width="51" height="183" rx="4" fill="#009688"/><rect x="148.382" y="49" width="672.618" height="58.319" rx="4" fill="#fff" stroke="#E1E4E5" stroke-width="4"/><rect x="171.709" y="68.44" width="19.44" height="19.44" rx="9.72" fill="#fff" stroke="#E1E4E5" stroke-width="4"/><rect x="206.701" y="68.44" width="19.44" height="19.44" rx="9.72" fill="#fff" stroke="#E1E4E5" stroke-width="4"/><rect x="241.693" y="68.44" width="19.44" height="19.44" rx="9.72" fill="#fff" stroke="#E1E4E5" stroke-width="4"/><path fill="#E1E4E5" d="M189.577 246.935h136.927v111.196H189.577z"/><path fill-rule="evenodd" clip-rule="evenodd" d="M314.864 255.512H202.136a7.045 7.045 0 0 0-7.045 7.045v84.545a7.045 7.045 0 0 0 7.045 7.046h112.728a7.045 7.045 0 0 0 7.045-7.046v-84.545a7.045 7.045 0 0 0-7.045-7.045zm-112.728-14.091c-11.673 0-21.136 9.463-21.136 21.136v84.545c0 11.674 9.463 21.137 21.136 21.137h112.728c11.673 0 21.136-9.463 21.136-21.137v-84.545c0-11.673-9.463-21.136-21.136-21.136H202.136z" fill="#E1E4E5"/><path fill-rule="evenodd" clip-rule="evenodd" d="M210.815 272.138a7.046 7.046 0 0 1 9.923-.902l33.252 27.71a7.045 7.045 0 0 0 9.02 0l33.252-27.71a7.046 7.046 0 0 1 9.021 10.825l-33.252 27.71c-7.838 6.532-19.224 6.532-27.062 0l-33.252-27.71a7.046 7.046 0 0 1-.902-9.923z" fill="#fff"/><rect x="375" y="168.421" width="220" height="220" rx="110" stroke="#E1E4E5" stroke-width="4.242" stroke-linecap="round" stroke-linejoin="bevel" stroke-dasharray="10.6 26.51"/><path fill="#E1E4E5" d="M189.577 398.935h136.927v111.196H189.577z"/><path fill-rule="evenodd" clip-rule="evenodd" d="M314.864 407.512H202.136a7.045 7.045 0 0 0-7.045 7.045v84.545a7.045 7.045 0 0 0 7.045 7.046h112.728a7.045 7.045 0 0 0 7.045-7.046v-84.545a7.045 7.045 0 0 0-7.045-7.045zm-112.728-14.091c-11.673 0-21.136 9.463-21.136 21.136v84.545c0 11.674 9.463 21.137 21.136 21.137h112.728c11.673 0 21.136-9.463 21.136-21.137v-84.545c0-11.673-9.463-21.136-21.136-21.136H202.136z" fill="#E1E4E5"/><path fill-rule="evenodd" clip-rule="evenodd" d="M210.815 424.138a7.046 7.046 0 0 1 9.923-.902l33.252 27.71a7.045 7.045 0 0 0 9.02 0l33.252-27.71a7.046 7.046 0 0 1 9.021 10.825l-33.252 27.71c-7.838 6.532-19.224 6.532-27.062 0l-33.252-27.71a7.046 7.046 0 0 1-.902-9.923z" fill="#fff"/><path fill="#009688" d="M87.577 173.935h136.927v111.196H87.577z"/><path fill-rule="evenodd" clip-rule="evenodd" d="M212.864 182.512H100.136a7.045 7.045 0 0 0-7.045 7.045v84.545a7.045 7.045 0 0 0 7.045 7.046h112.728a7.045 7.045 0 0 0 7.045-7.046v-84.545a7.045 7.045 0 0 0-7.045-7.045zm-112.728-14.091c-11.673 0-21.136 9.463-21.136 21.136v84.545c0 11.674 9.463 21.137 21.136 21.137h112.728c11.673 0 21.136-9.463 21.136-21.137v-84.545c0-11.673-9.463-21.136-21.136-21.136H100.136z" fill="#009688"/><path fill-rule="evenodd" clip-rule="evenodd" d="M108.815 199.138a7.046 7.046 0 0 1 9.923-.902l33.252 27.71a7.045 7.045 0 0 0 9.02 0l33.252-27.71a7.046 7.046 0 0 1 9.021 10.825l-33.252 27.71c-7.838 6.532-19.224 6.532-27.062 0l-33.252-27.71a7.046 7.046 0 0 1-.902-9.923z" fill="#fff"/><circle cx="484.265" cy="278.686" r="18.265" transform="rotate(180 484.265 278.686)" fill="#009688"/><circle r="17.124" transform="matrix(-1 0 0 1 422.123 506.124)" fill="#009688"/><circle r="10.274" transform="scale(1 -1) rotate(60 496.325 170.749)" fill="#E1E4E5"/><circle r="14.84" transform="matrix(-1 0 0 1 374.84 414.261)" fill="#E1E4E5"/><circle r="15.001" transform="matrix(-1 0 0 1 327.002 158.422)" fill="#E1E4E5"/><path d="M258.866 355.421h.261c1.55 12.346 17.873 12.536 17.873 12.536s-18 .198-18 14.464c0-14.266-18-14.464-18-14.464s16.317-.19 17.866-12.536z" fill="#E1E4E5"/></svg>