<svg width="900" height="600" viewBox="0 0 900 600" fill="none" xmlns="http://www.w3.org/2000/svg"><path fill="transparent" d="M0 0h900v600H0z"/><rect x="282.98" y="138" width="346" height="346" rx="173" stroke="#E1E4E5" stroke-width="11" stroke-linecap="round" stroke-linejoin="bevel" stroke-dasharray="10.6 26.51"/><rect x="161.98" y="333" width="164" height="198" rx="82" fill="#fff" stroke="#E1E4E5" stroke-width="11"/><rect x="373.98" y="225" width="164" height="306" rx="82" fill="#fff" stroke="#E1E4E5" stroke-width="11"/><rect x="585.98" y="135" width="164" height="396" rx="82" fill="#fff" stroke="#E1E4E5" stroke-width="11"/><circle cx="334.98" cy="188" r="34" fill="#fff" stroke="#E1E4E5" stroke-width="11"/><circle cx="478.98" cy="138" r="34" fill="#fff" stroke="#E1E4E5" stroke-width="11"/><path d="M275.228 301.66a30 30 0 0 1 30 0l37.764 21.803a30 30 0 0 1 15 25.981v43.607a29.999 29.999 0 0 1-15 25.98l-37.764 21.804a30 30 0 0 1-30 0l-37.764-21.804a29.999 29.999 0 0 1-15-25.98v-43.607a30 30 0 0 1 15-25.981l37.764-21.803z" fill="#009688"/><path d="m314.429 356.63-28.561 28.333-17.138-17" stroke="#fff" stroke-width="11" stroke-linecap="round" stroke-linejoin="round"/><path d="M487.722 301.66a30 30 0 0 1 30 0l37.764 21.803a30 30 0 0 1 15 25.981v43.607a29.999 29.999 0 0 1-15 25.98l-37.764 21.804a30 30 0 0 1-30 0l-37.764-21.804a29.999 29.999 0 0 1-15-25.98v-43.607a30 30 0 0 1 15-25.981l37.764-21.803z" fill="#009688"/><path d="m526.924 356.63-28.562 28.333-17.137-17" stroke="#fff" stroke-width="11" stroke-linecap="round" stroke-linejoin="round"/><path d="M700.217 301.66a30 30 0 0 1 30 0l37.764 21.803a30 30 0 0 1 15 25.981v43.607a29.999 29.999 0 0 1-15 25.98l-37.764 21.804a30 30 0 0 1-30 0l-37.764-21.804a29.999 29.999 0 0 1-15-25.98v-43.607a30 30 0 0 1 15-25.981l37.764-21.803z" fill="#009688"/><path d="m739.419 356.63-28.562 28.333-17.137-17" stroke="#fff" stroke-width="11" stroke-linecap="round" stroke-linejoin="round"/><path d="M650.179 115.463c-14.333 7.111-33.357-2.032-33.357-2.032s4.228-20.666 18.569-27.766c14.333-7.11 33.35 2.022 33.35 2.022s-4.228 20.666-18.562 27.776z" fill="url(#a)"/><path d="M182.462 250.893c21.577 12.933 52.534.978 52.534.978s-4.048-32.917-25.639-45.835c-21.577-12.932-52.52-.992-52.52-.992s4.047 32.917 25.625 45.849z" fill="url(#b)"/><circle cx="122.752" cy="263.859" r="16.752" transform="rotate(180 122.752 263.859)" fill="#009688"/><circle r="19.078" transform="matrix(-1 0 0 1 456.058 477.078)" fill="#009688"/><circle r="8.903" transform="matrix(-1 0 0 1 694.995 318.385)" fill="#009688"/><circle r="11.447" transform="matrix(-1 0 0 1 232.427 160.447)" fill="#E1E4E5"/><circle r="16.534" transform="matrix(-1 0 0 1 749.515 247.534)" fill="#E1E4E5"/><circle r="8.414" transform="matrix(-1 0 0 1 676.394 217.414)" fill="#E1E4E5"/><circle r="12.563" transform="matrix(0 1 1 0 585.544 125.563)" fill="#E1E4E5"/><circle r="8.414" transform="matrix(-1 0 0 1 374.394 112.414)" fill="#E1E4E5"/><ellipse rx="12.856" ry="10.285" transform="matrix(-1 0 0 1 636.837 288.285)" fill="#E1E4E5"/><defs><linearGradient id="a" x1="595.137" y1="137.642" x2="713.36" y2="44.127" gradientUnits="userSpaceOnUse"><stop stop-color="#fff"/><stop offset="1" stop-color="#EEE"/></linearGradient><linearGradient id="b" x1="265.96" y1="292.521" x2="92.341" y2="131.207" gradientUnits="userSpaceOnUse"><stop stop-color="#fff"/><stop offset="1" stop-color="#EEE"/></linearGradient></defs></svg>