<svg width="900" height="600" viewBox="0 0 900 600" fill="none" xmlns="http://www.w3.org/2000/svg"><path fill="transparent" d="M0 0h900v600H0z"/><path d="M537.419 46.44H363.923L163.318 390.72l86.748 143.676h401.21s86.748-149.098 86.748-146.387c0 2.711-200.605-341.57-200.605-341.57zm-173.495 0 287.352 487.957M537.418 46.44 250.065 534.396m-84.037-143.677h555.73" stroke="#E1E4E5" stroke-width="11" stroke-miterlimit="10" stroke-linecap="round" stroke-linejoin="round"/><path fill-rule="evenodd" clip-rule="evenodd" d="M345.513 255.726v-78.071a31.864 31.864 0 0 0-21.063-29.985l-48.595-17.494a76.477 76.477 0 0 0-51.814 0l-48.659 17.526a31.867 31.867 0 0 0-21.063 29.953v78.071c0 40.565 56.753 70.582 82.851 82.277a30.975 30.975 0 0 0 25.493 0c26.098-11.695 82.85-41.776 82.85-82.277z" fill="#009688"/><path d="M221.371 247.125a33.857 33.857 0 0 0 57.799-23.941 33.857 33.857 0 0 0-57.799-23.941c-13.222 13.222-13.222 34.659 0 47.882" stroke="#fff" stroke-width="12.661" stroke-linecap="round" stroke-linejoin="round"/><path clip-rule="evenodd" d="m288.306 266.175-19.053-19.053 19.053 19.053z" stroke="#fff" stroke-width="12.661" stroke-linecap="round" stroke-linejoin="round"/><path d="M550.903 227.613v-49.106l17.679-28.678 117.069-4.714 47.535 15.321 3.143 59.713-3.143 52.642-22.393 14.142-7.464 38.107-56.963-33.785-57.356-4.322-38.107-20.428v-38.892z" fill="#009688"/><path fill-rule="evenodd" clip-rule="evenodd" d="M695.453 278.478v32.509l-53.194-31.433-5.56-.091c-22.108-.362-42.004-2.588-56.881-4.851-9.388-1.429-15.912-7.981-17.329-16.209-1.966-11.412-3.641-25.871-3.641-41.937s1.675-30.524 3.641-41.937c1.417-8.227 7.941-14.78 17.329-16.208 16.272-2.476 38.523-4.903 63.095-4.903 24.571 0 46.823 2.427 63.094 4.903 9.389 1.428 15.913 7.981 17.33 16.208 1.966 11.413 3.64 25.871 3.64 41.937s-1.674 30.525-3.64 41.937c-1.231 7.145-6.222 12.872-13.499 15.291l-14.385 4.784zm48.595-107.516c-3.049-17.703-17.121-30.716-34.88-33.418-17.016-2.589-40.359-5.142-66.255-5.142-25.897 0-49.24 2.553-66.256 5.142-17.759 2.702-31.83 15.715-34.879 33.418-2.126 12.338-3.946 28.011-3.946 45.504 0 17.494 1.82 33.167 3.946 45.505 3.049 17.702 17.12 30.716 34.879 33.418 15.567 2.368 36.43 4.707 59.698 5.088l64.26 37.972c7.005 4.139 15.854-.911 15.854-9.047v-35.765c14.222-4.729 24.961-16.47 27.579-31.666 2.125-12.338 3.945-28.011 3.945-45.505 0-17.493-1.82-33.166-3.945-45.504z" fill="#009688"/><path fill-rule="evenodd" clip-rule="evenodd" d="M695.453 185.176c5.803 0 10.508 4.704 10.508 10.508 0 5.803-4.705 10.508-10.508 10.508H590.372c-5.803 0-10.508-4.705-10.508-10.508 0-5.804 4.705-10.508 10.508-10.508h105.081zm0 42.032c5.803 0 10.508 4.704 10.508 10.508 0 5.803-4.705 10.508-10.508 10.508H653.42c-5.803 0-10.508-4.705-10.508-10.508 0-5.804 4.705-10.508 10.508-10.508h42.033z" fill="#fff"/><path d="M227.163 85.288c16.35 8.11 38.049-2.318 38.049-2.318s-4.822-23.573-21.18-31.672c-16.35-8.11-38.041 2.307-38.041 2.307s4.823 23.573 21.172 31.683z" fill="url(#a)"/><circle r="11.103" transform="matrix(1 0 0 -1 108.103 108.103)" fill="#009688"/><circle r="20.882" transform="matrix(1 0 0 -1 630.693 75.681)" fill="#009688"/><circle cx="807.667" cy="220.012" r="11.098" fill="#009688"/><circle cx="96.788" cy="224.6" r="15.686" fill="#E1E4E5"/><circle cx="796.375" cy="547.207" r="19.717" fill="#E1E4E5"/><circle cx="799.82" cy="372.78" r="15.66" transform="rotate(105 799.82 372.78)" fill="#E1E4E5"/><ellipse cx="115.884" cy="423.669" rx="16.026" ry="12.821" fill="#E1E4E5"/><circle cx="107.023" cy="527.078" r="25.578" transform="rotate(90 107.023 527.078)" fill="#E1E4E5"/><defs><linearGradient id="a" x1="289.947" y1="110.586" x2="155.096" y2="3.919" gradientUnits="userSpaceOnUse"><stop stop-color="#fff"/><stop offset="1" stop-color="#EEE"/></linearGradient></defs></svg>