<svg width="900" height="600" viewBox="0 0 900 600" fill="none" xmlns="http://www.w3.org/2000/svg"><path fill="transparent" d="M0 0h900v600H0z"/><path d="M752.563 399.649h-55.005c-13.479 0-24.771-9.174-24.771-20.793 0-5.81 2.914-11.008 7.285-14.677 4.372-3.67 10.564-6.116 17.486-6.116h8.014c6.921 0 13.114-2.446 17.485-6.115 4.371-3.67 7.285-8.868 7.285-14.678 0-11.313-10.928-20.792-24.77-20.792H537.565c-4.389 0-7.21-5.396-7.21-9.785 0-11.008-10.564-19.876-23.678-19.876h-62.521a5.962 5.962 0 1 1 0-11.925h239.559c10.564 0 20.4-3.669 27.321-9.479 6.921-5.81 11.292-14.066 11.292-22.933 0-18.041-17.485-32.412-38.613-32.412H559.986c-19.414 0-38.631-14.983-58.045-14.983h-69.079c-10.133 0-18.347-8.214-18.347-18.347 0-10.132 8.214-18.347 18.347-18.347h154.684c7.286 0 14.207-2.446 18.943-6.421 4.735-3.975 7.649-9.479 7.649-15.9 0-12.231-12.021-22.322-26.592-22.322H230.92c-7.286 0-14.207 2.446-18.943 6.421-4.735 3.976-7.649 9.48-7.649 15.901 0 12.231 12.021 22.321 26.592 22.321h9.107c12.021 0 22.221 8.256 22.221 18.653 0 5.198-2.55 9.785-6.557 13.148-4.007 3.364-9.472 5.504-15.664 5.504h-44.078c-7.649 0-14.935 2.752-20.035 7.033-5.1 4.281-8.378 10.091-8.378 16.818 0 13.148 12.749 23.544 28.049 23.544h44.806c14.571 0 26.592 10.091 26.592 22.322 0 6.116-2.914 11.62-7.65 15.595-4.735 3.975-11.292 6.421-18.578 6.421h-40.07c-6.557 0-12.385 2.14-16.757 5.81-4.371 3.669-6.921 8.561-6.921 14.065 0 11.008 10.564 19.876 23.678 19.876h32.421c18.578 0 33.513 12.537 33.513 28.131 0 7.645-3.643 14.983-9.836 19.876-6.192 5.198-14.571 8.256-23.677 8.256h-45.171c-9.107 0-17.485 3.057-23.313 8.256-6.193 4.892-9.836 11.925-9.836 19.569 0 15.289 14.935 27.826 33.149 27.826h139.478c15.404 0 30.535 8.562 45.939 8.562h25.402c9.711 0 17.582 7.871 17.582 17.582 0 9.71-7.871 17.582-17.582 17.582h-61.83c-8.014 0-14.935 2.752-20.035 7.033-5.1 4.281-8.378 10.396-8.378 16.817 0 13.149 12.749 23.851 28.413 23.851h378.847c8.014 0 14.936-2.752 20.036-7.033 5.099-4.281 8.378-10.396 8.378-16.818 0-13.148-12.75-23.85-28.414-23.85h-11.292c-11.657 0-20.764-7.95-20.764-17.429 0-4.893 2.186-9.174 6.193-12.231 3.643-3.058 9.107-5.199 14.935-5.199h47.72c8.014 0 14.936-2.752 20.036-7.032 5.099-4.281 8.378-10.397 8.378-16.818 0-13.76-12.75-24.462-28.414-24.462z" fill="url(#a)"/><path d="M795.242 496.758c-13.349 6.621-31.065-1.893-31.065-1.893s3.937-19.245 17.293-25.858c13.348-6.621 31.057 1.884 31.057 1.884s-3.937 19.245-17.285 25.867z" fill="url(#b)"/><path d="M71.062 373.779c19.491 11.682 47.455.883 47.455.883s-3.656-29.735-23.16-41.404c-19.49-11.681-47.443-.896-47.443-.896s3.657 29.735 23.148 41.417z" fill="url(#c)"/><circle cx="645.942" cy="164.934" r="9.065" transform="rotate(180 645.942 164.934)" fill="#009688"/><circle cx="628.431" cy="527.623" r="17.049" transform="rotate(180 628.431 527.623)" fill="#009688"/><circle r="13.533" transform="matrix(-1 0 0 1 204.812 497.505)" fill="#009688"/><circle r="9.061" transform="matrix(-1 0 0 1 853.308 269.43)" fill="#009688"/><circle r="16.827" transform="matrix(-1 0 0 1 100.586 484.172)" fill="#E1E4E5"/><circle r="12.807" transform="matrix(-1 0 0 1 758.313 374.849)" fill="#E1E4E5"/><circle r="16.098" transform="matrix(-1 0 0 1 695.096 73.315)" fill="#E1E4E5"/><circle r="12.786" transform="scale(1 -1) rotate(-75 -18.241 -177.742)" fill="#E1E4E5"/><circle r="17.009" transform="matrix(-1 0 0 1 291.422 72.01)" fill="#E1E4E5"/><ellipse rx="13.084" ry="10.467" transform="matrix(-1 0 0 1 632.227 399.112)" fill="#E1E4E5"/><path d="M176.297 71.627h.186c1.104 15.638 12.734 15.879 12.734 15.879s-12.825.25-12.825 18.319c0-18.069-12.824-18.32-12.824-18.32s11.625-.24 12.729-15.878zm101.662 384.852h.179c1.059 15.591 12.225 15.831 12.225 15.831s-12.313.25-12.313 18.266c0-18.016-12.312-18.266-12.312-18.266s11.161-.24 12.221-15.831z" fill="#E1E4E5"/><path d="M446.403 114.707 327.1 189.125m123.935-73.903 120.845 73.903" stroke="#009688" stroke-width="11" stroke-miterlimit="10" stroke-linecap="round" stroke-linejoin="round"/><path d="M270 225.98c0-33.282 17.77-35.98 39.849-35.98h279.302C611.23 190 629 192.698 629 225.98c0 38.678-17.77 35.98-39.849 35.98H309.849c-22.079 0-39.849 2.698-39.849-35.98z" fill="#009688" stroke="#009688" stroke-width="11"/><path d="m296.728 264.575 25.34 155.28c5.751 34.866 19.59 60.386 70.99 60.386h108.373c55.893 0 64.16-24.442 70.63-58.23l30.193-157.436" fill="#009688"/><path d="m296.728 264.575 25.34 155.28c5.751 34.866 19.59 60.386 70.99 60.386h108.373c55.893 0 64.16-24.442 70.63-58.23l30.193-157.436" stroke="#009688" stroke-width="11" stroke-linecap="round"/><path d="m406.719 356.817 26.958 26.958 58.41-53.917" stroke="#fff" stroke-width="24" stroke-linecap="round" stroke-linejoin="round"/><path d="m717.071 273.933-19.299 17.842-38.597 8.011-2.185 28.402-8.375 10.196-10.559 24.76c6.554 4.491 19.954 13.691 21.119 14.565 1.165.874-3.884 8.618-6.554 12.381v16.021c5.462 3.277 16.822 9.904 18.57 10.196 2.185.364 14.201-1.457 15.658-2.913 1.456-1.457 18.206 15.657 21.483 17.842 3.277 2.185 14.201 5.462 16.022 5.098 1.456-.292 8.375-7.647 11.652-11.288l16.75-6.555 28.037-5.097 2.913-29.495 13.109-22.575 1.456-13.109-20.391-26.217-4.369-27.674-37.505-6.19-18.935-14.201z" fill="#009688"/><path fill-rule="evenodd" clip-rule="evenodd" d="m733.498 295.865-7.084-9.342c-3.594-4.74-10.72-4.74-14.314 0l-7.084 9.342a18.863 18.863 0 0 1-17.599 7.29l-11.615-1.597c-5.893-.81-10.932 4.228-10.121 10.121l1.597 11.615a18.863 18.863 0 0 1-7.29 17.599l-9.342 7.084c-4.74 3.594-4.74 10.72 0 14.314l9.342 7.084a18.863 18.863 0 0 1 7.29 17.599l-1.597 11.615c-.811 5.893 4.228 10.932 10.121 10.122l11.615-1.597a18.86 18.86 0 0 1 17.599 7.289l7.084 9.343c3.594 4.74 10.72 4.74 14.314 0l7.084-9.343a18.86 18.86 0 0 1 17.599-7.289l11.615 1.597c5.893.81 10.932-4.229 10.121-10.122l-1.597-11.615a18.863 18.863 0 0 1 7.29-17.599l9.343-7.084c4.74-3.594 4.74-10.72 0-14.314l-9.343-7.084a18.863 18.863 0 0 1-7.29-17.599l1.597-11.615c.811-5.893-4.228-10.931-10.121-10.121l-11.615 1.597a18.863 18.863 0 0 1-17.599-7.29zm7.23-20.196c-10.782-14.22-32.16-14.22-42.942 0l-7.084 9.343a.9.9 0 0 1-.838.347l-11.615-1.597c-17.679-2.431-32.795 12.685-30.365 30.364l1.597 11.615a.895.895 0 0 1-.347.838l-9.342 7.084c-14.22 10.783-14.22 32.16 0 42.942l9.342 7.084a.896.896 0 0 1 .347.838l-1.597 11.615c-2.43 17.68 12.686 32.796 30.365 30.365l11.615-1.597a.897.897 0 0 1 .838.347l7.084 9.342c10.782 14.22 32.16 14.22 42.942 0l7.084-9.342a.897.897 0 0 1 .838-.347l11.615 1.597c17.679 2.431 32.795-12.685 30.365-30.365l-1.597-11.615a.896.896 0 0 1 .347-.838l9.342-7.084c14.22-10.782 14.22-32.159 0-42.942l-9.342-7.084a.895.895 0 0 1-.347-.838l1.597-11.615c2.43-17.679-12.686-32.795-30.365-30.364l-11.615 1.597a.9.9 0 0 1-.838-.347l-7.084-9.343z" fill="#009688"/><path d="m750.142 340.383-45.637 45.637c-4.455 4.455-11.679 4.455-16.135 0-4.456-4.456-4.456-11.68 0-16.135l45.637-45.638c4.456-4.455 11.68-4.455 16.135 0 4.456 4.456 4.456 11.68 0 16.136zm-42.295-8.068c0 6.301-5.108 11.409-11.409 11.409-6.302 0-11.41-5.108-11.41-11.409 0-6.301 5.108-11.409 11.41-11.409 6.301 0 11.409 5.108 11.409 11.409zm22.819 45.637c0 6.301 5.108 11.409 11.409 11.409 6.301 0 11.409-5.108 11.409-11.409 0-6.301-5.108-11.409-11.409-11.409-6.301 0-11.409 5.108-11.409 11.409z" fill="#fff"/><path d="m177.649 273.933-19.299 17.842-38.597 8.011-2.185 28.402-8.375 10.196-10.56 24.76c6.555 4.491 19.954 13.691 21.12 14.565 1.165.874-3.884 8.618-6.555 12.381v16.021c5.462 3.277 16.823 9.904 18.571 10.196 2.185.364 14.201-1.457 15.657-2.913 1.457-1.457 18.207 15.657 21.484 17.842 3.277 2.185 14.201 5.462 16.021 5.098 1.457-.292 8.375-7.647 11.652-11.288l16.75-6.555 28.038-5.097 2.913-29.495 13.109-22.575 1.456-13.109-20.391-26.217-4.37-27.674-37.505-6.19-18.934-14.201z" fill="#009688"/><path fill-rule="evenodd" clip-rule="evenodd" d="m194.076 295.865-7.084-9.342c-3.594-4.74-10.72-4.74-14.314 0l-7.084 9.342a18.864 18.864 0 0 1-17.599 7.29l-11.615-1.597c-5.893-.81-10.932 4.228-10.122 10.121l1.597 11.615a18.86 18.86 0 0 1-7.289 17.599l-9.343 7.084c-4.74 3.594-4.74 10.72 0 14.314l9.343 7.084a18.86 18.86 0 0 1 7.289 17.599l-1.597 11.615c-.81 5.893 4.229 10.932 10.122 10.122l11.615-1.597a18.861 18.861 0 0 1 17.599 7.289l7.084 9.343c3.594 4.74 10.72 4.74 14.314 0l7.084-9.343a18.86 18.86 0 0 1 17.598-7.289l11.616 1.597c5.893.81 10.931-4.229 10.121-10.122l-1.597-11.615a18.863 18.863 0 0 1 7.29-17.599l9.342-7.084c4.74-3.594 4.74-10.72 0-14.314l-9.342-7.084a18.863 18.863 0 0 1-7.29-17.599l1.597-11.615c.81-5.893-4.228-10.931-10.121-10.121l-11.616 1.597a18.862 18.862 0 0 1-17.598-7.29zm7.23-20.196c-10.783-14.22-32.16-14.22-42.942 0l-7.084 9.343a.9.9 0 0 1-.838.347l-11.615-1.597c-17.68-2.431-32.796 12.685-30.365 30.364l1.597 11.615a.897.897 0 0 1-.347.838l-9.342 7.084c-14.22 10.783-14.22 32.16 0 42.942l9.342 7.084a.898.898 0 0 1 .347.838l-1.597 11.615c-2.431 17.68 12.685 32.796 30.365 30.365l11.615-1.597a.898.898 0 0 1 .838.347l7.084 9.342c10.782 14.22 32.159 14.22 42.942 0l7.084-9.342a.897.897 0 0 1 .838-.347l11.615 1.597c17.679 2.431 32.795-12.685 30.364-30.365l-1.597-11.615a.9.9 0 0 1 .347-.838l9.343-7.084c14.22-10.782 14.22-32.159 0-42.942l-9.343-7.084a.9.9 0 0 1-.347-.838l1.597-11.615c2.431-17.679-12.685-32.795-30.364-30.364l-11.615 1.597a.9.9 0 0 1-.838-.347l-7.084-9.343z" fill="#009688"/><path d="m210.72 340.383-45.637 45.637c-4.456 4.455-11.68 4.455-16.135 0-4.456-4.456-4.456-11.68 0-16.135l45.637-45.638c4.455-4.455 11.679-4.455 16.135 0 4.456 4.456 4.456 11.68 0 16.136zm-42.295-8.068c0 6.301-5.109 11.409-11.41 11.409s-11.409-5.108-11.409-11.409c0-6.301 5.108-11.409 11.409-11.409 6.301 0 11.41 5.108 11.41 11.409zm22.818 45.637c0 6.301 5.108 11.409 11.409 11.409 6.302 0 11.41-5.108 11.41-11.409 0-6.301-5.108-11.409-11.41-11.409-6.301 0-11.409 5.108-11.409 11.409z" fill="#fff"/><circle cx="448.977" cy="115.736" r="20.589" fill="#fff" stroke="#009688" stroke-width="11"/><defs><linearGradient id="a" x1="481.233" y1="764.188" x2="472.679" y2="-339.713" gradientUnits="userSpaceOnUse"><stop stop-color="#fff"/><stop offset="1" stop-color="#EEE"/></linearGradient><linearGradient id="b" x1="743.983" y1="517.411" x2="854.079" y2="430.325" gradientUnits="userSpaceOnUse"><stop stop-color="#fff"/><stop offset="1" stop-color="#EEE"/></linearGradient><linearGradient id="c" x1="146.488" y1="411.383" x2="-10.346" y2="265.663" gradientUnits="userSpaceOnUse"><stop stop-color="#fff"/><stop offset="1" stop-color="#EEE"/></linearGradient></defs></svg>