<svg width="900" height="600" viewBox="0 0 900 600" fill="none" xmlns="http://www.w3.org/2000/svg"><path fill="transparent" d="M0 0h900v600H0z"/><path d="M841.061 379.732c-14.844 7.363-34.546-2.105-34.546-2.105s4.379-21.403 19.231-28.756c14.844-7.364 34.538 2.094 34.538 2.094s-4.378 21.403-19.223 28.767z" fill="url(#a)"/><path d="M87.677 169.22c22.347 13.393 54.406 1.012 54.406 1.012s-4.192-34.09-26.551-47.468c-22.346-13.393-54.393-1.027-54.393-1.027s4.192 34.09 26.538 47.483z" fill="url(#b)"/><circle cx="104.065" cy="250.081" r="17.349" transform="rotate(180 104.065 250.081)" fill="#009688"/><circle r="19.758" transform="matrix(-1 0 0 1 215.833 519.743)" fill="#009688"/><circle r="9.22" transform="matrix(-1 0 0 1 616.011 163.904)" fill="#009688"/><circle r="11.855" transform="matrix(-1 0 0 1 154.344 65.327)" fill="#E1E4E5"/><circle r="17.123" transform="matrix(-1 0 0 1 48.93 362.902)" fill="#E1E4E5"/><circle r="8.714" transform="matrix(-1 0 0 1 737.272 172.897)" fill="#E1E4E5"/><circle r="13.011" transform="matrix(0 1 1 0 790.366 210.887)" fill="#E1E4E5"/><circle r="8.714" transform="matrix(-1 0 0 1 281.835 56.714)" fill="#E1E4E5"/><ellipse rx="13.315" ry="10.652" transform="matrix(-1 0 0 1 834.005 500.147)" fill="#E1E4E5"/><path d="M137.912 432.986h.182c1.078 15.867 12.441 16.111 12.441 16.111s-12.53.254-12.53 18.587c0-18.333-12.53-18.587-12.53-18.587s11.358-.244 12.437-16.111z" fill="#E1E4E5"/><path d="M733.313 382.333h-54.799c-13.427 0-24.677-9.117-24.677-20.665 0-5.774 2.903-10.94 7.258-14.586 4.355-3.647 10.524-6.078 17.419-6.078h7.984c6.895 0 13.065-2.431 17.42-6.078 4.355-3.647 7.258-8.813 7.258-14.587 0-11.244-10.887-20.664-24.678-20.664H519.102c-4.361 0-7.162-5.364-7.162-9.725 0-10.94-10.524-19.753-23.589-19.753h-62.3a5.926 5.926 0 1 1 0-11.851h238.673c10.524 0 20.323-3.647 27.218-9.421 6.895-5.774 11.25-13.979 11.25-22.792 0-17.929-17.42-32.212-38.468-32.212H541.438c-19.331 0-38.474-14.891-57.804-14.891h-68.865c-10.07 0-18.233-8.163-18.233-18.233s8.163-18.234 18.233-18.234h154.148c7.258 0 14.153-2.431 18.871-6.381 4.717-3.951 7.621-9.421 7.621-15.803 0-12.155-11.976-22.184-26.492-22.184H213.631c-7.258 0-14.153 2.431-18.871 6.382-4.718 3.95-7.621 9.421-7.621 15.802 0 12.156 11.976 22.184 26.492 22.184h9.073c11.976 0 22.137 8.205 22.137 18.538 0 5.166-2.54 9.724-6.532 13.067s-9.436 5.47-15.605 5.47h-43.912c-7.621 0-14.879 2.735-19.96 6.989-5.08 4.255-8.347 10.029-8.347 16.714 0 13.068 12.702 23.4 27.944 23.4h44.638c14.516 0 26.492 10.028 26.492 22.184 0 6.078-2.903 11.548-7.621 15.498-4.718 3.951-11.25 6.382-18.508 6.382h-39.92c-6.532 0-12.339 2.127-16.694 5.774-4.355 3.647-6.895 8.509-6.895 13.979 0 10.94 10.524 19.753 23.589 19.753h32.299c18.508 0 33.387 12.459 33.387 27.958 0 7.597-3.629 14.89-9.799 19.753-6.169 5.166-14.516 8.205-23.588 8.205h-45.001c-9.072 0-17.419 3.039-23.226 8.205-6.169 4.862-9.798 11.852-9.798 19.449 0 15.194 14.879 27.654 33.024 27.654h138.963c15.342 0 30.415 8.509 45.757 8.509h25.349c9.65 0 17.474 7.823 17.474 17.473 0 9.651-7.824 17.474-17.474 17.474h-61.64c-7.984 0-14.879 2.735-19.96 6.99-5.081 4.254-8.347 10.332-8.347 16.714 0 13.067 12.702 23.703 28.307 23.703H696.66c7.984 0 14.879-2.735 19.96-6.989 5.08-4.255 8.346-10.333 8.346-16.714 0-13.068-12.701-23.704-28.306-23.704h-11.251c-11.612 0-20.685-7.901-20.685-17.322 0-4.862 2.177-9.116 6.169-12.155 3.629-3.039 9.073-5.166 14.879-5.166h47.541c7.984 0 14.879-2.735 19.96-6.99 5.081-4.254 8.347-10.332 8.347-16.714 0-13.675-12.702-24.311-28.307-24.311z" fill="url(#c)"/><path d="M503.602 137.526H394.705c-63.187 0-68.061 56.906-33.946 87.885l176.789 160.953c34.114 30.978 29.241 87.885-33.946 87.885H394.705c-63.187 0-68.061-56.907-33.946-87.885l176.789-160.953c34.114-30.979 29.241-87.885-33.946-87.885z" fill="#009688"/><path d="M96.002 192.571s49.126 19.379 66.02 41.068c16.713 21.46 48.491 85.106 94.287 119.533a2.31 2.31 0 0 0 2.938-.115c2.896-2.635 7.974-10.124-2.224-26.173-13.31-20.87-23.084-37.112-23.084-37.112s103.288 28.156 131.848 33.709c5.638 1.099 10.297 1.354 14.205 1.018 12.186-1.051 13.699-18.3 1.95-21.676l-68.746-19.776s7.955-1.776 9.413-8.889c1.363-6.731-7.344-16.774-18.3-19.255 0 0 8.764-2.744 7.903-12.161-.861-9.417-12.455-15.761-18.71-17.683 0 0 8.926-.81 10.267-7.773 1.34-6.962-9.704-17.012-13.983-18.949-4.279-1.938-36.929-24.229-97.77-33.707l-58.208-53.718s-29.613 4.851-37.806 81.659zm706.961 227.015s-49.126-19.379-66.02-41.068c-16.714-21.46-48.491-85.107-94.288-119.533a2.309 2.309 0 0 0-2.937.115c-2.896 2.634-7.974 10.124 2.224 26.173 13.31 20.87 23.084 37.112 23.084 37.112s-103.288-28.156-131.849-33.71c-5.637-1.099-10.297-1.353-14.204-1.017-12.186 1.051-13.699 18.3-1.95 21.676l68.746 19.776s-7.955 1.776-9.414 8.888c-1.362 6.732 7.345 16.775 18.301 19.256 0 0-8.764 2.744-7.903 12.161.861 9.417 12.455 15.761 18.709 17.683 0 0-8.926.81-10.266 7.773-1.34 6.962 9.704 17.012 13.983 18.949 4.279 1.938 36.929 24.229 97.77 33.707l58.208 53.717s29.612-4.85 37.806-81.658z" fill="#F8AE9D"/><defs><linearGradient id="a" x1="784.058" y1="402.701" x2="906.494" y2="305.853" gradientUnits="userSpaceOnUse"><stop stop-color="#fff"/><stop offset="1" stop-color="#EEE"/></linearGradient><linearGradient id="b" x1="174.151" y1="212.331" x2="-5.654" y2="45.268" gradientUnits="userSpaceOnUse"><stop stop-color="#fff"/><stop offset="1" stop-color="#EEE"/></linearGradient><linearGradient id="c" x1="463.003" y1="744.624" x2="454.523" y2="-352.47" gradientUnits="userSpaceOnUse"><stop stop-color="#fff"/><stop offset="1" stop-color="#EEE"/></linearGradient></defs></svg>