<svg width="900" height="600" viewBox="0 0 900 600" fill="none" xmlns="http://www.w3.org/2000/svg"><path fill="transparent" d="M0 0h900v600H0z"/><path d="M766.363 276.531c-15.011 7.446-34.934-2.128-34.934-2.128s4.428-21.643 19.447-29.079c15.011-7.446 34.926 2.118 34.926 2.118s-4.428 21.643-19.439 29.089z" fill="url(#a)"/><path d="M143.079 324.266c20.457 12.261 49.808.927 49.808.927s-3.838-31.21-24.308-43.457c-20.458-12.261-49.796-.941-49.796-.941s3.838 31.21 24.296 43.471z" fill="url(#b)"/><circle cx="725.772" cy="143.274" r="17.23" transform="rotate(180 725.772 143.274)" fill="#009688"/><circle cx="282.378" cy="112.378" r="7.378" transform="rotate(180 282.378 112.378)" fill="#009688"/><circle cx="674.184" cy="221.184" r="14.184" transform="rotate(180 674.184 221.184)" fill="#009688"/><circle r="7.538" transform="matrix(-1 0 0 1 736.085 319.04)" fill="#009688"/><circle r="9.692" transform="matrix(-1 0 0 1 698.888 504.42)" fill="#E1E4E5"/><circle r="9.964" transform="matrix(-1 0 0 1 127.995 502.061)" fill="#E1E4E5"/><circle r="5.244" transform="matrix(-1 0 0 1 748.398 479.511)" fill="#E1E4E5"/><circle r="11.846" transform="matrix(-1 0 0 1 653.955 85.56)" fill="#E1E4E5"/><circle r="10.637" transform="scale(1 -1) rotate(-75 -61.402 -182.02)" fill="#E1E4E5"/><circle r="14.151" transform="matrix(-1 0 0 1 381.812 83.556)" fill="#E1E4E5"/><ellipse rx="10.886" ry="8.709" transform="matrix(-1 0 0 1 772.889 397.62)" fill="#E1E4E5"/><circle r="9.646" transform="scale(1 -1) rotate(-75 228.989 -381.116)" fill="#E1E4E5"/><path d="M178.766 120.896h.155c.919 13.01 10.595 13.211 10.595 13.211s-10.67.208-10.67 15.242c0-15.034-10.67-15.242-10.67-15.242s9.672-.201 10.59-13.211zm68.064 404.575h.149c.882 12.972 10.172 13.171 10.172 13.171s-10.244.208-10.244 15.197c0-14.989-10.244-15.197-10.244-15.197s9.286-.199 10.167-13.171z" fill="#E1E4E5"/><circle r="11.259" transform="matrix(-1 0 0 1 418.777 468.744)" fill="#009688"/><path d="M242.75 506.25h417.5m-394.332 0V318.375c0-34.652 31.104-62.625 69.514-62.625h231.921c38.41 0 69.514 27.973 69.514 62.625V506.25m-319.801-250.5v-59.076c0-25.05 22.545-45.299 50.518-45.299h168.044c27.763 0 50.308 20.249 50.308 45.299v59.076" stroke="#E1E4E5" stroke-width="24" stroke-linecap="round" stroke-linejoin="round"/><path d="m274.685 338.832 7.723.209c15.448.209 27.764 12.734 27.764 28.181v6.889c0 15.447 12.525 28.181 28.181 28.181 15.448 0 28.182-12.525 28.182-28.181v-6.471c0-15.448 12.525-28.182 28.181-28.182 15.447 0 28.181 12.525 28.181 28.182v6.471c0 15.447 12.525 28.181 28.181 28.181 15.448 0 28.182-12.525 28.182-28.181v-6.471c0-15.448 12.525-28.182 28.181-28.182 15.447 0 28.181 12.525 28.181 28.182v6.471c0 15.447 12.525 28.181 28.181 28.181 15.448 0 28.182-12.525 28.182-28.181v-6.471c0-15.448 12.525-28.182 28.181-28.182h9.394M368 151.375v-41.75m167 41.75v-41.75m-83.5 41.75V88.75" stroke="#E1E4E5" stroke-width="24" stroke-linecap="round" stroke-linejoin="round"/><circle r="64.498" transform="matrix(-1 0 0 1 251.498 319.498)" fill="#009688"/><path fill-rule="evenodd" clip-rule="evenodd" d="M273.739 342.064v3.173a3.177 3.177 0 0 1-3.177 3.174h-38.127a3.177 3.177 0 0 1-3.177-3.174v-3.224c0-9.604 10.987-15.843 22.241-15.843 11.253 0 22.24 6.243 22.24 15.843m-14.377-43.723c4.342 4.343 4.342 11.384 0 15.726-4.343 4.343-11.384 4.343-15.727 0-4.343-4.342-4.343-11.383 0-15.726 4.343-4.343 11.384-4.343 15.727 0z" fill="#fff"/><circle r="64.498" transform="matrix(-1 0 0 1 642.498 319.498)" fill="#009688"/><path fill-rule="evenodd" clip-rule="evenodd" d="M664.739 342.064v3.173a3.177 3.177 0 0 1-3.177 3.174h-38.127a3.177 3.177 0 0 1-3.177-3.174v-3.224c0-9.604 10.987-15.843 22.241-15.843 11.253 0 22.24 6.243 22.24 15.843m-14.377-43.723c4.342 4.343 4.342 11.384 0 15.726-4.343 4.343-11.384 4.343-15.727 0-4.343-4.342-4.343-11.383 0-15.726 4.343-4.343 11.384-4.343 15.727 0z" fill="#fff"/><defs><linearGradient id="a" x1="708.72" y1="299.758" x2="832.53" y2="201.823" gradientUnits="userSpaceOnUse"><stop stop-color="#fff"/><stop offset="1" stop-color="#EEE"/></linearGradient><linearGradient id="b" x1="222.245" y1="363.734" x2="57.634" y2="210.789" gradientUnits="userSpaceOnUse"><stop stop-color="#fff"/><stop offset="1" stop-color="#EEE"/></linearGradient></defs></svg>