<svg width="900" height="600" viewBox="0 0 900 600" fill="none" xmlns="http://www.w3.org/2000/svg"><path fill="transparent" d="M0 0h900v600H0z"/><rect x="142.129" y="111.195" width="299.49" height="299.49" rx="20" fill="#009688"/><circle cx="291.181" cy="415.538" r="40.903" fill="#009688"/><circle cx="122.025" cy="272.077" r="40.903" fill="#009688"/><circle cx="452.018" cy="208.414" r="40.903" fill="#009688"/><path d="M304.039 66.531s-24.858-3.953-31.534 39.929c-7.417 48.786-27.223 40.76-58.676 80.373-18.383 23.148.962 64.026 40.273 63.215 39.312-.79 74.814-12.156 97.427-7.294 22.613 4.863 23.856-53.054 1.544-70.924-22.312-17.869 25.258-69.185-3.729-92.035-28.987-22.851-45.305-13.264-45.305-13.264z" fill="#133835"/><path d="M155.451 260.036c-2.267-4.659-2.129-10.071-1.311-15.121 3.543-21.677 18.735-39.791 36.147-53.065 17.47-13.308 37.465-22.809 55.845-34.735 4.77-3.106 9.552-6.451 15.028-8.13 5.477-1.678 11.842-1.497 16.365 2.034 3.193 2.478 5.038 6.31 6.112 10.142 2.353 8.392 1.451 17.277.016 25.789-1.795 10.736-4.429 21.361-8.756 31.229-3.468 7.96-9.113 16.151-17.597 17.71-2.455 9.513-7.509 18.429-14.599 25.25-8.108 7.821-18.389 12.935-29.058 16.507-9.83 3.298-20.582 5.451-30.47 2.373-5.869-1.793-11.038-5.243-16.093-8.762-4.51-2.998-9.191-6.279-11.629-11.221zm88.843-14.455 5.803-9.213c-1.237.127-2.405.368-3.584.847-3.186 1.379-5.105 6.397-2.219 8.366z" fill="#133835"/><path d="M351.828 105.122c.301 1.629.356 3.336.245 5.284-.66 11.364-3.106 22.62-7.247 33.2-2.533 6.298-5.633 12.506-10.018 17.721-1.821 2.165-3.882 4.165-6.575 4.937-2.774.77-6.269.879-9.021.188-2.427 10.037-1.415 28.982 7.251 36.1 2.649 2.153 5.797 3.5 8.947 4.685 6.138 2.368 12.529 4.172 18.926 5.569 7.288 1.573 15.232 2.75 20.35 8.108.64.66 1.276 1.563 1.019 2.453-.171.566-.584.966-1.076 1.283-4.031 3.27-9.013 5.063-13.995 6.774-8.738 2.955-17.712 5.418-26.836 7.067-9.532 1.724-19.374 2.549-29.026 1.509-7.462-.845-14.826-2.744-21.599-6.096-7.096-3.52-14.364-6.393-21.706-9.754-6.213-2.857-12.337-6.118-19.063-7.276 3.179-6.045 9.811-9.438 16.416-11.044 6.604-1.524 13.512-1.663 20.193-2.943 2.2-.454 4.402-.989 6.291-2.341 5.175-3.74 3.758-12.048 3.84-17.49l.262-17.22c-.769-8.217-4.158-15.092-7.131-22.612-4.537-11.524-5.475-24.618-1.478-36.419 3.997-11.72 13.088-21.899 24.768-26.027 11.681-4.129 25.7-1.803 34.669 6.782 5.684 5.53 10.321 10.475 11.594 17.562z" fill="#F8AE9D"/><path d="M315.909 68.507c11.641-1.299 22.249 4.402 30.114 13.239 6.617 7.407 10.506 17.186 10.31 27.01-.028 1.404-.186 2.932-.977 4.193-2.103 3.021-6.676 1.909-10.095.564-5.573-2.153-9.723-5.3-14.775-7.953-5.053-2.654-11.188-2.266-15.71-5.93-4.269-3.532-18.927-10.973-19.322-16.725-.498-7.03 12.381-12.772 17.765-13.94.771-.24 1.666-.35 2.69-.458z" fill="#133835"/><path d="M282.37 84.421c-9.844 6.35-14.464 17.471-14.976 29.289-.448 9.923 2.716 19.96 9.076 27.451.909 1.07 1.997 2.154 3.407 2.632 3.539 1.013 6.38-2.739 8.181-5.942 2.959-5.19 4.187-10.251 6.426-15.5 2.24-5.25 7.24-8.825 8.429-14.523 1.078-5.435 7.737-20.464 4.409-25.172-4.056-5.763-17.666-2.076-22.578.42-.749.301-1.513.782-2.374 1.346z" fill="#133835"/><path d="M369.93 218.404c1.555-.707 3.415-.191 4.45 1.205 11.614 16.263 16.098 36.641 20.025 56.28 4.454 22.328 8.419 44.73 12.222 67.129.227 1.141.371 2.362-.133 3.41-.503 1.049-1.649 1.6-2.712 2.072-6.711 3.229-13.502 6.375-20.213 9.604-7.224-16.439-12.485-33.824-15.547-51.5-4.309 10.902-12.09 20.371-22.014 26.557 7.395 10.592 15.778 30.101 24.654 39.416 1.168 3.349-.612.613-3.672.613-5.049.735-4.862-.474-9.182-.613-6.245-.744-8.332-.286-14.598.35-10.416 1.142-20.539 4.4-29.794 9.296a106.226 106.226 0 0 0-13.207 8.33c-3.615 2.707-12.567 9.071-12.567 9.071-.658.477-3.734-.219-4.463-.393a81.189 81.189 0 0 0-6.405-.828c-5.356-.407-10.788-1.139-16.054-2.113-10.613-1.948-21.048-4.95-31.059-9.083-.964-.746 2.475-7.843 2.658-9.221-.182 1.297-19.899-.303-21.844-.657-7.775-1.581-15.642-2.431-23.416-4.093 3.481-31.307 13.04-61.546 22.432-91.544 3.673-11.805 7.427-23.61 12.633-34.742 5.542-11.858 12.697-22.961 21.296-32.823.248-.24.656-.397.98-.31 4.127 1.037 29.295 7.513 41.817 12.171 6.381 2.453 12.847 4.664 19.394 6.875 2.586.852 5.255 1.705 7.936 1.665 1.788-.055 3.581-.433 5.293-.814 17.445-3.878 34.894-8.081 51.09-15.31z" fill="#fff"/><path d="M256.385 280.779c-.717 4.458-1.68 8.993-2.641 13.446a236.79 236.79 0 0 1-8.983 29.761c-1.86 4.846-3.801 9.61-5.986 14.37-1.092 2.34-2.183 4.679-3.356 7.017-.586 1.129-1.173 2.338-1.759 3.467-.502.967-1.084 1.852-1.585 2.738 3.495-.109 20.744.886 24.314 1.184m105.199-72.885c2.271 9.82 3.909 19.736 5.018 29.855" stroke="#fff" stroke-width="1.376" stroke-miterlimit="10" stroke-linecap="round"/><rect width="299.49" height="299.49" rx="20" transform="matrix(1 0 0 -1 431.622 530.794)" fill="#009688"/><circle r="40.903" transform="matrix(1 0 0 -1 580.674 226.452)" fill="#009688"/><circle r="40.903" transform="matrix(1 0 0 -1 411.518 369.913)" fill="#009688"/><circle r="40.903" transform="matrix(1 0 0 -1 741.511 433.575)" fill="#009688"/><path d="M607.983 194.02c1.188 4.748-.388 9.685-2.986 13.832-1.837 2.93-4.404-.305-8.147-.824-5.79-.811-9.456-6.94-10.709-21.872-.58-10.907-.307-16.348.301-17.3 2.162-3.408 7.725-4.549 12.112-4.22" fill="#133835"/><path fill-rule="evenodd" clip-rule="evenodd" d="M456.531 247.09s4.065-22.653 2.603-27.24c-1.248-3.964-13.047-9.681-13.047-9.681s-20.523-32.419-25.014-29.118c-3.654 2.676 10.688 26.577 10.688 26.577s-13.078 13.72-12.895 19.853c.182 6.134 21.344 25.333 21.344 25.333l16.321-5.724zm210.925 5.322s-13.516-3.173-13.985-25.319c-.469-22.147-.14-29.706-.14-29.706l-32.042-.538s-.324 24.682-.329 33.61c-.013 19.435-14.447 24.686-14.447 24.686s1.2 21.252 28.176 22.769c21.063 1.186 32.767-25.502 32.767-25.502z" fill="#F8AE9D"/><path fill-rule="evenodd" clip-rule="evenodd" d="M656.275 186.192c13.28-.514 11.114 18.928-2.682 18.902 0 0-14.827 29.813-38.105 29.89-11.213.037-14.874-9.951-18.236-16.962-3.361-7.012-5.828-17.499-6.033-23.921-.221-6.847-.249-29.341-.249-29.341l65.822-.03-.517 21.462z" fill="#F8AE9D"/><path fill-rule="evenodd" clip-rule="evenodd" d="M606.008 253.827s-34.52 10.775-42.838 23.648c-26.797 23.541-60.312 55.871-60.312 55.871s-31.919-80.113-42.354-89.247c-7.141-6.249-21.367 1.478-24.017 9.42-3.405 10.2 18.457 70.032 28.783 98.289l.001.003c2 5.473 3.567 9.761 4.433 12.275 6.296 18.266 21.615 28.743 40.257 17.133 7.515-4.68 29.878-20.015 48.956-33.917.299 14.605.802 29.995 1.279 44.611v.001c1.16 35.51 2.17 66.454-.258 70.475-12.034 19.93 3.966 33.611 56.937 38.638 52.972 5.027 99.966.911 91.439-25.686-1.778-5.543-1.756-17.472-.869-32.969a621.882 621.882 0 0 0 15.556-1.026c22.108-1.742 38.457-11.241 40.737-35.911 1.598-17.276-31.315-98.381-43.657-125.05-2.887-6.239-7.351-10.125-12.408-12.061-1.177-1.314-2.503-2.237-3.993-2.728-9.066-2.988-41.57-16.644-41.57-16.644l-38.667 25.299-17.435-20.424zm105.018 142.768.087.224-.107.014.02-.238z" fill="#fff"/><path fill-rule="evenodd" clip-rule="evenodd" d="M625.228 417.999s-11.793-2.371-16.62-6.16c-4.826-3.789-19.443-6.468-19.443-6.468l4.676 9.848s-35.826-3.362-36.674.172c-.849 3.534 9.513 7.376 9.513 7.376s5.11 9.545 10.057 15.077c4.68 5.236 27.934 4.613 36.086 1.345 7.044-2.822 14.703-1.411 14.703-1.411l-2.298-19.779z" fill="#F8AE9D"/><path d="M652.662 165.647c-1.94 2.541-5.362 3.1-8.181 3.603-3.788.674-5.663 2.081-7.63 5.855-1.245 2.412-2.491 5.052-4.719 6.358-1.816 1.069-1.761-1.635-2.029-3.725a4.716 4.716 0 0 0-.114-.579c-.434-1.671-2.207-1.391-2.721.257-.472 1.493-1.482 2.756-2.767 3.459-.209.115-.432.215-.655.172-.302-.043-.538-.33-.734-.588-.409-.537-.816-1.219-1.235-1.94-1.387-2.385-4.033-1.548-5.583.734-.97 1.421-2.123 2.885-3.71 3.215-.511.115-1.153.029-1.389-.474-.302-.617.17-1.234.091-1.865-.065-.589-.314-.847-.59-1.35-1.073-1.937-3.562-2.008-5.079-.393a56.826 56.826 0 0 1-3.298 3.235c-.485.431-1.193.861-1.678.431-.262-.23-.328-.617-.38-.991-.276-1.822-.538-3.645-.813-5.468-.158-1.019-.695-2.353-1.613-2.095-.446.129-.708.603-.957 1.033-.301.546-5.69 6.76-5.795 6.287-.839-3.531-2.556-6.746-3.395-10.277-5.428-22.719 18.656-40.989 37.049-41.09 4.091-.029 7.827.039 11.8 1.001 4.234 1.033 8.705 2.673 12.546 4.984 5.388 3.229 9.466 9.099 8.417 16.103" fill="#133835"/><path d="M637.704 158.303c-2.593 2.967-3.28 7.14-3.521 11.083-.356 5.946.127 12.123 2.848 17.401.775 1.503 1.347 8.939 2.542 8.528.382-.129.318-5.895 1.323-9.003 1.551-4.816 8.696-6.652 11.913-3.608 5.137 4.841 2.123 10.723.42 14.383-1.018 2.209-2.632 4.687-2.912 7.025-.343 2.992-.445 13.895 1.488 16.438 1.614 2.132 3.331-8.168 4.793-10.197 13.609-9.095 21.195-53.604 2.721-61.951-2.81-1.272-11.481-1.927-14.113-.309" fill="#133835"/><path d="m750.987 124.715 19.954 11.174 1.397 4.789-2.594 5.787c-3.792 1.264-12.093 3.751-14.966 3.592-2.874-.16-6.652 2.594-8.181 3.991-.532 3.059-1.637 9.538-1.796 10.974-.16 1.437-2.993 8.714-4.39 12.173h-9.778l-3.592-7.982-17.36-41.305-3.791-14.767 2.594-3.99 12.771 5.587 29.732 9.977z" fill="#009688"/><path fill-rule="evenodd" clip-rule="evenodd" d="M714.251 105.551c-8.167-3.403-16.361 4.791-12.958 12.959l23.48 56.351c4.591 11.021 20.743 9.158 22.706-2.618l2.929-17.576 17.576-2.93c11.777-1.962 13.64-18.114 2.619-22.706l-56.352-23.48zm-5.64 9.91c-.681-1.634.958-3.273 2.591-2.592l56.352 23.48c3.673 1.53 3.053 6.914-.873 7.569l-17.576 2.929a7.926 7.926 0 0 0-6.516 6.516l-2.93 17.576c-.654 3.926-6.038 4.547-7.569.873l-23.479-56.351z" fill="#009688"/><path fill-rule="evenodd" clip-rule="evenodd" d="M144.233 498.102h5.772a2.521 2.521 0 0 1 2.52 2.519v5.772a2.522 2.522 0 0 1-2.52 2.52h-5.772a2.53 2.53 0 0 1-2.519-2.52v-5.772c-.012-1.384 1.123-2.519 2.519-2.519zm20.012 0h5.772a2.53 2.53 0 0 1 2.52 2.519v5.772a2.522 2.522 0 0 1-2.52 2.52h-5.772a2.53 2.53 0 0 1-2.519-2.52v-5.772a2.528 2.528 0 0 1 2.519-2.519zm20.026 0h5.772a2.53 2.53 0 0 1 2.52 2.519v5.772a2.522 2.522 0 0 1-2.52 2.52h-5.772a2.53 2.53 0 0 1-2.519-2.52v-5.772c-.012-1.384 1.124-2.519 2.519-2.519zm20.012 0h5.772a2.53 2.53 0 0 1 2.52 2.519v5.772a2.522 2.522 0 0 1-2.52 2.52h-5.772a2.532 2.532 0 0 1-2.531-2.52v-5.772a2.546 2.546 0 0 1 2.531-2.519zm20.015 0h5.772a2.531 2.531 0 0 1 2.531 2.519v5.772a2.525 2.525 0 0 1-2.531 2.52h-5.772a2.53 2.53 0 0 1-2.52-2.52v-5.772a2.53 2.53 0 0 1 2.52-2.519zm-59.318 21.823h5.772a2.528 2.528 0 0 1 2.519 2.519v5.784a2.528 2.528 0 0 1-2.519 2.519h-5.772a2.521 2.521 0 0 1-2.52-2.519v-5.772a2.516 2.516 0 0 1 2.52-2.531zm20.012 0h5.772a2.528 2.528 0 0 1 2.519 2.519v5.784a2.528 2.528 0 0 1-2.519 2.519h-5.772a2.53 2.53 0 0 1-2.52-2.519v-5.772a2.517 2.517 0 0 1 2.52-2.531zm20.014 0h5.772a2.53 2.53 0 0 1 2.531 2.519v5.784a2.53 2.53 0 0 1-2.531 2.519h-5.772a2.53 2.53 0 0 1-2.52-2.519v-5.772a2.532 2.532 0 0 1 2.52-2.531zm-20.735-45.267h5.772a2.53 2.53 0 0 1 2.52 2.519v5.772a2.522 2.522 0 0 1-2.52 2.52h-5.772a2.53 2.53 0 0 1-2.519-2.52v-5.772c-.012-1.384 1.124-2.519 2.519-2.519zm-20.006 0h5.773a2.528 2.528 0 0 1 2.519 2.519v5.772a2.522 2.522 0 0 1-2.519 2.52h-5.773a2.53 2.53 0 0 1-2.519-2.52v-5.772c-.012-1.384 1.124-2.519 2.519-2.519zm40.018 0h5.772a2.53 2.53 0 0 1 2.52 2.519v5.772a2.522 2.522 0 0 1-2.52 2.52h-5.772a2.532 2.532 0 0 1-2.531-2.52v-5.772a2.546 2.546 0 0 1 2.531-2.519z" fill="#E1E4E5"/><circle r="10.5" transform="matrix(-1 0 0 1 111.296 151.5)" fill="#009688"/><circle r="9.508" transform="matrix(-1 0 0 1 794.134 258.287)" fill="#009688"/><circle r="12.225" transform="matrix(-1 0 0 1 361.52 453.605)" fill="#E1E4E5"/><circle r="8.416" transform="matrix(-1 0 0 1 306.096 530.585)" fill="#E1E4E5"/><circle r="13.439" transform="matrix(-1 0 0 1 223.599 77.805)" fill="#E1E4E5"/><circle r="14.941" transform="matrix(-1 0 0 1 565.087 96.138)" fill="#E1E4E5"/><circle r="13.417" transform="scale(1 -1) rotate(-75 -223.779 -271.546)" fill="#E1E4E5"/><ellipse rx="13.73" ry="10.984" transform="matrix(-1 0 0 1 773.702 322.205)" fill="#E1E4E5"/><circle r="13.954" transform="scale(1 -1) rotate(-75 272.379 -476.982)" fill="#E1E4E5"/><path d="M801.92 365.08h.252c1.497 21.036 17.269 21.36 17.269 21.36s-17.392.337-17.392 24.645c0-24.308-17.392-24.645-17.392-24.645s15.766-.324 17.263-21.36zM514.686 137.3h.319c1.887 27.276 21.774 27.696 21.774 27.696s-21.929.436-21.929 31.953c0-31.517-21.93-31.953-21.93-31.953s19.879-.42 21.766-27.696z" fill="#E1E4E5"/></svg>