<svg width="900" height="600" viewBox="0 0 900 600" fill="none" xmlns="http://www.w3.org/2000/svg"><path fill="transparent" d="M0 0h900v600H0z"/><circle cx="441.585" cy="298.36" r="255.921" fill="#009688"/><path d="M477.891 111.016a20.475 20.475 0 0 0-1.336-.067c-.148-.002-.295-.008-.442-.006-.156.001-.311.005-.467.009-.157.004-.317.009-.476.016-.15.006-.299.017-.45.029-.169.012-.337.025-.505.044a17.04 17.04 0 0 0-.973.12 19.04 19.04 0 0 0-1.011.177c-.108.022-.218.04-.325.065-.315.068-.629.144-.944.228l-144.189 38.635a19.588 19.588 0 0 0-3.811 1.446c-7.777 3.889-12.262 12.484-10.843 21.232.109.674.254 1.347.434 2.02l64.451 240.534 14.704 54.877c2.26 8.435 9.53 14.184 17.739 14.893l.109.006c.406.032.816.052 1.225.059.148.002.294.008.444.006.156-.002.311-.006.466-.009.158-.005.317-.009.477-.016.15-.007.299-.018.45-.03.169-.011.337-.025.504-.043.144-.014.285-.03.428-.046.18-.021.361-.047.543-.074.131-.019.263-.039.395-.061.205-.035.411-.074.617-.116.108-.022.217-.04.325-.065.314-.068.629-.144.944-.228l144.19-38.636c.671-.18 1.325-.391 1.962-.633 8.901-3.382 14.222-12.626 12.694-22.047a20.468 20.468 0 0 0-.434-2.021l-64.45-240.529-14.704-54.877c-2.264-8.434-9.534-14.183-17.741-14.892z" fill="#fff"/><rect x="384.536" y="152.732" width="39.647" height="10.668" rx="5.334" transform="rotate(-15 384.536 152.732)" fill="#009688"/><path d="M424.614 318.539s10.159 3.05 24.696-.845c14.536-3.895 21.81-11.616 21.81-11.616" stroke="#009688" stroke-width="13.962" stroke-linecap="round" stroke-linejoin="round"/><ellipse cx="409.666" cy="287.222" rx="12.316" ry="12.036" transform="rotate(-15 409.666 287.222)" fill="#009688"/><ellipse cx="467.865" cy="271.627" rx="12.316" ry="12.036" transform="rotate(-15 467.865 271.627)" fill="#009688"/><path d="M654.706 566.75s-26.259-35.331-47.413-44.243c-20.931-8.817-79.16-20.658-116.841-50.068a1.92 1.92 0 0 1-.543-2.388c1.5-2.896 6.445-8.594 21.601-3.851 19.718 6.207 34.937 10.568 34.937 10.568S501.396 399.771 490.739 378c-2.106-4.297-3.318-7.99-3.893-11.205-1.787-10.026 11.806-14.96 17.07-6.238l30.822 51.023s-.287-6.78 5.137-9.485c5.137-2.547 15.123 2.292 19.494 10.567 0 0 .32-7.639 8.105-8.976 7.785-1.337 15.41 6.621 18.314 11.236 0 0-1.276-7.353 4.052-9.931 5.328-2.578 15.826 4.138 18.314 7.162 2.489 3.024 27.536 24.477 48.339 71.362l55.931 35.236s2.489 24.859-57.718 47.999z" fill="#F8AE9D"/><rect x="697.505" y="460.933" width="44.052" height="77.615" rx="22.026" transform="rotate(-90 697.505 460.933)" fill="#E1E4E5"/><rect x="702.472" y="456.39" width="35.4" height="35.4" rx="17.7" transform="rotate(-90 702.472 456.39)" fill="#fff"/><rect x="190.908" y="554.281" width="44.052" height="77.615" rx="22.026" transform="rotate(-90 190.908 554.281)" fill="#E1E4E5"/><rect x="195.875" y="549.738" width="35.4" height="35.4" rx="17.7" transform="rotate(-90 195.875 549.738)" fill="#fff"/><rect x="752.046" y="84.394" width="44.052" height="77.615" rx="22.026" transform="rotate(90 752.046 84.394)" fill="#009688"/><rect x="747.08" y="88.937" width="35.4" height="35.4" rx="17.7" transform="rotate(90 747.08 88.937)" fill="#fff"/><path fill-rule="evenodd" clip-rule="evenodd" d="m167.127 163.756 16.867 8.838c3.285 1.723 7.124-1.058 6.495-4.709l-3.22-18.733 13.647-13.257c2.657-2.584 1.192-7.087-2.477-7.62l-18.857-2.734-8.428-17.048c-1.643-3.324-6.383-3.324-8.025 0l-8.429 17.048-18.865 2.743c-3.67.534-5.134 5.037-2.478 7.621l13.647 13.256-3.219 18.734c-.629 3.651 3.21 6.431 6.495 4.709l16.866-8.838h-.019v-.01zm591.727 158.797 16.866 8.838c3.286 1.723 7.124-1.058 6.496-4.709l-3.22-18.733 13.647-13.257c2.656-2.584 1.192-7.087-2.478-7.62l-18.856-2.734-8.428-17.048c-1.643-3.324-6.383-3.324-8.025 0l-8.429 17.048-18.865 2.743c-3.67.534-5.135 5.037-2.478 7.621l13.647 13.256-3.22 18.733c-.628 3.652 3.21 6.432 6.495 4.71l16.867-8.838h-.019v-.01z" fill="#009688"/><path fill-rule="evenodd" clip-rule="evenodd" d="M315.47 316.341c2.595 1.986 3.121 5.743 1.175 8.391l-17.621 23.973c-1.87 2.545-5.363 3.155-7.956 1.391l-12.734-8.662-8.489 12.993c-1.799 2.754-5.446 3.498-8.145 1.662-2.699-1.836-3.428-5.557-1.629-8.311l11.747-17.98c1.799-2.754 5.446-3.498 8.145-1.662l12.998 8.841 14.286-19.437c1.947-2.648 5.628-3.185 8.223-1.199zm296.826-84.957c2.595 1.986 3.121 5.742 1.175 8.39l-17.621 23.974c-1.87 2.544-5.363 3.155-7.957 1.39l-12.733-8.662-8.489 12.993c-1.799 2.755-5.446 3.499-8.145 1.663s-3.428-5.557-1.629-8.312l11.747-17.98c1.799-2.754 5.446-3.498 8.145-1.662l12.997 8.842 14.287-19.438c1.946-2.648 5.628-3.184 8.223-1.198z" fill="#fff"/><path fill-rule="evenodd" clip-rule="evenodd" d="M758.497 173.547c8.695 0 14.526 8.204 14.526 15.845 0 15.509-24.207 28.207-24.648 28.207-.441 0-24.648-12.698-24.648-28.207 0-7.641 5.83-15.845 14.526-15.845 4.97 0 8.235 2.491 10.122 4.71 1.887-2.219 5.151-4.71 10.122-4.71zm-610.808 47.198c10.175 0 16.998 9.572 16.998 18.486 0 18.094-28.328 32.908-28.843 32.908-.516 0-28.844-14.814-28.844-32.908 0-8.914 6.823-18.486 16.998-18.486 5.817 0 9.637 2.907 11.846 5.496 2.208-2.589 6.028-5.496 11.845-5.496zM129.16 364.974v-4.549h5.676l4.819-4.83 6.652 2.831a6.405 6.405 0 0 0 7.05-1.373l9.449-9.47a6.448 6.448 0 0 0 1.371-7.066l-4.822-11.378a6.425 6.425 0 0 0-3.4-3.407l-11.353-4.833a6.405 6.405 0 0 0-7.05 1.374l-9.449 9.469a6.445 6.445 0 0 0-1.367 7.066l2.751 6.497-19.34 19.383v10.239h10.216l4.257-4.267v-5.689h4.54v.003z" fill="#009688"/><path fill-rule="evenodd" clip-rule="evenodd" d="M145.353 334.783c-2.715.011-4.92 2.216-4.908 4.931a4.915 4.915 0 0 0 4.931 4.909 4.922 4.922 0 0 0 4.92-4.92 4.922 4.922 0 0 0-4.92-4.92" fill="#fff"/><circle cx="153.232" cy="449.478" r="31.889" fill="#009688" stroke="#009688" stroke-width="1.416"/><path d="M163.181 447.492c1.888 1.09 1.888 3.815 0 4.905l-12.636 7.295c-1.888 1.09-4.248-.272-4.248-2.452v-14.591c0-2.18 2.36-3.543 4.248-2.453l12.636 7.296z" fill="#fff"/><circle cx="585.195" cy="88.507" r="54.301" fill="#009688" stroke="#009688" stroke-width="2.411"/><path d="M602.136 85.125c3.215 1.856 3.215 6.496 0 8.352L580.619 105.9c-3.214 1.856-7.233-.464-7.233-4.176V76.878c0-3.712 4.019-6.032 7.233-4.176l21.517 12.423z" fill="#fff"/><circle cx="669.186" cy="61.319" r="14.684" transform="rotate(180 669.186 61.32)" fill="#009688"/><circle r="7.866" transform="matrix(-1 0 0 1 177.798 197.146)" fill="#009688"/><circle r="7.155" transform="matrix(-1 0 0 1 727.735 246.779)" fill="#009688"/><circle r="9.199" transform="matrix(-1 0 0 1 589.232 557.187)" fill="#E1E4E5"/><circle r="6.818" transform="matrix(-1 0 0 1 317.295 560.049)" fill="#E1E4E5"/><circle r="10.113" transform="matrix(-1 0 0 1 253.621 171.954)" fill="#E1E4E5"/><circle r="11.243" transform="matrix(-1 0 0 1 462.267 521.472)" fill="#fff"/><circle r="10.096" transform="scale(1 -1) rotate(-75 -165.936 -306.282)" fill="#E1E4E5"/><circle r="13.431" transform="matrix(-1 0 0 1 291.71 59.835)" fill="#E1E4E5"/><ellipse rx="10.332" ry="8.265" transform="matrix(-1 0 0 1 751.889 374.801)" fill="#E1E4E5"/><circle r="7.011" transform="scale(1 -1) rotate(-75 245.412 -537.26)" fill="#E1E4E5"/></svg>