<svg width="900" height="600" viewBox="0 0 900 600" fill="none" xmlns="http://www.w3.org/2000/svg"><path fill="transparent" d="M0 0h900v600H0z"/><path d="M569.554 37.83a28.462 28.462 0 0 0-1.879-.626c-.21-.061-.417-.127-.627-.183a44.755 44.755 0 0 0-1.352-.336c-.217-.05-.433-.092-.653-.135a35.861 35.861 0 0 0-1.366-.237c-.267-.04-.531-.073-.802-.105a31.956 31.956 0 0 0-.585-.066 28.34 28.34 0 0 0-.924-.073c-.162-.01-.324-.026-.487-.033a29.525 29.525 0 0 0-1.432-.036H339.285c-.512 0-1.022.013-1.528.04a27.937 27.937 0 0 0-2.992.316c-.49.079-.981.168-1.461.27-12.564 2.664-22.235 13.57-23.553 27.034a32.5 32.5 0 0 0-.152 3.151v467.043c0 13.336 8.161 24.69 19.586 28.98.051.02.102.037.153.053.566.207 1.142.398 1.722.57.21.062.417.128.63.184.223.059.446.115.668.171a22.793 22.793 0 0 0 1.337.3c.245.049.491.095.736.135a24.667 24.667 0 0 0 1.429.207c.194.023.388.047.586.066.305.03.614.053.923.073.162.01.324.026.487.033.474.023.952.036 1.432.036h220.165c1.025 0 2.038-.053 3.037-.158 13.971-1.472 25.08-13.004 26.5-27.505.102-1.038.153-2.088.153-3.152V66.812c-.006-13.337-8.168-24.69-19.589-28.981z" fill="#009688"/><path fill-rule="evenodd" clip-rule="evenodd" d="M519.252 311c0 9.384 7.84 17 17.5 17s17.5-7.616 17.5-17-7.84-17-17.5-17-17.5 7.616-17.5 17z" fill="#fff"/><path d="M350.252 390.5h193m-193-39.5h193m-193-39h146m-146 112h91" stroke="#fff" stroke-width="18.746" stroke-linecap="round" stroke-linejoin="round"/><rect x="324.361" y="62.897" width="32.625" height="12.037" rx="5.93" fill="#fff"/><rect x="497.155" y="62.897" width="14.5" height="12.037" rx="5.93" fill="#fff"/><rect x="517.697" y="62.897" width="14.5" height="12.037" rx="5.93" fill="#fff"/><rect x="538.239" y="62.897" width="29" height="12.037" rx="5.93" fill="#fff"/><path fill-rule="evenodd" clip-rule="evenodd" d="M386.125 261.227h-35.762 35.762z" fill="#fff"/><path d="M386.125 261.227h-35.762" stroke="#fff" stroke-width="14" stroke-linecap="round" stroke-linejoin="round"/><path fill-rule="evenodd" clip-rule="evenodd" d="M439.961 261.227h-35.763 35.763z" fill="#fff"/><path d="M439.961 261.227h-35.763" stroke="#fff" stroke-width="14" stroke-linecap="round" stroke-linejoin="round"/><path fill-rule="evenodd" clip-rule="evenodd" d="M493.795 261.227h-35.762 35.762z" fill="#fff"/><path d="M493.795 261.227h-35.762" stroke="#fff" stroke-width="14" stroke-linecap="round" stroke-linejoin="round"/><path fill-rule="evenodd" clip-rule="evenodd" d="M547.63 261.227h-35.762 35.762z" fill="#fff"/><path d="M547.63 261.227h-35.762" stroke="#fff" stroke-width="14" stroke-linecap="round" stroke-linejoin="round"/><rect x="346.396" y="179.87" width="44.202" height="44.032" rx="22.016" fill="#fff"/><rect x="484.401" y="182.434" width="40.202" height="39.467" rx="19.734" stroke="#fff" stroke-width="4" stroke-linecap="round" stroke-linejoin="round"/><rect x="509.602" y="180.434" width="44.202" height="43.467" rx="21.734" fill="#fff"/><path fill-rule="evenodd" clip-rule="evenodd" d="M269.918 331.519v-42.27c.002-7.275-4.578-13.769-11.448-16.235l-26.413-9.472a41.721 41.721 0 0 0-28.162 0l-26.447 9.489c-6.864 2.464-11.442 8.95-11.448 16.218v42.27c0 21.964 30.846 38.216 45.031 44.548a16.895 16.895 0 0 0 13.856 0c14.185-6.332 45.031-22.619 45.031-44.548z" fill="#009688"/><path d="M202.444 326.862a18.453 18.453 0 0 0 20.055 3.974c6.876-2.837 11.36-9.522 11.36-16.936s-4.484-14.099-11.36-16.936a18.453 18.453 0 0 0-20.055 3.974c-7.186 7.159-7.186 18.765 0 25.924" stroke="#fff" stroke-width="6.405" stroke-linecap="round" stroke-linejoin="round"/><path clip-rule="evenodd" d="m238.825 337.177-10.356-10.316 10.356 10.316z" stroke="#fff" stroke-width="6.405" stroke-linecap="round" stroke-linejoin="round"/><path d="M667.729 293.889a34.61 34.61 0 0 1 34.512 0l18.234 10.487a34.612 34.612 0 0 1 17.356 30.004v20.744a34.611 34.611 0 0 1-17.356 30.003l-18.234 10.488a34.614 34.614 0 0 1-34.512 0l-18.234-10.488a34.611 34.611 0 0 1-17.356-30.003V334.38a34.612 34.612 0 0 1 17.356-30.004l18.234-10.487z" fill="#009688"/><path d="m703.859 333.396-22.274 22.011L668.22 342.2" stroke="#fff" stroke-width="9.75" stroke-linecap="round" stroke-linejoin="round"/><path d="M201.544 139.737c13.22 6.558 30.767-1.874 30.767-1.874s-3.9-19.062-17.127-25.611c-13.221-6.558-30.761 1.865-30.761 1.865s3.9 19.062 17.121 25.62z" fill="url(#a)"/><circle r="13.549" transform="matrix(1 0 0 -1 220.182 210.239)" fill="#009688"/><circle r="13.241" transform="matrix(1 0 0 -1 643.241 454.241)" fill="#009688"/><circle cx="643.553" cy="215.719" r="13.543" fill="#009688"/><circle cx="148.019" cy="255.075" r="6.019" fill="#E1E4E5"/><circle cx="744.457" cy="418.178" r="12.639" fill="#E1E4E5"/><circle cx="630.147" cy="551.832" r="7.405" transform="rotate(105 630.147 551.832)" fill="#E1E4E5"/><ellipse cx="157.046" cy="403.131" rx="9.028" ry="7.222" fill="#E1E4E5"/><circle cx="259.362" cy="409.752" r="10.232" transform="rotate(90 259.362 409.752)" fill="#E1E4E5"/><defs><linearGradient id="a" x1="252.312" y1="160.193" x2="143.269" y2="73.94" gradientUnits="userSpaceOnUse"><stop stop-color="#fff"/><stop offset="1" stop-color="#EEE"/></linearGradient></defs></svg>