<svg width="900" height="600" viewBox="0 0 900 600" fill="none" xmlns="http://www.w3.org/2000/svg"><path fill="transparent" d="M0 0h900v600H0z"/><path d="M181.045 396.207c-26.991 50.71-14.924 101.11 34.093 127.123 49.017 26.013 99.423 13.969 127.139-34.036 27.716-48.005 9.513-99.661-34.094-127.123-43.606-27.462-100.148-16.675-127.138 34.036z" fill="#009688" stroke="#fff" stroke-width="22.907" stroke-linecap="round" stroke-linejoin="round"/><path d="M321.491 370.846c-26.034-8.119-33.68 10.508-34.229 25.553-.548 15.044 45.15 35.03 36.652 62.692-6.74 21.937-56.179-1.91-66.346 15.7-10.168 17.611 17.124 30.324-2.83 64.886" stroke="#fff" stroke-width="11" stroke-linejoin="round"/><path d="M244.338 355.488c11.521 6.651 13.498 34.865 2.631 39.019-7.244 2.768-16.752-.677-21.785 5.107-8.052 9.253 16.845 23.628.994 42.281-7.925 9.328-43.884 7.213-47.785 34.504" stroke="#fff" stroke-width="11"/><path d="M561.178 451.148c1.315-122.555-82.474-232.313-201.042-263.349m340.621 263.662c1.832-170.667-114.851-323.513-279.964-366.733m-95.455 216.496c69.137 18.128 118.002 82.136 117.263 153.607" stroke="#009688" stroke-width="24" stroke-linecap="round" stroke-linejoin="round"/><path d="M417.642 162.139a30 30 0 0 1 30 0l25.44 14.688a30 30 0 0 1 15 25.981v29.375a30 30 0 0 1-15 25.981l-25.44 14.687a30 30 0 0 1-30 0l-25.44-14.687a30 30 0 0 1-15-25.981v-29.375a30 30 0 0 1 15-25.981l25.44-14.688z" fill="#009688"/><path d="m452.442 205.536-23.367 23.181-14.02-13.909" stroke="#fff" stroke-width="11" stroke-linecap="round" stroke-linejoin="round"/><path d="M666.268 277.573a30 30 0 0 1 30 0l25.44 14.688a29.999 29.999 0 0 1 15 25.98v29.376a29.998 29.998 0 0 1-15 25.98l-25.44 14.688a30 30 0 0 1-30 0l-25.439-14.688a29.996 29.996 0 0 1-15-25.98v-29.376a29.997 29.997 0 0 1 15-25.98l25.439-14.688z" fill="#009688"/><path d="m701.069 320.97-23.368 23.18-14.02-13.908" stroke="#fff" stroke-width="11" stroke-linecap="round" stroke-linejoin="round"/><path fill-rule="evenodd" clip-rule="evenodd" d="M319.697 193.909v-46.917c.002-8.075-5.081-15.283-12.707-18.02l-29.316-10.514a46.306 46.306 0 0 0-31.258 0l-29.354 10.533c-7.62 2.735-12.701 9.933-12.707 18.001v46.917c0 24.378 34.237 42.417 49.981 49.445a18.753 18.753 0 0 0 15.38 0c15.744-7.028 49.981-25.105 49.981-49.445z" fill="#009688"/><path d="M244.806 188.74a20.484 20.484 0 0 0 22.259 4.411c7.633-3.149 12.609-10.569 12.609-18.798 0-8.23-4.976-15.649-12.609-18.798a20.481 20.481 0 0 0-22.259 4.41c-7.977 7.946-7.977 20.829 0 28.775" stroke="#fff" stroke-width="6.405" stroke-linecap="round" stroke-linejoin="round"/><path clip-rule="evenodd" d="m285.186 200.189-11.495-11.45 11.495 11.45z" stroke="#fff" stroke-width="6.405" stroke-linecap="round" stroke-linejoin="round"/><circle r="48.837" transform="matrix(-1 0 0 1 417.463 72.453)" fill="#009688"/><path fill-rule="evenodd" clip-rule="evenodd" d="M434.304 89.54v2.403a2.405 2.405 0 0 1-2.405 2.403h-28.87a2.405 2.405 0 0 1-2.405-2.403V89.5c0-7.271 8.319-11.996 16.84-11.996 8.521 0 16.84 4.727 16.84 11.996m-10.886-33.105a8.42 8.42 0 1 1-11.91 11.908 8.42 8.42 0 0 1 11.91-11.908z" fill="#fff"/><circle r="48.837" transform="matrix(-1 0 0 1 410.803 355.488)" fill="#009688"/><path fill-rule="evenodd" clip-rule="evenodd" d="M427.644 372.575v2.403a2.406 2.406 0 0 1-2.406 2.403h-28.869a2.406 2.406 0 0 1-2.406-2.403v-2.442c0-7.271 8.319-11.996 16.84-11.996 8.522 0 16.841 4.727 16.841 11.996m-10.887-33.106a8.42 8.42 0 1 1-11.91 11.908 8.42 8.42 0 0 1 11.91-11.908z" fill="#fff"/><path fill="#E1E4E5" d="M551.875 246.705h54.909v44.591h-54.909z"/><path fill-rule="evenodd" clip-rule="evenodd" d="M602.116 250.145h-45.205a2.825 2.825 0 0 0-2.825 2.825v33.904a2.825 2.825 0 0 0 2.825 2.825h45.205a2.825 2.825 0 0 0 2.826-2.825V252.97a2.825 2.825 0 0 0-2.826-2.825zm-45.205-5.651a8.475 8.475 0 0 0-8.475 8.476v33.904a8.475 8.475 0 0 0 8.475 8.475h45.205a8.475 8.475 0 0 0 8.476-8.475V252.97a8.476 8.476 0 0 0-8.476-8.476h-45.205z" fill="#E1E4E5"/><path fill-rule="evenodd" clip-rule="evenodd" d="M560.392 256.812a2.825 2.825 0 0 1 3.979-.362l13.334 11.112a2.826 2.826 0 0 0 3.618 0l13.334-11.112a2.825 2.825 0 1 1 3.618 4.341l-13.335 11.112a8.474 8.474 0 0 1-10.852 0l-13.335-11.112a2.826 2.826 0 0 1-.361-3.979z" fill="#fff"/><path fill="#E1E4E5" d="M612.865 411.336h36.279v29.462h-36.279z"/><path fill-rule="evenodd" clip-rule="evenodd" d="M646.06 413.608h-29.867a1.867 1.867 0 0 0-1.867 1.867v22.4c0 1.031.836 1.867 1.867 1.867h29.867a1.867 1.867 0 0 0 1.867-1.867v-22.4a1.867 1.867 0 0 0-1.867-1.867zm-29.867-3.733a5.6 5.6 0 0 0-5.6 5.6v22.4a5.6 5.6 0 0 0 5.6 5.601h29.867a5.601 5.601 0 0 0 5.601-5.601v-22.4a5.6 5.6 0 0 0-5.601-5.6h-29.867z" fill="#E1E4E5"/><path fill-rule="evenodd" clip-rule="evenodd" d="M618.492 418.014a1.867 1.867 0 0 1 2.629-.239l8.81 7.341a1.866 1.866 0 0 0 2.39 0l8.81-7.341a1.867 1.867 0 1 1 2.39 2.868l-8.81 7.341a5.599 5.599 0 0 1-7.17 0l-8.81-7.341a1.867 1.867 0 0 1-.239-2.629z" fill="#fff"/><path fill="#E1E4E5" d="M194.475 283.333h54.909v44.591h-54.909z"/><path fill-rule="evenodd" clip-rule="evenodd" d="M244.716 286.773h-45.205a2.825 2.825 0 0 0-2.825 2.825v33.903a2.825 2.825 0 0 0 2.825 2.826h45.205a2.825 2.825 0 0 0 2.825-2.826v-33.903a2.825 2.825 0 0 0-2.825-2.825zm-45.205-5.651a8.476 8.476 0 0 0-8.476 8.476v33.903a8.476 8.476 0 0 0 8.476 8.476h45.205a8.476 8.476 0 0 0 8.476-8.476v-33.903a8.476 8.476 0 0 0-8.476-8.476h-45.205z" fill="#E1E4E5"/><path fill-rule="evenodd" clip-rule="evenodd" d="M202.991 293.44a2.826 2.826 0 0 1 3.98-.362l13.334 11.112a2.825 2.825 0 0 0 3.617 0l13.335-11.112a2.825 2.825 0 1 1 3.617 4.341l-13.334 11.112a8.478 8.478 0 0 1-10.853 0l-13.334-11.112a2.825 2.825 0 0 1-.362-3.979z" fill="#fff"/><path d="m561.181 92.363-14.245 13.17-28.489 5.913-1.613 20.963-6.181 7.526-7.795 18.276c4.838 3.315 14.729 10.105 15.589 10.75.86.645-2.867 6.361-4.838 9.138v11.826c4.032 2.419 12.417 7.311 13.707 7.526 1.613.268 10.482-1.075 11.557-2.151 1.075-1.075 13.438 11.557 15.857 13.17 2.419 1.613 10.482 4.031 11.826 3.763 1.075-.215 6.181-5.644 8.6-8.332l12.364-4.838 20.694-3.763 2.151-21.77 9.675-16.663 1.075-9.676-15.051-19.351-3.225-20.426-27.683-4.569-13.975-10.482z" fill="#009688"/><path fill-rule="evenodd" clip-rule="evenodd" d="m573.306 108.552-5.229-6.896c-2.653-3.499-7.912-3.499-10.565 0l-5.229 6.896a13.925 13.925 0 0 1-12.99 5.38l-8.573-1.179c-4.35-.598-8.069 3.121-7.471 7.471l1.179 8.573a13.922 13.922 0 0 1-5.381 12.99l-6.895 5.229c-3.499 2.653-3.499 7.912 0 10.565l6.895 5.229a13.923 13.923 0 0 1 5.381 12.99l-1.179 8.573c-.598 4.35 3.121 8.069 7.471 7.471l8.573-1.179a13.923 13.923 0 0 1 12.99 5.381l5.229 6.895c2.653 3.499 7.912 3.499 10.565 0l5.229-6.895a13.923 13.923 0 0 1 12.99-5.381l8.573 1.179c4.35.598 8.069-3.121 7.471-7.471l-1.179-8.573a13.923 13.923 0 0 1 5.381-12.99l6.895-5.229c3.499-2.653 3.499-7.912 0-10.565l-6.895-5.229a13.922 13.922 0 0 1-5.381-12.99l1.179-8.573c.598-4.35-3.121-8.069-7.471-7.471l-8.573 1.179a13.924 13.924 0 0 1-12.99-5.38zm5.336-14.907c-7.958-10.496-23.737-10.496-31.695 0l-5.229 6.895a.665.665 0 0 1-.619.257l-8.573-1.18c-13.049-1.793-24.207 9.364-22.412 22.413l1.178 8.573a.662.662 0 0 1-.256.619l-6.896 5.229c-10.495 7.958-10.495 23.737 0 31.696l6.896 5.228a.662.662 0 0 1 .256.619l-1.178 8.573c-1.795 13.049 9.363 24.207 22.412 22.412l8.573-1.178a.662.662 0 0 1 .619.256l5.229 6.896c7.958 10.495 23.737 10.495 31.695 0l5.229-6.896a.662.662 0 0 1 .619-.256l8.573 1.178c13.049 1.795 24.206-9.363 22.412-22.412l-1.179-8.573a.665.665 0 0 1 .257-.619l6.895-5.228c10.496-7.959 10.496-23.738 0-31.696l-6.895-5.229a.665.665 0 0 1-.257-.619l1.179-8.573c1.794-13.049-9.363-24.206-22.412-22.412l-8.573 1.179a.665.665 0 0 1-.619-.257l-5.229-6.895z" fill="#009688"/><path d="m585.591 141.41-33.686 33.686a8.422 8.422 0 0 1-11.909-11.91l33.685-33.685a8.421 8.421 0 0 1 11.91 11.909zm-31.219-5.955a8.422 8.422 0 1 1-16.843 0 8.422 8.422 0 0 1 16.843 0zm16.843 33.686a8.42 8.42 0 0 0 8.421 8.421 8.422 8.422 0 1 0-8.421-8.421z" fill="#fff"/><path fill-rule="evenodd" clip-rule="evenodd" d="m548.779 321.301-39.032 22.535c-8.587 4.957-11.556 16.039-6.598 24.626l22.535 39.032c4.957 8.587 16.039 11.556 24.626 6.599l39.032-22.535c8.587-4.958 11.556-16.04 6.599-24.627l-22.535-39.032c-4.958-8.587-16.04-11.556-24.627-6.598z" fill="#009688"/><path d="m540.24 361.186 14.654 3.424-4.362 14.403" stroke="#fff" stroke-width="11" stroke-linecap="round" stroke-linejoin="round"/><path d="M688.702 166.557c-17.957 8.907-41.79-2.546-41.79-2.546s5.297-25.891 23.263-34.786c17.957-8.908 41.781 2.533 41.781 2.533s-5.297 25.891-23.254 34.799z" fill="url(#a)"/><path d="M142.688 366.548c14.979 8.978 36.469.679 36.469.679s-2.81-22.851-17.798-31.819c-14.979-8.977-36.46-.688-36.46-.688s2.81 22.851 17.789 31.828z" fill="url(#b)"/><circle cx="686.623" cy="219.52" r="9.434" transform="rotate(180 686.623 219.52)" fill="#009688"/><circle cx="268.787" cy="73.034" r="9.342" transform="rotate(180 268.787 73.034)" fill="#009688"/><circle cx="495.158" cy="430.964" r="12.209" transform="rotate(180 495.158 430.964)" fill="#009688"/><circle r="9.545" transform="matrix(-1 0 0 1 773.456 295.887)" fill="#009688"/><circle r="12.272" transform="matrix(-1 0 0 1 508.54 488.743)" fill="#E1E4E5"/><circle r="12.616" transform="matrix(-1 0 0 1 337.954 251.56)" fill="#E1E4E5"/><circle r="6.64" transform="matrix(-1 0 0 1 644.981 476.452)" fill="#E1E4E5"/><circle r="7.024" transform="matrix(-1 0 0 1 508.843 60.609)" fill="#E1E4E5"/><circle r="13.469" transform="scale(1 -1) rotate(-75 91.46 -302.098)" fill="#E1E4E5"/><circle r="17.918" transform="matrix(-1 0 0 1 377.664 499.939)" fill="#E1E4E5"/><ellipse rx="13.783" ry="11.026" transform="matrix(-1 0 0 1 746.465 402.307)" fill="#E1E4E5"/><circle r="12.213" transform="scale(1 -1) rotate(-75 -57.719 -210.437)" fill="#E1E4E5"/><path d="M331.915 66.904h.161c.955 13.704 11.021 13.914 11.021 13.914s-11.1.22-11.1 16.054c0-15.834-11.099-16.054-11.099-16.054s10.061-.21 11.017-13.914zm-192.382 355.18h.188c1.117 16.425 12.879 16.678 12.879 16.678s-12.971.263-12.971 19.241c0-18.978-12.97-19.241-12.97-19.241s11.758-.253 12.874-16.678z" fill="#E1E4E5"/><defs><linearGradient id="a" x1="619.746" y1="194.342" x2="767.855" y2="77.187" gradientUnits="userSpaceOnUse"><stop stop-color="#fff"/><stop offset="1" stop-color="#EEE"/></linearGradient><linearGradient id="b" x1="200.652" y1="395.446" x2="80.127" y2="283.462" gradientUnits="userSpaceOnUse"><stop stop-color="#fff"/><stop offset="1" stop-color="#EEE"/></linearGradient></defs></svg>