<svg width="900" height="600" viewBox="0 0 900 600" fill="none" xmlns="http://www.w3.org/2000/svg"><path fill="transparent" d="M0 0h900v600H0z"/><path d="M664.402 189.063c-7.16 12.777-22.839 14.533-47.96 12.105-18.892-1.83-36.12-3.245-55.013-13.546-13.224-7.205-23.692-16.953-31.332-26.421-8.28-10.256-19.836-21.962-14.171-33.591 7.785-15.975 52.806-29.43 96.523-7.427 48.023 24.177 58.956 56.392 51.953 68.88z" fill="url(#a)"/><path d="M776.741 256.523c-17.988 8.923-41.863-2.551-41.863-2.551s5.306-25.935 23.304-34.845c17.988-8.923 41.852 2.537 41.852 2.537s-5.306 25.936-23.293 34.859z" fill="url(#b)"/><path d="M126.112 374.579c19.956 11.96 48.586.904 48.586.904s-3.743-30.444-23.711-42.391c-19.956-11.96-48.574-.917-48.574-.917s3.743 30.443 23.699 42.404z" fill="url(#c)"/><circle cx="664.607" cy="265.384" r="16.352" transform="rotate(180 664.607 265.384)" fill="#009688"/><circle cx="235.674" cy="250.893" r="13.461" transform="rotate(180 235.674 250.893)" fill="#009688"/><circle r="15.329" transform="matrix(-1 0 0 1 334.562 477.383)" fill="#009688"/><circle r="7.154" transform="matrix(-1 0 0 1 767.193 315.242)" fill="#009688"/><circle r="9.198" transform="matrix(-1 0 0 1 593.125 475.47)" fill="#E1E4E5"/><circle r="13.286" transform="matrix(-1 0 0 1 140.647 449.018)" fill="#E1E4E5"/><circle r="10.111" transform="matrix(-1 0 0 1 705.822 482.711)" fill="#E1E4E5"/><circle r="11.242" transform="matrix(-1 0 0 1 733.803 121.964)" fill="#E1E4E5"/><circle r="10.095" transform="scale(1 -1) rotate(-75 -114.048 -225.953)" fill="#E1E4E5"/><circle r="4.202" transform="matrix(-1 0 0 1 344.041 77.402)" fill="#E1E4E5"/><ellipse rx="10.33" ry="8.264" transform="matrix(-1 0 0 1 749.917 391.178)" fill="#E1E4E5"/><circle r="7.308" transform="scale(1 -1) rotate(-75 223.94 -390.268)" fill="#E1E4E5"/><path d="M219.042 146.427h.147c.872 12.347 10.054 12.537 10.054 12.537s-10.126.198-10.126 14.464c0-14.266-10.125-14.464-10.125-14.464s9.178-.19 10.05-12.537zm-6.404 362.533h.142c.836 12.31 9.652 12.5 9.652 12.5s-9.721.197-9.721 14.421c0-14.224-9.722-14.421-9.722-14.421s8.813-.19 9.649-12.5z" fill="#E1E4E5"/><path d="M397.262 340.293v3.185a11.992 11.992 0 0 0-2.798-4.932c.933.6 1.866 1.182 2.798 1.747zm118.642-.159c36.59-22.157 64.954-65.044 65.92-112.03-.853 44.308-25.898 85.487-60.605 108.868a11.998 11.998 0 0 0-5.296 9.952v11.93c0 .138.002.275.007.413.156 4.514-.114 8.082-2.681 10.807-1.096 1.027-2.587 1.997-4.687 2.703a12.002 12.002 0 0 0 7.342-11.06v-21.583zm-115.047 30.147a11.985 11.985 0 0 0 5.385 3.169c-.6-.098-1.18-.215-1.739-.354-2.366-.589-3.827-1.438-4.776-2.413-1.324-1.362-1.871-2.976-2.011-5.685a11.99 11.99 0 0 0 3.141 5.283zm8.405 3.436c.152 0 .075.003-.13-.001l.13.001zm106.642-33.608a.896.896 0 0 1-.169.126 2.64 2.64 0 0 0 .105-.062l.061-.037v-.001a.081.081 0 0 0 .003-.011v-.015zM396.794 415h119.42m-119.42 37.964h119.42m-67.747 40.073h15.019" stroke="#009688" stroke-width="24" stroke-linecap="round" stroke-linejoin="round"/><circle r="61.08" transform="matrix(-1 0 0 1 257.984 397.641)" fill="#009688"/><path fill-rule="evenodd" clip-rule="evenodd" d="M279.046 419.011v3.005a3.009 3.009 0 0 1-3.009 3.006h-36.106a3.009 3.009 0 0 1-3.009-3.006v-3.053c0-9.095 10.405-15.003 21.062-15.003 10.658 0 21.062 5.911 21.062 15.003m-13.616-41.406c4.113 4.113 4.113 10.78 0 14.893-4.112 4.113-10.78 4.113-14.893 0-4.112-4.113-4.112-10.78 0-14.893 4.113-4.113 10.781-4.113 14.893 0z" fill="#fff"/><ellipse rx="85.5" ry="86" transform="matrix(-1 0 0 1 456.5 227)" fill="#009688"/><path fill-rule="evenodd" clip-rule="evenodd" d="M485 255.009v3.996c0 2.205-1.856 3.995-4.143 3.995h-49.714c-2.287 0-4.143-1.79-4.143-3.995v-4.06c0-12.09 14.326-19.945 29-19.945s29 7.859 29 19.945m-18.247-56.698c5.663 5.663 5.663 14.843 0 20.506s-14.843 5.663-20.506 0-5.663-14.843 0-20.506 14.843-5.663 20.506 0z" fill="#fff"/><circle r="61.08" transform="matrix(-1 0 0 1 654.498 397.641)" fill="#009688"/><path fill-rule="evenodd" clip-rule="evenodd" d="M675.561 419.011v3.005a3.009 3.009 0 0 1-3.009 3.006h-36.107a3.008 3.008 0 0 1-3.008-3.006v-3.053c0-9.095 10.404-15.003 21.062-15.003 10.657 0 21.062 5.911 21.062 15.003m-13.616-41.406c4.113 4.113 4.113 10.78 0 14.893-4.112 4.113-10.78 4.113-14.893 0-4.113-4.113-4.113-10.78 0-14.893 4.113-4.113 10.781-4.113 14.893 0z" fill="#fff"/><defs><linearGradient id="a" x1="616.171" y1="271.872" x2="552.358" y2="-14.877" gradientUnits="userSpaceOnUse"><stop stop-color="#fff"/><stop offset="1" stop-color="#EEE"/></linearGradient><linearGradient id="b" x1="707.665" y1="284.356" x2="856.03" y2="166.999" gradientUnits="userSpaceOnUse"><stop stop-color="#fff"/><stop offset="1" stop-color="#EEE"/></linearGradient><linearGradient id="c" x1="203.336" y1="413.079" x2="42.764" y2="263.886" gradientUnits="userSpaceOnUse"><stop stop-color="#fff"/><stop offset="1" stop-color="#EEE"/></linearGradient></defs></svg>