<svg width="900" height="600" viewBox="0 0 900 600" fill="none" xmlns="http://www.w3.org/2000/svg"><path fill="transparent" d="M0 0h900v600H0z"/><circle cx="459.141" cy="307.459" r="249.941" fill="#fff" stroke="#E1E4E5" stroke-width="4" stroke-linejoin="bevel"/><path stroke="#E1E4E5" stroke-width="4" stroke-linejoin="bevel" d="M588.94 142.028 482.697 248.27"/><path fill="#fff" stroke="#E1E4E5" stroke-width="4" stroke-linejoin="bevel" d="m579.168 115.2-97.2 97.2 35.394 35.393 97.2-97.2z"/><path fill="#fff" stroke="#E1E4E5" stroke-width="4" stroke-linejoin="bevel" d="m561.685 132.683-15.684 15.684 35.394 35.393 15.684-15.683zm-16.138 16.138-15.684 15.684 35.394 35.393 15.684-15.683zm-16.138 16.138-15.684 15.684 35.394 35.393 15.684-15.683zm-16.138 16.138-15.684 15.684 35.394 35.393 15.684-15.683zm-16.138 16.139-15.684 15.684 35.394 35.393 15.684-15.683z"/><path stroke="#E1E4E5" stroke-width="4" stroke-linejoin="bevel" d="m332.241 396.341 106.243-106.243"/><path fill="#fff" stroke="#E1E4E5" stroke-width="4" stroke-linejoin="bevel" d="m342.013 423.169 97.2-97.2-35.394-35.393-97.2 97.2z"/><path fill="#fff" stroke="#E1E4E5" stroke-width="4" stroke-linejoin="bevel" d="m359.496 405.686 15.684-15.684-35.394-35.393-15.684 15.683zm16.138-16.138 15.684-15.684-35.394-35.393-15.684 15.683zm16.138-16.138 15.684-15.684-35.394-35.393-15.684 15.683zm16.138-16.138 15.684-15.684-35.394-35.393-15.684 15.683zm16.138-16.138 15.684-15.684-35.394-35.393-15.684 15.683z"/><path stroke="#E1E4E5" stroke-width="4" stroke-linejoin="bevel" d="M332.241 142.027 438.483 248.27"/><path fill="#fff" stroke="#E1E4E5" stroke-width="4" stroke-linejoin="bevel" d="m342.013 115.2 97.2 97.2-35.394 35.393-97.2-97.2z"/><path fill="#fff" stroke="#E1E4E5" stroke-width="4" stroke-linejoin="bevel" d="m359.496 132.683 15.684 15.684-35.394 35.393-15.684-15.683zm16.138 16.138 15.684 15.684-35.394 35.393-15.684-15.683zm16.138 16.138 15.684 15.684-35.394 35.393-15.684-15.683zm16.138 16.138 15.684 15.684-35.394 35.393-15.684-15.683zm16.138 16.139 15.684 15.684-35.394 35.393-15.684-15.683z"/><path stroke="#E1E4E5" stroke-width="4" stroke-linejoin="bevel" d="M588.94 396.341 482.698 290.099"/><path fill="#fff" stroke="#E1E4E5" stroke-width="4" stroke-linejoin="bevel" d="m579.168 423.169-97.2-97.2 35.394-35.393 97.2 97.2z"/><path fill="#fff" stroke="#E1E4E5" stroke-width="4" stroke-linejoin="bevel" d="m561.685 405.686-15.684-15.684 35.394-35.393 15.684 15.683zm-16.138-16.138-15.684-15.684 35.394-35.393 15.684 15.683zm-16.138-16.138-15.684-15.684 35.394-35.393 15.684 15.683zm-16.138-16.139-15.684-15.684 35.394-35.393 15.684 15.683zm-16.138-16.137-15.684-15.684 35.394-35.393 15.684 15.683z"/><circle cx="459.932" cy="273.727" r="39" fill="#fff" stroke="#E1E4E5" stroke-width="4" stroke-linejoin="bevel"/><path d="M446.395 273.991v-14.398c0-6.926 5.606-12.541 12.52-12.541v26.939h-12.52zm13.296 0v-26.939c6.915 0 12.521 5.615 12.521 12.541v14.398h-12.521z" fill="#fff" stroke="#E1E4E5" stroke-width="4"/><path fill-rule="evenodd" clip-rule="evenodd" d="M362.655 470.522c1.618 0 3.198.163 4.724.474a23.425 23.425 0 0 1 12.535-3.612c12.998 0 23.534 10.537 23.534 23.535s-10.536 23.535-23.534 23.535c-1.618 0-3.198-.164-4.724-.475a23.43 23.43 0 0 1-12.535 3.612c-9.034 0-16.879-5.089-20.824-12.558-7.601-.225-13.694-6.458-13.694-14.114 0-7.799 6.322-14.121 14.121-14.121 1.332 0 2.622.185 3.844.529a23.459 23.459 0 0 1 16.553-6.805z" fill="#fff"/><path d="m367.379 470.996-.399 1.96 1.466-.268-1.067-1.692zm7.811 42.983.399-1.959-1.466.267 1.067 1.692zm-33.359-8.946 1.769-.934-1.709-1.065-.06 1.999zm4.271-27.706-.544 1.925 1.95-.503-1.406-1.422zm21.676-8.291a25.675 25.675 0 0 0-5.123-.514v4c1.483 0 2.929.15 4.325.434l.798-3.92zm12.136-3.652a25.431 25.431 0 0 0-13.602 3.92l2.134 3.384a21.422 21.422 0 0 1 11.468-3.304v-4zm25.534 25.535c0-14.103-11.432-25.535-25.534-25.535v4c11.893 0 21.534 9.641 21.534 21.535h4zm-25.534 25.535c14.102 0 25.534-11.433 25.534-25.535h-4c0 11.893-9.641 21.535-21.534 21.535v4zm-5.124-.515a25.62 25.62 0 0 0 5.124.515v-4c-1.483 0-2.929-.15-4.325-.434l-.799 3.919zm-12.135 3.652c4.996 0 9.662-1.436 13.601-3.92l-2.133-3.384a21.422 21.422 0 0 1-11.468 3.304v4zm-22.592-13.623c4.278 8.097 12.788 13.623 22.592 13.623v-4c-8.263 0-15.443-4.653-19.055-11.492l-3.537 1.869zm-13.926-15.049c0 8.741 6.956 15.856 15.635 16.113l.119-3.998c-6.524-.193-11.754-5.544-11.754-12.115h-4zm16.121-16.121c-8.903 0-16.121 7.218-16.121 16.121h4c0-6.694 5.427-12.121 12.121-12.121v-4zm4.387.605a16.104 16.104 0 0 0-4.387-.605v4c1.147 0 2.253.159 3.3.454l1.087-3.849zm16.01-6.881a25.459 25.459 0 0 0-17.96 7.384l2.813 2.843a21.462 21.462 0 0 1 15.147-6.227v-4z" fill="#E1E4E5"/><path fill-rule="evenodd" clip-rule="evenodd" d="M541.295 514.454c1.618 0 3.198-.164 4.724-.475a23.425 23.425 0 0 0 12.535 3.612c9.033 0 16.878-5.089 20.823-12.558 7.601-.225 13.694-6.458 13.694-14.114 0-7.799-6.322-14.121-14.121-14.121-1.332 0-2.621.185-3.843.529a23.46 23.46 0 0 0-16.553-6.805c-1.618 0-3.198.163-4.725.474a23.424 23.424 0 0 0-12.534-3.612c-12.998 0-23.535 10.537-23.535 23.535s10.537 23.535 23.535 23.535z" fill="#fff"/><path d="m546.019 513.979 1.066-1.692-1.466-.267.4 1.959zm33.358-8.946-.059-1.999-1.709 1.065 1.768.934zm-4.27-27.706-1.407 1.422 1.95.503-.543-1.925zm-21.278-6.331-1.066 1.692 1.466.268-.4-1.96zm-8.21 41.024a21.658 21.658 0 0 1-4.324.434v4a25.61 25.61 0 0 0 5.123-.515l-.799-3.919zm12.935 3.571a21.428 21.428 0 0 1-11.469-3.304l-2.133 3.384a25.422 25.422 0 0 0 13.602 3.92v-4zm19.055-11.492c-3.613 6.839-10.792 11.492-19.055 11.492v4c9.804 0 18.314-5.526 22.591-13.624l-3.536-1.868zm13.462-13.18c0 6.571-5.23 11.922-11.753 12.115l.118 3.998c8.679-.257 15.635-7.372 15.635-16.113h-4zm-12.121-12.121c6.694 0 12.121 5.427 12.121 12.121h4c0-8.903-7.217-16.121-16.121-16.121v4zm-3.3.454a12.147 12.147 0 0 1 3.3-.454v-4c-1.517 0-2.989.21-4.386.605l1.086 3.849zm-17.096-6.73a21.457 21.457 0 0 1 15.146 6.227l2.814-2.843a25.459 25.459 0 0 0-17.96-7.384v4zm-4.325.434a21.66 21.66 0 0 1 4.325-.434v-4c-1.753 0-3.467.177-5.124.514l.799 3.92zm-12.934-3.572c4.219 0 8.149 1.211 11.468 3.304l2.133-3.384a25.428 25.428 0 0 0-13.601-3.92v4zm-21.535 21.535c0-11.894 9.641-21.535 21.535-21.535v-4c-14.103 0-25.535 11.432-25.535 25.535h4zm21.535 21.535c-11.894 0-21.535-9.642-21.535-21.535h-4c0 14.102 11.432 25.535 25.535 25.535v-4z" fill="#E1E4E5"/><path fill-rule="evenodd" clip-rule="evenodd" d="M509.706 479.894a20.309 20.309 0 0 0-4.049-.406 20.108 20.108 0 0 0-14.189 5.833 12.092 12.092 0 0 0-3.294-.454c-6.685 0-12.104 5.419-12.104 12.104 0 6.562 5.222 11.904 11.738 12.098 3.381 6.401 10.105 10.764 17.849 10.764 3.949 0 7.633-1.135 10.744-3.096 1.308.266 2.662.406 4.049.406 11.141 0 20.172-9.031 20.172-20.172s-9.031-20.173-20.172-20.173a20.08 20.08 0 0 0-10.744 3.096zm-112.982 38.594c1.387 0 2.741-.14 4.049-.406a20.082 20.082 0 0 0 10.744 3.096c7.743 0 14.468-4.363 17.849-10.764 6.515-.193 11.738-5.536 11.738-12.098 0-6.685-5.419-12.104-12.104-12.104-1.142 0-2.247.158-3.294.454a20.107 20.107 0 0 0-14.189-5.834c-1.387 0-2.741.14-4.049.407a20.082 20.082 0 0 0-10.744-3.096c-11.141 0-20.173 9.031-20.173 20.173 0 11.141 9.032 20.172 20.173 20.172z" fill="#fff"/><path d="m509.706 479.894-.4 1.96 1.466-.268-1.066-1.692zm-18.238 5.427-.543 1.925 1.95-.504-1.407-1.421zm-3.66 23.748 1.768-.934-1.709-1.065-.059 1.999zm28.593 7.668.399-1.96-1.466.268 1.067 1.692zm-115.628 1.345 1.067-1.692-1.466-.268.399 1.96zm28.593-7.668-.059-1.999-1.709 1.065 1.768.934zm-3.66-23.748-1.407 1.421 1.95.504-.543-1.925zm-18.238-5.427-1.067 1.692 1.466.268-.399-1.96zm98.189.249c1.252 0 2.472.126 3.649.366l.799-3.92a22.28 22.28 0 0 0-4.448-.446v4zm-12.782 5.254a18.11 18.11 0 0 1 12.782-5.254v-4a22.109 22.109 0 0 0-15.596 6.411l2.814 2.843zm-4.701.125c.956 0 1.878.132 2.751.379l1.086-3.85a14.108 14.108 0 0 0-3.837-.529v4zm-10.104 10.104c0-5.58 4.523-10.104 10.104-10.104v-4c-7.79 0-14.104 6.314-14.104 14.104h4zm9.797 10.099c-5.438-.162-9.797-4.622-9.797-10.099h-4c0 7.647 6.085 13.872 13.678 14.097l.119-3.998zm17.79 10.763c-6.973 0-13.032-3.926-16.081-9.698l-3.537 1.868c3.714 7.031 11.104 11.83 19.618 11.83v-4zm9.677-2.788a18.078 18.078 0 0 1-9.677 2.788v4c4.337 0 8.39-1.248 11.81-3.404l-2.133-3.384zm5.116.098c-1.252 0-2.473-.126-3.65-.366l-.799 3.92c1.439.293 2.927.446 4.449.446v-4zm18.172-18.172c0 10.036-8.136 18.172-18.172 18.172v4c12.245 0 22.172-9.927 22.172-22.172h-4zm-18.172-18.173c10.036 0 18.172 8.136 18.172 18.173h4c0-12.246-9.927-22.173-22.172-22.173v4zm-9.678 2.788a18.08 18.08 0 0 1 9.678-2.788v-4c-4.338 0-8.39 1.248-11.811 3.404l2.133 3.384zm-110.398 34.536c-1.178.24-2.398.366-3.65.366v4c1.522 0 3.01-.153 4.449-.447l-.799-3.919zm11.143 3.056c-3.56 0-6.876-1.022-9.677-2.788l-2.133 3.383a22.074 22.074 0 0 0 11.81 3.405v-4zm16.081-9.698c-3.049 5.771-9.108 9.698-16.081 9.698v4c8.514 0 15.903-4.799 19.617-11.83l-3.536-1.868zm11.506-11.164c0 5.477-4.36 9.937-9.797 10.099l.118 3.998c7.594-.225 13.679-6.45 13.679-14.097h-4zM429 488.212c5.58 0 10.104 4.524 10.104 10.104h4c0-7.79-6.314-14.104-14.104-14.104v4zm-2.751.379a10.087 10.087 0 0 1 2.751-.379v-4c-1.327 0-2.615.184-3.837.529l1.086 3.85zm-14.732-5.759a18.11 18.11 0 0 1 12.782 5.255l2.814-2.843a22.11 22.11 0 0 0-15.596-6.412v4zm-3.65.367a18.264 18.264 0 0 1 3.65-.367v-4a22.28 22.28 0 0 0-4.448.447l.798 3.92zm-11.143-3.056c3.561 0 6.877 1.022 9.677 2.788l2.134-3.384a22.076 22.076 0 0 0-11.811-3.404v4zm-18.173 18.173c0-10.037 8.137-18.173 18.173-18.173v-4c-12.246 0-22.173 9.927-22.173 22.173h4zm18.173 18.172c-10.036 0-18.173-8.136-18.173-18.172h-4c0 12.245 9.927 22.172 22.173 22.172v-4z" fill="#E1E4E5"/><path fill="#fff" stroke="#E1E4E5" stroke-width="4" stroke-linejoin="bevel" d="M275.703 495.33h365.768v31.035H275.703zm70.937 31.035h223.894V557.4H346.64zm48.769-63.178h130.79v31.035h-130.79z"/><path fill="#fff" stroke="#E1E4E5" stroke-width="4" stroke-linejoin="bevel" d="M395.409 463.187h7.759v7.759h-7.759z"/><path fill="#fff" stroke="#E1E4E5" stroke-width="4" stroke-linejoin="bevel" d="M403.167 463.187h8.867v7.759h-8.867zm8.868 0h7.759v7.759h-7.759z"/><path fill="#fff" stroke="#E1E4E5" stroke-width="4" stroke-linejoin="bevel" d="M419.793 463.187h7.759v7.759h-7.759zm7.759 0h8.867v7.759h-8.867z"/><path fill="#fff" stroke="#E1E4E5" stroke-width="4" stroke-linejoin="bevel" d="M436.419 463.187h7.759v7.759h-7.759zm7.759 0h7.759v7.759h-7.759zm7.759 0h7.759v7.759h-7.759z"/><path fill="#fff" stroke="#E1E4E5" stroke-width="4" stroke-linejoin="bevel" d="M459.695 463.187h8.867v7.759h-8.867zm8.867 0h7.759v7.759h-7.759zm7.759 0h7.759v7.759h-7.759z"/><path fill="#fff" stroke="#E1E4E5" stroke-width="4" stroke-linejoin="bevel" d="M484.08 463.187h8.867v7.759h-8.867zm8.867 0h7.759v7.759h-7.759zm7.759 0h7.759v7.759h-7.759z"/><path fill="#fff" stroke="#E1E4E5" stroke-width="4" stroke-linejoin="bevel" d="M508.464 463.187h8.867v7.759h-8.867zm8.867 0h7.759v7.759h-7.759zm-121.922 7.759h7.759v7.759h-7.759z"/><path fill="#fff" stroke="#E1E4E5" stroke-width="4" stroke-linejoin="bevel" d="M403.167 470.946h8.867v7.759h-8.867zm8.868 0h7.759v7.759h-7.759z"/><path fill="#fff" stroke="#E1E4E5" stroke-width="4" stroke-linejoin="bevel" d="M419.793 470.946h7.759v7.759h-7.759zm7.759 0h8.867v7.759h-8.867z"/><path fill="#fff" stroke="#E1E4E5" stroke-width="4" stroke-linejoin="bevel" d="M436.419 470.946h7.759v7.759h-7.759zm7.759 0h7.759v7.759h-7.759zm7.759 0h7.759v7.759h-7.759z"/><path fill="#fff" stroke="#E1E4E5" stroke-width="4" stroke-linejoin="bevel" d="M459.695 470.946h8.867v7.759h-8.867zm8.867 0h7.759v7.759h-7.759zm7.759 0h7.759v7.759h-7.759z"/><path fill="#fff" stroke="#E1E4E5" stroke-width="4" stroke-linejoin="bevel" d="M484.08 470.946h8.867v7.759h-8.867zm8.867 0h7.759v7.759h-7.759zm7.759 0h7.759v7.759h-7.759z"/><path fill="#fff" stroke="#E1E4E5" stroke-width="4" stroke-linejoin="bevel" d="M508.464 470.946h8.867v7.759h-8.867zm8.867 0h7.759v7.759h-7.759zm-121.922 7.759h7.759v7.759h-7.759z"/><path fill="#fff" stroke="#E1E4E5" stroke-width="4" stroke-linejoin="bevel" d="M403.167 478.704h8.867v7.759h-8.867zm8.868 0h7.759v7.759h-7.759z"/><path fill="#fff" stroke="#E1E4E5" stroke-width="4" stroke-linejoin="bevel" d="M419.793 478.704h7.759v7.759h-7.759zm7.759 0h8.867v7.759h-8.867z"/><path fill="#fff" stroke="#E1E4E5" stroke-width="4" stroke-linejoin="bevel" d="M436.419 478.704h7.759v7.759h-7.759zm7.759 0h7.759v7.759h-7.759zm7.759 0h7.759v7.759h-7.759z"/><path fill="#fff" stroke="#E1E4E5" stroke-width="4" stroke-linejoin="bevel" d="M459.695 478.704h8.867v7.759h-8.867zm8.867 0h7.759v7.759h-7.759zm7.759 0h7.759v7.759h-7.759z"/><path fill="#fff" stroke="#E1E4E5" stroke-width="4" stroke-linejoin="bevel" d="M484.08 478.704h8.867v7.759h-8.867zm8.867 0h7.759v7.759h-7.759zm7.759 0h7.759v7.759h-7.759z"/><path fill="#fff" stroke="#E1E4E5" stroke-width="4" stroke-linejoin="bevel" d="M508.464 478.704h8.867v7.759h-8.867zm8.867 0h7.759v7.759h-7.759zm-121.922 7.759h7.759v7.759h-7.759z"/><path fill="#fff" stroke="#E1E4E5" stroke-width="4" stroke-linejoin="bevel" d="M403.167 486.463h8.867v7.759h-8.867zm8.868 0h7.759v7.759h-7.759z"/><path fill="#fff" stroke="#E1E4E5" stroke-width="4" stroke-linejoin="bevel" d="M419.793 486.463h7.759v7.759h-7.759zm7.759 0h8.867v7.759h-8.867z"/><path fill="#fff" stroke="#E1E4E5" stroke-width="4" stroke-linejoin="bevel" d="M436.419 486.463h7.759v7.759h-7.759zm7.759 0h7.759v7.759h-7.759zm7.759 0h7.759v7.759h-7.759z"/><path fill="#fff" stroke="#E1E4E5" stroke-width="4" stroke-linejoin="bevel" d="M459.695 486.463h8.867v7.759h-8.867zm8.867 0h7.759v7.759h-7.759zm7.759 0h7.759v7.759h-7.759z"/><path fill="#fff" stroke="#E1E4E5" stroke-width="4" stroke-linejoin="bevel" d="M484.08 486.463h8.867v7.759h-8.867zm8.867 0h7.759v7.759h-7.759zm7.759 0h7.759v7.759h-7.759z"/><path fill="#fff" stroke="#E1E4E5" stroke-width="4" stroke-linejoin="bevel" d="M508.464 486.463h8.867v7.759h-8.867zm8.867 0h7.759v7.759h-7.759zm-94.955-186.209h76.856l26.967 162.933h-130.79l26.967-162.933z"/><path d="M422.276 300.624h76.656l13.449-20.173H408.828l13.448 20.173z" fill="#fff" stroke="#E1E4E5" stroke-width="4" stroke-linejoin="bevel"/><path d="M447.503 341.264v-8.885c0-4.275 5.606-7.74 12.52-7.74v16.625h-12.52zm13.297 0v-16.625c6.914 0 12.52 3.465 12.52 7.74v8.885H460.8zm-13.297 0v8.886c0 4.275 5.606 7.74 12.52 7.74v-16.626h-12.52zm13.297.001v16.625c6.914 0 12.52-3.465 12.52-7.74v-8.885H460.8zm-13.297 58.744v-8.886c0-4.274 5.606-7.74 12.521-7.74v16.626h-12.521zm13.297 0v-16.626c6.914 0 12.52 3.466 12.52 7.74v8.886H460.8zm-13.297 0v8.886c0 4.274 5.606 7.74 12.52 7.74v-16.626h-12.52z" fill="#fff" stroke="#E1E4E5" stroke-width="4"/><path d="M460.8 400.009v16.626c6.914 0 12.52-3.466 12.52-7.74v-8.886H460.8z" fill="#fff" stroke="#E1E4E5" stroke-width="4"/><circle cx="675.277" cy="215.463" r="69.274" fill="#009688"/><path fill-rule="evenodd" clip-rule="evenodd" d="M340.009 222.667c10.207 0 5.431-16.278-7.5-12.39-.716-22.602-37.347-39.139-52.494-8.654-4.283-3.409-13.899 3.029-11.77 8.654-4.757.408-8.499.961-11.411 1.694-6.723 1.693-5.392 10.62 1.538 10.557l81.637.139zm161.825-80.912c10.207 0 5.431-16.278-7.5-12.39-.716-22.602-37.347-39.14-52.495-8.654-4.282-3.409-13.899 3.029-11.769 8.654-4.757.408-8.5.961-11.411 1.694-6.723 1.693-5.393 10.62 1.537 10.557l81.638.139zm206.16-14.409c10.206 0 5.431-16.278-7.5-12.39-.716-22.602-37.347-39.14-52.495-8.655-4.282-3.408-13.899 3.03-11.769 8.655-4.757.408-8.5.961-11.411 1.694-6.724 1.693-5.393 10.619 1.537 10.557l81.638.139zm-477.161 95.321h-73.099c-5.918 0-8.47-7.429-3.626-10.725l.205-.139c6.897-4.596 15.948-4.178 15.948-4.178s1.293-24.86 25.645-24.86c12.04 0 21.77 19.951 21.77 19.951s16.378 0 19.089 12.535c.819 3.798-1.928 7.416-5.932 7.416zm46.276-68.72h-92.771c-8.708 0-8.309-7.221-5.464-9.737 2.915-2.578 8.676-1.532 8.676-1.532s1.715-4.857 7.36-7.222c4.993-2.091 10.225-1.096 10.225-1.096s0-3.333 3.197-6.093c3.197-2.761 7.46-2.493 7.46-2.493s2.931-18.379 22.513-18.379c19.583 0 21.848 17.306 21.848 17.306s4.396 0 7.594 2.951c3.197 2.952 3.596 6.305 3.596 6.305s10.693-1.45 13.855 7.838c1.885 5.536-1.987 12.152-8.089 12.152zm340.275-60.961h-92.77c-8.709 0-8.309-7.22-5.464-9.737 2.915-2.578 8.676-1.532 8.676-1.532s1.715-4.857 7.36-7.221c4.993-2.092 10.224-1.097 10.224-1.097s0-3.333 3.197-6.093c3.198-2.761 7.461-2.493 7.461-2.493s2.93-18.38 22.513-18.38c19.583 0 21.848 17.307 21.848 17.307s4.396 0 7.593 2.951c3.197 2.952 3.597 6.305 3.597 6.305s10.693-1.45 13.855 7.838c1.884 5.536-1.987 12.152-8.09 12.152zm-188.425-4.434h-92.771c-8.708 0-8.309-7.22-5.464-9.736 2.915-2.579 8.676-1.533 8.676-1.533s1.715-4.857 7.36-7.221c4.993-2.092 10.224-1.096 10.224-1.096s0-3.334 3.198-6.094c3.197-2.76 7.46-2.492 7.46-2.492S370.572 42 390.155 42c19.583 0 21.848 17.306 21.848 17.306s4.396 0 7.594 2.952c3.197 2.951 3.596 6.305 3.596 6.305s10.693-1.451 13.855 7.838c1.885 5.536-1.987 12.151-8.089 12.151z" fill="#fff" stroke="#E1E4E5" stroke-width="4"/><circle cx="685.371" cy="260.778" r="18.124" transform="rotate(180 685.371 260.778)" fill="#009688"/><circle cx="213.036" cy="266.405" r="14.92" transform="rotate(180 213.036 266.405)" fill="#009688"/><circle r="16.991" transform="matrix(-1 0 0 1 248.359 446.926)" fill="#009688"/><circle r="7.929" transform="matrix(-1 0 0 1 667.134 331.459)" fill="#009688"/><circle r="10.195" transform="matrix(-1 0 0 1 625.064 446.78)" fill="#E1E4E5"/><circle r="14.726" transform="matrix(-1 0 0 1 151.726 387.726)" fill="#E1E4E5"/><circle r="11.207" transform="matrix(-1 0 0 1 692.58 505.429)" fill="#E1E4E5"/><ellipse rx="6" ry="6.5" transform="matrix(-1 0 0 1 756 101.7)" fill="#E1E4E5"/><circle r="11.189" transform="scale(1 -1) rotate(-75 -89.679 -337.678)" fill="#E1E4E5"/><circle r="4.657" transform="matrix(-1 0 0 1 290.336 85.45)" fill="#E1E4E5"/><ellipse rx="11.45" ry="9.16" transform="matrix(-1 0 0 1 756.45 408.36)" fill="#E1E4E5"/><circle r="8.1" transform="scale(1 -1) rotate(-75 192.12 -404.17)" fill="#E1E4E5"/></svg>