<svg width="900" height="600" viewBox="0 0 900 600" fill="none" xmlns="http://www.w3.org/2000/svg"><path fill="transparent" d="M0 0h900v600H0z"/><circle cx="466.483" cy="276.287" r="210.939" fill="#009688"/><circle cx="466.483" cy="276.288" r="160.088" fill="#fff"/><ellipse cx="466.004" cy="275.286" rx="114.013" ry="114.561" fill="#009688"/><ellipse cx="466.004" cy="275.286" rx="47.14" ry="46.592" fill="#fff"/><path d="M349.499 435.891h57.305L324.666 551h-43.934l68.767-115.109zm237.394 0h-57.306L611.725 551h43.935l-68.767-115.109zm118.099 72.354c35.117 0 63.585-28.467 63.585-63.584 0-35.117-28.468-63.584-63.585-63.584-35.116 0-63.584 28.467-63.584 63.584 0 35.117 28.468 63.584 63.584 63.584z" fill="#009688"/><path d="m685 446.47 10.208 10.26c2.984 3 7.853 3 10.837.158L734 431" stroke="#fff" stroke-width="11" stroke-linecap="round" stroke-linejoin="round"/><path d="M460.522 275.834 116.29 182.65" stroke="#E1E4E5" stroke-width="24" stroke-linecap="round"/><path d="m132.274 186.112 6.649-24.814c8.243-30.763 33.561-37.527 56.211-14.922l18.22 18.23 18.221 18.231c22.65 22.604 15.901 47.791-15.016 56.042l-24.895 6.677-24.895 6.678c-30.918 8.251-49.462-10.265-41.219-41.028l6.724-25.094z" fill="#E1E4E5"/><path d="M715.972 172.696c-8.427 5.4-18.445 1.414-32.808-8.131-10.801-7.18-20.732-13.576-28.809-25.864-5.655-8.598-8.83-17.843-10.39-26.008-1.692-8.847-4.893-19.622 2.263-24.81 9.833-7.127 41.303-.755 60.581 26.573 21.175 30.025 17.402 52.964 9.163 58.24z" fill="url(#a)"/><path d="M783.319 240.812c-19.72 9.782-45.893-2.796-45.893-2.796s5.817-28.432 25.547-38.2c19.72-9.782 45.883 2.782 45.883 2.782s-5.817 28.432-25.537 38.214z" fill="url(#b)"/><path d="M149.301 418.888c21.877 13.112 53.264.991 53.264.991s-4.104-33.374-25.995-46.471c-21.877-13.112-53.25-1.006-53.25-1.006s4.104 33.374 25.981 46.486z" fill="url(#c)"/><circle cx="736.073" cy="303.626" r="17.926" transform="rotate(180 736.073 303.626)" fill="#009688"/><circle cx="189.149" cy="311.42" r="14.757" transform="rotate(180 189.149 311.42)" fill="#009688"/><circle r="16.805" transform="matrix(-1 0 0 1 280.805 441.805)" fill="#009688"/><circle r="7.843" transform="matrix(-1 0 0 1 790.713 324.335)" fill="#009688"/><circle r="10.083" transform="matrix(-1 0 0 1 433.331 527.098)" fill="#E1E4E5"/><circle r="14.565" transform="matrix(-1 0 0 1 204.796 508.558)" fill="#E1E4E5"/><circle r="11.085" transform="matrix(-1 0 0 1 700.729 536.87)" fill="#E1E4E5"/><circle r="12.324" transform="matrix(-1 0 0 1 761.167 139.063)" fill="#E1E4E5"/><circle r="11.067" transform="scale(1 -1) rotate(-75 -136.349 -204.273)" fill="#E1E4E5"/><circle r="4.606" transform="matrix(-1 0 0 1 268.893 130.249)" fill="#E1E4E5"/><ellipse rx="11.325" ry="9.06" transform="matrix(-1 0 0 1 761.325 372.06)" fill="#E1E4E5"/><circle r="8.012" transform="scale(1 -1) rotate(-75 253.747 -411.387)" fill="#E1E4E5"/><path d="M189.786 139.266h.161c.955 13.536 11.022 13.745 11.022 13.745s-11.101.216-11.101 15.857c0-15.641-11.1-15.857-11.1-15.857s10.062-.209 11.018-13.745z" fill="#E1E4E5"/><defs><linearGradient id="a" x1="660.255" y1="207.104" x2="714.03" y2="13.7" gradientUnits="userSpaceOnUse"><stop stop-color="#fff"/><stop offset="1" stop-color="#EEE"/></linearGradient><linearGradient id="b" x1="707.593" y1="271.325" x2="870.242" y2="142.669" gradientUnits="userSpaceOnUse"><stop stop-color="#fff"/><stop offset="1" stop-color="#EEE"/></linearGradient><linearGradient id="c" x1="233.96" y1="461.095" x2="57.928" y2="297.538" gradientUnits="userSpaceOnUse"><stop stop-color="#fff"/><stop offset="1" stop-color="#EEE"/></linearGradient></defs></svg>