<svg width="900" height="600" viewBox="0 0 900 600" fill="none" xmlns="http://www.w3.org/2000/svg"><path fill="transparent" d="M0 0h900v600H0z"/><path fill-rule="evenodd" clip-rule="evenodd" d="M420.288 113.184V73.592c0-21.866-17.726-39.592-39.592-39.592H182.735c-21.866 0-39.592 17.726-39.592 39.592v98.981" fill="#fff"/><path d="M420.288 113.184V73.592c0-21.866-17.726-39.592-39.592-39.592H182.735c-21.866 0-39.592 17.726-39.592 39.592v98.981" stroke="#E1E4E5" stroke-width="11"/><path fill-rule="evenodd" clip-rule="evenodd" d="M143.143 120.108h127.982a19.794 19.794 0 0 0 16.47-8.81l27.774-41.75a19.797 19.797 0 0 1 16.53-8.829h88.39c21.866 0 39.592 17.726 39.592 39.593v197.961c0 21.866-17.726 39.592-39.592 39.592H143.143c-21.866 0-39.592-17.726-39.592-39.592V159.7c0-21.866 17.726-39.592 39.592-39.592z" fill="#fff" stroke="#E1E4E5" stroke-width="11"/><path fill-rule="evenodd" clip-rule="evenodd" d="M180.677 287.107v3.07h3.068a2.344 2.344 0 0 1 2.333 2.335 2.344 2.344 0 0 1-2.333 2.335h-3.068v3.07a2.344 2.344 0 0 1-2.333 2.335 2.344 2.344 0 0 1-2.332-2.335v-3.058h-3.081a2.344 2.344 0 0 1-2.333-2.334 2.344 2.344 0 0 1 2.333-2.335h3.068v-3.083a2.346 2.346 0 0 1 2.345-2.335 2.344 2.344 0 0 1 2.333 2.335zm-25.65-21.512v4.299h4.449c1.856 0 3.382 1.474 3.382 3.269 0 1.794-1.526 3.268-3.382 3.268h-4.449v4.299c0 1.794-1.526 3.268-3.382 3.268-1.857 0-3.383-1.474-3.383-3.268v-4.281h-4.467c-1.857 0-3.383-1.475-3.383-3.269s1.526-3.268 3.383-3.268h4.449v-4.317c0-1.794 1.525-3.268 3.401-3.268 1.856 0 3.382 1.474 3.382 3.268z" fill="#E1E4E5"/><circle r="3.59" transform="matrix(-1 0 0 1 159.016 372.365)" fill="#E1E4E5"/><circle r="5.129" transform="matrix(-1 0 0 1 371.37 112.118)" fill="#E1E4E5"/><circle r="5.012" transform="scale(1 -1) rotate(-75 -135.016 -178.285)" fill="#E1E4E5"/><circle r="6.668" transform="matrix(-1 0 0 1 103.623 77.356)" fill="#E1E4E5"/><path fill-rule="evenodd" clip-rule="evenodd" d="M793.762 341.525v-39.593c0-21.866-17.726-39.592-39.592-39.592H556.209c-21.866 0-39.592 17.726-39.592 39.592v98.981" fill="#fff"/><path d="M793.762 341.525v-39.593c0-21.866-17.726-39.592-39.592-39.592H556.209c-21.866 0-39.592 17.726-39.592 39.592v98.981" stroke="#E1E4E5" stroke-width="11"/><path fill-rule="evenodd" clip-rule="evenodd" d="M516.617 348.448h127.982a19.797 19.797 0 0 0 16.47-8.809l27.774-41.75a19.799 19.799 0 0 1 16.53-8.83h88.39c21.866 0 39.592 17.726 39.592 39.593v197.961c0 21.866-17.726 39.592-39.592 39.592H516.617c-21.866 0-39.592-17.726-39.592-39.592V388.04c0-21.866 17.726-39.592 39.592-39.592z" fill="#fff" stroke="#E1E4E5" stroke-width="11"/><path fill-rule="evenodd" clip-rule="evenodd" d="M554.151 515.447v3.071h3.068a2.344 2.344 0 0 1 2.333 2.335 2.344 2.344 0 0 1-2.333 2.334h-3.068v3.071a2.344 2.344 0 0 1-2.333 2.335 2.344 2.344 0 0 1-2.332-2.335V523.2h-3.081a2.344 2.344 0 0 1-2.333-2.335 2.344 2.344 0 0 1 2.333-2.334h3.068v-3.084a2.346 2.346 0 0 1 2.345-2.334 2.344 2.344 0 0 1 2.333 2.334zm-25.65-21.512v4.299h4.449c1.856 0 3.382 1.474 3.382 3.269 0 1.794-1.526 3.268-3.382 3.268h-4.449v4.299c0 1.794-1.526 3.268-3.382 3.268-1.857 0-3.383-1.474-3.383-3.268v-4.281h-4.467c-1.857 0-3.383-1.475-3.383-3.269s1.526-3.268 3.383-3.268h4.449v-4.317c0-1.794 1.525-3.268 3.401-3.268 1.856 0 3.382 1.474 3.382 3.268z" fill="#E1E4E5"/><circle r="3.59" transform="matrix(-1 0 0 1 441.052 404.466)" fill="#E1E4E5"/><circle r="5.129" transform="matrix(-1 0 0 1 744.844 340.458)" fill="#E1E4E5"/><circle r="5.012" transform="scale(1 -1) rotate(-75 -182.76 -454.4)" fill="#E1E4E5"/><circle r="6.668" transform="matrix(-1 0 0 1 484.183 303.397)" fill="#E1E4E5"/><path d="M540.507 220.915h60.066c20.722 0 37.54-16.818 37.54-37.541 0-20.722-16.818-37.541-37.54-37.541h-82.59" stroke="#E1E4E5" stroke-width="11" stroke-miterlimit="10" stroke-linecap="round" stroke-linejoin="round"/><path d="m535.251 164.603-19.221-19.221 19.221-19.221" stroke="#E1E4E5" stroke-width="11" stroke-linecap="round" stroke-linejoin="round"/><path d="M394.925 380.637H334.86c-20.723 0-37.541 16.818-37.541 37.541 0 20.722 16.818 37.54 37.541 37.54l82.59.001" stroke="#E1E4E5" stroke-width="11" stroke-miterlimit="10" stroke-linecap="round" stroke-linejoin="round"/><path d="m400.181 436.949 19.221 19.221-19.221 19.221" stroke="#E1E4E5" stroke-width="11" stroke-linecap="round" stroke-linejoin="round"/><path d="M264.208 155.016a30 30 0 0 1 30 0l37.482 21.64a30 30 0 0 1 15 25.981v43.281a30 30 0 0 1-15 25.981l-37.482 21.641a30 30 0 0 1-30 0l-37.483-21.641a30 30 0 0 1-15-25.981v-43.281a30 30 0 0 1 15-25.981l37.483-21.64z" fill="#009688"/><path d="m303.309 209.721-28.443 28.215-17.066-16.929" stroke="#fff" stroke-width="8.45" stroke-linecap="round" stroke-linejoin="round"/><path d="M641.402 386.606a30 30 0 0 1 30 0l37.482 21.641a30 30 0 0 1 15 25.981v43.281a29.999 29.999 0 0 1-15 25.98l-37.482 21.641a30 30 0 0 1-30 0l-37.483-21.641a29.999 29.999 0 0 1-15-25.98v-43.281a30 30 0 0 1 15-25.981l37.483-21.641z" fill="#009688"/><path d="m680.503 441.312-28.443 28.215-17.066-16.929" stroke="#fff" stroke-width="8.45" stroke-linecap="round" stroke-linejoin="round"/></svg>