<svg width="900" height="600" viewBox="0 0 900 600" fill="none" xmlns="http://www.w3.org/2000/svg"><path fill="transparent" d="M0 0h900v600H0z"/><path d="M518.683 368.611h104.135c24.528 0 44.597 20.069 44.597 44.598V547H518.683V368.611z" stroke="#E1E4E5" stroke-width="27.444" stroke-miterlimit="10" stroke-linecap="round" stroke-linejoin="round"/><path d="M414.774 279.417h59.537c24.528 0 44.597 20.069 44.597 44.597V547H370.176V324.014c0-24.528 19.846-44.597 44.598-44.597zm-148.736 156.09h104.135V547H221.441v-66.895c0-24.529 20.069-44.598 44.597-44.598z" stroke="#E1E4E5" stroke-width="27.444" stroke-miterlimit="10" stroke-linecap="round" stroke-linejoin="round"/><path d="m432.957 110.433-11.694 23.387c-1.544 3.309-5.736 6.398-9.266 6.839l-21.181 3.53c-13.458 2.206-16.767 12.134-7.06 21.621l16.547 16.548c2.869 2.868 4.413 8.163 3.531 11.914L399.2 214.57c-3.75 16.106 4.854 22.284 18.974 13.9l19.857-11.693c3.53-2.207 9.487-2.207 13.017 0l19.857 11.693c14.12 8.384 22.725 2.206 18.974-13.9l-4.633-20.298c-.883-3.751.662-9.267 3.53-11.914l16.327-16.327c9.707-9.707 6.619-19.415-7.061-21.622l-21.18-3.529c-3.53-.662-7.722-3.751-9.266-6.84l-11.694-23.387c-6.398-12.797-16.547-12.796-22.945-.22z" fill="#009688"/><path d="m594.068 247.396-7.106 14.213c-.939 2.012-3.486 3.889-5.632 4.157l-12.872 2.145c-8.179 1.341-10.19 7.375-4.29 13.14l10.056 10.056c1.743 1.743 2.681 4.962 2.145 7.241l-2.816 12.336c-2.279 9.788 2.95 13.542 11.532 8.447l12.067-7.106c2.145-1.341 5.766-1.341 7.911 0l12.068 7.106c8.581 5.095 13.81 1.341 11.531-8.447l-2.816-12.336c-.536-2.279.402-5.632 2.145-7.241l9.922-9.922c5.9-5.899 4.023-11.799-4.29-13.14l-12.872-2.145c-2.146-.402-4.693-2.279-5.632-4.157l-7.106-14.213c-3.889-7.777-10.056-7.776-13.945-.134zm-305.023 67.468-7.106 14.213c-.939 2.011-3.486 3.888-5.632 4.156l-12.872 2.146c-8.179 1.341-10.19 7.374-4.29 13.14l10.056 10.056c1.743 1.743 2.682 4.961 2.145 7.241l-2.816 12.335c-2.279 9.788 2.95 13.543 11.532 8.448l12.067-7.107c2.145-1.341 5.766-1.341 7.911 0l12.068 7.107c8.581 5.095 13.81 1.34 11.531-8.448l-2.816-12.335c-.536-2.28.402-5.632 2.145-7.241l9.922-9.922c5.9-5.9 4.023-11.8-4.29-13.14l-12.872-2.145c-2.146-.403-4.693-2.28-5.632-4.157l-7.106-14.213c-3.889-7.777-10.056-7.777-13.945-.134z" fill="#E1E4E5"/><path d="M736.106 285.096c-16.211 8.042-37.728-2.299-37.728-2.299s4.782-23.374 21.002-31.404c16.212-8.042 37.72 2.287 37.72 2.287s-4.782 23.374-20.994 31.416z" fill="url(#a)"/><path d="M137.927 401.991c14.926 8.946 36.34.676 36.34.676s-2.8-22.77-17.735-31.705c-14.926-8.946-36.331-.686-36.331-.686s2.8 22.769 17.726 31.715z" fill="url(#b)"/><circle cx="631.363" cy="177.829" r="19.626" transform="rotate(180 631.363 177.829)" fill="#009688"/><circle cx="169.017" cy="263.975" r="16.156" transform="rotate(180 169.017 263.975)" fill="#009688"/><circle r="18.399" transform="matrix(-1 0 0 1 314.17 178.89)" fill="#009688"/><circle r="8.586" transform="matrix(-1 0 0 1 778.918 340.605)" fill="#009688"/><circle r="11.039" transform="matrix(-1 0 0 1 600.694 502.007)" fill="#E1E4E5"/><circle r="13.493" transform="matrix(-1 0 0 1 713.281 146.539)" fill="#E1E4E5"/><circle r="5.043" transform="matrix(-1 0 0 1 260.791 58.043)" fill="#E1E4E5"/><ellipse rx="12.399" ry="9.919" transform="matrix(-1 0 0 1 757.572 527.188)" fill="#E1E4E5"/><circle r="8.771" transform="scale(1 -1) rotate(-75 234.982 -406.121)" fill="#E1E4E5"/><path d="M188.908 123.898h.177c1.046 14.82 12.067 15.048 12.067 15.048s-12.153.237-12.153 17.36c0-17.123-12.153-17.36-12.153-17.36s11.016-.228 12.062-15.048z" fill="#E1E4E5"/><defs><linearGradient id="a" x1="673.852" y1="310.18" x2="807.566" y2="204.413" gradientUnits="userSpaceOnUse"><stop stop-color="#fff"/><stop offset="1" stop-color="#EEE"/></linearGradient><linearGradient id="b" x1="195.686" y1="430.786" x2="75.588" y2="319.2" gradientUnits="userSpaceOnUse"><stop stop-color="#fff"/><stop offset="1" stop-color="#EEE"/></linearGradient></defs></svg>