<svg width="900" height="600" viewBox="0 0 900 600" fill="none" xmlns="http://www.w3.org/2000/svg"><path fill="transparent" d="M0 0h900v600H0z"/><circle cx="450.022" cy="299.564" r="262.564" fill="#009688"/><path d="m191.213 188.55 115.583-30.97c7.963-2.134 15.125-3.659 21.762-4.059 35.204-3.721 50.428 16.623 67.071 78.735l29.544 110.259c16.643 62.112 13.63 87.342-18.718 101.722-5.948 2.972-12.913 5.233-20.875 7.366l-115.584 30.971c-7.962 2.133-15.124 3.658-21.762 4.058-35.203 3.721-50.427-16.622-67.07-78.735L151.62 297.638c-16.643-62.112-13.631-87.342 18.717-101.722 5.949-2.972 12.914-5.232 20.876-7.366z" fill="#fff" stroke="#009688" stroke-width="11"/><path d="m288.958 251.701 41.111-11.016M225.2 319.141l.235-.063 117.223-31.409M237.18 363.851l.235-.063 117.223-31.41M249.16 408.561l.235-.063 117.223-31.41M248.954 262.42l.105-.028m-35.343 9.47.105-.028" stroke="#009688" stroke-width="24" stroke-linecap="round" stroke-linejoin="round"/><path d="m592.56 157.58 115.583 30.97c7.963 2.134 14.928 4.394 20.876 7.366 32.348 14.38 35.361 39.61 18.718 101.722l-29.544 110.259c-16.643 62.113-31.867 82.456-67.071 78.735-6.638-.4-13.799-1.925-21.762-4.058l-115.583-30.971c-7.963-2.133-14.928-4.394-20.876-7.366-32.348-14.379-35.36-39.61-18.717-101.722l29.543-110.259c16.643-62.112 31.867-82.456 67.071-78.735 6.638.4 13.8 1.925 21.762 4.059z" fill="#fff" stroke="#009688" stroke-width="11"/><path d="m645.635 261.143 41.111 11.016m-130.048 15.51.235.063 117.223 31.409m-129.438 13.237.235.063 117.223 31.41m-129.438 13.237.235.063 117.223 31.41M605.63 250.424l.106.028m-35.344-9.47.106.028" stroke="#009688" stroke-width="24" stroke-linecap="round" stroke-linejoin="round"/><path d="M380.284 126.25h138.413c9.535 0 17.994.441 25.529 1.981 40.448 6.382 51.367 33.669 51.367 108.05v132.037c0 74.38-10.919 101.668-51.367 108.049-7.535 1.541-15.994 1.981-25.529 1.981H380.284c-9.535 0-17.994-.44-25.529-1.981-40.448-6.381-51.367-33.669-51.367-108.049V236.281c0-74.381 10.919-101.668 51.367-108.05 7.535-1.54 15.994-1.981 25.529-1.981z" fill="#fff" stroke="#009688" stroke-width="11"/><path d="M470.589 226.072h49.23m-140.657 56.263h140.657m-140.657 53.54h140.657m-140.657 53.541h140.657m-97.136-163.344h.126m-42.324 0h.127" stroke="#009688" stroke-width="24" stroke-linecap="round" stroke-linejoin="round"/></svg>