<svg width="900" height="600" viewBox="0 0 900 600" fill="none" xmlns="http://www.w3.org/2000/svg"><path fill="transparent" d="M0 0h900v600H0z"/><path d="M577.533 505.8H360.591v-9.327c0-5.61 4.554-10.163 10.175-10.163h197.01c5.388 0 9.757 4.364 9.757 9.745v9.745z" fill="#E1E4E5"/><path d="M476 134v201h-21.326c0-8.961-8.362-21.988-12.544-27.381C388.816 263.437 370 237.791 370 198.096c0-37.337 21.953-57.251 35.751-64.096H476zm0 0v201h20.923c0-8.961 8.205-21.988 12.308-27.381C561.539 263.437 580 237.791 580 198.096c0-37.337-21.538-57.251-35.077-64.096H476z" fill="#009688"/><path d="M476 486V286h-21.326c0 8.916-8.362 21.878-12.544 27.245-53.314 43.962-72.13 69.48-72.13 108.978 0 37.152 21.953 56.966 35.751 63.777H476zm0 0V286h20.923c0 8.916 8.205 21.878 12.308 27.245C561.539 357.207 580 382.725 580 422.223c0 37.152-21.538 56.966-35.077 63.777H476z" fill="#009688"/><path d="M540.168 176.002c-11.499.178-31.272 2.292-63.261 10.521-21.901 5.632-59.659 1.392-79.632-1.528C390.268 183.971 384 189.51 384 196.73v8.741c0 24.089 63.556 76.271 80.363 89.646 2.547 2.026 4.035 5.135 4.035 8.429v133.956c0 4.575-2.212 8.834-5.886 11.457C449.295 458.393 427.023 486 427.023 486h84.234s-22.588-26.642-35.267-36.533a11.999 11.999 0 0 1-4.602-9.464V303.509c0-3.276 1.459-6.374 3.969-8.422C491.834 281.631 554 229.256 554 205.185v-15.293c0-7.758-6.225-14.009-13.832-13.89z" fill="#fff"/><path d="M567.413 134.241H370.348c-5.388 0-9.757-4.364-9.757-9.745v-9.745h216.942v9.382c0 5.585-4.529 10.108-10.12 10.108z" fill="#E1E4E5"/><path d="M207.43 307.255c8.725 8.88 25.039 7.007 25.039 7.007s2.159-16.269-6.574-25.143c-8.724-8.88-25.03-7.013-25.03-7.013s-2.159 16.269 6.565 25.149z" fill="url(#a)"/><path d="M606.818 133.557c-4.142 4.215-11.886 3.326-11.886 3.326s-1.025-7.723 3.12-11.935c4.142-4.215 11.882-3.329 11.882-3.329s1.025 7.723-3.116 11.938z" fill="url(#b)"/><path d="M343.176 170.703c-5.313 5.408-15.248 4.268-15.248 4.268s-1.315-9.908 4.003-15.312c5.313-5.407 15.243-4.271 15.243-4.271s1.315 9.908-3.998 15.315z" fill="url(#c)"/><path d="M709.876 511.071c-23.004.419-29.092 2.198-52.972 1.465-11.374.105-23.514-.209-34.634-.418-5.286-1.361-14.583 0-20.853-1.151l-2.406.732c-2.151-.419-4.667-.628-6.854-.209l.146.209c-3.209-.523-6.854-.209-8.422-.523l.146.209-3.901-.104.656.313c-5.614-.627-11.374-.628-16.478-.418l.437-.942c-10.9 1.046-14.874-.837-24.681.314l.146.209c-12.432-2.407-19.614 1.675-32.41-.628 1.604.314-.693.419-.547.733-5.906-.21-12.177-.419-12.286-2.198-4.302 0-3.5.523-4.047 1.256.036-.733-3.719-1.151-7.073-1.151l1.531.314-9.624-.314 1.896-1.466c-5.104.419-1.313 1.78-6.162 1.466l.073-1.256c-7.036.209-11.192 2.093-18.009 3.035-28.364.523-58.842-2.617-85.2-.419l-1.167.942c-.51 1.361-7.291-1.988-8.276-.733l-3.062-.627c-.875.209-2.698.523-1.167.837-2.843.104-2.916-.21-4.958-.524l-3.062.838c-11.192.628-20.708-.942-32.483-.628-14.146 1.674-40.795.105-56.144-.733-21.582-1.988-46.665 3.349-68.758 1.047-.729.209-2.588-.209-2.552-.419l-20.233.209s-98.033.524-23.551-10.675l-.511-.314c11.083-.732 18.046-.837 25.666.628 1.203-1.779 9.078-.209 11.666-.733l-.255-.104c6.744 1.36 13.89-1.151 20.416.104-.255-.104-.401-.627-1.896-.627 4.739.209 11.229.628 11.593-.419 11.338.314 27.124-.209 34.379 1.465l-.51-.314c4.12 1.151 5.359.209 9.989.733.255-.105.583-.21.51-.314 4.521 1.151 13.161.209 16.771.628l.218-.733 8.969.209-3.354.105c1.166 1.884 6.781-1.256 13.27 0 6.088-.209 12.359 3.977 18.666 3.035 3.026.942-2.661-1.465 1.859-.732.146-1.047-2.114-.628-.948-1.466 4.412.524 7.255-1.046 12.724-.314l.219-.732c7.109 1.465 13.416-1.047 18.155.314 7.328.628 4.922-2.303 12.578-.838l2.989-1.046c3.281-.209 2.334 1.256 5.979.732-.219-.627 4.594-.523 2.443-1.151 8.203-1.046 16.661 1.465 27.488-.314 2.334 1.256 7.802.524 9.552 1.465.292-.523 10.901-.104 4.812-1.36-.51-.105-1.458-.105-1.385.105l-.729-.733c6.161-1.465 11.192.837 17.317.523-1.823.21-4.229.21-2.625.733l5.687-.105-1.166-.628 8.458-.418-1.167.837c4.12-.419 5.578-1.779 10.244-.628 2.115.628-3.9 1.047.438 1.361 5.541-.524 13.817-1.361 20.853-1.57-.656.942 1.24.837 3.208 1.046l.219-.732c7.474 1.046 2.735-1.675 10.172-.838l-.657-.523 1.969 1.675c6.708 1.57 3.609-1.57 11.047.523-2.953-.105-1.386 1.674 2.224 1.36l-.912-.732c2.005.209 2.661.523 4.01.314-1.203-.419-.619-1.047 2.334-.942l-1.969-.942 5.578 1.361c4.302-.838 11.119.209 12.906-.838 0 0 9.26-.523 11.374.628-1.859-.732 3.245-1.046 1.786-1.884 2.407.838 9.479 1.466 12.323.628l-.547-.104c10.5-.942 17.937 1.256 27.343.104-.438.942 4.557.419 3.317 1.57 9.734 1.151 17.755-2.407 21.291 1.256 4.448.209 5.25-.837 7.547-1.047l-1.058-.209c8.313.314 10.719.314 16.88.209 3.062.314 3.573 1.989 9.078 1.57-1.787-.627.474-.523 2.515-.523-1.312-.105-1.713-.314.985-.837.364.209.984.314 1.531.418.036 0 .146-.104.073-.209 3.427.21 2.843.419 1.239.523.073.105-.036.21-.547.419 3.573-.837 9.953.105 10.391-1.047 10.353.314 17.754 1.466 26.358 1.884.984-.628-1.057-1.151-3.536-1.36l6.124.209c-.036-.837-3.499-.523-5.395-.628 7.291-1.36 15.02 1.361 23.551.105l1.786.628.511-.105c-.037.314 1.896.837 3.135.942 1.203-.733-.073-1.675 4.156-1.675 3.354-.732 9.479.315 13.854.733-2.37.105-1.604.523-.583.837 2.114 0 3.317-.732 4.958-.418l.218-.942c-.838.942 5.505 1.046 6.307 1.36 1.204-.732-3.281-.628-3.791-1.151 8.458.105 4.229 0 12.723.105 4.521.732-.838.942 1.349 1.779 3.974.209 7.875.837 12.469.314l-1.459.837c7.51.733 11.995.628 17.026-.314 55.852 7.117 11.775 9.734 11.775 9.734-22.093 2.198-33.431-.314-59.607-1.047z" fill="#E1E4E5"/><path d="m235.302 376.704-5.431 9.321-.128.222a2.574 2.574 0 0 0 .692 3.357l7.239 5.356c.12.089.23.185.328.288.681.728.906 1.806.495 2.735a44.963 44.963 0 0 0-3.56 17.413 2.752 2.752 0 0 1-.109.715 2.616 2.616 0 0 1-1.859 1.771l-7.307 1.753a2.615 2.615 0 0 0-1.902 1.937 2.817 2.817 0 0 0-.045.903l1.407 10.928a2.627 2.627 0 0 0 2.723 2.285l9.987-.436c.984-.04 1.9.487 2.357 1.363a47.525 47.525 0 0 0 2.193 3.678 44.829 44.829 0 0 0 4.957 6.211l.007.011c.752.788.943 1.932.478 2.916l-4.341 9.179-.213.464a2.536 2.536 0 0 0 1.012 3.283l9.519 5.56a2.649 2.649 0 0 0 3.449-.71l5.96-8.062a2.556 2.556 0 0 1 2.865-.92 44.983 44.983 0 0 0 13.732 2.119 2.576 2.576 0 0 1 2.49 1.98l2.094 8.66a2.623 2.623 0 0 0 2.894 1.988l10.965-1.407a2.51 2.51 0 0 0 2.184-2.598l-.495-11.748a2.633 2.633 0 0 1 1.355-2.417 45.71 45.71 0 0 0 8.655-6.187 2.492 2.492 0 0 1 2.793-.429l11.021 5.237a2.58 2.58 0 0 0 3.329-1.029l5.581-9.558a2.595 2.595 0 0 0-.411-3.114c-.084-.083-.176-.174-.282-.242l-8.935-6.621a2.554 2.554 0 0 1-.991-2.652c.018-.089.035-.176.071-.261.089-.259.176-.5.24-.772a44.89 44.89 0 0 0 1.948-9.399c.087-1.07.875-1.96 1.938-2.206l9.141-2.219a2.622 2.622 0 0 0 1.974-2.891l-.308-2.431-1.102-8.479c-.163-1.332-1.328-2.305-2.673-2.255l-9.838.429c-1.052.053-2.002-.572-2.413-1.541a45.496 45.496 0 0 0-3.992-7.434 44.667 44.667 0 0 0-3.856-5.011l.915-1.924 3.735-7.905a2.5 2.5 0 0 0-.488-2.864 2.286 2.286 0 0 0-.527-.401l-9.571-5.616a2.598 2.598 0 0 0-3.365.699l-4.062 5.516a2.575 2.575 0 0 1-3.018.854 45.124 45.124 0 0 0-13.868-3.272c-1.125-.081-2.054-.859-2.289-1.929L278 357.946a2.482 2.482 0 0 0-2.724-1.869l-11.083 1.439a2.512 2.512 0 0 0-2.205 2.613l.519 12.222a2.559 2.559 0 0 1-1.511 2.459 43.352 43.352 0 0 0-6.022 3.368 45.205 45.205 0 0 0-3.042 2.203 2.59 2.59 0 0 1-2.688.313l-10.566-5.017a2.615 2.615 0 0 0-3.376 1.027zm22.879 49.779c-1.361-2.653-2.316-5.666-2.768-9.029-.104-.713-.134-1.519-.128-2.367.076-3.652 1.173-8.073 2.787-10.814 12.379-20.949 41.938-15.234 45.837 8.445.059.389.119.779.168 1.177.475 3.699-.695 9.395-2.555 12.621a30.115 30.115 0 0 1-3.235 4.569c-11.749 13.511-32.346 10.506-40.106-4.602z" fill="url(#d)"/><path d="m371.027 344.455 5.432-9.32.128-.223a2.572 2.572 0 0 0-.693-3.356l-7.238-5.356a2.476 2.476 0 0 1-.328-.288c-.681-.729-.906-1.806-.496-2.736a44.944 44.944 0 0 0 3.561-17.412c.004-.249.043-.489.108-.715a2.615 2.615 0 0 1 1.86-1.771l7.307-1.753a2.618 2.618 0 0 0 1.902-1.937c.058-.284.082-.591.045-.904l-1.408-10.927a2.626 2.626 0 0 0-2.723-2.285l-9.987.436a2.538 2.538 0 0 1-2.357-1.363 44.83 44.83 0 0 0-7.15-9.89l-.006-.01a2.59 2.59 0 0 1-.478-2.916l4.34-9.18.213-.464a2.534 2.534 0 0 0-1.011-3.282l-9.519-5.56a2.65 2.65 0 0 0-3.45.71l-5.959 8.062a2.557 2.557 0 0 1-2.866.92 45.008 45.008 0 0 0-13.731-2.12 2.576 2.576 0 0 1-2.491-1.979l-2.093-8.661a2.623 2.623 0 0 0-2.894-1.987l-10.966 1.407a2.51 2.51 0 0 0-2.183 2.598l.495 11.748a2.632 2.632 0 0 1-1.355 2.416 45.637 45.637 0 0 0-8.655 6.188 2.495 2.495 0 0 1-2.794.429l-11.02-5.237a2.58 2.58 0 0 0-3.329 1.029l-5.581 9.557a2.597 2.597 0 0 0 .41 3.115c.085.082.177.174.282.242l8.935 6.621c.834.61 1.231 1.65.992 2.651-.018.089-.035.177-.072.262-.089.259-.175.499-.239.771a44.899 44.899 0 0 0-1.948 9.4c-.088 1.069-.876 1.96-1.938 2.206l-9.141 2.219a2.624 2.624 0 0 0-1.975 2.891l.309 2.431 1.101 8.478a2.584 2.584 0 0 0 2.674 2.256l9.837-.429c1.052-.053 2.002.572 2.414 1.541a45.37 45.37 0 0 0 7.848 12.444l-.915 1.925-3.736 7.905a2.498 2.498 0 0 0 .489 2.863c.151.16.328.288.526.402l9.572 5.616a2.598 2.598 0 0 0 3.364-.699l4.063-5.516a2.574 2.574 0 0 1 3.018-.854 45.118 45.118 0 0 0 13.867 3.272c1.126.081 2.055.859 2.29 1.928l2.646 10.949a2.482 2.482 0 0 0 2.724 1.87l11.083-1.44a2.511 2.511 0 0 0 2.204-2.612l-.518-12.223a2.56 2.56 0 0 1 1.51-2.458 43.523 43.523 0 0 0 6.023-3.368 45.293 45.293 0 0 0 3.041-2.204 2.591 2.591 0 0 1 2.688-.312l10.567 5.017a2.613 2.613 0 0 0 3.375-1.028zm-22.878-49.778c1.36 2.653 2.315 5.665 2.767 9.029.105.712.135 1.519.129 2.366-.076 3.653-1.174 8.074-2.788 10.815-12.379 20.949-41.938 15.233-45.837-8.445-.059-.39-.119-.779-.167-1.177-.476-3.699.695-9.395 2.554-12.621a30.14 30.14 0 0 1 3.236-4.569c11.749-13.512 32.346-10.507 40.106 4.602z" fill="url(#e)"/><path d="m637.69 346.637 4.825-8.29.114-.198a2.29 2.29 0 0 0-.615-2.985l-6.431-4.763a2.184 2.184 0 0 1-.291-.256c-.605-.648-.805-1.606-.44-2.433a40.033 40.033 0 0 0 3.163-15.486c.004-.221.038-.435.096-.636a2.325 2.325 0 0 1 1.652-1.575l6.491-1.559a2.323 2.323 0 0 0 1.69-1.723c.052-.252.074-.525.04-.803l-1.25-9.719a2.334 2.334 0 0 0-2.419-2.032l-8.872.388a2.252 2.252 0 0 1-2.094-1.212 39.912 39.912 0 0 0-6.352-8.796l-.006-.009a2.306 2.306 0 0 1-.425-2.593l3.856-8.164.19-.413a2.255 2.255 0 0 0-.899-2.919l-8.456-4.945a2.352 2.352 0 0 0-3.065.632l-5.294 7.169a2.27 2.27 0 0 1-2.546.819 39.936 39.936 0 0 0-12.198-1.885 2.29 2.29 0 0 1-2.213-1.761l-1.859-7.702a2.33 2.33 0 0 0-2.571-1.768l-9.742 1.251a2.232 2.232 0 0 0-1.939 2.311l.439 10.448a2.34 2.34 0 0 1-1.203 2.149 40.57 40.57 0 0 0-7.689 5.503 2.213 2.213 0 0 1-2.482.382l-9.79-4.658a2.291 2.291 0 0 0-2.958.916l-4.958 8.5a2.313 2.313 0 0 0 .365 2.77c.075.073.157.154.251.215l7.937 5.888a2.27 2.27 0 0 1 .881 2.358c-.016.079-.031.157-.064.233-.079.23-.155.444-.212.686a39.983 39.983 0 0 0-1.731 8.359 2.214 2.214 0 0 1-1.721 1.962l-8.121 1.974a2.332 2.332 0 0 0-1.754 2.571l.274 2.162.978 7.541a2.297 2.297 0 0 0 2.375 2.006l8.74-.382c.934-.048 1.778.508 2.144 1.37a40.422 40.422 0 0 0 3.546 6.611 39.677 39.677 0 0 0 3.426 4.457l-.813 1.712-3.319 7.03a2.227 2.227 0 0 0 .902 2.904l8.503 4.995a2.307 2.307 0 0 0 2.989-.623l3.609-4.905a2.284 2.284 0 0 1 2.681-.759 40.031 40.031 0 0 0 12.32 2.909c.999.072 1.825.764 2.033 1.716l2.351 9.737a2.207 2.207 0 0 0 2.42 1.663l9.846-1.28a2.233 2.233 0 0 0 1.958-2.324l-.46-10.87a2.276 2.276 0 0 1 1.341-2.186 38.514 38.514 0 0 0 5.35-2.996 40.014 40.014 0 0 0 2.703-1.96 2.3 2.3 0 0 1 2.387-.278l9.388 4.463a2.321 2.321 0 0 0 2.998-.914zm-20.324-44.272c1.208 2.36 2.057 5.039 2.458 8.031.093.633.12 1.351.114 2.104-.067 3.249-1.042 7.181-2.476 9.618-10.997 18.632-37.256 13.548-40.72-7.51-.052-.347-.106-.693-.149-1.047-.422-3.29.618-8.356 2.27-11.225a26.772 26.772 0 0 1 2.874-4.063c10.437-12.017 28.735-9.344 35.629 4.092z" fill="url(#f)"/><path d="m728.344 440.745 5.432-9.32.128-.223a2.573 2.573 0 0 0-.693-3.356l-7.239-5.356a2.541 2.541 0 0 1-.328-.288c-.68-.728-.905-1.806-.495-2.736a44.944 44.944 0 0 0 3.561-17.412c.004-.249.043-.489.108-.715a2.615 2.615 0 0 1 1.86-1.771l7.307-1.753a2.618 2.618 0 0 0 1.902-1.937c.057-.284.082-.591.044-.904l-1.407-10.927a2.626 2.626 0 0 0-2.723-2.285l-9.987.436c-.984.04-1.9-.487-2.357-1.363a44.83 44.83 0 0 0-7.15-9.89l-.006-.01a2.591 2.591 0 0 1-.479-2.916l4.341-9.18.213-.464a2.534 2.534 0 0 0-1.011-3.282l-9.519-5.56a2.65 2.65 0 0 0-3.45.71l-5.959 8.062a2.558 2.558 0 0 1-2.866.92 45.013 45.013 0 0 0-13.731-2.12 2.575 2.575 0 0 1-2.491-1.979l-2.093-8.661a2.623 2.623 0 0 0-2.894-1.987l-10.966 1.407a2.51 2.51 0 0 0-2.183 2.598l.495 11.748a2.632 2.632 0 0 1-1.355 2.416 45.637 45.637 0 0 0-8.655 6.188 2.495 2.495 0 0 1-2.794.429l-11.02-5.237a2.581 2.581 0 0 0-3.33 1.029l-5.58 9.557a2.597 2.597 0 0 0 .41 3.115c.085.082.176.174.282.242l8.935 6.621c.834.61 1.231 1.65.992 2.651-.018.089-.035.177-.072.262-.089.259-.175.499-.239.771a44.912 44.912 0 0 0-1.948 9.4c-.088 1.069-.876 1.96-1.938 2.206l-9.141 2.219a2.623 2.623 0 0 0-1.975 2.891l.309 2.431 1.101 8.478c.163 1.333 1.329 2.306 2.674 2.256l9.837-.429c1.052-.053 2.002.572 2.414 1.541a45.44 45.44 0 0 0 3.991 7.433 44.905 44.905 0 0 0 3.856 5.011l-.914 1.925-3.736 7.905a2.498 2.498 0 0 0 .489 2.863c.151.16.328.288.526.402l9.572 5.616a2.598 2.598 0 0 0 3.364-.699l4.063-5.516a2.574 2.574 0 0 1 3.018-.854 45.118 45.118 0 0 0 13.867 3.272c1.125.081 2.054.859 2.29 1.929l2.646 10.948a2.482 2.482 0 0 0 2.724 1.87l11.083-1.439a2.513 2.513 0 0 0 2.204-2.613l-.518-12.223a2.56 2.56 0 0 1 1.51-2.458 43.455 43.455 0 0 0 6.022-3.368 44.714 44.714 0 0 0 3.042-2.204 2.59 2.59 0 0 1 2.688-.312l10.567 5.017a2.613 2.613 0 0 0 3.375-1.028zm-22.878-49.778c1.36 2.653 2.315 5.665 2.767 9.029.105.712.135 1.519.128 2.367-.075 3.652-1.173 8.073-2.787 10.814-12.379 20.949-41.938 15.233-45.837-8.445-.059-.39-.119-.779-.167-1.177-.476-3.699.695-9.395 2.554-12.621a30.14 30.14 0 0 1 3.236-4.569c11.749-13.512 32.346-10.507 40.106 4.602z" fill="url(#g)"/><ellipse rx="10" ry="10.5" transform="matrix(1 0 0 -1 258 237.5)" fill="#E1E4E5"/><circle r="10" transform="matrix(1 0 0 -1 184 375)" fill="#009688"/><ellipse rx="16" ry="15.5" transform="matrix(1 0 0 -1 687 297.5)" fill="#009688"/><circle r="18" transform="matrix(1 0 0 -1 486 218)" fill="url(#h)"/><circle cx="652.5" cy="152.5" r="7.5" fill="#F8AE9D"/><ellipse cx="336.5" cy="208" rx="7.5" ry="8" fill="#F8AE9D"/><ellipse cx="276" cy="160.5" rx="8" ry="7.5" fill="#E1E4E5"/><ellipse cx="613" cy="208" rx="7" ry="8" fill="#E1E4E5"/><circle cx="770.5" cy="427.5" r="7.5" fill="#E1E4E5"/><circle cx="336.5" cy="478.5" r="7.5" fill="#E1E4E5"/><circle cx="618.5" cy="463.5" r="7.5" fill="#E1E4E5"/><circle cx="656.5" cy="239.5" r="3.5" fill="#E1E4E5"/><ellipse cx="736.5" cy="356" rx="3.5" ry="3" fill="#E1E4E5"/><ellipse cx="315.5" cy="131" rx="3.5" ry="4" fill="#E1E4E5"/><circle cx="183.5" cy="327.5" r="3.5" fill="#E1E4E5"/><ellipse cx="609" cy="159.5" rx="3" ry="3.5" fill="#E1E4E5"/><circle cx="743.5" cy="474.5" r="3.5" fill="#E1E4E5"/><ellipse cx="663" cy="114.5" rx="3" ry="3.5" fill="#E1E4E5"/><ellipse cx="304.5" cy="216" rx="3.5" ry="3" fill="#E1E4E5"/><ellipse cx="187" cy="469.5" rx="4" ry="3.5" fill="#E1E4E5"/><ellipse cx="247" cy="344.5" rx="3" ry="3.5" fill="#E1E4E5"/><defs><linearGradient id="a" x1="242.239" y1="337.586" x2="179.167" y2="238.714" gradientUnits="userSpaceOnUse"><stop stop-color="#fff"/><stop offset="1" stop-color="#EEE"/></linearGradient><linearGradient id="b" x1="590.294" y1="147.955" x2="620.234" y2="101.021" gradientUnits="userSpaceOnUse"><stop stop-color="#fff"/><stop offset="1" stop-color="#EEE"/></linearGradient><linearGradient id="c" x1="321.978" y1="189.174" x2="360.388" y2="128.964" gradientUnits="userSpaceOnUse"><stop stop-color="#fff"/><stop offset="1" stop-color="#EEE"/></linearGradient><linearGradient id="d" x1="278.119" y1="290.494" x2="281.827" y2="600.201" gradientUnits="userSpaceOnUse"><stop stop-color="#fff"/><stop offset="1" stop-color="#EEE"/></linearGradient><linearGradient id="e" x1="328.211" y1="430.666" x2="324.502" y2="120.959" gradientUnits="userSpaceOnUse"><stop stop-color="#fff"/><stop offset="1" stop-color="#EEE"/></linearGradient><linearGradient id="f" x1="599.654" y1="423.308" x2="596.351" y2="147.868" gradientUnits="userSpaceOnUse"><stop stop-color="#fff"/><stop offset="1" stop-color="#EEE"/></linearGradient><linearGradient id="g" x1="685.528" y1="526.956" x2="681.819" y2="217.249" gradientUnits="userSpaceOnUse"><stop stop-color="#fff"/><stop offset="1" stop-color="#EEE"/></linearGradient><linearGradient id="h" x1="18.768" y1="56.184" x2="17.657" y2="-39.162" gradientUnits="userSpaceOnUse"><stop stop-color="#fff"/><stop offset="1" stop-color="#EEE"/></linearGradient></defs></svg>