<svg width="900" height="600" viewBox="0 0 900 600" fill="none" xmlns="http://www.w3.org/2000/svg"><path fill="transparent" d="M0 0h900v600H0z"/><path d="M558.715 452.201c-12.269 8.311-27.704 15.237-46.503 21.372l-31.266 10.29c-78.56 25.329-119.918 4.155-145.445-74.405l-25.329-78.165c-25.33-78.56-4.354-120.116 74.206-145.445l31.266-10.29c8.114-2.573 15.831-4.749 23.153-6.135-5.937 12.071-10.686 26.715-14.644 43.535l-19.392 82.914c-19.393 82.716 6.134 123.48 88.652 143.071l33.245 7.915c11.477 2.771 22.163 4.552 32.057 5.343z" fill="#E1E4E5"/><path d="m689.318 275.092-19.393 82.716c-16.622 71.436-49.471 100.328-111.211 94.391-9.894-.791-20.58-2.572-32.057-5.343l-33.245-7.915c-82.518-19.591-108.045-60.355-88.653-143.071l19.393-82.914c3.958-16.82 8.707-31.464 14.644-43.535 23.152-47.888 62.531-60.75 128.625-45.118l33.047 7.718c82.914 19.393 108.243 60.355 88.85 143.071z" fill="#009688" stroke="#009688" stroke-width="24" stroke-linecap="round" stroke-linejoin="round"/><path d="m476.652 302.441 96.913 20.284m-86.45-67.129 144.133 32.192m-132.162-85.791 144.133 32.193M465 359.64l57.952 12.218" stroke="#fff" stroke-width="24" stroke-linecap="round" stroke-linejoin="round"/><path d="M216 193.306v53.938c0 19.752 0 19.752 18.667 32.341L286 309.213c7.705 4.45 20.295 4.45 28 0l51.333-29.628C384 266.996 384 266.996 384 247.244v-53.938c0-19.752 0-19.752-18.667-32.341L314 131.337c-7.705-4.449-20.295-4.449-28 0l-51.333 29.628C216 173.554 216 173.554 216 193.306z" fill="#009688" stroke="#009688" stroke-width="24" stroke-linecap="round" stroke-linejoin="round"/><path d="m306.837 192.981 6.186 9.658c.976 1.52 3.147 3.039 4.775 3.473l11.07 2.822c6.837 1.736 8.682 7.597 4.232 13.023l-7.271 8.791c-1.085 1.411-1.954 3.907-1.845 5.643l.651 11.396c.434 7.054-4.558 10.635-11.07 8.031l-10.635-4.233c-1.628-.651-4.341-.651-5.969 0l-10.636 4.233c-6.512 2.604-11.504-1.085-11.07-8.031l.651-11.396c.109-1.736-.759-4.341-1.845-5.643l-7.271-8.791c-4.45-5.426-2.605-11.287 4.233-13.023l11.069-2.822c1.737-.434 3.907-2.062 4.776-3.473l6.186-9.658c3.907-5.861 9.984-5.861 13.783 0z" fill="#fff"/><path d="M669.984 489.911c-10.691 5.304-24.881-1.515-24.881-1.515s3.153-15.415 13.851-20.712c10.691-5.303 24.876 1.509 24.876 1.509s-3.154 15.415-13.846 20.718z" fill="url(#a)"/><path d="M195.381 340.012c12.309 7.377 29.969.558 29.969.558s-2.309-18.778-14.626-26.147c-12.309-7.377-29.961-.566-29.961-.566s2.309 18.778 14.618 26.155z" fill="url(#b)"/><circle cx="404.237" cy="111.238" r="10.238" transform="rotate(180 404.237 111.238)" fill="#009688"/><circle cx="339.255" cy="525.254" r="19.254" transform="rotate(180 339.255 525.254)" fill="#009688"/><circle r="15.284" transform="matrix(-1 0 0 1 574.284 516.284)" fill="#009688"/><circle r="10.233" transform="matrix(-1 0 0 1 237.233 368.233)" fill="#009688"/><circle r="12.207" transform="matrix(-1 0 0 1 201.208 433.207)" fill="#E1E4E5"/><circle r="14.463" transform="matrix(-1 0 0 1 692.463 125.464)" fill="#E1E4E5"/><circle r="18.18" transform="matrix(-1 0 0 1 577.18 73.18)" fill="#E1E4E5"/><circle r="14.44" transform="scale(1 -1) rotate(-75 64.25 -206.086)" fill="#E1E4E5"/><circle r="9.882" transform="matrix(-1 0 0 1 716.882 373.882)" fill="#E1E4E5"/><ellipse rx="14.777" ry="11.821" transform="matrix(-1 0 0 1 278.777 455.821)" fill="#E1E4E5"/><defs><linearGradient id="a" x1="628.928" y1="506.455" x2="717.112" y2="436.701" gradientUnits="userSpaceOnUse"><stop stop-color="#fff"/><stop offset="1" stop-color="#EEE"/></linearGradient><linearGradient id="b" x1="243.014" y1="363.759" x2="143.972" y2="271.736" gradientUnits="userSpaceOnUse"><stop stop-color="#fff"/><stop offset="1" stop-color="#EEE"/></linearGradient></defs></svg>