<svg width="900" height="600" viewBox="0 0 900 600" fill="none" xmlns="http://www.w3.org/2000/svg"><path fill="transparent" d="M0 0h900v600H0z"/><path d="M467.113 538.181h-23.745c-.756 0-1.368-5.156-1.368-11.514V401.402c0-6.358.612-11.514 1.368-11.514h23.745c.756 0 1.368 5.156 1.368 11.514v125.265c0 6.358-.612 11.514-1.368 11.514z" fill="#fff" stroke="#E1E4E5" stroke-width="11"/><path d="M691.756 443.476H219.215c-15.028 0-27.215-12.153-27.215-27.14V121.068c0-14.987 12.187-27.14 27.215-27.14h472.541c15.028 0 27.215 12.153 27.215 27.14v295.268c0 14.987-12.187 27.14-27.215 27.14z" fill="#fff" stroke="#E1E4E5" stroke-width="11"/><rect x="248.32" y="152.178" width="210.355" height="188.669" rx="10" fill="#009688"/><rect x="278.68" y="244.344" width="41.203" height="49.878" rx="20.602" fill="#fff"/><rect x="333" y="194.757" width="41" height="99" rx="20.5" fill="#fff"/><rect x="386" y="221.757" width="41" height="72" rx="20.5" fill="#fff"/><path d="m529.154 171.695-18.974 19.518-9.218-9.463m68.311-18.729h55.3m-55.3 27.65h92.166m-132.285 46.083-18.974 18.433-9.218-8.937m68.311-19.255h55.3m-55.3 27.649h92.166m0 63.974h-92.166m92.166 71.565H248.32m413.119-98.672h-92.166m92.166 71.564H248.32" stroke="#E1E4E5" stroke-width="11" stroke-linecap="round" stroke-linejoin="round"/><path clip-rule="evenodd" d="M515.058 327.835c10.18 0 18.433-8.253 18.433-18.433s-8.253-18.433-18.433-18.433-18.433 8.253-18.433 18.433 8.253 18.433 18.433 18.433z" stroke="#E1E4E5" stroke-width="11" stroke-linecap="round" stroke-linejoin="round"/><path d="M514.056 548.774H397.701c-3.7 0-6.701-1.289-6.701-2.879v-31.316c0-1.59 3.001-2.879 6.701-2.879h116.355c3.7 0 6.701 1.289 6.701 2.879v31.316c0 1.59-3.001 2.879-6.701 2.879z" fill="#fff" stroke="#E1E4E5" stroke-width="11"/><path d="M795.751 267.179c-15.372 7.625-35.775-2.179-35.775-2.179s4.534-22.164 19.915-29.779c15.372-7.625 35.766 2.169 35.766 2.169s-4.534 22.164-19.906 29.789z" fill="url(#a)"/><path d="M114.813 426.691c21.769 13.047 53 .986 53 .986s-4.084-33.209-25.866-46.241c-21.768-13.047-52.986-1.001-52.986-1.001s4.084 33.209 25.852 46.256z" fill="url(#b)"/><circle cx="670.29" cy="133.921" r="18.609" transform="rotate(180 670.29 133.921)" fill="#009688"/><circle cx="143.281" cy="240.447" r="15.319" transform="rotate(180 143.281 240.447)" fill="#009688"/><circle r="8.142" transform="matrix(-1 0 0 1 771.828 340.111)" fill="#009688"/><circle r="15.12" transform="matrix(-1 0 0 1 171.274 489.638)" fill="#E1E4E5"/><circle r="11.508" transform="matrix(-1 0 0 1 580.508 487.819)" fill="#E1E4E5"/><circle r="12.794" transform="matrix(-1 0 0 1 761.186 117.969)" fill="#E1E4E5"/><circle r="11.489" transform="scale(1 -1) rotate(-75 -139.162 -214.885)" fill="#E1E4E5"/><circle r="4.782" transform="matrix(-1 0 0 1 205.115 68.163)" fill="#E1E4E5"/><circle r="8.317" transform="scale(1 -1) rotate(-75 231.468 -385.557)" fill="#E1E4E5"/><path fill-rule="evenodd" clip-rule="evenodd" d="m640.687 498.937-23.237-74.589c-2.45-7.868 5.566-14.919 13.005-11.433l69.3 32.508c8.212 3.851 6.831 15.993-2.039 17.874l-28.529 6.066-10.585 29.909c-3.048 8.587-15.2 8.351-17.915-.335z" fill="#fff" stroke="#E1E4E5" stroke-width="11" stroke-linecap="round" stroke-linejoin="round"/><defs><linearGradient id="a" x1="736.72" y1="290.965" x2="863.51" y2="190.674" gradientUnits="userSpaceOnUse"><stop stop-color="#fff"/><stop offset="1" stop-color="#EEE"/></linearGradient><linearGradient id="b" x1="199.052" y1="468.688" x2="23.894" y2="305.943" gradientUnits="userSpaceOnUse"><stop stop-color="#fff"/><stop offset="1" stop-color="#EEE"/></linearGradient></defs></svg>