<svg width="900" height="600" viewBox="0 0 900 600" fill="none" xmlns="http://www.w3.org/2000/svg"><path fill="transparent" d="M0 0h900v600H0z"/><path fill-rule="evenodd" clip-rule="evenodd" d="M91.066 515.923c-11.072 0-20.037-8.995-20-20.066l.242-74.167c.01-3.299.837-6.544 2.406-9.446L181.509 212.83c6.129-11.337 21.222-14.004 30.864-5.453l105.995 93.997a20 20 0 0 0 20.651 3.625l100.922-40.071a20.003 20.003 0 0 1 13.732-.377l73.268 24.539a19.998 19.998 0 0 0 10.145.672l62.921-12.155a20.003 20.003 0 0 0 15.898-16.138l10.207-57.433a20.002 20.002 0 0 1 15.712-16.101l90.41-18.358c12.392-2.516 23.98 6.955 23.98 19.6v306.746c0 11.045-8.955 20-20 20H91.065z" fill="#fff" stroke="#E1E4E5" stroke-width="4" stroke-linecap="round" stroke-linejoin="round"/><path fill-rule="evenodd" clip-rule="evenodd" d="M151.5 472.969h2.989c.722 0 1.304.588 1.304 1.304v2.989c0 .723-.588 1.304-1.304 1.304H151.5a1.31 1.31 0 0 1-1.305-1.304v-2.989a1.302 1.302 0 0 1 1.305-1.304zm10.361 0h2.989a1.31 1.31 0 0 1 1.305 1.304v2.989c0 .723-.588 1.304-1.305 1.304h-2.989a1.31 1.31 0 0 1-1.304-1.304v-2.989a1.31 1.31 0 0 1 1.304-1.304zm10.369 0h2.989c.717 0 1.304.588 1.304 1.304v2.989c0 .723-.587 1.304-1.304 1.304h-2.989a1.31 1.31 0 0 1-1.304-1.304v-2.989a1.302 1.302 0 0 1 1.304-1.304zm10.362 0h2.988a1.31 1.31 0 0 1 1.305 1.304v2.989c0 .723-.588 1.304-1.305 1.304h-2.988a1.31 1.31 0 0 1-1.311-1.304v-2.989a1.319 1.319 0 0 1 1.311-1.304zm10.362 0h2.989a1.31 1.31 0 0 1 1.311 1.304v2.989c0 .723-.588 1.304-1.311 1.304h-2.989a1.31 1.31 0 0 1-1.304-1.304v-2.989a1.31 1.31 0 0 1 1.304-1.304zm-30.712 11.299h2.988a1.31 1.31 0 0 1 1.305 1.304v2.995a1.31 1.31 0 0 1-1.305 1.305h-2.988a1.306 1.306 0 0 1-1.305-1.305v-2.988a1.303 1.303 0 0 1 1.305-1.311zm10.361 0h2.989c.717 0 1.304.588 1.304 1.304v2.995c0 .717-.587 1.305-1.304 1.305h-2.989a1.31 1.31 0 0 1-1.304-1.305v-2.988a1.303 1.303 0 0 1 1.304-1.311zm10.363 0h2.989c.722 0 1.31.588 1.31 1.304v2.995a1.31 1.31 0 0 1-1.31 1.305h-2.989a1.31 1.31 0 0 1-1.305-1.305v-2.988c0-.723.588-1.311 1.305-1.311zM172.23 460.83h2.989c.717 0 1.304.588 1.304 1.305v2.988c0 .723-.587 1.305-1.304 1.305h-2.989a1.31 1.31 0 0 1-1.304-1.305v-2.988a1.302 1.302 0 0 1 1.304-1.305zm-10.358 0h2.988a1.31 1.31 0 0 1 1.305 1.305v2.988c0 .723-.588 1.305-1.305 1.305h-2.988a1.31 1.31 0 0 1-1.305-1.305v-2.988a1.302 1.302 0 0 1 1.305-1.305zm20.72 0h2.988a1.31 1.31 0 0 1 1.305 1.305v2.988c0 .723-.588 1.305-1.305 1.305h-2.988a1.311 1.311 0 0 1-1.311-1.305v-2.988a1.319 1.319 0 0 1 1.311-1.305zm43.513 12.139h2.988c.723 0 1.305.588 1.305 1.304v2.989c0 .723-.588 1.304-1.305 1.304h-2.988a1.31 1.31 0 0 1-1.305-1.304v-2.989a1.302 1.302 0 0 1 1.305-1.304zm10.361 0h2.989a1.31 1.31 0 0 1 1.304 1.304v2.989c0 .723-.588 1.304-1.304 1.304h-2.989a1.31 1.31 0 0 1-1.304-1.304v-2.989a1.31 1.31 0 0 1 1.304-1.304zm10.369 0h2.989a1.31 1.31 0 0 1 1.304 1.304v2.989c0 .723-.588 1.304-1.304 1.304h-2.989a1.31 1.31 0 0 1-1.304-1.304v-2.989a1.301 1.301 0 0 1 1.304-1.304zm10.361 0h2.989a1.31 1.31 0 0 1 1.305 1.304v2.989c0 .723-.588 1.304-1.305 1.304h-2.989a1.31 1.31 0 0 1-1.31-1.304v-2.989a1.318 1.318 0 0 1 1.31-1.304zm10.363 0h2.989c.722 0 1.31.588 1.31 1.304v2.989c0 .723-.588 1.304-1.31 1.304h-2.989a1.31 1.31 0 0 1-1.304-1.304v-2.989a1.31 1.31 0 0 1 1.304-1.304zm-30.713 11.299h2.989a1.31 1.31 0 0 1 1.304 1.304v2.995a1.31 1.31 0 0 1-1.304 1.305h-2.989a1.306 1.306 0 0 1-1.304-1.305v-2.988a1.303 1.303 0 0 1 1.304-1.311zm10.362 0h2.989a1.31 1.31 0 0 1 1.304 1.304v2.995a1.31 1.31 0 0 1-1.304 1.305h-2.989a1.31 1.31 0 0 1-1.304-1.305v-2.988a1.303 1.303 0 0 1 1.304-1.311zm10.363 0h2.988a1.31 1.31 0 0 1 1.311 1.304v2.995c0 .717-.588 1.305-1.311 1.305h-2.988a1.31 1.31 0 0 1-1.305-1.305v-2.988c0-.723.588-1.311 1.305-1.311zm-10.736-23.438h2.989a1.31 1.31 0 0 1 1.304 1.305v2.988c0 .723-.588 1.305-1.304 1.305h-2.989a1.31 1.31 0 0 1-1.304-1.305v-2.988a1.301 1.301 0 0 1 1.304-1.305zm-10.359 0h2.989a1.31 1.31 0 0 1 1.305 1.305v2.988c0 .723-.588 1.305-1.305 1.305h-2.989a1.31 1.31 0 0 1-1.304-1.305v-2.988a1.302 1.302 0 0 1 1.304-1.305zm20.72 0h2.989a1.31 1.31 0 0 1 1.305 1.305v2.988c0 .723-.588 1.305-1.305 1.305h-2.989a1.31 1.31 0 0 1-1.31-1.305v-2.988a1.319 1.319 0 0 1 1.31-1.305zm43.513 12.139h2.989c.722 0 1.304.588 1.304 1.304v2.989c0 .723-.588 1.304-1.304 1.304h-2.989a1.31 1.31 0 0 1-1.304-1.304v-2.989a1.301 1.301 0 0 1 1.304-1.304zm10.362 0h2.988a1.31 1.31 0 0 1 1.305 1.304v2.989c0 .723-.588 1.304-1.305 1.304h-2.988a1.31 1.31 0 0 1-1.305-1.304v-2.989a1.31 1.31 0 0 1 1.305-1.304zm10.369 0h2.988a1.31 1.31 0 0 1 1.305 1.304v2.989c0 .723-.588 1.304-1.305 1.304h-2.988a1.31 1.31 0 0 1-1.305-1.304v-2.989a1.302 1.302 0 0 1 1.305-1.304zm10.361 0h2.989a1.31 1.31 0 0 1 1.304 1.304v2.989c0 .723-.588 1.304-1.304 1.304h-2.989a1.31 1.31 0 0 1-1.311-1.304v-2.989a1.319 1.319 0 0 1 1.311-1.304zm10.363 0h2.988a1.31 1.31 0 0 1 1.311 1.304v2.989c0 .723-.588 1.304-1.311 1.304h-2.988a1.31 1.31 0 0 1-1.305-1.304v-2.989a1.31 1.31 0 0 1 1.305-1.304zm-30.713 11.299h2.988a1.31 1.31 0 0 1 1.305 1.304v2.995a1.31 1.31 0 0 1-1.305 1.305h-2.988a1.306 1.306 0 0 1-1.305-1.305v-2.988a1.303 1.303 0 0 1 1.305-1.311zm10.362 0h2.988a1.31 1.31 0 0 1 1.305 1.304v2.995a1.31 1.31 0 0 1-1.305 1.305h-2.988a1.31 1.31 0 0 1-1.305-1.305v-2.988a1.303 1.303 0 0 1 1.305-1.311zm10.362 0h2.989c.722 0 1.31.588 1.31 1.304v2.995a1.31 1.31 0 0 1-1.31 1.305h-2.989a1.31 1.31 0 0 1-1.304-1.305v-2.988a1.31 1.31 0 0 1 1.304-1.311zM321.44 460.83h2.988a1.31 1.31 0 0 1 1.305 1.305v2.988c0 .723-.588 1.305-1.305 1.305h-2.988a1.31 1.31 0 0 1-1.305-1.305v-2.988a1.302 1.302 0 0 1 1.305-1.305zm-10.359 0h2.989a1.31 1.31 0 0 1 1.304 1.305v2.988c0 .723-.588 1.305-1.304 1.305h-2.989a1.31 1.31 0 0 1-1.305-1.305v-2.988a1.302 1.302 0 0 1 1.305-1.305zm20.72 0h2.989a1.31 1.31 0 0 1 1.304 1.305v2.988c0 .723-.588 1.305-1.304 1.305h-2.989a1.311 1.311 0 0 1-1.311-1.305v-2.988a1.319 1.319 0 0 1 1.311-1.305zm43.513 12.139h2.988c.723 0 1.305.588 1.305 1.304v2.989c0 .723-.588 1.304-1.305 1.304h-2.988a1.31 1.31 0 0 1-1.305-1.304v-2.989a1.302 1.302 0 0 1 1.305-1.304zm10.361 0h2.989a1.31 1.31 0 0 1 1.304 1.304v2.989c0 .723-.588 1.304-1.304 1.304h-2.989a1.31 1.31 0 0 1-1.304-1.304v-2.989a1.31 1.31 0 0 1 1.304-1.304zm10.369 0h2.989a1.31 1.31 0 0 1 1.304 1.304v2.989c0 .723-.588 1.304-1.304 1.304h-2.989a1.31 1.31 0 0 1-1.304-1.304v-2.989a1.3 1.3 0 0 1 1.304-1.304zm10.361 0h2.989c.717 0 1.304.588 1.304 1.304v2.989c0 .723-.587 1.304-1.304 1.304h-2.989a1.31 1.31 0 0 1-1.31-1.304v-2.989a1.318 1.318 0 0 1 1.31-1.304zm10.363 0h2.989c.722 0 1.31.588 1.31 1.304v2.989c0 .723-.588 1.304-1.31 1.304h-2.989a1.31 1.31 0 0 1-1.304-1.304v-2.989a1.31 1.31 0 0 1 1.304-1.304zm-30.713 11.299h2.989a1.31 1.31 0 0 1 1.304 1.304v2.995a1.31 1.31 0 0 1-1.304 1.305h-2.989a1.306 1.306 0 0 1-1.304-1.305v-2.988a1.303 1.303 0 0 1 1.304-1.311zm10.362 0h2.989a1.31 1.31 0 0 1 1.304 1.304v2.995a1.31 1.31 0 0 1-1.304 1.305h-2.989a1.31 1.31 0 0 1-1.304-1.305v-2.988a1.303 1.303 0 0 1 1.304-1.311zm10.363 0h2.988a1.31 1.31 0 0 1 1.311 1.304v2.995c0 .717-.588 1.305-1.311 1.305h-2.988a1.31 1.31 0 0 1-1.305-1.305v-2.988c0-.723.588-1.311 1.305-1.311zm-10.736-23.438h2.989a1.31 1.31 0 0 1 1.304 1.305v2.988c0 .723-.588 1.305-1.304 1.305h-2.989a1.31 1.31 0 0 1-1.304-1.305v-2.988a1.3 1.3 0 0 1 1.304-1.305zm-10.359 0h2.989a1.31 1.31 0 0 1 1.305 1.305v2.988c0 .723-.588 1.305-1.305 1.305h-2.989a1.31 1.31 0 0 1-1.304-1.305v-2.988a1.302 1.302 0 0 1 1.304-1.305zm20.72 0h2.989c.717 0 1.304.588 1.304 1.305v2.988c0 .723-.587 1.305-1.304 1.305h-2.989a1.31 1.31 0 0 1-1.31-1.305v-2.988a1.319 1.319 0 0 1 1.31-1.305zm43.513 12.139h2.989c.722 0 1.304.588 1.304 1.304v2.989c0 .723-.588 1.304-1.304 1.304h-2.989a1.31 1.31 0 0 1-1.304-1.304v-2.989a1.301 1.301 0 0 1 1.304-1.304zm10.362 0h2.988a1.31 1.31 0 0 1 1.305 1.304v2.989c0 .723-.588 1.304-1.305 1.304h-2.988a1.31 1.31 0 0 1-1.305-1.304v-2.989a1.31 1.31 0 0 1 1.305-1.304zm10.369 0h2.988a1.31 1.31 0 0 1 1.305 1.304v2.989c0 .723-.588 1.304-1.305 1.304h-2.988a1.31 1.31 0 0 1-1.305-1.304v-2.989a1.302 1.302 0 0 1 1.305-1.304zm10.361 0h2.989a1.31 1.31 0 0 1 1.304 1.304v2.989c0 .723-.588 1.304-1.304 1.304h-2.989a1.31 1.31 0 0 1-1.311-1.304v-2.989a1.319 1.319 0 0 1 1.311-1.304zm10.363 0h2.988a1.31 1.31 0 0 1 1.311 1.304v2.989c0 .723-.588 1.304-1.311 1.304h-2.988a1.31 1.31 0 0 1-1.305-1.304v-2.989a1.31 1.31 0 0 1 1.305-1.304zm-30.713 11.299h2.988a1.31 1.31 0 0 1 1.305 1.304v2.995a1.31 1.31 0 0 1-1.305 1.305h-2.988a1.306 1.306 0 0 1-1.305-1.305v-2.988a1.303 1.303 0 0 1 1.305-1.311zm10.362 0h2.988a1.31 1.31 0 0 1 1.305 1.304v2.995a1.31 1.31 0 0 1-1.305 1.305h-2.988a1.31 1.31 0 0 1-1.305-1.305v-2.988a1.303 1.303 0 0 1 1.305-1.311zm10.362 0h2.989c.722 0 1.31.588 1.31 1.304v2.995a1.31 1.31 0 0 1-1.31 1.305h-2.989a1.31 1.31 0 0 1-1.304-1.305v-2.988a1.31 1.31 0 0 1 1.304-1.311zm-10.735-23.438h2.988a1.31 1.31 0 0 1 1.305 1.305v2.988c0 .723-.588 1.305-1.305 1.305h-2.988a1.31 1.31 0 0 1-1.305-1.305v-2.988a1.302 1.302 0 0 1 1.305-1.305zm-10.359 0h2.989a1.31 1.31 0 0 1 1.304 1.305v2.988c0 .723-.588 1.305-1.304 1.305h-2.989a1.31 1.31 0 0 1-1.305-1.305v-2.988a1.302 1.302 0 0 1 1.305-1.305zm20.72 0h2.989a1.31 1.31 0 0 1 1.304 1.305v2.988c0 .723-.588 1.305-1.304 1.305h-2.989a1.311 1.311 0 0 1-1.311-1.305v-2.988a1.319 1.319 0 0 1 1.311-1.305z" fill="#E1E4E5"/><path d="M693.521 319.351s-23.381 15.3-43.15 13.733c-19.768-1.567-32.101-21.208-38.72-28.339-6.614-7.13-23.287-24.359-18.285-31.584 5.002-7.225 9.448.556 11.115 5.558 1.668 5.001.028-4.969 2.518-4.43 2.484.539 1.495 6.592 3.935 8.57 2.44 1.973 38.565 20.869 46.346 19.758 7.78-1.112 11.187-3.246 13.377-5.514 2.184-2.273 25.76 17.307 22.864 22.248z" fill="#F8AE9D"/><path d="m617.07 505.456-.061 10.476-23.937 12.899v5.641h47.874v-9.67l2.506-19.346H617.07z" fill="#E1E4E5"/><path d="M737.149 377.657s-66.086-22.586-96.609-18.913c-30.062 6.114-30.29 42.372-30.179 63.703.112 21.33 3.652 83.021 3.652 83.021h33.602s12.021-55.483 16.034-81.654c0 0 1.65-11.716 10.493-7.27 36.202 18.207 58.944 10.004 63.074-7.225 4.129-17.228-.067-31.662-.067-31.662z" fill="#133835"/><path d="M709.828 280.97s-21.625 10.643-39.21 13.305c-18.34 2.779 7.225 26.677 27.233 26.677 20.008 0 11.977-39.982 11.977-39.982z" fill="#009688"/><path d="m799.068 518.327 12.827.061 11.966 16.118h5.985v-45.14h-10.259l-20.519 4.091v24.87z" fill="#E1E4E5"/><path d="M799.106 519.361v-27.788c-27.116-2.779-37.72-3.107-66.198-3.24-20.452-.095-9.842-5.652-9.842-5.652 22.397-15.562 45.39-53.354 45.39-53.354 13.555-21.12 5.896-53.91 5.896-53.91s-24.759 7.225-45.979 6.113c0 0-22.986 28.345-63.074 90.591-16.017 24.871-14.183 52.153 15.901 53.587 0 0 72.517.878 117.906-6.347z" fill="#133835"/><path d="M717.525 277.98s-19.118 3.512-21.458 28.266c-1.745 18.474-.306 43.528-.306 51.587 0 8.058-4.107 7.38 1.534 9.798 5.641 2.417 35.569 26.677 76.652 7.936 0 0 6.413-37.136 4.49-59.623-1.211-14.144-5.002-37.236-29.478-39.22l-31.434 1.256z" fill="#009688"/><path d="m723.261 239.443-10.51-.245s-8.681 38.015 12.816 33.691l-.406 4.013s-6.574.961-9.064 1.517c0 0 7.458 6.419 16.439 5.702 8.982-.717 15.245-6.569 15.245-6.569l-4.413-.445-1.634-15.961s5.136-2.724 5.458-5.931c.322-3.206-.4-4.09-2.723-5.135s-5.936 2.646-5.936 2.646-3.284-7.62-3.601-12.516l-11.671-.767z" fill="#F8AE9D"/><path d="M622.267 259.817 781.65 390.901c5.308 4.357 6.125 12.171 1.834 17.534-4.324 5.403-12.205 6.286-17.618 1.973l-161.94-129.472 18.341-21.119z" fill="#133835"/><path d="M563.355 140.604c44.356 0 80.309 35.953 80.309 80.309 0 44.356-35.953 80.309-80.309 80.309-44.356 0-80.309-35.953-80.309-80.309 0-44.356 35.953-80.309 80.309-80.309zm0 137.087c31.356 0 56.777-25.421 56.777-56.778 0-31.356-25.421-56.777-56.777-56.777-31.357 0-56.778 25.421-56.778 56.777 0 31.357 25.421 56.778 56.778 56.778z" fill="#E1E4E5"/><path d="M756.324 365.48s-23.382 15.3-43.15 13.733c-19.769-1.568-32.102-21.209-38.721-28.339-6.614-7.131-23.287-24.359-18.285-31.584 5.002-7.225 9.448.555 11.116 5.557 1.667 5.002.028-4.968 2.517-4.429 2.485.539 1.495 6.591 3.935 8.57 2.44 1.973 38.565 20.869 46.346 19.757 7.781-1.111 11.187-3.245 13.377-5.513 2.184-2.273 25.76 17.307 22.865 22.248z" fill="#F8AE9D"/><path d="M776.748 304.067s1.134 35.781-7.203 50.787c-8.336 15.005-8.931 15.494-16.695 7.469-7.759-8.025-21.653-16.139-19.708-22.642 1.945-6.502 5.941-17.723 7.503-27.622 1.667-10.559 5.558-32.234 13.894-35.013 0 0 19.964 7.364 22.209 27.021z" fill="#009688"/><path d="M746.555 260.918c-1.717 2.741-5.832 2.728-5.109-.425.822-3.583 1.333-8.333-1.722-7.772-3.055.561-3.463 2.909-4.528 1.398-1.065-1.51-.454-7.329-9.221-8.697-8.768-1.362-12.68 1.307-16.577-.937-2.336-1.343-3.11-4.106-3.355-6.107-.07-.568.416-1.299.739-.827.306.446 1.189.516.99.013-1.232-3.107-2.852-9.767 3.58-13.898 8.611-5.531 16.222-.469 20.771.304 10.025 1.706 16.476 3.018 19.05 9.989 2.134 5.783.191 19.285-4.618 26.959z" fill="#133835"/><rect x="71" y="185.367" width="206.167" height="250.837" rx="20" fill="#fff" stroke="#E1E4E5" stroke-width="4" stroke-linecap="round" stroke-linejoin="round"/><mask id="a" mask-type="alpha" maskUnits="userSpaceOnUse" x="69" y="183" width="211" height="256"><path fill="#fff" stroke="#fff" stroke-width="4" stroke-linecap="round" stroke-linejoin="round" d="M71 185.367h206.167v250.837H71z"/></mask><g mask="url(#a)"><rect x="107.729" y="367.861" width="133.14" height="14.921" rx="7.46" fill="#fff" stroke="#E1E4E5" stroke-width="4" stroke-linecap="round" stroke-linejoin="round"/><rect x="107.729" y="336.872" width="133.14" height="17.216" rx="8.608" fill="#fff" stroke="#E1E4E5" stroke-width="4" stroke-linecap="round" stroke-linejoin="round"/><rect x="107.729" y="396.555" width="133.14" height="17.216" rx="8.608" fill="#fff" stroke="#E1E4E5" stroke-width="4" stroke-linecap="round" stroke-linejoin="round"/><rect x="90.512" y="202.584" width="48.206" height="12.625" rx="6.313" fill="#fff" stroke="#E1E4E5" stroke-width="4" stroke-linecap="round" stroke-linejoin="round"/><path fill-rule="evenodd" clip-rule="evenodd" d="M174.221 228.982c23.798 0 43.089 19.292 43.089 43.089 0 23.798-19.291 43.089-43.089 43.089-23.797 0-43.089-19.291-43.089-43.089 0-23.797 19.292-43.089 43.089-43.089zm.292 23.194c-11.149 0-20.187 9.038-20.187 20.187 0 11.149 9.038 20.187 20.187 20.187 11.149 0 20.187-9.038 20.187-20.187 0-11.149-9.038-20.187-20.187-20.187z" fill="#009688"/></g><path d="m233.127 97.937-10.844 10.834-5.269-5.253m39.61-10.765h32.051m-31.801 15.901h53.003m-.001 37.102h-53.252m53.253-15.901h-53.003" stroke="#E1E4E5" stroke-width="5.5" stroke-linecap="round" stroke-linejoin="round"/><path clip-rule="evenodd" d="M225.071 151.056c5.854 0 10.6-4.746 10.6-10.6 0-5.855-4.746-10.601-10.6-10.601-5.855 0-10.601 4.746-10.601 10.601 0 5.854 4.746 10.6 10.601 10.6z" stroke="#E1E4E5" stroke-width="5.5" stroke-linecap="round" stroke-linejoin="round"/><path d="m362.824 97.937-10.844 10.834-5.269-5.253m39.61-10.765h32.051m-31.801 15.901h53.003m-.001 37.102h-53.252m53.253-15.901h-53.003" stroke="#E1E4E5" stroke-width="5.5" stroke-linecap="round" stroke-linejoin="round"/><path clip-rule="evenodd" d="M354.768 151.056c5.854 0 10.6-4.746 10.6-10.6 0-5.855-4.746-10.601-10.6-10.601-5.855 0-10.601 4.746-10.601 10.601 0 5.854 4.746 10.6 10.601 10.6z" stroke="#E1E4E5" stroke-width="5.5" stroke-linecap="round" stroke-linejoin="round"/><path d="m362.824 193.201-10.844 10.834-5.269-5.252m39.61-10.766h32.051m-31.801 15.901h53.003m-.001 37.102h-53.252m53.253-15.901h-53.003" stroke="#E1E4E5" stroke-width="5.5" stroke-linecap="round" stroke-linejoin="round"/><path clip-rule="evenodd" d="M354.768 246.321c5.854 0 10.6-4.746 10.6-10.601s-4.746-10.601-10.6-10.601c-5.855 0-10.601 4.746-10.601 10.601s4.746 10.601 10.601 10.601z" stroke="#E1E4E5" stroke-width="5.5" stroke-linecap="round" stroke-linejoin="round"/><path d="m89.657 97.937-10.844 10.834-5.269-5.253m39.61-10.765h32.051m-31.802 15.901h53.003m0 37.102h-53.252m53.252-15.901h-53.003" stroke="#E1E4E5" stroke-width="5.5" stroke-linecap="round" stroke-linejoin="round"/><path clip-rule="evenodd" d="M81.6 151.056c5.855 0 10.601-4.746 10.601-10.6 0-5.855-4.746-10.601-10.6-10.601-5.855 0-10.601 4.746-10.601 10.601 0 5.854 4.746 10.6 10.6 10.6z" stroke="#E1E4E5" stroke-width="5.5" stroke-linecap="round" stroke-linejoin="round"/><path d="M602.5 137.66a30 30 0 0 1 30 0l17.198 9.93a30 30 0 0 1 15 25.981v19.858a30 30 0 0 1-15 25.981l-17.198 9.93a30 30 0 0 1-30 0l-17.198-9.93a30 30 0 0 1-15-25.981v-19.858a30 30 0 0 1 15-25.981l17.198-9.93z" fill="#009688"/><path d="m634.357 173.319-19.894 19.734-11.936-11.84" stroke="#fff" stroke-width="8.45" stroke-linecap="round" stroke-linejoin="round"/><circle cx="701.819" cy="126.382" r="14.472" transform="rotate(180 701.819 126.382)" fill="#009688"/><circle cx="315.332" cy="254.092" r="7.894" transform="rotate(180 315.332 254.092)" fill="#009688"/><circle r="22.354" transform="matrix(-1 0 0 1 433.091 340.861)" fill="#009688"/><circle r="10.432" transform="matrix(-1 0 0 1 766.749 354.46)" fill="#009688"/><circle r="13.412" transform="matrix(-1 0 0 1 340.363 392.751)" fill="#E1E4E5"/><circle r="19.373" transform="matrix(-1 0 0 1 554.069 451.509)" fill="#E1E4E5"/><circle r="14.745" transform="matrix(-1 0 0 1 487.461 390.64)" fill="#E1E4E5"/><ellipse rx="7.894" ry="8.552" transform="matrix(-1 0 0 1 789.358 201.953)" fill="#E1E4E5"/><circle r="6.127" transform="matrix(-1 0 0 1 303.236 185.755)" fill="#E1E4E5"/><ellipse rx="10.904" ry="8.608" transform="matrix(-1 0 0 1 800.402 445.335)" fill="#E1E4E5"/><circle r="10.656" transform="scale(1 -1) rotate(-75 220.641 -394.201)" fill="#E1E4E5"/></svg>