<svg width="900" height="600" viewBox="0 0 900 600" fill="none" xmlns="http://www.w3.org/2000/svg"><path fill="transparent" d="M0 0h900v600H0z"/><path fill-rule="evenodd" clip-rule="evenodd" d="M599.909 127.298c83.84 83.84 83.84 219.772 0 303.612-83.841 83.84-219.773 83.84-303.613 0-83.84-83.841-83.84-219.773 0-303.612 83.841-83.84 219.773-83.84 303.613 0z" fill="#009688"/><path fill-rule="evenodd" clip-rule="evenodd" d="M481.624 217.3c29.262 0 48.883 27.464 48.883 53.04 0 51.915-81.463 94.421-82.947 94.421-1.484 0-82.947-42.506-82.947-94.421 0-25.576 19.622-53.04 48.884-53.04 16.727 0 27.713 8.341 34.063 15.769 6.35-7.428 17.336-15.769 34.064-15.769z" fill="#fff"/><path fill-rule="evenodd" clip-rule="evenodd" d="m176.088 181.255 18.287 9.583c3.562 1.867 7.725-1.148 7.043-5.106l-3.491-20.312 14.797-14.374c2.88-2.802 1.293-7.685-2.686-8.263l-20.446-2.964-9.139-18.485c-1.78-3.604-6.92-3.604-8.701 0l-9.139 18.485-20.455 2.974c-3.979.579-5.567 5.461-2.687 8.263l14.797 14.374-3.49 20.312c-.682 3.959 3.48 6.973 7.042 5.106l18.288-9.583h-.02v-.01zm548.643 189.748 18.288 9.583c3.561 1.867 7.724-1.147 7.042-5.106l-3.491-20.312 14.797-14.374c2.88-2.802 1.293-7.685-2.686-8.263l-20.446-2.964-9.138-18.485c-1.781-3.604-6.921-3.604-8.702 0l-9.139 18.485-20.455 2.974c-3.979.579-5.567 5.461-2.687 8.263l14.797 14.374-3.49 20.312c-.682 3.959 3.48 6.974 7.042 5.106l18.288-9.583h-.02v-.01z" fill="#009688"/><path fill-rule="evenodd" clip-rule="evenodd" d="M354.189 323.775c2.814 2.154 3.384 6.227 1.274 9.098l-19.105 25.994c-2.028 2.759-5.815 3.421-8.628 1.507l-13.806-9.392-9.205 14.089c-1.951 2.986-5.905 3.793-8.831 1.802-2.927-1.991-3.717-6.026-1.766-9.012l12.736-19.495c1.951-2.986 5.905-3.793 8.832-1.802l14.093 9.587 15.49-21.076c2.111-2.871 6.103-3.453 8.916-1.3zm144.209 88.911c2.814 2.153 3.384 6.226 1.274 9.098l-19.106 25.993c-2.028 2.759-5.815 3.421-8.627 1.508l-13.807-9.392-9.204 14.088c-1.951 2.986-5.905 3.793-8.832 1.803-2.926-1.991-3.717-6.026-1.766-9.012l12.737-19.495c1.951-2.987 5.905-3.793 8.831-1.803l14.093 9.587 15.491-21.076c2.11-2.871 6.102-3.453 8.916-1.299zm122.523-104.091c2.814 2.153 3.384 6.227 1.274 9.098l-19.105 25.993c-2.028 2.759-5.816 3.421-8.628 1.508l-13.806-9.392-9.205 14.088c-1.951 2.987-5.905 3.794-8.831 1.803-2.927-1.991-3.718-6.026-1.767-9.012l12.737-19.495c1.951-2.986 5.905-3.793 8.832-1.802l14.093 9.586 15.49-21.075c2.111-2.872 6.103-3.453 8.916-1.3zm-7.59-120.355c2.814 2.154 3.384 6.227 1.274 9.098l-19.106 25.994c-2.028 2.759-5.815 3.421-8.627 1.508l-13.807-9.392-9.204 14.088c-1.951 2.986-5.905 3.793-8.832 1.802-2.926-1.991-3.717-6.025-1.766-9.011L566 202.831c1.951-2.986 5.905-3.793 8.832-1.802l14.092 9.587 15.491-21.076c2.11-2.871 6.102-3.453 8.916-1.3zm-269.984 0c2.813 2.154 3.384 6.227 1.273 9.098l-19.105 25.994c-2.028 2.759-5.815 3.421-8.628 1.508l-13.806-9.392-9.204 14.088c-1.951 2.986-5.905 3.793-8.832 1.802-2.926-1.991-3.717-6.025-1.766-9.011l12.737-19.496c1.951-2.986 5.905-3.793 8.831-1.802l14.093 9.587 15.491-21.076c2.11-2.871 6.102-3.453 8.916-1.3zm133.365-72.646c2.814 2.153 3.384 6.227 1.274 9.098l-19.105 25.993c-2.028 2.76-5.816 3.421-8.628 1.508l-13.806-9.392-9.205 14.088c-1.951 2.987-5.905 3.794-8.831 1.803-2.927-1.991-3.718-6.026-1.767-9.012l12.737-19.495c1.951-2.986 5.905-3.793 8.832-1.802l14.093 9.586 15.49-21.075c2.111-2.871 6.103-3.453 8.916-1.3z" fill="#fff"/><path fill-rule="evenodd" clip-rule="evenodd" d="M713.501 155.496c9.428 0 15.75 8.896 15.75 17.181 0 16.816-26.247 30.584-26.725 30.584-.478 0-26.726-13.768-26.726-30.584 0-8.285 6.322-17.181 15.75-17.181 5.39 0 8.93 2.702 10.976 5.108 2.046-2.406 5.585-5.108 10.975-5.108z" fill="#009688"/><path d="M276.748 91.513c16.871 8.369 39.264-2.392 39.264-2.392s-4.977-24.326-21.857-32.683c-16.871-8.37-39.255 2.38-39.255 2.38s4.977 24.326 21.848 32.695z" fill="url(#a)"/><circle r="11.457" transform="matrix(1 0 0 -1 559.463 523.011)" fill="#009688"/><circle r="17.63" transform="matrix(1 0 0 -1 560.064 64.698)" fill="#009688"/><circle cx="738.079" cy="248.843" r="11.452" fill="#009688"/><circle cx="172.679" cy="287.7" r="16.187" fill="#E1E4E5"/><circle cx="653.413" cy="465.341" r="14.02" fill="#E1E4E5"/><ellipse cx="173.029" cy="393.933" rx="16.537" ry="13.23" fill="#E1E4E5"/><circle cx="305.429" cy="534.834" r="26.395" transform="rotate(90 305.429 534.834)" fill="#E1E4E5"/><defs><linearGradient id="a" x1="341.536" y1="117.618" x2="202.381" y2="7.546" gradientUnits="userSpaceOnUse"><stop stop-color="#fff"/><stop offset="1" stop-color="#EEE"/></linearGradient></defs></svg>