<svg width="900" height="600" viewBox="0 0 900 600" fill="none" xmlns="http://www.w3.org/2000/svg"><path fill="transparent" d="M0 0h900v600H0z"/><rect x="170.651" y="73" width="570.349" height="425.289" rx="4" fill="#fff" stroke="#E1E4E5" stroke-width="4"/><rect x="170.651" y="73" width="570.349" height="49.452" rx="4" fill="#fff" stroke="#E1E4E5" stroke-width="4"/><rect x="190.432" y="89.485" width="16.484" height="16.484" rx="8.242" fill="#E1E4E5"/><rect x="220.103" y="89.485" width="16.484" height="16.484" rx="8.242" fill="#E1E4E5"/><rect x="249.774" y="89.485" width="16.484" height="16.484" rx="8.242" fill="#E1E4E5"/><path d="M505.234 339.608 398.626 233m185.68 106.826 106.279-106.608m-476.88 106.39L319.983 233" stroke="#E1E4E5" stroke-width="4.707" stroke-linecap="round" stroke-linejoin="round"/><path fill-rule="evenodd" clip-rule="evenodd" d="M489.387 379.047c0-30.633 24.842-55.508 55.509-55.508 30.666 0 55.508 24.842 55.508 55.508 0 30.666-24.842 55.508-55.508 55.508-30.568.132-55.41-24.513-55.509-55.08v-.428zm-74.033-185.049c0 30.633-24.842 55.508-55.509 55.508-30.666 0-55.541-24.842-55.541-55.508 0-30.699 24.842-55.542 55.541-55.542 30.568-.131 55.41 24.514 55.509 55.081v.461zm370.165-.001c0 30.633-24.842 55.508-55.508 55.508-30.666 0-55.541-24.842-55.541-55.508 0-30.666 24.842-55.509 55.508-55.509 30.568-.131 55.41 24.513 55.508 55.081.033.132.033.263.033.428zm-666.297 185.05c0-30.633 24.842-55.508 55.508-55.508 30.666 0 55.541 24.842 55.541 55.508 0 30.666-24.842 55.508-55.508 55.508-30.567.132-55.41-24.513-55.508-55.08-.033-.132-.033-.264-.033-.428z" fill="#009688" stroke="#009688" stroke-width="4.707" stroke-linecap="round" stroke-linejoin="round"/><path clip-rule="evenodd" d="M566.834 261.249h-51.129v-43.831h51.115c12.12 0 21.909 9.816 21.909 21.909v0c.013 12.133-9.776 21.922-21.895 21.922z" stroke="#009688" stroke-width="24" stroke-linecap="round" stroke-linejoin="round"/><path d="M515.705 217.432v-45.21h45.598c12.481 0 22.592 10.11 22.592 22.618v0c0 12.481-10.111 22.592-22.592 22.592m-17.043-58.211v12.95m0 103.929v-14.61" stroke="#009688" stroke-width="24" stroke-linecap="round" stroke-linejoin="round"/><path clip-rule="evenodd" d="M382.18 407.249h-51.129v-43.831h51.116c12.119 0 21.909 9.816 21.909 21.909v0c.013 12.132-9.776 21.922-21.896 21.922z" stroke="#009688" stroke-width="24" stroke-linecap="round" stroke-linejoin="round"/><path d="M331.051 363.432v-45.21h45.599c12.481 0 22.591 10.11 22.591 22.618v0c0 12.481-10.11 22.592-22.591 22.592m-17.044-58.211v12.95m0 103.929v-14.61" stroke="#009688" stroke-width="24" stroke-linecap="round" stroke-linejoin="round"/><path d="M686.251 374.347h-32.656M246.877 194.739h-32.656M415.106 521.3h-43.542m-.728-41.409h-43.542m-46.011-336.487h-43.541" stroke="#E1E4E5" stroke-width="11" stroke-linecap="round" stroke-linejoin="round"/><path clip-rule="evenodd" d="m360.311 167.03 27.339 27.339-27.339 27.339-27.339-27.339 27.339-27.339zM174.764 352.577l27.339 27.339-27.339 27.338-27.339-27.338 27.339-27.339zm371.094 0 27.339 27.339-27.339 27.338-27.339-27.338 27.339-27.339zM729.919 167.03l27.339 27.339-27.339 27.339-27.339-27.339 27.339-27.339z" stroke="#fff" stroke-width="11" stroke-linecap="round" stroke-linejoin="round"/><path d="M229.625 479.535h-32.656m-65.313 0H99m87.084 32.656h-43.542m410.117-32.656h-32.657m-65.312 0h-32.656m87.083 41.765h-43.541M111.613 266.862h71.25M696.21 443.453h-71.25m175.938-141.891h-71.25m-546.785-70.324h-47.5M624.96 479.077h47.5m57.188-141.89h47.5M182.863 195.612h-11.875m453.972 319.09h11.875m92.813-141.891h11.875" stroke="#E1E4E5" stroke-width="11" stroke-linecap="round" stroke-linejoin="round"/></svg>