<svg width="900" height="600" viewBox="0 0 900 600" fill="none" xmlns="http://www.w3.org/2000/svg"><path fill="transparent" d="M0 0h900v600H0z"/><path d="M194.48 443.702c2.539 17.506-9.612 33.756-27.167 36.307-17.543 2.551-33.828-9.576-36.379-27.082-2.539-17.495 9.624-33.756 27.166-36.307 17.555-2.551 33.841 9.575 36.38 27.082z" fill="url(#a)"/><path d="M186.923 444.802c1.935 13.335-7.326 25.728-20.698 27.674-13.372 1.935-25.789-7.302-27.723-20.638-1.934-13.347 7.327-25.74 20.698-27.674 13.372-1.947 25.777 7.29 27.723 20.638z" fill="#fff"/><path d="m167.467 462.201.703 4.248-3.905.61-.678-4.138c-3.906.378-7.799-.22-10.21-1.526l1.381-4.957c2.185 1.099 5.162 1.685 8.012 1.514l-1.042-6.336c-4.496-.354-9.569-1.001-10.461-6.421-.665-4.017 1.771-7.936 7.824-9.584l-.691-4.212 3.906-.61.678 4.138c2.964-.232 5.94.086 8.301 1.075l-1.181 4.968c-2.172-.793-4.307-1.123-6.291-1.049l1.067 6.445c4.496.306 9.481.977 10.36 6.324.641 3.956-1.758 7.838-7.773 9.511zm-6.656-16.164-.891-5.384c-1.997.781-2.625 2.002-2.424 3.26.226 1.318 1.507 1.867 3.315 2.124zm8.213 8.106c-.213-1.331-1.469-1.868-3.24-2.185l.867 5.237c1.883-.72 2.574-1.843 2.373-3.052z" fill="#E1E4E5"/><path d="M339.979 424.278c2.827 19.49-10.701 37.58-30.244 40.42-19.531 2.84-37.661-10.66-40.501-30.15-2.827-19.477 10.714-37.58 30.244-40.42 19.544-2.84 37.675 10.66 40.501 30.15z" fill="url(#b)"/><path d="M331.566 425.503c2.154 14.846-8.156 28.642-23.043 30.809-14.887 2.154-28.71-8.129-30.864-22.976-2.153-14.859 8.157-28.656 23.044-30.809 14.886-2.167 28.696 8.116 30.863 22.976z" fill="#fff"/><path d="m309.906 444.873.783 4.729-4.348.68-.755-4.607c-4.348.421-8.682-.245-11.366-1.699l1.538-5.518c2.432 1.223 5.746 1.875 8.919 1.685l-1.16-7.054c-5.005-.394-10.653-1.114-11.646-7.149-.741-4.471 1.971-8.834 8.71-10.669l-.769-4.689 4.348-.68.755 4.608c3.299-.258 6.613.095 9.241 1.196l-1.314 5.531c-2.419-.883-4.795-1.25-7.004-1.168l1.188 7.176c5.005.34 10.556 1.087 11.534 7.04.713 4.404-1.957 8.726-8.654 10.588zm-7.41-17.995-.992-5.994c-2.223.87-2.922 2.229-2.699 3.629.252 1.468 1.678 2.079 3.691 2.365zm9.144 9.024c-.238-1.481-1.636-2.079-3.607-2.432l.964 5.83c2.098-.802 2.866-2.052 2.643-3.398z" fill="#E1E4E5"/><path d="M324.659 153.631c2.827 19.49-10.7 37.58-30.244 40.42-19.53 2.84-37.661-10.66-40.501-30.15-2.826-19.476 10.714-37.58 30.244-40.42 19.544-2.84 37.675 10.66 40.501 30.15z" fill="url(#c)"/><path d="M316.246 154.856c2.154 14.846-8.156 28.643-23.043 30.81-14.887 2.153-28.71-8.13-30.863-22.976-2.154-14.86 8.156-28.657 23.043-30.81 14.887-2.167 28.696 8.116 30.863 22.976z" fill="#fff"/><path d="m294.586 174.226.783 4.73-4.348.68-.755-4.608c-4.348.421-8.682-.245-11.366-1.699l1.538-5.518c2.432 1.223 5.746 1.876 8.92 1.685l-1.161-7.053c-5.005-.395-10.653-1.115-11.646-7.149-.741-4.472 1.971-8.835 8.71-10.67l-.769-4.689 4.348-.679.755 4.607c3.3-.258 6.613.095 9.241 1.196l-1.314 5.532c-2.418-.883-4.795-1.25-7.004-1.169l1.188 7.176c5.005.34 10.556 1.088 11.534 7.041.713 4.403-1.957 8.725-8.654 10.587zm-7.409-17.995-.993-5.993c-2.223.869-2.922 2.229-2.698 3.628.251 1.468 1.677 2.08 3.691 2.365zm9.143 9.025c-.238-1.481-1.636-2.079-3.607-2.433l.965 5.831c2.097-.802 2.866-2.052 2.642-3.398z" fill="#E1E4E5"/><path d="M777.58 365.717c5.703 39.328-21.593 75.831-61.029 81.562-39.409 5.731-75.994-21.511-81.725-60.839-5.704-39.3 21.62-75.831 61.029-81.561 39.436-5.731 76.021 21.51 81.725 60.838z" fill="url(#d)"/><path d="M760.605 368.188c4.345 29.958-16.459 57.797-46.499 62.17-30.039 4.346-57.932-16.405-62.278-46.362-4.345-29.985 16.459-57.824 46.498-62.17 30.04-4.373 57.906 16.378 62.279 46.362z" fill="#fff"/><path d="m716.897 407.275 1.58 9.544-8.774 1.372-1.523-9.298c-8.774.851-17.519-.493-22.936-3.428l3.104-11.134c4.908 2.468 11.594 3.784 17.998 3.4l-2.341-14.233c-10.1-.796-21.497-2.249-23.5-14.426-1.495-9.023 3.978-17.826 17.575-21.529l-1.551-9.462 8.773-1.371 1.524 9.297c6.658-.521 13.344.192 18.647 2.414l-2.651 11.162c-4.881-1.783-9.677-2.523-14.134-2.359l2.398 14.481c10.099.685 21.299 2.194 23.274 14.206 1.439 8.886-3.95 17.607-17.463 21.364zm-14.952-36.311-2.003-12.094c-4.485 1.755-5.896 4.498-5.444 7.322.507 2.962 3.385 4.196 7.447 4.772zm18.45 18.211c-.479-2.99-3.3-4.196-7.278-4.909l1.947 11.765c4.231-1.618 5.783-4.141 5.331-6.856z" fill="#E1E4E5"/><path d="M728.643 158.849c5.703 39.328-21.593 75.831-61.029 81.562-39.409 5.731-75.994-21.511-81.725-60.839-5.704-39.3 21.62-75.831 61.029-81.562 39.436-5.73 76.021 21.511 81.725 60.839z" fill="url(#e)"/><path d="M711.667 161.321c4.346 29.957-16.459 57.796-46.498 62.169-30.039 4.346-57.933-16.405-62.278-46.362-4.346-29.985 16.459-57.824 46.498-62.17 30.039-4.373 57.905 16.378 62.278 46.363z" fill="#fff"/><path d="m667.961 200.407 1.58 9.544-8.774 1.371-1.524-9.297c-8.773.85-17.519-.494-22.935-3.428l3.103-11.135c4.909 2.469 11.595 3.785 17.999 3.401l-2.342-14.234c-10.099-.795-21.497-2.249-23.5-14.425-1.495-9.023 3.978-17.827 17.576-21.529l-1.552-9.462 8.774-1.371 1.523 9.297c6.658-.521 13.344.192 18.648 2.413l-2.652 11.162c-4.88-1.782-9.676-2.523-14.134-2.358l2.398 14.48c10.1.686 21.3 2.194 23.274 14.207 1.439 8.885-3.949 17.607-17.462 21.364zm-14.952-36.311-2.003-12.095c-4.486 1.756-5.896 4.498-5.445 7.323.508 2.962 3.385 4.196 7.448 4.772zm18.45 18.21c-.48-2.989-3.301-4.196-7.279-4.909l1.947 11.766c4.232-1.618 5.783-4.142 5.332-6.857z" fill="#E1E4E5"/><path d="M316.619 294.495c5.704 39.327-21.592 75.831-61.029 81.561-39.409 5.731-75.994-21.51-81.724-60.838-5.704-39.301 21.619-75.831 61.028-81.562 39.437-5.731 76.022 21.511 81.725 60.839z" fill="url(#f)"/><path d="M299.645 296.966c4.345 29.957-16.459 57.796-46.499 62.169-30.039 4.346-57.932-16.405-62.278-46.362-4.345-29.985 16.459-57.824 46.498-62.17 30.04-4.373 57.906 16.378 62.279 46.363z" fill="#fff"/><path d="m255.937 336.052 1.58 9.544-8.774 1.372-1.523-9.297c-8.774.85-17.519-.494-22.936-3.429l3.104-11.134c4.908 2.468 11.594 3.784 17.998 3.4l-2.341-14.233c-10.1-.796-21.497-2.249-23.5-14.426-1.495-9.023 3.978-17.826 17.575-21.529l-1.551-9.461 8.774-1.372 1.523 9.297c6.658-.521 13.344.192 18.647 2.414l-2.651 11.162c-4.881-1.783-9.677-2.523-14.134-2.359l2.398 14.481c10.099.686 21.299 2.194 23.274 14.206 1.439 8.886-3.95 17.607-17.463 21.364zm-14.952-36.311-2.003-12.094c-4.485 1.755-5.896 4.498-5.444 7.322.507 2.962 3.385 4.197 7.447 4.772zm18.45 18.211c-.479-2.99-3.3-4.196-7.278-4.909l1.947 11.765c4.231-1.618 5.783-4.141 5.331-6.856z" fill="#E1E4E5"/><path d="M514.498 159.171c5.704 39.328-21.592 75.831-61.029 81.562-39.409 5.731-75.994-21.511-81.724-60.839-5.704-39.301 21.619-75.831 61.028-81.562 39.437-5.73 76.022 21.511 81.725 60.839z" fill="url(#g)"/><path d="M497.523 161.643c4.345 29.957-16.459 57.796-46.499 62.169-30.039 4.346-57.932-16.405-62.278-46.362-4.345-29.985 16.459-57.824 46.498-62.17 30.039-4.373 57.906 16.378 62.279 46.363z" fill="#fff"/><path d="m453.816 200.729 1.58 9.544-8.774 1.371-1.524-9.297c-8.773.85-17.519-.494-22.935-3.428l3.103-11.135c4.909 2.468 11.595 3.785 17.999 3.401l-2.342-14.234c-10.099-.795-21.497-2.249-23.5-14.426-1.495-9.023 3.978-17.826 17.576-21.528l-1.552-9.462 8.774-1.371 1.523 9.297c6.658-.521 13.344.192 18.648 2.413l-2.652 11.162c-4.88-1.782-9.676-2.523-14.134-2.358l2.398 14.48c10.1.686 21.3 2.194 23.274 14.206 1.439 8.886-3.949 17.607-17.462 21.365zm-14.952-36.311-2.003-12.095c-4.486 1.755-5.896 4.498-5.445 7.323.508 2.962 3.385 4.196 7.448 4.772zm18.45 18.21c-.48-2.989-3.301-4.196-7.279-4.909l1.947 11.765c4.232-1.618 5.783-4.141 5.332-6.856z" fill="#E1E4E5"/><path fill-rule="evenodd" clip-rule="evenodd" d="M220.471 511h263.043c1.726 0 3.137 1.428 3.137 3.172 0 1.745-1.411 3.173-3.137 3.173h-10.585c-.958 0-1.743.793-1.743 1.761 0 .968.785 1.761 1.743 1.761h3.872c1.197 0 2.18.994 2.18 2.204 0 1.211-.983 2.204-2.18 2.204H227.53c-1.197 0-2.18-.989-2.18-2.204 0-1.21.983-2.204 2.18-2.204h3.051c.958 0 1.742-.793 1.742-1.761 0-.968-.784-1.761-1.742-1.761h-10.11c-1.726 0-3.138-1.428-3.138-3.173 0-1.744 1.412-3.172 3.138-3.172zm1.634 14.275c1.152 0 2.094-.952 2.094-2.116v-.175c0-1.165-.942-2.117-2.094-2.117-1.151 0-2.093.952-2.093 2.117v.175c0 1.164.942 2.116 2.093 2.116z" fill="#E1E4E5"/><path fill-rule="evenodd" clip-rule="evenodd" d="M450.76 511h262.114c1.719 0 3.126 1.427 3.126 3.172s-1.407 3.172-3.126 3.172h-10.548c-.955 0-1.736.793-1.736 1.762 0 .968.781 1.761 1.736 1.761h3.858c1.193 0 2.173.994 2.173 2.204 0 1.21-.98 2.204-2.173 2.204H457.795c-1.194 0-2.173-.989-2.173-2.204 0-1.21.979-2.204 2.173-2.204h3.04c.954 0 1.736-.793 1.736-1.761 0-.969-.782-1.762-1.736-1.762H450.76c-1.72 0-3.127-1.427-3.127-3.172S449.04 511 450.76 511zm1.629 14.275c1.148 0 2.086-.952 2.086-2.116v-.176c0-1.164-.938-2.116-2.086-2.116s-2.086.952-2.086 2.116v.176c0 1.164.938 2.116 2.086 2.116z" fill="#E1E4E5"/><path d="M459.242 376.58s20.102-23.776 1.239-38.871c0 0-13.774-8.457-25.009-7.771 0 0 15.915 27.056 10.764 29.752-5.15 2.688-15.588-31.447-15.588-31.447s-31.345-3.08-41.434 1.833c0 0 26.802 22.235 21.158 23.56-5.645 1.325-34.589-20.502-34.589-20.502s-29.179 5.037-27.622 23.074c1.557 18.046 11.608 23.614 16.029 23.137 4.422-.478 30.266-10.483 30.828-6.809.563 3.674-14.996 15.666-25.89 16.228 0 0 20.573 22.997 34.239 16.358 13.675-6.638 14.837-17.159 23.361-21.102 8.523-3.944 15.794-3.936 12.276.084-3.517 4.028-18.939 7.933-23.816 16.675-4.869 8.741-9.245 14.633 4.9 12.477 14.145-2.157 37.134-12.654 38.144-24.669l1.01-12.007z" fill="#009688"/><path d="M362.504 356.232s79.824-3.066 97.455 19.685c0 0 3.895 11.638 15.894 22.232l1.868 5.079s-13.836-14.536-18.78-15.414c0 0 7.745-28.188-96.437-31.582z" fill="#009688"/><path d="M475.566 398.711s16.702 12.799 17.866 35.662l-3.029.278s-5.334-23.643-14.979-32.887.142-3.053.142-3.053zm51.835-51.326s-40.379-13.816-28.415-44.812c0 0 10.528-19.62 24.371-26.709 0 0-.185 42.992 7.807 42.534 7.992-.458-3.247-47.919-3.247-47.919s35.159-25.653 50.566-26.968c0 0-16.479 44.965-8.845 42.555 7.633-2.41 26.944-48.408 26.944-48.408s38.197-14.585 48.855 7.712c10.648 22.298 2.554 35.915-3.031 38.462-5.587 2.538-43.27 8.95-41.398 13.659 1.871 4.709 28.694 7.873 42.042.875 0 0-8.537 41.49-29.392 43.301-20.866 1.803-29.54-9.735-42.414-8.39-12.873 1.354-21.519 6.48-14.55 8.731 6.971 2.26 28.03-3.982 39.888 2.856 11.851 6.849 21.137 10.701 2.819 18.107-18.317 7.405-52.941 11.23-62.47-2.178l-9.53-13.408z" fill="#009688"/><path d="M628.722 256.021s-96.42 52.063-101.321 91.364c0 0 3.538 16.534-3.211 37.477l1.346 7.336s6.168-26.907 11.395-31.405c.001.008-28.873-28.05 91.791-104.772z" fill="#009688"/><path d="M524.191 384.871s-11.395 26.948 2.99 54.558l3.871-1.836s-9.866-31.511-4.568-49.243c5.287-17.739-2.293-3.479-2.293-3.479zm-46.001-80.887s49.075-27.522 26.174-64.867c0 0-18.319-22.933-37.947-28.832 0 0 10.464 55.689 0 57-10.473 1.311-7.2-62.9-7.2-62.9s-51.693-24.899-71.975-22.933c0 0 32.055 54.379 21.591 53.068-10.473-1.311-46.456-56.345-46.456-56.345s-53.002-9.824-61.502 21.622c-8.51 31.445 5.236 47.177 13.082 49.144 7.855 1.966 58.23 1.31 56.921 7.865-1.31 6.555-35.329 17.034-54.303 11.144 0 0 20.937 51.756 48.42 49.143 27.483-2.622 35.984-19.655 52.993-20.966 17.01-1.311 29.447 3.277 20.938 7.865-8.51 4.589-37.293 1.506-51.039 13.199-13.737 11.701-24.864 18.902.655 24.146 25.519 5.244 71.321 1.967 80.476-17.689l9.172-19.664z" fill="#009688"/><path d="M325.084 209.637s137.396 44.556 153.097 94.346c0 0-.655 22.278 13.082 47.833v9.832s-14.391-33.412-22.246-38c.009-.009 30.764-43.254-143.933-114.011z" fill="#009688"/><path d="M491.272 351.816s21.194 32.225 9.111 71.448l-5.449-1.471s5.29-43.2-5.794-64.928c-11.092-21.729 2.132-5.049 2.132-5.049z" fill="#009688"/><path d="M384.817 414.274c1.18 50.912 42.757 91.81 93.874 91.81 51.107 0 92.684-40.898 93.864-91.81H384.817z" fill="#fff" stroke="#E1E4E5" stroke-width="4.449"/><path d="M381.605 513.21h194.634c0-9.206-5.3-16.683-11.846-16.683h-170.96c-6.528 0-11.828 7.464-11.828 16.683z" fill="#fff" stroke="#E1E4E5" stroke-width="4.449"/><path d="M380.834 412.393h197.702v17.02H380.834v-17.02z" fill="#E1E4E5"/><path fill-rule="evenodd" clip-rule="evenodd" d="M607.107 471.435h2.782c.673 0 1.215.548 1.215 1.215v2.782c0 .672-.548 1.214-1.215 1.214h-2.782a1.218 1.218 0 0 1-1.214-1.214v-2.782a1.212 1.212 0 0 1 1.214-1.215zm9.646 0h2.782a1.22 1.22 0 0 1 1.214 1.215v2.782c0 .672-.547 1.214-1.214 1.214h-2.782a1.22 1.22 0 0 1-1.215-1.214v-2.782a1.22 1.22 0 0 1 1.215-1.215zm9.651 0h2.783a1.22 1.22 0 0 1 1.214 1.215v2.782c0 .672-.547 1.214-1.214 1.214h-2.783a1.218 1.218 0 0 1-1.214-1.214v-2.782a1.212 1.212 0 0 1 1.214-1.215zm9.647 0h2.782a1.22 1.22 0 0 1 1.214 1.215v2.782c0 .672-.547 1.214-1.214 1.214h-2.782a1.22 1.22 0 0 1-1.22-1.214v-2.782a1.228 1.228 0 0 1 1.22-1.215zm9.646 0h2.782c.673 0 1.22.548 1.22 1.215v2.782c0 .672-.547 1.214-1.22 1.214h-2.782a1.218 1.218 0 0 1-1.214-1.214v-2.782a1.22 1.22 0 0 1 1.214-1.215zm-28.59 10.518h2.782a1.22 1.22 0 0 1 1.214 1.215v2.788c0 .667-.547 1.214-1.214 1.214h-2.782a1.215 1.215 0 0 1-1.215-1.214v-2.783a1.214 1.214 0 0 1 1.215-1.22zm9.646 0h2.782a1.22 1.22 0 0 1 1.214 1.215v2.788c0 .667-.547 1.214-1.214 1.214h-2.782a1.22 1.22 0 0 1-1.215-1.214v-2.783a1.214 1.214 0 0 1 1.215-1.22zm9.646 0h2.782c.673 0 1.22.548 1.22 1.215v2.788a1.22 1.22 0 0 1-1.22 1.214h-2.782a1.22 1.22 0 0 1-1.215-1.214v-2.783c0-.672.548-1.22 1.215-1.22zm-9.995-21.817h2.783c.667 0 1.214.547 1.214 1.214v2.782c0 .673-.547 1.214-1.214 1.214h-2.783a1.218 1.218 0 0 1-1.214-1.214v-2.782a1.211 1.211 0 0 1 1.214-1.214zm9.647 0h2.782c.667 0 1.214.547 1.214 1.214v2.782c0 .673-.547 1.214-1.214 1.214h-2.782a1.22 1.22 0 0 1-1.22-1.214v-2.782a1.228 1.228 0 0 1 1.22-1.214z" fill="#E1E4E5"/><ellipse rx="3.893" ry="4.449" transform="matrix(1 0 0 -1 231.343 412)" fill="#E1E4E5"/><ellipse rx="4.449" ry="5.005" transform="matrix(1 0 0 -1 683.451 275.756)" fill="#E1E4E5"/><circle r="3.893" transform="matrix(1 0 0 -1 550.102 191.229)" fill="#E1E4E5"/><circle r="5.005" transform="matrix(1 0 0 -1 167.948 375.854)" fill="#E1E4E5"/><ellipse cx="345.343" cy="200.683" rx="5.561" ry="4.449" fill="#009688"/><path d="M232.559 177.327h-.202c-1.197 15.257-13.804 15.492-13.804 15.492s13.902.244 13.902 17.874c0-17.63 13.903-17.874 13.903-17.874s-12.603-.235-13.799-15.492z" fill="#E1E4E5"/><path d="M742.129 266.199c12.39-6.732 15.439-25.083 15.439-25.083s-17.045-7.424-29.432-.681c-12.39 6.732-15.442 25.072-15.442 25.072s17.044 7.424 29.435.692z" fill="url(#h)"/><path d="M534.87 132.604c9.219 10.67 27.798 9.736 27.798 9.736s3.619-18.236-5.61-28.9c-9.219-10.67-27.788-9.741-27.788-9.741s-3.619 18.235 5.6 28.905z" fill="url(#i)"/><path d="M122.245 337.971c9.22 10.67 27.798 9.736 27.798 9.736s3.619-18.236-5.61-28.9c-9.219-10.67-27.788-9.741-27.788-9.741s-3.619 18.235 5.6 28.905z" fill="url(#j)"/><defs><linearGradient id="a" x1="164.076" y1="516.267" x2="162.105" y2="346.587" gradientUnits="userSpaceOnUse"><stop stop-color="#fff"/><stop offset="1" stop-color="#EEE"/></linearGradient><linearGradient id="b" x1="306.131" y1="505.064" x2="303.937" y2="316.161" gradientUnits="userSpaceOnUse"><stop stop-color="#fff"/><stop offset="1" stop-color="#EEE"/></linearGradient><linearGradient id="c" x1="290.811" y1="234.417" x2="288.617" y2="45.514" gradientUnits="userSpaceOnUse"><stop stop-color="#fff"/><stop offset="1" stop-color="#EEE"/></linearGradient><linearGradient id="d" x1="709.279" y1="528.732" x2="704.852" y2="147.553" gradientUnits="userSpaceOnUse"><stop stop-color="#fff"/><stop offset="1" stop-color="#EEE"/></linearGradient><linearGradient id="e" x1="660.342" y1="321.864" x2="655.915" y2="-59.315" gradientUnits="userSpaceOnUse"><stop stop-color="#fff"/><stop offset="1" stop-color="#EEE"/></linearGradient><linearGradient id="f" x1="248.319" y1="457.509" x2="243.891" y2="76.33" gradientUnits="userSpaceOnUse"><stop stop-color="#fff"/><stop offset="1" stop-color="#EEE"/></linearGradient><linearGradient id="g" x1="446.198" y1="322.186" x2="441.77" y2="-58.993" gradientUnits="userSpaceOnUse"><stop stop-color="#fff"/><stop offset="1" stop-color="#EEE"/></linearGradient><linearGradient id="h" x1="786.014" y1="237.749" x2="658.674" y2="275.606" gradientUnits="userSpaceOnUse"><stop stop-color="#fff"/><stop offset="1" stop-color="#EEE"/></linearGradient><linearGradient id="i" x1="572.022" y1="169.414" x2="507.885" y2="53.074" gradientUnits="userSpaceOnUse"><stop stop-color="#fff"/><stop offset="1" stop-color="#EEE"/></linearGradient><linearGradient id="j" x1="159.398" y1="374.781" x2="95.26" y2="258.441" gradientUnits="userSpaceOnUse"><stop stop-color="#fff"/><stop offset="1" stop-color="#EEE"/></linearGradient></defs></svg>