<svg width="900" height="600" viewBox="0 0 900 600" fill="none" xmlns="http://www.w3.org/2000/svg"><path fill="transparent" d="M0 0h900v600H0z"/><path d="M573.209 441.586c-44.472 13.506-90.887 20.258-137.368 21.596-23.174.668-46.415-.134-69.388-2.875-20.896-2.541-42.128-6.285-62.087-13.238-17.414-6.017-35.899-17.517-34.225-38.443-.067.601-.134 1.136-.134 1.738l-.402 2.607c-4.621 27.345-9.309 54.623-13.931 81.968-.602 2.942-.669 3.41-.201 1.471-.134.535-.267 1.136-.401 1.671 3.415-12.235 11.452-22.197 19.289-31.891 7.702-9.494 15.672-19.054 21.164-30.019 2.813-5.683 4.89-11.165 6.229-17.316 3.885-17.918 6.43-36.638 9.444-54.69 2.478-14.709 5.693-29.685 6.965-44.594 1.005-11.633-2.344-22.598-10.18-31.356-16.275-18.186-42.396-23.2-65.771-23.267-24.446 0-49.227 4.346-73.473-.535-12.39-2.54-24.446-7.688-33.153-17.049-8.774-9.427-17.146-23.534-16.208-36.838-.067.601-.134 1.136-.134 1.738-1.005 6.552-2.077 13.037-3.081 19.589-4.086 23.2-8.104 46.467-12.19 69.666.067-.334.134-.601.201-.936-.134.535-.268 1.137-.402 1.672 5.559-21.395 30.675-24.337 49.027-25.406.469 0 3.081-15.846 2.679-13.84a2714.308 2714.308 0 0 0 5.827-33.562c1.875-11.166 3.817-22.398 5.559-33.563.201-1.404 1.875-13.973 2.009-13.973-11.252.668-23.107 1.27-33.22 6.619-4.287 2.273-8.238 5.415-11.252 9.293-4.621 6.017-5.492 13.238-6.832 20.525-4.085 22.331-7.903 44.728-11.52 67.125-1.205 7.555-3.348 15.578-3.014 23.334.268 5.616 2.211 11.031 4.622 16.046 4.755 9.694 11.319 18.72 20.361 24.804 18.351 12.235 42.061 12.569 63.292 11.633 22.437-1.003 45.477-3.677 67.445 2.541 11.788 3.343 23.375 9.159 31.881 18.118 8.506 8.959 12.257 20.258 11.252 32.56.067-.602.134-1.137.134-1.738-1.674 15.578.737 1.604 7.233-41.853 8.238-43.19 10.583-57.097 7.033-41.853.134-.535.268-1.137.402-1.672-3.617 14.174-11.989 26.142-21.031 37.441-8.707 10.897-18.887 21.662-23.575 35.1-2.278 6.552-3.215 13.639-4.421 20.392-4.822 26.676-10.046 53.553-13.462 80.43-.804 6.552-.335 12.97 2.679 18.92 4.822 9.427 14.333 15.444 23.843 19.523 11.386 4.947 23.777 7.822 35.9 10.43a374.149 374.149 0 0 0 45.544 6.819c30.675 2.808 61.618 2.273 92.293-.468 34.694-3.075 69.12-9.427 102.474-19.522.803-.268 3.014-15.511 2.679-13.84a2711.214 2711.214 0 0 0 5.827-33.563c1.875-11.165 3.817-22.397 5.559-33.562.402-2.474.803-4.948 1.138-7.421.603-2.073.871-4.279 1.072-6.486z" fill="#E1E4E5"/><path d="M255.946 495.282c3.839-10.861 11.18-20.035 18.386-28.939 6.331-7.892 12.931-15.784 18.116-24.486 0 0-.067 0-.067-.068h.135c1.144-1.888 2.155-3.777 3.165-5.733 2.828-5.734 4.781-11.738 6.128-17.943 0-.135.068-.338.068-.473.067-.809.134-2.091.337-3.912.875-12.209-2.829-23.474-11.315-32.446a56.68 56.68 0 0 0-5.118-4.722c-5.523 7.015-10.574 14.436-13.469 22.867-2.29 6.611-3.233 13.761-4.445 20.574-4.849 26.915-10.102 54.032-13.537 81.149-.067.27-.067.607-.067.877.471-2.226 1.145-4.519 1.683-6.745zm-.606 1.484c-.135.607-.202.944-.269 1.079.135-.337.202-.742.269-1.079z" fill="url(#a)"/><path d="M103.674 300.374c.067-.201.067-.336.134-.537-.067.336-.134.604-.201.939 0-.134 0-.268.067-.402-.067.402-.201.805-.268 1.141 5.567-21.472 30.72-24.424 49.098-25.498.469 0 3.085-15.902 2.683-13.889.134-.805.268-1.543.402-2.349-.134-.067-.335-.134-.469-.201.067-.067.134-.134.201-.134.134-.067.268-.201.402-.268 1.811-10.199 3.622-20.465 5.366-30.731 1.878-11.206 3.823-22.478 5.567-33.684.201-1.409 1.878-14.023 2.012-14.023-11.268.671-23.14 1.275-33.268 6.642-4.293 2.282-8.25 5.435-11.268 9.327-4.628 6.039-5.5 13.286-6.842 20.599-4.091 22.411-7.915 44.889-11.537 67.367-.872 5.368-2.146 10.937-2.75 16.439.202-.403.403-.805.671-1.208v.47z" fill="url(#b)"/><circle cx="462.024" cy="324.878" r="159.666" fill="#009688"/><path d="m476.087 259.896 13.555 21.036c2.14 3.309 6.896 6.618 10.463 7.563l24.256 6.145c14.982 3.782 19.025 16.545 9.275 28.363l-15.933 19.144c-2.378 3.073-4.281 8.509-4.043 12.291l1.427 24.817c.951 15.363-9.988 23.162-24.256 17.49l-23.305-9.218c-3.567-1.418-9.512-1.418-13.079 0l-23.305 9.218c-14.268 5.672-25.207-2.364-24.256-17.49l1.427-24.817c.238-3.782-1.664-9.455-4.042-12.291l-15.933-19.144c-9.75-11.818-5.708-24.581 9.274-28.363l24.256-6.145c3.805-.945 8.561-4.491 10.463-7.563l13.555-21.036c8.561-12.763 21.878-12.763 30.201 0z" fill="#fff"/><path d="M302.022 157.726c44.473-13.506 90.887-20.258 137.369-21.595 23.174-.669 46.414.133 69.387 2.874 20.897 2.541 42.128 6.285 62.087 13.238 17.414 6.017 35.9 17.517 34.225 38.443.067-.601.134-1.136.134-1.738l.402-2.607c4.621-27.345 9.31-54.623 13.931-81.968.603-2.942.67-3.41.201-1.471.134-.535.268-1.136.402-1.671-3.416 12.235-11.453 22.197-19.289 31.891-7.703 9.494-15.673 19.054-21.165 30.019-2.813 5.683-4.889 11.165-6.229 17.316-3.884 17.918-6.429 36.638-9.443 54.69-2.478 14.709-5.693 29.685-6.966 44.594-1.004 11.633 2.344 22.598 10.181 31.356 16.275 18.186 42.396 23.2 65.77 23.267 24.447 0 49.228-4.346 73.473.535 12.391 2.54 24.447 7.688 33.154 17.049 8.773 9.427 17.145 23.534 16.208 36.838.067-.601.134-1.136.134-1.738 1.004-6.552 2.076-13.037 3.081-19.589 4.085-23.2 8.104-46.467 12.189-69.666-.067.334-.134.601-.201.936.134-.535.268-1.137.402-1.672-5.559 21.395-30.675 24.337-49.026 25.406-.469 0-3.081 15.846-2.679 13.84a2677.287 2677.287 0 0 0-5.827 33.562c-1.876 11.166-3.818 22.398-5.559 33.563-.201 1.404-1.876 13.973-2.01 13.973 11.252-.668 23.107-1.27 33.221-6.619 4.286-2.273 8.238-5.415 11.252-9.293 4.621-6.017 5.492-13.238 6.831-20.525 4.086-22.331 7.903-44.728 11.52-67.125 1.206-7.555 3.349-15.578 3.014-23.334-.268-5.616-2.21-11.031-4.621-16.046-4.756-9.694-11.319-18.72-20.361-24.804-18.352-12.235-42.061-12.569-63.293-11.633-22.437 1.003-45.477 3.677-67.445-2.541-11.788-3.343-23.375-9.159-31.881-18.118-8.506-8.959-12.256-20.258-11.252-32.56-.067.602-.134 1.137-.134 1.738 1.675-15.578-.736-1.604-7.233 41.853-8.238 43.19-10.582 57.097-7.032 41.853-.134.535-.268 1.137-.402 1.672 3.616-14.174 11.988-26.142 21.03-37.441 8.707-10.897 18.888-21.662 23.576-35.1 2.277-6.552 3.215-13.639 4.42-20.392 4.823-26.676 10.047-53.553 13.463-80.43.803-6.552.334-12.97-2.679-18.92-4.823-9.427-14.333-15.444-23.844-19.523-11.386-4.947-23.777-7.822-35.899-10.43a374.209 374.209 0 0 0-45.544-6.82c-30.675-2.807-61.618-2.272-92.294.469-34.693 3.075-69.119 9.427-102.473 19.522-.804.268-3.014 15.511-2.679 13.84a2676.527 2676.527 0 0 0-5.827 33.563c-1.876 11.165-3.818 22.397-5.559 33.562-.402 2.474-.804 4.948-1.139 7.421-.603 2.073-.871 4.279-1.072 6.486z" fill="#E1E4E5"/><path d="M619.285 104.03c-3.839 10.86-11.179 20.034-18.386 28.938-6.33 7.892-12.93 15.785-18.116 24.486 0 0 .068 0 .068.068h-.135c-1.145 1.889-2.155 3.777-3.165 5.734-2.829 5.733-4.782 11.737-6.129 17.943 0 .135-.067.337-.067.472-.068.809-.135 2.091-.337 3.912-.876 12.21 2.829 23.475 11.314 32.446a56.548 56.548 0 0 0 5.119 4.722c5.522-7.015 10.573-14.435 13.469-22.867 2.29-6.611 3.233-13.761 4.445-20.574 4.849-26.915 10.102-54.032 13.536-81.149.068-.27.068-.607.068-.877-.472 2.226-1.145 4.52-1.684 6.746zm.606-1.484c.135-.607.202-.945.27-1.08-.135.338-.202.742-.27 1.08z" fill="url(#c)"/><path d="M771.557 298.938c-.067.201-.067.335-.134.536.067-.335.134-.603.201-.939 0 .134 0 .268-.067.403.067-.403.201-.806.268-1.141-5.567 21.471-30.72 24.424-49.098 25.497-.469 0-3.085 15.903-2.683 13.89-.134.805-.268 1.543-.402 2.348.134.067.335.134.469.201-.067.067-.134.135-.201.135-.134.067-.268.201-.402.268-1.811 10.199-3.622 20.465-5.366 30.731-1.878 11.205-3.823 22.478-5.567 33.683-.202 1.409-1.878 14.024-2.013 14.024 11.269-.671 23.141-1.275 33.269-6.643 4.293-2.281 8.25-5.435 11.268-9.327 4.628-6.038 5.5-13.285 6.842-20.599 4.091-22.411 7.915-44.888 11.537-67.366.872-5.368 2.146-10.937 2.75-16.439-.202.402-.403.805-.671 1.207v-.469z" fill="url(#d)"/><path d="M773.764 340.807c-12.943 6.42-30.122-1.835-30.122-1.835s3.818-18.662 16.768-25.073c12.943-6.42 30.114 1.826 30.114 1.826s-3.818 18.661-16.76 25.082z" fill="url(#e)"/><path d="M222.974 170.242c19.483 11.677 47.437.883 47.437.883s-3.655-29.724-23.151-41.388c-19.484-11.678-47.425-.896-47.425-.896s3.655 29.723 23.139 41.401z" fill="url(#f)"/><circle cx="269.669" cy="234.925" r="15.127" transform="rotate(180 269.669 234.925)" fill="#009688"/><circle r="17.227" transform="matrix(-1 0 0 1 196.035 505.605)" fill="#009688"/><circle r="8.039" transform="matrix(-1 0 0 1 643.073 188.589)" fill="#009688"/><circle r="10.336" transform="matrix(-1 0 0 1 158.036 142.916)" fill="#E1E4E5"/><circle r="14.93" transform="matrix(-1 0 0 1 121.201 391.722)" fill="#E1E4E5"/><circle r="7.598" transform="matrix(-1 0 0 1 681.879 124.914)" fill="#E1E4E5"/><circle r="11.344" transform="matrix(0 1 1 0 725.965 195.165)" fill="#E1E4E5"/><circle r="7.598" transform="matrix(-1 0 0 1 269.772 76.944)" fill="#E1E4E5"/><ellipse rx="11.609" ry="9.287" transform="matrix(-1 0 0 1 662.996 448.222)" fill="#E1E4E5"/><path d="M223.957 398.596h.158c.941 13.834 10.848 14.047 10.848 14.047s-10.925.222-10.925 16.207c0-15.985-10.925-16.207-10.925-16.207s9.903-.213 10.844-14.047z" fill="#E1E4E5"/><defs><linearGradient id="a" x1="227.308" y1="441.969" x2="354.652" y2="441.401" gradientUnits="userSpaceOnUse"><stop stop-color="#fff"/><stop offset="1" stop-color="#EEE"/></linearGradient><linearGradient id="b" x1="66.188" y1="243.701" x2="240.117" y2="242.6" gradientUnits="userSpaceOnUse"><stop stop-color="#fff"/><stop offset="1" stop-color="#EEE"/></linearGradient><linearGradient id="c" x1="647.923" y1="157.342" x2="520.579" y2="157.911" gradientUnits="userSpaceOnUse"><stop stop-color="#fff"/><stop offset="1" stop-color="#EEE"/></linearGradient><linearGradient id="d" x1="809.043" y1="355.61" x2="635.114" y2="356.711" gradientUnits="userSpaceOnUse"><stop stop-color="#fff"/><stop offset="1" stop-color="#EEE"/></linearGradient><linearGradient id="e" x1="724.062" y1="360.833" x2="830.815" y2="276.391" gradientUnits="userSpaceOnUse"><stop stop-color="#fff"/><stop offset="1" stop-color="#EEE"/></linearGradient><linearGradient id="f" x1="298.371" y1="207.831" x2="141.597" y2="62.167" gradientUnits="userSpaceOnUse"><stop stop-color="#fff"/><stop offset="1" stop-color="#EEE"/></linearGradient></defs></svg>