<svg width="900" height="600" viewBox="0 0 900 600" fill="none" xmlns="http://www.w3.org/2000/svg"><path fill="transparent" d="M0 0h900v600H0z"/><rect x="734.5" y="92.5" width="406" height="571" rx="54.586" transform="rotate(90 734.5 92.5)" fill="#fff" stroke="#E1E4E5" stroke-width="11"/><path d="M517.18 304.786v83.455M588.855 221v167.246M445.504 262.881v125.362m-71.309-83.457v83.455M302.52 221v167.245m-71.676-41.572v41.573" stroke="#009688" stroke-width="36.547" stroke-linecap="round" stroke-linejoin="round"/><circle r="7.74" transform="matrix(1 0 0 -1 368.689 355.157)" fill="#009688"/><path d="M695.074 300.872h-48.413m48.413 28.72h-48.413m0-52.926h32.276m-32.276 77.132h32.275m-32.275-101.339h8.069m-8.069 125.545h8.069" stroke="#E1E4E5" stroke-width="12.945" stroke-linecap="round" stroke-linejoin="round"/><path fill-rule="evenodd" clip-rule="evenodd" d="M205.188 270.619h2.721a1.19 1.19 0 0 1 1.188 1.188v2.721c0 .659-.535 1.188-1.188 1.188h-2.721a1.192 1.192 0 0 1-1.188-1.188v-2.721a1.186 1.186 0 0 1 1.188-1.188zm9.435 0h2.722c.652 0 1.187.536 1.187 1.188v2.721c0 .659-.535 1.188-1.187 1.188h-2.722a1.193 1.193 0 0 1-1.188-1.188v-2.721c0-.652.536-1.188 1.188-1.188zm9.442 0h2.721c.653 0 1.188.536 1.188 1.188v2.721c0 .659-.535 1.188-1.188 1.188h-2.721a1.192 1.192 0 0 1-1.188-1.188v-2.721a1.186 1.186 0 0 1 1.188-1.188zm9.435 0h2.722c.652 0 1.187.536 1.187 1.188v2.721c0 .659-.535 1.188-1.187 1.188H233.5a1.193 1.193 0 0 1-1.193-1.188v-2.721a1.2 1.2 0 0 1 1.193-1.188zm9.436 0h2.722c.658 0 1.193.536 1.193 1.188v2.721a1.19 1.19 0 0 1-1.193 1.188h-2.722a1.193 1.193 0 0 1-1.188-1.188v-2.721c0-.652.536-1.188 1.188-1.188zm-27.967 10.289h2.721c.653 0 1.188.535 1.188 1.188v2.727c0 .652-.535 1.188-1.188 1.188h-2.721a1.19 1.19 0 0 1-1.188-1.188v-2.722a1.187 1.187 0 0 1 1.188-1.193zm9.435 0h2.722c.652 0 1.188.535 1.188 1.188v2.727c0 .652-.536 1.188-1.188 1.188h-2.722a1.192 1.192 0 0 1-1.187-1.188v-2.722a1.185 1.185 0 0 1 1.187-1.193zm9.437 0h2.721c.658 0 1.194.535 1.194 1.188v2.727c0 .652-.536 1.188-1.194 1.188h-2.721a1.193 1.193 0 0 1-1.188-1.188v-2.722c0-.658.535-1.193 1.188-1.193zm-9.776-21.342h2.721c.653 0 1.188.535 1.188 1.188v2.721c0 .658-.535 1.188-1.188 1.188h-2.721a1.192 1.192 0 0 1-1.188-1.188v-2.721a1.185 1.185 0 0 1 1.188-1.188zm-8.803 0h2.721c.653 0 1.188.535 1.188 1.188v2.721c0 .658-.535 1.188-1.188 1.188h-2.721a1.193 1.193 0 0 1-1.188-1.188v-2.721a1.186 1.186 0 0 1 1.188-1.188zm18.238 0h2.722c.652 0 1.187.535 1.187 1.188v2.721c0 .658-.535 1.188-1.187 1.188H233.5a1.193 1.193 0 0 1-1.193-1.188v-2.721a1.2 1.2 0 0 1 1.193-1.188z" fill="#E1E4E5"/><rect x="60.5" y="476.987" width="778.399" height="30.186" rx="15.093" fill="#fff" stroke="#E1E4E5" stroke-width="11"/></svg>