<svg width="900" height="600" viewBox="0 0 900 600" fill="none" xmlns="http://www.w3.org/2000/svg"><path fill="transparent" d="M0 0h900v600H0z"/><path d="M82.73 88c0-20.987 17.013-38 38-38h658.883c20.987 0 38 17.013 38 38v423.73c0 20.987-17.013 38-38 38H120.73c-20.987 0-38-17.013-38-38V88z" fill="#fff" stroke="#E1E4E5" stroke-width="4"/><rect x="602.287" y="159.762" width="63.265" height="63.265" rx="31.632" fill="#009688"/><path fill-rule="evenodd" clip-rule="evenodd" d="M648.296 204.664v2.116c0 1.167-.935 2.115-2.087 2.115h-25.048c-1.152 0-2.088-.948-2.088-2.115v-2.149c0-6.401 7.218-10.559 14.612-10.559 7.393 0 14.611 4.16 14.611 10.559m-9.372-29.141a7.412 7.412 0 1 1-10.482 10.481 7.412 7.412 0 0 1 10.482-10.481z" fill="#fff"/><rect x="698.709" y="159.762" width="63.265" height="63.265" rx="31.632" fill="#009688"/><path fill-rule="evenodd" clip-rule="evenodd" d="M744.719 204.664v2.116c0 1.167-.935 2.115-2.088 2.115h-25.048c-1.152 0-2.087-.948-2.087-2.115v-2.149c0-6.401 7.218-10.559 14.611-10.559 7.394 0 14.612 4.16 14.612 10.559m-9.373-29.141a7.412 7.412 0 1 1-10.482 10.481 7.412 7.412 0 0 1 10.482-10.481z" fill="#fff"/><rect x="505.882" y="159.762" width="63.265" height="63.265" rx="31.632" fill="#009688"/><path fill-rule="evenodd" clip-rule="evenodd" d="M551.891 204.664v2.116c0 1.167-.935 2.115-2.087 2.115h-25.048c-1.152 0-2.087-.948-2.087-2.115v-2.149c0-6.401 7.218-10.559 14.611-10.559 7.393 0 14.611 4.16 14.611 10.559m-9.372-29.141a7.412 7.412 0 1 1-10.482 10.481 7.412 7.412 0 0 1 10.482-10.481z" fill="#fff"/><rect x="163.093" y="273.078" width="248.284" height="99.075" rx="49.537" fill="#fff" stroke="#E1E4E5" stroke-width="4"/><rect x="173.62" y="282.795" width="79.355" height="79.355" rx="39.677" fill="#009688"/><path fill-rule="evenodd" clip-rule="evenodd" d="M231.328 339.117v2.653c0 1.464-1.173 2.653-2.618 2.653h-31.419c-1.445 0-2.618-1.189-2.618-2.653v-2.696c0-8.028 9.054-13.244 18.327-13.244 9.274 0 18.328 5.219 18.328 13.244m-11.754-36.551c3.63 3.63 3.63 9.516 0 13.147-3.631 3.63-9.517 3.63-13.147 0a9.295 9.295 0 0 1 0-13.147 9.295 9.295 0 0 1 13.147 0z" fill="#fff"/><rect x="262.168" y="304.114" width="109.818" height="5.968" rx="2.984" fill="#E1E4E5"/><rect x="262.168" y="318.438" width="109.818" height="7.162" rx="3.581" fill="#E1E4E5"/><rect x="262.168" y="333.956" width="109.818" height="5.968" rx="2.984" fill="#E1E4E5"/><rect x="455.479" y="277.003" width="248.284" height="99.075" rx="49.537" fill="#fff" stroke="#E1E4E5" stroke-width="4"/><rect x="466.006" y="286.72" width="79.355" height="79.355" rx="39.677" fill="#009688"/><path fill-rule="evenodd" clip-rule="evenodd" d="M523.714 343.042v2.653c0 1.464-1.173 2.653-2.618 2.653h-31.418c-1.446 0-2.619-1.189-2.619-2.653v-2.696c0-8.028 9.054-13.244 18.328-13.244 9.273 0 18.327 5.219 18.327 13.244m-11.753-36.551a9.297 9.297 0 1 1-13.15 13.147 9.297 9.297 0 0 1 13.15-13.147z" fill="#fff"/><rect x="554.555" y="308.039" width="109.818" height="5.968" rx="2.984" fill="#E1E4E5"/><rect x="554.554" y="322.363" width="109.818" height="7.162" rx="3.581" fill="#E1E4E5"/><rect x="554.554" y="337.881" width="109.818" height="5.968" rx="2.984" fill="#E1E4E5"/><rect x="494.925" y="399.723" width="248.284" height="99.075" rx="49.537" fill="#fff" stroke="#E1E4E5" stroke-width="4"/><rect x="505.452" y="409.439" width="79.355" height="79.355" rx="39.677" fill="#009688"/><path fill-rule="evenodd" clip-rule="evenodd" d="M563.16 465.761v2.653c0 1.465-1.173 2.653-2.619 2.653h-31.418c-1.445 0-2.618-1.188-2.618-2.653v-2.696c0-8.028 9.054-13.244 18.327-13.244 9.274 0 18.328 5.219 18.328 13.244m-11.754-36.551a9.295 9.295 0 0 1 0 13.147 9.295 9.295 0 0 1-13.147 0c-3.63-3.63-3.63-9.516 0-13.147 3.631-3.63 9.517-3.63 13.147 0z" fill="#fff"/><rect x="594" y="430.758" width="109.818" height="5.968" rx="2.984" fill="#E1E4E5"/><rect x="594" y="445.082" width="109.818" height="7.162" rx="3.581" fill="#E1E4E5"/><rect x="594" y="460.6" width="109.818" height="5.968" rx="2.984" fill="#E1E4E5"/><rect x="203.467" y="399.723" width="248.284" height="99.075" rx="49.537" fill="#fff" stroke="#E1E4E5" stroke-width="4"/><rect x="213.993" y="409.439" width="79.355" height="79.355" rx="39.677" fill="#009688"/><path fill-rule="evenodd" clip-rule="evenodd" d="M271.701 465.761v2.653c0 1.465-1.173 2.653-2.618 2.653h-31.418c-1.446 0-2.618-1.188-2.618-2.653v-2.696c0-8.028 9.053-13.244 18.327-13.244 9.274 0 18.327 5.219 18.327 13.244m-11.753-36.551c3.63 3.631 3.63 9.517 0 13.147a9.295 9.295 0 0 1-13.147 0 9.295 9.295 0 0 1 0-13.147c3.63-3.63 9.516-3.63 13.147 0z" fill="#fff"/><rect x="302.542" y="430.758" width="109.818" height="5.968" rx="2.984" fill="#E1E4E5"/><rect x="302.541" y="445.082" width="109.818" height="7.162" rx="3.581" fill="#E1E4E5"/><rect x="302.541" y="460.6" width="109.818" height="5.968" rx="2.984" fill="#E1E4E5"/><rect x="223.97" y="146.549" width="248.284" height="99.075" rx="49.537" fill="#fff" stroke="#E1E4E5" stroke-width="4"/><rect x="234.497" y="156.266" width="79.355" height="79.355" rx="39.677" fill="#009688"/><path fill-rule="evenodd" clip-rule="evenodd" d="M292.205 212.588v2.653c0 1.464-1.173 2.653-2.618 2.653h-31.418c-1.446 0-2.619-1.189-2.619-2.653v-2.696c0-8.028 9.054-13.244 18.328-13.244 9.273 0 18.327 5.218 18.327 13.244m-11.753-36.551a9.297 9.297 0 1 1-13.15 13.147 9.297 9.297 0 0 1 13.15-13.147z" fill="#fff"/><rect x="323.046" y="177.584" width="109.818" height="5.968" rx="2.984" fill="#E1E4E5"/><rect x="323.045" y="191.909" width="109.818" height="7.162" rx="3.581" fill="#E1E4E5"/><rect x="323.045" y="207.427" width="109.818" height="5.968" rx="2.984" fill="#E1E4E5"/><circle cx="134.437" cy="91.828" r="7.861" fill="#fff" stroke="#E1E4E5" stroke-width="4"/><circle cx="162.925" cy="91.828" r="7.861" fill="#fff" stroke="#E1E4E5" stroke-width="4"/><circle cx="191.699" cy="91.569" r="8.146" fill="#fff" stroke="#E1E4E5" stroke-width="4"/><path d="M756.904 379.734c-16.843 8.355-39.198-2.388-39.198-2.388s4.968-24.285 21.82-32.628c16.844-8.356 39.19 2.376 39.19 2.376s-4.968 24.285-21.812 32.64z" fill="url(#a)"/><path d="M145.468 421.662c22.343-4.274 36.022-30.983 36.022-30.983s-22.556-19.764-44.899-15.473c-22.343 4.273-36.023 30.964-36.023 30.964s22.557 19.765 44.9 15.492z" fill="url(#b)"/><circle cx="685.133" cy="122.081" r="20.39" transform="rotate(180 685.133 122.081)" fill="#009688"/><circle cx="483.205" cy="104.231" r="16.786" transform="rotate(180 483.205 104.231)" fill="#009688"/><circle r="8.921" transform="matrix(-1 0 0 1 777.755 457.95)" fill="#009688"/><circle r="8.766" transform="matrix(-1 0 0 1 463.132 514.772)" fill="#E1E4E5"/><circle r="12.609" transform="matrix(-1 0 0 1 163.464 214.009)" fill="#E1E4E5"/><circle r="14.018" transform="matrix(-1 0 0 1 776.279 113.517)" fill="#E1E4E5"/><circle r="12.588" transform="scale(1 -1) rotate(-75 -124.823 -225.948)" fill="#E1E4E5"/><circle r="5.239" transform="matrix(-1 0 0 1 744.49 272.381)" fill="#E1E4E5"/><circle r="9.113" transform="scale(1 -1) rotate(-75 214.364 -413.883)" fill="#E1E4E5"/><defs><linearGradient id="a" x1="692.224" y1="405.796" x2="831.148" y2="295.907" gradientUnits="userSpaceOnUse"><stop stop-color="#fff"/><stop offset="1" stop-color="#EEE"/></linearGradient><linearGradient id="b" x1="226.86" y1="399.448" x2="12.594" y2="395.213" gradientUnits="userSpaceOnUse"><stop stop-color="#fff"/><stop offset="1" stop-color="#EEE"/></linearGradient></defs></svg>