<svg width="900" height="600" viewBox="0 0 900 600" fill="none" xmlns="http://www.w3.org/2000/svg"><path fill="transparent" d="M0 0h900v600H0z"/><path d="M573.558 429.617H96.477c-13.925 0-25.218-11.292-25.218-25.217V105.477c0-13.925 11.293-25.218 25.218-25.218h477.081c13.925 0 25.218 11.293 25.218 25.218V404.4c0 13.925-11.293 25.217-25.218 25.217z" fill="#fff" stroke="#E1E4E5" stroke-width="4.518"/><rect x="214.805" y="187.313" width="60.481" height="179.609" rx="15.212" fill="#009688"/><rect x="394.413" y="187.313" width="60.481" height="179.609" rx="15.212" fill="#009688"/><rect x="125" y="260.624" width="60.481" height="106.299" rx="15.212" fill="#E1E4E5"/><rect x="304.609" y="260.624" width="60.481" height="106.299" rx="15.212" fill="#E1E4E5"/><rect x="484.218" y="260.624" width="60.481" height="106.299" rx="15.212" fill="#E1E4E5"/><path d="M343.526 230.488c-16.233 8.052-37.778-2.302-37.778-2.302s4.788-23.405 21.03-31.446c16.233-8.052 37.769 2.29 37.769 2.29s-4.788 23.405-21.021 31.458z" fill="url(#a)"/><circle r="13.51" transform="matrix(-1 0 0 1 513.511 222.51)" fill="#E1E4E5"/><circle r="12.132" transform="scale(1 -1) rotate(-75 -68.44 -212.838)" fill="#E1E4E5"/><path d="M598.776 113.208H71.259v-7.731c0-13.925 11.293-25.218 25.218-25.218h477.081c13.925 0 25.218 11.293 25.218 25.218v7.731z" fill="#fff" stroke="#E1E4E5" stroke-width="4.518"/><path d="M95.545 101.721a5.083 5.083 0 1 0 0-10.167 5.083 5.083 0 0 0 0 10.167zm20.332 0a5.083 5.083 0 1 0 0-10.167 5.083 5.083 0 0 0 0 10.167zm20.897 0c3.119 0 5.648-2.276 5.648-5.083 0-2.808-2.529-5.083-5.648-5.083-3.119 0-5.648 2.275-5.648 5.083 0 2.807 2.529 5.083 5.648 5.083z" fill="#E1E4E5"/><path d="M802.558 519.617H325.477c-13.925 0-25.218-11.292-25.218-25.217V195.477c0-13.925 11.293-25.218 25.218-25.218h477.081c13.925 0 25.218 11.293 25.218 25.218V494.4c0 13.925-11.293 25.217-25.218 25.217z" fill="#fff" stroke="#E1E4E5" stroke-width="4.518"/><rect x="444" y="312" width="60" height="167" rx="15.212" fill="#009688"/><rect x="623" y="312" width="61" height="167" rx="15.212" fill="#009688"/><rect x="354" y="372.31" width="60.481" height="106.299" rx="15.212" fill="#E1E4E5"/><rect x="533.609" y="372.31" width="60.481" height="106.299" rx="15.212" fill="#E1E4E5"/><rect x="713.218" y="372.31" width="60.481" height="106.299" rx="15.212" fill="#E1E4E5"/><path d="M572.526 339.488c-16.233 8.052-37.778-2.302-37.778-2.302s4.788-23.405 21.03-31.446c16.233-8.052 37.769 2.29 37.769 2.29s-4.788 23.405-21.021 31.458z" fill="url(#b)"/><circle r="13.51" transform="matrix(-1 0 0 1 742.511 331.51)" fill="#E1E4E5"/><circle r="12.132" transform="scale(1 -1) rotate(-75 -24.966 -416.557)" fill="#E1E4E5"/><path d="M827.776 203.208H300.259v-7.731c0-13.925 11.293-25.218 25.218-25.218h477.081c13.925 0 25.218 11.293 25.218 25.218v7.731z" fill="#fff" stroke="#E1E4E5" stroke-width="4.518"/><path d="M324.545 191.721a5.083 5.083 0 1 0 0-10.167 5.083 5.083 0 0 0 0 10.167zm20.332 0a5.083 5.083 0 1 0 0-10.167 5.083 5.083 0 0 0 0 10.167zm20.897 0c3.119 0 5.648-2.276 5.648-5.083 0-2.808-2.529-5.083-5.648-5.083-3.119 0-5.648 2.275-5.648 5.083 0 2.807 2.529 5.083 5.648 5.083z" fill="#E1E4E5"/><rect x="477" y="78" width="206.559" height="192.859" rx="11.013" fill="#009688"/><rect x="544.397" y="209.384" width="112" height="9" rx="4.5" fill="#fff"/><rect x="525.414" y="190.148" width="81.148" height="9.485" rx="4.742" transform="rotate(-90 525.414 190.148)" fill="#fff"/><rect x="504.397" y="190.384" width="51" height="9" rx="4.5" transform="rotate(-90 504.397 190.384)" fill="#fff"/><rect x="566.515" y="190.148" width="81.148" height="9.485" rx="4.742" transform="rotate(-90 566.515 190.148)" fill="#fff"/><rect x="607.616" y="190.148" width="81.148" height="9.485" rx="4.742" transform="rotate(-90 607.616 190.148)" fill="#fff"/><rect x="544.783" y="229.955" width="81.565" height="9.301" rx="4.651" fill="#fff"/><rect x="546.492" y="190.148" width="52.694" height="8.431" rx="4.215" transform="rotate(-90 546.492 190.148)" fill="#fff"/><rect x="587.593" y="190.148" width="52.694" height="8.431" rx="4.215" transform="rotate(-90 587.593 190.148)" fill="#fff"/><rect x="628.694" y="190.148" width="52.694" height="8.431" rx="4.215" transform="rotate(-90 628.694 190.148)" fill="#fff"/><rect x="648.397" y="190.384" width="69" height="8" rx="4" transform="rotate(-90 648.397 190.384)" fill="#fff"/><circle cx="519.025" cy="224.23" r="15.025" fill="#fff"/><defs><linearGradient id="a" x1="281.19" y1="255.605" x2="415.079" y2="149.699" gradientUnits="userSpaceOnUse"><stop stop-color="#fff"/><stop offset="1" stop-color="#EEE"/></linearGradient><linearGradient id="b" x1="510.19" y1="364.605" x2="644.079" y2="258.699" gradientUnits="userSpaceOnUse"><stop stop-color="#fff"/><stop offset="1" stop-color="#EEE"/></linearGradient></defs></svg>