<svg width="900" height="600" viewBox="0 0 900 600" fill="none" xmlns="http://www.w3.org/2000/svg"><path fill="transparent" d="M0 0h900v600H0z"/><path d="M771.886 535.497H128.079c-18.791 0-34.03-15.239-34.03-34.03V98.079c0-18.791 15.239-34.03 34.03-34.03h643.807c18.792 0 34.031 15.239 34.031 34.03v403.388c0 18.791-15.239 34.03-34.031 34.03z" fill="#fff" stroke="#E1E4E5" stroke-width="6.097"/><path d="M805.917 108.512H94.049V98.079c0-18.791 15.239-34.03 34.03-34.03h643.807c18.792 0 34.031 15.239 34.031 34.03v10.433z" fill="#fff" stroke="#E1E4E5" stroke-width="6.097"/><path d="M126.822 93.01a6.86 6.86 0 1 0 0-13.718 6.86 6.86 0 0 0 0 13.718zm27.437 0a6.86 6.86 0 1 0 .001-13.719 6.86 6.86 0 0 0-.001 13.72zm28.2 0c4.209 0 7.622-3.07 7.622-6.86 0-3.787-3.413-6.859-7.622-6.859s-7.622 3.072-7.622 6.86c0 3.788 3.413 6.86 7.622 6.86z" fill="#E1E4E5"/><path fill-rule="evenodd" clip-rule="evenodd" d="M440.618 216.77c4.043 2.682 9.719 5.947 16.364 8.396.133.049.268.094.408.15 18.643 6.739 35.561 3.771 48.927-8.582 5.387-4.98 10.088-9.484 14.233-13.459 17.165-16.46 24.997-23.969 39.768-25.904 12.462-1.634 21.886 9.044 31.86 20.346 9.531 10.799 19.377 21.953 32.94 21.986 5.652 1.519 24.201 3.499 47.262-25.636 18.055-22.809 29.163-21.751 37.278-17.503 2.984 1.563 6.664.59 8.527-2.213 2.196-3.305.996-7.768-2.543-9.568-5.49-2.794-11.867-4.686-19.356-3.622-11.237 1.596-22.469 9.663-34.336 24.659-18.94 23.927-32.133 21.358-33.466 21.018l-1.033-.523-1.714.084c-7.841.374-15.497-8.294-23.597-17.475h-.001c-11.288-12.791-24.08-27.287-43.56-24.736-19.094 2.501-29.092 12.087-47.242 29.491-4.103 3.936-8.757 8.398-14.052 13.292-9.539 8.815-21.334 10.819-35.059 5.958-.22-.076-.434-.155-.648-.234-4.971-1.832-9.336-4.261-12.605-6.351a6.713 6.713 0 0 0-1.157-.754l-.315-.211a6.642 6.642 0 0 0-2.128-.943c-4.926-2.138-10.528-3.397-16.947-2.485-11.237 1.595-22.469 9.662-34.336 24.659-18.94 23.927-32.133 21.357-33.466 21.017l-1.033-.523-1.714.084c-7.841.375-15.497-8.294-23.597-17.474v-.001c-11.289-12.791-24.081-27.287-43.561-24.735-19.094 2.5-29.092 12.087-47.242 29.49-4.103 3.936-8.757 8.398-14.052 13.292-9.539 8.816-21.334 10.819-35.059 5.958-.22-.076-.434-.155-.648-.234-5.76-2.123-10.706-5.046-14.077-7.316a6.654 6.654 0 0 0-8.744 1.157c-2.609 3.009-2.013 7.627 1.291 9.853 4.071 2.748 9.97 6.211 16.934 8.777.044.017.088.032.133.048.09.032.181.065.275.103 18.643 6.738 35.561 3.77 48.927-8.583 5.387-4.98 10.088-9.484 14.233-13.459 17.165-16.46 24.997-23.969 39.768-25.904 12.462-1.634 21.886 9.044 31.86 20.346 9.531 10.8 19.377 21.953 32.94 21.986 5.652 1.519 24.201 3.499 47.262-25.636 17.196-21.723 28.09-21.797 36.098-18.086z" fill="#009688"/><circle cx="201.066" cy="331.653" r="33.675" transform="rotate(-15 201.066 331.653)" fill="url(#a)"/><circle cx="201.066" cy="331.653" transform="rotate(-15 201.066 331.653)" fill="#fff" r="24.053"/><path d="M233.593 322.937a33.675 33.675 0 1 1-61.691-8.121l8.749 5.051a23.575 23.575 0 0 0 6.684 30.946 23.57 23.57 0 0 0 36.687-13.807 23.58 23.58 0 0 0-.187-11.454l9.758-2.615z" fill="#009688"/><circle cx="319.987" cy="331.653" r="33.675" transform="rotate(-105 319.987 331.653)" fill="url(#b)"/><circle cx="319.987" cy="331.652" transform="rotate(-105 319.987 331.652)" fill="#fff" r="24.053"/><path d="M311.271 299.126a33.663 33.663 0 0 1 30.919 7.209 33.67 33.67 0 0 1 11.183 29.713 33.685 33.685 0 0 1-18.492 25.807 33.682 33.682 0 0 1-31.731-1.039l5.051-8.749a23.575 23.575 0 0 0 35.156-17.337 23.568 23.568 0 0 0-18.017-26.034 23.568 23.568 0 0 0-11.454.188l-2.615-9.758z" fill="#009688"/><circle cx="438.908" cy="331.653" r="33.675" transform="rotate(-15 438.908 331.653)" fill="url(#c)"/><circle cx="438.909" cy="331.653" transform="rotate(-15 438.909 331.653)" fill="#fff" r="24.053"/><path d="M471.436 322.937a33.675 33.675 0 1 1-61.691-8.121l8.749 5.051a23.575 23.575 0 0 0 6.684 30.946 23.57 23.57 0 0 0 36.499-25.261l9.759-2.615z" fill="#009688"/><rect x="166.57" y="386.222" width="310.033" height="118.896" rx="14.861" fill="#009688"/><rect x="255.704" y="422.735" width="189.007" height="13.961" rx="6.98" fill="#fff"/><rect x="255.704" y="453.878" width="122.425" height="13.961" rx="6.98" fill="#fff"/><circle cx="217.044" cy="445.287" r="22.552" fill="#fff"/><path d="m568.989 258.028-20.554 20.534-9.985-9.956m75.072-20.405h60.748m-60.274 30.138h100.459M568.989 328.35l-20.554 20.534-9.985-9.956m75.072-20.404h60.748m-60.274 30.138h100.459m-.001 70.32H613.522m100.932 69.874H613.522m100.933-100.011H613.996m100.459 69.874H613.996" stroke="#009688" stroke-width="14.844" stroke-linecap="round" stroke-linejoin="round"/><path clip-rule="evenodd" d="M553.718 429.029c11.097 0 20.092-8.995 20.092-20.092 0-11.096-8.995-20.092-20.092-20.092-11.096 0-20.092 8.996-20.092 20.092 0 11.097 8.996 20.092 20.092 20.092zm0 69.874c11.097 0 20.092-8.995 20.092-20.092 0-11.096-8.995-20.092-20.092-20.092-11.096 0-20.092 8.996-20.092 20.092 0 11.097 8.996 20.092 20.092 20.092z" stroke="#009688" stroke-width="14.844" stroke-linecap="round" stroke-linejoin="round"/><ellipse cx="292.348" cy="210.64" rx="17.536" ry="17.266" transform="rotate(90 292.348 210.64)" fill="#fff" stroke="#009688" stroke-width="8.097"/><ellipse cx="434.838" cy="205.386" rx="17.536" ry="17.266" transform="rotate(90 434.838 205.386)" fill="#fff" stroke="#009688" stroke-width="8.097"/><ellipse cx="560.339" cy="167.601" rx="17.536" ry="17.266" transform="rotate(90 560.339 167.601)" fill="#fff" stroke="#009688" stroke-width="8.097"/><ellipse cx="704.732" cy="163.553" rx="17.536" ry="17.266" transform="rotate(90 704.732 163.553)" fill="#fff" stroke="#009688" stroke-width="8.097"/><ellipse cx="189.234" cy="258.015" rx="17.536" ry="17.266" transform="rotate(90 189.234 258.015)" fill="#fff" stroke="#009688" stroke-width="8.097"/><defs><linearGradient id="a" x1="202.502" y1="403.087" x2="200.425" y2="224.714" gradientUnits="userSpaceOnUse"><stop stop-color="#fff"/><stop offset="1" stop-color="#EEE"/></linearGradient><linearGradient id="b" x1="321.423" y1="403.087" x2="319.346" y2="224.714" gradientUnits="userSpaceOnUse"><stop stop-color="#fff"/><stop offset="1" stop-color="#EEE"/></linearGradient><linearGradient id="c" x1="440.344" y1="403.087" x2="438.268" y2="224.714" gradientUnits="userSpaceOnUse"><stop stop-color="#fff"/><stop offset="1" stop-color="#EEE"/></linearGradient></defs></svg>