<svg width="900" height="600" viewBox="0 0 900 600" fill="none" xmlns="http://www.w3.org/2000/svg"><path fill="transparent" d="M0 0h900v600H0z"/><path d="M565.436 184.073c-15.831-51.669-152.655-118.356-260.752-35.455-50.274 38.558-34.669 66.229-63.615 120.857-17.255 32.559-47.818 63.604-45.776 100.984 1.756 32.268 18.639 61.45 41.479 76.083 51.367 32.907 132.751 38.493 175.297-58.641 42.546-97.134 194.18-70.565 153.367-203.828z" fill="url(#a)"/><path fill-rule="evenodd" clip-rule="evenodd" d="M673.87 395.373v60.17c0 12.016-9.752 21.769-21.769 21.769H260.257c-12.017 0-21.769-9.753-21.769-21.769v-60.17a8.339 8.339 0 0 1 4.593-7.445 70.399 70.399 0 0 0 38.945-63c0-26.689-15.086-51.07-38.945-63a8.339 8.339 0 0 1-4.593-7.445v-60.17c0-12.016 9.752-21.769 21.769-21.769h391.844c12.017 0 21.769 9.753 21.769 21.769v60.17a8.339 8.339 0 0 1-4.593 7.445l-.958.501a70.403 70.403 0 0 0-37.987 62.499c0 26.667 15.064 51.07 38.923 63h.022a8.339 8.339 0 0 1 4.593 7.445z" fill="#009688"/><path d="m394.017 380.876 108.846-108.845m1.497 101.878c-3.004 0-5.442 2.438-5.42 5.442a5.444 5.444 0 0 0 5.442 5.442 5.444 5.444 0 0 0 5.442-5.442c0-3.004-2.438-5.442-5.464-5.442M395.514 265.063c-3.004 0-5.442 2.438-5.42 5.442a5.444 5.444 0 0 0 5.442 5.442 5.444 5.444 0 0 0 5.442-5.442c0-3.004-2.438-5.442-5.464-5.442" stroke="#fff" stroke-width="29.258" stroke-linecap="round" stroke-linejoin="round"/><rect x="644.844" y="159.604" width="34.477" height="4.017" rx="2.008" transform="rotate(-45 644.844 159.604)" fill="#E1E4E5"/><rect x="658.061" y="159.699" width="12.801" height="4.017" rx="2.008" transform="rotate(-45 658.061 159.699)" fill="#E1E4E5"/><path d="M699.988 337.48c17.74-12.165 19.477-40.487 19.477-40.487s-27.029-8.582-44.762 3.598c-17.741 12.164-19.485 40.471-19.485 40.471s27.03 8.582 44.77-3.582z" fill="url(#b)"/><path d="M408.232 125.358c-7.439 2.188-17.356 6.592-22.697 14.619-5.339 8.027 1.715 9.954 10.803 8 9.087-1.955 17.914-7.589 21.226-15.055 3.313-7.465-3.226-9.361-9.332-7.564zm-65.127 378.074c-3.789 1.115-8.841 3.358-11.562 7.447-2.72 4.089.874 5.071 5.503 4.075 4.629-.995 9.126-3.865 10.813-7.669 1.688-3.803-1.643-4.768-4.754-3.853zm122.392-12.382c-3.789 1.115-8.841 3.359-11.562 7.448-2.72 4.089.874 5.071 5.503 4.075 4.629-.996 9.126-3.866 10.813-7.669 1.688-3.803-1.643-4.769-4.754-3.854zm122.404 11.157c-3.79 1.115-8.842 3.359-11.563 7.448-2.719 4.089.874 5.071 5.504 4.075 4.629-.996 9.125-3.866 10.813-7.669 1.687-3.803-1.644-4.769-4.754-3.854zM238.818 321.489c-3.593 1.057-8.383 3.184-10.963 7.061-2.579 3.877.829 4.808 5.218 3.864s8.653-3.665 10.253-7.271c1.6-3.606-1.558-4.522-4.508-3.654z" fill="#E1E4E5"/><path d="M209.464 214.401c-10.606 10.794-30.437 8.518-30.437 8.518s-2.625-19.777 7.99-30.564c10.606-10.794 30.428-8.525 30.428-8.525s2.624 19.777-7.981 30.571z" fill="url(#c)"/><path clip-rule="evenodd" d="M618.395 144.43c-4.736 4.588-12.259 4.588-16.995 0v0c-4.954-4.799-4.954-12.745 0-17.544v0c4.736-4.588 12.259-4.588 16.995 0v0c4.954 4.799 4.954 12.745 0 17.544v0z" stroke="#E1E4E5" stroke-width="6.3" stroke-linecap="round" stroke-linejoin="round"/><path d="M221.127 115.363h-.263c-1.558 21.571-17.973 21.903-17.973 21.903s18.101.345 18.101 25.27c0-24.925 18.101-25.27 18.101-25.27s-16.408-.332-17.966-21.903zm-22.542 144.811h-.16c-.944 12.541-10.893 12.734-10.893 12.734s10.971.201 10.971 14.692c0-14.491 10.97-14.692 10.97-14.692s-9.944-.193-10.888-12.734zm-50.928 77.89h-.327C145.395 365.655 125 366.08 125 366.08s22.49.442 22.49 32.322c0-31.88 22.489-32.322 22.489-32.322s-20.386-.425-22.322-28.016zm588.021-134.937h-.327c-1.935 28.092-22.33 28.525-22.33 28.525s22.49.45 22.49 32.91c0-32.46 22.489-32.91 22.489-32.91s-20.386-.433-22.322-28.525zm-32.424 227.09h-.208c-1.227 17.056-14.16 17.319-14.16 17.319s14.261.273 14.261 19.981c0-19.708 14.262-19.981 14.262-19.981s-12.928-.263-14.155-17.319zM507.425 110.974h-.199c-1.18 17.057-13.616 17.319-13.616 17.319s13.713.273 13.713 19.981c0-19.708 13.713-19.981 13.713-19.981s-12.431-.262-13.611-17.319z" fill="#E1E4E5"/><rect x="271.884" y="451.212" width="39.896" height="4.648" rx="2.324" transform="rotate(-45 271.884 451.212)" fill="#fff"/><rect x="292.278" y="451.212" width="39.896" height="4.648" rx="2.324" transform="rotate(-45 292.278 451.212)" fill="#fff"/><rect x="313.947" y="451.212" width="39.896" height="4.648" rx="2.324" transform="rotate(-45 313.947 451.212)" fill="#fff"/><defs><linearGradient id="a" x1="335.686" y1="-76.178" x2="456.972" y2="827.641" gradientUnits="userSpaceOnUse"><stop stop-color="#fff"/><stop offset="1" stop-color="#EEE"/></linearGradient><linearGradient id="b" x1="762.096" y1="287.407" x2="574.844" y2="364.888" gradientUnits="userSpaceOnUse"><stop stop-color="#fff"/><stop offset="1" stop-color="#EEE"/></linearGradient><linearGradient id="c" x1="167.15" y1="251.271" x2="243.821" y2="131.083" gradientUnits="userSpaceOnUse"><stop stop-color="#fff"/><stop offset="1" stop-color="#EEE"/></linearGradient></defs></svg>