<svg width="900" height="600" viewBox="0 0 900 600" fill="none" xmlns="http://www.w3.org/2000/svg"><path fill="transparent" d="M0 0h900v600H0z"/><path fill-rule="evenodd" clip-rule="evenodd" d="M256.694 60h326.879c5.692 0 9.563 5.776 7.4 11.041l-42.615 103.691a7.997 7.997 0 0 0 0 6.082l42.615 103.692c2.163 5.265-1.708 11.041-7.4 11.041h-197.14" fill="#009688"/><path d="m452.212 120.576 10.326 16.122c1.63 2.537 5.253 5.073 7.97 5.797l18.478 4.71c11.412 2.899 14.492 12.681 7.065 21.739l-12.137 14.674c-1.812 2.355-3.261 6.521-3.08 9.42l1.087 19.021c.724 11.775-7.609 17.753-18.478 13.405l-17.753-7.065c-2.717-1.087-7.246-1.087-9.963 0l-17.753 7.065c-10.869 4.348-19.202-1.811-18.478-13.405l1.087-19.021c.181-2.899-1.268-7.247-3.079-9.42l-12.138-14.674c-7.427-9.058-4.347-18.84 7.065-21.739l18.478-4.71c2.898-.724 6.521-3.442 7.971-5.797l10.325-16.122c6.522-9.783 16.666-9.783 23.007 0z" fill="#fff"/><path d="M492.727 483.014 255.99 72.974" stroke="#009688" stroke-width="24" stroke-linecap="round" stroke-linejoin="round"/><path fill-rule="evenodd" clip-rule="evenodd" d="M75 538.247s96.178-112.511 231.316-114.091c135.751-1.587 243.753 110.239 253.702 116.016L75 538.247z" fill="#fff" stroke="#E1E4E5" stroke-width="11"/><path fill-rule="evenodd" clip-rule="evenodd" d="M340.716 538.247s96.177-112.511 231.316-114.091c135.751-1.587 243.752 110.239 253.701 116.016l-485.017-1.925z" fill="#fff" stroke="#E1E4E5" stroke-width="11"/><path fill-rule="evenodd" clip-rule="evenodd" d="M231.645 538.247s96.407-112.511 231.869-114.091c136.076-1.587 244.336 110.239 254.309 116.016l-486.178-1.925z" fill="#fff" stroke="#E1E4E5" stroke-width="11"/><path fill-rule="evenodd" clip-rule="evenodd" d="M385.968 533.21v-27.848 27.848z" fill="#fff"/><path d="M385.968 533.21v-27.848" stroke="#E1E4E5" stroke-width="11"/><path fill-rule="evenodd" clip-rule="evenodd" d="M403.373 533.21v-19.726 19.726z" fill="#fff"/><path d="M403.373 533.21v-19.726" stroke="#E1E4E5" stroke-width="11"/><path fill-rule="evenodd" clip-rule="evenodd" d="M369.724 533.21v-19.726 19.726z" fill="#fff"/><path d="M369.724 533.21v-19.726" stroke="#E1E4E5" stroke-width="11"/><path fill-rule="evenodd" clip-rule="evenodd" d="M164.345 533.21v-27.848 27.848z" fill="#fff"/><path d="M164.345 533.21v-27.848" stroke="#E1E4E5" stroke-width="11"/><path fill-rule="evenodd" clip-rule="evenodd" d="M181.75 533.21v-19.726 19.726z" fill="#fff"/><path d="M181.75 533.21v-19.726" stroke="#E1E4E5" stroke-width="11"/><path fill-rule="evenodd" clip-rule="evenodd" d="M148.101 533.21v-19.726 19.726z" fill="#fff"/><path d="M148.101 533.21v-19.726" stroke="#E1E4E5" stroke-width="11"/><path fill-rule="evenodd" clip-rule="evenodd" d="M541.453 533.21v-27.848 27.848z" fill="#fff"/><path d="M541.453 533.21v-27.848" stroke="#E1E4E5" stroke-width="11"/><path fill-rule="evenodd" clip-rule="evenodd" d="M558.858 533.21v-19.726 19.726z" fill="#fff"/><path d="M558.858 533.21v-19.726" stroke="#E1E4E5" stroke-width="11"/><path fill-rule="evenodd" clip-rule="evenodd" d="M525.208 533.21v-19.726 19.726z" fill="#fff"/><path d="M525.208 533.21v-19.726" stroke="#E1E4E5" stroke-width="11"/><path d="M353.463 393.352c-12.105 2.399-25.895-10.353-25.895-10.353s5.847-16.635 17.957-19.024c12.106-2.399 25.891 10.342 25.891 10.342s-5.847 16.636-17.953 19.035z" fill="url(#a)"/><path d="M732.406 439.881c14.468 9.965 36.571 2.999 36.571 2.999s-1.369-23.12-15.847-33.075c-14.467-9.966-36.56-3.009-36.56-3.009s1.368 23.12 15.836 33.085z" fill="url(#b)"/><path d="M654.99 294.022c-7.864 8.005-22.571 6.317-22.571 6.317s-1.947-14.666 5.926-22.666c7.864-8.005 22.564-6.322 22.564-6.322s1.946 14.666-5.919 22.671z" fill="url(#c)"/><circle cx="500.038" cy="333.512" r="9.367" transform="rotate(180 500.038 333.512)" fill="#009688"/><circle r="6.962" transform="matrix(-1 0 0 1 316.348 317.389)" fill="#009688"/><circle r="7.378" transform="matrix(-1 0 0 1 356.926 212.989)" fill="#009688"/><ellipse rx="10.944" ry="10.032" transform="matrix(-1 0 0 1 657.236 365.917)" fill="#E1E4E5"/><circle r="6.382" transform="matrix(-1 0 0 1 238.026 362.062)" fill="#E1E4E5"/><circle r="8.711" transform="matrix(-1 0 0 1 186.093 179.284)" fill="#E1E4E5"/><ellipse rx="4.607" ry="5.119" transform="matrix(-1 0 0 1 630.422 92.762)" fill="#E1E4E5"/><circle r="12.16" transform="scale(1 -1) rotate(-75 -19.297 -291.664)" fill="#E1E4E5"/><circle r="11.805" transform="matrix(-1 0 0 1 189.187 91.258)" fill="#E1E4E5"/><circle transform="matrix(0 1 1 0 580.255 374.825)" fill="#E1E4E5" r="12.798"/><path d="M596.878 155.215h.236c1.397 20.243 16.117 20.555 16.117 20.555s-16.232.324-16.232 23.715c0-23.391-16.232-23.715-16.232-23.715s14.714-.312 16.111-20.555z" fill="#E1E4E5"/><defs><linearGradient id="a" x1="307.604" y1="398.169" x2="412.084" y2="349.233" gradientUnits="userSpaceOnUse"><stop stop-color="#fff"/><stop offset="1" stop-color="#EEE"/></linearGradient><linearGradient id="b" x1="788.764" y1="472.578" x2="674.878" y2="352.489" gradientUnits="userSpaceOnUse"><stop stop-color="#fff"/><stop offset="1" stop-color="#EEE"/></linearGradient><linearGradient id="c" x1="623.611" y1="321.364" x2="680.469" y2="232.235" gradientUnits="userSpaceOnUse"><stop stop-color="#fff"/><stop offset="1" stop-color="#EEE"/></linearGradient></defs></svg>