<svg width="900" height="600" viewBox="0 0 900 600" fill="none" xmlns="http://www.w3.org/2000/svg"><path fill="transparent" d="M0 0h900v600H0z"/><circle cx="457.323" cy="301.485" r="194.959" fill="#fff" stroke="#E1E4E5" stroke-width="11"/><path d="M561.327 246.336v99.665m-67.451-88.315v88.94m-67.93-145.113v145.113m-67.25-43.69v43.69" stroke="#009688" stroke-width="24" stroke-linecap="round" stroke-linejoin="round"/><rect x="288.02" y="396.179" width="337.318" height="134.603" rx="67.301" fill="#fff" stroke="#E1E4E5" stroke-width="11"/><rect x="305.682" y="413.841" width="100.536" height="99.178" rx="49.589" fill="#009688"/><path fill-rule="evenodd" clip-rule="evenodd" d="M380.724 485.899v3.605c0 1.989-1.594 3.604-3.558 3.604h-42.684c-1.964 0-3.558-1.615-3.558-3.604v-3.663c0-10.907 12.301-17.993 24.9-17.993 12.599 0 24.9 7.09 24.9 17.993m-15.969-49.658c4.933 4.932 4.933 12.929 0 17.862-4.932 4.932-12.929 4.932-17.861 0-4.933-4.933-4.933-12.93 0-17.862 4.932-4.933 12.929-4.933 17.861 0z" fill="#fff"/><rect x="422.622" y="430.144" width="149.198" height="11.287" rx="5.643" fill="#E1E4E5"/><rect x="422.521" y="457.316" width="116.839" height="13.586" rx="6.793" fill="#E1E4E5"/><rect x="422.521" y="487.206" width="116.839" height="10.869" rx="5.434" fill="#E1E4E5"/><circle cx="694.398" cy="363.301" r="16.303" transform="rotate(-180 694.398 363.301)" fill="#009688"/><circle cx="221.315" cy="373.878" r="22.805" transform="rotate(-180 221.315 373.878)" fill="#009688"/><circle r="13.586" transform="matrix(-1 0 0 1 692.11 272.232)" fill="#E1E4E5"/><circle r="8.831" transform="matrix(-1 0 0 1 668.077 210.345)" fill="#E1E4E5"/><circle r="12.381" transform="scale(1 -1) rotate(-75 -84.332 -276.075)" fill="#E1E4E5"/><path d="M216.308 178.501c-11.445 16.946-2.946 42.827-2.946 42.827s27.051-1.61 38.484-18.567c11.445-16.945 2.957-42.815 2.957-42.815s-27.051 1.61-38.495 18.555z" fill="url(#a)"/><rect x="274.606" y="133.498" width="74.189" height="74.189" rx="37.095" fill="#009688"/><path fill-rule="evenodd" clip-rule="evenodd" d="M328.56 186.153v2.481c0 1.369-1.097 2.48-2.448 2.48h-29.373c-1.351 0-2.448-1.111-2.448-2.48v-2.52c0-7.506 8.465-12.383 17.135-12.383 8.67 0 17.134 4.879 17.134 12.383m-10.991-34.173a8.692 8.692 0 1 1-12.294 12.292 8.692 8.692 0 0 1 12.294-12.292z" fill="#fff"/><rect x="425.882" y="69" width="74.189" height="74.189" rx="37.095" fill="#009688"/><path fill-rule="evenodd" clip-rule="evenodd" d="M479.836 121.656v2.481c0 1.369-1.096 2.48-2.447 2.48h-29.374c-1.351 0-2.447-1.111-2.447-2.48v-2.52c0-7.506 8.464-12.383 17.134-12.383s17.134 4.879 17.134 12.383m-10.991-34.174a8.692 8.692 0 1 1-12.293 12.292 8.692 8.692 0 0 1 12.293-12.292z" fill="#fff"/><rect x="551.359" y="120.598" width="74.189" height="74.189" rx="37.095" fill="#009688"/><path fill-rule="evenodd" clip-rule="evenodd" d="M605.314 173.254v2.481c0 1.369-1.097 2.48-2.448 2.48h-29.374c-1.351 0-2.447-1.111-2.447-2.48v-2.52c0-7.506 8.464-12.382 17.134-12.382s17.135 4.878 17.135 12.382m-10.992-34.174a8.692 8.692 0 0 1-12.291 12.292 8.692 8.692 0 0 1 12.291-12.292z" fill="#fff"/><path fill-rule="evenodd" clip-rule="evenodd" d="M194.048 451.458h3.505a1.53 1.53 0 0 1 1.529 1.53v3.504a1.53 1.53 0 0 1-1.529 1.53h-3.505c-.84 0-1.53-.689-1.53-1.53v-3.504a1.527 1.527 0 0 1 1.53-1.53zm12.151 0h3.504c.841 0 1.53.689 1.53 1.53v3.504a1.53 1.53 0 0 1-1.53 1.53h-3.504c-.841 0-1.53-.689-1.53-1.53v-3.504c0-.841.689-1.53 1.53-1.53zm12.159 0h3.505c.84 0 1.53.689 1.53 1.53v3.504c0 .848-.69 1.53-1.53 1.53h-3.505c-.84 0-1.53-.689-1.53-1.53v-3.504a1.527 1.527 0 0 1 1.53-1.53zm12.151 0h3.505c.84 0 1.529.689 1.529 1.53v3.504a1.53 1.53 0 0 1-1.529 1.53h-3.505a1.537 1.537 0 0 1-1.537-1.53v-3.504a1.546 1.546 0 0 1 1.537-1.53zm12.152 0h3.505c.847 0 1.537.689 1.537 1.53v3.504c0 .848-.69 1.53-1.537 1.53h-3.505c-.84 0-1.53-.689-1.53-1.53v-3.504c0-.841.69-1.53 1.53-1.53zm-36.016 13.25h3.504c.841 0 1.53.689 1.53 1.53v3.512c0 .84-.689 1.529-1.53 1.529h-3.504a1.53 1.53 0 0 1-1.53-1.529v-3.505a1.528 1.528 0 0 1 1.53-1.537zm12.151 0h3.504c.841 0 1.53.689 1.53 1.53v3.512c0 .84-.689 1.529-1.53 1.529h-3.504c-.84 0-1.53-.689-1.53-1.529v-3.505a1.528 1.528 0 0 1 1.53-1.537zm12.152 0h3.504c.848 0 1.537.689 1.537 1.53v3.512c0 .84-.689 1.529-1.537 1.529h-3.504c-.841 0-1.53-.689-1.53-1.529v-3.505c0-.848.689-1.537 1.53-1.537zm-12.59-27.486h3.505c.84 0 1.53.69 1.53 1.53v3.505c0 .847-.69 1.53-1.53 1.53h-3.505c-.84 0-1.53-.69-1.53-1.53v-3.505a1.527 1.527 0 0 1 1.53-1.53zm-12.147 0h3.505c.84 0 1.529.69 1.529 1.53v3.505c0 .847-.689 1.53-1.529 1.53h-3.505c-.84 0-1.53-.69-1.53-1.53v-3.505a1.527 1.527 0 0 1 1.53-1.53zm24.298 0h3.505c.84 0 1.529.69 1.529 1.53v3.505c0 .847-.689 1.53-1.529 1.53h-3.505c-.847 0-1.537-.69-1.537-1.53v-3.505c.007-.84.697-1.53 1.537-1.53zm420.886 18.927h3.504c.848 0 1.53.689 1.53 1.529v3.505a1.53 1.53 0 0 1-1.53 1.53h-3.504c-.841 0-1.53-.69-1.53-1.53v-3.505a1.526 1.526 0 0 1 1.53-1.529zm12.15 0h3.505c.84 0 1.53.689 1.53 1.529v3.505c0 .848-.69 1.53-1.53 1.53h-3.505c-.84 0-1.529-.69-1.529-1.53v-3.505c0-.84.689-1.529 1.529-1.529zm12.16 0h3.504c.841 0 1.53.689 1.53 1.529v3.505a1.53 1.53 0 0 1-1.53 1.53h-3.504c-.841 0-1.53-.69-1.53-1.53v-3.505a1.526 1.526 0 0 1 1.53-1.529zm12.15 0h3.505c.84 0 1.53.689 1.53 1.529v3.505c0 .848-.69 1.53-1.53 1.53h-3.505c-.847 0-1.537-.69-1.537-1.53v-3.505a1.547 1.547 0 0 1 1.537-1.529zm12.153 0h3.504c.848 0 1.537.689 1.537 1.529v3.505c0 .848-.689 1.53-1.537 1.53h-3.504c-.841 0-1.53-.69-1.53-1.53v-3.505c0-.84.689-1.529 1.53-1.529zm-36.017 13.25h3.505c.84 0 1.529.689 1.529 1.53v3.511c0 .841-.689 1.53-1.529 1.53h-3.505c-.847 0-1.53-.689-1.53-1.53v-3.504a1.528 1.528 0 0 1 1.53-1.537zm12.151 0h3.505c.84 0 1.53.689 1.53 1.53v3.511c0 .841-.69 1.53-1.53 1.53h-3.505c-.84 0-1.53-.689-1.53-1.53v-3.504a1.528 1.528 0 0 1 1.53-1.537zm12.152 0h3.505c.847 0 1.537.689 1.537 1.53v3.511c0 .841-.69 1.53-1.537 1.53h-3.505c-.84 0-1.53-.689-1.53-1.53v-3.504c0-.848.69-1.537 1.53-1.537zm-12.589-27.485h3.504c.841 0 1.53.689 1.53 1.53v3.504a1.53 1.53 0 0 1-1.53 1.53h-3.504c-.841 0-1.53-.689-1.53-1.53v-3.504a1.526 1.526 0 0 1 1.53-1.53zm-12.148 0h3.505c.84 0 1.53.689 1.53 1.53v3.504c0 .848-.69 1.53-1.53 1.53h-3.505c-.84 0-1.53-.689-1.53-1.53v-3.504a1.527 1.527 0 0 1 1.53-1.53zm24.298 0h3.505c.84 0 1.53.689 1.53 1.53v3.504c0 .848-.69 1.53-1.53 1.53h-3.505a1.537 1.537 0 0 1-1.537-1.53v-3.504a1.547 1.547 0 0 1 1.537-1.53z" fill="#E1E4E5"/><defs><linearGradient id="a" x1="178.895" y1="244.508" x2="317.679" y2="111.035" gradientUnits="userSpaceOnUse"><stop stop-color="#fff"/><stop offset="1" stop-color="#EEE"/></linearGradient></defs></svg>