<svg width="900" height="600" viewBox="0 0 900 600" fill="none" xmlns="http://www.w3.org/2000/svg"><path fill="transparent" d="M0 0h900v600H0z"/><path fill-rule="evenodd" clip-rule="evenodd" d="m574.674 57.032 138.034 46.001a29.443 29.443 0 0 1 20.157 27.966v353.778c0 21.896-23.045 36.159-42.642 26.346l-107.798-53.9a58.862 58.862 0 0 0-52.721 0L405.61 519.286a58.862 58.862 0 0 1-52.721 0l-134.173-67.072a29.502 29.502 0 0 1-16.297-26.375V91.687c0-20.127 19.715-34.331 38.782-27.966l119.38 39.784a58.885 58.885 0 0 0 37.278 0l139.537-46.503c12.112-4.008 25.196-4.008 37.278.03z" fill="#fff" stroke="#E1E4E5" stroke-width="11"/><path fill-rule="evenodd" clip-rule="evenodd" d="M556.05 54.288v396.95-396.95z" fill="#fff"/><path d="M556.05 54.288v396.95" stroke="#E1E4E5" stroke-width="11"/><path fill-rule="evenodd" clip-rule="evenodd" d="M379.235 106.449v419.052-419.052z" fill="#fff"/><path d="M379.235 106.449v419.052" stroke="#E1E4E5" stroke-width="11"/><path d="m666 473.266 67.905 43.837 67.045-43.837-67.045-169.332L666 473.266z" fill="#fff" stroke="#E1E4E5" stroke-width="11"/><path stroke="#E1E4E5" stroke-width="11" d="M735.107 429.429v116.899m-41.843-92.149 42.128 30.095"/><path d="m458.336 453.325 67.905 43.837 67.045-43.837-67.045-169.332-67.905 169.332z" fill="#fff" stroke="#E1E4E5" stroke-width="11"/><path stroke="#E1E4E5" stroke-width="11" d="M527.443 409.488v116.899m-41.843-92.15 42.128 30.095"/><path d="m135.283 458.642 67.904 43.838 67.045-43.838-67.045-169.331-67.904 169.331z" fill="#fff" stroke="#E1E4E5" stroke-width="11"/><path stroke="#E1E4E5" stroke-width="11" d="M204.39 414.805v116.899m-41.843-92.149 42.128 30.095"/><path d="M263.578 235.807c27.009-118.42 202.912-118.283 229.784.137 15.766 69.466-27.558 128.265-65.535 164.639-27.558 26.528-71.157 26.528-98.851 0-37.841-36.374-81.165-95.31-65.398-164.776z" fill="#009688"/><path d="m342.774 278.764 28.798 29.298 56.365-57.149" stroke="#fff" stroke-width="24" stroke-linecap="round" stroke-linejoin="round"/><path fill-rule="evenodd" clip-rule="evenodd" d="M139.596 545.69v-37.022 37.022z" fill="#fff"/><path d="M139.596 545.69v-37.022" stroke="#E1E4E5" stroke-width="11"/><path fill-rule="evenodd" clip-rule="evenodd" d="M162.735 545.69v-26.224 26.224z" fill="#fff"/><path d="M162.735 545.69v-26.224" stroke="#E1E4E5" stroke-width="11"/><path fill-rule="evenodd" clip-rule="evenodd" d="M118 545.69v-26.224 26.224z" fill="#fff"/><path d="M118 545.69v-26.224" stroke="#E1E4E5" stroke-width="11"/><path fill-rule="evenodd" clip-rule="evenodd" d="M276.528 545.69v-37.022 37.022z" fill="#fff"/><path d="M276.528 545.69v-37.022" stroke="#E1E4E5" stroke-width="11"/><path fill-rule="evenodd" clip-rule="evenodd" d="M299.667 545.69v-26.224 26.224z" fill="#fff"/><path d="M299.667 545.69v-26.224" stroke="#E1E4E5" stroke-width="11"/><path fill-rule="evenodd" clip-rule="evenodd" d="M254.932 545.69v-26.224 26.224z" fill="#fff"/><path d="M254.932 545.69v-26.224" stroke="#E1E4E5" stroke-width="11"/><path fill-rule="evenodd" clip-rule="evenodd" d="M471.955 545.69v-37.022 37.022z" fill="#fff"/><path d="M471.955 545.69v-37.022" stroke="#E1E4E5" stroke-width="11"/><path fill-rule="evenodd" clip-rule="evenodd" d="M495.094 545.69v-26.224 26.224z" fill="#fff"/><path d="M495.094 545.69v-26.224" stroke="#E1E4E5" stroke-width="11"/><path fill-rule="evenodd" clip-rule="evenodd" d="M450.359 545.69v-26.224 26.224z" fill="#fff"/><path d="M450.359 545.69v-26.224" stroke="#E1E4E5" stroke-width="11"/><path fill-rule="evenodd" clip-rule="evenodd" d="M614.596 545.69v-37.022 37.022z" fill="#fff"/><path d="M614.596 545.69v-37.022" stroke="#E1E4E5" stroke-width="11"/><path fill-rule="evenodd" clip-rule="evenodd" d="M637.735 545.69v-26.224 26.224z" fill="#fff"/><path d="M637.735 545.69v-26.224" stroke="#E1E4E5" stroke-width="11"/><path fill-rule="evenodd" clip-rule="evenodd" d="M593 545.69v-26.224 26.224z" fill="#fff"/><path d="M593 545.69v-26.224" stroke="#E1E4E5" stroke-width="11"/></svg>