<svg width="900" height="600" viewBox="0 0 900 600" fill="none" xmlns="http://www.w3.org/2000/svg"><path fill="transparent" d="M0 0h900v600H0z"/><mask id="a" fill="#fff"><path fill-rule="evenodd" clip-rule="evenodd" d="M291.753 198.505v-58.753c0-32.448 26.305-58.752 58.753-58.752h293.762c32.448 0 58.752 26.304 58.752 58.752v146.881"/></mask><path fill-rule="evenodd" clip-rule="evenodd" d="M291.753 198.505v-58.753c0-32.448 26.305-58.752 58.753-58.752h293.762c32.448 0 58.752 26.304 58.752 58.752v146.881" fill="#fff"/><path d="M302.753 198.505v-58.753h-22v58.753h22zm0-58.753c0-26.373 21.38-47.752 47.753-47.752V70c-38.523 0-69.753 31.229-69.753 69.752h22zM350.506 92h293.762V70H350.506v22zm293.762 0c26.373 0 47.752 21.379 47.752 47.752h22c0-38.523-31.229-69.752-69.752-69.752v22zm47.752 47.752v146.881h22V139.752h-22z" fill="#E1E4E5" mask="url(#a)"/><path d="m484.082 198.752.004.006a34.874 34.874 0 0 0 29.016 15.52h189.917c29.411 0 53.253 23.842 53.253 53.253v205.633c0 29.411-23.842 53.252-53.253 53.252H291.752c-29.41 0-53.252-23.841-53.252-53.252V179.402c0-29.41 23.842-53.252 53.252-53.252h131.165l.014-.001a23.879 23.879 0 0 1 19.936 10.649h.001l41.214 61.954z" fill="#fff" stroke="#E1E4E5" stroke-width="11"/><path d="m400.848 286.318-38.912 37.758-18.905-18.306m123.741-24.331h115.633m-114.453 58.879h189.969m0 117.758H466.772m191.149-58.879H467.952" stroke="#009688" stroke-width="24" stroke-linecap="round" stroke-linejoin="round"/><path clip-rule="evenodd" d="M372.53 468.028c20.853 0 37.758-17.169 37.758-38.348s-16.905-38.348-37.758-38.348-37.758 17.169-37.758 38.348 16.905 38.348 37.758 38.348z" stroke="#009688" stroke-width="24" stroke-linecap="round" stroke-linejoin="round"/><path d="m219.015 71.67-57.1 21.472C148.756 98.079 138 113.695 138 127.819v85.314c0 13.549 8.926 31.347 19.796 39.499L207 289.491c16.135 12.171 42.682 12.171 58.816 0l49.204-36.859c10.871-8.152 19.796-25.95 19.796-39.499v-85.314c0-14.124-10.756-29.74-23.915-34.677l-57.1-21.472c-9.726-3.56-25.288-3.56-34.786 0z" fill="#009688"/><path d="M236.26 227.862c-27.781 0-50.301-22.521-50.301-50.301 0-27.781 22.52-50.301 50.301-50.301 27.78 0 50.301 22.52 50.301 50.301 0 27.78-22.521 50.301-50.301 50.301z" stroke="#fff" stroke-width="11" stroke-miterlimit="10" stroke-linecap="round" stroke-linejoin="round"/><path d="M233.117 161.842v11.695c0 4.402 2.264 8.551 6.162 10.815l9.557 5.785" stroke="#fff" stroke-width="11" stroke-miterlimit="10" stroke-linecap="round" stroke-linejoin="round"/><path fill-rule="evenodd" clip-rule="evenodd" d="M554.634 149.506h6.033a2.635 2.635 0 0 1 2.633 2.634v6.033a2.636 2.636 0 0 1-2.633 2.634h-6.033a2.644 2.644 0 0 1-2.634-2.634v-6.033c-.012-1.447 1.175-2.634 2.634-2.634zm20.917 0h6.033a2.644 2.644 0 0 1 2.634 2.634v6.033a2.636 2.636 0 0 1-2.634 2.634h-6.033a2.644 2.644 0 0 1-2.633-2.634v-6.033a2.644 2.644 0 0 1 2.633-2.634zm20.932 0h6.033a2.644 2.644 0 0 1 2.634 2.634v6.033a2.636 2.636 0 0 1-2.634 2.634h-6.033a2.644 2.644 0 0 1-2.633-2.634v-6.033c-.013-1.447 1.174-2.634 2.633-2.634zm20.918 0h6.033a2.644 2.644 0 0 1 2.633 2.634v6.033a2.636 2.636 0 0 1-2.633 2.634h-6.033a2.646 2.646 0 0 1-2.646-2.634v-6.033a2.662 2.662 0 0 1 2.646-2.634zm20.919 0h6.034A2.646 2.646 0 0 1 647 152.14v6.033a2.639 2.639 0 0 1-2.646 2.634h-6.034a2.644 2.644 0 0 1-2.633-2.634v-6.033a2.644 2.644 0 0 1 2.633-2.634zm-62.001 22.81h6.033a2.644 2.644 0 0 1 2.633 2.634v6.046a2.644 2.644 0 0 1-2.633 2.633h-6.033a2.636 2.636 0 0 1-2.634-2.633v-6.034a2.631 2.631 0 0 1 2.634-2.646zm20.917 0h6.033a2.644 2.644 0 0 1 2.634 2.634v6.046a2.644 2.644 0 0 1-2.634 2.633h-6.033a2.644 2.644 0 0 1-2.633-2.633v-6.034a2.63 2.63 0 0 1 2.633-2.646zm20.92 0h6.033a2.646 2.646 0 0 1 2.646 2.634v6.046a2.646 2.646 0 0 1-2.646 2.633h-6.033a2.644 2.644 0 0 1-2.634-2.633v-6.034a2.646 2.646 0 0 1 2.634-2.646zM596.483 125h6.033a2.644 2.644 0 0 1 2.634 2.634v6.033a2.635 2.635 0 0 1-2.634 2.633h-6.033a2.644 2.644 0 0 1-2.633-2.633v-6.033c-.013-1.447 1.174-2.634 2.633-2.634zm-20.911 0h6.033a2.644 2.644 0 0 1 2.634 2.634v6.033a2.635 2.635 0 0 1-2.634 2.633h-6.033a2.644 2.644 0 0 1-2.633-2.633v-6.033c-.013-1.447 1.174-2.634 2.633-2.634zm41.829 0h6.033a2.644 2.644 0 0 1 2.633 2.634v6.033a2.635 2.635 0 0 1-2.633 2.633h-6.033a2.646 2.646 0 0 1-2.646-2.633v-6.033a2.662 2.662 0 0 1 2.646-2.634z" fill="#E1E4E5"/></svg>