<svg width="900" height="600" viewBox="0 0 900 600" fill="none" xmlns="http://www.w3.org/2000/svg"><path fill="transparent" d="M0 0h900v600H0z"/><path d="M486.661 180.519h-69.669c-3.113 0-6.597-2.437-7.635-5.392l-30.684-85.525c-4.373-12.26.741-16.027 11.266-8.494l28.905 20.606c4.818 3.324 10.303 1.625 12.378-3.766l13.044-34.64c4.151-11.078 11.044-11.078 15.194 0l13.045 34.64c2.075 5.391 7.56 7.09 12.303 3.766l27.127-19.276c11.562-8.272 17.121-4.063 12.377 9.305l-29.943 83.532c-1.111 2.807-4.595 5.244-7.708 5.244z" fill="#009688" stroke="#009688" stroke-width="11" stroke-linecap="round" stroke-linejoin="round"/><path d="M420.922 147.293H481.9" stroke="#fff" stroke-width="11" stroke-linecap="round" stroke-linejoin="round"/><path d="M453.479 445.814v34.779" stroke="#009688" stroke-width="11" stroke-linecap="round" stroke-linejoin="round"/><path d="M370.673 536.902h165.615V520.34c0-18.217-14.905-33.123-33.123-33.123h-99.369c-18.218 0-33.123 14.906-33.123 33.123v16.562z" fill="#009688" stroke="#009688" stroke-width="11" stroke-miterlimit="10"/><path d="M354.111 536.902h198.738M342.851 365.493c-12.421-3.975-23.352-11.262-31.964-19.874-14.905-16.562-24.842-36.435-24.842-59.621 0-23.187 18.218-41.404 41.404-41.404h10.765c-3.313 7.618-4.969 16.064-4.969 24.842v49.685c0 16.561 3.478 32.129 9.606 46.372zm216.29-.001c12.421-3.974 23.351-11.262 31.963-19.874 14.906-16.561 24.843-36.435 24.843-59.621s-18.218-41.404-41.404-41.404h-10.765c3.312 7.619 4.968 16.065 4.968 24.843v49.684c0 16.562-3.478 32.129-9.605 46.372z" stroke="#009688" stroke-width="11" stroke-linecap="round" stroke-linejoin="round"/><path d="M450.998 437.533c-64.093 0-115.931-51.837-115.931-115.93v-49.685c0-36.601 29.645-66.246 66.246-66.246h99.369c36.601 0 66.246 29.645 66.246 66.246v49.685c0 64.093-51.837 115.93-115.93 115.93z" fill="#009688" stroke="#009688" stroke-width="11" stroke-linecap="round" stroke-linejoin="round"/><path d="m465.623 263.295 10.433 16.032c1.648 2.521 5.308 5.043 8.054 5.764l18.67 4.683c11.531 2.882 14.643 12.609 7.139 21.615l-12.264 14.591c-1.831 2.342-3.295 6.485-3.112 9.367l1.098 18.913c.733 11.708-7.687 17.653-18.67 13.33l-17.937-7.025c-2.746-1.081-7.322-1.081-10.068 0l-17.937 7.025c-10.983 4.323-19.403-1.802-18.67-13.33l1.098-18.913c.183-2.882-1.282-7.206-3.112-9.367l-12.264-14.591c-7.504-9.006-4.392-18.733 7.139-21.615l18.67-4.683c2.929-.721 6.589-3.423 8.054-5.764l10.433-16.032c6.589-9.727 16.84-9.727 23.246 0z" fill="#fff"/><rect x="217.132" y="426.634" width="43.07" height="119.366" rx="15.212" fill="#009688"/><rect x="153.143" y="469.704" width="43.07" height="76.296" rx="15.212" fill="#009688"/><rect x="282.353" y="469.704" width="43.07" height="76.296" rx="15.212" fill="#009688"/><rect width="43.07" height="119.366" rx="15.212" transform="matrix(-1 0 0 1 692.134 426.634)" fill="#009688"/><rect width="43.07" height="76.296" rx="15.212" transform="matrix(-1 0 0 1 756.125 469.704)" fill="#009688"/><rect width="43.07" height="76.296" rx="15.212" transform="matrix(-1 0 0 1 626.914 469.704)" fill="#009688"/><path d="M698.411 245.262c-18.472 9.163-42.989-2.619-42.989-2.619s5.448-26.633 23.93-35.784c18.472-9.163 42.98 2.606 42.98 2.606s-5.449 26.634-23.921 35.797z" fill="url(#a)"/><path d="M141.498 368.999c25.175 15.088 61.293 1.14 61.293 1.14s-4.722-38.406-29.913-53.477c-25.175-15.088-61.277-1.157-61.277-1.157s4.722 38.405 29.897 53.494z" fill="url(#b)"/><circle cx="254.666" cy="366.951" r="14.152" transform="rotate(180 254.666 366.951)" fill="#009688"/><circle cx="269.283" cy="195.751" r="9.08" transform="rotate(180 269.283 195.751)" fill="#009688"/><circle cx="688.671" cy="330.876" r="17.455" transform="rotate(180 688.671 330.876)" fill="#009688"/><circle r="9.276" transform="matrix(-1 0 0 1 751.866 406.377)" fill="#009688"/><circle r="11.927" transform="matrix(-1 0 0 1 587.159 418.872)" fill="#E1E4E5"/><circle r="12.262" transform="matrix(-1 0 0 1 95.262 499.194)" fill="#E1E4E5"/><circle r="6.454" transform="matrix(-1 0 0 1 810.572 502)" fill="#E1E4E5"/><circle r="14.577" transform="matrix(-1 0 0 1 677.18 106.495)" fill="#E1E4E5"/><circle r="13.09" transform="scale(1 -1) rotate(-75 -53.971 -266.242)" fill="#E1E4E5"/><circle r="17.414" transform="matrix(-1 0 0 1 282.541 109.332)" fill="#E1E4E5"/><ellipse rx="13.396" ry="10.716" transform="matrix(-1 0 0 1 587.397 102.634)" fill="#E1E4E5"/><circle r="11.87" transform="scale(1 -1) rotate(-75 179.645 -457.44)" fill="#E1E4E5"/><path d="M156.332 117.76h.19c1.131 16.01 13.038 16.257 13.038 16.257s-13.13.256-13.13 18.756c0-18.5-13.131-18.756-13.131-18.756s11.903-.247 13.033-16.257zm197.602 317.488h.183c1.085 15.963 12.517 16.209 12.517 16.209s-12.606.255-12.606 18.701c0-18.446-12.606-18.701-12.606-18.701s11.427-.246 12.512-16.209z" fill="#E1E4E5"/><defs><linearGradient id="a" x1="627.476" y1="273.844" x2="779.834" y2="153.328" gradientUnits="userSpaceOnUse"><stop stop-color="#fff"/><stop offset="1" stop-color="#EEE"/></linearGradient><linearGradient id="b" x1="238.919" y1="417.567" x2="36.352" y2="229.356" gradientUnits="userSpaceOnUse"><stop stop-color="#fff"/><stop offset="1" stop-color="#EEE"/></linearGradient></defs></svg>