<svg width="900" height="600" viewBox="0 0 900 600" fill="none" xmlns="http://www.w3.org/2000/svg"><path fill="transparent" d="M0 0h900v600H0z"/><path d="M544.559 190.82v-43.333c0-23.941-19.417-43.332-43.39-43.332H406.84c-23.972 0-43.389 19.391-43.389 43.332v43.333" stroke="#009688" stroke-width="29.314" stroke-linecap="round" stroke-linejoin="round"/><path fill-rule="evenodd" clip-rule="evenodd" d="M301.71 473.382h304.069c24 0 43.439-19.439 43.439-43.438V280.007l-114.753 75.725-.005.003-.007.004a78.913 78.913 0 0 1-43.491 13.061h-74.436a78.913 78.913 0 0 1-43.491-13.061l-.007-.004-.005-.003-114.752-75.725v149.937c0 23.999 19.439 43.438 43.439 43.438zm-36.417-262.609c7.749-11.887 21.161-19.741 36.417-19.741h304.069c15.256 0 28.668 7.854 36.417 19.741l-141.7 93.507-.012.008a17.26 17.26 0 0 1-9.522 2.858h-74.436c-3.394 0-6.7-.994-9.522-2.858l-.011-.008-141.7-93.507z" fill="#009688"/><path d="M649.218 280.007h14.657a14.658 14.658 0 0 0-22.73-12.234l8.073 12.234zm-114.753 75.725 8.062 12.24.011-.007-8.073-12.233zm-.005.003-8.063-12.24-.022.014 8.085 12.226zm-.007.004 8.077 12.232.008-.006-8.085-12.226zm-161.418 0 8.076-12.231-.011-.007-8.065 12.238zm-.007-.004-8.088 12.223.023.016 8.065-12.239zm-.005-.003 8.088-12.224-.015-.01-8.073 12.234zm-114.752-75.725 8.073-12.233a14.655 14.655 0 0 0-22.73 12.233h14.657zm7.022-69.234-12.279-8.003c-4.402 6.754-2.523 15.796 4.206 20.237l8.073-12.234zm376.903 0 8.072 12.234c6.73-4.441 8.609-13.483 4.206-20.238l-12.278 8.004zm-141.7 93.507 8.06 12.242.013-.008-8.073-12.234zm-.012.008-8.06-12.241a.174.174 0 0 0-.018.011l8.078 12.23zm-93.48 0 8.079-12.23-.011-.007-8.068 12.237zm-.011-.008-8.073 12.234.005.003 8.068-12.237zm198.786 154.445H301.71v29.314h304.069v-29.314zm28.782-28.781c0 15.905-12.877 28.781-28.782 28.781v29.314c32.095 0 58.096-26.001 58.096-58.095h-29.314zm0-149.937v149.937h29.314V280.007h-29.314zm6.584-12.234-114.753 75.725 16.146 24.467 114.753-75.725-16.146-24.467zm-114.742 75.718-.006.004 16.125 24.48.005-.003-16.124-24.481zm-.028.018-.006.005 16.169 24.451.007-.004-16.17-24.452zm.002-.001a64.252 64.252 0 0 1-35.415 10.635v29.314a93.579 93.579 0 0 0 51.568-15.486l-16.153-24.463zm-35.415 10.635h-74.436v29.314h74.436v-29.314zm-74.436 0a64.254 64.254 0 0 1-35.415-10.635l-16.152 24.463a93.575 93.575 0 0 0 51.567 15.486v-29.314zM381.1 343.501l-.007-.005-16.13 24.478.007.004 16.13-24.477zm.016.011-.005-.004-16.176 24.447.005.003 16.176-24.446zm-.02-.014-114.752-75.724-16.146 24.466 114.753 75.725 16.145-24.467zm-108.168 86.446V280.007h-29.314v149.937h29.314zm28.782 28.781c-15.905 0-28.782-12.876-28.782-28.781h-29.314c0 32.094 26.001 58.095 58.096 58.095v-29.314zm-24.138-239.948c5.155-7.91 14.039-13.088 24.138-13.088v-29.314c-20.413 0-38.354 10.53-48.696 26.395l24.558 16.007zm24.138-13.088h304.069v-29.314H301.71v29.314zm304.069 0c10.099 0 18.982 5.178 24.138 13.088l24.557-16.008c-10.341-15.865-28.282-26.394-48.695-26.394v29.314zm-97.21 110.825 141.699-93.507-16.145-24.467-141.7 93.507 16.146 24.467zm-.025.016.012-.008-16.121-24.483-.011.008 16.12 24.483zm-17.582 5.273c6.265 0 12.38-1.837 17.6-5.285l-16.156-24.46c-.424.28-.92.431-1.444.431v29.314zm-74.436 0h74.436v-29.314h-74.436v29.314zm-17.6-5.285a31.92 31.92 0 0 0 17.6 5.285v-29.314a2.6 2.6 0 0 1-1.443-.431l-16.157 24.46zm-.001-.001.012.008 16.135-24.474-.012-.007-16.135 24.473zm-141.705-93.51 141.7 93.507 16.145-24.467-141.699-93.507-16.146 24.467z" fill="#009688"/><path d="M722.334 316.374h-25.555m53.332 13.333h-53.332m24.444-27.222h-24.444" stroke="#E1E4E5" stroke-width="6.013" stroke-linecap="round" stroke-linejoin="round"/><path d="M601.832 469.603c8.074.01 19.693-2.093 29.211-11.266 9.515-9.174 4.166-14.875-5.282-15.908-9.447-1.034-20.778 3.275-28.114 12.501-7.336 9.227-2.441 14.666 4.185 14.673z" fill="url(#a)"/><path fill-rule="evenodd" clip-rule="evenodd" d="M674.298 164.445v3.306h3.303a2.524 2.524 0 0 1 2.512 2.514 2.523 2.523 0 0 1-2.512 2.513h-3.303v3.306a2.524 2.524 0 0 1-2.512 2.514 2.524 2.524 0 0 1-2.511-2.514v-3.292h-3.317a2.524 2.524 0 0 1-2.512-2.513 2.524 2.524 0 0 1 2.512-2.514h3.303v-3.32a2.526 2.526 0 0 1 2.525-2.513 2.524 2.524 0 0 1 2.512 2.513zm17.286-33.438v4.628h4.844c2.022 0 3.684 1.588 3.684 3.519 0 1.932-1.662 3.519-3.684 3.519h-4.844v4.629c0 1.931-1.662 3.519-3.684 3.519-2.022 0-3.684-1.588-3.684-3.519v-4.61h-4.864c-2.022 0-3.684-1.587-3.684-3.519 0-1.931 1.662-3.519 3.684-3.519h4.844v-4.647c0-1.932 1.662-3.519 3.704-3.519 2.022 0 3.684 1.587 3.684 3.519zm-52.765-3.712v7.052h7.047c2.941 0 5.358 2.419 5.358 5.363 0 2.943-2.417 5.362-5.358 5.362h-7.047v7.053c0 2.943-2.417 5.362-5.358 5.362s-5.358-2.419-5.358-5.362v-7.024h-7.076c-2.941 0-5.358-2.418-5.358-5.362 0-2.943 2.417-5.362 5.358-5.362h7.047v-7.082c0-2.944 2.417-5.363 5.387-5.363 2.941 0 5.358 2.419 5.358 5.363z" fill="#E1E4E5"/><path d="M154.818 230.888c-25.087-21.676-22.89-65.356-22.89-65.356s42.874-8.509 67.947 13.189c25.087 21.676 22.903 65.333 22.903 65.333s-42.873 8.51-67.96-13.166z" fill="url(#b)"/><path d="M728.361 246.756c11.965-10.339 10.917-31.173 10.917-31.173s-20.449-4.058-32.408 6.291c-11.966 10.339-10.924 31.162-10.924 31.162s20.449 4.058 32.415-6.28z" fill="url(#c)"/><circle cx="198.79" cy="357.264" r="9.002" transform="rotate(-148.879 198.79 357.264)" fill="#E1E4E5"/><path clip-rule="evenodd" d="m186.146 430.233-4.995 18.639-18.639-4.994 4.994-18.639 18.64 4.994z" stroke="#E1E4E5" stroke-width="6.519" stroke-linecap="round" stroke-linejoin="round"/><path d="M177.898 291.93h25.555" stroke="#E1E4E5" stroke-width="6.013" stroke-linecap="round" stroke-linejoin="round"/><path d="M750.111 146.376h-16.666" stroke="#E1E4E5" stroke-width="4.009" stroke-linecap="round" stroke-linejoin="round"/><path d="M150.121 278.597h53.332" stroke="#E1E4E5" stroke-width="6.013" stroke-linecap="round" stroke-linejoin="round"/><path d="M769 137.488h-35.555" stroke="#E1E4E5" stroke-width="4.009" stroke-linecap="round" stroke-linejoin="round"/><path d="M180.12 305.819h23.333" stroke="#E1E4E5" stroke-width="6.013" stroke-linecap="round" stroke-linejoin="round"/><path d="M749 155.821h-15.555" stroke="#E1E4E5" stroke-width="4.009" stroke-linecap="round" stroke-linejoin="round"/><rect x="290.844" y="463.742" width="42.26" height="4.924" rx="2.462" transform="rotate(-45 290.844 463.742)" fill="#fff"/><rect x="312.447" y="463.742" width="42.26" height="4.924" rx="2.462" transform="rotate(-45 312.447 463.742)" fill="#fff"/><rect x="335.4" y="463.742" width="42.26" height="4.924" rx="2.462" transform="rotate(-45 335.4 463.742)" fill="#fff"/><circle cx="705.668" cy="453.039" r="21.111" fill="#E1E4E5"/><defs><linearGradient id="a" x1="644.507" y1="472.621" x2="571.056" y2="431.151" gradientUnits="userSpaceOnUse"><stop stop-color="#fff"/><stop offset="1" stop-color="#EEE"/></linearGradient><linearGradient id="b" x1="68.274" y1="143.538" x2="341.803" y2="294.334" gradientUnits="userSpaceOnUse"><stop stop-color="#fff"/><stop offset="1" stop-color="#EEE"/></linearGradient><linearGradient id="c" x1="769.639" y1="205.093" x2="639.175" y2="277.017" gradientUnits="userSpaceOnUse"><stop stop-color="#fff"/><stop offset="1" stop-color="#EEE"/></linearGradient></defs></svg>