<svg width="900" height="600" viewBox="0 0 900 600" fill="none" xmlns="http://www.w3.org/2000/svg"><path fill="transparent" d="M0 0h900v600H0z"/><path d="M469.153 543.366h-25.115c-.799 0-1.447-5.454-1.447-12.179V398.695c0-6.725.648-12.178 1.447-12.178h25.115c.799 0 1.447 5.453 1.447 12.178v132.492c0 6.725-.648 12.179-1.447 12.179z" fill="#fff" stroke="#E1E4E5" stroke-width="11"/><path d="M706.757 443.197H206.953c-15.896 0-28.786-12.855-28.786-28.706V102.187c0-15.851 12.89-28.706 28.786-28.706h499.804c15.895 0 28.785 12.855 28.785 28.706v312.304c0 15.851-12.89 28.706-28.785 28.706zM518.804 554.57H395.737c-3.914 0-7.088-1.364-7.088-3.045v-33.123c0-1.681 3.174-3.045 7.088-3.045h123.067c3.914 0 7.088 1.364 7.088 3.045v33.123c0 1.681-3.174 3.045-7.088 3.045z" fill="#fff" stroke="#E1E4E5" stroke-width="11"/><path d="M674.691 179.659H381.245m293.446-38.824H381.245M674.691 262.73H381.245m293.446-38.825H381.245M674.691 345.8H381.245m293.446-38.824H381.245" stroke="#E1E4E5" stroke-width="11" stroke-linecap="round" stroke-linejoin="round"/><rect x="142.206" y="45" width="210.481" height="184.617" rx="61.151" fill="#009688"/><path fill="#009688" d="m247.945 209.104 20.68 20.68-20.68 20.68-20.68-20.68z"/><circle cx="195.075" cy="112.067" r="26.934" fill="#fff"/><rect x="233.98" y="108.323" width="90.776" height="7.98" rx="3.99" fill="#fff"/><rect x="233.98" y="86.026" width="90.776" height="7.98" rx="3.99" fill="#fff"/><rect x="168.142" y="152.833" width="156.614" height="7.98" rx="3.99" fill="#fff"/><rect x="233.979" y="130.268" width="90.776" height="7.98" rx="3.99" fill="#fff"/><rect x="168.142" y="174.779" width="156.614" height="7.98" rx="3.99" fill="#fff"/><rect x="278.648" y="236.443" width="249.616" height="218.943" rx="61.151" fill="#009688"/><path fill="#009688" d="m404.048 431.059 24.525 24.525-24.525 24.526-24.525-24.526z"/><circle cx="341.348" cy="315.98" r="31.941" fill="#fff"/><rect x="387.486" y="311.539" width="107.654" height="9.464" rx="4.732" fill="#fff"/><rect x="387.486" y="285.097" width="107.654" height="9.464" rx="4.732" fill="#fff"/><rect x="309.407" y="364.325" width="185.733" height="9.464" rx="4.732" fill="#fff"/><rect x="387.486" y="337.565" width="107.654" height="9.464" rx="4.732" fill="#fff"/><rect x="309.407" y="390.352" width="185.733" height="9.464" rx="4.732" fill="#fff"/><path fill-rule="evenodd" clip-rule="evenodd" d="m699.28 494.454-24.578-78.892c-2.591-8.323 5.888-15.781 13.756-12.093l73.298 34.383c8.686 4.073 7.225 16.916-2.156 18.906l-30.176 6.416-11.195 31.634c-3.224 9.083-16.078 8.833-18.949-.354z" fill="#fff" stroke="#E1E4E5" stroke-width="11" stroke-linecap="round" stroke-linejoin="round"/><rect x="558.938" y="53.461" width="218.062" height="265.309" rx="20" fill="#fff" stroke="#E1E4E5" stroke-width="11" stroke-linecap="round" stroke-linejoin="round"/><mask id="a" mask-type="alpha" maskUnits="userSpaceOnUse" x="558" y="53" width="219" height="266"><path fill="#fff" stroke="#fff" stroke-width="11" d="M564.438 58.961H771.5V313.27H564.438z"/></mask><g mask="url(#a)"><rect x="597.785" y="246.485" width="140.822" height="15.782" rx="7.891" fill="#E1E4E5"/><rect x="597.785" y="213.707" width="140.822" height="18.21" rx="9.105" fill="#E1E4E5"/><rect x="597.785" y="276.834" width="140.822" height="18.21" rx="9.105" fill="#E1E4E5"/><rect x="579.576" y="71.671" width="50.987" height="13.354" rx="6.677" fill="#E1E4E5"/><path fill-rule="evenodd" clip-rule="evenodd" d="M668.114 99.592c25.171 0 45.575 20.405 45.575 45.575 0 25.171-20.404 45.575-45.575 45.575-25.17 0-45.575-20.404-45.575-45.575 0-25.17 20.405-45.575 45.575-45.575zm.309 24.533c-11.792 0-21.352 9.559-21.352 21.351 0 11.793 9.56 21.352 21.352 21.352 11.793 0 21.352-9.559 21.352-21.352 0-11.792-9.559-21.351-21.352-21.351z" fill="#009688"/></g><path d="M598.907 190.696c-7.541 1.787-15.516-4.608-15.516-4.608s4.256-9.288 11.799-11.069c7.541-1.786 15.513 4.603 15.513 4.603s-4.255 9.288-11.796 11.074z" fill="url(#b)"/><path d="M746.78 95.126c-7.013 7.138-20.127 5.633-20.127 5.633s-1.735-13.078 5.284-20.211c7.013-7.138 20.12-5.637 20.12-5.637s1.736 13.078-5.277 20.215z" fill="url(#c)"/><ellipse cx="624.865" cy="394.835" rx="14.101" ry="13.488" transform="rotate(180 624.865 394.835)" fill="#009688"/><ellipse cx="563.243" cy="402.131" rx="15.94" ry="16.553" transform="rotate(180 563.243 402.131)" fill="#009688"/><ellipse cx="221.5" cy="395.508" rx="19.005" ry="18.392" transform="rotate(180 221.5 395.508)" fill="#009688"/><circle r="6.744" transform="matrix(-1 0 0 1 248.373 278.091)" fill="#009688"/><circle r="12.875" transform="matrix(-1 0 0 1 739.986 143.548)" fill="#009688"/><ellipse rx="7.404" ry="6.875" transform="matrix(-1 0 0 1 602.303 486.588)" fill="#E1E4E5"/><ellipse rx="13.488" ry="12.261" transform="matrix(-1 0 0 1 141.943 354.066)" fill="#E1E4E5"/><circle r="4.292" transform="matrix(-1 0 0 1 283.997 501.985)" fill="#E1E4E5"/><circle r="6.131" transform="matrix(-1 0 0 1 603.145 96.612)" fill="#E1E4E5"/><circle r="5.991" transform="scale(1 -1) rotate(-75 -101.043 -319.952)" fill="#E1E4E5"/><circle r="7.97" transform="matrix(-1 0 0 1 222.256 173.209)" fill="#E1E4E5"/><ellipse rx="6.131" ry="4.905" transform="matrix(-1 0 0 1 741.703 187.405)" fill="#E1E4E5"/><circle r="12.468" transform="scale(1 -1) rotate(-75 188.532 -384.097)" fill="#E1E4E5"/><path d="M708.449 352.789h.16c.95 13.457 10.957 13.664 10.957 13.664s-11.035.215-11.035 15.764c0-15.549-11.035-15.764-11.035-15.764s10.003-.207 10.953-13.664zM142.031 223.75h.276c1.636 23.549 18.871 23.912 18.871 23.912s-19.006.377-19.006 27.587c0-27.21-19.005-27.587-19.005-27.587s17.228-.363 18.864-23.912z" fill="#E1E4E5"/><defs><linearGradient id="b" x1="570.511" y1="195.138" x2="636.521" y2="163.953" gradientUnits="userSpaceOnUse"><stop stop-color="#fff"/><stop offset="1" stop-color="#EEE"/></linearGradient><linearGradient id="c" x1="718.8" y1="119.507" x2="769.499" y2="40.031" gradientUnits="userSpaceOnUse"><stop stop-color="#fff"/><stop offset="1" stop-color="#EEE"/></linearGradient></defs></svg>