<svg width="900" height="600" viewBox="0 0 900 600" fill="none" xmlns="http://www.w3.org/2000/svg"><path fill="transparent" d="M0 0h900v600H0z"/><path d="M693.759 354.025c3.59 66.149-125.735 200.654-285.138 150.869-74.136-23.157-67.857-61.591-124.23-112.245-33.601-30.19-81.881-53.019-95.309-96.903-11.6-37.878-4.486-78.591 15.625-105.072 45.228-59.556 136.537-100.337 226.504-6.503 89.968 93.835 253.271-.748 262.548 169.854z" fill="url(#a)"/><path d="M658.308 208.214c-12.579 22.45-40.129 25.535-84.265 21.269-33.194-3.215-63.464-5.702-96.66-23.801-23.235-12.66-41.628-29.787-55.052-46.422-14.546-18.021-34.85-38.587-24.897-59.02 13.679-28.068 92.781-51.708 169.593-13.05 84.377 42.479 103.586 99.082 91.281 121.024z" fill="url(#b)"/><path d="M338.133 482.78c-29.306-40.998-59.318-84.572-98.61-106.034-40.529-22.148-48.004-8.498-50.809 13.204-2.806 21.701 9.699 73.119 65.009 102.374 55.325 29.264 111.831 28.826 84.41-9.544z" fill="url(#c)"/><path d="M728.627 242.98c-15.336 3.633-31.555-9.372-31.555-9.372s8.655-18.889 23.996-22.511c15.335-3.633 31.55 9.361 31.55 9.361s-8.656 18.889-23.991 22.522z" fill="url(#d)"/><path d="M313.239 83.032c16.145 11.12 40.81 3.347 40.81 3.347s-1.527-25.801-17.683-36.91c-16.145-11.121-40.799-3.358-40.799-3.358s1.527 25.8 17.672 36.92z" fill="url(#e)"/><path d="M629.894 110.553c12.204 12.421 35.025 9.803 35.025 9.803s3.02-22.758-9.195-35.172c-12.204-12.421-35.014-9.81-35.014-9.81s-3.02 22.758 9.184 35.179z" fill="url(#f)"/><ellipse cx="663.651" cy="389.361" rx="13.008" ry="12.442" transform="rotate(180 663.651 389.361)" fill="#009688"/><ellipse cx="576.704" cy="455.269" rx="14.704" ry="15.27" transform="rotate(180 576.704 455.269)" fill="#009688"/><ellipse cx="220.266" cy="451.571" rx="17.532" ry="16.966" transform="rotate(180 220.266 451.571)" fill="#009688"/><circle r="6.221" transform="matrix(-1 0 0 1 215.221 236.221)" fill="#009688"/><circle r="11.876" transform="matrix(-1 0 0 1 688.535 142.219)" fill="#009688"/><ellipse rx="11.876" ry="11.311" transform="matrix(-1 0 0 1 648.946 497.945)" fill="#E1E4E5"/><ellipse rx="12.442" ry="11.311" transform="matrix(-1 0 0 1 148.442 349.773)" fill="#E1E4E5"/><circle r="3.959" transform="matrix(-1 0 0 1 274.558 508.69)" fill="#E1E4E5"/><circle r="5.655" transform="matrix(-1 0 0 1 666.655 235.655)" fill="#E1E4E5"/><circle r="5.526" transform="scale(1 -1) rotate(-75 -92.613 -294.72)" fill="#E1E4E5"/><circle r="7.352" transform="matrix(-1 0 0 1 260.352 230.352)" fill="#E1E4E5"/><ellipse rx="5.655" ry="4.524" transform="matrix(-1 0 0 1 672.134 313.579)" fill="#E1E4E5"/><circle r="11.502" transform="scale(1 -1) rotate(-75 172.271 -317.396)" fill="#E1E4E5"/><path d="M753.496 311.316h.148c.876 12.414 10.107 12.605 10.107 12.605s-10.179.198-10.179 14.541c0-14.343-10.18-14.541-10.18-14.541s9.228-.191 10.104-12.605zM267.641 115.639h.254c1.509 21.723 17.408 22.057 17.408 22.057s-17.532.348-17.532 25.448c0-25.1-17.532-25.448-17.532-25.448s15.893-.334 17.402-22.057z" fill="#E1E4E5"/><path d="M553.197 109H374.501c-8.653 0-16.875 3.029-23.581 8.221l-47.379 37.859c-19.038 15.144-19.038 43.917 0 59.061L350.92 252c6.706 5.409 15.144 8.221 23.581 8.221h178.696a37.762 37.762 0 0 0 37.859-37.859v-75.719c0-20.769-16.874-37.643-37.859-37.643zM327.772 281.308h178.697c8.653 0 16.875 3.028 23.581 8.221l47.379 37.859c19.038 15.144 19.038 43.917 0 59.06l-47.379 37.86c-6.706 5.408-15.144 8.221-23.581 8.221H327.772a37.763 37.763 0 0 1-37.859-37.86v-75.718c0-20.769 16.874-37.643 37.859-37.643z" fill="#009688"/><path d="M440.268 301.559v-42.318m0 238.406v-64.902m-64.902 64.902H505.17" stroke="#009688" stroke-width="26.513" stroke-linecap="round" stroke-linejoin="round"/><path d="m449.92 139.077 9.014 13.836c1.424 2.177 4.587 4.353 6.959 4.975l16.13 4.042c9.964 2.488 12.652 10.883 6.168 18.656l-10.596 12.593c-1.581 2.021-2.846 5.597-2.688 8.084l.949 16.324c.632 10.105-6.642 15.236-16.131 11.505l-15.498-6.064c-2.372-.932-6.326-.932-8.698 0l-15.498 6.064c-9.489 3.731-16.764-1.555-16.131-11.505l.949-16.324c.158-2.487-1.107-6.219-2.689-8.084l-10.595-12.593c-6.484-7.773-3.796-16.168 6.167-18.656l16.131-4.042c2.53-.622 5.693-2.954 6.958-4.975l9.015-13.836c5.693-8.396 14.549-8.396 20.084 0zm0 175.806 9.014 13.837c1.424 2.176 4.587 4.353 6.959 4.975l16.13 4.042c9.964 2.487 12.652 10.882 6.168 18.656l-10.596 12.593c-1.581 2.021-2.846 5.596-2.688 8.084l.949 16.324c.632 10.105-6.642 15.235-16.131 11.504l-15.498-6.063c-2.372-.933-6.326-.933-8.698 0l-15.498 6.063c-9.489 3.731-16.764-1.554-16.131-11.504l.949-16.324c.158-2.488-1.107-6.219-2.689-8.084l-10.595-12.593c-6.484-7.774-3.796-16.169 6.167-18.656l16.131-4.042c2.53-.622 5.693-2.954 6.958-4.975l9.015-13.837c5.693-8.395 14.549-8.395 20.084 0z" fill="#fff"/><defs><linearGradient id="a" x1="539.188" y1="750.53" x2="297.278" y2="-340.887" gradientUnits="userSpaceOnUse"><stop stop-color="#fff"/><stop offset="1" stop-color="#EEE"/></linearGradient><linearGradient id="b" x1="573.566" y1="353.711" x2="461.445" y2="-150.113" gradientUnits="userSpaceOnUse"><stop stop-color="#fff"/><stop offset="1" stop-color="#EEE"/></linearGradient><linearGradient id="c" x1="305.41" y1="617.366" x2="209.262" y2="172.729" gradientUnits="userSpaceOnUse"><stop stop-color="#fff"/><stop offset="1" stop-color="#EEE"/></linearGradient><linearGradient id="d" x1="670.878" y1="252.013" x2="805.124" y2="188.591" gradientUnits="userSpaceOnUse"><stop stop-color="#fff"/><stop offset="1" stop-color="#EEE"/></linearGradient><linearGradient id="e" x1="376.13" y1="119.519" x2="249.041" y2="-14.492" gradientUnits="userSpaceOnUse"><stop stop-color="#fff"/><stop offset="1" stop-color="#EEE"/></linearGradient><linearGradient id="f" x1="678.586" y1="152.981" x2="590.357" y2="14.675" gradientUnits="userSpaceOnUse"><stop stop-color="#fff"/><stop offset="1" stop-color="#EEE"/></linearGradient></defs></svg>