<svg width="900" height="600" viewBox="0 0 900 600" fill="none" xmlns="http://www.w3.org/2000/svg"><g clip-path="url(#a)"><path fill="transparent" d="M0 0h900v600H0z"/><path d="M157.59 257.731c-16.544 71.859 99.646 244.016 283.947 219.801 85.717-11.265 86.156-54.611 157.633-99.417 42.604-26.704 99.902-42.538 122.992-88.105 19.941-39.329 19.899-85.333 2.892-118.208-38.249-73.933-130.612-136.06-247.161-50.302-116.549 85.757-277.611-49.094-320.303 136.231z" fill="url(#b)"/><path d="M556.338 457.362c45.683-37.581 92.95-77.869 144.022-90.266 52.682-12.799 57.009 4.949 53.597 30.407-3.412 25.458-33.211 79.959-104.812 96.326-71.62 16.372-135.555-1.292-92.807-36.467z" fill="url(#c)"/><path fill-rule="evenodd" clip-rule="evenodd" d="M669.988 222.397v37.447H670a31.258 31.258 0 0 0-16.282 1.058 30.345 30.345 0 0 0-19.62 21.34 30.75 30.75 0 0 0 29.761 38.366 31.505 31.505 0 0 0 6.141-.616v37.447a24.549 24.549 0 0 1-24.551 24.549H608V382a31.253 31.253 0 0 0-1.058-16.281A30.347 30.347 0 0 0 585.6 346.1a30.752 30.752 0 0 0-38.367 29.76c.003 2.062.209 4.118.616 6.14l-37.437-.012c-13.556.003-24.548-10.983-24.552-24.538v-37.447a31.412 31.412 0 0 1-6.14.617 30.755 30.755 0 0 1-29.762-38.366 30.347 30.347 0 0 1 19.62-21.34 31.258 31.258 0 0 1 16.282-1.059h-.011v-37.447a24.548 24.548 0 0 1 24.551-24.55h37.449a31.334 31.334 0 0 1-.616-6.14 30.75 30.75 0 0 1 38.367-29.76 30.39 30.39 0 0 1 21.342 19.619A31.254 31.254 0 0 1 608 197.858h37.449a24.555 24.555 0 0 1 17.361 7.19 24.553 24.553 0 0 1 7.19 17.36m-413.107 22.063h37.567v-.012a31.36 31.36 0 0 0 1.061 16.334 30.445 30.445 0 0 0 21.409 19.683 30.85 30.85 0 0 0 38.488-29.857 31.547 31.547 0 0 0-.619-6.16h37.567a24.627 24.627 0 0 1 24.628 24.63v37.568h.012a31.35 31.35 0 0 0-16.334 1.062 30.442 30.442 0 0 0-19.681 21.409 30.851 30.851 0 0 0 29.855 38.49 31.469 31.469 0 0 0 6.16-.618l-.012 37.556c.002 13.599-11.018 24.626-24.616 24.63h-37.567c.408 2.028.615 4.092.618 6.16a30.851 30.851 0 0 1-38.488 29.857 30.443 30.443 0 0 1-21.408-19.683 31.36 31.36 0 0 1-1.062-16.334v.012h-37.566a24.626 24.626 0 0 1-24.628-24.63V367a31.469 31.469 0 0 1-6.16.618 30.849 30.849 0 0 1-29.855-38.49 30.484 30.484 0 0 1 19.682-21.409 31.345 31.345 0 0 1 16.333-1.062v-37.568a24.626 24.626 0 0 1 24.628-24.63" fill="#009688"/><path d="M118.659 471.348c-1.388-1.976-2.37-62.08-1.003-64.482 1.374-2.395 61.542-19.872 61.542-19.872s20.369-33.19 39.571-51.775c7.571-7.337 18.638-13.498 21.352-9.375 1.683 2.554-.989 9.093-4.768 15.976a.272.272 0 0 1-.034.062c-5.262 9.574-12.634 19.768-13.328 20.725a.864.864 0 0 0-.055.069s49.911-12.679 57.434-14.042c7.522-1.376 17.339-3.565 18.899 1.515 1.436 4.666-11.274 10.132-12.029 10.455.817-.227 18.088-4.997 20.651 1.508 1.903 4.838-15.959 13.993-16.488 14.255.446-.117 8.958-2.361 9.858 1.686 1.477 6.656-17.051 14.324-17.807 14.641.419-.104 7.303-1.728 7.798 1.996 1.223 9.223-62.511 34.787-81.987 41.98-19.497 7.186-88.211 36.653-89.606 34.678zm648.682-330.254c1.388 1.963 2.37 61.689 1.003 64.077-1.374 2.38-61.531 19.746-61.531 19.746s-20.366 32.982-39.565 51.45c-7.569 7.292-18.635 13.413-21.348 9.316-1.683-2.537.989-9.035 4.767-15.875.007-.021.021-.041.034-.062 5.262-9.514 12.632-19.644 13.326-20.595.041-.048.055-.068.055-.068s-49.902 12.599-57.424 13.953c-7.521 1.368-17.337 3.543-18.896-1.505-1.435-4.637 11.272-10.068 12.028-10.389-.818.225-18.086 4.965-20.648-1.498-1.903-4.809 15.956-13.906 16.485-14.166-.446.117-8.957 2.346-9.857-1.676-1.477-6.614 17.049-14.233 17.804-14.548-.419.103-7.301 1.717-7.796-1.984-1.222-9.165 62.5-34.569 81.973-41.716 19.494-7.141 88.196-36.423 89.59-34.46z" fill="#F8AE9D"/></g><defs><linearGradient id="b" x1="251.53" y1="722.027" x2="724.85" y2="-428.788" gradientUnits="userSpaceOnUse"><stop stop-color="#fff"/><stop offset="1" stop-color="#EEE"/></linearGradient><linearGradient id="c" x1="552.551" y1="619.902" x2="796.653" y2="144.968" gradientUnits="userSpaceOnUse"><stop stop-color="#fff"/><stop offset="1" stop-color="#EEE"/></linearGradient><clipPath id="a"><path fill="#fff" d="M0 0h900v600H0z"/></clipPath></defs></svg>