<svg width="900" height="600" viewBox="0 0 900 600" fill="none" xmlns="http://www.w3.org/2000/svg"><path fill="transparent" d="M0 0h900v600H0z"/><path d="M282.581 184.916c40.208-50.314 125.651-71.365 182.771 4.06 48.451 63.974 69.559 67.634 106.385 79.805 24.316 8.041 64.106 18.935 40.92 81.161-30.346 81.444-180.472 103.443-262.556 73.042-78.497-29.068-140.493-146.765-67.52-238.068z" fill="url(#a)"/><path d="M466.75 154.003c18.876 33.015 54.624 75.535 114.141 92.784 59.518 17.24 70.118-18.068 52.177-59.112-17.94-41.045-61.964-77.181-116.588-85.392-54.624-8.21-65.223 24.623-49.73 51.72z" fill="url(#b)"/><rect x="698.852" y="166.994" width="329.969" height="507.644" rx="10" transform="rotate(90 698.852 166.994)" fill="#009688"/><rect x="101" y="481" width="689" height="16" rx="8" fill="#E1E4E5"/><path d="M734.963 244.437s-13.075-3.509-17.583 26.466c-4.507 29.975-4.539 46.394-4.539 46.394s-1.656 6.518-6.517 4.236c-4.86-2.282-13.227-10.546-18.9-6.667-5.882 4.027-5.598 11.993-.805 22.244 4.793 10.252 14.468 33.077 15.336 35.151.856 2.026.679 5.501-2.881 4.474-3.56-1.027-26.397-14.017-31.907-2.817-5.523 11.204 12.527 37.559 14.442 40.474 1.915 2.915 1.753 4.497.498 5.798-1.255 1.301-8.524-3.791-15.166-7.225-6.642-3.434-14.954-6.238-17.595.492-2.642 6.73 3.237 29.06 35.877 57.619l15.989 12.244 18.807-7.451c39.271-18.396 51.111-38.226 50.434-45.423-.676-7.196-9.435-6.804-16.774-5.346-7.339 1.458-15.732 4.333-16.577 2.734-.846-1.598-.572-3.157 2.077-5.431s27.29-22.589 25.088-34.89c-2.198-12.29-27.739-6.137-31.444-6.148-3.701.002-2.9-3.381-1.521-5.093 1.409-1.746 17.04-21.002 24.48-29.526 7.443-8.512 9.92-16.097 5.384-21.594-4.368-5.308-14.706.33-20.006 1.176-5.3.847-5.083-5.885-5.083-5.885s4.529-15.786 8.495-45.838c3.966-30.051-9.9-30.233-9.9-30.233" fill="#E1E4E5"/><path d="M700.879 479.108c2.991-22.061 7.387-52.501 12.368-86.11 4.972-33.593 9.438-64.013 12.564-86.058 1.55-10.999 2.799-19.91 3.669-26.1.431-3.062.769-5.447 1.004-7.1.115-.787.212-1.399.274-1.846.073-.41.118-.631.118-.631s-.009.211-.05.639c-.051.444-.12 1.062-.207 1.854-.208 1.659-.506 4.046-.882 7.119-.77 6.176-1.948 15.108-3.451 26.134-2.992 22.061-7.391 52.489-12.36 86.094-4.968 33.605-9.447 64.029-12.561 86.07" fill="#fff"/><path d="M698.667 326.909c.045-.025.36.373.929 1.133.565.748 1.344 1.855 2.287 3.232 1.888 2.766 4.399 6.642 7.09 10.991 2.619 4.278 4.999 8.15 6.83 11.14.822 1.318 1.513 2.436 2.087 3.364.499.792.751 1.246.706 1.271-.046.025-.373-.37-.938-1.118a92.687 92.687 0 0 1-2.266-3.251c-1.867-2.784-4.324-6.701-6.999-11.041l-6.906-11.081c-.822-1.317-1.525-2.432-2.1-3.36-.502-.804-.754-1.258-.72-1.28zm21.791 30.88c-.107-.154 7.664-5.691 17.365-12.344 9.698-6.665 17.656-11.939 17.763-11.785.106.154-7.668 5.678-17.366 12.344-9.709 6.668-17.656 11.939-17.762 11.785zm-9.961 51.262c-.013-.049.485-.234 1.377-.552 1.042-.344 2.324-.766 3.83-1.273 3.231-1.075 7.701-2.586 12.566-4.423 4.868-1.826 9.22-3.631 12.371-4.958 1.465-.614 2.705-1.142 3.724-1.571.88-.366 1.381-.539 1.403-.506.025.045-.441.301-1.286.748a92.809 92.809 0 0 1-3.644 1.772 177.223 177.223 0 0 1-12.319 5.152 184.324 184.324 0 0 1-12.667 4.241c-1.644.48-2.982.838-3.897 1.07-.928.236-1.445.349-1.458.3zm-25.851-23.601c.03-.034.42.253 1.116.809.685.56 1.661 1.38 2.86 2.401a674.54 674.54 0 0 1 9.277 8.112 705.27 705.27 0 0 1 9.149 8.263c1.16 1.07 2.085 1.944 2.721 2.568.633.613.966.98.936 1.014-.029.034-.419-.253-1.116-.809-.684-.56-1.66-1.38-2.859-2.402a673.554 673.554 0 0 1-9.277-8.111c-3.594-3.195-6.828-6.121-9.137-8.266a129.25 129.25 0 0 1-2.721-2.569c-.646-.609-.991-.973-.949-1.01zm-14.542 44.135c.03-.035.534.339 1.416 1.054.973.808 2.212 1.832 3.677 3.068 3.086 2.615 7.319 6.251 11.965 10.311 4.647 4.06 8.832 7.762 11.837 10.463 1.414 1.289 2.605 2.378 3.539 3.236.819.771 1.267 1.224 1.237 1.258-.03.035-.534-.339-1.417-1.054-.972-.808-2.211-1.832-3.677-3.068a1079.608 1079.608 0 0 1-11.965-10.311c-4.646-4.06-8.831-7.762-11.836-10.463a1056.33 1056.33 0 0 1-3.539-3.236c-.832-.767-1.267-1.224-1.237-1.258zm33.057 28.46c-.013-.048.608-.306 1.731-.737 1.257-.467 2.868-1.069 4.802-1.782 4.051-1.516 9.654-3.617 15.763-6.114a514.009 514.009 0 0 0 15.555-6.645 749.753 749.753 0 0 0 4.684-2.076c1.109-.48 1.731-.738 1.756-.692.026.045-.564.373-1.639.934-1.075.562-2.65 1.349-4.604 2.277a288.692 288.692 0 0 1-15.491 6.836 291.884 291.884 0 0 1-15.864 5.932 171.858 171.858 0 0 1-4.881 1.582c-1.146.346-1.791.518-1.812.485z" fill="#fff"/><path d="M140.381 360.898c3.099 17.387 21.144 32.678 21.144 32.678s14.794-21.154 11.695-38.541c-3.11-17.39-12.965-30.173-22.036-28.549-9.069 1.612-13.901 17.024-10.803 34.412zm39.732 30.203c-12.095 12.863-13.586 36.464-13.586 36.464s25.794-.745 37.893-13.621c12.098-12.875 16.463-28.413 9.742-34.72-6.708-6.304-21.953-.987-34.049 11.877zm-14.454 89.078c-.545 3.017-.76 5.131-.816 5.668-.004.062-.017.109-.011.136l-.003.011s.011.003.015-.008l.085.01c.279-.013 1.115-.04 2.378-.116 6.757-.436 25.648-2.542 35.665-12.8 12.336-12.636 16.984-28.11 10.395-34.533-6.586-6.434-21.929-1.407-34.265 11.229-5.521 5.663-8.965 13.502-11.067 20.458a85.133 85.133 0 0 0-2.376 9.945zm-37.791-57.173c15.369 8.7 38.655 4.571 38.655 4.571s-6.849-24.894-22.217-33.593c-15.368-8.7-31.499-9.257-36.043-1.248-4.546 8.02 4.237 21.571 19.605 30.27z" fill="#E1E4E5"/><path d="M129.594 477.326c14.374 10.253 37.961 8.565 37.961 8.565s-4.221-25.471-18.596-35.724c-14.374-10.254-30.368-12.493-35.718-4.989-5.349 7.504 1.967 21.891 16.353 32.148z" fill="#E1E4E5"/><path d="M158.481 386.434c.084.248 6.889 24.277 4.549 85.383a748.135 748.135 0 0 1-.671 14.03l.296.016 2.178.119.003-.011.012.003.085.01c.279-.013 1.115-.04 2.378-.116.313-5.477.553-10.684.728-15.646 2.213-60.726-4.51-84.168-4.808-85.214l-4.75 1.426z" fill="#E1E4E5"/><path d="M403.403 443.152c0 8.403 6.803 15.229 15.226 15.229h62.955c8.401 0 15.226-6.804 15.226-15.229 0-8.402-6.803-15.229-15.226-15.229h-62.955c-8.423 0-15.226 6.804-15.226 15.229z" fill="#fff"/><path d="M463.475 443.198c0 2.237 1.803 4.064 4.041 4.064 2.238 0 4.064-1.804 4.064-4.041 0-2.238-1.804-4.065-4.041-4.065a4.025 4.025 0 0 0-4.064 4.042zm-17.422-.069c0 2.238 1.804 4.064 4.041 4.064 2.238 0 4.064-1.803 4.064-4.041 0-2.238-1.803-4.064-4.041-4.064-2.238-.023-4.064 1.804-4.064 4.041zm-17.42-.045c0 2.237 1.804 4.064 4.041 4.064 2.238 0 4.064-1.804 4.064-4.042 0-2.237-1.803-4.064-4.041-4.064a4.024 4.024 0 0 0-4.064 4.042z" fill="#E1E4E5"/><path d="M493.169 406.117h108.81a5.492 5.492 0 0 0 5.497-5.498V364.38a5.492 5.492 0 0 0-5.497-5.497h-108.81a5.492 5.492 0 0 0-5.497 5.497v36.255a5.489 5.489 0 0 0 5.497 5.482z" fill="#fff"/><path d="M586.394 376.987h-79.619m27.533 12.546h-27.272" stroke="#009688" stroke-width="3.299" stroke-miterlimit="10" stroke-linecap="round" stroke-linejoin="round"/><path d="M590.647 399.836v21.375l-27.241-21.375h27.241zm-121.845-80.019h108.809a5.491 5.491 0 0 0 5.498-5.497v-36.239a5.492 5.492 0 0 0-5.498-5.497H468.802a5.492 5.492 0 0 0-5.497 5.497v36.254a5.488 5.488 0 0 0 5.497 5.482z" fill="#fff"/><path d="M562.027 290.688h-79.619m27.532 12.545h-27.271" stroke="#009688" stroke-width="3.299" stroke-miterlimit="10" stroke-linecap="round" stroke-linejoin="round"/><path d="M566.28 313.537v21.375l-27.241-21.375h27.241zm-168.374 74.305H289.097a5.492 5.492 0 0 1-5.498-5.498v-36.239a5.492 5.492 0 0 1 5.498-5.497h108.809a5.492 5.492 0 0 1 5.497 5.497v36.255a5.489 5.489 0 0 1-5.497 5.482z" fill="#fff"/><path d="M384.3 358.712h-79.618m27.532 12.546h-27.272" stroke="#009688" stroke-width="3.299" stroke-miterlimit="10" stroke-linecap="round" stroke-linejoin="round"/><path d="M300.428 381.561v21.375l27.241-21.375h-27.241zm107.63-96.263H299.249a5.492 5.492 0 0 1-5.497-5.498v-36.239a5.492 5.492 0 0 1 5.497-5.497h108.809a5.492 5.492 0 0 1 5.498 5.497v36.255c0 3.025-2.457 5.482-5.498 5.482z" fill="#fff"/><path d="M394.452 256.168h-79.618m27.532 12.545h-27.271" stroke="#009688" stroke-width="3.299" stroke-miterlimit="10" stroke-linecap="round" stroke-linejoin="round"/><path d="M310.582 279.017v21.375l27.24-21.375h-27.24z" fill="#fff"/><circle cx="450" cy="193" r="7" fill="#fff"/><path fill-rule="evenodd" clip-rule="evenodd" d="M142.248 248.291h1.808a.79.79 0 0 0 .79-.789v-1.808a.79.79 0 0 0-.79-.79h-1.808a.793.793 0 0 0-.789.79v1.808a.787.787 0 0 0 .789.789zm6.269 0h1.808c.434 0 .79-.356.79-.789v-1.808a.79.79 0 0 0-.79-.79h-1.808a.793.793 0 0 0-.789.79v1.808c0 .433.356.789.789.789zm6.274 0h1.808c.434 0 .79-.356.79-.789v-1.808a.79.79 0 0 0-.79-.79h-1.808a.793.793 0 0 0-.789.79v1.808a.787.787 0 0 0 .789.789zm6.271 0h1.808a.793.793 0 0 0 .789-.789v-1.808a.79.79 0 0 0-.789-.79h-1.808a.793.793 0 0 0-.793.79v1.808a.797.797 0 0 0 .793.789zm6.269 0h1.808a.793.793 0 0 0 .793-.789v-1.808a.791.791 0 0 0-.793-.79h-1.808a.792.792 0 0 0-.789.79v1.808c0 .433.355.789.789.789zm-18.584-6.836h1.808c.434 0 .79-.356.79-.79v-1.812a.793.793 0 0 0-.79-.789h-1.808a.79.79 0 0 0-.789.789v1.809a.788.788 0 0 0 .789.793zm6.27 0h1.808c.434 0 .79-.356.79-.79v-1.812a.793.793 0 0 0-.79-.789h-1.808a.793.793 0 0 0-.789.789v1.809a.788.788 0 0 0 .789.793zm6.27 0h1.808a.794.794 0 0 0 .793-.79v-1.812a.793.793 0 0 0-.793-.789h-1.808a.792.792 0 0 0-.789.789v1.809c0 .437.355.793.789.793zm-6.496 14.181h1.808c.434 0 .79-.356.79-.789v-1.809a.79.79 0 0 0-.79-.789h-1.808a.793.793 0 0 0-.789.789v1.809a.787.787 0 0 0 .789.789zm6.271 0h1.808a.793.793 0 0 0 .789-.789v-1.809a.79.79 0 0 0-.789-.789h-1.808a.793.793 0 0 0-.793.789v1.809a.797.797 0 0 0 .793.789zm586.795-62.171h-1.808a.79.79 0 0 1-.789-.789v-1.808a.79.79 0 0 1 .789-.789h1.808c.434 0 .79.355.79.789v1.808a.788.788 0 0 1-.79.789zm-6.269 0h-1.808a.792.792 0 0 1-.79-.789v-1.808a.79.79 0 0 1 .79-.789h1.808c.433 0 .789.355.789.789v1.808a.792.792 0 0 1-.789.789zm-6.275 0h-1.808a.792.792 0 0 1-.789-.789v-1.808a.79.79 0 0 1 .789-.789h1.808c.434 0 .79.355.79.789v1.808a.788.788 0 0 1-.79.789zm-6.269 0h-1.808a.792.792 0 0 1-.79-.789v-1.808a.79.79 0 0 1 .79-.789h1.808c.437 0 .793.355.793.789v1.808a.798.798 0 0 1-.793.789zm-6.27 0h-1.808a.793.793 0 0 1-.793-.789v-1.808a.79.79 0 0 1 .793-.789h1.808c.434 0 .789.355.789.789v1.808a.791.791 0 0 1-.789.789zm18.584-6.836h-1.808a.792.792 0 0 1-.789-.789v-1.812c0-.434.355-.79.789-.79h1.808a.79.79 0 0 1 .79.79v1.808a.79.79 0 0 1-.79.793zm-6.27 0h-1.808a.793.793 0 0 1-.79-.789v-1.812c0-.434.356-.79.79-.79h1.808c.433 0 .789.356.789.79v1.808a.788.788 0 0 1-.789.793zm-6.27 0h-1.808a.793.793 0 0 1-.793-.789v-1.812c0-.434.356-.79.793-.79h1.808c.434 0 .789.356.789.79v1.808a.793.793 0 0 1-.789.793zm6.495 14.181h-1.808a.793.793 0 0 1-.789-.789v-1.808a.79.79 0 0 1 .789-.79h1.808c.434 0 .79.356.79.79v1.808a.788.788 0 0 1-.79.789zm-6.269 0h-1.808a.793.793 0 0 1-.79-.789v-1.808a.79.79 0 0 1 .79-.79h1.808c.437 0 .793.356.793.79v1.808a.799.799 0 0 1-.793.789z" fill="#E1E4E5"/><defs><linearGradient id="a" x1="442.757" y1="602.26" x2="435.423" y2="-182.959" gradientUnits="userSpaceOnUse"><stop stop-color="#fff"/><stop offset="1" stop-color="#EEE"/></linearGradient><linearGradient id="b" x1="554.474" y1="335.509" x2="550.621" y2="-62.477" gradientUnits="userSpaceOnUse"><stop stop-color="#fff"/><stop offset="1" stop-color="#EEE"/></linearGradient></defs></svg>