<svg width="900" height="600" viewBox="0 0 900 600" fill="none" xmlns="http://www.w3.org/2000/svg"><path fill="transparent" d="M0 0h900v600H0z"/><path d="M449.71 519.833c118.271 0 214.148-95.877 214.148-214.148S567.981 91.537 449.71 91.537s-214.148 95.877-214.148 214.148 95.877 214.148 214.148 214.148z" fill="#009688"/><path d="M353.343 273.563h192.733m-160.611-85.66 59.961 85.66m64.245-85.66-59.962 85.66m-96.366 64.245h192.733m-160.611 85.659 59.961-85.659m64.245 85.659-59.962-85.659" stroke="#fff" stroke-width="28.098" stroke-miterlimit="10" stroke-linecap="round" stroke-linejoin="round"/><path fill-rule="evenodd" clip-rule="evenodd" d="M154.744 489.959h5.279a2.306 2.306 0 0 1 2.304 2.304v5.279a2.305 2.305 0 0 1-2.304 2.304h-5.279a2.312 2.312 0 0 1-2.304-2.304v-5.279c-.011-1.266 1.027-2.304 2.304-2.304zm18.304 0h5.279a2.312 2.312 0 0 1 2.304 2.304v5.279a2.305 2.305 0 0 1-2.304 2.304h-5.279a2.313 2.313 0 0 1-2.304-2.304v-5.279a2.313 2.313 0 0 1 2.304-2.304zm18.315 0h5.279a2.312 2.312 0 0 1 2.304 2.304v5.279a2.305 2.305 0 0 1-2.304 2.304h-5.279a2.312 2.312 0 0 1-2.304-2.304v-5.279c-.011-1.266 1.028-2.304 2.304-2.304zm18.302 0h5.279a2.312 2.312 0 0 1 2.304 2.304v5.279a2.305 2.305 0 0 1-2.304 2.304h-5.279a2.315 2.315 0 0 1-2.315-2.304v-5.279a2.329 2.329 0 0 1 2.315-2.304zm18.304 0h5.279a2.315 2.315 0 0 1 2.315 2.304v5.279a2.308 2.308 0 0 1-2.315 2.304h-5.279a2.313 2.313 0 0 1-2.305-2.304v-5.279a2.313 2.313 0 0 1 2.305-2.304zm-54.251 19.958h5.279a2.312 2.312 0 0 1 2.304 2.304v5.29a2.313 2.313 0 0 1-2.304 2.304h-5.279a2.307 2.307 0 0 1-2.304-2.304v-5.279a2.301 2.301 0 0 1 2.304-2.315zm18.302 0h5.279a2.313 2.313 0 0 1 2.305 2.304v5.29a2.314 2.314 0 0 1-2.305 2.304h-5.279a2.314 2.314 0 0 1-2.304-2.304v-5.279a2.301 2.301 0 0 1 2.304-2.315zm18.305 0h5.279a2.315 2.315 0 0 1 2.315 2.304v5.29a2.316 2.316 0 0 1-2.315 2.304h-5.279a2.313 2.313 0 0 1-2.304-2.304v-5.279a2.315 2.315 0 0 1 2.304-2.315zm-18.962-41.401h5.279a2.312 2.312 0 0 1 2.304 2.304v5.279a2.305 2.305 0 0 1-2.304 2.304h-5.279a2.312 2.312 0 0 1-2.304-2.304v-5.279c-.011-1.266 1.028-2.304 2.304-2.304zm-18.299 0h5.279a2.312 2.312 0 0 1 2.304 2.304v5.279a2.305 2.305 0 0 1-2.304 2.304h-5.279a2.313 2.313 0 0 1-2.304-2.304v-5.279c-.011-1.266 1.028-2.304 2.304-2.304zm36.601 0h5.279a2.312 2.312 0 0 1 2.304 2.304v5.279a2.305 2.305 0 0 1-2.304 2.304h-5.279a2.315 2.315 0 0 1-2.315-2.304v-5.279a2.329 2.329 0 0 1 2.315-2.304zM77.472 299.463h7.956a3.475 3.475 0 0 1 3.472 3.472v7.956a3.475 3.475 0 0 1-3.472 3.472h-7.956A3.486 3.486 0 0 1 74 310.891v-7.956c-.017-1.907 1.549-3.472 3.472-3.472zm27.584 0h7.956a3.486 3.486 0 0 1 3.472 3.472v7.956a3.475 3.475 0 0 1-3.472 3.472h-7.956a3.486 3.486 0 0 1-3.472-3.472v-7.956a3.486 3.486 0 0 1 3.472-3.472zm27.602 0h7.955a3.486 3.486 0 0 1 3.473 3.472v7.956a3.475 3.475 0 0 1-3.473 3.472h-7.955a3.486 3.486 0 0 1-3.473-3.472v-7.956c-.016-1.907 1.549-3.472 3.473-3.472zm27.582 0h7.955a3.486 3.486 0 0 1 3.473 3.472v7.956a3.475 3.475 0 0 1-3.473 3.472h-7.955c-1.924 0-3.489-1.565-3.489-3.472v-7.956c.016-1.907 1.581-3.472 3.489-3.472zm27.584 0h7.956c1.923 0 3.489 1.565 3.489 3.472v7.956a3.479 3.479 0 0 1-3.489 3.472h-7.956a3.486 3.486 0 0 1-3.472-3.472v-7.956a3.486 3.486 0 0 1 3.472-3.472zm-81.758 30.078h7.956a3.486 3.486 0 0 1 3.472 3.472v7.972a3.486 3.486 0 0 1-3.472 3.473h-7.956a3.476 3.476 0 0 1-3.473-3.473v-7.956a3.469 3.469 0 0 1 3.473-3.488zm27.582 0h7.956a3.486 3.486 0 0 1 3.472 3.472v7.972a3.486 3.486 0 0 1-3.472 3.473h-7.956a3.486 3.486 0 0 1-3.472-3.473v-7.956a3.467 3.467 0 0 1 3.472-3.488zm27.586 0h7.956c1.924 0 3.489 1.565 3.489 3.472v7.972c0 1.907-1.565 3.473-3.489 3.473h-7.956a3.486 3.486 0 0 1-3.472-3.473v-7.956c0-1.923 1.565-3.488 3.472-3.488zm-28.576-62.393h7.955a3.486 3.486 0 0 1 3.473 3.473v7.955a3.476 3.476 0 0 1-3.473 3.473h-7.955a3.486 3.486 0 0 1-3.473-3.473v-7.955c-.016-1.908 1.549-3.473 3.473-3.473zm-27.576 0h7.955a3.486 3.486 0 0 1 3.473 3.473v7.955a3.476 3.476 0 0 1-3.473 3.473h-7.955a3.486 3.486 0 0 1-3.473-3.473v-7.955c-.016-1.908 1.549-3.473 3.473-3.473zm55.158 0h7.955a3.486 3.486 0 0 1 3.473 3.473v7.955a3.476 3.476 0 0 1-3.473 3.473h-7.955c-1.924 0-3.489-1.565-3.489-3.473v-7.955c.016-1.908 1.581-3.473 3.489-3.473zm543.581 32.315h7.956a3.475 3.475 0 0 1 3.472 3.472v7.956a3.475 3.475 0 0 1-3.472 3.472h-7.956a3.486 3.486 0 0 1-3.473-3.472v-7.956c-.016-1.907 1.549-3.472 3.473-3.472zm27.583 0h7.956a3.486 3.486 0 0 1 3.472 3.472v7.956a3.475 3.475 0 0 1-3.472 3.472h-7.956a3.486 3.486 0 0 1-3.473-3.472v-7.956a3.486 3.486 0 0 1 3.473-3.472zm27.601 0h7.956a3.486 3.486 0 0 1 3.473 3.472v7.956a3.475 3.475 0 0 1-3.473 3.472h-7.956a3.486 3.486 0 0 1-3.472-3.472v-7.956c-.016-1.907 1.549-3.472 3.472-3.472zm27.582 0h7.956a3.486 3.486 0 0 1 3.473 3.472v7.956a3.475 3.475 0 0 1-3.473 3.472h-7.956c-1.923 0-3.488-1.565-3.488-3.472v-7.956c.016-1.907 1.581-3.472 3.488-3.472zm27.585 0h7.955c1.924 0 3.489 1.565 3.489 3.472v7.956a3.478 3.478 0 0 1-3.489 3.472h-7.955a3.486 3.486 0 0 1-3.473-3.472v-7.956a3.486 3.486 0 0 1 3.473-3.472zm-81.757 30.078h7.955a3.486 3.486 0 0 1 3.473 3.472v7.972a3.487 3.487 0 0 1-3.473 3.473h-7.955a3.476 3.476 0 0 1-3.473-3.473v-7.956a3.469 3.469 0 0 1 3.473-3.488zm27.581 0h7.955a3.486 3.486 0 0 1 3.473 3.472v7.972a3.487 3.487 0 0 1-3.473 3.473h-7.955a3.487 3.487 0 0 1-3.473-3.473v-7.956a3.469 3.469 0 0 1 3.473-3.488zm27.586 0h7.956c1.923 0 3.488 1.565 3.488 3.472v7.972c0 1.907-1.565 3.473-3.488 3.473h-7.956a3.487 3.487 0 0 1-3.473-3.473v-7.956c0-1.923 1.565-3.488 3.473-3.488zm-28.577-62.393h7.956a3.486 3.486 0 0 1 3.473 3.473v7.955a3.476 3.476 0 0 1-3.473 3.473h-7.956a3.486 3.486 0 0 1-3.472-3.473v-7.955c-.016-1.908 1.549-3.473 3.472-3.473zm-27.576 0h7.956a3.486 3.486 0 0 1 3.472 3.473v7.955a3.475 3.475 0 0 1-3.472 3.473h-7.956a3.486 3.486 0 0 1-3.472-3.473v-7.955c-.017-1.908 1.549-3.473 3.472-3.473zm55.158 0h7.956a3.486 3.486 0 0 1 3.473 3.473v7.955a3.476 3.476 0 0 1-3.473 3.473h-7.956c-1.923 0-3.488-1.565-3.488-3.473v-7.955c.016-1.908 1.581-3.473 3.488-3.473zM154.744 112.979h5.279a2.307 2.307 0 0 1 2.304 2.305v5.279a2.306 2.306 0 0 1-2.304 2.304h-5.279a2.313 2.313 0 0 1-2.304-2.304v-5.279c-.011-1.266 1.027-2.305 2.304-2.305zm18.304 0h5.279a2.313 2.313 0 0 1 2.304 2.305v5.279a2.306 2.306 0 0 1-2.304 2.304h-5.279a2.314 2.314 0 0 1-2.304-2.304v-5.279a2.314 2.314 0 0 1 2.304-2.305zm18.315 0h5.279a2.313 2.313 0 0 1 2.304 2.305v5.279a2.306 2.306 0 0 1-2.304 2.304h-5.279a2.313 2.313 0 0 1-2.304-2.304v-5.279c-.011-1.266 1.028-2.305 2.304-2.305zm18.302 0h5.279a2.313 2.313 0 0 1 2.304 2.305v5.279a2.306 2.306 0 0 1-2.304 2.304h-5.279a2.315 2.315 0 0 1-2.315-2.304v-5.279a2.33 2.33 0 0 1 2.315-2.305zm18.304 0h5.279a2.316 2.316 0 0 1 2.315 2.305v5.279a2.309 2.309 0 0 1-2.315 2.304h-5.279a2.314 2.314 0 0 1-2.305-2.304v-5.279a2.314 2.314 0 0 1 2.305-2.305zm-54.251 19.958h5.279a2.313 2.313 0 0 1 2.304 2.304v5.29a2.312 2.312 0 0 1-2.304 2.304h-5.279a2.306 2.306 0 0 1-2.304-2.304v-5.279a2.302 2.302 0 0 1 2.304-2.315zm18.302 0h5.279a2.314 2.314 0 0 1 2.305 2.304v5.29a2.313 2.313 0 0 1-2.305 2.304h-5.279a2.313 2.313 0 0 1-2.304-2.304v-5.279a2.302 2.302 0 0 1 2.304-2.315zm18.305 0h5.279a2.316 2.316 0 0 1 2.315 2.304v5.29a2.315 2.315 0 0 1-2.315 2.304h-5.279a2.312 2.312 0 0 1-2.304-2.304v-5.279a2.315 2.315 0 0 1 2.304-2.315zm-18.962-41.4h5.279a2.313 2.313 0 0 1 2.304 2.304v5.279a2.306 2.306 0 0 1-2.304 2.304h-5.279a2.313 2.313 0 0 1-2.304-2.304v-5.28c-.011-1.265 1.028-2.303 2.304-2.303zm-18.299 0h5.279a2.313 2.313 0 0 1 2.304 2.304v5.279a2.306 2.306 0 0 1-2.304 2.304h-5.279a2.314 2.314 0 0 1-2.304-2.304v-5.28c-.011-1.265 1.028-2.303 2.304-2.303zm36.601 0h5.279a2.313 2.313 0 0 1 2.304 2.304v5.279a2.306 2.306 0 0 1-2.304 2.304h-5.279a2.315 2.315 0 0 1-2.315-2.304v-5.28a2.33 2.33 0 0 1 2.315-2.303zm456.692 398.422h5.279a2.305 2.305 0 0 1 2.304 2.304v5.279a2.305 2.305 0 0 1-2.304 2.304h-5.279a2.313 2.313 0 0 1-2.304-2.304v-5.279c-.011-1.266 1.028-2.304 2.304-2.304zm18.305 0h5.279a2.312 2.312 0 0 1 2.304 2.304v5.279a2.305 2.305 0 0 1-2.304 2.304h-5.279a2.312 2.312 0 0 1-2.304-2.304v-5.279a2.312 2.312 0 0 1 2.304-2.304zm18.314 0h5.279a2.313 2.313 0 0 1 2.305 2.304v5.279a2.306 2.306 0 0 1-2.305 2.304h-5.279a2.313 2.313 0 0 1-2.304-2.304v-5.279c-.011-1.266 1.028-2.304 2.304-2.304zm18.302 0h5.279a2.312 2.312 0 0 1 2.304 2.304v5.279a2.305 2.305 0 0 1-2.304 2.304h-5.279a2.315 2.315 0 0 1-2.315-2.304v-5.279a2.329 2.329 0 0 1 2.315-2.304zm18.304 0h5.279a2.315 2.315 0 0 1 2.315 2.304v5.279a2.308 2.308 0 0 1-2.315 2.304h-5.279a2.312 2.312 0 0 1-2.304-2.304v-5.279a2.312 2.312 0 0 1 2.304-2.304zm-54.25 19.958h5.279a2.312 2.312 0 0 1 2.304 2.304v5.29a2.313 2.313 0 0 1-2.304 2.304h-5.279a2.306 2.306 0 0 1-2.304-2.304v-5.279a2.3 2.3 0 0 1 2.304-2.315zm18.302 0h5.279a2.313 2.313 0 0 1 2.304 2.304v5.29a2.314 2.314 0 0 1-2.304 2.304h-5.279a2.314 2.314 0 0 1-2.305-2.304v-5.279a2.302 2.302 0 0 1 2.305-2.315zm18.304 0h5.279a2.315 2.315 0 0 1 2.315 2.304v5.29a2.315 2.315 0 0 1-2.315 2.304h-5.279a2.314 2.314 0 0 1-2.304-2.304v-5.279a2.315 2.315 0 0 1 2.304-2.315zm-18.962-41.401h5.279a2.313 2.313 0 0 1 2.305 2.304v5.279a2.306 2.306 0 0 1-2.305 2.304h-5.279a2.313 2.313 0 0 1-2.304-2.304v-5.279c-.011-1.266 1.028-2.304 2.304-2.304zm-18.298 0h5.279a2.313 2.313 0 0 1 2.304 2.304v5.279a2.306 2.306 0 0 1-2.304 2.304h-5.279a2.313 2.313 0 0 1-2.305-2.304v-5.279c-.01-1.266 1.028-2.304 2.305-2.304zm36.6 0h5.279a2.312 2.312 0 0 1 2.304 2.304v5.279a2.305 2.305 0 0 1-2.304 2.304h-5.279a2.315 2.315 0 0 1-2.315-2.304v-5.279a2.329 2.329 0 0 1 2.315-2.304zm-54.921-355.537h5.279a2.306 2.306 0 0 1 2.304 2.305v5.279a2.306 2.306 0 0 1-2.304 2.304h-5.279a2.314 2.314 0 0 1-2.304-2.304v-5.279c-.011-1.266 1.028-2.305 2.304-2.305zm18.305 0h5.279a2.313 2.313 0 0 1 2.304 2.305v5.279a2.306 2.306 0 0 1-2.304 2.304h-5.279a2.313 2.313 0 0 1-2.304-2.304v-5.279a2.313 2.313 0 0 1 2.304-2.305zm18.314 0h5.279a2.314 2.314 0 0 1 2.305 2.305v5.279a2.307 2.307 0 0 1-2.305 2.304h-5.279a2.314 2.314 0 0 1-2.304-2.304v-5.279c-.011-1.266 1.028-2.305 2.304-2.305zm18.302 0h5.279a2.313 2.313 0 0 1 2.304 2.305v5.279a2.306 2.306 0 0 1-2.304 2.304h-5.279a2.316 2.316 0 0 1-2.315-2.304v-5.279a2.33 2.33 0 0 1 2.315-2.305zm18.304 0h5.279a2.316 2.316 0 0 1 2.315 2.305v5.279a2.309 2.309 0 0 1-2.315 2.304h-5.279a2.313 2.313 0 0 1-2.304-2.304v-5.279a2.313 2.313 0 0 1 2.304-2.305zm-54.25 19.958h5.279a2.313 2.313 0 0 1 2.304 2.304v5.29a2.312 2.312 0 0 1-2.304 2.304h-5.279a2.305 2.305 0 0 1-2.304-2.304v-5.279a2.301 2.301 0 0 1 2.304-2.315zm18.302 0h5.279a2.314 2.314 0 0 1 2.304 2.304v5.29a2.313 2.313 0 0 1-2.304 2.304h-5.279a2.313 2.313 0 0 1-2.305-2.304v-5.279a2.303 2.303 0 0 1 2.305-2.315zm18.304 0h5.279a2.315 2.315 0 0 1 2.315 2.304v5.29a2.315 2.315 0 0 1-2.315 2.304h-5.279a2.313 2.313 0 0 1-2.304-2.304v-5.279a2.316 2.316 0 0 1 2.304-2.315zm-18.962-41.4h5.279a2.314 2.314 0 0 1 2.305 2.304v5.279a2.307 2.307 0 0 1-2.305 2.304h-5.279a2.314 2.314 0 0 1-2.304-2.304v-5.28c-.011-1.265 1.028-2.303 2.304-2.303zm-18.298 0h5.279a2.313 2.313 0 0 1 2.304 2.304v5.279a2.307 2.307 0 0 1-2.304 2.304h-5.279a2.314 2.314 0 0 1-2.305-2.304v-5.28c-.01-1.265 1.028-2.303 2.305-2.303zm36.6 0h5.279a2.313 2.313 0 0 1 2.304 2.304v5.279a2.306 2.306 0 0 1-2.304 2.304h-5.279a2.316 2.316 0 0 1-2.315-2.304v-5.28a2.33 2.33 0 0 1 2.315-2.303z" fill="#E1E4E5"/><circle r="7.555" transform="matrix(-1 0 0 1 309.85 88.555)" fill="#E1E4E5"/><circle r="7.555" transform="matrix(-1 0 0 1 583.804 88.555)" fill="#E1E4E5"/><circle r="7.555" transform="matrix(-1 0 0 1 747.707 204.459)" fill="#E1E4E5"/><circle r="7.555" transform="matrix(-1 0 0 1 743.025 416.364)" fill="#E1E4E5"/><circle r="7.555" transform="matrix(-1 0 0 1 184.58 416.364)" fill="#E1E4E5"/><circle r="7.555" transform="matrix(-1 0 0 1 168.19 204.459)" fill="#E1E4E5"/></svg>