<svg width="900" height="600" viewBox="0 0 900 600" fill="none" xmlns="http://www.w3.org/2000/svg"><path fill="transparent" d="M0 0h900v600H0z"/><path fill-rule="evenodd" clip-rule="evenodd" d="M484 143.999C484 166.09 466.092 184 444 184c-22.091 0-40-17.91-40-40.001 0-22.09 17.909-39.999 40-39.999 22.092 0 40 17.909 40 39.999zm259.084 79.805c14.111 0 7.509-22.377-10.369-17.032-.99-31.07-51.633-53.803-72.574-11.897-5.921-4.685-19.216 4.164-16.272 11.897-6.577.561-11.751 1.321-15.776 2.329-9.295 2.327-7.455 14.598 2.126 14.512l112.865.191zm-265.864 0c-13.344 0-7.101-21.16 9.804-16.106.936-29.38 48.825-50.877 68.628-11.25 5.599-4.43 18.171 3.938 15.387 11.25 6.219.53 11.111 1.25 14.918 2.202 8.789 2.201 7.049 13.805-2.01 13.724l-106.727.18zm162.22-77.461c-6.358 0-3.383-10.083 4.672-7.675.446-14 23.266-24.243 32.702-5.361 2.668-2.111 8.658 1.877 7.332 5.361 2.963.253 5.295.596 7.109 1.05 4.188 1.048 3.359 6.577-.958 6.539l-50.857.086zm-56.083 37.179h36.225c3.239 0 4.634-4.193 1.984-6.053l-.112-.079c-3.774-2.593-8.726-2.358-8.726-2.358S612.021 161 598.696 161c-12.047 0-16.851 11.823-18.583 18.337-.563 2.116 1.054 4.185 3.244 4.185zm-393.983 39h-39.998c-3.238 0-4.635-4.193-1.984-6.054l.113-.078c3.773-2.594 8.726-2.359 8.726-2.359S156.938 200 170.263 200c6.588 0 11.911 11.261 11.911 11.261s8.962 0 10.445 7.075c.449 2.144-1.054 4.186-3.245 4.186zM245.752 226h159.711c14.992 0 14.304-12.408 9.407-16.732-5.019-4.432-14.936-2.634-14.936-2.634s-2.953-8.346-12.671-12.41c-8.597-3.594-17.602-1.884-17.602-1.884s0-5.728-5.504-10.471c-5.505-4.745-12.844-4.283-12.844-4.283S346.268 146 312.555 146c-33.714 0-37.612 29.74-37.612 29.74s-7.569 0-13.073 5.073c-5.505 5.072-6.192 10.835-6.192 10.835s-18.408-2.493-23.853 13.47c-3.244 9.513 3.422 20.882 13.927 20.882zm-57.128-64.925h50.059c4.699 0 4.483-3.889 2.948-5.245-1.573-1.389-4.681-.825-4.681-.825s-.926-2.616-3.972-3.89c-2.694-1.126-5.517-.59-5.517-.59s0-1.796-1.725-3.283c-1.725-1.487-4.026-1.342-4.026-1.342s-1.581-9.9-12.148-9.9-11.789 9.322-11.789 9.322-2.372 0-4.097 1.59c-1.726 1.589-1.941 3.396-1.941 3.396s-5.77-.782-7.476 4.222c-1.017 2.982 1.072 6.545 4.365 6.545z" fill="#fff" stroke="#E1E4E5" stroke-width="4"/><path d="M391.683 491.819V383m112.964 108.819V383" stroke="#E1E4E5" stroke-width="4" stroke-linecap="round" stroke-linejoin="round"/><path fill-rule="evenodd" clip-rule="evenodd" d="M372.916 430.141h150.436v-17.418H372.916v17.418zm0-25.338h150.436V386.33H372.916v18.473z" fill="#fff" stroke="#E1E4E5" stroke-width="4"/><path fill-rule="evenodd" clip-rule="evenodd" d="M358.135 458.115h179.997v-13.196H358.135v13.196z" fill="#fff"/><path fill-rule="evenodd" clip-rule="evenodd" d="M358.135 458.115h179.997v-13.196H358.135v13.196z" fill="#fff" stroke="#E1E4E5" stroke-width="4"/><path d="M725.225 501.992c-24.41.444-30.87 2.332-56.209 1.555-12.069.111-24.951-.222-36.75-.444-5.609-1.444-15.474 0-22.128-1.222l-2.553.777c-2.282-.444-4.952-.666-7.273-.222l.155.222c-3.404-.555-7.272-.222-8.936-.555l.155.222-4.139-.111.696.333c-5.958-.666-12.07-.666-17.486-.444l.465-.999c-11.567 1.11-15.784-.889-26.19.333l.155.222c-13.191-2.554-20.812 1.777-34.391-.666 1.703.333-.735.444-.58.777-6.267-.222-12.921-.444-13.037-2.332-4.564 0-3.713.555-4.294 1.332.039-.777-3.945-1.221-7.504-1.221l1.624.333-10.212-.333 2.011-1.555c-5.416.444-1.392 1.888-6.537 1.555l.077-1.333c-7.466.222-11.876 2.221-19.11 3.221-30.097.555-62.437-2.777-90.406-.444l-1.238.999c-.541 1.444-7.737-2.11-8.781-.777l-3.25-.667c-.928.222-2.862.556-1.238.889-3.017.111-3.094-.222-5.261-.556l-3.249.889c-11.876.666-21.973-1-34.468-.666-15.01 1.776-43.288.111-59.574-.778-22.902-2.11-49.517 3.554-72.959 1.111-.774.222-2.747-.222-2.708-.444l-21.47.222s-104.023.555-24.99-11.328l-.542-.333c11.76-.778 19.149-.889 27.234.666 1.276-1.888 9.632-.222 12.379-.777l-.271-.111c7.157 1.443 14.739-1.222 21.663.111-.27-.111-.425-.667-2.011-.667 5.029.223 11.915.667 12.302-.444 12.03.333 28.781-.222 36.479 1.555l-.541-.333c4.371 1.221 5.686.222 10.599.777.271-.111.619-.222.542-.333 4.796 1.222 13.965.222 17.795.666l.232-.777 9.516.222-3.559.111c1.238 1.999 7.195-1.332 14.081 0 6.461-.222 13.114 4.22 19.807 3.221 3.211.999-2.824-1.555 1.973-.778.154-1.11-2.244-.666-1.006-1.554 4.681.555 7.698-1.111 13.501-.334l.232-.777c7.543 1.555 14.236-1.111 19.265.333 7.775.667 5.222-2.443 13.346-.888l3.172-1.111c3.482-.222 2.476 1.333 6.344.778-.232-.667 4.875-.556 2.592-1.222 8.704-1.111 17.679 1.555 29.168-.333 2.476 1.332 8.279.555 10.136 1.555.309-.556 11.566-.112 5.106-1.444-.542-.111-1.547-.111-1.47.111l-.774-.778c6.538-1.554 11.876.889 18.375.556-1.934.222-4.487.222-2.785.777l6.035-.111-1.238-.666 8.975-.444-1.238.888c4.371-.444 5.919-1.888 10.87-.666 2.244.666-4.139 1.11.465 1.443 5.88-.555 14.661-1.443 22.127-1.665-.696.999 1.315.888 3.404 1.11l.232-.777c7.931 1.11 2.902-1.777 10.793-.889l-.696-.555 2.089 1.777c7.118 1.666 3.83-1.666 11.721.555-3.133-.111-1.469 1.777 2.36 1.444l-.967-.777c2.128.222 2.824.555 4.255.333-1.276-.445-.657-1.111 2.476-1l-2.089-.999 5.919 1.443c4.565-.888 11.799.222 13.694-.888 0 0 9.826-.555 12.07.666-1.973-.777 3.443-1.11 1.895-1.999 2.554.889 10.058 1.555 13.076.667l-.58-.111c11.141-1 19.032 1.332 29.013.111-.464.999 4.836.444 3.52 1.665 10.329 1.222 18.84-2.554 22.592 1.333 4.72.222 5.571-.888 8.008-1.11l-1.122-.223c8.82.334 11.373.334 17.911.223 3.249.333 3.791 2.11 9.632 1.665-1.895-.666.503-.555 2.669-.555-1.392-.111-1.818-.333 1.045-.888.387.222 1.044.333 1.625.444.038 0 .154-.111.077-.222 3.636.222 3.017.444 1.315.555.078.111-.038.222-.58.444 3.791-.888 10.561.111 11.025-1.11 10.987.333 18.84 1.555 27.969 1.999 1.045-.667-1.122-1.222-3.752-1.444l6.499.222c-.039-.888-3.714-.555-5.726-.666 7.737-1.444 15.938 1.444 24.991.111l1.895.666.542-.111c-.039.333 2.011.889 3.327 1 1.276-.778-.078-1.777 4.41-1.777 3.559-.778 10.058.333 14.7.777-2.515.111-1.702.555-.619.889 2.244 0 3.52-.778 5.261-.445l.232-.999c-.89.999 5.841 1.11 6.692 1.444 1.277-.778-3.481-.667-4.023-1.222 8.975.111 4.488 0 13.501.111 4.797.777-.89.999 1.432 1.888 4.216.222 8.355.888 13.23.333l-1.548.889c7.969.777 12.727.666 18.066-.334 59.265 7.552 12.495 10.329 12.495 10.329-23.443 2.332-35.474-.334-63.249-1.111z" fill="#E1E4E5"/><path d="M738.368 508.235c-25.576 1.034-32.345 5.43-58.893 3.62-12.646.258-26.143-.517-38.505-1.034-5.878-3.362-16.213 0-23.185-2.845l-2.675 1.81c-2.391-1.034-5.188-1.552-7.62-.517l.162.517c-3.566-1.293-7.62-.517-9.362-1.293l.162.517-4.337-.258.729.776c-6.242-1.552-12.646-1.552-18.32-1.035l.486-2.327c-12.119 2.586-16.537-2.069-27.44.776l.162.517c-13.821-5.947-21.806 4.137-36.032-1.551 1.783.775-.771 1.034-.608 1.809-6.567-.517-13.538-1.034-13.66-5.429-4.782 0-3.891 1.292-4.499 3.102.041-1.81-4.134-2.844-7.863-2.844l1.702.776-10.7-.776 2.108-3.62c-5.675 1.034-1.459 4.396-6.85 3.62l.081-3.103c-7.823.517-12.443 5.172-20.023 7.499-31.534 1.293-65.418-6.464-94.723-1.034l-1.297 2.327c-.567 3.361-8.106-4.913-9.2-1.811l-3.405-1.551c-.973.517-2.999 1.293-1.297 2.069-3.162.258-3.243-.518-5.512-1.293l-3.405 2.068c-12.443 1.552-23.022-2.327-36.114-1.551-15.726 4.137-45.355.259-62.419-1.81-23.995-4.913-51.881 8.274-76.443 2.586-.811.517-2.878-.517-2.837-1.034l-22.495.516s-108.99 1.294-26.184-26.374l-.567-.775c12.321-1.81 20.063-2.069 28.534 1.551 1.338-4.396 10.092-.517 12.97-1.81l-.284-.259c7.499 3.362 15.443-2.844 22.698.259-.283-.259-.445-1.552-2.107-1.552 5.269.517 12.483 1.552 12.889-1.034 12.605.776 30.155-.517 38.221 3.62l-.567-.775c4.58 2.844 5.958.516 11.106 1.809.283-.258.648-.517.567-.775 5.026 2.844 14.632.517 18.645 1.551l.243-1.81 9.971.517-3.729.259c1.297 4.654 7.539-3.103 14.753 0 6.769-.517 13.741 9.826 20.753 7.498 3.364 2.328-2.959-3.619 2.067-1.809.162-2.586-2.351-1.552-1.054-3.62 4.904 1.292 8.066-2.586 14.146-.776l.243-1.81c7.903 3.62 14.915-2.586 20.185.775 8.147 1.552 5.471-5.688 13.983-2.068l3.324-2.586c3.648-.517 2.594 3.103 6.647 1.81-.243-1.551 5.107-1.293 2.716-2.844 9.119-2.586 18.523 3.62 30.561-.776 2.594 3.103 8.673 1.293 10.619 3.62.324-1.293 12.119-.259 5.35-3.362-.567-.258-1.621-.258-1.54.259l-.811-1.81c6.85-3.62 12.443 2.069 19.253 1.293-2.027.517-4.702.517-2.919 1.81l6.323-.259-1.296-1.551 9.403-1.034-1.297 2.069c4.58-1.035 6.201-4.397 11.389-1.552 2.351 1.551-4.337 2.586.487 3.361 6.161-1.293 15.361-3.361 23.184-3.878-.73 2.327 1.378 2.068 3.567 2.585l.243-1.809c8.309 2.585 3.04-4.138 11.308-2.069l-.729-1.293 2.188 4.137c7.458 3.879 4.013-3.878 12.282 1.293-3.284-.258-1.541 4.137 2.472 3.361l-1.013-1.809c2.229.517 2.958 1.292 4.458.775-1.337-1.034-.689-2.585 2.594-2.327l-2.188-2.327 6.201 3.361c4.783-2.068 12.362.517 14.348-2.068 0 0 10.295-1.293 12.646 1.551-2.067-1.81 3.607-2.585 1.986-4.654 2.675 2.069 10.538 3.62 13.7 1.551l-.608-.258c11.673-2.327 19.942 3.103 30.399.258-.487 2.327 5.066 1.034 3.688 3.879 10.822 2.844 19.739-5.947 23.671 3.103 4.945.517 5.836-2.069 8.39-2.586l-1.176-.517c9.242.775 11.917.776 18.767.517 3.404.776 3.972 4.913 10.092 3.879-1.986-1.552.527-1.293 2.797-1.293-1.459-.259-1.905-.776 1.094-2.069.406.517 1.095.776 1.703 1.034.04 0 .162-.258.081-.516 3.81.517 3.161 1.034 1.378 1.292.081.259-.041.517-.608 1.035 3.972-2.069 11.065.258 11.551-2.586 11.511.775 19.739 3.62 29.305 4.654 1.094-1.551-1.176-2.844-3.932-3.361l6.81.517c-.041-2.069-3.892-1.293-5.999-1.551 8.106-3.362 16.699 3.361 26.183.258l1.986 1.551.568-.258c-.041.776 2.108 2.068 3.486 2.327 1.337-1.81-.081-4.137 4.62-4.137 3.729-1.81 10.539.776 15.402 1.81-2.634.258-1.783 1.293-.648 2.069 2.351 0 3.688-1.811 5.512-1.035l.243-2.327c-.932 2.327 6.121 2.586 7.012 3.362 1.338-1.81-3.647-1.552-4.215-2.845 9.403.259 4.702 0 14.146.259 5.026 1.81-.933 2.327 1.499 4.395 4.418.518 8.755 2.069 13.862.776l-1.621 2.069c8.35 1.81 13.335 1.551 18.928-.776 62.095 17.583 13.092 24.048 13.092 24.048-24.562 5.43-37.168-.776-66.269-2.586z" fill="#E1E4E5"/><path d="M601.819 491.577s-14.801-18.964-20.987-21.87c-6.593-3.097-.877 7.633-.877 7.633s-14.096-13.82-17.407-10.37c-3.311 3.451.225 6.68.225 6.68s-11.803-2.189-13.525 2.225c-2.645 6.781 16.77 10.154 16.77 10.154s-9.301-2.038-7.44 2.161c2.805 6.33 43.241 3.387 43.241 3.387zm3.952.478s23.584 1.664 28.177-2.551c4.594-4.214.037-11.85.037-11.85s8.093-6.385 7.967-10.554c-.125-4.168-5.398-2.053-5.398-2.053s8.935-11.483 6.817-13.668c-3.948-4.067-14.279 7.869-14.279 7.869s3.066-5.678-.169-6.579c-4.878-1.361-8.467 12.644-8.467 12.644s.911-5.531-2.452-4.796c-6.035 1.317-12.233 31.538-12.233 31.538z" fill="#E1E4E5"/><path fill-rule="evenodd" clip-rule="evenodd" d="M632.56 393.681c-2.383 3.518-.808 12.131 1.844 20.991-1.993-2.077-4.199-3.192-6.553-2.535-6.536 1.821-.341 13.295-.341 13.295s-20.876-24.119-28.854-15.901c-4.28 4.415 13.776 27.619 13.776 27.619s-10.654-4.275-10.908 4.149c-.078 2.569 1.39 5.555 3.467 8.464-.942 2.687-1.468 4.721-1.468 4.721s1.273-7.666-3.427-6.648c-3.261.706-6.555 7.399-9.37 15.345-5.742-4.605-12.535-9-15.001-6.41-4.577 4.806.31 9.305.31 9.305s-16.313-3.05-18.693 3.099c-3.205 8.285 17.041 12.917 22.067 13.931-3.063-.533-11.275-1.558-9.172 3.224 1.073 2.439 6.124 3.89 12.87 4.712l-.107.509s7.967.558 16.83.43c15.054.176 30.17-.933 30.17-.933l-.141-.182c13.149 2.128 32.199 1.516 40.567 1.1 24.431.616 57.637-.063 61.178-8.052 3.075-6.937-8.931-5.449-13.41-4.676 7.349-1.471 36.95-8.19 32.263-20.209-3.479-8.919-27.33-4.495-27.33-4.495s7.145-6.525.454-13.498c-3.395-3.538-12.401 1.91-20.45 8.135-.923-2.213-3.103-2.347-5.079-2.469-1.869-.116-3.557-.22-3.824-2.063-.471-3.255 5.594-5.135 12.015-7.125 7.298-2.262 15.057-4.667 14.206-9.397-.845-4.689-7.066-2.184-12.831.137-4.925 1.983-9.517 3.832-10.137.945-.335-1.561 4.657-2.856 10.734-4.433 8.993-2.333 20.365-5.284 20.365-10.624 0-5.565-8.936-3.601-16.864-1.859-4.821 1.06-9.268 2.037-11.109 1.191-1.805-.831 3.734-4.082 11.12-8.418 12.525-7.353 30.359-17.822 26.699-24.89-2.887-5.576-15.675 1.447-26.512 7.398-6.973 3.829-13.138 7.214-15.336 6.514-2.723-.868 1.771-6.231 7.914-13.561 6.526-7.789 14.914-17.798 18.481-26.994 7.16-18.458-.405-26.853-12.758-11.638-2.693 3.317-5.753 7.279-8.907 11.362l-.001.001c-11.311 14.645-23.832 30.856-25.002 24.557-.521-2.806.699-8.427 2.001-14.426 2.435-11.224 5.157-23.767-2.701-21.661-17.011 4.561-19.77 29.601-22.534 54.689-.683 6.197-1.366 12.397-2.264 18.291-.131.856-.953-1.166-2.239-4.331-3.45-8.488-10.24-25.196-16.008-16.686z" fill="#fff"/><path d="m634.404 414.672-1.443 1.385 3.359-1.958-1.916.573zm-1.844-20.991-1.655-1.122 1.655 1.122zm-4.709 18.456.537 1.926-.537-1.926zm-.341 13.295-1.512 1.309 3.272-2.259-1.76.95zm-28.854-15.901-1.435-1.393-.001.001 1.436 1.392zm13.776 27.619-.745 1.856 6.868 2.755-4.544-5.84-1.579 1.229zm-10.908 4.149-1.999-.06 1.999.06zm3.467 8.464 1.887.662.343-.979-.603-.845-1.627 1.162zm-1.468 4.721-1.973-.328 3.909.828-1.936-.5zm-3.427-6.648.423 1.955h.001l-.424-1.955zm-9.37 15.345-1.251 1.56 2.196 1.761.94-2.653-1.885-.668zm-15.001-6.41 1.448 1.379-1.448-1.379zm.31 9.305-.367 1.966 6.846 1.28-5.124-4.718-1.355 1.472zm-18.693 3.099-1.865-.722 1.865.722zm22.067 13.931-.342 1.971.738-3.931-.396 1.96zm-9.172 3.224 1.831-.805-1.831.805zm12.87 4.712 1.956.418.457-2.138-2.171-.265-.242 1.985zm-.107.509-1.959-.405-.463 2.24 2.282.16.14-1.995zm16.83.43.024-2h-.052l.028 2zm30.17-.933.146 1.995 3.717-.273-2.282-2.946-1.581 1.224zm-.141-.182.319-1.974-5.029-.814 3.132 4.018 1.578-1.23zm40.567 1.1.05-1.999-.075-.002-.075.004.1 1.997zm61.178-8.052-1.829-.811v.001l1.829.81zm-13.41-4.676-.393-1.961.733 3.932-.34-1.971zm32.263-20.209 1.864-.726v-.001l-1.864.727zm-27.33-4.495-1.349-1.477-5.167 4.72 6.881-1.277-.365-1.966zm.454-13.498-1.443 1.385 1.443-1.385zm-20.45 8.135-1.846.77 1.005 2.408 2.065-1.596-1.224-1.582zm-5.079-2.469-.123 1.996.123-1.996zm-3.824-2.063-1.979.287v.001l1.979-.288zm12.015-7.125-.592-1.91.592 1.91zm14.206-9.397 1.968-.354v-.001l-1.968.355zm-12.831.137.747 1.855-.747-1.855zm-10.137.945 1.956-.42-1.956.42zm10.734-4.433-.503-1.935.503 1.935zm3.501-12.483.429 1.953-.429-1.953zm-11.109 1.191-.835 1.817.835-1.817zm11.12-8.418 1.012 1.725.024-.014.024-.015-1.06-1.696zm0 0-1.012-1.725-.024.014-.024.015 1.06 1.696zm26.699-24.89-1.776.92 1.776-.92zm-26.512 7.398.963 1.753-.963-1.753zm-15.336 6.514-.608 1.906.608-1.906zm7.914-13.561-1.533-1.284 1.533 1.284zm18.481-26.994-1.865-.723 1.865.723zm-12.758-11.638-1.553-1.261 1.553 1.261zm-8.907 11.362 1.571 1.238.006-.008.006-.007-1.583-1.223zm-.001.001-1.57-1.238-.006.008-.006.008 1.582 1.222zm-25.002 24.557-1.966.365 1.966-.365zm2.001-14.426 1.954.424-1.954-.424zm-2.701-21.661-.518-1.932.518 1.932zm-22.534 54.689-1.988-.219-.012.11v.109h2zm0 0 1.988.219.012-.109v-.11h-2zm-2.264 18.291 1.977.302v-.001l-1.977-.301zm-2.239-4.331-1.897.632.02.061.024.06 1.853-.753zm0 0 1.897-.633-.02-.061-.024-.059-1.853.753zm-12.248 3.732c-1.312-4.383-2.331-8.623-2.739-12.155-.204-1.766-.248-3.294-.121-4.543.128-1.268.418-2.099.756-2.597l-3.311-2.245c-.854 1.261-1.261 2.826-1.425 4.439-.165 1.632-.096 3.47.127 5.405.447 3.869 1.541 8.365 2.881 12.843l3.832-1.147zm-7.932-.036c1.304-.363 2.786.132 4.573 1.994l2.886-2.77c-2.2-2.292-5.129-4.026-8.534-3.077l1.075 3.853zm-.878 11.369 1.76-.95.001.001-.002-.003a8.155 8.155 0 0 1-.051-.098c-.038-.074-.096-.186-.168-.332a28.361 28.361 0 0 1-.571-1.235c-.453-1.045-.974-2.417-1.303-3.808-.339-1.434-.418-2.664-.197-3.532.179-.705.53-1.167 1.409-1.412l-1.074-3.853c-2.39.666-3.715 2.322-4.212 4.28-.456 1.796-.212 3.775.181 5.437.403 1.706 1.022 3.316 1.526 4.479.255.587.486 1.073.654 1.414.085.172.154.307.203.403l.059.112.017.032.005.009.002.004.001.001 1.76-.949zm-27.419-14.507c1.186-1.222 2.987-1.491 5.764-.494 2.763.992 5.913 3.07 8.966 5.527 3.024 2.433 5.821 5.13 7.871 7.231a100.22 100.22 0 0 1 3.085 3.301l.168.19.041.047.01.011.002.003 1.512-1.309 1.512-1.31-.001-.001a.253.253 0 0 1-.018-.02l-.048-.056a67.962 67.962 0 0 0-.879-.981c-.6-.657-1.462-1.584-2.521-2.669-2.113-2.165-5.033-4.984-8.226-7.553-3.163-2.546-6.727-4.957-10.123-6.176-3.381-1.214-7.181-1.416-9.985 1.472l2.87 2.787zm12.341 26.225 1.579-1.228-.001-.001-.002-.002a.184.184 0 0 0-.009-.012l-.036-.047-.146-.189a172.066 172.066 0 0 1-2.52-3.389c-1.61-2.223-3.706-5.223-5.663-8.347-1.97-3.146-3.746-6.334-4.768-8.953-.514-1.318-.791-2.378-.853-3.155-.064-.81.127-.952.079-.903l-2.872-2.785c-1.117 1.153-1.298 2.702-1.194 4.005.106 1.337.537 2.814 1.114 4.292 1.16 2.973 3.095 6.414 5.104 9.622 2.022 3.228 4.173 6.305 5.814 8.571a178.033 178.033 0 0 0 2.586 3.476l.154.201.041.053.01.013.003.004.001.001c0 .001.001.001 1.579-1.227zm-8.909 4.209c.05-1.646.573-2.329 1.02-2.668.536-.406 1.381-.632 2.519-.626 1.11.007 2.267.234 3.183.48a16.811 16.811 0 0 1 1.366.432l.067.025.012.005c.001 0 .001 0 0 0h-.001v-.001c-.001 0-.002 0 .743-1.856s.744-1.857.743-1.857l-.001-.001-.004-.001-.011-.005a.429.429 0 0 1-.034-.013l-.111-.042a18.63 18.63 0 0 0-1.732-.549c-1.09-.293-2.613-.607-4.197-.617-1.558-.009-3.425.276-4.958 1.438-1.621 1.229-2.525 3.171-2.602 5.736l3.998.12zm3.095 7.242c-2.036-2.852-3.151-5.371-3.095-7.242l-3.998-.12c-.099 3.268 1.72 6.72 3.838 9.686l3.255-2.324zm-3.095 5.883 1.936.5v.001-.001l.001-.002.004-.014.016-.062.068-.252a69.08 69.08 0 0 1 1.33-4.229l-3.775-1.324a74.558 74.558 0 0 0-1.118 3.464 51.074 51.074 0 0 0-.396 1.409l-.001.006-.001.002v.001l1.936.501zm-3.003-4.693c.343-.074.506-.043.551-.031a.17.17 0 0 1 .087.056c.126.134.323.511.436 1.26.105.698.1 1.466.059 2.096-.02.306-.048.563-.069.74l-.027.197a2.775 2.775 0 0 0-.006.044l-.001.007v-.003l1.973.327 1.973.326.001-.001v-.004l.001-.008.005-.026.012-.084a14.087 14.087 0 0 0 .129-1.255c.051-.776.07-1.86-.094-2.951-.157-1.04-.522-2.389-1.479-3.406-1.098-1.167-2.653-1.571-4.398-1.193l.847 3.909zm-7.909 14.058c1.392-3.93 2.873-7.458 4.367-10.059.748-1.301 1.462-2.303 2.122-2.995.678-.712 1.158-.947 1.419-1.004l-.846-3.909c-1.369.296-2.524 1.162-3.468 2.152-.963 1.01-1.86 2.31-2.695 3.763-1.672 2.909-3.246 6.7-4.669 10.716l3.77 1.336zm-15.438-5.699c.032-.033.193-.21.907-.13.737.082 1.755.418 3.029 1.049 2.526 1.253 5.525 3.394 8.366 5.672l2.502-3.121c-2.9-2.326-6.169-4.686-9.092-6.134-1.451-.72-2.953-1.284-4.362-1.442-1.433-.16-3.045.086-4.247 1.348l2.897 2.758zm-1.138 7.926c1.355-1.472 1.355-1.471 1.356-1.471l.001.002.003.002.003.003.001.001-.015-.015a6.197 6.197 0 0 1-.462-.529 6.022 6.022 0 0 1-.886-1.548c-.231-.611-.335-1.262-.221-1.936.111-.659.455-1.487 1.358-2.435l-2.897-2.758c-1.385 1.455-2.146 2.991-2.405 4.527-.257 1.522.002 2.897.421 4.011a10.021 10.021 0 0 0 1.473 2.596 10.03 10.03 0 0 0 .814.924l.064.062.023.021.008.008a.014.014 0 0 0 .004.003l.001.002c.001 0 .002.001 1.356-1.47zm-16.828 3.821c.272-.704 1.033-1.387 2.653-1.89 1.587-.493 3.62-.685 5.724-.688 2.08-.002 4.107.178 5.625.362a50.113 50.113 0 0 1 2.3.333l.124.021.029.006.006.001.367-1.966.367-1.966-.002-.001h-.003a.104.104 0 0 0-.012-.003l-.041-.007a61.708 61.708 0 0 0-.702-.118 55.39 55.39 0 0 0-1.952-.271c-1.616-.196-3.815-.394-6.112-.391-2.271.004-4.763.203-6.904.867-2.108.655-4.279 1.895-5.197 4.267l3.73 1.444zm20.598 11.249c-2.486-.502-8.629-1.88-13.713-4.11-2.565-1.126-4.658-2.383-5.907-3.705-1.175-1.244-1.418-2.297-.978-3.435l-3.73-1.443c-1.163 3.005-.077 5.638 1.8 7.625 1.803 1.908 4.484 3.426 7.208 4.621 5.495 2.41 11.988 3.855 14.529 4.368l.791-3.921zm-7.737 4.379c-.339-.77-.036-.664-.243-.438-.014.015.047-.057.292-.149.24-.091.577-.173 1.02-.229 1.848-.234 4.406.103 5.93.368l.685-3.941c-1.54-.268-4.62-.711-7.117-.395-1.185.149-2.729.522-3.755 1.64-1.251 1.361-1.186 3.133-.473 4.754l3.661-1.61zm11.281 3.532c-3.317-.405-6.107-.952-8.154-1.656-1.022-.352-1.79-.719-2.325-1.08-.542-.365-.737-.649-.802-.796l-3.662 1.61c.472 1.072 1.31 1.884 2.228 2.503.924.623 2.042 1.127 3.26 1.545 2.433.837 5.542 1.426 8.971 1.844l.484-3.97zm-.349 2.494 1.959.405v-.001l.001-.006.005-.023.019-.094.079-.372-3.912-.835-.081.385a8.46 8.46 0 0 1-.027.126l-.001.007v.003h-.001l1.959.405zm16.802-1.57a218.87 218.87 0 0 1-11.631-.166 214.015 214.015 0 0 1-3.674-.176c-.438-.025-.779-.046-1.01-.06l-.262-.017-.065-.005-.016-.001h-.004l-.14 1.995-.139 1.995h.002l.005.001.018.001.072.005.274.018 1.038.062c.895.051 2.179.117 3.742.179 3.123.125 7.368.233 11.847.169l-.057-4zM630 491.048l-.146-1.994h-.01a.466.466 0 0 1-.031.003l-.127.009-.5.034a421.534 421.534 0 0 1-8.716.483c-5.639.254-13.141.486-20.616.398l-.047 4c7.579.089 15.162-.146 20.844-.402a437.715 437.715 0 0 0 8.805-.488l.511-.035.133-.01.034-.002.009-.001h.003l-.146-1.995zm-1.719 1.048.104.133.026.033.006.008.001.002.001.001 1.581-1.225 1.581-1.224v-.001l-.002-.003-.008-.009-.027-.036-.108-.138-3.155 2.459zm42.045-2.127c-8.382.416-27.234 1.013-40.148-1.077l-.639 3.949c13.385 2.166 32.633 1.537 40.986 1.123l-.199-3.995zm59.449-6.865c-.212.478-.739 1.093-1.849 1.763-1.094.661-2.599 1.282-4.505 1.844-3.81 1.123-8.906 1.923-14.756 2.465-11.68 1.08-25.996 1.098-38.189.791l-.101 3.999c12.239.308 26.741.295 38.658-.807 5.948-.551 11.343-1.38 15.519-2.611 2.087-.616 3.948-1.354 5.443-2.257 1.479-.894 2.764-2.048 3.437-3.567l-3.657-1.62zm-11.241-1.895c2.231-.386 6.094-.898 8.949-.54 1.492.187 2.227.559 2.485.838.077.083.12.162.131.32.014.2-.025.603-.324 1.276l3.657 1.621c.471-1.061.729-2.128.658-3.172a4.453 4.453 0 0 0-1.187-2.763c-1.268-1.369-3.238-1.878-4.922-2.089-3.499-.439-7.879.179-10.127.567l.68 3.942zm30.06-21.453c.805 2.063.263 3.942-1.616 5.915-1.953 2.051-5.149 3.935-8.937 5.584-7.529 3.277-16.593 5.292-20.24 6.022l.785 3.922c3.702-.741 13.114-2.821 21.051-6.276 3.945-1.717 7.73-3.859 10.238-6.494 2.583-2.713 3.984-6.181 2.446-10.126l-3.727 1.453zm-25.467-5.222.364 1.966h.002l.01-.002.045-.008.187-.033c.167-.028.415-.07.734-.12.639-.1 1.56-.235 2.678-.369 2.242-.27 5.246-.535 8.337-.531 3.116.004 6.196.284 8.646 1.038 2.486.766 3.92 1.887 4.464 3.281l3.727-1.454c-1.196-3.065-4.049-4.736-7.013-5.649-3.001-.925-6.536-1.211-9.818-1.216-3.306-.005-6.482.278-8.821.559a81.344 81.344 0 0 0-2.821.389c-.34.054-.607.099-.792.13l-.213.038-.057.01a.116.116 0 0 0-.016.003l-.005.001h-.002l.364 1.967zm-.989-12.113c1.43 1.491 2.027 2.851 2.223 4.001.198 1.165.011 2.27-.368 3.268-.382 1.008-.945 1.865-1.428 2.481a9.484 9.484 0 0 1-.79.889l-.003.003.002-.002.002-.002.001-.001s.001-.001 1.35 1.476c1.349 1.477 1.349 1.476 1.35 1.475l.002-.001.004-.004a13.788 13.788 0 0 0 1.229-1.364c.648-.826 1.453-2.035 2.021-3.531.571-1.504.915-3.338.571-5.358-.346-2.034-1.365-4.104-3.28-6.1l-2.886 2.77zm-17.783 8.332c3.991-3.087 8.111-5.893 11.584-7.494 1.744-.805 3.191-1.241 4.298-1.325 1.077-.083 1.6.174 1.901.487l2.886-2.77c-1.397-1.455-3.272-1.845-5.091-1.706-1.787.136-3.731.788-5.669 1.681-3.892 1.795-8.299 4.825-12.356 7.963l2.447 3.164zm-6.426-2.055c1.051.065 1.792.125 2.383.337.467.167.763.4.973.906l3.692-1.54c-.712-1.707-1.968-2.648-3.315-3.131-1.224-.44-2.561-.508-3.486-.565l-.247 3.993zm-5.68-3.771c.111.765.392 1.477.888 2.074.491.591 1.095.952 1.671 1.179 1.045.41 2.289.466 3.121.518l.247-3.993a18.36 18.36 0 0 1-1.217-.099c-.347-.044-.56-.099-.688-.149-.113-.045-.098-.062-.057-.012.046.055.016.063-.006-.093l-3.959.575zm13.402-9.323c-3.154.977-6.454 1.994-8.892 3.208-1.218.607-2.389 1.342-3.237 2.278-.894.986-1.497 2.288-1.273 3.836l3.959-.573c-.012-.08-.033-.234.278-.578.358-.394 1.015-.864 2.057-1.383 2.082-1.037 5.026-1.955 8.292-2.968l-1.184-3.82zm12.829-7.132c.098.544-.018 1.016-.443 1.561-.476.611-1.317 1.267-2.582 1.946-2.538 1.364-6.093 2.475-9.804 3.625l1.184 3.82c3.588-1.112 7.561-2.335 10.514-3.921 1.481-.796 2.876-1.769 3.843-3.011 1.019-1.307 1.553-2.908 1.225-4.729l-3.937.709zm-10.115 1.637c2.968-1.195 5.706-2.282 7.788-2.571 1.037-.144 1.6-.038 1.865.092.124.061.343.182.462.842l3.937-.71c-.304-1.684-1.179-3.008-2.639-3.724-1.319-.647-2.83-.649-4.174-.462-2.681.372-5.937 1.697-8.733 2.823l1.494 3.71zm-12.839-.49c.297 1.386 1.182 2.388 2.466 2.823 1.089.37 2.29.27 3.316.076 2.078-.394 4.668-1.447 7.057-2.409l-1.494-3.71c-2.536 1.021-4.705 1.885-6.309 2.189-.815.155-1.186.1-1.286.066-.013-.004.052.018.121.096.066.076.058.116.04.029l-3.911.84zm12.186-6.788c-3 .778-5.877 1.522-7.953 2.279-1.021.372-2.011.802-2.753 1.328-.629.445-1.837 1.52-1.48 3.181l3.911-.84c.189.881-.521 1.208-.118.923.289-.206.864-.49 1.809-.834 1.854-.675 4.512-1.367 7.589-2.166l-1.005-3.871zm18.868-8.689c0 .549-.275 1.233-1.24 2.085-.975.859-2.454 1.702-4.357 2.516-3.8 1.625-8.732 2.91-13.271 4.088l1.005 3.871c4.455-1.156 9.706-2.513 13.839-4.282 2.065-.883 3.991-1.925 5.429-3.193 1.448-1.277 2.595-2.964 2.595-5.085h-4zm-14.435.094c4.041-.888 8.02-1.752 10.984-1.764 1.497-.006 2.418.214 2.909.506.31.184.542.424.542 1.164h4c0-2.043-.886-3.645-2.499-4.603-1.432-.851-3.24-1.074-4.968-1.067-3.486.014-7.939 1.003-11.827 1.858l.859 3.906zm-12.373 1.055c.83.382 1.778.49 2.641.503.894.012 1.885-.078 2.907-.22 2.038-.284 4.439-.813 6.825-1.338l-.859-3.906c-2.434.535-4.667 1.024-6.518 1.282-.922.129-1.69.191-2.298.182-.639-.009-.938-.096-1.027-.137l-1.671 3.634zm10.942-11.96c-3.66 2.149-6.977 4.094-9.141 5.61-1.039.728-2.022 1.497-2.607 2.249-.262.337-.736 1.029-.701 1.94.047 1.186.868 1.867 1.507 2.161l1.671-3.634c.187.086.787.483.819 1.316.022.557-.258.826-.139.673.176-.227.701-.698 1.745-1.429 2-1.401 5.146-3.249 8.871-5.436l-2.025-3.45zm-.047.029 2.12 3.392-2.12-3.392zm25.983-22.274c.437.844.407 2.014-.769 3.83-1.175 1.815-3.25 3.855-5.979 6.022-5.434 4.315-12.891 8.697-19.187 12.393l2.025 3.449c6.228-3.656 13.951-8.185 19.649-12.71 2.839-2.253 5.319-4.615 6.85-6.98 1.53-2.365 2.356-5.154.963-7.844l-3.552 1.84zm-23.773 8.231c5.462-3 11.223-6.157 15.963-7.897 2.386-.875 4.314-1.313 5.713-1.287 1.319.024 1.824.426 2.097.953l3.552-1.839c-1.171-2.262-3.347-3.073-5.576-3.114-2.149-.039-4.637.605-7.164 1.532-5.084 1.866-11.136 5.195-16.511 8.146l1.926 3.506zm-16.907 6.667c1.145.364 2.436.131 3.49-.164 1.145-.32 2.45-.847 3.832-1.484 2.766-1.273 6.12-3.116 9.585-5.019l-1.926-3.506c-3.508 1.926-6.723 3.691-9.332 4.892-1.306.601-2.39 1.028-3.237 1.265-.939.263-1.243.19-1.197.204l-1.215 3.812zm6.989-16.751c-3.036 3.622-5.79 6.903-7.421 9.391-.787 1.201-1.491 2.473-1.704 3.642-.112.616-.128 1.419.272 2.197.426.826 1.149 1.293 1.864 1.521l1.215-3.812c.035.011.303.121.477.459.149.289.085.474.108.351.056-.31.349-1 1.113-2.164 1.471-2.243 4.035-5.309 7.142-9.016l-3.066-2.569zm18.149-26.433c-3.422 8.822-11.553 18.561-18.149 26.433l3.066 2.569c6.457-7.706 15.101-17.986 18.813-27.556l-3.73-1.446zm-9.34-9.655c3-3.695 5.556-5.756 7.488-6.636 1.881-.858 2.777-.476 3.251-.008.673.663 1.33 2.263 1.231 5.21-.095 2.857-.894 6.615-2.63 11.089l3.73 1.446c1.844-4.755 2.784-8.968 2.898-12.402.111-3.342-.553-6.351-2.42-8.192-2.066-2.036-4.931-2.054-7.719-.783-2.737 1.247-5.758 3.843-8.935 7.755l3.106 2.521zm-8.877 11.325c3.158-4.089 6.202-8.03 8.877-11.325l-3.106-2.521c-2.711 3.341-5.787 7.323-8.937 11.401l3.166 2.445zm-.013.016.001-.001-3.141-2.476-.001.001 3.141 2.476zm-28.539 23.684c.207 1.113.825 2.489 2.383 2.918 1.291.355 2.539-.185 3.383-.665 1.816-1.034 4.03-3.146 6.37-5.688 4.763-5.174 10.781-12.969 16.415-20.264l-3.165-2.445c-5.677 7.349-11.575 14.982-16.193 20-2.35 2.554-4.192 4.229-5.407 4.921-.671.382-.682.191-.343.284.605.166.576.671.49.209l-3.933.73zm2.012-15.215c-.647 2.984-1.291 5.946-1.704 8.517-.401 2.498-.639 4.918-.308 6.698l3.933-.73c-.191-1.025-.079-2.819.325-5.333.392-2.442 1.009-5.289 1.663-8.304l-3.909-.848zm-.228-19.305c.772-.207 1.233-.183 1.483-.123a.82.82 0 0 1 .494.328c.382.496.717 1.63.716 3.694-.003 4.011-1.228 9.708-2.465 15.406l3.909.848c1.2-5.526 2.553-11.712 2.556-16.252.001-2.212-.304-4.521-1.546-6.135a4.81 4.81 0 0 0-2.721-1.776c-1.096-.266-2.268-.173-3.462.146l1.036 3.864zm-21.064 52.976c1.389-12.604 2.754-24.918 5.843-34.656 3.095-9.755 7.721-16.309 15.221-18.32l-1.036-3.864c-9.511 2.551-14.769 10.797-17.998 20.975-3.234 10.194-4.63 22.944-6.006 35.427l3.976.438zm.012-.219h-4 4zm-2.287 18.592c.906-5.942 1.593-12.184 2.275-18.373l-3.976-.438c-.684 6.205-1.362 12.363-2.253 18.209l3.954.602zm-6.069-3.879c.631 1.551 1.187 2.923 1.604 3.788.107.223.22.442.334.638.096.165.263.436.497.677.111.114.355.346.73.505a2.068 2.068 0 0 0 1.804-.085c.581-.317.833-.807.928-1.028.107-.249.151-.476.172-.615l-3.954-.604c.005-.032.027-.174.107-.36a1.88 1.88 0 0 1 .831-.904 1.93 1.93 0 0 1 1.676-.085c.327.139.518.331.572.385.118.122.15.198.092.099a5.5 5.5 0 0 1-.185-.359c-.348-.722-.846-1.945-1.502-3.558l-3.706 1.506zm-.044-.121 3.794-1.265-3.794 1.265zm-12.455-16.195c.598-.883 1.08-1.242 1.38-1.379.244-.112.468-.128.779-.024.827.277 2.006 1.325 3.407 3.376 2.704 3.961 5.184 10.038 6.933 14.343l3.706-1.506c-1.7-4.184-4.34-10.705-7.336-15.092-1.449-2.122-3.264-4.186-5.441-4.914-1.19-.398-2.469-.39-3.714.181-1.189.544-2.181 1.525-3.025 2.77l3.311 2.245z" fill="#E1E4E5"/><path fill-rule="evenodd" clip-rule="evenodd" d="M310.747 443.698c8.516 9.28 5.154 56.937 5.154 56.937s-19.775-4.056-37.31-9.798c-9.89.66-80.964 4.976-86.237-6.923-3.075-6.937 8.93-5.449 13.41-4.676-7.35-1.471-36.95-8.19-32.264-20.209 3.48-8.919 27.331-4.495 27.331-4.495s-7.145-6.525-.454-13.498c6.69-6.972 35.174 20.953 35.174 20.953s-11.551-21.68 1.771-15.423c1.939.911 4.296 2.601 6.895 4.809 2.868.773 5.391 2.135 5.391 2.135s-24.119-20.876-15.901-28.854c4.415-4.28 27.619 13.776 27.619 13.776s-4.275-10.654 4.149-10.908c8.424-.254 21.326 16.099 21.326 16.099s15.429-9.208 23.946.075z" fill="#fff"/><path d="m315.901 500.635 1.995.141-.161 2.277-2.236-.459.402-1.959zm-5.154-56.937-1.474 1.352 1.474-1.352zm-32.156 47.139-.133-1.996.387-.026.369.121-.623 1.901zm-86.237-6.923 1.828-.811v.001l-1.828.81zm13.41-4.676.392-1.961-.732 3.932.34-1.971zM173.5 459.029l-1.863-.726v-.001l1.863.727zm27.331-4.495 1.348-1.477 5.168 4.72-6.881-1.277.365-1.966zm-.454-13.498 1.443 1.385-1.443-1.385zm35.174 20.953 1.765-.94-3.165 2.368 1.4-1.428zm1.771-15.423.85-1.81h.001l-.851 1.81zm6.895 4.809-.521 1.931-.432-.117-.342-.29 1.295-1.524zm5.391 2.135 1.309-1.512-2.259 3.272.95-1.76zm-15.901-28.854-1.393-1.435.001-.001 1.392 1.436zm27.619 13.776 1.856-.745 2.755 6.868-5.839-4.545 1.228-1.578zm4.149-10.908.06 1.999-.06-1.999zm21.326 16.099 1.025 1.718-1.508.9-1.087-1.379 1.57-1.239zm29.1 57.012-1.995-.141v-.007l.002-.024.006-.1.026-.394c.023-.346.054-.858.092-1.514.074-1.311.172-3.197.262-5.49.182-4.589.335-10.797.224-17.284-.112-6.499-.487-13.224-1.35-18.869-.432-2.823-.978-5.328-1.654-7.376-.686-2.08-1.456-3.53-2.241-4.386l2.947-2.704c1.344 1.464 2.333 3.534 3.092 5.836.771 2.334 1.359 5.076 1.81 8.025.902 5.901 1.282 12.83 1.395 19.405.113 6.587-.043 12.874-.226 17.511a314.775 314.775 0 0 1-.359 7.103l-.027.407-.007.105-.002.028v.009l-1.995-.14zm-36.687-11.699c8.697 2.848 17.968 5.284 25.079 7.01 3.552.862 6.558 1.545 8.675 2.013a339.717 339.717 0 0 0 3.115.671l.165.035a.665.665 0 0 1 .042.008l.01.002.002.001-.401 1.959-.403 1.959h-.001l-.003-.001-.011-.002-.045-.009a22.05 22.05 0 0 1-.172-.036l-.665-.14c-.58-.123-1.426-.305-2.496-.541a439.94 439.94 0 0 1-8.755-2.032c-7.161-1.738-16.544-4.201-25.381-7.096l1.245-3.801zm-85.032-5.832c.333.75 1.393 1.729 3.749 2.702 2.267.937 5.346 1.711 9.06 2.329 7.412 1.234 16.983 1.788 26.783 1.95 19.579.325 39.753-.915 44.684-1.244l.266 3.991c-4.959.331-25.267 1.58-45.016 1.253-9.863-.164-19.668-.721-27.374-2.004-3.846-.64-7.262-1.475-9.93-2.578-2.579-1.065-4.893-2.555-5.879-4.779l3.657-1.62zm11.242-1.895c-2.232-.386-6.094-.898-8.949-.54-1.493.187-2.228.559-2.486.838a.458.458 0 0 0-.13.32c-.014.2.025.603.323 1.276l-3.657 1.621c-.47-1.061-.729-2.128-.657-3.172a4.448 4.448 0 0 1 1.187-2.763c1.268-1.369 3.238-1.878 4.922-2.089 3.499-.439 7.879.179 10.127.567l-.68 3.942zm-30.06-21.453c-.805 2.063-.264 3.942 1.615 5.915 1.953 2.051 5.149 3.935 8.938 5.584 7.528 3.277 16.592 5.292 20.239 6.022l-.785 3.922c-3.702-.741-13.113-2.821-21.051-6.276-3.945-1.717-7.729-3.859-10.238-6.494-2.583-2.713-3.984-6.181-2.445-10.126l3.727 1.453zm25.467-5.222-.365 1.966h-.001a20.157 20.157 0 0 1-.242-.043c-.167-.028-.415-.07-.734-.12-.639-.1-1.56-.235-2.678-.369-2.242-.27-5.246-.535-8.338-.531-3.116.004-6.196.284-8.646 1.038-2.486.766-3.92 1.887-4.464 3.281l-3.726-1.454c1.196-3.065 4.048-4.736 7.013-5.649 3.001-.925 6.536-1.211 9.818-1.216 3.306-.005 6.482.278 8.82.559a81.46 81.46 0 0 1 2.822.389c.339.054.607.099.791.13l.214.038.057.01a.157.157 0 0 1 .016.003l.005.001h.001l-.363 1.967zm.989-12.113c-1.431 1.491-2.028 2.851-2.223 4.001-.199 1.165-.011 2.27.368 3.268.382 1.008.944 1.865 1.428 2.481a9.777 9.777 0 0 0 .756.857l.034.032.003.003-.002-.002-.002-.002-.001-.001c-.001 0-.002-.001-1.35 1.476a137.624 137.624 0 0 1-1.351 1.475l-.001-.001-.004-.004a.073.073 0 0 1-.01-.009l-.027-.025a12.906 12.906 0 0 1-.352-.353 14.055 14.055 0 0 1-.841-.977c-.647-.826-1.453-2.035-2.02-3.531-.571-1.504-.915-3.338-.572-5.358.347-2.034 1.366-4.104 3.281-6.1l2.886 2.77zm33.731 19.568-1.4 1.428h-.001a149274593.213 149274593.213 0 0 1-.017-.017l-.059-.057-.233-.226c-.206-.199-.511-.491-.902-.862-.783-.741-1.91-1.794-3.285-3.037-2.752-2.488-6.478-5.723-10.399-8.734-3.945-3.029-7.987-5.753-11.386-7.294-1.706-.774-3.118-1.187-4.195-1.26-1.045-.071-1.557.182-1.854.491l-2.886-2.77c1.375-1.433 3.217-1.833 5.01-1.712 1.761.12 3.673.745 5.577 1.608 3.824 1.734 8.158 4.684 12.17 7.765 4.036 3.099 7.849 6.41 10.646 8.939a198.484 198.484 0 0 1 4.281 3.987l.246.238.064.062.016.017.005.004.001.001c.001.001.001.001-1.399 1.429zm.921-13.613c-1.558-.732-2.526-.941-3.063-.944-.247-.001-.341.041-.348.044-.004.002.002 0 .011-.008.008-.007.009-.01.003-.001-.045.066-.19.38-.168 1.175.02.751.182 1.697.468 2.779.569 2.16 1.544 4.557 2.402 6.455a66.328 66.328 0 0 0 1.424 2.952l.088.169.021.041.005.009a.003.003 0 0 1 .001.002l-1.765.94c-1.765.941-1.765.94-1.766.94v-.002l-.003-.004-.007-.014a1.061 1.061 0 0 1-.027-.052l-.1-.191a64.027 64.027 0 0 1-1.516-3.143c-.892-1.971-1.972-4.604-2.625-7.082-.326-1.236-.567-2.512-.599-3.69-.031-1.135.122-2.459.868-3.546.841-1.226 2.17-1.782 3.658-1.773 1.381.009 2.966.491 4.738 1.324l-1.7 3.62zm6.45 4.523c-2.561-2.175-4.756-3.727-6.45-4.523l1.701-3.62c2.182 1.025 4.701 2.855 7.339 5.094l-2.59 3.049zm6.686.611-.95 1.76.001.001-.002-.001-.015-.008-.07-.037a27.568 27.568 0 0 0-1.393-.663c-.934-.413-2.18-.905-3.483-1.256l1.041-3.862c1.566.422 3.015.997 4.059 1.459a30.777 30.777 0 0 1 1.62.772 3.99 3.99 0 0 1 .137.072l.003.002.001.001h.001l-.95 1.76zm-14.507-27.419c-1.222 1.186-1.491 2.987-.494 5.764.992 2.762 3.07 5.913 5.527 8.966 2.433 3.024 5.13 5.821 7.231 7.871a100.22 100.22 0 0 0 3.301 3.085l.19.168.047.041.011.01.003.002-1.309 1.512-1.31 1.512-.001-.002-.005-.003-.015-.014-.056-.048a79.389 79.389 0 0 1-.981-.879c-.657-.6-1.584-1.462-2.669-2.521-2.165-2.113-4.984-5.033-7.553-8.226-2.545-3.163-4.957-6.727-6.176-10.123-1.214-3.381-1.416-7.181 1.472-9.985l2.787 2.87zm26.225 12.341-1.228 1.579-.001-.001-.002-.002a.184.184 0 0 1-.012-.009l-.047-.036-.189-.146a165.664 165.664 0 0 0-3.389-2.52c-2.223-1.61-5.222-3.706-8.347-5.663-3.145-1.97-6.333-3.746-8.953-4.768-1.318-.514-2.378-.791-3.155-.853-.81-.064-.952.127-.903.079l-2.785-2.872c1.153-1.117 2.702-1.298 4.005-1.194 1.337.106 2.814.537 4.292 1.114 2.973 1.16 6.414 3.095 9.622 5.104 3.228 2.022 6.305 4.173 8.571 5.814a178.033 178.033 0 0 1 3.476 2.585l.201.155.053.041.014.01.003.003.001.001c.001 0 .001.001-1.227 1.579zm4.209-8.909c-1.646.049-2.329.573-2.668 1.02-.406.536-.632 1.381-.626 2.518.007 1.111.234 2.268.48 3.184a16.811 16.811 0 0 0 .432 1.366l.025.067.005.012c0 .001 0 .001 0 0v-.001l-.001-.001-1.856.744c-1.856.745-1.857.744-1.857.743l-.001-.001-.001-.004-.005-.011a.429.429 0 0 0-.013-.034l-.042-.111a18.63 18.63 0 0 1-.549-1.732c-.292-1.09-.607-2.613-.617-4.197-.009-1.558.276-3.425 1.438-4.958 1.229-1.621 3.171-2.525 5.736-2.602l.12 3.998zm21.266 14.1-1.57 1.239-.001-.001a.06.06 0 0 1-.006-.007l-.024-.031-.103-.128a82.033 82.033 0 0 0-1.947-2.304 83.93 83.93 0 0 0-5.229-5.461c-2.09-1.982-4.384-3.903-6.62-5.302-2.289-1.432-4.259-2.151-5.766-2.105l-.12-3.998c2.706-.082 5.507 1.148 8.007 2.712 2.552 1.596 5.063 3.715 7.251 5.79a88.013 88.013 0 0 1 5.484 5.726 82.074 82.074 0 0 1 1.614 1.894c.191.23.338.412.44.537l.116.146a.465.465 0 0 1 .04.05l.003.003v.001c.001 0 .001.001-1.569 1.239zm22.472 1.427c-3.523-3.84-8.572-4.006-13.241-2.922-2.294.532-4.359 1.34-5.859 2.022a31.498 31.498 0 0 0-2.211 1.112l-.111.064a.215.215 0 0 0-.023.014l-.004.002.001-.001-1.024-1.718c-1.025-1.717-1.025-1.717-1.024-1.718l.002-.001.004-.002.013-.008.043-.025c.036-.021.087-.051.152-.087.129-.073.314-.176.549-.301.47-.251 1.144-.593 1.977-.972 1.659-.754 3.983-1.668 6.611-2.278 5.174-1.2 12.099-1.328 17.092 4.115l-2.947 2.704z" fill="#E1E4E5"/><path fill-rule="evenodd" clip-rule="evenodd" d="M320.5 482.75S219 401.702 219 327.683C219 273.178 264.447 229 320.5 229S422 273.178 422 327.683c0 74.019-101.5 155.067-101.5 155.067z" fill="#009688" stroke="#009688" stroke-width="28.37" stroke-linecap="round" stroke-linejoin="round"/><path d="M320.478 318.608c-6.771 0-12.213 5.357-12.213 11.913 0 6.557 5.485 11.871 12.256 11.871s12.214-5.314 12.214-11.913c.043-6.514-5.443-11.871-12.257-11.871" stroke="#fff" stroke-width="48.242" stroke-linecap="round" stroke-linejoin="round"/><path d="M489.363 292.03c.427 3.301 1.571 7.281 3.422 8.632 2.1 1.534 2.749 3.163 2.749 3.163l2.133-.658 2.551-.786s.004-.26-.012-.694a18.639 18.639 0 0 0-.137-1.709s-.486-1.045.196-2.062c.681-1.014.994-2.754.515-3.97-.478-1.212-.577-3.958-1.029-3.979-1.094-.062-.344 3.85-.948 4.402-.543.503-1.008.18-1.091.111a.115.115 0 0 1-.017-.014c-2.649-1.978-4.609-9.796-6.41-9.217-.672.215-2.107 5.375-1.922 6.781zm107.691 81.236s-2.261 3.914-1.248 6.171c1.009 2.259 4.515 5.27 5.42 6.451.9 1.179 3.959 4.295 5.191 2.29 1.231-2-.943-7.32-2.451-9.324-1.506-2.01-1.649-5.457-1.649-5.457l-5.263-.131z" fill="#F8AE9D"/><path d="M595.607 378.785s.172 4.312.377 5.464c.206 1.154.41.801 1.198.026.788-.774.779-3.031 1.075-3.18.296-.148-2.65-2.31-2.65-2.31z" fill="#F8AE9D"/><path d="M556.047 291.559s-26.381 28.436-34.594 32.891l-20.691-24.424s-3.884.273-6.315 3.548c0 0 8.027 34.447 22.675 39.218 14.647 4.77 44.507-28.769 44.507-28.769l-5.582-22.464zM531.451 500h27.09c1.301-1.534.822-7.199.626-9.051-.041-.374-.068-.588-.068-.588s-9.25-7.144-10.521-1.674a6.374 6.374 0 0 1-.137.506c-1.599 5.116-8.781 7.441-12.925 8.089-2.699.42-3.695 1.773-4.065 2.718z" fill="#133835"/><path d="M549.689 500h27.09c1.302-1.534.822-7.199.627-9.051-.041-.374-.068-.588-.068-.588s-9.251-7.144-10.521-1.674a6.374 6.374 0 0 1-.137.506c-1.6 5.116-8.781 7.441-12.925 8.089-2.699.42-3.696 1.773-4.066 2.718z" fill="#133835"/><path d="M538.851 378.196s1.295 14.018 2.818 30.865c2.069 22.888 4.558 51.003 4.804 56.328.426 9.249 2.132 24.041 2.132 24.041s4.049 3.515 12.154 2.033c0 0 7.224-21.118 9.286-43.464l.095-1.104c1.92-22.745 4.902-70.644 4.902-70.644l-36.191 1.945z" fill="#009688"/><path d="M546.198 379.155s2.442 13.878 5.343 30.56c3.942 22.663 8.731 50.505 9.409 55.792 1.176 9.182 4.099 23.808 4.099 23.808s4.404 3.26 12.537 1.306c0 0 5.66-21.449 5.968-43.816l.008-1.105c.131-22.757-.675-70.616-.675-70.616l-36.689 4.071z" fill="#009688"/><path d="M550.394 296.68c9.308 2.939 24.67-5.348 24.67-5.348s-7.836-6.088-7.388-19.484l-7.197 5.802-4.889 3.939s.019 2.324.554 6.394c.142 1.071.4 2.743-.403 3.601-3.117 3.326-5.347 5.096-5.347 5.096z" fill="#F8AE9D"/><path d="M552.743 281.369s15.378 2.556 16.822-7.046c1.444-9.601 4.4-15.738-5.357-17.775-9.756-2.037-12.222 1.337-13.482 4.425-1.26 3.088-1.944 19.484 2.017 20.396z" fill="#F8AE9D"/><path d="M537.398 383.163c.28.232.606.374.98.374 3.497-.048 13.692 1.895 22.317 1.009 7.271-.7 13.711-2.853 20.622-5.95.918-.413 3.029-1.541 2.984-2.566-.032-1.125-.141-2.752-.283-4.805-.49-7.136-1.341-19.407-.51-33.566.149-2.637.229-5.251.239-7.826.071-19.191-3.732-36.067-11.381-41.779-.654-.467-4.664 1.493-8.348 3.307-3.404 1.68-6.072 1.857-9.289 1.206l-3.948 2.849c-3.917 3.636-8.207 8.58-10.073 16.084-1.586 6.388-2.517 17.904-3.03 29.84-.232 5.408-.419 10.865-.467 16.038v.184c-.045.512-.045 1.073-.045 1.585-.187 13.293 0 23.829.232 24.016z" fill="#133835"/><path d="M599.359 375.26c-2.919.396-6.034-.013-6.034-.013s-7.038-26.965-8.002-29.446c-.964-2.48-23.655-32.506-23.655-32.506l11.61-24.799s23.791 45.513 26.107 51.849c3.828 10.468 4.039 33.458 4.039 33.458s-1.771 1.147-4.065 1.457zm-28.064-104.376c-.837 1.731-3.266 1.987-3.042.078.255-2.173.252-5.016-1.515-4.487-1.766.529-1.856 1.944-2.581 1.118-.726-.825-.738-4.306-5.999-4.551-5.26-.241-7.397 1.589-9.84.513-1.464-.645-2.098-2.229-2.371-3.397-.078-.331.163-.793.384-.535.209.244.734.229.585-.055-.927-1.758-2.312-5.596 1.218-8.455 4.725-3.825 9.541-1.321 12.274-1.157 6.024.365 9.915.725 11.881 4.684 1.629 3.283 1.35 11.395-.994 16.244z" fill="#133835"/><rect width="10.204" height="19.844" rx="1.039" transform="scale(-1 1) rotate(16.976 -1178.812 -1516.888)" fill="#009688"/></svg>