<svg width="900" height="600" viewBox="0 0 900 600" fill="none" xmlns="http://www.w3.org/2000/svg"><path fill="transparent" d="M0 0h900v600H0z"/><path d="M437.471 110.952h214.897c24.182 0 43.877 27.099 43.877 60.373v39.449c0 17.152-10.221 31.216-22.686 31.216H490.323c-12.465 0-22.687-14.064-22.687-31.216v-42.879c0-16.122-4.238-32.245-12.216-44.251-4.736-7.204-10.719-12.692-17.949-12.692z" fill="#133835"/><path fill-rule="evenodd" clip-rule="evenodd" d="M352.798 110.951h297.198c-9.998 0-18.273 5.489-24.824 12.693-11.033 12.006-16.894 28.128-16.894 44.251v42.879c0 .943-.043 1.876-.126 2.798v234.337H292.117V171.325c0-33.274 27.237-60.374 60.681-60.374z" fill="#009688"/><path fill-rule="evenodd" clip-rule="evenodd" d="M352.798 110.951h297.198c-9.998 0-18.273 5.489-24.824 12.693-11.033 12.006-16.894 28.128-16.894 44.251v42.879c0 .943-.043 1.876-.126 2.798v234.337H292.117V171.325c0-33.274 27.237-60.374 60.681-60.374z" fill="#009688"/><path fill-rule="evenodd" clip-rule="evenodd" d="M235.428 297.772v180.56c0 26.127 21.162 47.289 47.289 47.289h331.001c26.128 0 47.29-21.162 47.29-47.289V298.344a53.052 53.052 0 0 1-4.467 3.373L505.953 403.403a102.494 102.494 0 0 1-114.8 0L240.565 301.717a52.843 52.843 0 0 1-5.137-3.945z" fill="#009688"/><path d="m235.428 297.772 9.16-10.519a13.948 13.948 0 0 0-23.11 10.519h13.95zm0 180.56h-13.95 13.95zm425.58-179.988h13.949a13.95 13.95 0 0 0-22.935-10.67l8.986 10.67zm-4.467 3.373 7.807 11.56.003-.002-7.81-11.558zM505.953 403.403l-7.806-11.56 7.806 11.56zm-114.8 0 7.807-11.56-7.807 11.56zM240.565 301.717l7.806-11.561-.001-.001-7.805 11.562zm-19.087-3.945v180.56h27.899v-180.56h-27.899zm0 180.56c0 33.831 27.408 61.239 61.239 61.239v-27.899c-18.423 0-33.34-14.917-33.34-33.34h-27.899zm61.239 61.239h331.001v-27.899H282.717v27.899zm331.001 0c33.832 0 61.239-27.408 61.239-61.239h-27.899c0 18.423-14.916 33.34-33.34 33.34v27.899zm61.239-61.239V298.344h-27.899v179.988h27.899zm-22.935-190.658a38.774 38.774 0 0 1-3.29 2.484l15.619 23.117a66.834 66.834 0 0 0 5.643-4.262l-17.972-21.339zm-3.287 2.482L498.147 391.843l15.612 23.121 150.589-101.687-15.613-23.121zM498.147 391.843a88.547 88.547 0 0 1-99.187 0l-15.613 23.121c39.428 26.625 90.984 26.625 130.413 0l-15.613-23.121zm-99.187 0L248.371 290.156l-15.612 23.121 150.588 101.687 15.613-23.121zM248.37 290.155a38.947 38.947 0 0 1-3.782-2.902l-18.321 21.039a66.738 66.738 0 0 0 6.493 4.986l15.61-23.123z" fill="#fff"/><path d="M371.968 304.013h165.005m-164.471-55.416h164.074m-164.074-46.249h164.074" stroke="#fff" stroke-width="24.244" stroke-linecap="round" stroke-linejoin="round"/><rect x="673.121" y="496.956" width="42.89" height="4.997" rx="2.498" transform="rotate(-45 673.121 496.956)" fill="#E1E4E5"/><rect x="689.565" y="497.074" width="15.925" height="4.997" rx="2.498" transform="rotate(-45 689.565 497.074)" fill="#E1E4E5"/><path d="M261.284 262.362c0 5.781-4.685 10.461-10.473 10.461-5.787 0-10.449-4.703-10.449-10.461 0-5.781 4.685-10.461 10.472-10.461 5.788 0 10.45 4.68 10.45 10.461z" stroke="#E1E4E5" stroke-width="5.506" stroke-miterlimit="10"/><path d="M248.277 187.297c-15.337 13.401-41.72 8.319-41.72 8.319s-1.499-26.81 13.851-40.202c15.336-13.401 41.706-8.328 41.706-8.328s1.5 26.809-13.837 40.211z" fill="url(#a)"/><path d="m685.132 293.397-23.929 9.355 1.516-25.648 23.923-9.349-1.51 25.642z" stroke="#E1E4E5" stroke-width="6.485" stroke-linecap="round" stroke-linejoin="round"/><rect x="223.569" y="398.928" width="42.89" height="4.997" rx="2.498" transform="rotate(135 223.569 398.928)" fill="#E1E4E5"/><rect x="207.125" y="398.811" width="15.925" height="4.997" rx="2.498" transform="rotate(135 207.125 398.811)" fill="#E1E4E5"/><circle cx="201.667" cy="327.727" r="11.562" transform="rotate(105 201.667 327.727)" fill="#E1E4E5"/><circle cx="704.9" cy="394.898" r="11.562" transform="rotate(105 704.9 394.898)" fill="#E1E4E5"/><path d="M189.104 217.765h.104c.616 8.56 7.107 8.691 7.107 8.691s-7.157.138-7.157 10.028c0-9.89-7.158-10.028-7.158-10.028s6.488-.131 7.104-8.691zm541.758 95.801h.136c.806 11.078 9.294 11.249 9.294 11.249s-9.36.177-9.36 12.977c0-12.8-9.36-12.977-9.36-12.977s8.485-.171 9.29-11.249zm1.052-111.218h.232C733.52 220.476 748 220.755 748 220.755s-15.967.29-15.967 21.235c0-20.945-15.967-21.235-15.967-21.235s14.474-.279 15.848-18.407z" fill="#E1E4E5"/><defs><linearGradient id="a" x1="187.719" y1="232.451" x2="302.907" y2="78.994" gradientUnits="userSpaceOnUse"><stop stop-color="#fff"/><stop offset="1" stop-color="#EEE"/></linearGradient></defs></svg>