<svg width="900" height="600" viewBox="0 0 900 600" fill="none" xmlns="http://www.w3.org/2000/svg"><path fill="transparent" d="M0 0h900v600H0z"/><path d="M664.767 163.615c-18.258-59.591-176.061-136.502-300.73-40.891-57.982 44.47-39.985 76.384-73.369 139.387-19.9 37.551-55.149 73.356-52.794 116.467 2.025 37.215 21.497 70.871 47.839 87.747 59.242 37.953 153.103 44.395 202.173-67.631 49.069-112.026 223.951-81.384 176.881-235.079z" fill="url(#a)"/><path d="M718.482 350.71c-12.461-16.021-34.309-15.171-68.223-6.629-25.504 6.428-48.815 11.944-72.563 29.98-16.623 12.617-28.942 28.146-37.444 42.704-9.215 15.771-22.618 34.208-12.442 48.966 13.983 20.271 78.46 29.359 133.79-9.862 60.779-43.094 69.071-89.503 56.882-105.159z" fill="url(#b)"/><path d="M282.477 208.573c-17.51 46.69-35.036 96.024-67.095 126.6-33.065 31.549-43.705 20.416-51.944.393-8.24-20.024-9.456-72.371 35.916-114.498 45.385-42.139 99.505-56.191 83.123-12.495z" fill="url(#c)"/><path fill-rule="evenodd" clip-rule="evenodd" d="M319.978 153.41h272.653c21.52 0 38.95 17.43 38.95 38.95v7.498H281.028v-7.498c0-21.52 17.43-38.95 38.95-38.95zm-38.95 96.729v195.399c0 21.52 17.43 38.95 38.95 38.95h272.653c21.52 0 38.95-17.43 38.95-38.95V250.139H281.028z" fill="#009688"/><path d="M631.581 199.858v12.583c6.949 0 12.583-5.633 12.583-12.583h-12.583zm-350.553 0h-12.583c0 6.95 5.633 12.583 12.583 12.583v-12.583zm0 50.281v-12.583c-6.95 0-12.583 5.634-12.583 12.583h12.583zm350.553 0h12.583c0-6.949-5.634-12.583-12.583-12.583v12.583zm-38.95-109.312H319.978v25.166h272.653v-25.166zm51.533 51.533c0-28.469-23.064-51.533-51.533-51.533v25.166c14.57 0 26.367 11.796 26.367 26.367h25.166zm0 7.498v-7.498h-25.166v7.498h25.166zm-363.136 12.583h350.553v-25.166H281.028v25.166zm-12.583-20.081v7.498h25.166v-7.498h-25.166zm51.533-51.533c-28.469 0-51.533 23.064-51.533 51.533h25.166c0-14.571 11.796-26.367 26.367-26.367v-25.166zm-51.533 109.312v195.399h25.166V250.139h-25.166zm0 195.399c0 28.469 23.064 51.533 51.533 51.533v-25.166c-14.571 0-26.367-11.797-26.367-26.367h-25.166zm51.533 51.533h272.653v-25.166H319.978v25.166zm272.653 0c28.469 0 51.533-23.064 51.533-51.533h-25.166c0 14.57-11.797 26.367-26.367 26.367v25.166zm51.533-51.533V250.139h-25.166v195.399h25.166zm-12.583-207.982H281.028v25.166h350.553v-25.166z" fill="#009688"/><rect x="305.977" y="286.429" width="55.093" height="55.093" rx="16.895" fill="#fff"/><rect x="305.977" y="371.895" width="55.093" height="55.093" rx="16.895" fill="#fff"/><rect x="387.104" y="286.429" width="55.996" height="55.093" rx="16.895" fill="#fff"/><rect x="387.104" y="371.895" width="55.996" height="55.093" rx="16.895" fill="#fff"/><rect x="469.134" y="286.429" width="55.093" height="55.093" rx="16.895" fill="#fff"/><rect x="469.134" y="371.895" width="55.093" height="55.093" rx="16.895" fill="#fff"/><rect x="550.26" y="286.429" width="55.093" height="55.093" rx="16.895" fill="#fff"/><rect x="326.208" y="107.774" width="22.651" height="80.896" rx="11.325" fill="#009688"/><rect x="483.686" y="107.774" width="22.651" height="80.896" rx="11.325" fill="#009688"/><rect x="404.947" y="107.774" width="22.651" height="80.896" rx="11.325" fill="#009688"/><rect x="562.425" y="107.774" width="22.651" height="80.896" rx="11.325" fill="#009688"/><path fill-rule="evenodd" clip-rule="evenodd" d="M682.103 381.275c32.195 32.195 32.195 84.394 0 116.589-32.195 32.195-84.394 32.195-116.589 0-32.195-32.195-32.195-84.394 0-116.589 32.195-32.195 84.394-32.195 116.589 0z" fill="#009688"/><path d="M682.103 381.275c32.195 32.195 32.195 84.394 0 116.589-32.195 32.195-84.394 32.195-116.589 0-32.195-32.195-32.195-84.394 0-116.589 32.195-32.195 84.394-32.195 116.589 0" stroke="#fff" stroke-width="14.287" stroke-linecap="round" stroke-linejoin="round"/><path d="m656.781 464.679-32.833-19.585v-42.212" stroke="#fff" stroke-width="10.404" stroke-linecap="round" stroke-linejoin="round"/><circle r="20.398" transform="scale(-1 1) rotate(30 -646.113 -1210.493)" fill="#009688"/><circle r="9.174" transform="matrix(0 1 1 0 693.532 241.532)" fill="#E1E4E5"/><circle cx="245.851" cy="230.197" r="8.09" transform="rotate(-180 245.851 230.197)" fill="#E1E4E5"/><circle r="15.64" transform="matrix(1 0 0 -1 160.64 439.449)" fill="#E1E4E5"/><circle r="10.486" transform="scale(-1 1) rotate(30 -431.646 -802.637)" fill="#E1E4E5"/><ellipse cx="313.264" cy="150.379" rx="7.55" ry="8.09" fill="#009688"/><circle cx="723.694" cy="350.056" r="23.093" transform="rotate(-150 723.694 350.056)" fill="#009688"/><circle cx="195.418" cy="313.172" r="10.386" transform="rotate(-150 195.418 313.172)" fill="#009688"/><circle r="8.09" transform="matrix(-1 0 0 1 229.672 372.574)" fill="#E1E4E5"/><circle r="6.098" transform="scale(1 -1) rotate(-30 -242.658 -1433.434)" fill="#E1E4E5"/><ellipse cx="184.909" cy="178.423" rx="17.258" ry="16.719" fill="#E1E4E5"/><circle cx="541.96" cy="523.112" r="11.185" transform="rotate(180 541.96 523.112)" fill="#E1E4E5"/><defs><linearGradient id="a" x1="399.792" y1="-136.538" x2="539.674" y2="905.854" gradientUnits="userSpaceOnUse"><stop stop-color="#fff"/><stop offset="1" stop-color="#EEE"/></linearGradient><linearGradient id="b" x1="635.21" y1="247.263" x2="607.306" y2="653.393" gradientUnits="userSpaceOnUse"><stop stop-color="#fff"/><stop offset="1" stop-color="#EEE"/></linearGradient><linearGradient id="c" x1="216.733" y1="88.317" x2="238.708" y2="537.921" gradientUnits="userSpaceOnUse"><stop stop-color="#fff"/><stop offset="1" stop-color="#EEE"/></linearGradient></defs></svg>