<svg width="900" height="600" viewBox="0 0 900 600" fill="none" xmlns="http://www.w3.org/2000/svg"><path fill="transparent" d="M0 0h900v600H0z"/><path d="m595.079 280.972.281 14.437.008.343a3.44 3.44 0 0 0 3.132 3.35l12.016 1.061c.199.018.391.05.575.1 1.287.356 2.295 1.43 2.474 2.778a60.055 60.055 0 0 0 8.06 22.371c.169.286.292.588.375.892a3.502 3.502 0 0 1-.894 3.321l-7.139 7.105a3.502 3.502 0 0 0-.827 3.54c.132.364.318.732.579 1.063l9.226 11.496a3.518 3.518 0 0 0 4.708.707l11.124-7.471a3.402 3.402 0 0 1 3.647-.09 63.112 63.112 0 0 0 5.072 2.669 59.86 59.86 0 0 0 10.002 3.631l.015.008a3.462 3.462 0 0 1 2.579 2.996l1.431 13.514.079.679c.167 1.739 1.671 3.081 3.445 3.042l14.767-.298c1.797-.049 3.291-1.427 3.453-3.22l1.201-13.368a3.431 3.431 0 0 1 2.637-3.052 60.438 60.438 0 0 0 17.19-7.169 3.45 3.45 0 0 1 4.229.522l8.431 8.428a3.517 3.517 0 0 0 4.697.249l11.567-9.265a3.36 3.36 0 0 0 .688-4.491l-8.754-13.07a3.519 3.519 0 0 1-.134-3.706 61.274 61.274 0 0 0 5.592-13.11c.378-1.334 1.517-2.312 2.897-2.441l16.26-1.715a3.463 3.463 0 0 0 3.093-3.5l-.275-14.812a3.47 3.47 0 0 0-2.641-3.27c-.154-.035-.323-.076-.491-.08l-14.838-1.32c-1.38-.116-2.559-1.025-2.983-2.336-.041-.115-.083-.227-.1-.349-.079-.358-.148-.693-.264-1.048a60.01 60.01 0 0 0-4.321-12.094c-.646-1.283-.365-2.85.68-3.873l8.913-8.917c1.266-1.258 1.367-3.288.244-4.681l-2.047-2.56-7.169-8.913c-1.116-1.408-3.127-1.705-4.631-.709l-10.958 7.359c-1.167.796-2.689.746-3.835-.073a60.711 60.711 0 0 0-17.653-8.732l-.295-2.836-1.234-11.636a3.34 3.34 0 0 0-2.555-2.929 3.077 3.077 0 0 0-.883-.091l-14.866.271c-1.759.046-3.193 1.415-3.362 3.148l-.805 9.136c-.137 1.54-1.327 2.835-2.859 3.083a60.587 60.587 0 0 0-18.148 5.947c-1.344.693-2.949.454-3.964-.603l-10.658-10.656a3.328 3.328 0 0 0-4.42-.233l-11.679 9.384c-1.387 1.107-1.688 3.081-.701 4.523l9.111 13.595c.795 1.165.782 2.686-.015 3.862-1.703 2.509-3.209 5.201-4.543 8.053a60.33 60.33 0 0 0-1.946 4.64 3.48 3.48 0 0 1-2.857 2.234l-15.588 1.649a3.51 3.51 0 0 0-3.146 3.531zm60.871 40.869c-3.406-2.08-6.598-4.853-9.46-8.378-.616-.741-1.212-1.641-1.796-2.614-2.458-4.223-4.283-10.038-4.347-14.295-.435-32.569 37.372-46.683 58.335-22.366.339.404.68.807 1.012 1.227 3.122 3.892 5.752 11.215 5.873 16.197a40.33 40.33 0 0 1-.518 7.477c-4.028 23.635-29.69 34.586-49.099 22.752z" fill="url(#a)"/><path d="m164.302 273.687.281 14.437.008.343a3.44 3.44 0 0 0 3.132 3.35l12.016 1.061c.199.018.391.05.576.099 1.286.357 2.294 1.43 2.473 2.778a60.04 60.04 0 0 0 8.061 22.371c.168.287.291.589.374.893a3.5 3.5 0 0 1-.894 3.32l-7.138 7.105a3.503 3.503 0 0 0-.828 3.54c.132.365.318.733.579 1.063l9.226 11.497a3.518 3.518 0 0 0 4.708.707L208 338.78a3.398 3.398 0 0 1 3.647-.09 63.61 63.61 0 0 0 5.073 2.669 60.027 60.027 0 0 0 10.001 3.631l.015.007a3.463 3.463 0 0 1 2.579 2.996l1.431 13.514.08.679c.166 1.739 1.671 3.081 3.444 3.042l14.767-.298c1.797-.049 3.291-1.426 3.453-3.22l1.201-13.367a3.432 3.432 0 0 1 2.637-3.053 60.436 60.436 0 0 0 17.19-7.168 3.453 3.453 0 0 1 4.23.521l8.43 8.429a3.517 3.517 0 0 0 4.697.248l11.567-9.264a3.36 3.36 0 0 0 .688-4.492l-8.754-13.07a3.517 3.517 0 0 1-.134-3.705 61.286 61.286 0 0 0 5.592-13.111c.378-1.333 1.517-2.311 2.897-2.44l16.26-1.716a3.462 3.462 0 0 0 3.093-3.5l-.275-14.811a3.47 3.47 0 0 0-2.64-3.271c-.155-.035-.324-.075-.492-.079l-14.838-1.321c-1.379-.115-2.558-1.025-2.983-2.336-.041-.114-.083-.226-.1-.349-.079-.357-.148-.692-.264-1.048a59.97 59.97 0 0 0-4.321-12.094c-.646-1.282-.365-2.849.68-3.872l8.913-8.918c1.266-1.258 1.367-3.287.244-4.68l-2.047-2.561-7.169-8.913c-1.115-1.407-3.127-1.705-4.631-.709l-10.958 7.36c-1.166.796-2.689.745-3.835-.074a60.781 60.781 0 0 0-9.749-5.701 59.733 59.733 0 0 0-7.904-3.03l-.295-2.837-1.234-11.635a3.34 3.34 0 0 0-2.555-2.929 3.008 3.008 0 0 0-.883-.091l-14.866.27c-1.759.047-3.193 1.416-3.362 3.149l-.805 9.135c-.137 1.541-1.327 2.835-2.858 3.083a60.623 60.623 0 0 0-18.149 5.948c-1.343.693-2.949.453-3.963-.604l-10.659-10.655a3.327 3.327 0 0 0-4.42-.233l-11.679 9.384c-1.387 1.106-1.688 3.081-.701 4.522l9.112 13.596c.794 1.164.781 2.685-.016 3.862-1.703 2.509-3.209 5.201-4.543 8.052a59.946 59.946 0 0 0-1.945 4.641 3.48 3.48 0 0 1-2.858 2.233l-15.588 1.65a3.508 3.508 0 0 0-3.146 3.531zm60.871 40.869c-3.405-2.08-6.598-4.854-9.459-8.379-.617-.74-1.213-1.641-1.796-2.613-2.459-4.224-4.284-10.039-4.348-14.296-.435-32.568 37.372-46.683 58.335-22.366.339.404.68.807 1.012 1.228 3.122 3.892 5.752 11.214 5.873 16.196a40.325 40.325 0 0 1-.518 7.477c-4.028 23.635-29.69 34.587-49.099 22.753z" fill="url(#b)"/><path clip-rule="evenodd" d="M550.074 143.251H358.048c-42.419 0-76.811 34.392-76.811 76.81v0c0 42.419 34.392 76.811 76.811 76.811h192.026c42.419 0 76.811-34.392 76.811-76.811v0c0-42.418-34.392-76.81-76.811-76.81z" stroke="#009688" stroke-width="32.421" stroke-linecap="round" stroke-linejoin="round"/><path d="M358.047 296.872c-42.419 0-76.811 34.392-76.811 76.811v0c0 42.418 34.392 76.81 76.811 76.81h134.418" stroke="#009688" stroke-width="32.421" stroke-linecap="round" stroke-linejoin="round"/><path fill-rule="evenodd" clip-rule="evenodd" d="M565.154 509.749c-61.648 0-111.641-50.245-111.641-112.205 0-61.959 49.993-112.205 111.641-112.205 61.67 0 111.641 50.246 111.641 112.205 0 61.96-49.971 112.205-111.641 112.205z" fill="#009688"/><path d="m618.104 442.274 6.357-10.607.15-.253a2.875 2.875 0 0 0-.81-3.819l-8.473-6.095a2.992 2.992 0 0 1-.384-.327c-.796-.829-1.059-2.055-.579-3.113a49.944 49.944 0 0 0 4.167-19.814c.005-.283.051-.557.127-.814.301-.979 1.132-1.759 2.176-2.015l8.552-1.995a3.019 3.019 0 0 0 2.227-2.204 3.16 3.16 0 0 0 .052-1.028l-1.647-12.435c-.199-1.529-1.587-2.673-3.187-2.6l-11.689.496a2.985 2.985 0 0 1-2.759-1.551 53.598 53.598 0 0 0-2.566-4.186 51.224 51.224 0 0 0-5.802-7.067l-.008-.012c-.881-.898-1.104-2.2-.56-3.319l5.081-10.445.249-.529c.667-1.336.156-2.977-1.184-3.734l-11.141-6.327c-1.361-.761-3.101-.423-4.037.808l-6.975 9.173a3.044 3.044 0 0 1-3.354 1.048 54.035 54.035 0 0 0-16.072-2.412c-1.387-.012-2.588-.929-2.915-2.253l-2.45-9.855c-.378-1.5-1.837-2.46-3.387-2.262l-12.835 1.601c-1.517.194-2.625 1.485-2.555 2.957l.58 13.368c.055 1.132-.565 2.195-1.586 2.75a52.289 52.289 0 0 0-3.723 2.192 53.18 53.18 0 0 0-6.408 4.849 2.982 2.982 0 0 1-3.269.488l-12.899-5.959c-1.427-.649-3.106-.14-3.897 1.171l-6.531 10.875a2.895 2.895 0 0 0 .48 3.545c.099.093.206.198.33.275l10.458 7.534c.976.695 1.44 1.877 1.161 3.017-.022.101-.042.201-.085.298-.104.294-.204.568-.279.878a49.85 49.85 0 0 0-2.281 10.695c-.102 1.218-1.024 2.231-2.268 2.511l-10.699 2.525c-1.515.352-2.514 1.781-2.311 3.29l.361 2.766 1.29 9.648c.191 1.516 1.555 2.623 3.129 2.567l11.514-.488a2.922 2.922 0 0 1 2.825 1.753 51.23 51.23 0 0 0 4.672 8.459 51.106 51.106 0 0 0 4.513 5.702l-1.071 2.19-4.372 8.995a2.786 2.786 0 0 0 .572 3.259c.177.181.384.327.616.456l11.202 6.391a3.096 3.096 0 0 0 3.938-.796l4.755-6.276c.803-1.058 2.279-1.47 3.533-.972a54.06 54.06 0 0 0 16.231 3.723c1.316.092 2.404.978 2.679 2.195l3.097 12.459c.356 1.391 1.717 2.309 3.189 2.128l12.971-1.639c1.537-.189 2.66-1.489 2.58-2.973l-.607-13.908c-.062-1.198.64-2.296 1.768-2.797a51.317 51.317 0 0 0 7.049-3.833 53.039 53.039 0 0 0 3.56-2.507 3.104 3.104 0 0 1 3.146-.356l12.368 5.709c1.434.662 3.135.158 3.95-1.169zm-26.777-56.645c1.592 3.019 2.71 6.448 3.239 10.275.122.811.158 1.729.15 2.693-.089 4.156-1.373 9.187-3.262 12.306-14.489 23.839-49.086 17.335-53.649-9.61-.069-.443-.139-.887-.196-1.339-.557-4.21.814-10.691 2.99-14.362a34.265 34.265 0 0 1 3.787-5.199c13.751-15.376 37.858-11.956 46.941 5.236z" fill="#fff"/><path d="M434.857 220.061h115.216m-176.492-.672a.952.952 0 0 1 0 1.364.952.952 0 0 1-1.364 0 .952.952 0 0 1 0-1.364.951.951 0 0 1 1.364 0m0 153.621a.952.952 0 0 1 0 1.364.952.952 0 0 1-1.364 0 .952.952 0 0 1 0-1.364.951.951 0 0 1 1.364 0" stroke="#009688" stroke-width="32.421" stroke-linecap="round" stroke-linejoin="round"/><path fill-rule="evenodd" clip-rule="evenodd" d="M189.16 168.852h4.082c.987 0 1.782.803 1.782 1.782v4.082c0 .987-.803 1.782-1.782 1.782h-4.082a1.789 1.789 0 0 1-1.782-1.782v-4.082a1.778 1.778 0 0 1 1.782-1.782zm14.154 0h4.082c.979 0 1.782.803 1.782 1.782v4.082c0 .987-.803 1.782-1.782 1.782h-4.082a1.789 1.789 0 0 1-1.782-1.782v-4.082c0-.979.803-1.782 1.782-1.782zm14.162 0h4.083c.978 0 1.781.803 1.781 1.782v4.082c0 .987-.803 1.782-1.781 1.782h-4.083a1.788 1.788 0 0 1-1.781-1.782v-4.082a1.777 1.777 0 0 1 1.781-1.782zm14.154 0h4.082c.979 0 1.782.803 1.782 1.782v4.082c0 .987-.803 1.782-1.782 1.782h-4.082a1.79 1.79 0 0 1-1.79-1.782v-4.082a1.8 1.8 0 0 1 1.79-1.782zm14.154 0h4.082c.987 0 1.79.803 1.79 1.782v4.082c0 .987-.803 1.782-1.79 1.782h-4.082a1.789 1.789 0 0 1-1.782-1.782v-4.082c0-.979.803-1.782 1.782-1.782zm-41.951 15.434h4.082c.979 0 1.782.803 1.782 1.782v4.09c0 .979-.803 1.782-1.782 1.782h-4.082a1.783 1.783 0 0 1-1.782-1.782v-4.082a1.78 1.78 0 0 1 1.782-1.79zm14.154 0h4.082c.979 0 1.782.803 1.782 1.782v4.09c0 .979-.803 1.782-1.782 1.782h-4.082a1.789 1.789 0 0 1-1.782-1.782v-4.082a1.779 1.779 0 0 1 1.782-1.79zm14.153 0h4.083c.987 0 1.79.803 1.79 1.782v4.09a1.79 1.79 0 0 1-1.79 1.782h-4.083a1.788 1.788 0 0 1-1.781-1.782v-4.082c0-.987.803-1.79 1.781-1.79zm-14.664-32.014h4.083c.978 0 1.781.803 1.781 1.782v4.082c0 .987-.803 1.782-1.781 1.782h-4.083a1.788 1.788 0 0 1-1.781-1.782v-4.082a1.777 1.777 0 0 1 1.781-1.782zm14.154 0h4.082c.979 0 1.782.803 1.782 1.782v4.082c0 .987-.803 1.782-1.782 1.782h-4.082a1.79 1.79 0 0 1-1.79-1.782v-4.082a1.8 1.8 0 0 1 1.79-1.782zm463.309 20.379h-2.806a1.225 1.225 0 0 1-1.224-1.225v-2.805c0-.679.552-1.225 1.224-1.225h2.806a1.23 1.23 0 0 1 1.225 1.225v2.805a1.223 1.223 0 0 1-1.225 1.225zm-9.728 0h-2.806a1.23 1.23 0 0 1-1.224-1.225v-2.805c0-.679.552-1.225 1.224-1.225h2.806a1.23 1.23 0 0 1 1.225 1.225v2.805a1.23 1.23 0 0 1-1.225 1.225zm-9.733 0h-2.806a1.23 1.23 0 0 1-1.225-1.225v-2.805c0-.679.552-1.225 1.225-1.225h2.806a1.23 1.23 0 0 1 1.224 1.225v2.805a1.222 1.222 0 0 1-1.224 1.225zm-9.728 0h-2.806a1.23 1.23 0 0 1-1.225-1.225v-2.805c0-.679.552-1.225 1.225-1.225h2.806c.678 0 1.23.552 1.23 1.225v2.805a1.238 1.238 0 0 1-1.23 1.225zm-9.728 0h-2.806a1.23 1.23 0 0 1-1.23-1.225v-2.805c0-.679.552-1.225 1.23-1.225h2.806c.673 0 1.224.552 1.224 1.225v2.805c0 .673-.551 1.225-1.224 1.225zm28.832-10.607h-2.805a1.23 1.23 0 0 1-1.225-1.225v-2.811a1.23 1.23 0 0 1 1.225-1.225h2.805c.679 0 1.225.552 1.225 1.225v2.805a1.223 1.223 0 0 1-1.225 1.231zm-9.727 0h-2.806a1.23 1.23 0 0 1-1.224-1.225v-2.811a1.23 1.23 0 0 1 1.224-1.225h2.806a1.23 1.23 0 0 1 1.225 1.225v2.805a1.224 1.224 0 0 1-1.225 1.231zm-9.728 0h-2.806a1.23 1.23 0 0 1-1.23-1.225v-2.811a1.23 1.23 0 0 1 1.23-1.225h2.806a1.23 1.23 0 0 1 1.224 1.225v2.805a1.23 1.23 0 0 1-1.224 1.231zm10.079 22.002h-2.806a1.23 1.23 0 0 1-1.225-1.224v-2.806c0-.679.552-1.225 1.225-1.225h2.806a1.23 1.23 0 0 1 1.224 1.225v2.806a1.221 1.221 0 0 1-1.224 1.224zm-9.728 0h-2.806a1.23 1.23 0 0 1-1.225-1.224v-2.806c0-.679.552-1.225 1.225-1.225h2.806c.678 0 1.23.552 1.23 1.225v2.806a1.238 1.238 0 0 1-1.23 1.224zM214.763 386.332h-2.305a1.007 1.007 0 0 1-1.005-1.006v-2.304c0-.558.453-1.006 1.005-1.006h2.305a1.01 1.01 0 0 1 1.006 1.006v2.304a1.005 1.005 0 0 1-1.006 1.006zm-7.99 0h-2.304a1.01 1.01 0 0 1-1.006-1.006v-2.304c0-.558.453-1.006 1.006-1.006h2.304a1.01 1.01 0 0 1 1.006 1.006v2.304a1.01 1.01 0 0 1-1.006 1.006zm-7.994 0h-2.304a1.01 1.01 0 0 1-1.006-1.006v-2.304c0-.558.454-1.006 1.006-1.006h2.304a1.01 1.01 0 0 1 1.006 1.006v2.304a1.004 1.004 0 0 1-1.006 1.006zm-7.99 0h-2.304a1.01 1.01 0 0 1-1.006-1.006v-2.304c0-.558.453-1.006 1.006-1.006h2.304c.557 0 1.011.453 1.011 1.006v2.304a1.018 1.018 0 0 1-1.011 1.006zm-7.989 0h-2.305a1.01 1.01 0 0 1-1.01-1.006v-2.304c0-.558.453-1.006 1.01-1.006h2.305a1.01 1.01 0 0 1 1.006 1.006v2.304a1.01 1.01 0 0 1-1.006 1.006zm23.681-8.712h-2.304a1.01 1.01 0 0 1-1.006-1.006v-2.309a1.01 1.01 0 0 1 1.006-1.006h2.304c.557 0 1.006.453 1.006 1.006v2.304a1.005 1.005 0 0 1-1.006 1.011zm-7.99 0h-2.305a1.01 1.01 0 0 1-1.005-1.006v-2.309a1.01 1.01 0 0 1 1.005-1.006h2.305a1.01 1.01 0 0 1 1.006 1.006v2.304a1.006 1.006 0 0 1-1.006 1.011zm-7.99 0h-2.304a1.01 1.01 0 0 1-1.01-1.006v-2.309a1.01 1.01 0 0 1 1.01-1.006h2.304a1.01 1.01 0 0 1 1.006 1.006v2.304c0 .557-.453 1.011-1.006 1.011zm8.278 18.071h-2.304a1.01 1.01 0 0 1-1.006-1.006v-2.304c0-.558.454-1.006 1.006-1.006h2.304a1.01 1.01 0 0 1 1.006 1.006v2.304a1.004 1.004 0 0 1-1.006 1.006zm-7.99 0h-2.304a1.01 1.01 0 0 1-1.006-1.006v-2.304c0-.558.453-1.006 1.006-1.006h2.304c.557 0 1.011.453 1.011 1.006v2.304a1.018 1.018 0 0 1-1.011 1.006z" fill="#E1E4E5"/><defs><linearGradient id="a" x1="583.99" y1="152.623" x2="804.06" y2="503.719" gradientUnits="userSpaceOnUse"><stop stop-color="#fff"/><stop offset="1" stop-color="#EEE"/></linearGradient><linearGradient id="b" x1="153.213" y1="145.337" x2="373.283" y2="496.433" gradientUnits="userSpaceOnUse"><stop stop-color="#fff"/><stop offset="1" stop-color="#EEE"/></linearGradient></defs></svg>