<svg width="900" height="600" viewBox="0 0 900 600" fill="none" xmlns="http://www.w3.org/2000/svg"><path fill="transparent" d="M0 0h900v600H0z"/><path d="M698.79 299.631c13.042-56.646-78.551-192.358-223.835-173.269-67.571 8.88-67.917 43.05-124.263 78.37-33.585 21.051-78.752 33.533-96.955 69.453-15.719 31.003-15.686 67.269-2.279 93.184 30.152 58.281 102.961 107.256 194.837 39.654 91.876-67.603 218.841 38.7 252.495-107.392z" fill="url(#a)"/><path d="M393.363 149.047c-43.388 50.602-88.007 104.517-142.277 128.216-55.979 24.46-64.237 5.604-65.405-23.315-1.168-28.92 21.297-95.209 97.579-127.31 76.303-32.112 150.701-24.951 110.103 22.409z" fill="url(#b)"/><path d="M450 516c185.568 0 336-5.373 336-12s-150.432-12-336-12-336 5.373-336 12 150.432 12 336 12z" fill="url(#c)"/><path d="M454.795 493.287c-.022.263-.045.501-.068.713h-9.454c-.023-.212-.046-.45-.068-.713-.125-1.503-.205-3.619-.205-5.983v-94.608c0-2.364.08-4.48.205-5.983.022-.263.045-.501.068-.713h9.454c.023.212.046.45.068.713.125 1.503.205 3.619.205 5.983v94.608c0 2.364-.08 4.48-.205 5.983z" fill="#fff" stroke="#E1E4E5" stroke-width="4"/><path d="M628.446 402H271.554c-10.25 0-18.554-8.289-18.554-18.498V160.498c0-10.209 8.304-18.498 18.554-18.498h356.892c10.25 0 18.554 8.289 18.554 18.498v223.004c0 10.209-8.304 18.498-18.554 18.498zM493.939 502h-87.878c-1.261 0-2.342-.125-3.061-.296v-11.408c.719-.171 1.8-.296 3.061-.296h87.878c1.261 0 2.342.125 3.061.296v11.408c-.719.171-1.8.296-3.061.296z" fill="#fff" stroke="#E1E4E5" stroke-width="4"/><path clip-rule="evenodd" d="M461.5 342c5.247 0 9.5-3.806 9.5-8.5s-4.253-8.5-9.5-8.5-9.5 3.806-9.5 8.5 4.253 8.5 9.5 8.5zm-27-56c6.351 0 11.5-5.149 11.5-11.5s-5.149-11.5-11.5-11.5-11.5 5.149-11.5 11.5 5.149 11.5 11.5 11.5zm-133-61c6.351 0 11.5-5.149 11.5-11.5s-5.149-11.5-11.5-11.5-11.5 5.149-11.5 11.5 5.149 11.5 11.5 11.5zm303 106c5.799 0 10.5-4.701 10.5-10.5s-4.701-10.5-10.5-10.5-10.5 4.701-10.5 10.5 4.701 10.5 10.5 10.5zm1-138c5.799 0 10.5-4.701 10.5-10.5s-4.701-10.5-10.5-10.5-10.5 4.701-10.5 10.5 4.701 10.5 10.5 10.5zm-226 164c6.351 0 11.5-5.149 11.5-11.5s-5.149-11.5-11.5-11.5-11.5 5.149-11.5 11.5 5.149 11.5 11.5 11.5zm138-135c6.351 0 11.5-5.149 11.5-11.5s-5.149-11.5-11.5-11.5-11.5 5.149-11.5 11.5 5.149 11.5 11.5 11.5z" stroke="#E1E4E5" stroke-width="5.5" stroke-linecap="round" stroke-linejoin="round"/><path d="m584.637 224.576-11.456 11.444-5.566-5.548" stroke="#E1E4E5" stroke-width="5.5" stroke-linecap="round" stroke-linejoin="round"/><path d="m561.776 247.001 11.456-11.444 5.566 5.549m-259.794 48.997 11.456 11.445 5.565-5.549" stroke="#E1E4E5" stroke-width="5.5" stroke-linecap="round" stroke-linejoin="round"/><path d="m341.864 312.529-11.456-11.445-5.565 5.549" stroke="#E1E4E5" stroke-width="5.5" stroke-linecap="round" stroke-linejoin="round"/><path d="M476.402 314.86a.69.69 0 0 1-1.039-.904 90.65 90.65 0 0 0 2.974-4.199.69.69 0 0 1 1.147.768 94.837 94.837 0 0 1-3.019 4.264c-.021.024-.041.049-.063.071zm5.767-8.608a.69.69 0 0 1-1.08-.843c.882-1.477 1.73-2.983 2.524-4.478a.69.69 0 0 1 1.22.645 103.695 103.695 0 0 1-2.558 4.542.907.907 0 0 1-.106.134zm4.835-9.149a.688.688 0 0 1-1.112-.778 85.407 85.407 0 0 0 2.009-4.723.689.689 0 1 1 1.285.502 83.27 83.27 0 0 1-2.044 4.8.618.618 0 0 1-.138.199zm3.75-9.639a.688.688 0 0 1-.696.168.688.688 0 0 1-.449-.864c.52-1.655.977-3.316 1.359-4.939a.684.684 0 0 1 .829-.511.69.69 0 0 1 .515.828 70.892 70.892 0 0 1-1.385 5.039.757.757 0 0 1-.173.279zm2.344-10.067a.693.693 0 0 1-1.171-.592c.252-1.709.423-3.419.509-5.08a.69.69 0 1 1 1.378.074 55.271 55.271 0 0 1-.522 5.209.685.685 0 0 1-.194.389zm.518-10.309a.69.69 0 0 1-1.177-.456 45.125 45.125 0 0 0-.551-5.057.69.69 0 1 1 1.361-.227c.286 1.699.477 3.454.57 5.214a.708.708 0 0 1-.203.526zm-1.717-10.165a.69.69 0 0 1-1.148-.297 41.901 41.901 0 0 0-1.727-4.774.689.689 0 1 1 1.265-.547 42.886 42.886 0 0 1 1.785 4.933.696.696 0 0 1-.175.685zm-4.082-9.46a.689.689 0 0 1-1.083-.141 46.11 46.11 0 0 0-2.799-4.242.69.69 0 0 1 1.11-.82 47.296 47.296 0 0 1 2.885 4.372.697.697 0 0 1-.113.831zm-6.088-8.336a.689.689 0 0 1-1.007-.033 57.882 57.882 0 0 0-3.523-3.702.69.69 0 1 1 .954-.994 61.182 61.182 0 0 1 3.61 3.794.69.69 0 0 1-.034.935zm-7.487-7.12c-.24.24-.63.27-.907.058a38.287 38.287 0 0 0-4.219-2.826.69.69 0 0 1-.256-.94.69.69 0 0 1 .942-.252 40.339 40.339 0 0 1 4.37 2.928.69.69 0 0 1 .07 1.032zm-8.957-5.1a.689.689 0 0 1-.732.156 26.837 26.837 0 0 0-4.849-1.346.69.69 0 0 1-.562-.798.687.687 0 0 1 .797-.559c1.694.297 3.409.774 5.1 1.413a.69.69 0 0 1 .246 1.134zm-16.547 15.413a.69.69 0 0 1-1.004-.947 16.386 16.386 0 0 0 2.654-4.165.69.69 0 0 1 1.261.564 17.908 17.908 0 0 1-2.881 4.517c-.012.008-.022.023-.03.031zm-4.085 3.097a.704.704 0 0 1-.216.146c-2.131.903-4.119.74-5.594-.462a.69.69 0 0 1-.101-.969.689.689 0 0 1 .97-.096c1.359 1.106 3.026.753 4.186.263a.686.686 0 0 1 .755 1.118zm8.218-12.402a.693.693 0 0 1-1.175-.568 15.253 15.253 0 0 0-.227-4.919.69.69 0 0 1 1.35-.285c.374 1.756.456 3.56.247 5.365a.672.672 0 0 1-.195.407zm2.292-7.843a.686.686 0 0 1-.459.202 21.189 21.189 0 0 0-4.932.778.69.69 0 0 1-.377-1.326 22.76 22.76 0 0 1 5.253-.828.69.69 0 0 1 .718.661.699.699 0 0 1-.203.513zm-17.561 15.316a.692.692 0 0 1-1.174-.413c-.192-1.759.1-3.574.869-5.391a.69.69 0 0 1 1.269.539c-.676 1.598-.935 3.18-.768 4.703a.683.683 0 0 1-.196.562zm13.18-17.42a.69.69 0 0 1-1.087-.146c-.788-1.379-1.805-2.713-3.021-3.962a.69.69 0 0 1 .005-.968l.006-.006a.689.689 0 0 1 .975.013c1.297 1.334 2.386 2.761 3.231 4.242a.688.688 0 0 1-.109.827zm-5.459 4.916a.713.713 0 0 1-.141.108 17.566 17.566 0 0 0-3.895 3.062.689.689 0 0 1-1-.951 18.93 18.93 0 0 1 4.201-3.302.692.692 0 0 1 .944.247.695.695 0 0 1-.109.836zm-1.621-12.35a.689.689 0 0 1-.883.075 37.428 37.428 0 0 0-4.355-2.612.69.69 0 0 1 .631-1.227 38.416 38.416 0 0 1 4.514 2.71.69.69 0 0 1 .093 1.054zm-9.15-4.78a.69.69 0 0 1-.738.155 64.676 64.676 0 0 0-4.838-1.673.693.693 0 0 1-.461-.861.691.691 0 0 1 .86-.459c1.729.527 3.389 1.1 4.939 1.709a.69.69 0 0 1 .238 1.129zm-9.905-2.931a.69.69 0 0 1-.612.191 39.772 39.772 0 0 0-5.042-.574.69.69 0 0 1 .064-1.378c1.751.086 3.509.287 5.222.595a.69.69 0 0 1 .368 1.166zm-10.292-.516a.686.686 0 0 1-.436.2 45.372 45.372 0 0 0-5.043.667.689.689 0 0 1-.806-.549.685.685 0 0 1 .547-.805 46.696 46.696 0 0 1 5.198-.688.689.689 0 0 1 .54 1.175zm-84.846 77.214a.691.691 0 0 1-1.122-.764 72.091 72.091 0 0 1 2.289-4.693.69.69 0 0 1 1.22.646c-.904 1.715-1.661 3.264-2.242 4.601a.704.704 0 0 1-.145.21zm74.703-75.311a.684.684 0 0 1-.291.173 57.572 57.572 0 0 0-4.824 1.669.689.689 0 0 1-.507-1.281 60.857 60.857 0 0 1 4.938-1.71.69.69 0 0 1 .684 1.149zm-69.927 66.143a.69.69 0 0 1-1.084-.835 162.71 162.71 0 0 1 2.679-4.445.69.69 0 1 1 1.171.731 166.743 166.743 0 0 0-2.656 4.411.71.71 0 0 1-.11.138zm60.318-62.371a.669.669 0 0 1-.185.132 77.583 77.583 0 0 0-4.526 2.395.69.69 0 0 1-.686-1.195 79.158 79.158 0 0 1 4.607-2.44.69.69 0 0 1 .79 1.108zm-54.861 53.592a.69.69 0 0 1-1.063-.868 200.477 200.477 0 0 1 2.909-4.292.692.692 0 0 1 1.134.788 222.784 222.784 0 0 0-2.891 4.266.757.757 0 0 1-.089.106zm5.902-8.485a.69.69 0 0 1-1.045-.898 208.468 208.468 0 0 1 3.109-4.15.685.685 0 0 1 .966-.126c.302.233.36.665.127.967a224.621 224.621 0 0 0-3.09 4.123.526.526 0 0 1-.067.084zm39.988-39.993a.8.8 0 0 1-.11.09c-1.396.91-2.818 1.891-4.225 2.911a.69.69 0 0 1-.811-1.116 100.98 100.98 0 0 1 4.283-2.952.69.69 0 0 1 .863 1.067zm-33.693 31.795a.691.691 0 0 1-1.026-.92 200.93 200.93 0 0 1 3.305-3.995.69.69 0 0 1 1.053.894 211.593 211.593 0 0 0-3.283 3.968l-.049.053zm25.328-25.728a.568.568 0 0 1-.057.053 125.929 125.929 0 0 0-3.95 3.289.687.687 0 0 1-.972-.073.686.686 0 0 1 .07-.972 136.072 136.072 0 0 1 3.993-3.323.69.69 0 0 1 .916 1.026zm-18.643 17.851a.692.692 0 0 1-1.004-.947 189.54 189.54 0 0 1 3.511-3.817.698.698 0 0 1 .977-.026.69.69 0 0 1 .029.975 176.972 176.972 0 0 0-3.484 3.791c-.01.006-.018.014-.029.024zm10.829-11.09-.018.018a151.419 151.419 0 0 0-3.705 3.57.69.69 0 0 1-.975-.975l.002-.002a154.245 154.245 0 0 1 3.739-3.601.688.688 0 0 1 .957.99zm61.279 67.448a.69.69 0 0 1 1.352.264 90.915 90.915 0 0 0-.477 5.124.688.688 0 0 1-.733.641.693.693 0 0 1-.644-.733c.118-1.799.282-3.548.483-5.202a.977.977 0 0 1 .019-.094zm-.691 10.338a.691.691 0 0 1 1.357.191c-.025 1.72-.007 3.448.054 5.14a.691.691 0 0 1-1.38.051 103.76 103.76 0 0 1-.055-5.212.916.916 0 0 1 .024-.17zm.388 10.341a.688.688 0 0 1 1.352.118c.159 1.724.366 3.438.621 5.096a.69.69 0 0 1-1.364.207 83.943 83.943 0 0 1-.629-5.179.614.614 0 0 1 .02-.242zm1.572 10.223a.688.688 0 0 1 1.339.031c.377 1.693.812 3.36 1.293 4.956a.685.685 0 0 1-.463.857.69.69 0 0 1-.86-.46 70.162 70.162 0 0 1-1.319-5.056.752.752 0 0 1 .01-.328zm3.003 9.891a.692.692 0 0 1 1.31-.073 54.348 54.348 0 0 0 2.1 4.654.69.69 0 0 1-1.231.624 55.166 55.166 0 0 1-2.152-4.772.677.677 0 0 1-.027-.433zm4.706 9.186a.69.69 0 0 1 1.247-.193 45.236 45.236 0 0 0 3.006 4.103.69.69 0 1 1-1.066.878 46.72 46.72 0 0 1-3.1-4.23.715.715 0 0 1-.087-.558zm6.569 7.945a.69.69 0 0 1 1.143-.317 41.846 41.846 0 0 0 3.883 3.271.689.689 0 1 1-.823 1.107 43.172 43.172 0 0 1-4.012-3.38.7.7 0 0 1-.191-.681zm8.266 6.151a.69.69 0 0 1 1.008-.419 45.758 45.758 0 0 0 4.545 2.274.687.687 0 0 1 .358.907.692.692 0 0 1-.909.359 47.273 47.273 0 0 1-4.685-2.344.699.699 0 0 1-.317-.777zm9.44 4.176.012-.048a.69.69 0 0 1 .877-.427 57.84 57.84 0 0 0 4.901 1.445.689.689 0 1 1-.328 1.337 61.329 61.329 0 0 1-5.024-1.48.69.69 0 0 1-.438-.827zm10.044 2.422a.692.692 0 0 1 .757-.504c1.728.228 3.434.342 5.066.338a.69.69 0 0 1 .692.687.689.689 0 0 1-.69.688 39.915 39.915 0 0 1-5.248-.35.69.69 0 0 1-.577-.859zm10.307-.062a.692.692 0 0 1 .555-.501 26.758 26.758 0 0 0 4.873-1.259.69.69 0 0 1 .885.41.687.687 0 0 1-.41.884 28.292 28.292 0 0 1-5.123 1.325.69.69 0 0 1-.792-.57.652.652 0 0 1 .012-.289zm6.624-21.621a.691.691 0 0 1 1.343.318 16.429 16.429 0 0 0-.217 4.934.69.69 0 0 1-1.373.142 17.89 17.89 0 0 1 .236-5.352c.006-.013.008-.031.011-.042zm1.989-4.724a.693.693 0 0 1 .114-.235c1.394-1.848 3.197-2.701 5.076-2.397a.689.689 0 1 1-.221 1.357c-1.729-.278-2.997.861-3.756 1.865a.685.685 0 0 1-1.213-.59zm-.916 14.849a.692.692 0 0 1 1.301-.096 15.244 15.244 0 0 0 2.657 4.147.69.69 0 0 1-1.027.921 16.562 16.562 0 0 1-2.897-4.522.674.674 0 0 1-.034-.45zm1.936 7.938a.69.69 0 0 1 .296-.404 21.163 21.163 0 0 0 3.884-3.14.688.688 0 1 1 .988.96 22.757 22.757 0 0 1-4.135 3.344.69.69 0 0 1-.952-.214.699.699 0 0 1-.081-.546zm7.55-22.044a.692.692 0 0 1 1.224-.23c1.045 1.428 1.7 3.145 1.943 5.104a.688.688 0 0 1-.6.767.691.691 0 0 1-.769-.6c-.214-1.721-.78-3.221-1.686-4.457a.683.683 0 0 1-.112-.584zm-2.704 21.675a.69.69 0 0 1 1.015-.417c1.372.8 2.919 1.448 4.597 1.921.364.104.577.48.48.841l-.002.009a.689.689 0 0 1-.851.475c-1.791-.506-3.447-1.197-4.919-2.057a.69.69 0 0 1-.32-.772zm2.27-6.986a.73.73 0 0 1 .068-.164 17.568 17.568 0 0 0 1.842-4.6.688.688 0 0 1 .832-.507.687.687 0 0 1 .509.831 18.87 18.87 0 0 1-1.986 4.96.693.693 0 0 1-.942.258.695.695 0 0 1-.323-.778zm7.579 9.885a.689.689 0 0 1 .727-.506c1.593.141 3.304.169 5.078.084a.69.69 0 0 1 .067 1.378 38.363 38.363 0 0 1-5.265-.09.69.69 0 0 1-.607-.866zm10.314-.436a.692.692 0 0 1 .562-.503 64.08 64.08 0 0 0 5.026-.97.694.694 0 0 1 .83.515.692.692 0 0 1-.515.828 66.785 66.785 0 0 1-5.132.989.691.691 0 0 1-.771-.859zm10.044-2.414a.69.69 0 0 1 .434-.471c1.58-.57 3.146-1.25 4.653-2.024a.69.69 0 1 1 .634 1.225 40.86 40.86 0 0 1-4.819 2.096.692.692 0 0 1-.902-.826zm9.171-4.699a.682.682 0 0 1 .278-.391 45.542 45.542 0 0 0 4.033-3.1.69.69 0 0 1 .901 1.044 46.482 46.482 0 0 1-4.158 3.194.688.688 0 0 1-1.054-.747zm34.871-109.292a.692.692 0 0 1 1.354.1c.167 1.485.289 3.236.364 5.209a.69.69 0 0 1-1.379.051c-.075-1.938-.194-3.657-.359-5.106a.697.697 0 0 1 .02-.254zm-27.039 102.573a.696.696 0 0 1 .166-.296c1.14-1.2 2.266-2.5 3.343-3.857a.687.687 0 0 1 .968-.11c.299.235.35.669.112.966a60.811 60.811 0 0 1-3.422 3.95.692.692 0 0 1-1.167-.653zm27.487-92.246a.69.69 0 0 1 1.356.181 163.634 163.634 0 0 1-.097 5.19.69.69 0 0 1-1.379-.048c.057-1.764.091-3.497.094-5.148a.733.733 0 0 1 .026-.175zm-21.051 84.175a.681.681 0 0 1 .094-.208 77.613 77.613 0 0 0 2.722-4.337.69.69 0 0 1 1.192.693 79.045 79.045 0 0 1-2.77 4.416.69.69 0 0 1-1.238-.564zm20.715-73.843a.69.69 0 0 1 1.354.22c-.1 1.702-.226 3.443-.373 5.172a.69.69 0 0 1-1.376-.116c.144-1.718.269-3.446.37-5.14a.776.776 0 0 1 .025-.136zm-.868 10.299a.69.69 0 0 1 1.353.256 207.202 207.202 0 0 1-.617 5.148.69.69 0 0 1-1.368-.182c.223-1.69.43-3.412.615-5.116a.452.452 0 0 1 .017-.106zm-14.635 54.629a.823.823 0 0 1 .05-.133 103.94 103.94 0 0 0 2.204-4.634.69.69 0 0 1 1.26.562 100.878 100.878 0 0 1-2.233 4.697.691.691 0 0 1-.927.304.698.698 0 0 1-.354-.796zm13.281-44.382a.692.692 0 0 1 .774-.502.689.689 0 0 1 .575.786 204.623 204.623 0 0 1-.864 5.112.69.69 0 0 1-1.359-.248c.304-1.669.591-3.378.858-5.077l.016-.071zm-9.07 34.945a.63.63 0 0 1 .022-.074c.612-1.557 1.208-3.18 1.777-4.823a.687.687 0 0 1 .878-.424.687.687 0 0 1 .425.878 132.73 132.73 0 0 1-1.796 4.874.688.688 0 0 1-1.306-.431zm7.219-24.78a.69.69 0 0 1 1.343.318 186.386 186.386 0 0 1-1.132 5.061.697.697 0 0 1-.833.51.69.69 0 0 1-.513-.829c.393-1.642.771-3.333 1.123-5.025.005-.01.008-.021.012-.035zm-3.833 15.018.007-.025c.493-1.606.972-3.27 1.423-4.944a.693.693 0 0 1 .847-.486.688.688 0 0 1 .486.843l-.001.003c-.455 1.688-.94 3.365-1.438 4.988a.687.687 0 0 1-.86.455.687.687 0 0 1-.464-.834z" fill="#E1E4E5"/><path d="m297.154 295.208-13.918-3.815 10.786 7.972c-7.21 9.499-14.704 19.761-15.388 31.868-.239 3.953-.717 7.7-1.514 11.196l-16.436 3.565-4.282.923 5.49.456 13.531 1.139c-.946 2.79-2.062 5.41-3.36 7.836-6.071 11.412-16.72 44.556-28.326 46.412h-.012c-.353-.706-16.97-33.383-1.628-83.36a97.36 97.36 0 0 1 7.881-18.497c.103-.194.205-.376.308-.558 18.633-33.281 52.415-49.42 57.039-32.449 2.54 9.294-3.178 18.03-10.171 27.312z" fill="#009688"/><path d="M272.063 356.37c-9.146 29.386-16.72 44.557-28.326 46.413h-.012c-.467 0-25.888-.364-3.77-80.228 1.857-6.686 6.743-15.752 10.023-21.629.103-.194.205-.376.308-.558-1.002 8.417-1.458 20.957 2.232 32.312 0 0 2.54 6.39 8.167 13.337l-4.283.923 5.49.455c2.722 3.133 6.093 6.322 10.171 8.975z" fill="#009688"/><path d="M243.555 441.155c-.809-114.192 39.738-168.874 61.23-177.416" stroke="#009688" stroke-width="2.5" stroke-miterlimit="10"/><path d="m243.464 332.874-7.643 6.89 7.825-2.369c.592 23.964-3.736 46.743-15.365 48.839-15.421 2.813-24.055-38.326-24.59-67.301l11.025 2.87-10.923-7.221c.057-1.8.16-7.028.297-8.622 1.526-17.039 7.255-34.42 17.54-45.24 6.401 10.581 11.868 22.779 15.74 34.852 3.246 10.092 5.433 23.691 6.094 37.302z" fill="#009688"/><path d="m204.078 305.96 33.292-10.388c-3.861-12.073-9.351-24.259-15.74-34.852-10.274 10.82-16.026 28.201-17.552 45.24z" fill="#009688"/><path d="M223.509 266.541c4.556 48.075 6.481 139.534 3.713 172.541" stroke="#009688" stroke-width="2.5" stroke-miterlimit="10"/><path d="M213.133 402.874c-8.793 3.599-23.565-15.524-34.932-40.581a273.496 273.496 0 0 1-1.936-4.431 202.649 202.649 0 0 1-3.508-8.815l7.096-1.151-9.237-4.852c-4.978-14.795-8.247-30.148-8.224-43.269l34.021 6.811c8.087 13.258 14.681 31.697 18.588 48.93l-3.497 10.08 4.898-3.372c3.884 20.468 3.519 37.882-3.269 40.65z" fill="#009688"/><path d="M172.449 307.361c24.966 52.289 49.898 110.32 47.882 135.024" stroke="#009688" stroke-width="2.5" stroke-miterlimit="10"/><path d="M218.869 340.393s-10.089-4.884-15.363-17.187l-20.115-2.591 18.506-2.062c-1.108-3.951-1.719-8.467-1.464-13.681.03-.591.025-1.164.055-1.754-5.22.099-11.966.035-12.604.013l12.627-6.472c-1.23-32.877-19.266-53.024-28.996-29.02-1.985 4.924-4.505 10.408-6.781 16.977l4.997 14.42-7.319-7.442c-.652 2.14-.757 2.718-.875 4.067-1.025 11.741 4.88 23.005 14.736 29.512 12.353 8.117 31.27 18.632 42.596 15.22z" fill="#009688"/><path d="m207.201 493.55 4.117-63.972h38.366l4.449 63.912c.468 6.807-4.927 12.59-11.752 12.59h-23.428c-6.807 0-12.19-5.744-11.752-12.53z" fill="#fff" stroke="#E1E4E5" stroke-width="4"/><path d="M205.087 431.262v-7.367h51.217v7.367h-51.217z" fill="#E1E4E5" stroke="#E1E4E5" stroke-width="4"/><path d="M699.102 370.066c-.172-5.371-1.391-10.862-3.536-15.993-27.943 9.801-19.756-1.711-2.849-5.61-4.549-7.612-11.449-13.787-20.477-16.643-10.933-3.455-23.892 4.413-32.251 16.027 13.148 5.456 10.35 22.817-3.278 5.148-2.729 4.892-4.6 10.16-5.235 15.412-1.597 12.931 4.359 25.622 23.634 31.267 31.067 9.151 44.678-9.374 43.992-29.608zm-19.533-6.603c8.205.24-3.278 9.425-9.423 4.978-3.845-2.805 1.202-5.217 9.423-4.978z" fill="#009688"/><path d="M647.61 502.147c-1.356-104.697 24.613-170.31 24.613-170.31" stroke="#009688" stroke-width="2.5" stroke-miterlimit="10"/><path d="M640.663 376.873c-4.291 18.114-9.08 8.022-3.896-3.883-8.428-7.218-20.786-10.981-34.5-6.961-11.071 3.25-16.323 11.083-17.181 19.909 17.73-.855 22.056 10.468-.086 4.191 1.047 19.739 21.901 41.547 47.888 28.12 19.069-9.852 18.537-28.787 7.775-41.376zm-25.695 24.152c-9.406 2.514-9.869-4.413-1.647-5.371 5.853-.684 11.053 2.856 1.647 5.371z" fill="#009688"/><path d="M639.508 468.913c4.308-65.733-33.315-98.83-33.315-98.83" stroke="#009688" stroke-width="2.5" stroke-miterlimit="10"/><path d="M714.694 415.554c9.131-11.904 9.354-31.387 2.334-37.202-6.642-5.508-15.121-6.175-23.291-3.917 2.077 12.384-8.05 17.823-5.63 2.053-19.035 8.5-33.264 31.54-12.083 42.932 16.134 8.655 27.668 6.517 35.169-.068-27.325-1.745-13.337-9.117 3.501-3.798zm-7.14-20.029c7.964 2.343 6.848 4.84-1.974 5.508-8.805.667-8.307-8.501 1.974-5.508z" fill="#009688"/><path d="M662.783 468.314c-2.626-65.134 48.797-88.944 48.797-88.944" stroke="#009688" stroke-width="2.5" stroke-miterlimit="10"/><path d="M611.424 461.66h79.681l-10.932 30.874c-2.789 7.871-10.271 13.155-18.66 13.155h-20.511c-8.392 0-15.872-5.269-18.66-13.154l-1.886.667 1.886-.667-10.918-30.875z" fill="#fff" stroke="#E1E4E5" stroke-width="4"/><path d="M599.76 459.542v-3.852h102.003v3.852H599.76z" fill="#E1E4E5" stroke="#E1E4E5" stroke-width="4"/><defs><linearGradient id="a" x1="624.737" y1="-66.374" x2="251.618" y2="840.814" gradientUnits="userSpaceOnUse"><stop stop-color="#fff"/><stop offset="1" stop-color="#EEE"/></linearGradient><linearGradient id="b" x1="365.928" y1="-32.089" x2="187.448" y2="542.54" gradientUnits="userSpaceOnUse"><stop stop-color="#fff"/><stop offset="1" stop-color="#EEE"/></linearGradient><linearGradient id="c" x1="464.328" y1="529.456" x2="464.302" y2="465.883" gradientUnits="userSpaceOnUse"><stop stop-color="#fff"/><stop offset="1" stop-color="#EEE"/></linearGradient></defs></svg>