<svg width="900" height="600" viewBox="0 0 900 600" fill="none" xmlns="http://www.w3.org/2000/svg"><path fill="transparent" d="M0 0h900v600H0z"/><rect x="195.691" y="500.751" width="497.312" height="8.302" rx="4.151" fill="url(#a)"/><rect x="294.67" y="467.971" width="276.441" height="31.272" rx="15.636" fill="#009688"/><rect x="294.67" y="336.63" width="276.441" height="31.272" rx="15.636" fill="#009688"/><rect x="294.67" y="380.411" width="276.441" height="31.272" rx="15.636" fill="#009688"/><rect x="294.67" y="249.069" width="276.441" height="31.272" rx="15.636" fill="#009688"/><rect x="328.443" y="424.19" width="276.441" height="31.272" rx="15.636" fill="#009688"/><rect x="328.443" y="292.85" width="276.441" height="31.272" rx="15.636" fill="#009688"/><path d="M408.815 398.923c7.073 48.764-26.773 94.026-75.672 101.132-48.865 7.106-94.228-26.672-101.334-75.437-7.072-48.73 26.807-94.026 75.673-101.132 48.898-7.105 94.261 26.673 101.333 75.437z" fill="url(#b)"/><path d="M387.766 401.987c5.389 37.145-20.408 71.664-57.655 77.086-37.246 5.389-71.832-20.341-77.221-57.486-5.388-37.18 20.408-71.699 57.655-77.087 37.247-5.422 71.799 20.307 77.221 57.487z" fill="#fff"/><path d="m333.573 450.453 1.959 11.834-10.879 1.7-1.889-11.528c-10.879 1.054-21.723-.612-28.439-4.251l3.848-13.806c6.087 3.06 14.377 4.693 22.317 4.217l-2.903-17.649c-12.523-.986-26.655-2.789-29.139-17.887-1.853-11.188 4.933-22.104 21.793-26.695l-1.924-11.732 10.879-1.7 1.889 11.528c8.255-.646 16.546.238 23.122 2.992l-3.288 13.841c-6.052-2.211-11.998-3.129-17.525-2.925l2.973 17.955c12.523.85 26.41 2.721 28.859 17.615 1.784 11.018-4.898 21.832-21.653 26.491zm-18.54-45.024-2.483-14.996c-5.562 2.176-7.311 5.577-6.751 9.079.629 3.673 4.197 5.203 9.234 5.917zm22.877 22.58c-.594-3.707-4.092-5.203-9.024-6.087l2.413 14.588c5.247-2.006 7.171-5.135 6.611-8.501z" fill="#E1E4E5"/><path d="M524.81 407.248c2.485 17.135-9.407 33.039-26.589 35.535-17.171 2.497-33.11-9.372-35.607-26.506-2.485-17.123 9.419-33.039 26.59-35.536 17.182-2.496 33.121 9.372 35.606 26.507z" fill="url(#c)"/><path d="M517.414 408.325c1.893 13.052-7.171 25.181-20.259 27.086-13.087 1.894-25.24-7.147-27.133-20.199-1.894-13.064 7.17-25.193 20.258-27.086 13.088-1.906 25.229 7.135 27.134 20.199z" fill="#fff"/><path d="m498.371 425.354.688 4.158-3.822.598-.664-4.051c-3.823.371-7.633-.215-9.993-1.493l1.352-4.852c2.139 1.076 5.052 1.649 7.842 1.482l-1.02-6.201c-4.4-.347-9.366-.98-10.239-6.286-.651-3.931 1.733-7.766 7.658-9.379l-.676-4.123 3.822-.597.664 4.051c2.901-.228 5.814.083 8.125 1.051l-1.156 4.863c-2.126-.776-4.216-1.099-6.158-1.027l1.045 6.309c4.4.298 9.28.955 10.14 6.189.627 3.871-1.72 7.671-7.608 9.308zm-6.514-15.82-.873-5.269c-1.954.764-2.569 1.959-2.372 3.19.221 1.29 1.475 1.828 3.245 2.079zm8.038 7.934c-.209-1.302-1.438-1.828-3.171-2.139l.848 5.126c1.844-.705 2.52-1.804 2.323-2.987z" fill="#E1E4E5"/><path d="M345.554 197.659c2.768 19.086-10.479 36.802-29.619 39.584-19.126 2.781-36.882-10.44-39.663-29.527-2.768-19.073 10.493-36.803 29.619-39.584 19.139-2.781 36.895 10.44 39.663 29.527z" fill="url(#d)"/><path d="M337.314 198.858c2.11 14.539-7.988 28.05-22.566 30.173-14.579 2.109-28.116-7.962-30.225-22.501-2.109-14.552 7.988-28.063 22.566-30.172 14.579-2.123 28.103 7.948 30.225 22.5z" fill="#fff"/><path d="m316.103 217.828.767 4.632-4.258.665-.739-4.512c-4.258.413-8.503-.239-11.132-1.664l1.507-5.404c2.382 1.198 5.627 1.837 8.735 1.651l-1.137-6.908c-4.901-.386-10.433-1.092-11.405-7.001-.725-4.379 1.931-8.652 8.53-10.449l-.753-4.592 4.258-.665.74 4.512c3.231-.253 6.476.093 9.05 1.171l-1.287 5.417c-2.369-.865-4.697-1.224-6.86-1.144l1.164 7.028c4.902.332 10.337 1.064 11.296 6.894.698 4.313-1.917 8.545-8.476 10.369zm-7.256-17.623-.972-5.87c-2.177.852-2.862 2.183-2.643 3.554.247 1.438 1.643 2.037 3.615 2.316zm8.954 8.838c-.233-1.451-1.602-2.036-3.532-2.382l.944 5.71c2.054-.786 2.807-2.01 2.588-3.328z" fill="#E1E4E5"/><path d="M451.878 190.153c2.768 19.087-10.48 36.803-29.619 39.584-19.126 2.782-36.882-10.439-39.663-29.526-2.768-19.074 10.492-36.803 29.619-39.584 19.139-2.781 36.895 10.44 39.663 29.526z" fill="url(#e)"/><path d="M443.639 191.352c2.109 14.54-7.988 28.051-22.567 30.173-14.578 2.109-28.116-7.962-30.225-22.501-2.109-14.552 7.988-28.063 22.567-30.172 14.579-2.123 28.103 7.948 30.225 22.5z" fill="#fff"/><path d="m422.427 210.322.766 4.632-4.258.666-.739-4.513c-4.258.413-8.502-.239-11.131-1.663l1.506-5.404c2.382 1.198 5.627 1.837 8.735 1.65l-1.136-6.908c-4.902-.386-10.433-1.091-11.405-7.001-.726-4.379 1.93-8.651 8.529-10.448l-.753-4.592 4.258-.666.74 4.512c3.231-.253 6.476.094 9.05 1.172l-1.287 5.417c-2.369-.865-4.696-1.225-6.86-1.145l1.164 7.028c4.902.333 10.337 1.065 11.296 6.895.698 4.312-1.917 8.545-8.475 10.368zM415.17 192.7l-.972-5.87c-2.177.852-2.862 2.183-2.642 3.554.246 1.437 1.643 2.036 3.614 2.316zm8.954 8.838c-.232-1.451-1.601-2.037-3.532-2.383l.945 5.71c2.053-.785 2.806-2.01 2.587-3.327z" fill="#E1E4E5"/><path d="M570.046 188.886c2.768 19.087-10.479 36.802-29.619 39.584-19.126 2.781-36.881-10.44-39.663-29.527-2.768-19.073 10.493-36.802 29.619-39.584 19.14-2.781 36.895 10.44 39.663 29.527z" fill="url(#f)"/><path d="M561.807 190.086c2.109 14.539-7.988 28.05-22.567 30.172-14.578 2.109-28.116-7.962-30.225-22.501-2.109-14.552 7.988-28.063 22.567-30.172 14.579-2.122 28.103 7.948 30.225 22.501z" fill="#fff"/><path d="m540.596 209.055.767 4.632-4.258.666-.74-4.513c-4.258.413-8.502-.239-11.131-1.663l1.506-5.404c2.383 1.198 5.627 1.837 8.735 1.65l-1.136-6.908c-4.902-.386-10.433-1.091-11.405-7.001-.726-4.379 1.93-8.652 8.53-10.448l-.753-4.592 4.258-.666.739 4.512c3.231-.253 6.476.093 9.05 1.172l-1.287 5.417c-2.368-.865-4.696-1.225-6.859-1.145l1.164 7.028c4.901.333 10.337 1.065 11.295 6.895.698 4.312-1.917 8.545-8.475 10.368zm-7.256-17.623-.973-5.869c-2.176.852-2.861 2.183-2.642 3.554.246 1.437 1.643 2.036 3.615 2.315zm8.954 8.838c-.233-1.45-1.602-2.036-3.533-2.382l.945 5.71c2.054-.785 2.807-2.01 2.588-3.328z" fill="#E1E4E5"/><path d="M643.066 229.194c2.164 14.92-8.191 28.769-23.153 30.943-14.95 2.174-28.83-8.161-31.004-23.081-2.164-14.909 8.202-28.768 23.153-30.942 14.961-2.174 28.84 8.16 31.004 23.08z" fill="url(#g)"/><path d="M636.626 230.132c1.648 11.365-6.244 21.927-17.64 23.586-11.396 1.648-21.979-6.224-23.627-17.589-1.649-11.375 6.244-21.937 17.64-23.586 11.396-1.658 21.968 6.214 23.627 17.589z" fill="#fff"/><path d="m620.044 244.96.599 3.621-3.328.52-.578-3.527c-3.329.322-6.646-.187-8.701-1.301l1.177-4.224c1.862.937 4.399 1.436 6.828 1.29l-.888-5.4c-3.832-.301-8.155-.853-8.915-5.472-.568-3.423 1.509-6.763 6.667-8.168l-.588-3.589 3.328-.521.578 3.528c2.526-.198 5.063.072 7.075.915l-1.006 4.235c-1.852-.677-3.671-.957-5.362-.895l.909 5.494c3.832.26 8.081.832 8.83 5.389.546 3.371-1.498 6.68-6.625 8.105zm-5.672-13.775-.76-4.589c-1.702.666-2.237 1.707-2.066 2.778.193 1.124 1.285 1.592 2.826 1.811zm6.999 6.908c-.182-1.134-1.252-1.592-2.761-1.862l.738 4.463c1.606-.614 2.194-1.571 2.023-2.601z" fill="#E1E4E5"/><path d="M502.969 128.589c2.163 14.92-8.192 28.768-23.153 30.942-14.951 2.175-28.83-8.16-31.005-23.08-2.163-14.91 8.202-28.769 23.153-30.943 14.961-2.174 28.841 8.161 31.005 23.081z" fill="url(#h)"/><path d="M496.528 129.527c1.649 11.365-6.244 21.927-17.64 23.586-11.396 1.648-21.978-6.224-23.627-17.589-1.648-11.375 6.244-21.937 17.64-23.586 11.396-1.658 21.968 6.214 23.627 17.589z" fill="#fff"/><path d="m479.948 144.355.599 3.621-3.328.52-.578-3.527c-3.329.322-6.647-.188-8.701-1.301l1.177-4.224c1.862.936 4.399 1.436 6.828 1.29l-.888-5.4c-3.832-.302-8.156-.853-8.915-5.473-.568-3.423 1.509-6.762 6.667-8.167l-.588-3.59 3.328-.52.578 3.527c2.526-.197 5.062.073 7.074.916l-1.006 4.235c-1.851-.677-3.671-.958-5.362-.895l.91 5.493c3.832.26 8.081.833 8.83 5.39.546 3.371-1.499 6.679-6.625 8.105zm-5.672-13.776-.76-4.588c-1.702.666-2.237 1.706-2.066 2.778.193 1.124 1.284 1.592 2.826 1.81zm6.999 6.909c-.182-1.134-1.252-1.592-2.761-1.862l.738 4.463c1.606-.614 2.194-1.571 2.023-2.601z" fill="#E1E4E5"/><path d="M385.388 114.829c2.163 14.92-8.192 28.769-23.153 30.943-14.951 2.174-28.83-8.161-31.005-23.081-2.163-14.909 8.202-28.768 23.153-30.942 14.961-2.174 28.841 8.16 31.005 23.08z" fill="url(#i)"/><path d="M378.947 115.767c1.649 11.365-6.244 21.927-17.64 23.586-11.396 1.648-21.978-6.224-23.627-17.589-1.649-11.375 6.244-21.937 17.64-23.585 11.396-1.66 21.968 6.213 23.627 17.588z" fill="#fff"/><path d="m362.366 130.595.6 3.621-3.329.52-.578-3.527c-3.328.322-6.646-.187-8.701-1.301l1.177-4.224c1.863.937 4.399 1.436 6.829 1.29l-.889-5.4c-3.831-.301-8.155-.853-8.915-5.472-.567-3.423 1.509-6.763 6.668-8.168l-.589-3.589 3.329-.521.578 3.528c2.525-.198 5.062.072 7.074.915l-1.006 4.235c-1.852-.677-3.671-.957-5.362-.895l.91 5.494c3.831.26 8.08.832 8.829 5.389.546 3.371-1.498 6.68-6.625 8.105zm-5.672-13.775-.76-4.589c-1.702.666-2.237 1.707-2.066 2.778.193 1.124 1.285 1.592 2.826 1.811zm6.999 6.908c-.181-1.134-1.252-1.592-2.761-1.862l.739 4.463c1.605-.614 2.194-1.571 2.022-2.601z" fill="#E1E4E5"/><path d="M503.509 306.278c2.98 20.553-11.285 39.63-31.894 42.624-20.595 2.995-39.714-11.241-42.709-31.794-2.981-20.538 11.298-39.629 31.893-42.624 20.61-2.995 39.729 11.242 42.71 31.794z" fill="url(#j)"/><path d="M494.638 307.57c2.271 15.656-8.602 30.205-24.3 32.49-15.699 2.271-30.276-8.573-32.547-24.229-2.271-15.67 8.602-30.219 24.3-32.49 15.698-2.285 30.261 8.559 32.547 24.229z" fill="#fff"/><path d="m471.796 327.996.826 4.988-4.585.716-.796-4.858c-4.585.444-9.156-.258-11.986-1.792l1.621-5.819c2.566 1.29 6.06 1.978 9.407 1.778l-1.224-7.439c-5.278-.416-11.234-1.175-12.281-7.539-.782-4.715 2.079-9.316 9.185-11.251l-.811-4.944 4.585-.717.796 4.859c3.48-.273 6.974.1 9.745 1.261l-1.385 5.833c-2.551-.931-5.057-1.318-7.387-1.232l1.253 7.567c5.278.358 11.131 1.147 12.163 7.424.752 4.644-2.064 9.202-9.126 11.165zm-7.813-18.976-1.047-6.321c-2.344.918-3.081 2.351-2.846 3.827.266 1.548 1.77 2.193 3.893 2.494zm9.642 9.517c-.251-1.562-1.725-2.193-3.804-2.566l1.017 6.149c2.212-.846 3.023-2.164 2.787-3.583z" fill="#E1E4E5"/><path d="M660.181 381.208c24.725-16.954 27.146-56.428 27.146-56.428s-37.671-11.961-62.387 5.015c-24.725 16.954-27.155 56.406-27.155 56.406s37.671 11.961 62.396-4.993z" fill="url(#k)"/><path d="M625.734 279.126h-.12c-.712 10.263-8.211 10.421-8.211 10.421s8.269.165 8.269 12.023c0-11.858 8.269-12.023 8.269-12.023s-7.496-.158-8.207-10.421zM247.729 179.9h-.12c-.712 10.263-8.211 10.421-8.211 10.421s8.269.165 8.269 12.023c0-11.858 8.269-12.023 8.269-12.023s-7.495-.158-8.207-10.421zm387.454 244.522h-.12c-.711 10.263-8.21 10.421-8.21 10.421s8.269.165 8.269 12.023c0-11.858 8.269-12.023 8.269-12.023s-7.496-.158-8.208-10.421zm-40.758 43.707h-.111c-.661 10.263-7.624 10.421-7.624 10.421s7.678.164 7.678 12.023c0-11.859 7.678-12.023 7.678-12.023s-6.96-.158-7.621-10.421zM296.161 293.302h-.121c-.711 10.263-8.21 10.421-8.21 10.421s8.269.164 8.269 12.023c0-11.859 8.269-12.023 8.269-12.023s-7.496-.158-8.207-10.421zm-86.216 34.411h-.154c-.915 12.964-10.556 13.163-10.556 13.163s10.631.208 10.631 15.187c0-14.979 10.632-15.187 10.632-15.187s-9.638-.199-10.553-13.163z" fill="#E1E4E5"/><path fill-rule="evenodd" clip-rule="evenodd" d="M211.288 264.159h3.257c.788 0 1.422.641 1.422 1.422v3.257c0 .788-.641 1.422-1.422 1.422h-3.257a1.428 1.428 0 0 1-1.422-1.422v-3.257a1.42 1.42 0 0 1 1.422-1.422zm11.294 0h3.257c.781 0 1.421.641 1.421 1.422v3.257c0 .788-.64 1.422-1.421 1.422h-3.257a1.428 1.428 0 0 1-1.422-1.422v-3.257c0-.781.641-1.422 1.422-1.422zm11.299 0h3.257c.781 0 1.422.641 1.422 1.422v3.257c0 .788-.641 1.422-1.422 1.422h-3.257a1.428 1.428 0 0 1-1.422-1.422v-3.257a1.42 1.42 0 0 1 1.422-1.422zm11.293 0h3.257c.781 0 1.422.641 1.422 1.422v3.257c0 .788-.641 1.422-1.422 1.422h-3.257a1.428 1.428 0 0 1-1.428-1.422v-3.257a1.437 1.437 0 0 1 1.428-1.422zm11.292 0h3.258c.787 0 1.428.641 1.428 1.422v3.257c0 .788-.641 1.422-1.428 1.422h-3.258c-.78 0-1.421-.641-1.421-1.422v-3.257c0-.781.641-1.422 1.421-1.422zm-33.471 12.315h3.257c.781 0 1.421.64 1.421 1.421v3.264c0 .781-.64 1.422-1.421 1.422h-3.257a1.423 1.423 0 0 1-1.422-1.422v-3.257a1.42 1.42 0 0 1 1.422-1.428zm11.293 0h3.257c.781 0 1.422.64 1.422 1.421v3.264c0 .781-.641 1.422-1.422 1.422h-3.257a1.428 1.428 0 0 1-1.422-1.422v-3.257a1.42 1.42 0 0 1 1.422-1.428zm11.293 0h3.257c.787 0 1.428.64 1.428 1.421v3.264c0 .781-.641 1.422-1.428 1.422h-3.257a1.428 1.428 0 0 1-1.422-1.422v-3.257c0-.788.641-1.428 1.422-1.428zm-11.7-25.543h3.257c.781 0 1.422.641 1.422 1.422v3.257c0 .787-.641 1.421-1.422 1.421h-3.257c-.781 0-1.422-.64-1.422-1.421v-3.257a1.42 1.42 0 0 1 1.422-1.422zm11.293 0h3.257c.781 0 1.422.641 1.422 1.422v3.257c0 .787-.641 1.421-1.422 1.421h-3.257c-.788 0-1.428-.64-1.428-1.421v-3.257a1.437 1.437 0 0 1 1.428-1.422z" fill="#E1E4E5"/><defs><linearGradient id="a" x1="454.951" y1="513.709" x2="454.947" y2="491.717" gradientUnits="userSpaceOnUse"><stop stop-color="#fff"/><stop offset="1" stop-color="#EEE"/></linearGradient><linearGradient id="b" x1="324.127" y1="601.052" x2="318.637" y2="128.412" gradientUnits="userSpaceOnUse"><stop stop-color="#fff"/><stop offset="1" stop-color="#EEE"/></linearGradient><linearGradient id="c" x1="495.052" y1="478.272" x2="493.123" y2="312.197" gradientUnits="userSpaceOnUse"><stop stop-color="#fff"/><stop offset="1" stop-color="#EEE"/></linearGradient><linearGradient id="d" x1="312.406" y1="276.774" x2="310.257" y2="91.778" gradientUnits="userSpaceOnUse"><stop stop-color="#fff"/><stop offset="1" stop-color="#EEE"/></linearGradient><linearGradient id="e" x1="418.73" y1="269.268" x2="416.581" y2="84.273" gradientUnits="userSpaceOnUse"><stop stop-color="#fff"/><stop offset="1" stop-color="#EEE"/></linearGradient><linearGradient id="f" x1="536.898" y1="268.001" x2="534.749" y2="83.005" gradientUnits="userSpaceOnUse"><stop stop-color="#fff"/><stop offset="1" stop-color="#EEE"/></linearGradient><linearGradient id="g" x1="617.155" y1="291.038" x2="615.475" y2="146.428" gradientUnits="userSpaceOnUse"><stop stop-color="#fff"/><stop offset="1" stop-color="#EEE"/></linearGradient><linearGradient id="h" x1="477.057" y1="190.433" x2="475.377" y2="45.823" gradientUnits="userSpaceOnUse"><stop stop-color="#fff"/><stop offset="1" stop-color="#EEE"/></linearGradient><linearGradient id="i" x1="359.476" y1="176.673" x2="357.796" y2="32.063" gradientUnits="userSpaceOnUse"><stop stop-color="#fff"/><stop offset="1" stop-color="#EEE"/></linearGradient><linearGradient id="j" x1="467.815" y1="391.47" x2="465.501" y2="192.266" gradientUnits="userSpaceOnUse"><stop stop-color="#fff"/><stop offset="1" stop-color="#EEE"/></linearGradient><linearGradient id="k" x1="746.742" y1="311.42" x2="485.765" y2="419.407" gradientUnits="userSpaceOnUse"><stop stop-color="#fff"/><stop offset="1" stop-color="#EEE"/></linearGradient></defs></svg>