<svg width="900" height="600" viewBox="0 0 900 600" fill="none" xmlns="http://www.w3.org/2000/svg"><path fill="transparent" d="M0 0h900v600H0z"/><path fill-rule="evenodd" clip-rule="evenodd" d="M247.478 157.748c-42.689 0-77.612 34.892-77.612 77.545s34.923 77.545 77.612 77.545c8.564 0 15.578 7.008 15.578 15.565 0 8.556-7.014 15.564-15.578 15.564h-40.611c-20.826 0-37.867 17.027-37.867 37.834 0 20.807 17.041 37.834 37.867 37.834 18.011 0 32.749 14.725 32.749 32.721 0 32.833 26.887 59.696 59.748 59.696h350.742c42.69 0 77.612-34.892 77.612-77.545s-34.922-77.545-77.612-77.545h-7.508c-8.564 0-15.578-6.999-15.578-15.564 0-8.557 7.005-15.565 15.578-15.565h50.535c20.826 0 37.867-17.026 37.867-37.834 0-20.781-16.998-37.79-37.789-37.834h-40.663c-18.012 0-32.75-14.725-32.75-32.72 0-32.833-26.886-59.697-59.748-59.697H247.478z" fill="url(#a)"/><rect x="286.531" y="90.241" width="320.648" height="122.967" rx="12.232" fill="#009688"/><circle cx="541.027" cy="170.404" r="17.9" fill="#fff"/><path fill-rule="evenodd" clip-rule="evenodd" d="M557.092 186.256a22.498 22.498 0 0 0 6.505-15.853 22.5 22.5 0 0 0-6.505-15.853 17.829 17.829 0 0 1 8.321-2.047c9.886 0 17.9 8.014 17.9 17.9s-8.014 17.9-17.9 17.9c-3.004 0-5.835-.739-8.321-2.047z" fill="#fff"/><rect x="312.993" y="118.259" width="166.55" height="28.018" rx="14.009" fill="#fff"/><rect x="312.993" y="158.729" width="115.184" height="28.018" rx="14.009" fill="#fff"/><rect x="286.531" y="404.019" width="320.648" height="122.967" rx="12.232" fill="#009688"/><circle cx="541.027" cy="484.181" r="17.9" fill="#fff"/><path fill-rule="evenodd" clip-rule="evenodd" d="M557.092 500.034a22.498 22.498 0 0 0 6.505-15.853 22.5 22.5 0 0 0-6.505-15.853 17.829 17.829 0 0 1 8.321-2.047c9.886 0 17.9 8.014 17.9 17.9s-8.014 17.9-17.9 17.9c-3.004 0-5.835-.74-8.321-2.047z" fill="#fff"/><rect x="312.993" y="432.036" width="166.55" height="28.018" rx="14.009" fill="#fff"/><rect x="312.993" y="472.506" width="115.184" height="28.018" rx="14.009" fill="#fff"/><rect x="370.744" y="247.13" width="320.648" height="122.967" rx="12.232" fill="#009688"/><circle cx="625.239" cy="327.293" r="17.9" fill="#fff"/><path fill-rule="evenodd" clip-rule="evenodd" d="M641.305 343.144a22.498 22.498 0 0 0 6.504-15.853 22.5 22.5 0 0 0-6.505-15.853 17.829 17.829 0 0 1 8.321-2.047c9.886 0 17.9 8.014 17.9 17.9s-8.014 17.9-17.9 17.9c-3.004 0-5.835-.74-8.32-2.047z" fill="#fff"/><rect x="397.206" y="275.147" width="166.55" height="28.018" rx="14.009" fill="#fff"/><rect x="397.206" y="315.618" width="115.184" height="28.018" rx="14.009" fill="#fff"/><path fill-rule="evenodd" clip-rule="evenodd" d="M318.87 270.926h-3.61c-.873 0-1.576-.71-1.576-1.575v-3.61c0-.873.711-1.576 1.576-1.576h3.61c.865 0 1.576.71 1.576 1.576v3.61a1.572 1.572 0 0 1-1.576 1.575zm-12.515 0h-3.61c-.865 0-1.576-.71-1.576-1.575v-3.61c0-.873.711-1.576 1.576-1.576h3.61c.865 0 1.576.71 1.576 1.576v3.61c0 .865-.711 1.575-1.576 1.575zm-12.524 0h-3.609c-.866 0-1.576-.71-1.576-1.575v-3.61c0-.873.71-1.576 1.576-1.576h3.609c.866 0 1.576.71 1.576 1.576v3.61a1.572 1.572 0 0 1-1.576 1.575zm-12.516 0h-3.61c-.865 0-1.575-.71-1.575-1.575v-3.61c0-.873.71-1.576 1.575-1.576h3.61c.873 0 1.583.71 1.583 1.576v3.61a1.592 1.592 0 0 1-1.583 1.575zm-12.516 0h-3.61c-.873 0-1.583-.71-1.583-1.575v-3.61c0-.873.71-1.576 1.583-1.576h3.61c.865 0 1.575.71 1.575 1.576v3.61c0 .865-.71 1.575-1.575 1.575zm37.096-13.648h-3.61c-.865 0-1.575-.71-1.575-1.575v-3.618c0-.865.71-1.575 1.575-1.575h3.61c.873 0 1.576.71 1.576 1.575v3.61a1.574 1.574 0 0 1-1.576 1.583zm-12.515 0h-3.61c-.866 0-1.576-.71-1.576-1.575v-3.618c0-.865.71-1.575 1.576-1.575h3.61c.865 0 1.575.71 1.575 1.575v3.61a1.573 1.573 0 0 1-1.575 1.583zm-12.516 0h-3.61c-.873 0-1.583-.71-1.583-1.575v-3.618c0-.865.71-1.575 1.583-1.575h3.61c.865 0 1.575.71 1.575 1.575v3.61c0 .873-.71 1.583-1.575 1.583zm12.967 28.308h-3.609c-.866 0-1.576-.71-1.576-1.575v-3.61c0-.873.71-1.576 1.576-1.576h3.609c.866 0 1.576.71 1.576 1.576v3.61a1.572 1.572 0 0 1-1.576 1.575zm-12.516 0h-3.61c-.865 0-1.575-.71-1.575-1.575v-3.61c0-.873.71-1.576 1.575-1.576h3.61c.873 0 1.583.71 1.583 1.576v3.61a1.592 1.592 0 0 1-1.583 1.575z" fill="#E1E4E5"/><circle cx="674.911" cy="181.627" r="31.654" fill="url(#b)"/><defs><linearGradient id="a" x1="461.983" y1="710.696" x2="455.095" y2="-227.751" gradientUnits="userSpaceOnUse"><stop stop-color="#fff"/><stop offset="1" stop-color="#EEE"/></linearGradient><linearGradient id="b" x1="676.261" y1="248.776" x2="674.309" y2="81.105" gradientUnits="userSpaceOnUse"><stop stop-color="#fff"/><stop offset="1" stop-color="#EEE"/></linearGradient></defs></svg>