<svg width="900" height="600" viewBox="0 0 900 600" fill="none" xmlns="http://www.w3.org/2000/svg"><path fill="transparent" d="M0 0h900v600H0z"/><path d="M683.219 511.298c-20.364.369-25.754 1.939-46.893 1.293-10.069.092-20.816-.185-30.66-.369-4.679-1.201-12.909 0-18.46-1.016l-2.13.646c-1.904-.369-4.131-.554-6.067-.185l.129.185c-2.84-.462-6.068-.185-7.455-.462l.129.185-3.454-.092.581.277c-4.97-.554-10.069-.554-14.587-.37l.387-.831c-9.65.924-13.168-.739-21.849.277l.129.185c-11.005-2.124-17.363 1.478-28.691-.554 1.42.277-.613.369-.484.646-5.228-.184-10.779-.369-10.876-1.939-3.808 0-3.098.462-3.583 1.108.033-.646-3.291-1.016-6.261-1.016l1.356.277-8.52-.277 1.678-1.292c-4.518.369-1.162 1.569-5.454 1.292l.064-1.108c-6.228.185-9.908 1.847-15.943 2.678-25.108.462-52.089-2.308-75.422-.369l-1.033.831c-.452 1.201-6.455-1.755-7.326-.646l-2.711-.554c-.775.184-2.388.461-1.033.738-2.517.093-2.582-.184-4.389-.461l-2.711.738c-9.908.554-18.331-.831-28.756-.554-12.522 1.478-36.114.093-49.701-.646-19.105-1.755-41.31 2.955-60.867.923-.646.185-2.291-.184-2.259-.369l-17.912.185s-86.783.461-20.849-9.42l-.451-.277c9.811-.646 15.975-.739 22.72.554 1.065-1.57 8.036-.185 10.328-.646l-.226-.093c5.97 1.201 12.296-1.015 18.073.093-.226-.093-.355-.554-1.678-.554 4.195.184 9.94.554 10.262-.37 10.037.277 24.012-.184 30.434 1.293l-.452-.277c3.647 1.016 4.745.185 8.843.647.226-.093.517-.185.452-.277 4.002 1.015 11.651.184 14.846.554l.193-.647 7.94.185-2.969.092c1.032 1.663 6.002-1.108 11.747 0 5.39-.184 7.875 1.322 13.458.491 2.679.831-1.25-.398 2.752.248.129-.923.088.739 1.121 0 3.905.462 6.422-.923 11.263-.277l.194-.646c6.293 1.292 11.876-.924 16.072.277 6.487.554 4.357-2.032 11.134-.739l2.647-.924c2.904-.184 2.065 1.108 5.293.647-.194-.554 4.066-.462 2.162-1.016 7.261-.924 14.749 1.293 24.334-.277 2.065 1.108 6.906.462 8.456 1.293.258-.462 9.649-.093 4.26-1.201-.452-.092-1.291-.092-1.227.093l-.645-.647c5.454-1.293 9.908.739 15.33.462-1.614.185-3.744.185-2.324.646l5.034-.092-1.032-.554 7.487-.369-1.033.738c3.647-.369 4.938-1.57 9.069-.554 1.872.554-3.453.924.388 1.201 4.905-.462 12.231-1.201 18.46-1.385-.581.831 1.097.738 2.84.923l.194-.646c6.616.923 2.42-1.478 9.004-.739l-.581-.462 1.743 1.478c5.938 1.385 3.195-1.386 9.779.461-2.615-.092-1.227 1.478 1.968 1.201l-.807-.647c1.775.185 2.356.462 3.55.277-1.065-.369-.548-.923 2.066-.831l-1.743-.831 4.938 1.201c3.808-.739 9.843.184 11.425-.739 0 0 8.197-.462 10.069.554-1.646-.646 2.872-.923 1.581-1.662 2.13.739 8.391 1.293 10.909.554l-.484-.092c9.294-.832 15.878 1.108 24.205.092-.388.831 4.034.369 2.937 1.385 8.617 1.016 15.717-2.124 18.847 1.108 3.938.185 4.648-.739 6.681-.923l-.936-.185c7.358.277 9.488.277 14.942.185 2.711.277 3.163 1.754 8.036 1.385-1.581-.554.42-.462 2.227-.462-1.162-.092-1.517-.277.872-.739.322.185.871.277 1.355.37.032 0 .129-.092.065-.185 3.033.185 2.517.369 1.097.462.065.092-.032.185-.484.369 3.163-.738 8.811.093 9.198-.923 9.165.277 15.717 1.293 23.333 1.662.872-.554-.935-1.016-3.13-1.2l5.422.184c-.032-.739-3.098-.461-4.777-.554 6.455-1.2 13.297 1.201 20.849.092l1.581.555.452-.093c-.032.277 1.678.739 2.776.831 1.065-.646-.065-1.477 3.679-1.477 2.969-.647 8.391.277 12.264.646-2.098.093-1.42.462-.517.739 1.872 0 2.937-.646 4.39-.369l.193-.832c-.742.832 4.873.924 5.583 1.201 1.066-.646-2.904-.554-3.356-1.016 7.487.093 3.744 0 11.263.093 4.002.646-.742.831 1.195 1.569 3.517.185 6.971.739 11.037.277l-1.291.739c6.648.647 10.618.554 15.072-.277 49.443 6.28 10.424 8.589 10.424 8.589-19.558 1.939-29.595-.277-52.767-.924z" fill="url(#a)"/><path d="M617.399 395.722s-15.745-18.623-.97-30.447c0 0 10.789-6.625 19.59-6.088 0 0-12.467 21.194-8.432 23.305 4.034 2.106 12.211-24.632 12.211-24.632s24.552-2.413 32.455 1.436c0 0-20.994 17.417-16.573 18.455 4.421 1.037 27.093-16.06 27.093-16.06s22.857 3.946 21.637 18.075c-1.22 14.135-9.093 18.496-12.556 18.122-3.463-.374-23.707-8.21-24.148-5.333-.44 2.878 11.747 12.271 20.28 12.711 0 0-16.114 18.015-26.819 12.814-10.712-5.2-11.622-13.441-18.299-16.53-6.677-3.089-12.371-3.083-9.616.067 2.755 3.155 14.835 6.213 18.655 13.061 3.815 6.847 7.242 11.462-3.838 9.773s-29.087-9.912-29.878-19.323l-.792-9.406z" fill="#009688"/><path d="M693.176 379.784s-62.526-2.402-76.337 15.419c0 0-3.051 9.117-12.45 17.415l-1.463 3.978s10.838-11.386 14.71-12.073c0 0-6.066-22.081 75.54-24.739z" fill="#009688"/><path d="M604.614 413.058s-13.083 10.026-13.995 27.934l2.372.218s4.178-18.52 11.734-25.761c7.555-7.24-.111-2.391-.111-2.391zm-40.604-40.204s31.629-10.822 22.258-35.102c0 0-8.247-15.368-19.09-20.921 0 0 .145 33.676-6.115 33.317-6.26-.359 2.543-37.535 2.543-37.535s-27.54-20.095-39.609-21.125c0 0 12.908 35.222 6.929 33.334-5.98-1.887-21.106-37.918-21.106-37.918s-29.92-11.424-38.268 6.041c-8.341 17.466-2.001 28.132 2.374 30.127 4.376 1.989 33.893 7.011 32.427 10.7-1.466 3.688-22.476 6.167-32.932.685 0 0 6.687 32.5 23.024 33.918 16.344 1.413 23.138-7.626 33.223-6.572 10.083 1.061 16.855 5.076 11.396 6.84-5.46 1.77-21.955-3.12-31.244 2.236-9.283 5.365-16.557 8.382-2.209 14.183 14.349 5.801 41.47 8.797 48.934-1.706l7.465-10.502z" fill="#009688"/><path d="M484.645 301.288s75.526 40.782 79.365 71.566c0 0-2.772 12.951 2.516 29.356l-1.055 5.747s-4.831-21.077-8.926-24.601c-.001.007 22.616-21.971-71.9-82.068z" fill="#009688"/><path d="M566.525 402.217s8.925 21.108-2.342 42.736l-3.033-1.438s7.728-24.683 3.578-38.573c-4.141-13.895 1.797-2.725 1.797-2.725zm36.032-63.359s-38.44-21.558-20.502-50.811c0 0 14.35-17.963 29.725-22.584 0 0-8.197 43.622 0 44.649 8.203 1.027 5.64-49.27 5.64-49.27s40.491-19.504 56.379-17.964c0 0-25.11 42.595-16.913 41.568 8.203-1.027 36.389-44.135 36.389-44.135s41.517-7.695 48.176 16.936c6.665 24.632-4.102 36.955-10.248 38.495-6.153 1.54-45.612 1.027-44.586 6.161 1.025 5.135 27.673 13.343 42.535 8.729 0 0-16.4 40.542-37.928 38.495-21.527-2.054-28.186-15.397-41.51-16.424-13.324-1.027-23.065 2.568-16.4 6.162 6.665 3.594 29.212 1.179 39.979 10.338 10.76 9.166 19.476 14.807-.513 18.914-19.989 4.108-55.866 1.541-63.037-13.856l-7.186-15.403z" fill="#009688"/><path d="M722.487 264.956s-107.624 34.901-119.923 73.902c0 0 .513 17.45-10.247 37.467v7.702s11.273-26.172 17.426-29.766c-.007-.007-24.098-33.88 112.744-89.305z" fill="#009688"/><path d="M592.31 376.325s-16.601 25.242-7.137 55.966l4.269-1.152s-4.144-33.839 4.538-50.859c8.688-17.02-1.67-3.955-1.67-3.955z" fill="#009688"/><path d="M676.453 424.507c-.534 40.633-33.588 73.401-74.287 73.401-40.693 0-73.747-32.768-74.281-73.401h148.568z" fill="#fff" stroke="#E1E4E5" stroke-width="2"/><path d="M678.499 502.744h-152.66c0-5.134 4.157-9.304 9.291-9.304h134.092c5.12 0 9.277 4.163 9.277 9.304z" fill="url(#b)"/><path d="M524.956 436.108v-11.333h152.861v11.333H524.956z" fill="#E1E4E5" stroke="#E1E4E5" stroke-width="2"/><path d="m285.859 271.688 8.533 29.824a3.84 3.84 0 0 1-2.632 4.749l-51.795 14.817a3.839 3.839 0 0 1-4.746-2.637l-8.528-29.811a3.833 3.833 0 0 1 2.628-4.745l51.795-14.821a3.841 3.841 0 0 1 4.745 2.624z" fill="#E1E4E5"/><path d="m262.396 296.455 31.208 6.986a3.031 3.031 0 0 1-2.07 2.042l-51.79 14.821a3.03 3.03 0 0 1-2.828-.633l25.48-23.216z" fill="#E1E4E5" stroke="#fff" stroke-width="1.609"/><path d="M227.464 288.408v-.001a3.03 3.03 0 0 1 2.076-3.749l51.796-14.821a3.035 3.035 0 0 1 3.613 1.698l-22.569 28.023-34.601-10.05-.315-1.1z" fill="#E1E4E5" stroke="#fff" stroke-width="1.609"/><path d="m236.632 202.975 8.533 29.823a3.84 3.84 0 0 1-2.632 4.749l-51.796 14.817a3.836 3.836 0 0 1-4.179-1.465 3.799 3.799 0 0 1-.566-1.171l-8.528-29.812a3.834 3.834 0 0 1 2.628-4.745l51.795-14.821a3.841 3.841 0 0 1 4.745 2.625z" fill="#E1E4E5"/><path d="m213.169 227.741 31.208 6.987a3.035 3.035 0 0 1-2.07 2.042l-51.79 14.82v.001a3.033 3.033 0 0 1-2.828-.633l25.48-23.217z" fill="#E1E4E5" stroke="#fff" stroke-width="1.609"/><path d="M178.237 219.695v-.001a3.03 3.03 0 0 1 2.076-3.749l51.796-14.821a3.035 3.035 0 0 1 3.613 1.698l-22.569 28.022-34.601-10.05-.315-1.099z" fill="#E1E4E5" stroke="#fff" stroke-width="1.609"/><path d="m348.714 107.285 13.886 48.534a6.25 6.25 0 0 1-4.284 7.729l-84.29 24.112a6.245 6.245 0 0 1-7.722-4.29l-13.879-48.514a6.239 6.239 0 0 1 4.277-7.722l84.29-24.119a6.252 6.252 0 0 1 7.722 4.27z" fill="#E1E4E5"/><path d="m361.317 158.96-50.787-11.37-41.466 37.781a4.932 4.932 0 0 0 4.603 1.03l84.281-24.118 3.369-3.323zm0 0a4.938 4.938 0 0 1-3.368 3.322l3.368-3.322z" fill="#E1E4E5" stroke="#fff" stroke-width="2.619"/><path d="m253.684 134.495-.001-.001a4.93 4.93 0 0 1 3.379-6.101l84.29-24.119a4.94 4.94 0 0 1 5.881 2.762l-36.729 45.604-56.308-16.356-.512-1.789z" fill="#E1E4E5" stroke="#fff" stroke-width="2.619"/><path d="m679.973 127.796 13.886 48.534a6.247 6.247 0 0 1-4.284 7.729l-84.29 24.112a6.245 6.245 0 0 1-7.722-4.29l-13.879-48.514a6.239 6.239 0 0 1 4.277-7.722l84.29-24.119a6.252 6.252 0 0 1 7.722 4.27z" fill="#E1E4E5"/><path d="m692.576 179.471-50.787-11.37-41.465 37.782a4.932 4.932 0 0 0 4.602 1.03l84.281-24.119 3.369-3.323zm0 0a4.939 4.939 0 0 1-3.368 3.323l3.368-3.323z" fill="#E1E4E5" stroke="#fff" stroke-width="2.619"/><path d="m584.943 155.006-.001-.001a4.93 4.93 0 0 1 3.379-6.101l84.29-24.119a4.94 4.94 0 0 1 5.881 2.763l-36.728 45.603-56.309-16.355-.512-1.79z" fill="#E1E4E5" stroke="#fff" stroke-width="2.619"/><path d="m483.255 107.169 10.373 36.255a4.667 4.667 0 0 1-3.2 5.773l-62.965 18.013a4.667 4.667 0 0 1-5.769-3.205l-10.368-36.241a4.66 4.66 0 0 1 3.195-5.768l62.966-18.017a4.67 4.67 0 0 1 5.768 3.19z" fill="#E1E4E5"/><path d="m492.67 145.77-37.939-8.493-30.975 28.223a3.687 3.687 0 0 0 3.438.77l65.476-20.5zm0 0a3.687 3.687 0 0 1-2.517 2.482l-62.959 18.017 65.476-20.499z" fill="#E1E4E5" stroke="#fff" stroke-width="1.956"/><path d="m412.267 127.495-.001-.001a3.683 3.683 0 0 1 2.524-4.558l62.966-18.017a3.692 3.692 0 0 1 4.393 2.064l-27.437 34.066-42.063-12.217-.382-1.337z" fill="#E1E4E5" stroke="#fff" stroke-width="1.956"/><path d="m536.585 178.959 10.373 36.255a4.665 4.665 0 0 1-3.201 5.773L480.792 239a4.665 4.665 0 0 1-5.768-3.205l-10.368-36.241a4.66 4.66 0 0 1 3.195-5.768l62.965-18.017a4.67 4.67 0 0 1 5.769 3.19z" fill="#E1E4E5"/><path d="m546 217.56-37.939-8.493-30.975 28.223a3.685 3.685 0 0 0 3.437.77L546 217.56zm0 0a3.687 3.687 0 0 1-2.517 2.482l-62.959 18.017L546 217.56z" fill="#E1E4E5" stroke="#fff" stroke-width="1.956"/><path d="M465.596 199.285v-.001a3.683 3.683 0 0 1 2.524-4.558l62.965-18.017a3.69 3.69 0 0 1 4.393 2.064l-27.436 34.066-42.063-12.217-.383-1.337z" fill="#E1E4E5" stroke="#fff" stroke-width="1.956"/><path d="M410.699 502.478H209.523L149 351.985h200.879l60.82 150.493z" fill="#009688"/><path d="M207.163 496.618h265.666v5.86H209.524l-2.361-5.86z" fill="#009688"/><path d="M253.867 426.852c-2.581-9.062 2.622-16.409 11.603-16.409 8.98 0 18.337 7.347 20.918 16.409 2.581 9.062-2.623 16.409-11.603 16.409s-18.337-7.347-20.918-16.409z" fill="#fff"/><path d="m397.863 277.808-23.49 6.484c-23.35 6.445-47.505-7.26-53.95-30.611s7.26-47.505 30.61-53.95c23.351-6.445 47.506 7.259 53.951 30.61l1.945 7.047c1.79 6.486-2.017 13.196-8.503 14.986-6.486 1.79-13.196-2.016-14.986-8.503l-1.945-7.046c-2.865-10.379-13.6-16.47-23.978-13.605v0c-10.378 2.864-16.469 13.6-13.605 23.978 2.865 10.378 13.6 16.469 23.978 13.605 10.378-2.865 16.469-13.6 13.605-23.978" stroke="#E1E4E5" stroke-width="11.13" stroke-linecap="round" stroke-linejoin="round"/><path d="M532.868 164.27c-7.617.74-14.565-6.584-14.565-6.584s5.406-8.519 13.025-9.252c7.617-.74 14.563 6.578 14.563 6.578s-5.406 8.518-13.023 9.258z" fill="url(#c)"/><path d="M381.084 127.35c-7.617.739-14.566-6.584-14.566-6.584s5.406-8.519 13.025-9.253c7.617-.74 14.564 6.578 14.564 6.578s-5.406 8.519-13.023 9.259z" fill="url(#d)"/><path d="M565.686 199.139c-7.617.74-14.565-6.584-14.565-6.584s5.406-8.518 13.024-9.252c7.617-.74 14.564 6.578 14.564 6.578s-5.406 8.519-13.023 9.258z" fill="url(#e)"/><path d="M654.911 120.17c-7.617.74-14.566-6.583-14.566-6.583s5.406-8.519 13.025-9.253c7.617-.74 14.564 6.578 14.564 6.578s-5.406 8.519-13.023 9.258z" fill="url(#f)"/><path d="M392.365 182.731c-7.617.739-14.566-6.584-14.566-6.584s5.406-8.519 13.025-9.253c7.617-.74 14.564 6.578 14.564 6.578s-5.406 8.519-13.023 9.259z" fill="url(#g)"/><path d="M439.541 200.165c-7.617.74-14.565-6.584-14.565-6.584s5.406-8.519 13.024-9.252c7.617-.74 14.564 6.578 14.564 6.578s-5.406 8.518-13.023 9.258z" fill="url(#h)"/><path d="M283.654 235.034c-7.617.74-14.565-6.584-14.565-6.584s5.406-8.518 13.025-9.252c7.617-.74 14.564 6.578 14.564 6.578s-5.407 8.519-13.024 9.258z" fill="url(#i)"/><path d="M167.765 328.361c-7.617.74-14.566-6.584-14.566-6.584s5.406-8.518 13.025-9.252c7.617-.74 14.564 6.578 14.564 6.578s-5.406 8.519-13.023 9.258z" fill="url(#j)"/><path d="M201.882 278.777c-3.862.375-7.386-3.338-7.386-3.338s2.741-4.32 6.605-4.692c3.862-.375 7.385 3.335 7.385 3.335s-2.742 4.32-6.604 4.695z" fill="url(#k)"/><path d="M339.035 325.285c-7.617.739-14.565-6.584-14.565-6.584s5.406-8.519 13.025-9.253c7.617-.739 14.563 6.578 14.563 6.578s-5.406 8.519-13.023 9.259z" fill="url(#l)"/><path d="M447.746 258.623c-7.617.739-14.566-6.584-14.566-6.584s5.406-8.519 13.025-9.253c7.617-.74 14.564 6.578 14.564 6.578s-5.406 8.519-13.023 9.259z" fill="url(#m)"/><path d="M548.252 254.52c-7.617.74-14.566-6.584-14.566-6.584s5.406-8.519 13.025-9.252c7.617-.74 14.564 6.578 14.564 6.578s-5.406 8.518-13.023 9.258z" fill="url(#n)"/><path d="M417.331 305.304c-6.498.631-12.427-5.617-12.427-5.617s4.613-7.268 11.113-7.894c6.498-.631 12.425 5.612 12.425 5.612s-4.612 7.268-11.111 7.899z" fill="url(#o)"/><defs><linearGradient id="a" x1="440.942" y1="521.41" x2="440.954" y2="481.677" gradientUnits="userSpaceOnUse"><stop stop-color="#fff"/><stop offset="1" stop-color="#EEE"/></linearGradient><linearGradient id="b" x1="605.424" y1="507.961" x2="605.407" y2="483.315" gradientUnits="userSpaceOnUse"><stop stop-color="#fff"/><stop offset="1" stop-color="#EEE"/></linearGradient><linearGradient id="c" x1="504.49" y1="164.819" x2="573.248" y2="143.131" gradientUnits="userSpaceOnUse"><stop stop-color="#fff"/><stop offset="1" stop-color="#EEE"/></linearGradient><linearGradient id="d" x1="352.705" y1="127.899" x2="421.464" y2="106.211" gradientUnits="userSpaceOnUse"><stop stop-color="#fff"/><stop offset="1" stop-color="#EEE"/></linearGradient><linearGradient id="e" x1="537.308" y1="199.688" x2="606.066" y2="178.001" gradientUnits="userSpaceOnUse"><stop stop-color="#fff"/><stop offset="1" stop-color="#EEE"/></linearGradient><linearGradient id="f" x1="626.533" y1="120.72" x2="695.291" y2="99.032" gradientUnits="userSpaceOnUse"><stop stop-color="#fff"/><stop offset="1" stop-color="#EEE"/></linearGradient><linearGradient id="g" x1="363.987" y1="183.28" x2="432.745" y2="161.592" gradientUnits="userSpaceOnUse"><stop stop-color="#fff"/><stop offset="1" stop-color="#EEE"/></linearGradient><linearGradient id="h" x1="411.163" y1="200.714" x2="479.921" y2="179.026" gradientUnits="userSpaceOnUse"><stop stop-color="#fff"/><stop offset="1" stop-color="#EEE"/></linearGradient><linearGradient id="i" x1="255.276" y1="235.583" x2="324.034" y2="213.896" gradientUnits="userSpaceOnUse"><stop stop-color="#fff"/><stop offset="1" stop-color="#EEE"/></linearGradient><linearGradient id="j" x1="139.387" y1="328.911" x2="208.145" y2="307.223" gradientUnits="userSpaceOnUse"><stop stop-color="#fff"/><stop offset="1" stop-color="#EEE"/></linearGradient><linearGradient id="k" x1="187.492" y1="279.056" x2="222.358" y2="268.058" gradientUnits="userSpaceOnUse"><stop stop-color="#fff"/><stop offset="1" stop-color="#EEE"/></linearGradient><linearGradient id="l" x1="310.657" y1="325.834" x2="379.415" y2="304.146" gradientUnits="userSpaceOnUse"><stop stop-color="#fff"/><stop offset="1" stop-color="#EEE"/></linearGradient><linearGradient id="m" x1="419.368" y1="259.172" x2="488.126" y2="237.484" gradientUnits="userSpaceOnUse"><stop stop-color="#fff"/><stop offset="1" stop-color="#EEE"/></linearGradient><linearGradient id="n" x1="519.873" y1="255.069" x2="588.632" y2="233.381" gradientUnits="userSpaceOnUse"><stop stop-color="#fff"/><stop offset="1" stop-color="#EEE"/></linearGradient><linearGradient id="o" x1="393.12" y1="305.772" x2="451.782" y2="287.269" gradientUnits="userSpaceOnUse"><stop stop-color="#fff"/><stop offset="1" stop-color="#EEE"/></linearGradient></defs></svg>