<svg width="900" height="600" viewBox="0 0 900 600" fill="none" xmlns="http://www.w3.org/2000/svg"><path fill="transparent" d="M0 0h900v600H0z"/><path d="M626.322 531.413H512.244l-9.463-25.457c-3.354-9.017-10.212-16.267-18.984-20.234-8.262-3.734-19.381-10.517-30.159-22.604-20.975-23.526-32.106-48.762-32.106-48.762l70.698-.347s-6.363-39.515 28.775-91.994a29.7 29.7 0 0 0 4.886-19.091l-3.331-38.275s-23.878-26.664-9.229-59.741c0 0 14.008-19.379 19.567-12.286 0 0 42.315 100.686 46.167 115.657 3.852 14.971 8.99 24.382 3.852 71.433-1.359 12.457-1.849 22.842-1.832 31.386a111.308 111.308 0 0 0 10.716 47.404l34.521 72.911z" fill="#F8AE9D"/><path d="M351.733 248.724a117.3 117.3 0 0 1-4.376-1.618l.426-1.078c1.395.549 2.852 1.086 4.331 1.602l-.381 1.094z" fill="#133835"/><path d="M357.593 140.145s-21.874-14.623-26.867-4.988c-4.994 9.633 28.417 43.72 28.417 43.72l-1.55-38.732zm.001 64.179s-21.874-14.621-26.868-4.988c-4.993 9.633 28.418 43.72 28.418 43.72l-1.55-38.732zm0 43.389s-21.874-14.621-26.868-4.988c-4.993 9.633 28.418 43.72 28.418 43.72l-1.55-38.732z" fill="#F8AE9D"/><path d="M374.438 107.384h132.649c9.878 0 17.888 8 17.888 17.873v270.882c0 9.952-8.094 17.874-17.888 17.874H374.438c-9.876 0-17.888-7.998-17.888-17.874V125.255c0-9.96 8.105-17.871 17.888-17.871z" fill="#133835"/><path d="M365.109 131.872h150.958v252.2H365.109v-252.2zm44.505-8.235h62.052a1.3 1.3 0 0 0 1.3-1.299v-.636a1.3 1.3 0 0 0-1.3-1.299h-62.052c-.717 0-1.3.583-1.3 1.299v.636c0 .716.583 1.299 1.3 1.299z" fill="#fff"/><path d="M527.981 287.747s-.911 3.384-2.973 5.053l-2.448-28.15s-17.566-19.615-13.322-46.066c1.454-9.056 5.962-17.389 12.854-23.444 3.936-3.457 8.259-5.767 10.805-2.514 0 0 19.9 47.348 33.647 81.933l-38.563 13.188z" fill="#F8AE9D"/><path d="M434.713 398.534a6.328 6.328 0 1 0 12.656 0 6.328 6.328 0 0 0-12.656 0z" fill="#fff"/><rect x="189.348" y="371.383" width="99.13" height="99.13" rx="17.861" fill="url(#a)"/><rect x="641.174" y="354.688" width="115.826" height="115.826" rx="20.87" fill="url(#b)"/><rect x="614.043" y="207.557" width="69.913" height="69.913" rx="20.87" fill="url(#c)"/><rect x="312.478" y="456.949" width="74.087" height="74.087" rx="22.116" fill="url(#d)"/><rect x="571.261" y="96.949" width="69.913" height="69.913" rx="20.87" fill="url(#e)"/><rect x="181" y="199.209" width="86.609" height="86.609" rx="20.87" fill="url(#f)"/><rect x="621.389" y="123.062" width="37.074" height="4.319" rx="2.16" transform="rotate(135 621.389 123.062)" fill="#E1E4E5"/><rect x="607.174" y="122.959" width="13.765" height="4.319" rx="2.16" transform="rotate(135 607.174 122.959)" fill="#E1E4E5"/><rect x="679.783" y="424.651" width="50.245" height="5.854" rx="2.927" transform="rotate(-45 679.783 424.651)" fill="#E1E4E5"/><rect x="699.047" y="424.79" width="18.656" height="5.854" rx="2.927" transform="rotate(-45 699.047 424.79)" fill="#E1E4E5"/><path clip-rule="evenodd" d="m705.394 319.778-21.422.522.522-21.423 21.423-.522-.523 21.423z" stroke="#E1E4E5" stroke-width="7.548" stroke-linecap="round" stroke-linejoin="round"/><circle cx="662.565" cy="176.775" transform="rotate(90 662.565 176.775)" fill="#E1E4E5" r="6.783"/><rect x="263.236" y="152.142" width="35.471" height="4.133" rx="2.066" transform="rotate(135 263.236 152.142)" fill="#E1E4E5"/><rect x="249.636" y="152.044" width="13.17" height="4.133" rx="2.066" transform="rotate(135 249.636 152.044)" fill="#E1E4E5"/><rect x="219.586" y="434.149" width="48.134" height="5.608" rx="2.804" transform="rotate(-45 219.586 434.149)" fill="#E1E4E5"/><rect x="238.041" y="434.281" width="17.872" height="5.608" rx="2.804" transform="rotate(-45 238.041 434.281)" fill="#E1E4E5"/><path d="M236.746 329.973c0 6.177-5.006 11.178-11.19 11.178-6.183 0-11.165-5.025-11.165-11.178 0-6.177 5.006-11.178 11.19-11.178 6.184 0 11.165 5.001 11.165 11.178z" stroke="#E1E4E5" stroke-width="5.612" stroke-miterlimit="10"/><path d="M249.669 220.067h.227c1.347 17.89 15.538 18.165 15.538 18.165s-15.649.286-15.649 20.957c0-20.671-15.648-20.957-15.648-20.957s14.185-.275 15.532-18.165z" fill="#E1E4E5"/><path d="M389.695 254.957h99.652M389.695 280h99.652m-81.912 25.043h64.695" stroke="#009688" stroke-width="11.487" stroke-linecap="round" stroke-linejoin="round"/><path fill-rule="evenodd" clip-rule="evenodd" d="M419.956 227.237v2.903c0 1.603 1.286 2.904 2.87 2.904h34.435c1.584 0 2.869-1.301 2.869-2.904v-2.95c0-8.786-9.923-14.494-20.087-14.494s-20.087 5.711-20.087 14.494m12.893-40.21c-3.973 3.973-3.973 10.415 0 14.388 3.973 3.973 10.415 3.973 14.388 0 3.974-3.973 3.974-10.415 0-14.388-3.973-3.973-10.415-3.973-14.388 0z" fill="#009688"/><defs><linearGradient id="a" x1="241.027" y1="526.092" x2="237.97" y2="263.546" gradientUnits="userSpaceOnUse"><stop stop-color="#fff"/><stop offset="1" stop-color="#EEE"/></linearGradient><linearGradient id="b" x1="701.557" y1="535.453" x2="697.985" y2="228.689" gradientUnits="userSpaceOnUse"><stop stop-color="#fff"/><stop offset="1" stop-color="#EEE"/></linearGradient><linearGradient id="c" x1="650.491" y1="316.667" x2="648.335" y2="131.504" gradientUnits="userSpaceOnUse"><stop stop-color="#fff"/><stop offset="1" stop-color="#EEE"/></linearGradient><linearGradient id="d" x1="351.101" y1="572.573" x2="348.817" y2="376.355" gradientUnits="userSpaceOnUse"><stop stop-color="#fff"/><stop offset="1" stop-color="#EEE"/></linearGradient><linearGradient id="e" x1="607.708" y1="206.059" x2="605.552" y2="20.895" gradientUnits="userSpaceOnUse"><stop stop-color="#fff"/><stop offset="1" stop-color="#EEE"/></linearGradient><linearGradient id="f" x1="226.151" y1="334.376" x2="223.48" y2="104.994" gradientUnits="userSpaceOnUse"><stop stop-color="#fff"/><stop offset="1" stop-color="#EEE"/></linearGradient></defs></svg>