<svg width="900" height="600" viewBox="0 0 900 600" fill="none" xmlns="http://www.w3.org/2000/svg"><path fill="transparent" d="M0 0h900v600H0z"/><path d="M650.005 351.914c2.778 51.175-97.273 155.233-220.593 116.718-57.355-17.915-52.497-47.649-96.109-86.837-25.996-23.356-63.347-41.017-73.735-74.967-8.974-29.304-3.471-60.802 12.088-81.289 34.99-46.074 105.63-77.624 175.232-5.03s195.94-.579 203.117 131.405z" fill="url(#a)"/><path d="M606.591 220.827c-9.169 16.363-29.248 18.611-61.418 15.501-24.193-2.343-46.256-4.155-70.451-17.347-16.935-9.227-30.34-21.71-40.125-33.835-10.602-13.134-25.401-28.125-18.146-43.017 9.97-20.458 67.624-37.688 123.609-9.511 61.499 30.961 75.5 72.216 66.531 88.209z" fill="url(#b)"/><path d="M332.909 483.021c-22.488-31.46-45.519-64.897-75.67-81.367-31.101-16.995-36.837-6.52-38.989 10.132-2.153 16.653 7.442 56.11 49.885 78.56 42.455 22.456 85.816 22.119 64.774-7.325z" fill="url(#c)"/><path d="M658.329 270.507c-15.915 3.77-32.747-9.727-32.747-9.727s8.982-19.602 24.902-23.36c15.915-3.77 32.742 9.715 32.742 9.715s-8.983 19.602-24.897 23.372z" fill="url(#d)"/><path d="M684.711 417.558c14.428 9.938 36.471 2.991 36.471 2.991s-1.365-23.057-15.803-32.986c-14.428-9.938-36.461-3.001-36.461-3.001s1.364 23.058 15.793 32.996z" fill="url(#e)"/><path d="M195.003 315.199c15.642 15.92 44.893 12.564 44.893 12.564s3.87-29.169-11.786-45.08c-15.642-15.92-44.878-12.573-44.878-12.573s-3.871 29.169 11.771 45.089z" fill="url(#f)"/><ellipse cx="673.84" cy="331.935" rx="11.625" ry="11.119" transform="rotate(180 673.84 331.935)" fill="#009688"/><ellipse cx="282.359" cy="426.754" rx="15.668" ry="15.162" transform="rotate(180 282.359 426.754)" fill="#009688"/><circle r="11.41" transform="matrix(-1 0 0 1 273.224 221.374)" fill="#009688"/><circle r="10.614" transform="matrix(-1 0 0 1 547.614 195.614)" fill="#009688"/><circle r="9.546" transform="matrix(-1 0 0 1 650.548 432.181)" fill="#E1E4E5"/><circle r="10.04" transform="matrix(-1 0 0 1 251.19 357.372)" fill="#E1E4E5"/><circle r="4.947" transform="matrix(-1 0 0 1 361.355 476.022)" fill="#E1E4E5"/><circle r="7.551" transform="matrix(-1 0 0 1 600.449 184.809)" fill="#E1E4E5"/><circle r="4.939" transform="scale(1 -1) rotate(-75 -55.123 -330.702)" fill="#E1E4E5"/><circle r="6.57" transform="matrix(-1 0 0 1 353.781 210.719)" fill="#E1E4E5"/><ellipse rx="5.054" ry="4.043" transform="matrix(-1 0 0 1 594.087 315.314)" fill="#E1E4E5"/><circle r="10.279" transform="scale(1 -1) rotate(-75 159.169 -410.607)" fill="#E1E4E5"/><path d="M711.547 274.149h.132c.783 11.094 9.033 11.265 9.033 11.265s-9.098.177-9.098 12.995c0-12.818-9.097-12.995-9.097-12.995s8.247-.171 9.03-11.265zM330.944 121.42h.228c1.348 19.414 15.557 19.713 15.557 19.713s-15.668.311-15.668 22.742c0-22.431-15.668-22.742-15.668-22.742s14.202-.299 15.551-19.713z" fill="#E1E4E5"/><path d="M515.62 423.095s23.222-5.348 25.588-7.652c2.371-2.291 13.821-13.78 22.411-17.204 8.579-3.421 15.123 1.376 17.366 6.922l-8.851 8.197s14.066-5.853 19.652-2.009 4.396 11.275 4.396 11.275-5.785 1.33-8.856 3.016c-3.07 1.685-36.681 34.196-96.173 29.207-59.492-4.989-62.772-13.803-63.283-14.486-.512-.684.019-12.28.019-12.28l87.731-4.986z" fill="#F8AE9D"/><path opacity=".1" d="M515.62 423.095s23.222-5.348 25.588-7.652c2.371-2.291 13.821-13.78 22.411-17.204 8.579-3.421 15.123 1.376 17.366 6.922l-8.851 8.197s14.066-5.853 19.652-2.009 4.396 11.275 4.396 11.275-5.785 1.33-8.856 3.016c-3.07 1.685-36.681 34.196-96.173 29.207-59.492-4.989-62.772-13.803-63.283-14.486-.512-.684.019-12.28.019-12.28l87.731-4.986z" fill="#000"/><path fill-rule="evenodd" clip-rule="evenodd" d="M369.02 384.666c-1.683.175-3.163.329-4.459.391-5.954.285-21.808 7.427-21.808 7.427l.07.225c-8.502 3.482-12.973 5.077-21.399 7.947-7.544 2.569-35.871 5.943-53.385 7.854-7.287.795-11.992 8.134-9.629 15.072l20.007 58.748c2.168 6.366 9.337 9.481 15.457 6.692 19.444-8.86 57.403-26.158 62.461-28.48 2.658-1.22 6.434-1.656 10.059-1.732 2.987.373 11.157 1.885 32.079 7.862 13.332 3.808 20.732 8.686 27.078 12.869 7.645 5.039 13.761 9.07 26.874 9.009 0 0 51.402-9.005 63.419-10.725 11.071-1.593 15.271-3.963 25.28-9.613.843-.476 1.728-.975 2.661-1.499 4.503-2.526 8.722-4.34 12.863-6.12 6.184-2.659 12.19-5.241 18.698-10.003 6.11-4.461 9.791-5.538 11.963-6.174 1.695-.496 2.471-.723 2.766-2.08.672-3.096-7.871-11.363-13.433-10.649-5.563.714-14.831 5.141-14.831 5.141s-33.584 12.865-39.201 13.777c-2.817.463-11.057.687-19.279.911-8.168.223-16.318.445-19.118.899-5.614.923-47.328-9.495-47.328-9.495 1.488-.214 2.721-.454 3.59-.716 3.43-1.028 10.281.271 17.961 1.727 5.858 1.11 12.199 2.312 17.871 2.643 8.428.498 14.597-.094 21.446-.75 3.807-.365 7.823-.75 12.554-.979 13.242-.643 20.215-6.638 18.806-15.13-1.41-8.492-6.812-12.016-13.187-13.33-6.376-1.314-23.695-4.265-42.164-3.721-14.417.433-21.567-4.344-28.897-9.242-2.058-1.375-4.13-2.759-6.382-4.041-10.27-5.846-27.342-11.376-42.726-14.109-12.035-2.138-20.689-1.236-26.737-.606z" fill="#F8AE9D"/><path d="M572.135 320.943c5.609 38.678-21.236 74.578-60.021 80.214-38.758 5.637-74.738-21.155-80.375-59.833-5.609-38.652 21.263-74.579 60.021-80.215 38.785-5.636 74.766 21.156 80.375 59.834z" fill="url(#g)"/><path d="M555.44 323.373c4.274 29.463-16.187 56.842-45.73 61.143-29.543 4.274-56.976-16.134-61.25-45.597-4.273-29.489 16.188-56.868 45.73-61.142 29.543-4.301 56.949 16.107 61.25 45.596z" fill="#fff"/><path d="m512.455 361.814 1.553 9.386-8.628 1.349-1.499-9.144c-8.628.837-17.229-.485-22.556-3.371l3.052-10.951c4.827 2.428 11.403 3.722 17.701 3.345l-2.303-13.999c-9.933-.782-21.142-2.212-23.112-14.187-1.47-8.874 3.913-17.532 17.286-21.173l-1.526-9.306 8.628-1.348 1.499 9.143c6.548-.512 13.123.189 18.339 2.374l-2.608 10.977c-4.8-1.753-9.516-2.481-13.9-2.319l2.358 14.241c9.933.674 20.948 2.158 22.89 13.972 1.415 8.739-3.884 17.316-17.174 21.011zm-14.705-35.711-1.97-11.895c-4.412 1.726-5.799 4.424-5.355 7.202.5 2.913 3.33 4.126 7.325 4.693zm18.145 17.909c-.472-2.94-3.246-4.126-7.158-4.828l1.914 11.571c4.162-1.591 5.688-4.072 5.244-6.743z" fill="#E1E4E5"/><path d="M398.638 273.986c4.11 28.336-15.557 54.637-43.971 58.766-28.395 4.129-54.755-15.499-58.884-43.835-4.109-28.316 15.577-54.637 43.972-58.766 28.414-4.129 54.774 15.499 58.883 43.835z" fill="url(#h)"/><path d="M386.407 275.767c3.131 21.585-11.859 41.643-33.502 44.794-21.643 3.131-41.741-11.82-44.872-33.405-3.131-21.604 11.859-41.662 33.502-44.793 21.644-3.151 41.722 11.8 44.872 33.404z" fill="#fff"/><path d="m354.916 303.929 1.138 6.876-6.321.988-1.098-6.698c-6.322.612-12.623-.356-16.525-2.47l2.236-8.023c3.536 1.778 8.354 2.727 12.968 2.45l-1.687-10.255c-7.277-.573-15.489-1.621-16.932-10.394-1.077-6.501 2.866-12.844 12.663-15.512l-1.118-6.817 6.322-.988 1.097 6.699c4.797-.376 9.615.138 13.436 1.739l-1.911 8.042c-3.516-1.285-6.972-1.818-10.183-1.7l1.728 10.434c7.276.494 15.346 1.581 16.769 10.236 1.037 6.402-2.846 12.686-12.582 15.393zm-10.773-26.163-1.443-8.714c-3.232 1.265-4.249 3.241-3.923 5.276.366 2.134 2.439 3.023 5.366 3.438zm13.293 13.121c-.345-2.154-2.378-3.023-5.244-3.537l1.403 8.477c3.049-1.166 4.167-2.984 3.841-4.94z" fill="#E1E4E5"/><path d="M501.72 193.021c4.665 32.17-17.663 62.029-49.922 66.717-32.236 4.688-62.162-17.596-66.85-49.766-4.666-32.148 17.684-62.029 49.921-66.717 32.259-4.688 62.185 17.596 66.851 49.766z" fill="url(#i)"/><path d="M487.833 195.042c3.555 24.505-13.463 47.278-38.035 50.854-24.572 3.555-47.389-13.419-50.943-37.924-3.555-24.527 13.463-47.299 38.035-50.854 24.572-3.577 47.366 13.397 50.943 37.924z" fill="#fff"/><path d="m452.082 227.015 1.292 7.807-7.177 1.121-1.246-7.605c-7.177.696-14.331-.403-18.761-2.804l2.538-9.108c4.015 2.019 9.485 3.096 14.723 2.782l-1.915-11.643c-8.262-.651-17.585-1.84-19.223-11.8-1.223-7.381 3.254-14.582 14.377-17.611l-1.27-7.739 7.177-1.122 1.246 7.605c5.446-.426 10.916.157 15.254 1.974l-2.169 9.131c-3.993-1.459-7.916-2.064-11.562-1.93l1.962 11.845c8.261.561 17.423 1.795 19.038 11.621 1.177 7.269-3.231 14.402-14.284 17.476zm-12.231-29.702-1.638-9.894c-3.67 1.436-4.823 3.68-4.454 5.99.415 2.423 2.769 3.433 6.092 3.904zm15.092 14.896c-.392-2.446-2.7-3.433-5.954-4.016l1.593 9.624c3.461-1.324 4.73-3.387 4.361-5.608z" fill="#E1E4E5"/><defs><linearGradient id="a" x1="530.423" y1="658.666" x2="343.272" y2="-185.696" gradientUnits="userSpaceOnUse"><stop stop-color="#fff"/><stop offset="1" stop-color="#EEE"/></linearGradient><linearGradient id="b" x1="544.826" y1="326.873" x2="463.106" y2="-40.343" gradientUnits="userSpaceOnUse"><stop stop-color="#fff"/><stop offset="1" stop-color="#EEE"/></linearGradient><linearGradient id="c" x1="307.799" y1="586.298" x2="234.018" y2="245.099" gradientUnits="userSpaceOnUse"><stop stop-color="#fff"/><stop offset="1" stop-color="#EEE"/></linearGradient><linearGradient id="d" x1="598.398" y1="279.881" x2="737.715" y2="214.063" gradientUnits="userSpaceOnUse"><stop stop-color="#fff"/><stop offset="1" stop-color="#EEE"/></linearGradient><linearGradient id="e" x1="740.916" y1="450.167" x2="627.339" y2="330.402" gradientUnits="userSpaceOnUse"><stop stop-color="#fff"/><stop offset="1" stop-color="#EEE"/></linearGradient><linearGradient id="f" x1="257.412" y1="369.58" x2="144.329" y2="192.313" gradientUnits="userSpaceOnUse"><stop stop-color="#fff"/><stop offset="1" stop-color="#EEE"/></linearGradient><linearGradient id="g" x1="504.963" y1="481.265" x2="500.608" y2="106.382" gradientUnits="userSpaceOnUse"><stop stop-color="#fff"/><stop offset="1" stop-color="#EEE"/></linearGradient><linearGradient id="h" x1="349.427" y1="391.439" x2="346.237" y2="116.797" gradientUnits="userSpaceOnUse"><stop stop-color="#fff"/><stop offset="1" stop-color="#EEE"/></linearGradient><linearGradient id="i" x1="445.85" y1="326.366" x2="442.228" y2="14.564" gradientUnits="userSpaceOnUse"><stop stop-color="#fff"/><stop offset="1" stop-color="#EEE"/></linearGradient></defs></svg>