<svg width="900" height="600" viewBox="0 0 900 600" fill="none" xmlns="http://www.w3.org/2000/svg"><path fill="transparent" d="M0 0h900v600H0z"/><path d="M595.217 171.902c-16.578-54.111-159.87-123.95-273.075-37.131-52.65 40.38-36.308 69.36-66.622 126.569-18.07 34.098-50.077 66.61-47.939 105.757 1.839 33.793 19.52 64.354 43.439 79.678 53.795 34.463 139.025 40.313 183.582-61.412 44.557-101.724 203.357-73.9 160.615-213.461z" fill="url(#a)"/><path d="M722.095 300.865c-22.715-23.307-57.379-18.058-109.899 1.601-39.497 14.792-75.66 27.738-110.288 60.714-24.239 23.069-41.101 50.012-52.055 74.726-11.871 26.776-29.942 58.546-11.095 80.248 25.897 29.811 130.265 32.796 211.443-39.57 89.169-79.51 94.108-154.943 71.894-177.719z" fill="url(#b)"/><path fill-rule="evenodd" clip-rule="evenodd" d="M646.557 170.996H489.963a24.177 24.177 0 0 1-20.013-10.627l-34-50.1a24.172 24.172 0 0 0-19.989-10.602H307.766c-26.741 0-48.399 21.714-48.399 48.523v291.14c0 26.81 21.658 48.524 48.399 48.524h338.791c26.741 0 48.399-21.714 48.399-48.524V219.519c0-26.785-21.658-48.523-48.399-48.523z" fill="#009688"/><path d="M476.978 384.196v-65.092" stroke="#fff" stroke-width="40.893" stroke-linecap="round" stroke-linejoin="round"/><path fill-rule="evenodd" clip-rule="evenodd" d="M476.86 270.561c-13.106 0-23.743 10.637-23.648 23.744 0 13.106 10.637 23.743 23.743 23.743 13.106 0 23.743-10.637 23.743-23.743 0-13.107-10.637-23.744-23.838-23.744z" fill="#fff"/><path d="M476.86 270.561c-13.106 0-23.743 10.637-23.648 23.744 0 13.106 10.637 23.743 23.743 23.743 13.106 0 23.743-10.637 23.743-23.743 0-13.107-10.637-23.744-23.838-23.744" stroke="#fff" stroke-width="40.893" stroke-linecap="round" stroke-linejoin="round"/><path fill-rule="evenodd" clip-rule="evenodd" d="M726.526 177.509v3.812h3.808a2.91 2.91 0 0 1 2.896 2.899 2.91 2.91 0 0 1-2.896 2.898h-3.808v3.812a2.91 2.91 0 0 1-2.896 2.898 2.91 2.91 0 0 1-2.896-2.898v-3.796h-3.825a2.91 2.91 0 0 1-2.896-2.899 2.91 2.91 0 0 1 2.896-2.898h3.809v-3.828a2.913 2.913 0 0 1 2.912-2.898 2.91 2.91 0 0 1 2.896 2.898zm-27.434-39.888v5.337h5.586c2.331 0 4.247 1.83 4.247 4.058 0 2.227-1.916 4.057-4.247 4.057h-5.586v5.337c0 2.227-1.916 4.058-4.248 4.058-2.331 0-4.247-1.831-4.247-4.058v-5.315h-5.609c-2.332 0-4.248-1.83-4.248-4.057 0-2.228 1.916-4.058 4.248-4.058h5.586v-5.359c0-2.227 1.916-4.057 4.27-4.057 2.332 0 4.248 1.83 4.248 4.057zm-49.919-22.523v8.132h8.126c3.391 0 6.178 2.789 6.178 6.183 0 3.394-2.787 6.183-6.178 6.183h-8.126v8.133c0 3.394-2.787 6.183-6.178 6.183s-6.178-2.789-6.178-6.183v-8.099h-8.159c-3.391 0-6.178-2.789-6.178-6.183 0-3.394 2.787-6.183 6.178-6.183h8.125v-8.166c0-3.394 2.787-6.183 6.212-6.183 3.391 0 6.178 2.789 6.178 6.183z" fill="#E1E4E5"/><path d="M731.157 235.519h-16.806M739 219.273h-24.649m14.566 32.492h-14.566" stroke="#E1E4E5" stroke-width="5.028" stroke-linecap="round" stroke-linejoin="round"/><circle r="7.687" transform="matrix(1 0 0 -1 222.214 248.279)" fill="#E1E4E5"/><path d="M168.828 175.407c9.092 31.463 49.198 47.529 49.198 47.529s25.34-34.96 16.222-66.422c-9.092-31.463-49.172-47.532-49.172-47.532s-25.341 34.961-16.248 66.425z" fill="url(#c)"/><rect width="37.587" height="4.379" rx="2.19" transform="scale(-1 1) rotate(-55.644 -40.936 453.28)" fill="#fff"/><rect width="37.587" height="4.379" rx="2.19" transform="scale(-1 1) rotate(-55.644 -28.523 429.757)" fill="#fff"/><rect width="37.587" height="4.379" rx="2.19" transform="scale(-1 1) rotate(-55.644 -16.11 406.235)" fill="#fff"/><path fill-rule="evenodd" clip-rule="evenodd" d="M584.115 419.845h4.846c1.172 0 2.115.953 2.115 2.115v4.846a2.117 2.117 0 0 1-2.115 2.115h-4.846a2.124 2.124 0 0 1-2.115-2.115v-4.846a2.11 2.11 0 0 1 2.115-2.115zm16.799 0h4.846c1.162 0 2.115.953 2.115 2.115v4.846a2.117 2.117 0 0 1-2.115 2.115h-4.846a2.123 2.123 0 0 1-2.115-2.115v-4.846c0-1.162.953-2.115 2.115-2.115zm16.812 0h4.845c1.162 0 2.116.953 2.116 2.115v4.846a2.118 2.118 0 0 1-2.116 2.115h-4.845a2.123 2.123 0 0 1-2.115-2.115v-4.846a2.11 2.11 0 0 1 2.115-2.115zm16.801 0h4.846c1.162 0 2.115.953 2.115 2.115v4.846a2.117 2.117 0 0 1-2.115 2.115h-4.846a2.126 2.126 0 0 1-2.125-2.115v-4.846a2.139 2.139 0 0 1 2.125-2.115zm16.802 0h4.846c1.172 0 2.125.953 2.125 2.115v4.846a2.12 2.12 0 0 1-2.125 2.115h-4.846a2.123 2.123 0 0 1-2.115-2.115v-4.846c0-1.162.953-2.115 2.115-2.115zm-49.797 18.32h4.846c1.162 0 2.115.953 2.115 2.115v4.856a2.123 2.123 0 0 1-2.115 2.115h-4.846a2.117 2.117 0 0 1-2.115-2.115v-4.846a2.113 2.113 0 0 1 2.115-2.125zm16.8 0h4.845c1.162 0 2.115.953 2.115 2.115v4.856a2.123 2.123 0 0 1-2.115 2.115h-4.845a2.123 2.123 0 0 1-2.115-2.115v-4.846a2.112 2.112 0 0 1 2.115-2.125zm16.801 0h4.846c1.172 0 2.125.953 2.125 2.115v4.856a2.125 2.125 0 0 1-2.125 2.115h-4.846a2.123 2.123 0 0 1-2.115-2.115v-4.846c0-1.172.953-2.125 2.115-2.125zm-17.407-38.001h4.845c1.162 0 2.116.953 2.116 2.115v4.845a2.118 2.118 0 0 1-2.116 2.116h-4.845a2.124 2.124 0 0 1-2.115-2.116v-4.845a2.11 2.11 0 0 1 2.115-2.115zm16.801 0h4.846c1.162 0 2.115.953 2.115 2.115v4.845a2.116 2.116 0 0 1-2.115 2.115h-4.846a2.126 2.126 0 0 1-2.125-2.115v-4.845a2.139 2.139 0 0 1 2.125-2.115z" fill="#fff"/><path d="M210.092 373.327h-.228c-1.35 17.931-15.574 18.207-15.574 18.207s15.685.287 15.685 21.006c0-20.719 15.686-21.006 15.686-21.006s-14.219-.276-15.569-18.207z" fill="#E1E4E5"/><defs><linearGradient id="a" x1="354.609" y1="-100.649" x2="481.628" y2="845.886" gradientUnits="userSpaceOnUse"><stop stop-color="#fff"/><stop offset="1" stop-color="#EEE"/></linearGradient><linearGradient id="b" x1="570.951" y1="150.866" x2="598.899" y2="803.028" gradientUnits="userSpaceOnUse"><stop stop-color="#fff"/><stop offset="1" stop-color="#EEE"/></linearGradient><linearGradient id="c" x1="211.478" y1="289.142" x2="189.106" y2="-18.593" gradientUnits="userSpaceOnUse"><stop stop-color="#fff"/><stop offset="1" stop-color="#EEE"/></linearGradient></defs></svg>