<svg width="900" height="600" viewBox="0 0 900 600" fill="none" xmlns="http://www.w3.org/2000/svg"><path fill="transparent" d="M0 0h900v600H0z"/><ellipse cx="460.593" cy="286.687" rx="154.265" ry="153.671" fill="url(#a)"/><path d="M630.751 404.557c0 6.135-4.739 10.978-10.427 10.978-5.689 0-10.428-4.843-10.428-10.978s4.739-10.978 10.428-10.978c5.688 0 10.427 4.843 10.427 10.978z" stroke="#E1E4E5" stroke-width="3.38"/><circle cx="281.586" cy="196.357" r="9.077" stroke="#E1E4E5" stroke-width="2.777"/><ellipse cx="465.551" cy="466.797" rx="10.465" ry="11.016" fill="#E1E4E5"/><circle cx="465" cy="134.117" r="12.117" fill="#E1E4E5"/><path d="M321.707 416.042a1.026 1.026 0 0 1-.65.894l-9.4 3.675a1.025 1.025 0 0 1-1.396-1.015l.595-10.075c.024-.399.278-.749.65-.894l9.398-3.672a1.024 1.024 0 0 1 1.396 1.014l-.593 10.073z" stroke="#E1E4E5" stroke-width="3.305" stroke-miterlimit="10"/><path d="M320.264 272.502v102.474c0 8.798-6.1 15.931-13.623 15.931H166.993c-2.622 0-5.194.889-7.411 2.555l-20.548 15.571c-9.061 6.868-21.034-.738-21.034-13.377V272.483c0-8.798 6.1-15.931 13.623-15.931h175.001c7.54.019 13.64 7.152 13.64 15.95z" fill="#009688"/><path d="M161.065 330.673h116.352a6.614 6.614 0 0 0 6.608-6.608 6.614 6.614 0 0 0-6.608-6.607H161.065a6.613 6.613 0 0 0-6.607 6.607 6.614 6.614 0 0 0 6.607 6.608zm.391-28.391h52.458a6.615 6.615 0 0 0 6.609-6.608 6.615 6.615 0 0 0-6.609-6.608h-52.458a6.615 6.615 0 0 0-6.608 6.608 6.615 6.615 0 0 0 6.608 6.608zm115.961 44.441H161.065a6.614 6.614 0 0 0-6.607 6.608 6.614 6.614 0 0 0 6.607 6.608h116.352a6.615 6.615 0 0 0 6.608-6.608 6.615 6.615 0 0 0-6.608-6.608z" fill="#fff"/><path fill-rule="evenodd" clip-rule="evenodd" d="M490.292 391.079h64.141c14.175 0 25.656-11.481 25.656-25.656V211.485c0-14.175-11.481-25.656-25.656-25.656H374.839c-14.175 0-25.656 11.481-25.656 25.656v153.938c0 14.175 11.481 25.656 25.656 25.656h64.141l25.656 25.657 25.656-25.657z" fill="#009688"/><path d="M466.905 286.184a3.204 3.204 0 0 1 0 4.541 3.205 3.205 0 0 1-4.541 0 3.205 3.205 0 0 1 0-4.541 3.227 3.227 0 0 1 4.541 0m51.315 0a3.205 3.205 0 0 1 0 4.541 3.205 3.205 0 0 1-4.541 0 3.204 3.204 0 0 1 0-4.541 3.227 3.227 0 0 1 4.541 0m-102.627 0a3.205 3.205 0 0 1 0 4.541 3.205 3.205 0 0 1-4.541 0 3.205 3.205 0 0 1 0-4.541 3.227 3.227 0 0 1 4.541 0" stroke="#fff" stroke-width="18.24" stroke-linecap="round" stroke-linejoin="round"/><path fill-rule="evenodd" clip-rule="evenodd" d="M609.308 361.443v-101.34c0-5.084 4.125-9.209 9.208-9.209h147.337c5.083 0 9.209 4.125 9.209 9.209v138.128l-54.414-27.073-102.178-.507c-5.065-.027-9.162-4.143-9.162-9.208z" fill="#009688"/><path d="M693.813 309.122a2.303 2.303 0 1 1-3.257 3.256 2.303 2.303 0 0 1 3.257-3.256m-41.438 0a2.303 2.303 0 1 1-3.257 3.256 2.303 2.303 0 0 1 3.257-3.256m82.877 0a2.303 2.303 0 1 1-3.257 3.256 2.303 2.303 0 0 1 3.257-3.256" stroke="#fff" stroke-width="13.093" stroke-linecap="round" stroke-linejoin="round"/><path d="M271.121 243.175c-2.395-9.667-25.021-23.785-37.112-15.274-3.712-18.416-7.183-29.901-19.309-38.973-12.126-9.073-32.358 2.786-35.607 27.624-3.25-10.21-19.771-23.972-33.042-12.368-12.28 10.737-13.511 28.729-12.228 38.974h137.298v.017z" fill="url(#b)"/><path d="M781.34 231.057c-2.893-11.712-30.225-28.816-44.832-18.504-4.483-22.312-8.677-36.227-23.325-47.218-14.647-10.991-39.088 3.376-43.013 33.468-3.925-12.37-23.883-29.043-39.915-14.984-14.833 13.008-16.321 34.806-14.771 47.218H781.34v.02z" fill="url(#c)"/><defs><linearGradient id="a" x1="467.171" y1="612.673" x2="457.731" y2="-201.322" gradientUnits="userSpaceOnUse"><stop stop-color="#fff"/><stop offset="1" stop-color="#EEE"/></linearGradient><linearGradient id="b" x1="205.208" y1="275.291" x2="204.473" y2="123.561" gradientUnits="userSpaceOnUse"><stop stop-color="#fff"/><stop offset="1" stop-color="#EEE"/></linearGradient><linearGradient id="c" x1="701.717" y1="269.967" x2="700.824" y2="86.141" gradientUnits="userSpaceOnUse"><stop stop-color="#fff"/><stop offset="1" stop-color="#EEE"/></linearGradient></defs></svg>