<svg width="900" height="600" viewBox="0 0 900 600" fill="none" xmlns="http://www.w3.org/2000/svg"><path fill="transparent" d="M0 0h900v600H0z"/><path d="M450.5 524c125.092 0 226.5-6.044 226.5-13.5S575.592 497 450.5 497 224 503.044 224 510.5 325.408 524 450.5 524z" fill="url(#a)"/><path d="M458.122 501h-15.244c-.485 0-.878-4.416-.878-9.861V383.861c0-5.445.393-9.861.878-9.861h15.244c.485 0 .878 4.416.878 9.861v107.278c0 5.445-.393 9.861-.878 9.861z" fill="#fff" stroke="#E1E4E5" stroke-width="4"/><path d="m346.691 501.722-5.775-5.775c-.184-.184 3.356-4.022 7.905-8.571l89.621-89.621c4.549-4.549 8.387-8.089 8.571-7.905l5.775 5.775c.184.183-3.356 4.021-7.905 8.57l-89.622 89.622c-4.549 4.549-8.386 8.088-8.57 7.905z" fill="#fff" stroke="#E1E4E5" stroke-width="4"/><path d="m556.787 502.823 5.775-5.775c.184-.184-3.394-4.06-7.991-8.656L464.02 397.84c-4.596-4.596-8.472-8.174-8.656-7.99l-5.775 5.775c-.184.183 3.395 4.06 7.991 8.656l90.551 90.551c4.596 4.596 8.472 8.175 8.656 7.991z" fill="#fff" stroke="#E1E4E5" stroke-width="4"/><path d="M653.605 427h-406.21C235.573 427 226 417.456 226 405.707V152.293c0-11.749 9.573-21.293 21.395-21.293h406.21c11.822 0 21.395 9.544 21.395 21.293v253.414c0 11.749-9.573 21.293-21.395 21.293z" fill="#fff" stroke="#E1E4E5" stroke-width="4"/><path d="m283.355 315.175-12.141 12.129-5.899-5.881m44.346-12.053h35.884m76.486 0h35.884m74.888-.329h63.298m-63.298 41.193h63.298m-286.16-23.061h59.341m53.029 0h59.341m51.129-.173h92.684m-92.684 41.193h92.684m-342.11-11.479-12.141 12.129-5.899-5.88m44.346-12.053h35.884m76.486 0h35.884m-147.974 17.803h59.341m53.029 0h59.341" stroke="#E1E4E5" stroke-width="5.5" stroke-linecap="round" stroke-linejoin="round"/><path d="M500.267 509h-99.534c-1.465 0-2.723-.155-3.555-.369a6.713 6.713 0 0 1-.178-.049v-14.164c.054-.016.114-.032.178-.049.832-.214 2.09-.369 3.555-.369h99.534c1.465 0 2.723.155 3.555.369.064.017.124.033.178.049v14.164a6.713 6.713 0 0 1-.178.049c-.832.214-2.09.369-3.555.369zm-103.777-.61c-.041-.024-.032-.024.004.003l-.004-.003zm0-13.78.004-.003c-.036.027-.045.027-.004.003zm108.02 0c.041.024.032.024-.004-.003l.004.003zm0 13.78-.004.003c.036-.027.045-.027.004-.003zM365 494v15h-34v-15h34zm205 0v15h-34v-15h34zM226 131h449v17H226z" fill="#fff" stroke="#E1E4E5" stroke-width="4"/><rect x="410" y="123" width="79" height="15" rx="7.5" fill="#fff" stroke="#E1E4E5" stroke-width="4"/><path fill-rule="evenodd" clip-rule="evenodd" d="M260.907 204.812v66.572c0 3.613 2.894 6.539 6.467 6.539h93.494-54.307l17.106-24.383c.816-1.163 2.855-1.163 3.671 0l5.989 8.538.046.067.041-.059 12.844-18.649c.888-1.291 3.114-1.291 4.002 0l17.011 24.702v3.262-66.589c0-3.614-2.901-6.54-6.466-6.54h-93.431c-3.573 0-6.467 2.926-6.467 6.54z" fill="#009688"/><path d="M290.903 249.062c-9.249 0-16.746-7.498-16.746-16.746 0-9.249 7.497-16.746 16.746-16.746 9.248 0 16.745 7.497 16.745 16.746 0 9.248-7.497 16.746-16.745 16.746z" fill="#fff"/><path fill-rule="evenodd" clip-rule="evenodd" d="M393.609 204.812v66.572c0 3.613 2.893 6.539 6.466 6.539h93.495-54.308l17.107-24.383c.815-1.163 2.855-1.163 3.67 0l5.989 8.538.047.067.04-.059 12.845-18.649c.888-1.291 3.113-1.291 4.002 0l17.01 24.702v3.257-66.584c0-3.614-2.901-6.54-6.466-6.54h-93.431c-3.573 0-6.466 2.926-6.466 6.54z" fill="#009688"/><path d="M423.604 249.062c-9.249 0-16.746-7.498-16.746-16.746 0-9.249 7.497-16.746 16.746-16.746 9.248 0 16.746 7.497 16.746 16.746 0 9.248-7.498 16.746-16.746 16.746z" fill="#fff"/><path fill-rule="evenodd" clip-rule="evenodd" d="M526.31 204.812v66.572c0 3.613 2.893 6.539 6.466 6.539h93.495-54.307l17.106-24.383c.816-1.163 2.855-1.163 3.671 0l5.988 8.538.047.067.04-.059 12.845-18.649c.888-1.291 3.114-1.291 4.002 0l17.011 24.702v3.26-66.587c0-3.614-2.901-6.54-6.467-6.54h-93.431c-3.573 0-6.466 2.926-6.466 6.54z" fill="#009688"/><path d="M556.305 249.062c-9.248 0-16.746-7.498-16.746-16.746 0-9.249 7.498-16.746 16.746-16.746 9.249 0 16.746 7.497 16.746 16.746 0 9.248-7.497 16.746-16.746 16.746z" fill="#fff"/><path d="M190.067 263.188c-8.35 7.675-23.109 5.216-23.109 5.216s-1.21-14.904 7.147-22.574c8.35-7.676 23.101-5.221 23.101-5.221s1.211 14.903-7.139 22.579z" fill="url(#b)"/><circle r="7" transform="matrix(1 0 0 -1 186 329)" fill="#E1E4E5"/><ellipse rx="8" ry="8.5" transform="matrix(1 0 0 -1 193 167.5)" fill="url(#c)"/><circle cx="677" cy="367" r="10" fill="#E1E4E5"/><circle cx="692.284" cy="194.033" r="3.265" transform="rotate(105 692.284 194.033)" fill="#E1E4E5"/><circle cx="708" cy="251" r="5" fill="#E1E4E5"/><path d="M648.578 176h-.152C647.522 188.346 638 188.536 638 188.536s10.5.198 10.5 14.464c0-14.266 10.5-14.464 10.5-14.464s-9.518-.19-10.422-12.536z" fill="#E1E4E5"/><defs><linearGradient id="a" x1="460.159" y1="539.138" x2="460.109" y2="467.619" gradientUnits="userSpaceOnUse"><stop stop-color="#fff"/><stop offset="1" stop-color="#EEE"/></linearGradient><linearGradient id="b" x1="156.988" y1="289.174" x2="218.96" y2="202.131" gradientUnits="userSpaceOnUse"><stop stop-color="#fff"/><stop offset="1" stop-color="#EEE"/></linearGradient><linearGradient id="c" x1="8.341" y1="26.531" x2="7.784" y2="-18.492" gradientUnits="userSpaceOnUse"><stop stop-color="#fff"/><stop offset="1" stop-color="#EEE"/></linearGradient></defs></svg>