<svg width="900" height="600" viewBox="0 0 900 600" fill="none" xmlns="http://www.w3.org/2000/svg"><path fill="transparent" d="M0 0h900v600H0z"/><path d="M449.5 517.609c140.004 0 253.5-6.764 253.5-15.109 0-8.345-113.496-15.109-253.5-15.109-140.004 0-253.5 6.764-253.5 15.109 0 8.345 113.496 15.109 253.5 15.109z" fill="url(#a)"/><path fill-rule="evenodd" clip-rule="evenodd" d="M388.037 187c-26.131 0-47.507 21.272-47.507 47.275s21.376 47.275 47.507 47.275c5.242 0 9.535 4.272 9.535 9.489 0 5.216-4.293 9.489-9.535 9.489h-24.859c-12.747 0-23.178 10.38-23.178 23.065s10.431 23.065 23.178 23.065c11.025 0 20.046 8.977 20.046 19.948 0 20.017 16.457 36.394 36.572 36.394h214.689c26.13 0 47.506-21.272 47.506-47.275s-21.376-47.275-47.506-47.275h-4.596c-5.242 0-9.535-4.267-9.535-9.489 0-5.216 4.288-9.489 9.535-9.489h30.933c12.747 0 23.178-10.38 23.178-23.065 0-12.669-10.405-23.039-23.131-23.065h-24.89c-11.024 0-20.045-8.977-20.045-19.948 0-20.017-16.458-36.394-36.573-36.394H388.037z" fill="url(#b)"/><path fill-rule="evenodd" clip-rule="evenodd" d="M290.982 101c-20.661 0-37.563 16.84-37.563 37.426 0 20.586 16.902 37.426 37.563 37.426 4.145 0 7.54 3.382 7.54 7.512 0 4.13-3.395 7.512-7.54 7.512h-19.655c-10.079 0-18.327 8.218-18.327 18.26 0 10.042 8.248 18.26 18.327 18.26 8.717 0 15.85 7.107 15.85 15.792 0 15.847 13.013 28.812 28.918 28.812h169.753c20.662 0 37.564-16.84 37.564-37.426 0-20.586-16.902-37.426-37.564-37.426h-3.633c-4.145 0-7.54-3.378-7.54-7.512 0-4.13 3.391-7.512 7.54-7.512h24.458c10.079 0 18.327-8.218 18.327-18.26 0-10.03-8.227-18.239-18.289-18.26H487.03c-8.717 0-15.85-7.107-15.85-15.792 0-15.847-13.013-28.812-28.917-28.812H290.982z" fill="url(#c)"/><path d="M550.84 84.454a24.131 24.131 0 0 0-1.545-.497c-.172-.05-.343-.102-.515-.146a46.858 46.858 0 0 0-1.113-.267c-.178-.04-.356-.073-.537-.107a31.839 31.839 0 0 0-1.123-.188 27.27 27.27 0 0 0-.66-.084c-.16-.019-.32-.037-.482-.053a23.832 23.832 0 0 0-.759-.057c-.134-.008-.267-.021-.401-.026-.39-.019-.783-.029-1.178-.029H361.422a23.732 23.732 0 0 0-3.718.282 25.75 25.75 0 0 0-1.202.215c-10.335 2.116-18.29 10.78-19.374 21.478a24.66 24.66 0 0 0-.126 2.503v371.044c0 10.595 6.714 19.615 16.111 23.024.042.016.084.029.126.042.466.165.94.316 1.417.452.173.05.343.103.518.147.184.047.367.092.55.136.186.044.375.089.563.131.178.039.356.073.537.107a30.685 30.685 0 0 0 1.121.188c.217.032.437.058.659.084.16.018.32.037.482.052.252.024.506.042.76.058.133.008.267.021.4.026.39.018.783.029 1.179.029h181.107c.843 0 1.676-.042 2.498-.126 11.492-1.169 20.631-10.33 21.799-21.851.084-.824.125-1.659.125-2.504V107.478c-.005-10.595-6.719-19.615-16.114-23.023z" fill="#fff" stroke="#E1E4E5" stroke-width="4"/><path d="M451.976 483.058c7.775 0 14.078-6.303 14.078-14.078 0-7.775-6.303-14.079-14.078-14.079-7.776 0-14.079 6.304-14.079 14.079s6.303 14.078 14.079 14.078z" fill="#fff" stroke="#E1E4E5" stroke-width="4"/><rect x="429.685" y="102.942" width="45.755" height="2.346" rx="1.173" fill="#fff" stroke="#E1E4E5" stroke-width="2.346"/><rect x="354.6" y="120.54" width="195.924" height="310.898" rx="20" fill="#fff" stroke="#E1E4E5" stroke-width="4"/><rect x="376" y="245" width="240.271" height="139" rx="16.926" fill="#009688"/><path d="M581.377 283.722H530.68m50.697 26.203H530.68m-23.925-26.203H404.221m102.534 26.203H404.221m102.534 23.355H404.221" stroke="#fff" stroke-width="11.609" stroke-miterlimit="10" stroke-linecap="round" stroke-linejoin="round"/><path fill-rule="evenodd" clip-rule="evenodd" d="M554.715 360.501a16.33 16.33 0 0 1-4.965-11.748c0-4.767 2.036-9.059 5.287-12.053a14.75 14.75 0 0 0-8.977-3.029c-8.18 0-14.81 6.631-14.81 14.81 0 8.18 6.63 14.811 14.81 14.811 3.231 0 6.22-1.035 8.655-2.791z" fill="#fff"/><circle cx="567.621" cy="348.257" r="14.893" fill="#fff"/><path d="m254.755 301-11.949 11.938L237 307.15m38-9.15h23m-23 17.5h39m-59.245 26.384-11.949 11.938-5.806-5.788M275 339h23m-23 17h39m-59.245 24.753-11.949 11.939-5.806-5.788M275 378h23m-23 17h39m-59.245 26.637-11.949 11.938-5.806-5.788m38-9.287h23M275 436h39" stroke="#E1E4E5" stroke-width="5.5" stroke-linecap="round" stroke-linejoin="round"/><rect x="249" y="147.523" width="206.404" height="79.155" rx="20" fill="#fff" stroke="#E1E4E5" stroke-width="4"/><rect x="318.219" y="172.16" width="116.147" height="9.386" rx="4.693" fill="#E1E4E5"/><rect x="318.219" y="192.104" width="75.085" height="9.386" rx="4.693" fill="#E1E4E5"/><path fill-rule="evenodd" clip-rule="evenodd" d="M281.712 207.054c-10.941 0-19.812-8.996-19.812-20.09 0-11.095 8.871-20.09 19.812-20.09 10.94 0 19.811 8.995 19.811 20.09 0 11.094-8.871 20.09-19.811 20.09z" fill="#009688"/><path d="m288.687 183.616-8.369 8.929-5.024-5.357" stroke="#fff" stroke-width="3.568" stroke-linecap="round" stroke-linejoin="round"/><path fill-rule="evenodd" clip-rule="evenodd" d="M672.79 192.808h-2.795c-.676 0-1.22-.55-1.22-1.22v-2.795c0-.676.55-1.22 1.22-1.22h2.795c.67 0 1.22.55 1.22 1.22v2.795c.006.67-.544 1.22-1.22 1.22zm-9.691 0h-2.795c-.67 0-1.22-.55-1.22-1.22v-2.795c0-.676.55-1.22 1.22-1.22h2.795c.67 0 1.22.55 1.22 1.22v2.795c0 .67-.55 1.22-1.22 1.22zm-9.696 0h-2.795c-.67 0-1.22-.55-1.22-1.22v-2.795c0-.676.55-1.22 1.22-1.22h2.795c.67 0 1.22.55 1.22 1.22v2.795c.005.67-.545 1.22-1.22 1.22zm-9.691 0h-2.795c-.67 0-1.22-.55-1.22-1.22v-2.795c0-.676.55-1.22 1.22-1.22h2.795c.676 0 1.225.55 1.225 1.22v2.795a1.232 1.232 0 0 1-1.225 1.22zm-9.691 0h-2.795c-.676 0-1.226-.55-1.226-1.22v-2.795c0-.676.55-1.22 1.226-1.22h2.795c.67 0 1.22.55 1.22 1.22v2.795c0 .67-.55 1.22-1.22 1.22zm28.723-10.567h-2.795c-.67 0-1.22-.55-1.22-1.22v-2.801c0-.67.55-1.22 1.22-1.22h2.795c.676 0 1.22.55 1.22 1.22v2.795a1.218 1.218 0 0 1-1.22 1.226zm-9.691 0h-2.795c-.67 0-1.22-.55-1.22-1.22v-2.801c0-.67.55-1.22 1.22-1.22h2.795c.67 0 1.22.55 1.22 1.22v2.795a1.218 1.218 0 0 1-1.22 1.226zm-9.691 0h-2.795c-.676 0-1.225-.55-1.225-1.22v-2.801c0-.67.549-1.22 1.225-1.22h2.795c.67 0 1.22.55 1.22 1.22v2.795c0 .676-.55 1.226-1.22 1.226zm10.041 21.919h-2.795c-.67 0-1.22-.55-1.22-1.22v-2.795c0-.676.55-1.22 1.22-1.22h2.795c.67 0 1.22.55 1.22 1.22v2.795c.005.67-.545 1.22-1.22 1.22zm-9.691 0h-2.795c-.67 0-1.22-.55-1.22-1.22v-2.795c0-.676.55-1.22 1.22-1.22h2.795c.676 0 1.225.55 1.225 1.22v2.795a1.232 1.232 0 0 1-1.225 1.22z" fill="#E1E4E5"/><rect x="619.733" y="411.135" width="37.138" height="4.327" rx="2.163" transform="rotate(135 619.733 411.135)" fill="#E1E4E5"/><rect x="605.494" y="411.033" width="13.789" height="4.327" rx="2.163" transform="rotate(135 605.494 411.033)" fill="#E1E4E5"/><rect x="517.368" y="172.657" width="19.466" height="2.268" rx="1.134" transform="rotate(135 517.368 172.657)" fill="#E1E4E5"/><rect x="509.905" y="172.604" width="7.228" height="2.268" rx="1.134" transform="rotate(135 509.905 172.604)" fill="#E1E4E5"/><circle cx="525" cy="405" r="6" transform="rotate(90 525 405)" fill="#E1E4E5"/><circle cx="523" cy="191" r="6" transform="rotate(90 523 191)" fill="#E1E4E5"/><circle cx="599.901" cy="106.901" r="7.268" transform="rotate(-15 599.901 106.901)" fill="#E1E4E5"/><path fill-rule="evenodd" clip-rule="evenodd" d="M591 162.56v-24.051a4.504 4.504 0 0 1 4.5-4.509h27c2.486 0 4.5 2.018 4.5 4.509v24.051a4.51 4.51 0 0 1-2.315 3.941l-13.5 7.515a4.487 4.487 0 0 1-4.372 0l-13.5-7.515A4.515 4.515 0 0 1 591 162.56z" fill="#E1E4E5"/><path d="M601.517 153.887h14.966m-14.966-7.011h14.966m-14.966 13.821h14.966" stroke="#fff" stroke-width="2.529" stroke-linecap="round" stroke-linejoin="round"/><defs><linearGradient id="a" x1="460.31" y1="534.551" x2="460.255" y2="454.507" gradientUnits="userSpaceOnUse"><stop stop-color="#fff"/><stop offset="1" stop-color="#EEE"/></linearGradient><linearGradient id="b" x1="519.335" y1="524.102" x2="515.152" y2="-48.018" gradientUnits="userSpaceOnUse"><stop stop-color="#fff"/><stop offset="1" stop-color="#EEE"/></linearGradient><linearGradient id="c" x1="394.8" y1="367.872" x2="391.484" y2="-85.056" gradientUnits="userSpaceOnUse"><stop stop-color="#fff"/><stop offset="1" stop-color="#EEE"/></linearGradient></defs></svg>