<svg width="900" height="600" viewBox="0 0 900 600" fill="none" xmlns="http://www.w3.org/2000/svg"><path fill="transparent" d="M0 0h900v600H0z"/><path fill-rule="evenodd" clip-rule="evenodd" d="m481.576 269.085-108 168.822h232.133l-108-168.822c-3.585-5.604-12.548-5.604-16.133 0z" fill="#fff" stroke="#E1E4E5" stroke-width="4"/><path fill-rule="evenodd" clip-rule="evenodd" d="m459.691 303.334 24.776-38.729c2.3-3.595 8.05-3.595 10.351 0l30.434 47.576c.992 1.55 1.283 3.385.814 5.124l-.033.12c-1.058 3.92-6.526 5.198-9.561 2.235l-9.759-9.53c-2.61-2.549-7.153-2.304-9.408.507l-.076.094c-1.626 2.028-4.877 2.261-6.839.491l-.075-.068c-1.938-1.749-5.159-1.486-6.717.549l-5.143 6.718c-2.101 2.746-6.818 1.92-7.631-1.336l-2.562-10.257c-.471-1.887-3.018-2.617-4.61-1.322l-.466.38c-1.925 1.567-4.791-.526-3.495-2.552zm-80.955-39.666L489 436.368H252l110.264-172.7c3.661-5.733 12.811-5.733 16.472 0z" fill="#fff" stroke="#E1E4E5" stroke-width="4"/><path fill-rule="evenodd" clip-rule="evenodd" d="M441.977 299.478 522 424.368H350l80.023-124.89c2.657-4.146 9.297-4.146 11.954 0zm-40.317-.856-25.917-40.438c-2.406-3.754-8.421-3.754-10.827 0l-31.836 49.675c-1.037 1.618-1.342 3.534-.851 5.35l.034.125c1.108 4.093 6.827 5.427 10.001 2.334l10.209-9.951c2.73-2.661 7.482-2.405 9.841.53l.079.098c1.702 2.117 5.102 2.361 7.154.512l.079-.071c2.027-1.826 5.397-1.551 7.026.574l5.379 7.014c2.199 2.867 7.133 2.005 7.983-1.394l2.68-10.71c.492-1.97 3.157-2.733 4.822-1.381l.488.397c2.013 1.636 5.011-.549 3.656-2.664z" fill="#fff" stroke="#E1E4E5" stroke-width="4"/><path fill-rule="evenodd" clip-rule="evenodd" d="m457.767 323.669-17.772-27.393c-1.65-2.544-5.774-2.544-7.424 0l-21.83 33.65c-.712 1.096-.921 2.395-.584 3.625l.024.085c.759 2.772 4.681 3.676 6.857 1.581l7.001-6.741c1.872-1.803 5.13-1.63 6.748.358l.054.067c1.167 1.434 3.499 1.599 4.906.347l.054-.048c1.39-1.237 3.7-1.051 4.818.388l3.688 4.752c1.508 1.942 4.891 1.358 5.474-.945l1.837-7.255c.338-1.334 2.166-1.851 3.307-.935l.335.269c1.381 1.108 3.436-.372 2.507-1.805zm54.335-42.918-102.196 159.75h219.658l-102.196-159.75c-3.393-5.303-11.874-5.303-15.266 0z" fill="#fff" stroke="#E1E4E5" stroke-width="4"/><path fill-rule="evenodd" clip-rule="evenodd" d="M351.33 338.992 416 444.368H277l64.67-105.376c2.147-3.498 7.513-3.498 9.66 0z" fill="#fff" stroke="#E1E4E5" stroke-width="4"/><path fill-rule="evenodd" clip-rule="evenodd" d="M429.101 354.603 484 444.368H366l54.899-89.765c1.823-2.98 6.379-2.98 8.202 0z" fill="#fff" stroke="#E1E4E5" stroke-width="4"/><path fill-rule="evenodd" clip-rule="evenodd" d="M109 497.19s69.801-68.845 167.877-69.812c98.521-.971 176.903 67.455 184.123 70.99l-352-1.178z" fill="#fff" stroke="#E1E4E5" stroke-width="4"/><path fill-rule="evenodd" clip-rule="evenodd" d="M268 497.809s93.398-91.147 224.631-92.427c131.827-1.286 236.707 89.306 246.369 93.986l-471-1.559z" fill="#fff" stroke="#E1E4E5" stroke-width="4"/><path fill-rule="evenodd" clip-rule="evenodd" d="M480 498.34s61.869-60.119 148.8-60.963c87.325-.848 156.8 58.904 163.2 61.991l-312-1.028z" fill="#fff" stroke="#E1E4E5" stroke-width="4"/><path fill-rule="evenodd" clip-rule="evenodd" d="M491 151.867c0 27.89-22.608 50.501-50.5 50.501-27.89 0-50.5-22.611-50.5-50.501 0-27.889 22.61-50.499 50.5-50.499 27.892 0 50.5 22.61 50.5 50.499z" fill="#009688"/><path fill-rule="evenodd" clip-rule="evenodd" d="M726.125 241.684c13.565 0 7.218-21.511-9.967-16.373-.952-29.867-49.634-51.72-69.765-11.436-5.691-4.504-18.472 4.003-15.642 11.436-6.322.539-11.295 1.27-15.165 2.239-8.935 2.236-7.166 14.033 2.043 13.95l108.496.184zm-255.572 0c-12.827 0-6.825-20.34 9.425-15.482.9-28.242 46.935-48.907 65.971-10.814 5.382-4.259 17.468 3.785 14.791 10.814 5.979.51 10.682 1.202 14.341 2.117 8.449 2.115 6.777 13.27-1.932 13.192l-102.596.173zm-107.025-86.226c9.592 0 5.104-15.209-7.047-11.576-.673-21.119-35.096-36.57-49.329-8.087-4.025-3.184-13.062 2.831-11.06 8.087-4.471.381-7.987.898-10.724 1.583-6.317 1.581-5.067 9.922 1.445 9.864l76.715.129zm206.627 50.912h57.466c5.138 0 7.351-6.666 3.147-9.623l-.178-.126c-5.987-4.123-13.843-3.748-13.843-3.748s-1.121-22.309-22.259-22.309c-19.11 0-26.731 18.797-29.48 29.153-.893 3.364 1.673 6.653 5.147 6.653zm-373.619-12.027h51.622c4.615 0 6.604-6.021 2.827-8.692l-.16-.113c-5.377-3.724-12.435-3.386-12.435-3.386s-1.007-20.15-19.995-20.15c-17.167 0-24.013 16.978-26.482 26.331-.803 3.039 1.503 6.01 4.623 6.01zm12.56 47.135h-69.25c-5.607 0-8.025-7.097-3.435-10.246.064-.044.129-.089.194-.132 6.534-4.39 15.108-3.992 15.108-3.992s1.225-23.747 24.295-23.747c11.406 0 20.624 19.058 20.624 19.058s15.516 0 18.084 11.975c.776 3.627-1.827 7.084-5.62 7.084zm38.951 2.317h153.528c14.411 0 13.75-11.928 9.043-16.084-4.825-4.26-14.359-2.532-14.359-2.532s-2.838-8.023-12.18-11.929c-8.264-3.455-16.921-1.811-16.921-1.811s0-5.507-5.291-10.067c-5.291-4.561-12.346-4.117-12.346-4.117s-4.85-30.363-37.258-30.363-36.156 28.589-36.156 28.589-7.275 0-12.567 4.877c-5.291 4.875-5.952 10.415-5.952 10.415s-17.696-2.396-22.929 12.948c-3.119 9.146 3.289 20.074 13.388 20.074zm382.934-86.226H518.047c-10.601 0-10.115-8.774-6.652-11.831 3.549-3.134 10.562-1.863 10.562-1.863s2.088-5.902 8.96-8.775c6.078-2.541 12.446-1.332 12.446-1.332s0-4.05 3.892-7.405c3.893-3.355 9.082-3.028 9.082-3.028S559.905 101 583.744 101s26.596 21.03 26.596 21.03 5.351 0 9.244 3.587c3.892 3.586 4.378 7.662 4.378 7.662s13.017-1.764 16.866 9.524c2.294 6.727-2.419 14.766-9.847 14.766z" fill="#fff" stroke="#E1E4E5" stroke-width="4"/><path fill-rule="evenodd" clip-rule="evenodd" d="M704 452c-8.006 15.889-23.431 19.424-39.506 20.919-15.462 1.437-30.853 1.018-46.376.842-23.155-.264-44.805 8.097-61.118 25.239" fill="#fff"/><path d="M704 452c-8.006 15.889-23.431 19.424-39.506 20.919-15.462 1.437-30.853 1.018-46.376.842-23.155-.264-44.805 8.097-61.118 25.239" stroke="#E1E4E5" stroke-width="4"/><path fill-rule="evenodd" clip-rule="evenodd" d="M213 495.368v-11 11z" fill="#fff"/><path d="M213 495.368v-11" stroke="#E1E4E5" stroke-width="4"/><path fill-rule="evenodd" clip-rule="evenodd" d="M431 495.368v-11 11z" fill="#fff"/><path d="M431 495.368v-11" stroke="#E1E4E5" stroke-width="4"/><path fill-rule="evenodd" clip-rule="evenodd" d="M621 495.368v-11 11z" fill="#fff"/><path d="M621 495.368v-11" stroke="#E1E4E5" stroke-width="4"/><path fill-rule="evenodd" clip-rule="evenodd" d="M346 495.368v-11 11z" fill="#fff"/><path d="M346 495.368v-11" stroke="#E1E4E5" stroke-width="4"/><path fill-rule="evenodd" clip-rule="evenodd" d="M225 495.368v-8 8z" fill="#fff"/><path d="M225 495.368v-8" stroke="#E1E4E5" stroke-width="4"/><path fill-rule="evenodd" clip-rule="evenodd" d="M443 495.368v-8 8z" fill="#fff"/><path d="M443 495.368v-8" stroke="#E1E4E5" stroke-width="4"/><path fill-rule="evenodd" clip-rule="evenodd" d="M633 495.368v-8 8z" fill="#fff"/><path d="M633 495.368v-8" stroke="#E1E4E5" stroke-width="4"/><path fill-rule="evenodd" clip-rule="evenodd" d="M334 495.368v-8 8z" fill="#fff"/><path d="M334 495.368v-8" stroke="#E1E4E5" stroke-width="4"/><path fill-rule="evenodd" clip-rule="evenodd" d="M253 495.368v-5 5z" fill="#fff"/><path d="M253 495.368v-5" stroke="#E1E4E5" stroke-width="4"/><path fill-rule="evenodd" clip-rule="evenodd" d="M171 495.368v-5 5z" fill="#fff"/><path d="M171 495.368v-5" stroke="#E1E4E5" stroke-width="4"/><path fill-rule="evenodd" clip-rule="evenodd" d="M471 495.368v-5 5z" fill="#fff"/><path d="M471 495.368v-5" stroke="#E1E4E5" stroke-width="4"/><path fill-rule="evenodd" clip-rule="evenodd" d="M661 495.368v-5 5z" fill="#fff"/><path d="M661 495.368v-5" stroke="#E1E4E5" stroke-width="4"/><path fill-rule="evenodd" clip-rule="evenodd" d="M306 495.368v-5 5z" fill="#fff"/><path d="M306 495.368v-5" stroke="#E1E4E5" stroke-width="4"/><path fill-rule="evenodd" clip-rule="evenodd" d="M201 495.368v-8 8z" fill="#fff"/><path d="M201 495.368v-8" stroke="#E1E4E5" stroke-width="4"/><path fill-rule="evenodd" clip-rule="evenodd" d="M419 495.368v-8 8z" fill="#fff"/><path d="M419 495.368v-8" stroke="#E1E4E5" stroke-width="4"/><path fill-rule="evenodd" clip-rule="evenodd" d="M609 495.368v-8 8z" fill="#fff"/><path d="M609 495.368v-8" stroke="#E1E4E5" stroke-width="4"/><path fill-rule="evenodd" clip-rule="evenodd" d="M358 495.368v-8 8z" fill="#fff"/><path d="M358 495.368v-8" stroke="#E1E4E5" stroke-width="4"/><path fill-rule="evenodd" clip-rule="evenodd" d="M725.515 393.766h.036c.983 0 1.78.797 1.78 1.78v80.29h-3.597v-80.29c0-.983.797-1.78 1.781-1.78z" fill="#fff" stroke="#E1E4E5" stroke-width="4"/><path fill-rule="evenodd" clip-rule="evenodd" d="M694 431.357c0 17.491 14.179 31.671 31.671 31.671 17.492 0 31.671-14.18 31.671-31.671 0-17.492-14.179-51.989-31.671-51.989-17.492 0-31.671 34.497-31.671 51.989z" fill="#fff"/><path d="M694 431.357c0 17.491 14.179 31.671 31.671 31.671 17.492 0 31.671-14.18 31.671-31.671 0-17.492-14.179-51.989-31.671-51.989-17.492 0-31.671 34.497-31.671 51.989" stroke="#E1E4E5" stroke-width="4"/><path fill-rule="evenodd" clip-rule="evenodd" d="M236.515 381.766h.036c.983 0 1.78.797 1.78 1.78v80.29h-3.597v-80.29c0-.983.797-1.78 1.781-1.78z" fill="#fff" stroke="#E1E4E5" stroke-width="4"/><path fill-rule="evenodd" clip-rule="evenodd" d="M205 419.357c0 17.491 14.179 31.671 31.671 31.671 17.492 0 31.671-14.18 31.671-31.671 0-17.492-14.179-51.989-31.671-51.989-17.492 0-31.671 34.497-31.671 51.989z" fill="#fff"/><path d="M205 419.357c0 17.491 14.179 31.671 31.671 31.671 17.492 0 31.671-14.18 31.671-31.671 0-17.492-14.179-51.989-31.671-51.989-17.492 0-31.671 34.497-31.671 51.989" stroke="#E1E4E5" stroke-width="4"/><path fill-rule="evenodd" clip-rule="evenodd" d="M152.348 418.035h.026c.729 0 1.319.59 1.319 1.319v59.483h-2.665v-59.483a1.32 1.32 0 0 1 1.32-1.319z" fill="#fff" stroke="#E1E4E5" stroke-width="4"/><path fill-rule="evenodd" clip-rule="evenodd" d="M129 445.884c0 12.958 10.505 23.463 23.463 23.463 12.959 0 23.464-10.505 23.464-23.463 0-12.959-10.505-38.516-23.464-38.516-12.958 0-23.463 25.557-23.463 38.516z" fill="#fff"/><path d="M129 445.884c0 12.958 10.505 23.463 23.463 23.463 12.959 0 23.464-10.505 23.464-23.463 0-12.959-10.505-38.516-23.464-38.516-12.958 0-23.463 25.557-23.463 38.516" stroke="#E1E4E5" stroke-width="4"/><path fill-rule="evenodd" clip-rule="evenodd" d="M545.348 380.035h.026c.729 0 1.319.59 1.319 1.319v59.483h-2.665v-59.483a1.32 1.32 0 0 1 1.32-1.319z" fill="#fff" stroke="#E1E4E5" stroke-width="4"/><path fill-rule="evenodd" clip-rule="evenodd" d="M522 407.884c0 12.958 10.505 23.463 23.463 23.463 12.959 0 23.464-10.505 23.464-23.463 0-12.959-10.505-38.516-23.464-38.516-12.958 0-23.463 25.557-23.463 38.516z" fill="#fff"/><path d="M522 407.884c0 12.958 10.505 23.463 23.463 23.463 12.959 0 23.464-10.505 23.464-23.463 0-12.959-10.505-38.516-23.464-38.516-12.958 0-23.463 25.557-23.463 38.516" stroke="#E1E4E5" stroke-width="4"/><path fill-rule="evenodd" clip-rule="evenodd" d="M360.507 416.453h.018c.484 0 .876.392.876.876v39.507h-1.77v-39.507c0-.484.392-.876.876-.876z" fill="#fff" stroke="#E1E4E5" stroke-width="4"/><path fill-rule="evenodd" clip-rule="evenodd" d="M345 434.95c0 8.606 6.977 15.584 15.584 15.584s15.584-6.978 15.584-15.584c0-8.607-6.977-25.582-15.584-25.582S345 426.343 345 434.95z" fill="#fff"/><path d="M345 434.95c0 8.606 6.977 15.584 15.584 15.584s15.584-6.978 15.584-15.584c0-8.607-6.977-25.582-15.584-25.582S345 426.343 345 434.95" stroke="#E1E4E5" stroke-width="4"/><path fill-rule="evenodd" clip-rule="evenodd" d="M645.507 417.453h.018c.484 0 .876.392.876.876v39.507h-1.77v-39.507c0-.484.392-.876.876-.876z" fill="#fff" stroke="#E1E4E5" stroke-width="4"/><path fill-rule="evenodd" clip-rule="evenodd" d="M630 435.95c0 8.606 6.977 15.584 15.584 15.584s15.584-6.978 15.584-15.584c0-8.607-6.977-25.582-15.584-25.582S630 427.343 630 435.95z" fill="#fff"/><path d="M630 435.95c0 8.606 6.977 15.584 15.584 15.584s15.584-6.978 15.584-15.584c0-8.607-6.977-25.582-15.584-25.582S630 427.343 630 435.95" stroke="#E1E4E5" stroke-width="4"/><path fill-rule="evenodd" clip-rule="evenodd" d="M482.507 382.453h.018c.484 0 .876.392.876.876v39.507h-1.77v-39.507c0-.484.392-.876.876-.876z" fill="#fff" stroke="#E1E4E5" stroke-width="4"/><path fill-rule="evenodd" clip-rule="evenodd" d="M467 400.95c0 8.606 6.977 15.584 15.584 15.584s15.584-6.978 15.584-15.584c0-8.607-6.977-25.582-15.584-25.582S467 392.343 467 400.95z" fill="#fff"/><path d="M467 400.95c0 8.606 6.977 15.584 15.584 15.584s15.584-6.978 15.584-15.584c0-8.607-6.977-25.582-15.584-25.582S467 392.343 467 400.95" stroke="#E1E4E5" stroke-width="4"/><path fill-rule="evenodd" clip-rule="evenodd" d="M431.507 429.453h.018c.484 0 .876.392.876.876v39.507h-1.77v-39.507c0-.484.392-.876.876-.876z" fill="#fff" stroke="#E1E4E5" stroke-width="4"/><path fill-rule="evenodd" clip-rule="evenodd" d="M416 447.95c0 8.606 6.977 15.584 15.584 15.584s15.584-6.978 15.584-15.584c0-8.607-6.977-25.582-15.584-25.582S416 439.343 416 447.95z" fill="#fff"/><path d="M416 447.95c0 8.606 6.977 15.584 15.584 15.584s15.584-6.978 15.584-15.584c0-8.607-6.977-25.582-15.584-25.582S416 439.343 416 447.95" stroke="#E1E4E5" stroke-width="4"/><rect x="85" y="497" width="729" height="5" rx="2.5" fill="#E1E4E5"/></svg>