<svg width="900" height="600" viewBox="0 0 900 600" fill="none" xmlns="http://www.w3.org/2000/svg"><path fill="transparent" d="M0 0h900v600H0z"/><ellipse cx="539.547" cy="271.975" rx="170.453" ry="169.917" fill="url(#a)"/><path d="M598.75 245.882c0-79.611-64.756-144.182-144.596-144.182S309.23 166.762 309.557 246.373c.164 39.56 16.231 75.36 42.133 101.352 20.165 20.271 35.084 45.119 42.461 72.745l11.64 42.994h94.758l10.984-40.705c7.706-28.117 22.952-53.619 43.773-74.053 26.886-26.319 43.444-62.61 43.444-102.824z" fill="#009688"/><path d="M453.504 515.113c-25.953 0-47.051-21.048-47.051-46.91v-9.148h94.102v9.148c0 26.021-21.093 46.91-47.051 46.91z" fill="#fff" stroke="#E1E4E5" stroke-width="4.59"/><path d="M503.168 479.647h-99.513c-2.131 0-3.771-1.635-3.771-3.76s1.64-3.76 3.771-3.76h99.513c2.131 0 3.77 1.635 3.77 3.76 0 1.961-1.803 3.76-3.77 3.76zm.657 16.021h-99.513c-2.131 0-3.77-1.635-3.77-3.76s1.639-3.76 3.77-3.76h99.513c2.131 0 3.77 1.635 3.77 3.76 0 1.961-1.639 3.76-3.77 3.76z" fill="#E1E4E5"/><path d="M395.054 268.3c-2.868 0-5.494.694-7.821 2.063-2.999 1.779-5.521 5.333-7.078 9.993-1.547 4.63-2.074 10.17-1.244 15.65 2.936 19.319 19.052 40.157 55.786 46.127-2.252-21.807-5.992-41.339-11.975-52.976L395.054 268.3zm0 0c1.793 0 3.666.262 5.624.8m-5.624-.8 5.624.8m0 0c8.485 2.432 16.789 9.84 22.044 20.057L400.678 269.1zm69.261 184.834.079 1.662h6.457l-.071-1.813-.003-.085c-.106-2.597-2.367-57.931 1.895-105.472 40.326-6.016 58.845-29.104 62.198-51.314.991-6.575.358-13.152-1.572-18.728-1.923-5.555-5.188-10.26-9.58-12.87-5.25-3.134-11.533-3.716-18.078-1.845-10.249 2.917-19.777 11.608-25.681 23.033l-.001.002c-6.643 12.899-10.54 33.921-12.818 56.509-4.977.557-10.287.849-15.98.849s-11.003-.292-15.98-.849c-2.278-22.618-6.176-43.61-12.818-56.509l-.001-.002c-5.904-11.424-15.432-20.116-25.68-23.033-6.545-1.87-12.826-1.29-18.076 1.843-4.41 2.61-7.676 7.316-9.595 12.873-1.927 5.577-2.551 12.154-1.56 18.727v.001c3.353 22.178 21.872 45.265 62.198 51.312 4.261 47.539 2 102.87 1.894 105.472l-.004.086-.07 1.813h6.458l.078-1.663c.16-3.406 1.95-57.503-2.235-104.992 4.842.477 9.998.747 15.423.747 5.417 0 10.573-.245 15.423-.738-4.186 47.487-2.461 101.606-2.3 104.984zm8.964-111.769c2.252-21.809 5.992-41.369 11.973-52.973 5.294-10.229 13.571-17.665 22.049-20.061l.012-.003c1.947-.565 3.815-.828 5.61-.828 2.868 0 5.488.695 7.809 2.089l.009.005c3 1.778 5.523 5.333 7.08 9.994 1.547 4.63 2.075 10.169 1.244 15.649-2.935 19.289-19.053 40.157-55.786 46.128z" fill="#fff" stroke="#fff" stroke-width="3.489"/><path d="M568.087 239.312c-3.814 0-6.894-3.112-6.894-6.967 0-43.172-28.874-80.691-70.207-91.284-3.673-.942-5.933-4.74-4.973-8.452.933-3.74 4.69-5.996 8.363-5.025 47.464 12.135 80.605 55.222 80.605 104.761 0 3.855-3.08 6.967-6.894 6.967zm-95.465-101.278c3.807 0 6.893-3.12 6.893-6.967 0-3.848-3.086-6.967-6.893-6.967-3.808 0-6.894 3.119-6.894 6.967 0 3.847 3.086 6.967 6.894 6.967z" fill="#fff"/><rect width="69.682" height="4.288" rx="2.144" transform="matrix(-1 0 0 1 313.348 327.185)" fill="#E1E4E5"/><rect width="68.61" height="4.288" rx="2.144" transform="matrix(-1 0 0 1 287.619 254.286)" fill="#E1E4E5"/><rect x="344.437" y="367.922" width="69.682" height="4.288" rx="2.144" transform="rotate(180 344.437 367.922)" fill="#E1E4E5"/><rect width="41.809" height="4.288" rx="2.144" transform="matrix(-1 0 0 1 289.763 217.837)" fill="#E1E4E5"/><rect x="365.877" y="404.371" width="40.737" height="4.288" rx="2.144" transform="rotate(180 365.877 404.371)" fill="#E1E4E5"/><rect width="40.737" height="4.288" rx="2.144" transform="matrix(-1 0 0 1 301.555 181.388)" fill="#E1E4E5"/><rect width="40.737" height="4.288" rx="2.144" transform="matrix(-1 0 0 1 326.212 144.939)" fill="#E1E4E5"/><rect width="40.737" height="4.288" rx="2.144" transform="matrix(-1 0 0 1 378.742 108.49)" fill="#E1E4E5"/><rect width="91.123" height="4.288" rx="2.144" transform="matrix(-1 0 0 1 295.123 290.735)" fill="#E1E4E5"/><defs><linearGradient id="a" x1="546.815" y1="632.423" x2="536.37" y2="-267.626" gradientUnits="userSpaceOnUse"><stop stop-color="#fff"/><stop offset="1" stop-color="#EEE"/></linearGradient></defs></svg>