<svg width="900" height="600" viewBox="0 0 900 600" fill="none" xmlns="http://www.w3.org/2000/svg"><g clip-path="url(#a)"><path fill="transparent" d="M0 0h900v600H0z"/><path d="M603.956 320.563c-23.904-15.923-52.154-20.219-78.064-14.24 6.682-25.095-2.895-52.738-25.718-67.94-28.675-19.1-67.4-11.358-86.483 17.291a62.52 62.52 0 0 0-8.54 19.199c-58.543-36.86-136.12-20.566-174.665 37.303-39.17 58.806-23.207 138.254 35.655 177.461 58.862 39.207 138.326 23.321 177.495-35.485a130.387 130.387 0 0 0 10.116-18.22c6.857 20.212 20.182 38.4 39.331 51.155 46.027 30.658 108.168 18.235 138.797-27.749 30.628-45.983 18.103-108.117-27.924-138.775zm-141.437 31.954c-.301.487-.577.969-.862 1.467-.117-.514-.25-1.038-.367-1.552.408.043.816.085 1.229.085z" fill="url(#b)"/><path d="M615.33 270.007c-22.455 14.226-55.469 2.406-55.469 2.406s3.415-34.878 25.885-49.088c22.455-14.225 55.455-2.421 55.455-2.421s-3.415 34.878-25.871 49.103z" fill="url(#c)"/><path d="M560.159 499.8a1.796 1.796 0 0 1 1.048-3.424 236.52 236.52 0 0 0 13.121 2.618 1.791 1.791 0 0 1 1.461 2.071 1.799 1.799 0 0 1-2.07 1.465 244.91 244.91 0 0 1-13.324-2.655c-.079-.023-.159-.045-.236-.075zm26.55 4.582a1.795 1.795 0 0 1 .859-3.456c4.442.529 8.917.95 13.309 1.251a1.798 1.798 0 0 1 1.667 1.908 1.796 1.796 0 0 1-1.908 1.672c-4.457-.301-8.993-.73-13.495-1.266a2.24 2.24 0 0 1-.432-.109zm26.848 1.794a1.793 1.793 0 0 1 .67-3.464 222.1 222.1 0 0 0 13.347-.229 1.788 1.788 0 0 1 1.872 1.706c.046.99-.717 1.83-1.706 1.878-4.43.215-8.991.291-13.562.227a1.607 1.607 0 0 1-.621-.118zm26.864-1.301a1.783 1.783 0 0 1-1.136-1.473 1.791 1.791 0 0 1 1.578-1.983c4.481-.516 8.91-1.19 13.167-2.001a1.78 1.78 0 0 1 2.092 1.428 1.793 1.793 0 0 1-1.422 2.099 183.376 183.376 0 0 1-13.433 2.045 1.95 1.95 0 0 1-.846-.115zm26.391-5.092a1.772 1.772 0 0 1-1.083-1.194 1.802 1.802 0 0 1 1.25-2.214 141.452 141.452 0 0 0 12.603-4.171 1.796 1.796 0 0 1 2.316 1.032c.352.923-.11 1.96-1.034 2.321a143.902 143.902 0 0 1-12.923 4.273 1.768 1.768 0 0 1-1.129-.047zm25.032-9.687a1.765 1.765 0 0 1-.953-.863 1.796 1.796 0 0 1 .789-2.414 117.907 117.907 0 0 0 11.425-6.664 1.793 1.793 0 0 1 2.486.503 1.8 1.8 0 0 1-.505 2.49 121.026 121.026 0 0 1-11.778 6.874 1.843 1.843 0 0 1-1.464.074zm22.323-14.84a1.794 1.794 0 0 1-.511-3.041 109.163 109.163 0 0 0 9.509-9.158 1.792 1.792 0 1 1 2.64 2.426 111.69 111.69 0 0 1-9.827 9.463c-.53.44-1.224.535-1.811.31zm18.142-19.713a1.792 1.792 0 0 1-.81-2.722 119.078 119.078 0 0 0 7.109-11.139 1.782 1.782 0 0 1 2.442-.679 1.796 1.796 0 0 1 .682 2.447 122.437 122.437 0 0 1-7.328 11.481 1.815 1.815 0 0 1-2.095.612zm13.352-23.285-.119-.046a1.79 1.79 0 0 1-.868-2.382 151.223 151.223 0 0 0 5.061-12.285 1.791 1.791 0 1 1 3.37 1.211c-.339.947-.702 1.916-1.07 2.876a158.588 158.588 0 0 1-4.116 9.715 1.797 1.797 0 0 1-2.258.911zm8.982-25.322a1.8 1.8 0 0 1-1.099-2.093c1.056-4.409 1.812-8.789 2.244-13.011a1.793 1.793 0 0 1 1.962-1.603 1.79 1.79 0 0 1 1.595 1.969c-.453 4.384-1.235 8.914-2.326 13.479a1.793 1.793 0 0 1-2.161 1.326c-.065-.018-.145-.04-.215-.067zm2.626-26.672a1.801 1.801 0 0 1-1.146-1.573c-.255-4.461-.903-8.817-1.937-12.942a1.794 1.794 0 0 1 1.3-2.178 1.787 1.787 0 0 1 2.173 1.299c1.088 4.339 1.772 8.917 2.043 13.609a1.793 1.793 0 0 1-1.688 1.893c-.264.02-.514-.02-.745-.108zm-54.125-22.978a1.788 1.788 0 0 1-1.063-2.208 1.795 1.795 0 0 1 2.248-1.179c3.966 1.246 8.359 1.901 12.702 1.894a1.796 1.796 0 0 1-.005 3.591c-4.703.006-9.465-.711-13.778-2.058-.032-.02-.076-.029-.104-.04zm-11.68-6.421a1.88 1.88 0 0 1-.577-.358c-4.402-4.106-6.12-9-4.827-13.776a1.794 1.794 0 0 1 2.194-1.265 1.79 1.79 0 0 1 1.257 2.201c-1.188 4.399 1.416 7.985 3.808 10.22a1.787 1.787 0 0 1-1.855 2.978zm38.154 6.385a1.781 1.781 0 0 1-1.07-1.142 1.802 1.802 0 0 1 1.175-2.25 39.624 39.624 0 0 0 11.443-5.749 1.788 1.788 0 0 1 2.503.397 1.795 1.795 0 0 1-.399 2.507 43.05 43.05 0 0 1-12.477 6.269c-.395.13-.811.107-1.175-.032zm21.053-2.862a1.793 1.793 0 0 1-.964-.876 55.193 55.193 0 0 0-7.071-10.891 1.79 1.79 0 0 1 .23-2.524 1.789 1.789 0 0 1 2.52.226 59.225 59.225 0 0 1 7.53 11.598c.439.884.08 1.968-.81 2.406-.47.222-.987.233-1.435.061zm-54.969-25.487a1.8 1.8 0 0 1-.263-3.227c3.976-2.318 8.594-3.546 13.725-3.645a1.787 1.787 0 0 1 1.821 1.759 1.792 1.792 0 0 1-1.759 1.825c-4.509.088-8.54 1.147-11.981 3.156a1.777 1.777 0 0 1-1.543.132zm55.327 12.854a2.095 2.095 0 0 1-.419-.225 1.793 1.793 0 0 1-.385-2.511c2.44-3.332 4.532-7.16 6.21-11.371a1.798 1.798 0 0 1 2.306-1.013l.021.008a1.793 1.793 0 0 1 1 2.329c-1.795 4.495-4.03 8.59-6.652 12.166a1.79 1.79 0 0 1-2.081.617zm-17.456-7.759a1.947 1.947 0 0 1-.405-.22c-3.597-2.584-7.447-4.614-11.397-6.007a1.793 1.793 0 0 1-1.088-2.29 1.789 1.789 0 0 1 2.288-1.092c4.267 1.507 8.425 3.695 12.291 6.479.804.581.987 1.696.412 2.504-.49.672-1.359.91-2.101.626zm27.615-16.927a1.79 1.79 0 0 1-1.112-2.018c.795-4.083 1.332-8.498 1.591-13.109a1.801 1.801 0 0 1 1.892-1.694 1.796 1.796 0 0 1 1.689 1.893c-.266 4.777-.822 9.346-1.655 13.591a1.794 1.794 0 0 1-2.101 1.421 1.486 1.486 0 0 1-.304-.084zm1.662-26.793a1.796 1.796 0 0 1-1.148-1.589 167.657 167.657 0 0 0-1.15-13.26 1.804 1.804 0 0 1 1.555-2.008 1.798 1.798 0 0 1 2.003 1.556c.578 4.665.976 9.214 1.171 13.54a1.796 1.796 0 0 1-2.431 1.761zm-3.527-26.628a1.79 1.79 0 0 1-1.101-1.249 103.12 103.12 0 0 0-3.977-12.583 1.796 1.796 0 0 1 1.02-2.326 1.787 1.787 0 0 1 2.32 1.018 106.357 106.357 0 0 1 4.118 13.031 1.798 1.798 0 0 1-2.38 2.109zm-9.674-24.988a1.786 1.786 0 0 1-.935-.825 118.143 118.143 0 0 0-6.926-11.27 1.79 1.79 0 0 1 .451-2.495c.81-.566 1.93-.37 2.491.448a120.637 120.637 0 0 1 7.138 11.616 1.79 1.79 0 0 1-.73 2.429 1.781 1.781 0 0 1-1.489.097zM476.428 118.919a1.793 1.793 0 0 1-1.151-1.662 1.8 1.8 0 0 1 1.776-1.811c3.886-.03 8.446.127 13.569.467a1.791 1.791 0 0 1 1.667 1.908 1.797 1.797 0 0 1-1.908 1.672c-5.031-.329-9.511-.486-13.302-.452a1.784 1.784 0 0 1-.651-.122zm257.963 97.667a1.774 1.774 0 0 1-.719-.509 150.603 150.603 0 0 0-9.072-9.69 1.788 1.788 0 0 1-.024-2.532 1.782 1.782 0 0 1 2.529-.028 157.863 157.863 0 0 1 9.29 9.918 1.794 1.794 0 0 1-2.004 2.841zm-231.134-96.032a1.79 1.79 0 0 1-1.137-1.867 1.785 1.785 0 0 1 1.973-1.59c4.307.461 8.811 1.014 13.394 1.653a1.792 1.792 0 0 1 1.527 2.024 1.793 1.793 0 0 1-2.023 1.532 437.07 437.07 0 0 0-13.289-1.638 1.853 1.853 0 0 1-.445-.114zm212.001 77.206a1.796 1.796 0 0 1-.511-.3 203.042 203.042 0 0 0-10.48-8.212 1.794 1.794 0 0 1-.388-2.504 1.79 1.79 0 0 1 2.5-.392 205.343 205.343 0 0 1 10.673 8.358 1.794 1.794 0 0 1-1.794 3.05zm-185.372-73.543a1.793 1.793 0 0 1 .935-3.443c4.376.721 8.843 1.517 13.275 2.363a1.8 1.8 0 0 1 1.426 2.098 1.801 1.801 0 0 1-2.097 1.431 568.611 568.611 0 0 0-13.193-2.348 1.962 1.962 0 0 1-.346-.101zm26.402 5.031a1.786 1.786 0 0 1-1.106-2.055 1.797 1.797 0 0 1 2.132-1.377c4.388.942 8.808 1.945 13.148 2.99a1.78 1.78 0 0 1 1.321 2.162 1.793 1.793 0 0 1-2.16 1.326 579.049 579.049 0 0 0-13.066-2.974 1.166 1.166 0 0 1-.269-.072zm137.323 52.621a2.03 2.03 0 0 1-.329-.166 272.36 272.36 0 0 0-11.388-6.952 1.795 1.795 0 0 1-.659-2.447 1.792 1.792 0 0 1 2.451-.66 261.792 261.792 0 0 1 11.545 7.045 1.796 1.796 0 0 1 .534 2.479 1.812 1.812 0 0 1-2.154.701zm-111.188-46.35a1.8 1.8 0 0 1-1.09-2.137 1.793 1.793 0 0 1 2.189-1.275 531.408 531.408 0 0 1 12.987 3.619 1.796 1.796 0 0 1-1.009 3.447 558.667 558.667 0 0 0-12.9-3.594c-.056-.021-.121-.038-.177-.06zm87.922 32.909a1.796 1.796 0 0 1-.186-.08 328.342 328.342 0 0 0-11.993-5.898 1.785 1.785 0 0 1-.858-2.386 1.785 1.785 0 0 1 2.384-.863 352.64 352.64 0 0 1 12.12 5.963 1.795 1.795 0 0 1 .767 2.416 1.793 1.793 0 0 1-2.234.848zm-62.136-25.373a1.797 1.797 0 0 1-1.064-2.224 1.793 1.793 0 0 1 2.25-1.163 493.126 493.126 0 0 1 12.783 4.296 1.814 1.814 0 0 1 1.095 2.293 1.794 1.794 0 0 1-2.283 1.102 454.516 454.516 0 0 0-12.692-4.262c-.026-.018-.054-.028-.089-.042zm37.805 13.975-.063-.025a393.265 393.265 0 0 0-12.402-5.018 1.798 1.798 0 0 1-1.027-2.322 1.786 1.786 0 0 1 2.311-1.027l.007.002a400.781 400.781 0 0 1 12.511 5.068 1.787 1.787 0 0 1 .945 2.348 1.786 1.786 0 0 1-2.282.974z" fill="#E1E4E5"/><path fill-rule="evenodd" clip-rule="evenodd" d="M428.151 210.02c-5.154-6.132-17.369-7.205-25.357.713-5.159 5.115-6.006 10.936-4.982 14.996.05.2.095.402.134.606l21.493 112.345c4.998 22.894 23.183 40.97 46.394 45.948l113.33 21.308.03.006.073.014c5.885 1.167 12.162-1.236 15.817-4.86 7.515-7.45 7.515-18.078 0-25.527L428.809 210.733c-.23-.228-.45-.466-.658-.713zm-51.183 4.439-82.342 82.342c-19.163 19.163-19.163 48.414 0 67.577L424.508 494.26c4.178 4.179 10.952 4.179 15.131 0 .125-.125.246-.252.363-.381l9.779 9.673 7.989-5.913 47.159 3.767 5.238-5.819c4.204 3.633 10.563 3.454 14.554-.537l69.132-69.132c-5.797 1.777-12.199 2.316-18.691 1.039l-113.411-21.322a9.807 9.807 0 0 1-.247-.05c-31.464-6.684-56.239-31.194-63.007-62.504a10.049 10.049 0 0 1-.051-.25l-21.465-112.2c-1.239-5.135-1.288-10.683-.013-16.172z" fill="#009688"/><path d="m453.042 116.221.258 12.126-65.374 4.889 65.116-17.015z" fill="#fff"/><path d="m451.908 141.909-8.772 8.626-52.271-17.568 61.043 8.942z" fill="#009688"/><path d="m387.926 133.236 94.575 18.865-21.716-25.546-72.859 6.681z" fill="#009688"/><path d="m453.043 116.222-65.116 17.015 52.174-34.287 12.942 17.272zm238.171 389.857c-21.238.396-26.859 2.075-48.906 1.384-10.501.098-21.71-.198-31.975-.395-4.881-1.285-13.464 0-19.253-1.087l-2.222.691c-1.985-.395-4.308-.593-6.327-.197l.134.197c-2.962-.494-6.327-.197-7.775-.494l.135.198-3.602-.099.606.296c-5.183-.592-10.501-.592-15.213-.395l.403-.889c-10.063.988-13.732-.791-22.786.296l.134.198c-11.477-2.273-18.108 1.581-29.922-.593 1.481.297-.64.395-.505.692-5.453-.198-11.242-.395-11.343-2.075-3.972 0-3.231.494-3.736 1.186.034-.692-3.433-1.087-6.53-1.087l1.414.296-8.886-.296 1.75-1.384c-4.712.396-1.211 1.68-5.688 1.384l.067-1.186c-6.496.198-10.333 1.976-16.627 2.865-26.186.494-54.325-2.47-78.66-.395l-1.077.889c-.471 1.285-6.732-1.877-7.641-.691l-2.827-.593c-.808.197-2.491.494-1.077.79-2.625.099-2.693-.197-4.577-.494l-2.828.791c-10.333.593-19.118-.889-29.99-.593-13.059 1.581-37.663.099-51.834-.692-19.925-1.877-43.083 3.162-63.48.988-.673.198-2.389-.197-2.356-.395l-18.68.198s-90.508.494-21.744-10.078l-.471-.297c10.232-.692 16.661-.79 23.696.593 1.111-1.68 8.381-.198 10.771-.692l-.236-.099c6.227 1.285 12.824-1.086 18.849.099-.236-.099-.37-.593-1.75-.593 4.375.198 10.366.593 10.703-.395 10.468.297 25.042-.197 31.74 1.384l-.471-.297c3.803 1.087 4.947.198 9.222.692.236-.099.539-.198.471-.297 4.174 1.087 12.151.198 15.483.593l.202-.691 8.28.197-3.096.099c1.077 1.778 6.26-1.186 12.251 0 5.621-.198 11.411 3.755 17.233 2.865 2.794.89-2.457-1.383 1.717-.691.135-.988-1.952-.593-.875-1.384 4.073.494 6.698-.988 11.747-.296l.202-.692c6.563 1.384 12.386-.988 16.762.297 6.765.593 4.543-2.174 11.612-.791l2.76-.988c3.029-.197 2.154 1.186 5.52.692-.202-.593 4.241-.494 2.255-1.087 7.573-.988 15.382 1.383 25.378-.296 2.155 1.185 7.203.494 8.819 1.383.269-.494 10.064-.099 4.443-1.285-.471-.099-1.346-.098-1.279.099l-.673-.692c5.688-1.383 10.333.791 15.987.495-1.682.197-3.904.197-2.423.691l5.251-.099-1.077-.592 7.808-.396-1.077.791c3.804-.395 5.15-1.68 9.459-.593 1.952.593-3.602.988.403 1.284 5.116-.494 12.757-1.284 19.253-1.482-.606.89 1.144.791 2.962.988l.202-.691c6.9.988 2.524-1.581 9.391-.791l-.606-.494 1.817 1.581c6.194 1.482 3.333-1.482 10.199.494-2.726-.099-1.279 1.581 2.053 1.285l-.841-.692c1.851.198 2.457.494 3.702.296-1.111-.395-.572-.988 2.154-.889l-1.817-.889 5.149 1.284c3.972-.79 10.266.198 11.916-.79 0 0 8.549-.494 10.501.593-1.717-.692 2.996-.988 1.649-1.779 2.222.791 8.751 1.384 11.377.593l-.505-.099c9.694-.889 16.56 1.186 25.244.099-.404.889 4.207.395 3.063 1.482 8.987 1.087 16.391-2.272 19.656 1.186 4.107.198 4.847-.791 6.968-.988l-.976-.198c7.674.297 9.895.297 15.583.198 2.828.296 3.299 1.877 8.381 1.482-1.649-.593.438-.494 2.323-.494-1.212-.099-1.582-.296.909-.791.336.198.908.297 1.413.396.034 0 .135-.099.068-.198 3.164.198 2.625.395 1.144.494.067.099-.034.198-.505.395 3.299-.79 9.189.099 9.593-.988 9.559.297 16.391 1.384 24.335 1.779.909-.593-.976-1.087-3.265-1.285l5.655.198c-.034-.791-3.232-.494-4.982-.593 6.732-1.284 13.867 1.285 21.744.099l1.649.593.471-.099c-.034.296 1.75.79 2.895.889 1.11-.691-.068-1.581 3.837-1.581 3.096-.691 8.751.297 12.79.692-2.188.099-1.481.494-.539.79 1.953 0 3.063-.691 4.578-.395l.202-.889c-.774.889 5.082.988 5.823 1.284 1.111-.691-3.029-.592-3.501-1.086 7.809.098 3.905-.001 11.747.098 4.174.692-.774.89 1.246 1.68 3.668.198 7.27.79 11.511.296l-1.347.791c6.934.691 11.074.593 15.719-.297 51.565 6.719 10.872 9.19 10.872 9.19-20.397 2.074-30.865-.297-55.032-.989z" fill="#009688"/><circle r="9.289" transform="scale(-1 1) rotate(30 -889.57 -1083.018)" fill="#133835"/><circle r="11" transform="matrix(1 0 0 -1 223 427)" fill="#133835"/><circle cx="322.489" cy="210.49" r="7.49" transform="rotate(-180 322.489 210.49)" fill="#E1E4E5"/><circle cx="275.993" cy="422.84" r="6.955" transform="rotate(-180 275.993 422.84)" fill="#E1E4E5"/><circle cx="178.628" cy="307.287" r="6.955" transform="rotate(-180 178.628 307.287)" fill="#E1E4E5"/><circle r="18.337" transform="matrix(1 0 0 -1 234.399 230.399)" fill="#009688"/><circle cx="529.461" cy="193.765" r="8.624" transform="rotate(45 529.461 193.765)" fill="#E1E4E5"/><circle r="15.449" transform="scale(-1 1) rotate(-45 128.234 987.433)" fill="#009688"/></g><defs><linearGradient id="b" x1="234.592" y1="696.889" x2="725.036" y2="-54.788" gradientUnits="userSpaceOnUse"><stop stop-color="#fff"/><stop offset="1" stop-color="#EEE"/></linearGradient><linearGradient id="c" x1="528.214" y1="316.165" x2="707.401" y2="141.219" gradientUnits="userSpaceOnUse"><stop stop-color="#fff"/><stop offset="1" stop-color="#EEE"/></linearGradient><clipPath id="a"><path fill="#fff" d="M0 0h900v600H0z"/></clipPath></defs></svg>