<svg width="900" height="600" viewBox="0 0 900 600" fill="none" xmlns="http://www.w3.org/2000/svg"><path fill="transparent" d="M0 0h900v600H0z"/><path d="M449.5 517.609c140.004 0 253.5-6.764 253.5-15.109 0-8.345-113.496-15.109-253.5-15.109-140.004 0-253.5 6.764-253.5 15.109 0 8.345 113.496 15.109 253.5 15.109z" fill="url(#a)"/><path fill-rule="evenodd" clip-rule="evenodd" d="M290.982 101c-20.661 0-37.563 16.84-37.563 37.426 0 20.586 16.902 37.426 37.563 37.426 4.145 0 7.54 3.382 7.54 7.512 0 4.13-3.395 7.512-7.54 7.512h-19.655c-10.079 0-18.327 8.218-18.327 18.26 0 10.042 8.248 18.26 18.327 18.26 8.717 0 15.85 7.107 15.85 15.792 0 15.847 13.013 28.812 28.918 28.812h169.753c20.662 0 37.564-16.84 37.564-37.426 0-20.586-16.902-37.426-37.564-37.426h-3.633c-4.145 0-7.54-3.378-7.54-7.512 0-4.13 3.391-7.512 7.54-7.512h24.458c10.079 0 18.327-8.218 18.327-18.26 0-10.03-8.227-18.239-18.289-18.26H487.03c-8.717 0-15.85-7.107-15.85-15.792 0-15.847-13.013-28.812-28.917-28.812H290.982z" fill="url(#b)"/><path d="M550.84 84.454a24.131 24.131 0 0 0-1.545-.497c-.172-.05-.343-.102-.515-.146a46.858 46.858 0 0 0-1.113-.267c-.178-.04-.356-.073-.537-.107a31.839 31.839 0 0 0-1.123-.188 27.27 27.27 0 0 0-.66-.084c-.16-.019-.32-.037-.482-.053a23.832 23.832 0 0 0-.759-.057c-.134-.008-.267-.021-.401-.026-.39-.019-.783-.029-1.178-.029H361.422a23.732 23.732 0 0 0-3.718.282 25.75 25.75 0 0 0-1.202.215c-10.335 2.116-18.29 10.78-19.374 21.478a24.66 24.66 0 0 0-.126 2.503v371.044c0 10.595 6.714 19.615 16.111 23.024.042.016.084.029.126.042.466.165.94.316 1.417.452.173.05.343.103.518.147.184.047.367.092.55.136.186.044.375.089.563.131.178.039.356.073.537.107a30.685 30.685 0 0 0 1.121.188c.217.032.437.058.659.084.16.018.32.037.482.052.252.024.506.042.76.058.133.008.267.021.4.026.39.018.783.029 1.179.029h181.107c.843 0 1.676-.042 2.498-.126 11.492-1.169 20.631-10.33 21.799-21.851.084-.824.125-1.659.125-2.504V107.478c-.005-10.595-6.719-19.615-16.114-23.023z" fill="#fff" stroke="#E1E4E5" stroke-width="4"/><path d="M451.975 483.058c7.776 0 14.079-6.303 14.079-14.078 0-7.775-6.303-14.079-14.079-14.079-7.775 0-14.078 6.304-14.078 14.079s6.303 14.078 14.078 14.078z" fill="#fff" stroke="#E1E4E5" stroke-width="4"/><rect x="429.685" y="102.942" width="45.755" height="2.346" rx="1.173" fill="#fff" stroke="#E1E4E5" stroke-width="2.346"/><rect x="354.6" y="120.54" width="195.924" height="310.898" rx="20" fill="#fff" stroke="#E1E4E5" stroke-width="4"/><path fill-rule="evenodd" clip-rule="evenodd" d="M419 230.297v4.851a4.857 4.857 0 0 0 4.857 4.852h58.286a4.857 4.857 0 0 0 4.857-4.852v-4.929C487 215.538 470.204 206 453 206s-34 9.543-34 24.219m21.979-68.24c-6.639 6.639-6.639 17.403 0 24.042 6.639 6.639 17.403 6.639 24.042 0 6.639-6.639 6.639-17.403 0-24.042-6.639-6.639-17.403-6.639-24.042 0z" fill="#009688"/><rect x="370" y="266" width="166" height="25" rx="12.5" fill="#fff" stroke="#E1E4E5" stroke-width="4"/><rect x="370" y="304" width="166" height="25" rx="12.5" fill="#fff" stroke="#E1E4E5" stroke-width="4"/><rect x="370" y="342" width="166" height="25" rx="12.5" fill="#009688" stroke="#009688" stroke-width="4"/><path fill-rule="evenodd" clip-rule="evenodd" d="M316.79 308.808h-2.795c-.676 0-1.22-.55-1.22-1.22v-2.795c0-.676.55-1.22 1.22-1.22h2.795c.67 0 1.22.55 1.22 1.22v2.795c.006.67-.544 1.22-1.22 1.22zm-9.691 0h-2.795c-.67 0-1.22-.55-1.22-1.22v-2.795c0-.676.55-1.22 1.22-1.22h2.795c.67 0 1.22.55 1.22 1.22v2.795c0 .67-.55 1.22-1.22 1.22zm-9.696 0h-2.795c-.67 0-1.22-.55-1.22-1.22v-2.795c0-.676.55-1.22 1.22-1.22h2.795c.67 0 1.22.55 1.22 1.22v2.795c.005.67-.545 1.22-1.22 1.22zm-9.691 0h-2.795c-.67 0-1.22-.55-1.22-1.22v-2.795c0-.676.55-1.22 1.22-1.22h2.795c.676 0 1.225.55 1.225 1.22v2.795a1.232 1.232 0 0 1-1.225 1.22zm-9.691 0h-2.795c-.676 0-1.226-.55-1.226-1.22v-2.795c0-.676.55-1.22 1.226-1.22h2.795c.67 0 1.22.55 1.22 1.22v2.795c0 .67-.55 1.22-1.22 1.22zm28.723-10.567h-2.795c-.67 0-1.22-.55-1.22-1.22v-2.801c0-.67.55-1.22 1.22-1.22h2.795c.676 0 1.22.55 1.22 1.22v2.795a1.218 1.218 0 0 1-1.22 1.226zm-9.691 0h-2.795c-.67 0-1.22-.55-1.22-1.22v-2.801c0-.67.55-1.22 1.22-1.22h2.795c.67 0 1.22.55 1.22 1.22v2.795a1.218 1.218 0 0 1-1.22 1.226zm-9.691 0h-2.795c-.675 0-1.225-.55-1.225-1.22v-2.801c0-.67.55-1.22 1.225-1.22h2.795c.671 0 1.22.55 1.22 1.22v2.795c0 .676-.549 1.226-1.22 1.226zm10.041 21.919h-2.795c-.67 0-1.22-.55-1.22-1.22v-2.795c0-.676.55-1.22 1.22-1.22h2.795c.67 0 1.22.55 1.22 1.22v2.795c.005.67-.545 1.22-1.22 1.22zm-9.691 0h-2.795c-.67 0-1.22-.55-1.22-1.22v-2.795c0-.676.55-1.22 1.22-1.22h2.795c.676 0 1.225.55 1.225 1.22v2.795a1.232 1.232 0 0 1-1.225 1.22z" fill="#E1E4E5"/><rect x="625.319" y="90.162" width="37.138" height="4.327" rx="2.163" transform="rotate(135 625.319 90.162)" fill="#E1E4E5"/><rect x="611.081" y="90.06" width="13.789" height="4.327" rx="2.163" transform="rotate(135 611.081 90.06)" fill="#E1E4E5"/><rect x="296.368" y="128.657" width="19.466" height="2.268" rx="1.134" transform="rotate(135 296.368 128.657)" fill="#E1E4E5"/><rect x="288.905" y="128.604" width="7.228" height="2.268" rx="1.134" transform="rotate(135 288.905 128.604)" fill="#E1E4E5"/><circle cx="525" cy="405" r="6" transform="rotate(90 525 405)" fill="#E1E4E5"/><circle cx="302" cy="147" r="6" transform="rotate(90 302 147)" fill="#E1E4E5"/><circle cx="238.025" cy="383.025" r="4.919" transform="rotate(-15 238.025 383.025)" fill="#E1E4E5"/><path d="M510.318 208.898c.605 4.672 2.223 10.304 4.843 12.217 2.972 2.171 3.89 4.476 3.89 4.476l3.02-.93 3.61-1.113s.005-.369-.017-.982a26.328 26.328 0 0 0-.194-2.419s-.688-1.48.277-2.918c.964-1.435 1.407-3.898.728-5.619-.675-1.715-.816-5.601-1.455-5.632-1.548-.086-.487 5.45-1.342 6.23-.769.712-1.427.256-1.544.158l-.024-.019c-3.749-2.801-6.522-13.865-9.072-13.045-.95.304-2.981 7.607-2.72 9.596zm152.408 114.968s-3.2 5.539-1.767 8.734c1.43 3.197 6.391 7.457 7.671 9.129 1.275 1.669 5.603 6.078 7.347 3.241 1.743-2.831-1.335-10.359-3.469-13.196-2.131-2.844-2.334-7.722-2.334-7.722l-7.448-.186z" fill="#F8AE9D"/><path d="M660.678 331.678s.244 6.103.534 7.732c.292 1.633.58 1.134 1.696.038 1.116-1.096 1.103-4.29 1.521-4.5.419-.211-3.751-3.27-3.751-3.27z" fill="#F8AE9D"/><path d="M604.692 208.23s-37.335 40.244-48.958 46.55l-29.283-34.565s-5.497.385-8.938 5.021c0 0 11.361 48.75 32.09 55.501 20.729 6.752 62.989-40.715 62.989-40.715l-7.9-31.792zm-34.81 294.995h38.339c1.842-2.171 1.163-10.188.887-12.809-.058-.529-.097-.833-.097-.833s-13.092-10.109-14.89-2.368a8.474 8.474 0 0 1-.194.716c-2.263 7.24-12.427 10.53-18.292 11.447-3.819.595-5.23 2.509-5.753 3.847z" fill="#133835"/><path d="M595.694 503.225h38.339c1.842-2.171 1.163-10.188.887-12.809-.058-.529-.097-.833-.097-.833s-13.092-10.109-14.89-2.368a8.474 8.474 0 0 1-.194.716c-2.263 7.24-12.427 10.53-18.292 11.447-3.819.595-5.23 2.509-5.753 3.847z" fill="#133835"/><path d="M580.355 330.843s1.833 19.838 3.987 43.682c2.928 32.391 6.45 72.18 6.799 79.717.604 13.089 3.017 34.024 3.017 34.024s5.731 4.974 17.201 2.877c0 0 10.224-29.887 13.143-61.512l.134-1.562c2.717-32.19 6.937-99.979 6.937-99.979l-51.218 2.753z" fill="#009688"/><path d="M590.752 332.201s3.457 19.641 7.562 43.25c5.579 32.074 12.356 71.476 13.316 78.959 1.664 12.994 5.801 33.693 5.801 33.693s6.233 4.614 17.742 1.849c0 0 8.011-30.356 8.447-62.011l.011-1.563c.185-32.206-.956-99.939-.956-99.939l-51.923 5.762z" fill="#009688"/><path d="M596.691 215.477c13.173 4.16 34.913-7.568 34.913-7.568s-11.089-8.616-10.455-27.574l-10.185 8.211-6.92 5.574s.027 3.289.784 9.05c.201 1.514.566 3.882-.57 5.095-4.411 4.708-7.567 7.212-7.567 7.212z" fill="#F8AE9D"/><path d="M600.016 193.811s21.763 3.617 23.806-9.972c2.044-13.589 6.227-22.274-7.581-25.157-13.808-2.882-17.297 1.893-19.081 6.263-1.783 4.37-2.75 27.575 2.856 28.866z" fill="#F8AE9D"/><path d="M578.299 337.873c.397.328.858.529 1.387.529 4.949-.068 19.377 2.682 31.584 1.428 10.291-.99 19.405-4.037 29.185-8.421 1.3-.584 4.288-2.18 4.224-3.631-.046-1.592-.201-3.895-.402-6.801-.693-10.099-1.897-27.465-.72-47.504.209-3.731.323-7.43.337-11.075.1-27.159-5.282-51.044-16.107-59.127-.926-.661-6.6 2.112-11.814 4.681-4.817 2.376-8.594 2.627-13.146 1.706l-5.588 4.032c-5.543 5.145-11.614 12.143-14.255 22.762-2.244 9.041-3.563 25.339-4.288 42.231-.328 7.654-.593 15.377-.661 22.698v.26c-.064.725-.064 1.519-.064 2.244-.265 18.812 0 33.723.328 33.988z" fill="#133835"/><path d="M665.989 326.687c-4.131.561-8.539-.018-8.539-.018s-9.961-38.162-11.326-41.672c-1.364-3.511-33.477-46.005-33.477-46.005l16.431-35.096s33.67 64.411 36.948 73.378c5.417 14.816 5.716 47.352 5.716 47.352s-2.507 1.623-5.753 2.061zm-39.718-147.716c-1.185 2.45-4.622 2.812-4.305.11.36-3.075.356-7.098-2.144-6.35-2.5.748-2.627 2.751-3.654 1.583-1.026-1.168-1.044-6.094-8.489-6.441-7.444-.342-10.468 2.249-13.926.725-2.072-.911-2.97-3.154-3.356-4.807-.109-.468.231-1.122.544-.757.296.345 1.039.324.827-.078-1.311-2.488-3.272-7.919 1.725-11.965 6.687-5.415 13.502-1.87 17.37-1.638 8.526.516 14.032 1.027 16.814 6.628 2.307 4.647 1.911 16.127-1.406 22.99z" fill="#133835"/><path d="M240.559 445.061c-5.542 5.64-15.906 4.451-15.906 4.451s-1.371-10.335 4.176-15.972c5.542-5.641 15.901-4.455 15.901-4.455s1.371 10.335-4.171 15.976z" fill="url(#c)"/><circle cx="668.5" cy="461.5" r="6.5" fill="#E1E4E5"/><path d="m367.521 268.912-15.507-4.251 12.017 8.882c-8.033 10.583-16.382 22.017-17.144 35.506-.266 4.403-.799 8.578-1.687 12.474l-18.311 3.972-4.772 1.027 6.117.508 15.075 1.269c-1.053 3.109-2.297 6.028-3.744 8.73-6.763 12.715-18.628 49.642-31.559 51.711h-.012c-.394-.787-18.908-37.194-1.815-92.876a108.598 108.598 0 0 1 8.781-20.608c.114-.215.229-.418.343-.621 20.76-37.079 58.397-55.061 63.549-36.153 2.83 10.355-3.54 20.088-11.331 30.43z" fill="#009688"/><path d="M339.566 337.055c-10.19 32.739-18.629 49.642-31.559 51.71h-.013c-.52 0-28.844-.406-4.2-89.385 2.068-7.449 7.512-17.55 11.166-24.098.115-.216.229-.419.343-.622-1.117 9.378-1.624 23.349 2.487 36.001 0 0 2.83 7.118 9.099 14.859l-4.772 1.028 6.117.508c3.033 3.489 6.789 7.042 11.332 9.999z" fill="#009688"/><path d="M307.803 431.517c-.901-127.226 44.274-188.149 68.22-197.666" stroke="#009688" stroke-width="2.5" stroke-miterlimit="10"/><path d="m307.702 310.876-8.515 7.677 8.718-2.639c.66 26.699-4.162 52.078-17.118 54.413-17.182 3.134-26.801-42.701-27.397-74.983l12.283 3.198-12.169-8.046c.063-2.004.178-7.829.33-9.606 1.7-18.983 8.083-38.348 19.542-50.403 7.131 11.789 13.222 25.38 17.537 38.831 3.616 11.243 6.053 26.394 6.789 41.558z" fill="#009688"/><path d="m263.821 280.89 37.092-11.572c-4.302-13.451-10.418-27.029-17.537-38.831-11.446 12.055-17.854 31.42-19.555 50.403z" fill="#009688"/><path d="M285.47 236.972c5.076 53.563 7.22 155.46 4.137 192.235" stroke="#009688" stroke-width="2.5" stroke-miterlimit="10"/><path d="M273.909 388.866c-9.796 4.01-26.255-17.296-38.919-45.213a307.854 307.854 0 0 1-2.157-4.936 225.33 225.33 0 0 1-3.908-9.822l7.905-1.281-10.291-5.406c-5.545-16.484-9.187-33.59-9.162-48.208l37.904 7.588c9.01 14.771 16.357 35.316 20.709 54.515l-3.895 11.23 5.456-3.756c4.327 22.803 3.921 42.206-3.642 45.289z" fill="#009688"/><path d="M228.582 282.451c27.816 58.258 55.593 122.912 53.347 150.435" stroke="#009688" stroke-width="2.5" stroke-miterlimit="10"/><path d="M280.3 319.254s-11.241-5.442-17.117-19.149l-22.41-2.886 20.618-2.298c-1.235-4.401-1.916-9.434-1.631-15.243.033-.658.028-1.296.061-1.953-5.815.11-13.331.039-14.042.014l14.068-7.211c-1.37-36.629-21.466-59.076-32.305-32.332-2.212 5.487-5.019 11.596-7.555 18.915l5.566 16.066-8.153-8.292c-.727 2.385-.844 3.028-.975 4.531-1.142 13.081 5.436 25.631 16.417 32.881 13.764 9.043 34.84 20.759 47.458 16.957z" fill="#009688"/><path d="m267.073 489.877 4.6-71.487h43.172l4.972 71.419c.53 7.715-5.585 14.271-13.321 14.271h-26.103c-7.715 0-13.817-6.511-13.32-14.203z" fill="#fff" stroke="#E1E4E5" stroke-width="4"/><path d="M264.717 420.723v-8.664h57.519v8.664h-57.519z" fill="#E1E4E5" stroke="#E1E4E5" stroke-width="4"/><defs><linearGradient id="a" x1="460.31" y1="534.551" x2="460.255" y2="454.507" gradientUnits="userSpaceOnUse"><stop stop-color="#fff"/><stop offset="1" stop-color="#EEE"/></linearGradient><linearGradient id="b" x1="394.8" y1="367.872" x2="391.484" y2="-85.056" gradientUnits="userSpaceOnUse"><stop stop-color="#fff"/><stop offset="1" stop-color="#EEE"/></linearGradient><linearGradient id="c" x1="218.447" y1="464.328" x2="258.514" y2="401.52" gradientUnits="userSpaceOnUse"><stop stop-color="#fff"/><stop offset="1" stop-color="#EEE"/></linearGradient></defs></svg>