<svg width="900" height="600" viewBox="0 0 900 600" fill="none" xmlns="http://www.w3.org/2000/svg"><path fill="transparent" d="M0 0h900v600H0z"/><path d="M450 522c178.388 0 323-6.716 323-15 0-8.284-144.612-15-323-15s-323 6.716-323 15c0 8.284 144.612 15 323 15z" fill="url(#a)"/><path fill-rule="evenodd" clip-rule="evenodd" d="M494.421 368.055H336.535v141.899h157.886V368.055z" fill="url(#b)"/><path fill-rule="evenodd" clip-rule="evenodd" d="m519.462 415.98 22.058-25.719 5.023-24.631c3.043-14.92 19.322-22.983 33.034-16.363l-7.936 35.035a85.498 85.498 0 0 1-20.393 38.921l-6.362 6.932-25.424-14.175z" fill="#F8AE9D"/><path fill-rule="evenodd" clip-rule="evenodd" d="M507.833 372.454c-5.823-7.188-4.714-17.737 2.476-23.558 7.188-5.819 17.731-4.711 23.552 2.475l22.304 27.535-26.034 21.075-22.298-27.527z" fill="#009688"/><path fill-rule="evenodd" clip-rule="evenodd" d="M466.233 455.345h85.017l-12.029-88.302a31.096 31.096 0 0 0-26.877-26.652l-19-2.426a27.436 27.436 0 0 0-30.886 28.378l3.775 89.002z" fill="#009688"/><path fill-rule="evenodd" clip-rule="evenodd" d="M520.344 327.542s7.213-26.23 8.541-31.531c1.329-5.301-2.067-8.828-6.683-7.065-5.03-5.808-24.709-15.114-32.766-12.249-8.057 2.865-10.795 15.631-1.531 21.667 9.264 6.036 32.439 29.178 32.439 29.178z" fill="url(#c)"/><path fill-rule="evenodd" clip-rule="evenodd" d="m482.678 292.275-2.069 22.41c-.772 8.367 5.312 15.805 13.666 16.708l-1.187 18.197 19.518-5.598 1.156-25.463 2.828.675a5.777 5.777 0 0 0 5.378-1.487l.527-.515a4.886 4.886 0 0 0-5.659-7.833l-3.074 1.591a55.196 55.196 0 0 1-28.857-16.301l-2.227-2.384z" fill="#F8AE9D"/><path fill-rule="evenodd" clip-rule="evenodd" d="m492.491 362.559 1.033 7.921a65.713 65.713 0 0 1-1.094 23.112l-21.374 93.679s-4.823-11.872-4.823-31.926c0-20.055 1.512-89.258 1.512-89.258l24.746-3.528z" fill="#133835"/><path fill-rule="evenodd" clip-rule="evenodd" d="M460.046 363.23c1.919-9.039 10.804-14.809 19.842-12.885 9.031 1.922 14.795 10.799 12.878 19.83l-7.378 34.762-32.716-6.964 7.374-34.743z" fill="url(#d)"/><path fill-rule="evenodd" clip-rule="evenodd" d="M460.046 363.23c1.919-9.039 10.804-14.809 19.842-12.885 9.031 1.922 14.795 10.799 12.878 19.83l-7.378 34.762-32.716-6.964 7.374-34.743z" fill="#009688"/><path fill-rule="evenodd" clip-rule="evenodd" d="m619.099 383.586 54.125 96.299a18.177 18.177 0 0 1 2.296 10.043l2.728 8.813h27.678l-10.856-13.84a17.977 17.977 0 0 1-2.475-4.24l-40.082-97.075h-33.414z" fill="#F8AE9D"/><path fill-rule="evenodd" clip-rule="evenodd" d="m503.64 463.257 1.839 18.576c1.458 14.725 14.118 25.776 28.905 25.231a77.803 77.803 0 0 0 63.55-37.227l33.497-54.899 18.543 29.755 35.523-3.579-27.032-50.346c-15.468-28.807-54.121-34.97-77.779-12.4l-72.781 69.431-4.265 15.458z" fill="#133835"/><path fill-rule="evenodd" clip-rule="evenodd" d="m577.346 389.627 52.712 93.988a17.774 17.774 0 0 1 2.237 9.805l2.658 8.601h26.956l-10.537-13.461a18.017 18.017 0 0 1-2.469-4.238l-39.015-94.695h-32.542z" fill="#F8AE9D"/><path fill-rule="evenodd" clip-rule="evenodd" d="m629.234 486.953 28.97-1.92 3.117 13.172c12.885 3.558 18.146 6.723 15.783 9.497l-44.84.017-3.03-20.766z" fill="#009688"/><path fill-rule="evenodd" clip-rule="evenodd" d="m673.121 486.953 28.97-1.92 3.118 13.172c12.884 3.558 18.145 6.723 15.782 9.497l-44.84.017-3.03-20.766z" fill="#009688"/><path fill-rule="evenodd" clip-rule="evenodd" d="m467.127 467.198 1.964 19.7c1.388 13.921 13.357 24.364 27.337 23.853a73.61 73.61 0 0 0 62.874-40.105l28.04-54.958 22.787 36.16 31.795-4.817-21.678-46.451c-14.288-30.616-54.37-38.237-78.898-15.002l-69.956 66.27-4.265 15.35z" fill="#133835"/><path d="M569.853 362.866h-47.099a4.282 4.282 0 0 0-4.282 4.282h51.381v-4.282z" fill="#133835"/><path fill-rule="evenodd" clip-rule="evenodd" d="M564.176 317.407a8.1 8.1 0 0 1 7.947-6.536h78.652a2.735 2.735 0 0 1 2.661 3.354l-11.666 49.932-85.28 2.19h-1.946l9.632-48.94z" fill="#133835"/><path fill-rule="evenodd" clip-rule="evenodd" d="M563.571 316.967a8.1 8.1 0 0 1 7.95-6.551h80.667a3.6 3.6 0 0 1 3.533 4.288l-8.514 43.709a10.8 10.8 0 0 1-10.601 8.735h-82.81l9.775-50.181z" fill="#009688"/><path fill-rule="evenodd" clip-rule="evenodd" d="M605.177 346.81a7.493 7.493 0 1 0 0-14.987 7.493 7.493 0 0 0 0 14.987z" fill="#fff"/><path fill-rule="evenodd" clip-rule="evenodd" d="m545.958 362.751-5.465-5.449c-7.238-7.218-19.208-6.288-25.245 1.962l-31.805 54.948 1.63-9.275-25.972-5.655-3.337 23.526c-1.726 12.167 6.58 23.485 18.704 25.487a22.614 22.614 0 0 0 24.357-13.144l32.105-72.4h15.028z" fill="#F8AE9D"/><rect x="157.774" y="357.515" width="248.338" height="88.588" rx="44.294" fill="#fff" stroke="#E1E4E5" stroke-width="4"/><rect x="167.214" y="366.228" width="71.161" height="71.161" rx="35.581" fill="#009688"/><path fill-rule="evenodd" clip-rule="evenodd" d="M218.964 416.735v2.379c0 1.313-1.052 2.379-2.348 2.379h-28.174c-1.296 0-2.348-1.066-2.348-2.379v-2.417c0-7.2 8.119-11.877 16.435-11.877 8.316 0 16.435 4.68 16.435 11.877m-10.54-32.778a8.336 8.336 0 0 1 0 11.79 8.338 8.338 0 0 1-11.79 0 8.336 8.336 0 0 1 0-11.79 8.336 8.336 0 0 1 11.79 0z" fill="#fff"/><rect x="246.363" y="377.846" width="132.156" height="7.987" rx="3.994" fill="#E1E4E5"/><rect x="246.363" y="397.452" width="132.156" height="7.987" rx="3.994" fill="#E1E4E5"/><rect x="246.363" y="417.058" width="132.156" height="7.987" rx="3.994" fill="#E1E4E5"/><rect x="174.901" y="239.768" width="248.338" height="88.588" rx="44.294" fill="#fff" stroke="#E1E4E5" stroke-width="4"/><rect x="184.341" y="248.481" width="71.161" height="71.161" rx="35.581" fill="#009688"/><path fill-rule="evenodd" clip-rule="evenodd" d="M236.091 298.988v2.379c0 1.314-1.052 2.379-2.348 2.379h-28.174c-1.296 0-2.348-1.065-2.348-2.379v-2.417c0-7.199 8.119-11.877 16.435-11.877 8.316 0 16.435 4.68 16.435 11.877m-10.54-32.778a8.338 8.338 0 0 1 0 11.79 8.336 8.336 0 0 1-11.79 0 8.336 8.336 0 0 1 0-11.79 8.338 8.338 0 0 1 11.79 0z" fill="#fff"/><rect x="263.49" y="260.1" width="132.156" height="7.987" rx="3.994" fill="#E1E4E5"/><rect x="263.49" y="279.705" width="132.156" height="7.987" rx="3.994" fill="#E1E4E5"/><rect x="263.49" y="299.311" width="132.156" height="7.987" rx="3.994" fill="#E1E4E5"/><rect x="219.859" y="122.021" width="248.338" height="88.588" rx="44.294" fill="#fff" stroke="#E1E4E5" stroke-width="4"/><rect x="229.298" y="130.735" width="71.161" height="71.161" rx="35.581" fill="#009688"/><path fill-rule="evenodd" clip-rule="evenodd" d="M281.048 181.242v2.379c0 1.313-1.052 2.379-2.348 2.379h-28.174c-1.296 0-2.348-1.066-2.348-2.379v-2.418c0-7.199 8.119-11.876 16.435-11.876 8.316 0 16.435 4.679 16.435 11.876m-10.54-32.777a8.335 8.335 0 0 1 0 11.789 8.336 8.336 0 0 1-11.79 0 8.335 8.335 0 0 1 0-11.789 8.336 8.336 0 0 1 11.79 0z" fill="#fff"/><rect x="308.447" y="142.354" width="132.156" height="7.987" rx="3.994" fill="#E1E4E5"/><rect x="308.447" y="161.958" width="132.156" height="7.987" rx="3.994" fill="#E1E4E5"/><rect x="308.447" y="181.564" width="132.156" height="7.987" rx="3.994" fill="#E1E4E5"/><path fill-rule="evenodd" clip-rule="evenodd" d="M587.29 78a27.87 27.87 0 0 0-4.875 6.067c-8.35 13.94-14.387 29.002-18.11 44.562-12.729-1.788-25.085-4.427-36.712-7.918C540.309 99.027 561.853 83.145 587.29 78zm-64.266 51.773c12.412 3.834 25.627 6.723 39.25 8.668a164.945 164.945 0 0 0-.002 56.792c-13.442 1.919-26.486 4.759-38.752 8.518-5.279-11.446-8.225-24.19-8.225-37.621 0-12.948 2.737-25.255 7.663-36.377l.066.02zm5.287 82.978c12.499 20.572 33.021 35.731 57.223 41.134a28.273 28.273 0 0 1-3.119-4.263c-8.353-13.946-14.39-29.012-18.114-44.577-12.467 1.751-24.575 4.32-35.99 7.706zm45.985-8.928c3.508 14.198 9.074 27.932 16.698 40.661l.001.001c6.604 11.031 21.836 11.031 28.441 0v-.001c7.624-12.729 13.191-26.463 16.699-40.661-20.38-2.126-41.461-2.126-61.839 0zm71.833 1.222c-3.723 15.565-9.761 30.632-18.113 44.577a28.364 28.364 0 0 1-3.117 4.261c24.199-5.405 44.717-20.565 57.214-41.136-11.414-3.384-23.52-5.951-35.984-7.702zm40.774-1.298c-12.264-3.757-25.306-6.595-38.744-8.514a164.938 164.938 0 0 0-.003-56.795c13.616-1.944 26.823-4.833 39.228-8.665l.078-.025c4.927 11.123 7.664 23.433 7.664 36.382 0 13.43-2.944 26.172-8.223 37.617zm-48.679-9.758c-21.748-2.347-44.271-2.347-66.017 0a154.89 154.89 0 0 1 .003-54.305c21.746 2.346 44.267 2.346 66.011-.001a154.944 154.944 0 0 1 .003 54.306zM574.3 129.85c20.377 2.125 41.455 2.124 61.831-.001-3.509-14.192-9.073-27.92-16.694-40.643l-.001-.002c-6.615-11.034-21.838-11.03-28.441 0h-.001c-7.621 12.724-13.186 26.454-16.694 40.646zm71.825-1.223c12.727-1.789 25.079-4.428 36.702-7.919-12.715-21.681-34.256-37.561-59.689-42.707a27.874 27.874 0 0 1 4.876 6.063l.001.002c8.35 13.94 14.387 29.001 18.11 44.561z" fill="#009688"/><defs><linearGradient id="a" x1="463.774" y1="538.82" x2="463.731" y2="459.354" gradientUnits="userSpaceOnUse"><stop stop-color="#fff"/><stop offset="1" stop-color="#EEE"/></linearGradient><linearGradient id="b" x1="412.112" y1="589.511" x2="416.044" y2="213.682" gradientUnits="userSpaceOnUse"><stop stop-color="#fff"/><stop offset="1" stop-color="#EEE"/></linearGradient><linearGradient id="c" x1="529.176" y1="276.162" x2="529.176" y2="327.542" gradientUnits="userSpaceOnUse"><stop stop-color="#354970"/><stop offset="1" stop-color="#18233D"/></linearGradient><linearGradient id="d" x1="463.524" y1="346.867" x2="452.66" y2="397.98" gradientUnits="userSpaceOnUse"><stop stop-color="#98D8FF"/><stop offset="1" stop-color="#5FB0FF"/></linearGradient></defs></svg>